<svg height="1080" width="1920" xmlns="http://www.w3.org/2000/svg">
  <path id="background" d="m0 0h1920v1080h-1920z" fill="#a1bcd7"/>
  <g id="transform" transform="translate(0,0) scale(1.00)">
    <path id="color1" d="m678.547 144.395c-16.064.002-31.942 3.121-46.317 10.916-5.71 2.33-12.051 1.618-17.941 3.218-20.4 4.3-38.17 16.51-52.75 31.01-14.59 16.44-27.009 34.681-38.619 53.311-7.6 11.42-14.12 23.61-22.85 34.25-15.43 19.28-35.7 33.98-57.23 45.73l.779.529c18.91-6.88 35.301-19.298 50.721-31.978 3.95-2.96 6.481-7.712 11.041-9.842-.24 3.86-3.572 6.271-5.512 9.311-11.77 16.38-26.179 30.739-42.139 43.009.45.34 1.33 1 1.78 1.33 5.27-3.06 9.22-8.908 14.92-10.548-2.69 5.3-5.63 10.49-8.44 15.74 8.46 5.88 15.769 13.38 24.619 18.68 1.41-10.01 1.761-20.19 4.311-30.01 2.6-13.19 13.001-23.521 24.381-29.871 6.67-2.52 13.338-5.14 20.058-7.53-2.87 3.77-6.088 8.739-11.388 8.719-6.73 1.13-13.871 3.711-17.811 9.641-10.39 15.14-12.559 33.92-14.939 51.65 8.3 6.79 18.639.73 27.619-1.01 11.06-3.33 24.071-9.48 26.621-21.91-.18-13.84 2.349-29.13 12.719-39.14-3.2 11.69-8.14 22.99-9.41 35.16-1.26 8.01-2.66 17.379-9.26 22.849-7.01 3.55-14.47 6.37-22.08 8.33-1.44 11.94-3.96 23.91-2.94 36 .86-5.91.591-14.009 3.641-18.279.81 9.42-.952 19.04 1.398 28.32 2.76-15.2 10.791-28.791 18.371-42.041 1.69-2.17 2.601-5.578 5.481-6.378-3.65 11.74-9.302 23.07-11.182 35.32 2.45-6.42 3.061-14.491 8.071-19.371-.97 8.88-4.731 17.42-4.901 26.41 3.84-11.31 8.87-22.2 14.91-32.49 1.18-1.73 1.591-4.57 4.051-4.91-3.25 13.82-7.221 28.139-4.791 42.429 1.17-10.63 3.46-22.449 8.66-31.369-.22 10.49-2.71 20.929-2.92 31.449 2.41-8.65 2.11-19.088 6.83-26.468.05 12.16 1.741 24.159 2.321 36.289 1.52-.2 1.6-1.99 2.15-3.1 3.76-12 8.55-23.66 13.94-35.01 1.41-2.78 1.88-6.5 4.71-8.23-1.33 14.9-7.04 29.049-11.06 43.359 5.98-10.65 10.96-21.788 15.98-32.908l1.129-.4c-.83 9.69-4.818 18.81-6.058 28.41 2.5-7.3 5.78-14.321 7.91-21.741-.16-1.2 2.569-4.521 2.139-1.371-1.55 11.44-3.88 22.92-7.2 34.01 8.95-9.45 16.339-20.569 23.119-31.359.7 7.05-3.289 13.44-4.029 20.32 4.53-5.91 6.089-14.051 11.129-19.301-.36 5.64-3.029 10.801-4.189 16.291 3.19-3.99 3.1-10.19 7.17-13.31-.7 6.58-2.549 12.999-3.209 19.609 6.86-6.34 12.27-15.219 21.24-18.639-1.73-4.72-8-6.55-10.74-10.99-1.91 5.33-8.65 6.07-12.76 2.83-6.24-4.35-13.992-4.17-21.102-5.81-5.7-1.69-6.7-8.45-7.01-13.53-.27-6.97-3.979-13.35-3.939-20.33 4.85.35 5.87 6.481 9.23 9.241-1.09-2.44-2.899-4.582-3.349-7.272 2.7 1 4.389 3.431 6.379 5.371 6.42 7.06 14.511 12.401 22.881 16.891-3.63-6.92-9.571-13.171-10.161-21.291 4.7 4.27 7.01 10.56 11.19 15.33-9.09-17.84-12.25-38.349-11.02-58.199l.889.228c3.13 12.16 6.94 24.441 14.15 34.871-3.56-11.28-6.969-23.089-6.009-35.019 3.34 7.05 4.61 17.398 8.9 25.148-2.02-8.27-3.849-16.679-4.029-25.199l.978.18c3.25 11.64 8.062 23 14.932 32.97-.36-8.51-.171-17.08 2.869-25.16 3.64-8.72 5.879-18.52 11.459-26.16 1.26 15.02-3.119 29.729-5.939 44.359 7.22-13 11.06-27.518 14.06-41.968l.891-.231c.63 10.15 4.038 21.47-3.022 30.16 1.6-1.83 2.661-4.34 5.041-5.3 1.26 5.5-1.22 10.859-.74 16.349 3.84-8.23 3.69-18.899 7.77-26.209.59 7.07-.02 14.17.24 21.25 2.5-9.25 2.29-18.84 2.57-28.31l.91.42c5.08 14.67 4.331 30.78 1.311 45.81 7.52-10.27 14.378-21.339 17.908-33.689.61-1.23.491-3.31 2.211-3.58.05 3.49-1.16 6.869-1.02 10.379 2.71-8.89 4.85-17.981 5.79-27.241.53 0 1.581.01 2.111.01.94 11.44-.302 22.83-1.932 34.15 5.74-16.78 6.591-34.658 6.701-52.218 5.82 11.78 5.8 26.97 7.7 40.33.86-11.45 1.191-22.891 1.291-34.391 5.62 8.79 4.27 20.92 4.41 31.26 3.49-10.73 6.058-21.851 6.648-33.141 4.32 7.25 1.601 18.331 2.391 27.121 2.53-7.82.64-16.101 1.57-24.111l.959.051c2.25 9.56 2.622 19.33 2.602 29.09 2.03-9.45.479-18.881.439-28.311 4.61 6.84 7.001 15.221 9.561 23.111 2.51 7.33-.78 14.81-.16 22.26.22 10.8-.371 21.621.339 32.401 1.03 6.14 1.78 12.34 1.78 18.58 1.86-9.05.951-18.261 1.461-27.401 1.65.31 1.609 2.349 2.039 3.629 2.32 11.43 4.16 23.041 4.39 34.711 6.37-18.14 3.751-37.431 4.561-56.221l1.029.051c2.54 13.55 5.01 27.24 4.44 41.08 3.37-14.78.26-30.299.55-45.259 7.63 14.8 9.42 32.77 11.53 49.41 4.54-15.24 5.481-31.4 3.281-47.09-.35-3.15 2.309.348 2.039 1.568 1.4 7.86 3.92 15.47 4.85 23.41 1.16-10.65-3.07-20.929-3.83-31.369 3.51 2.38 4.381 6.88 6.621 10.26 3.94 6.2 8.018 12.311 12.478 18.141-2.81-6.92-6.19-13.662-8.01-20.942 1.64-3.04 2.342-8.649 6.032-9.209 7.22 10.13 13.449 20.989 19.009 32.119.47 1.12.95 2.261 1.42 3.401 13.62 26.43 22.441 55.65 24.651 85.33 1.33-1.74 2.71-3.431 4.08-5.141.39-30.39-9.221-59.969-23.961-86.299-.51-1.19-.969-2.37-1.459-3.55-2.85-4.86-6.791-9.511-7.971-15.061 4.68 2.88 7.849 8.101 11.459 12.281.64 1.02 1.33 2.02 2.07 3 15.43 18.05 28.202 38.559 37.772 60.289 8.8-21.79 4.968-46.279-2.342-67.869-8.46-1.89-15.608-7.421-22.898-11.881-1.66-1.04-3.241-2.169-4.551-3.619-5.84-3.35-11.75-7.29-15.74-12.82-.92-.71-1.861-1.421-2.741-2.141-2.43-2.11-4.658-4.46-6.728-6.91-.91-6.42 1.519-12.83.939-19.33-.01-1.55.019-3.089.039-4.629-.24-9.32-3.339-18.27-4.169-27.43.38.31 1.161.921 1.541 1.231 4.56 10.33 9.399 21.058 9.929 32.488.64 1.92.971 3.921.971 5.951.36 5.24-.08 10.491.18 15.731 1.95-4.07.509-8.761 2.209-12.861.13-1.73.22-3.46.3-5.19-1.32-14.71-4.349-29.411-11.189-42.631-1.71-3.88-4.491-7.368-5.111-11.648 2.45.58 3.321 3.309 4.861 5.029 13.62 17.52 23.658 38.82 23.898 61.34 4.53-24.24-2.088-49.791-14.808-70.641-1.21-2.14-2.95-4.15-2.91-6.75 3.52 1.49 5.599 4.971 8.439 7.391 13.44 14.37 25.059 32.66 24.359 53.07 1.5-10.42-1.599-20.759-5.189-30.429-7-16.07-17.681-30.42-30.311-42.5-17.25-17.62-37.938-31.502-59.468-43.362-2.14-1.06-2.382-2.749.468-1.789 25.88 7.23 53.01 13.761 80 9.551 9.63-.97 18.792-4.231 27.952-7.191-11.52 1.99-22.991 5.87-34.891 5.05-37.87 1.87-73.59-12.93-109.02-24.15-15.12-4.665-31.369-7.778-47.433-7.775zm-104.986 97.304c7.803-.106 15.402 3.697 20.468 9.612-3.03 10.85-14.409 17.449-24.759 20.119-.94 8.52 4.271 18.83-3.469 25.47-6.84-4.43-13.511-10.959-22.051-12.009 2.5-10.04 13.191-13.841 22.061-16.311.94-8.81-1.37-19.14 4.4-26.59 1.116-.18 2.235-.276 3.35-.291zm.621 3.342c-.935.004-1.875.083-2.813.248-3.02 6.72-2.18 15.181-2.18 22.641 8.52-2.13 16.821-6.389 21.711-13.959-3.85-5.198-10.173-8.956-16.718-8.93zm215.718 16.709c3 2.8 3.151 8.229 5.401 11.939 1.4 2.86 2.879 7.101 2.949 10.711-4.27-1.68-6.509-7.41-6.119-11.81-.94-3.55-2.401-7.12-2.231-10.84zm-224.119 10.514c-.735.019-1.459.114-2.172.287-6.14 1.63-12.279 4.338-16.599 9.138 7.83 1.12 14.04 6.391 19.9 11.291.11-6.91-.16-13.81-.39-20.71-.248-.01-.494-.013-.739-.006zm249.139 7.457l1.26.009c.11 7.89.339 15.82.179 23.7-2.03-.25-3.289-2.109-4.519-3.549 1.19-6.66 2.19-13.42 3.08-20.16zm-31.83 25.99c2.68 1.52 1.42 5.698 3.43 7.908 1.59 2.68 4.67 3.66 7.48 4.49-.4-2.84-1.741-5.589-1.211-8.509 3.51 1.72 6.672 5.901 7.522 9.611 1.23-.41 1.509 3.329-.081 2.539.5 3.25-.191 6.501-1.281 9.551-2.52-1.78-3.889-6.61-2.719-9.75-4.43-.39-8.96-1.59-12.57-4.24-3.5-3.19-.56-7.73-.57-11.6zm-294.959 17.139c3.15.34-1.331 5.07-1.641 7.33-.91 5.91-6.351 9.439-11.881 10.109 3.78-6.17 8.962-11.809 13.522-17.439zm-34.121 13.91c-4.91 2.22-9.479 5.17-13.949 8.15 5.53-1.36 10.25-4.801 15.4-7.131-.36-.25-1.091-.769-1.451-1.019zm11.06 8.029c-40.41 12.75-83.31 21.921-118.4 46.971-16.29 12.23-30.5 29.45-33.42 50.17 2.84-11.01 9.131-20.71 16.221-29.45 15.82-17.27 37.33-27.781 58.75-36.361 23.74-9.92 48.899-15.798 73.029-24.558.65 2.99-.349 6.309-3.359 7.529-17.36 9.58-35.301 18.14-52.071 28.76-23.34 14.15-45.601 33.03-55.631 59.17-1.62 5.23-4.058 10.431-3.888 16.031 6.1-26.07 25.419-46.811 46.529-62.201 3.46-2.17 6.391-5.699 10.641-6.219-2 5.04-7.93 6.66-10.5 11.33-19.8 19.77-33.181 46.73-33.711 75 3.53-17.39 11.7-33.462 21.42-48.172.07-1.16 3.721-3.83 2.451-.93-5.63 13.39-11.282 27.371-11.762 42.061 2.37-9.91 4.361-21.069 9.891-29.369-2.67 16.63-5.511 33.559-2.811 50.429 2.4-30.07 19.551-57.14 40.981-77.55 10.44-10.94 22.471-20.319 34.881-28.879.71 2.95-2.341 4.08-4.131 5.67-3.64 2.69-6.271 6.4-9.141 9.84-21.06 20.75-37.29 48.76-37.6 78.9 3.44-30.07 19.541-57.591 41.481-78.031 13.31-14.53 29.911-25.26 46.041-36.35-.16-1.8.53-4.11-.99-5.48-8.65-5.59-16.881-11.841-24.901-18.311zm410.619 2.611c.32 1.1.682 2.199 1.032 3.299 23.8 9.37 47.768 18.781 69.978 31.541 15.84 9.28 32.932 21.059 38.012 39.789-.04-13.01-8.221-24.808-18.281-32.468-8.54-7.39-18.991-11.901-28.991-16.901-20.4-8.87-41.33-16.44-61.75-25.26zm3.651 11.596c-.247-.007-.503.035-.77.135 3.39 13.92 6.051 29.429.241 43.109 10.19 19.54 18.5 40.63 20.5 62.76.76 8.14-1.42 16.081-3.01 23.961 10.58-24.99 1.138-52.83-8.932-76.41-.45-.8-1.639-5.321.281-3.451 13.67 21.57 23.071 46.939 20.661 72.849 5.66-14.53 8.309-30.519 6.369-45.959-.17-11.66-5.449-22.44-7.969-33.47 11.38 14.66 15.01 34.19 16.93 52.39 1.98-21.96-6.212-43.461-17.862-61.711-1.95-4.15-5.699-7.21-7.209-11.58 1.39-.1 2.56.341 3.52 1.301 14.33 13.87 26.77 30.19 33.66 49.06-7.66-28.88-29.52-51.229-51.9-69.759-1.479-.797-2.781-3.178-4.51-3.225zm-384.779 7.293c-.33 3.61-.431 7.232-.631 10.842 2.07-2.91 4.45-5.62 6.07-8.83-1.83-.66-3.609-1.422-5.439-2.012zm24.4.191c-.45.1-1.341.289-1.791.389-3.14 11.06-6.361 22.521-5.731 34.111.1-11.96 5.162-23.16 7.522-34.5zm-9.24 2.151c-2.37.64-4.821.699-7.231.349-.68 11.08-4.411 21.89-4.131 33.02 2.85-11.08 7.441-21.57 12.071-31.98-.18-.35-.539-1.039-.709-1.389zm-19.901 7.619c-19.9 26.81-39.321 55.62-45.781 88.98 2.3-1.92 4.711-3.701 6.951-5.701.17-1.81.38-3.63 1.02-5.34 8.52-25.51 21.649-49.508 37.859-70.888.08-1.52.16-3.031.32-4.541-.09-.62-.279-1.88-.369-2.51zm254.129.619c-1.53 2.44-3.399 4.631-5.459 6.641 1.34 3.31.67 6.91.83 10.39 2.27-5.44 4.069-11.151 4.629-17.031zm133.221 28.811c-1.24 3.05-2.43 6.12-4.18 8.92 12.02 27.76 16.96 61.591 2.11 89.291 7.83-9.54 10.761-22.191 12.291-34.211 1.46-17.98-.91-36.1-5.83-53.41-1.56-3.48-1.601-7.8-4.391-10.59zm-23.981 41c-1.32 2.05-2.769 4.01-4.189 5.99 1.59 13.2-2.249 26.41-7.859 38.25 8.44-12.83 13.868-28.79 12.048-44.24zm-405.99 20.929c-1.62 1.54-3.33 2.992-5.17 4.282.4 14.77-.52 29.869 4.67 44.019-.8-9.95-3.46-19.971-1.26-29.971-.22-6.2 2.81-12.2 1.76-18.33z" fill="#d4e1f7"/>
    <path id="color2" d="m573.561 241.699c-1.115.015-2.234.111-3.35.291-5.77 7.45-3.46 17.78-4.4 26.59-8.87 2.47-19.561 6.271-22.061 16.311 8.54 1.05 15.211 7.579 22.051 12.009 7.74-6.64 2.529-16.95 3.469-25.47 10.35-2.67 21.729-9.269 24.759-20.119-5.066-5.915-12.665-9.718-20.468-9.612zm.621 3.342c6.545-.026 12.868 3.732 16.718 8.93-4.89 7.57-13.191 11.829-21.711 13.959 0-7.46-.84-15.921 2.18-22.641.938-.165 1.878-.244 2.813-.248zm215.718 16.709c-.17 3.72 1.291 7.29 2.231 10.84 1.05.36 2.1.729 3.17 1.099-2.25-3.71-2.401-9.139-5.401-11.939zm-224.119 10.514c.245-.007.491-.004.739.006.23 6.9.5 13.8.39 20.71-5.86-4.9-12.07-10.171-19.9-11.291 4.32-4.8 10.459-7.508 16.599-9.138.713-.173 1.437-.268 2.172-.287zm-258.672 2.412c-14.789-.048-29.607 1.046-44.179 2.824 6.37 3.5 13.659 6.72 21.009 4.35 38.58-3.58 78.052 3.659 113.112 20.089 20.18 9.54 38.559 22.301 56.959 34.821.36.25 1.091.769 1.451 1.019 3.2 2.34 6.509 4.53 9.609 7.01 8.02 6.47 16.251 12.721 24.901 18.311 1.52 1.37.83 3.68.99 5.48-.14 3.39.318 6.89-.772 10.18-.16 1.51-.24 3.021-.32 4.541-.71 17.07-1.83 35.638-13.08 49.488-7.54 9.82-15.799 19.36-25.799 26.74-2.24 2-4.651 3.781-6.951 5.701-15.82 12.28-31.769 24.731-44.619 40.231-9 10.86-16.59 22.779-24.6 34.369-4.69 5.37-2.33 13.06-1.55 19.42 16.81-33.13 38.689-64.869 68.759-87.359 1.84-1.29 3.55-2.742 5.17-4.282 10.77-8.61 21.222-17.71 30.442-28 5.43-5.49 9.628-12.249 10.968-19.949 2.84-14 4.681-28.249 5.321-42.529.2-3.61.301-7.232.631-10.842 1.83.59 3.609 1.352 5.439 2.012.62.17 1.87.509 2.49.679 2.41.35 4.861.291 7.231-.349 2.46-.66 4.949-1.242 7.449-1.762.45-.1 1.341-.289 1.791-.389.62-.13 1.849-.401 2.469-.541 7.61-1.96 15.07-4.78 22.08-8.33 6.6-5.47 8-14.839 9.26-22.849 1.27-12.17 6.21-23.47 9.41-35.16-10.37 10.01-12.899 25.3-12.719 39.14-2.55 12.43-15.561 18.58-26.621 21.91-8.98 1.74-19.319 7.8-27.619 1.01 2.38-17.73 4.549-36.51 14.939-51.65 3.94-5.93 11.081-8.511 17.811-9.641 5.3.02 8.518-4.949 11.388-8.719-6.72 2.39-13.388 5.01-20.058 7.53-11.38 6.35-21.781 16.681-24.381 29.871-2.55 9.82-2.901 20-4.311 30.01-8.85-5.3-16.159-12.8-24.619-18.68-2.26-1.61-4.34-3.452-6.48-5.192-.45-.33-1.33-.99-1.78-1.33-4.72-3.48-9.281-7.18-14.111-10.5l-.779-.529c-19.61-14.43-40.199-28.039-63.279-36.279-23.232-8.544-47.803-11.796-72.452-11.875zm510.83 7.234c-.02 1.54-.049 3.079-.039 4.629 2.75 2.56 5.541 5.071 8.311 7.611 0-2.03-.331-4.031-.971-5.951-2.48-2.04-4.921-4.139-7.301-6.289zm10.961 9.92c-.08 1.73-.17 3.46-.3 5.19 3.82 4.12 7.659 8.529 9.519 13.929-4.83.27-10.12-.98-14.43 1.83.88.72 1.821 1.431 2.741 2.141 4.45-.34 9-.769 13.41.211 1.94 3.87 2.36 8.329 2.33 12.609 1.31 1.45 2.891 2.579 4.551 3.619 1.32-5.14-2.272-10.559-1.532-15.119 7.52 1.52 15.69 5.08 19.17 12.42 2.22 4.67 4.07 9.53 5.26 14.58 7.31 21.59 11.142 46.079 2.342 67.869-3.93 10.86-10.7 20.43-17.91 29.34-1.37 1.71-2.75 3.401-4.08 5.141-7.2 9.64-15.001 18.939-21.061 29.349-6.26 13.87-11.151 28.392-14.621 43.202-1.39 4.77 5.501 4.258 8.541 4.728 5.32-24.41 9.56-50.429 26.17-70.199 1.42-1.98 2.869-3.94 4.189-5.99 7.17-10.33 14.021-20.9 19.801-32.08 1.75-2.8 2.94-5.87 4.18-8.92.48-1.18 1.061-2.31 1.641-3.44 5.81-13.68 3.149-29.189-.241-43.109-.9-2.74-1.249-5.622-1.849-8.432-.35-1.1-.712-2.199-1.032-3.299-2.62-8.9-5.26-17.961-10.08-25.961-5.05-7.15-14.419-8.23-22.289-10-3.07-7.68-7.51-14.759-14.42-19.609zm-45.81 13.881c.01 3.87-2.93 8.41.57 11.6 3.61 2.65 8.14 3.85 12.57 4.24 1.32.08 2.66.149 4 .199 1.59.79 1.311-2.949.081-2.539-2.13-.28-4.261-.482-6.311-1.102-2.81-.83-5.89-1.81-7.48-4.49-2.01-2.21-.75-6.388-3.43-7.908zm49.029 42.109c-1.17.92-2.338 1.84-3.488 2.78.49 1.18.949 2.36 1.459 3.55 1.58-.83 2.929-1.99 4.099-3.33-.74-.98-1.43-1.98-2.07-3zm-8.219 9.039c-22.31 18.74-44.99 37.322-68.72 54.352-11.1 8.49-23.17 16.219-31.1 28.029-11.23 18.3-21.071 37.561-28.051 57.901-1.63 4.88-4.699 9.49-4.299 14.83 4.11-.94 9.74-1.982 10.28-7.112 2.6-12.2 5.831-24.379 11.951-35.359.22-.48.678-1.45.908-1.93 5.12-9.96 10.55-19.829 17.08-28.939 7.21-8.73 16.761-15.061 25.561-22.041 23.02-18.25 46.81-35.73 67.81-56.33-.47-1.14-.95-2.281-1.42-3.401z" fill="#8c305f"/>
    <path id="color3" d="m711.9 275.721c-.11 17.56-.961 35.438-6.701 52.218 1.63-11.32 2.872-22.71 1.932-34.15-.53 0-1.581-.01-2.111-.01-.94 9.26-3.08 18.351-5.79 27.241-.14-3.51 1.07-6.889 1.02-10.379-1.72.27-1.601 2.35-2.211 3.58-3.53 12.35-10.388 23.419-17.908 33.689 3.02-15.03 3.769-31.14-1.311-45.81l-.91-.42c-.28 9.47-.07 19.06-2.57 28.31-.26-7.08.35-14.18-.24-21.25-4.08 7.31-3.93 17.979-7.77 26.209-.48-5.49 2-10.849.74-16.349-2.38.96-3.441 3.47-5.041 5.3 7.06-8.69 3.652-20.01 3.022-30.16l-.891.231c-3 14.45-6.84 28.968-14.06 41.968 2.82-14.63 7.199-29.339 5.939-44.359-5.58 7.64-7.819 17.44-11.459 26.16-3.04 8.08-3.229 16.65-2.869 25.16-6.87-9.97-11.682-21.33-14.932-32.97l-.978-.18c.18 8.52 2.009 16.929 4.029 25.199-4.29-7.75-5.56-18.098-8.9-25.148-.96 11.93 2.449 23.739 6.009 35.019-7.21-10.43-11.02-22.711-14.15-34.871l-.889-.228c-1.23 19.85 1.93 40.359 11.02 58.199-4.18-4.77-6.49-11.06-11.19-15.33.59 8.12 6.531 14.371 10.161 21.291-8.37-4.49-16.461-9.831-22.881-16.891-1.99-1.94-3.679-4.371-6.379-5.371.45 2.69 2.259 4.832 3.349 7.272-3.36-2.76-4.38-8.891-9.23-9.241-.04 6.98 3.669 13.36 3.939 20.33.31 5.08 1.31 11.84 7.01 13.53 7.11 1.64 14.862 1.46 21.102 5.81 4.11 3.24 10.85 2.5 12.76-2.83 2.74 4.44 9.01 6.27 10.74 10.99.78 4.11.338 8.229-.362 12.309 7.05 8.62 17.911 12.642 27.311 18.092 10.49 3.81 19.6 10.779 30.01 14.519-.48-6.5-2.049-12.921-3.049-19.371-.2-3.8-4.471-5.919-3.981-9.779 5.86-.09 12.77 4.63 17.77-.18 4.7-4.69 9.53-9.281 13.99-14.211 3.81-5.67 8.78-10.459 13.5-15.349 2.06-2.01 3.929-4.201 5.459-6.641 2.42-4.95 5.111-9.898 5.701-15.478-.71-10.78-.119-21.601-.339-32.401-.62-7.45 2.67-14.93.16-22.26-2.56-7.89-4.951-16.271-9.561-23.111.04 9.43 1.591 18.861-.439 28.311.02-9.76-.352-19.53-2.602-29.09l-.959-.051c-.93 8.01.96 16.291-1.57 24.111-.79-8.79 1.929-19.871-2.391-27.121-.59 11.29-3.158 22.411-6.648 33.141-.14-10.34 1.21-22.47-4.41-31.26-.1 11.5-.431 22.941-1.291 34.391-1.9-13.36-1.88-28.55-7.7-40.33zm-133.232 275.812c-3.095-.051-6.192.161-9.248.656-5.29 1.79-7.98 7.282-12.44 10.372-2.57 5.86-8.899 8.759-12.099 14.169-3.02 5.56-3.411 12-5.031 18.01-3.11 13.71-8.75 26.72-12.62 40.16 1.12 13.72 6.15 27.15 5.1 41.12-.18 4.02 4.229 3.81 6.949 2.89-.77 8.38-3.269 16.6-3.029 25.08-.66 12.9 4.689 25.07 4.859 37.92.36 3.95.71 8.01 2.34 11.68.75 2.2 4.14 1.81 5.25.07 3.03-4 4.92-8.76 6.17-13.59 1.7-10.59.511-21.39.791-32.07-.39-17.23 9.61-32.041 13.91-48.211 1.14-6.09 9.941-3.659 10.141 1.701 3.01 20.53 1.03 41.381 1.51 62.071 1.54 13.59 3.549 27.14 5.619 40.65.44 3.67 5.55 3.498 6.76.398 8.02-13.82 6.22-30.509 7.14-45.839-.16-20.18.68-40.63 5.66-60.28.84-4.48 6.439-2.65 7.379.77 2.47 10.52.761 21.821 5.151 31.951 2.92 6.09 3.191 13.729 9.031 18.049 3.48.73 8.128 1.699 10.568-1.641 3.97-7.08 5.352-15.3 5.522-23.33-.1-4.09-1.261-8.049-1.301-12.129 2.42.23 4.801.711 7.221 1.061 1.3-.19 2.619-.39 3.939-.58 5.97-1.17 7.2-7.28 7.74-12.42.32-1.77.72-3.51 1.1-5.26.35-3.04.87-6.051 1.51-9.031 0-.6.01-1.789.01-2.379-.13-1.71-.241-3.412-.331-5.112-.06-.63-.19-1.899-.25-2.529-.86-3.23-1.518-6.51-2.058-9.81-.61-1.71-1.202-3.431-1.772-5.151-1.86-4.3-3.738-8.819-2.808-13.619.14-1.77.159-3.541-.451-5.221-.9-3.78-1.63-7.588-2.34-11.388-3.89-10.57-5.291-23.99-15.401-30.66-8.64-5.54-19.779.808-28.339-4.692-5.33-1.83-11.21.391-16.59-1.449-4.95-1.481-10.104-2.302-15.262-2.387zm237.303 143.906c-1.46 2.97-2.791 6.012-4.491 8.872 2.3 3.68 4.869 7.199 6.809 11.109.97-6.7 1.382-13.991-2.318-19.981z" fill="#ffede1"/>
    <path id="color4" d="m643.301 397.48c-8.97 3.42-14.38 12.299-21.24 18.639-14.58 12.31-31.02 23.021-42.09 38.901-1.19 2.41-.05 5.701-2.42 7.541-6.88 6.7-14.902 14.28-14.432 24.74 5.42-3.54 10.97-10.54 18.16-7.67 10.11 3.44 20.352 7.45 28.602 14.43 11.37 9.26 20.359 21.16 32.189 29.91-3.62-11.55-5.391-24.311-12.961-34.121-8.97-9.37-18.72-18.031-27.25-27.821 5.64 1.7 11.601 2.731 16.971 5.131 5.51 6.17 10.599 12.74 16.109 18.94 7.23 8.09 10.06 18.74 14.43 28.41 8.58-17.05 14.97-35.669 28.24-49.879 5.49-6.28 11.862-14.321 21.022-13.951 1.48-1.55 2.429-3.561 4.049-4.981 7.74-.73 12.95-9.299 21.4-6.459 7.93-11.81 20-19.539 31.1-28.029.7-5.62-5.589-5.691-9.459-6.631-7.03-1.43-13.611-4.631-20.731-5.721-4.46 4.93-9.29 9.521-13.99 14.211-5 4.81-11.91.09-17.77.18-.49 3.86 3.781 5.979 3.981 9.779 1 6.45 2.569 12.871 3.049 19.371-10.41-3.74-19.52-10.709-30.01-14.519-9.4-5.45-20.261-9.472-27.311-18.092.7-4.08 1.142-8.199.362-12.309zm114.209 19.11c-8.8 6.98-18.351 13.311-25.561 22.041 13.77 1.51 26.281 7.569 39.151 12.199.28-4.29-2.23-8.071-2.09-12.301-.51-1.46-1.05-2.899-1.52-4.359-1.07-7.01-4.08-13.38-9.98-17.58zm-40.565 50.728c-.69.035-1.451.262-2.076.252-.23.48-.688 1.45-.908 1.93 2.24 3.47 5.439 6.98 4.969 11.43-2.25 15.39 15.19 25.65 12.98 41.06.17 13.72-.59 27.529.44 41.199 2.73-2.09 6.08-3.088 8.91-4.978 3.56-3.5 5.6-8.372 9.72-11.352-.64 12.5-3.94 24.651-4.82 37.131.43 13.46 10.49 24.339 11.26 37.699 15.01 29.38 35.77 55.272 54.06 82.622 1.7-2.86 3.031-5.902 4.491-8.872-.84-6.21-2.301-12.55-.471-18.74 1.38-3.65-3.309-5.399-3.789-8.699 1.34-5.31 8.709-7.821 8.019-13.801-13.7-16.29-30.63-30.61-39.72-50.33-6.86-13.48-6.471-29.15-11.971-43.08-3.22-8.13.341-16.739.051-25.119-12.72-12.81-30.059-21.759-38.629-38.199-2.58-10.09-6.401-19.84-10.861-29.25-.345-.78-.965-.938-1.655-.903zm-140.336 19.643c-6.681-.03-11.711 6.876-17.398 9.93.07 2.39-.04 4.839-1.15 7.019-3.51 7.88-5.831 16.431-10.961 23.471-1.64 6.69-4.629 12.96-7.719 19.08-4.47 2.88-3.901 8.609-4.471 13.209-11.21 7.7-19 19.299-30 27.269-7.47 6.24-15.59 11.651-22.92 18.061-10.62 8.06-18.25 19.18-27.01 29.07 14.17-8.25 29.371-14.43 44.411-20.84 5.23-1.98 7.199-7.511 9.769-11.951 5.49-9 10.5-18.549 18.35-25.759 7.34-8.4 18.79-11.629 29.47-12.959 4.46-3.09 7.15-8.582 12.44-10.372 8.15-1.32 16.59-.639 24.51 1.731 5.38 1.84 11.26-.381 16.59 1.449 8.56 5.5 19.699-.848 28.339 4.692 10.11 6.67 11.511 20.09 15.401 30.66 9.48 3.07 19.669 2.39 29.349 4.58 4.64.39 3.771-5.16 4.401-8.24 2.52-13.8 7.001-27.331 10.041-40.911-6.49-4.84-11.921-10.851-17.891-16.291-4.77-4.62-11.76-4.319-17.89-5.089-3.24-.24-6.439-2.72-9.629-1.02 4.54 12.64 10.02 24.939 15.24 37.289 1.94 9.68.309 19.801 2.939 29.471-4.79 1.65-9.77-.63-14.34-2.02-4.45-12.36-8.84-24.75-14.22-36.76-3.96-7.09-.26-17.09-7.52-22.48-10.01-7.96-17.46-18.511-27.23-26.711-8.17-6.92-18.39-10.579-27.93-15.109-1.029-.319-2.016-.465-2.971-.469zm69.452 48.139c.85 17.79 8.258 34.77 14.878 50.64 1.29-9.72 2.041-20.279-3.619-28.929-4.61-6.78-6.619-15.101-11.259-21.711zm-146.17 147.63c-1.05 2.36-2.031 4.759-3.371 6.969-1.27 1.93-2.309 4.012-2.889 6.272 4.21-2.25 9.149-4.101 12.109-7.961-1.29-2.31-4.169-3.25-5.849-5.28z" fill="#fff"/>
    <path id="color5" d="m768.512 433.846c-.361.029-.703.131-1.022.324.47 1.46 1.01 2.899 1.52 4.359 6.45.68 7.68 8.371 4.72 13.131 1.33 1.48 3.12 2.29 5.09 2.59-.65-5.32 1.469-11.59-1.781-16.24-2.581-1.015-6.003-4.372-8.527-4.164zm-166.653 28.183c8.53 9.79 18.28 18.451 27.25 27.821 7.57 9.81 9.341 22.571 12.961 34.121-11.83-8.75-20.819-20.65-32.189-29.91-8.25-6.98-18.492-10.99-28.602-14.43-7.19-2.87-12.74 4.13-18.16 7.67-4.22 4.35-10.209 6.919-13.219 12.439-8.67 13.55-14.209 30.831-10.519 46.721 3.09-6.12 6.079-12.39 7.719-19.08-.77-10.86.281-25.83 12.111-30.49 6.5-3.49 12.139-12.011 20.369-9.461 9.54 4.53 19.76 8.189 27.93 15.109 9.77 8.2 17.22 18.751 27.23 26.711 7.26 5.39 3.56 15.39 7.52 22.48 5.38 12.01 9.77 24.4 14.22 36.76 4.57 1.39 9.55 3.67 14.34 2.02-2.63-9.67-.999-19.791-2.939-29.471-5.22-12.35-10.7-24.649-15.24-37.289-1.14-1.9-3.392-2.509-4.952-3.939.56-1.77 1.22-3.501 1.68-5.301-4.37-9.67-7.2-20.32-14.43-28.41-5.51-6.2-10.599-12.77-16.109-18.94-5.37-2.4-11.331-3.431-16.971-5.131zm175.862 4.621c-3.11 5.88-7.062 13.7-3.032 20.03 3.61-6.08 3.332-13.23 3.032-20.03zm-131.66 68.45c4.64 6.61 6.649 14.931 11.259 21.711 5.66 8.65 4.909 19.209 3.619 28.929-6.62-15.87-14.028-32.85-14.878-50.64zm104.919 11.759c-4.12 2.98-6.16 7.852-9.72 11.352-2.83 1.89-6.18 2.888-8.91 4.978.98 11.24-.61 22.612 1.3 33.782.78 13.95 3.32 27.769 3.11 41.789-7.27-8.79-18.32-13.14-25.75-21.77-4.11-3.33.84-10.169-3.94-13.099-5.92-4.77-13.829-2.692-20.759-3.272 1.06-2.88.948-5.268-2.702-5.318-9.68-2.19-19.869-1.51-29.349-4.58.71 3.8 1.44 7.608 2.34 11.388 1.33-2.44 3.611 1.351 5.291-.109 3.04-1.81 6.088-3.629 8.968-5.699-4.06-1.14-12.849 2.609-13.179-2.551 5.56-.69 11.09.61 16.58 1.32-.04 5.57-7.65 5.931-10.93 9.391 4.07 2.87 8.719 4.799 12.869 7.549 1.37 7.32-8.98 7.16-13.17 10.99 3.51 3.39 10.431 6.059 9.151 11.939-2.25 2.11-5.241 3.09-8.241 3.5.09 1.7.201 3.402.331 5.112 3.47 2.01 5.36 10.489-.67 8.789 1.61-1.97 1.88-4.17.66-6.41-.64 2.98-1.16 5.991-1.51 9.031 4.61 5.35 6.11 13.439 3.34 19.949-2.57 4.46-7.189 9.871-12.959 8.151-3.58-1.71-3.952-5.77-3.512-9.25-2.05 3.39-3.718 6.978-5.568 10.478-.17 8.03-1.552 16.25-5.522 23.33-2.44 3.34-7.088 2.371-10.568 1.641-2.68 3.22-4.091 7.619-7.641 10.029-6.42 1.69-13.09-.109-19.58-.519-.92 15.33.88 32.019-7.14 45.839-1.21 3.1-6.32 3.272-6.76-.398-2.07-13.51-4.079-27.06-5.619-40.65-10.13 2.82-17.592 11.059-26.352 16.509-1.25 4.83-3.14 9.59-6.17 13.59-1.11 1.74-4.5 2.13-5.25-.07-1.63-3.67-1.98-7.73-2.34-11.68-16.74-7.86-28.439-23.41-45.689-30.34-1.76-.87-3.57-1.701-5.08-2.961-.93-4.49 2.281-8.428 3.291-12.638.58-2.26 1.619-4.342 2.889-6.272-21.17-2.8-41.46-9.629-62.03-15.109-6.06-1.9-12.831-2.271-18.791.199-10.36 3.87-21.029 6.74-31.789 9.24-2.46.58-4.57-1.259-6.76-2.049-42.64-17.51-87.13-30.11-132.16-39.73-34.75-8.32-70.36-12.301-106.01-13.221-2.87-.63-6.45-1.329-8 1.961-7.43 13.12-12.62 27.79-22.99 39.03-6.7 8.55-14.9591 15.871-20.8591 25.031 34.9901-18.62 73.5201-29.03 111.8401-38.16 17.79 10.7 30.758 27.509 43.558 43.529 1.29 1.34 4.511 4.429 1.041 5.199-7.92 1.74-16.001 2.94-23.791 5.24-1.25 12.59-1.03 25.661 1.33 38.211-12.38.7-24.869 2.23-36.859 5.33-.46 5.18 3.309 9.54 4.029 14.58 5.07 15.59-2.218 32.15 2.112 47.77 9.74-.73 19.088-4.7 28.798-6.02-.73 5.26-2.409 10.33-4.089 15.36 11.89-6.42 24.401-11.5 36.361-17.74 1.15-.62 3.13-1.199 3.85.371 3.35 5.57 7.76 10.428 10.74 16.228 1.58 2.96 4.18 6.081 7.91 5.721 10.69-.28 21.459.749 32.049-.981 39.38.47 78.63-5.46 117.99-1.99 30.7.6 61.62-2.049 92.02 3.211 3.58.53 7.96 2.01 10.88-1 20.24-18.63 40.581-37.59 64.481-51.59 13.63-7.61 23.92-19.53 33.08-31.91 20.35-26.17 42.039-51.239 63.439-76.519 1.46-1.44 2.331-3.792 4.481-4.282-7.06 19.1-16.35 37.382-24.74 55.942-7.7 14.75-13.98 30.47-24.67 43.42-7.86 8.56-16.391 16.569-26.151 22.939-23.65 16.68-48.479 31.719-71.009 49.949-37.77 31.35-70.852 68.891-94.702 111.981 18.11-8.56 35.742-18.641 55.362-23.481 22.72-5.38 45.689-9.758 68.549-14.468 5.88-3.15 9.3-9.35 13.89-14 23.19-27.46 50.541-50.942 77.301-74.772 11.46-8.91 18.819-22.148 22.859-35.908 4.92-14.52 11.36-28.452 17.61-42.422 11.41-22.36 20.161-45.96 28.281-69.67.45-3.58 4.108-1.858 4.158.842 1.41 20.2 11.74 38.27 14.92 58.1 2.05 25.51-5.849 50.459-6.049 75.869-1.4 10.53-.541 21.281-.541 31.871 4.46 6.61 11.972 10.53 17.112 16.66 19.92 18.28 34.528 41.268 52.298 61.478-6.38-34.97-10.459-70.37-16.589-105.41-5.97-25.81-9.991-52.139-11.571-78.539.28-5.32 2.241.99 2.391 3.08 10.99 37.83 24.419 74.92 36.529 112.41 11.75 40.2 21.75 80.911 33.99 120.981 2.71 9.88 5.88 19.629 8.18 29.619-.45-4.21 2.632-7.381 4.352-10.881 5.51-10.28 6.269-22.439 12.689-32.299 4.36-6.22 9.14-12.209 14.77-17.339 3.05-2.81-.551-6.541-1.981-9.231-9.55-16.34-19.139-32.82-26.049-50.48 22.74 1.06 35.46 22.631 54.2 32.281-9.32-16.1-17.91-32.631-27.29-48.711-13.15-20.38-24.09-42.051-35.72-63.301-2.54-5.61-6.739-10.459-8.209-16.529 15.25 6.64 30.59 13.49 46.16 19.57 4.31 1.23 6.159 5.67 7.779 9.42 7.65 19.06 8.06 40.01 14.43 59.42 14.36 7.2 28.549 15.601 39.529 27.551 7.29 6.5 12.101 15.168 18.871 22.148 3.11 5.25 9.279 7.46 12.369 12.74 3.97 3.97 6.821 9.03 11.361 12.43-14.749-26.44-25.12-55.008-39.3-81.738-7-12.66-10.96-27.211-20.66-38.221-14.83-13.54-26.269-30.32-41.789-43.14-23.14-17.29-48.662-31.049-72.182-47.809-8.34-4.72-9.92-15.021-14.83-22.541-1.94-3.91-4.509-7.429-6.809-11.109-18.29-27.35-39.05-53.242-54.06-82.622-.77-13.36-10.83-24.239-11.26-37.699.88-12.48 4.18-24.631 4.82-37.131zm-91.615 59.973c-.749.042-1.518.199-2.314.498-.93 4.8.948 9.319 2.808 13.619 4.39-2.88 9.401-4.619 13.871-7.369-4.917-1.706-9.123-7.042-14.365-6.748zm2.266 19.268c.54 3.3 1.198 6.58 2.058 9.81 1.95-1.14 4.07-1.94 6.18-2.75-2.6-2.53-5.638-4.54-8.238-7.06zm.019 34.121c-.54 5.14-1.77 11.25-7.74 12.42.18 1.69.36 3.409.69 5.099 7.87-.5 11.54-11.639 7.05-17.519zm-281.966 86.472c3.465.083 6.724 2.329 9.877 3.637 12.78 4.36 25.629 8.51 38.609 12.19 12.49 5.35 25.97-.109 38.85.201 21.38-2.55 43.01-4.801 64.06-9.961 2.99-.71-.021 2.73-1.041 3.26-8.72 5.66-15.829 14.441-26.309 16.871-3.68 1-6.14 4.449-9.97 5.099-50.94 2.75-101.12-6.329-151.02-16.019 10.09-5.89 22.85-10.721 34.51-14.951.823-.25 1.634-.346 2.434-.327z" fill="#354694"/>
    <path id="color6" d="m731.949 438.631c-6.53 9.11-11.96 18.979-17.08 28.939 1.25.02 3.041-.909 3.731.651 4.46 9.41 8.281 19.16 10.861 29.25 8.57 16.44 25.909 25.389 38.629 38.199 17.31 13.85 35.841 28.109 45.971 48.449 12.87 21.94 20.699 46.252 30.279 69.682 10.06-12.59 5.529-30.88 16.359-43 5.26-5.05 5.992-14.471.942-19.811.94-4.95 5.679-8.621 6.019-13.881-1.95-3.26-5.38-5.159-8.16-7.609-10.66-9.67-19.071-21.571-30.301-30.641-16.62-9.76-34.92-16.308-52.75-23.308-2.24-9.08.88-19.501-1.76-28.871-4.03-6.33-.078-14.15 3.032-20.03.11-3.97 5.079-9.56 1.099-12.4-1.97-.3-3.76-1.11-5.09-2.59-.66-.21-1.97-.62-2.63-.83-12.87-4.63-25.381-10.689-39.151-12.199zm-11.615.041c-6.394.216-11.124 6.411-17.654 7.027-1.62 1.42-2.569 3.431-4.049 4.981-9.16-.37-15.532 7.671-21.022 13.951-13.27 14.21-19.66 32.829-28.24 49.879-.46 1.8-1.12 3.531-1.68 5.301 1.56 1.43 3.812 2.039 4.952 3.939 3.19-1.7 6.389.78 9.629 1.02 6.13.77 13.12.469 17.89 5.089 5.97 5.44 11.401 11.451 17.891 16.291-3.04 13.58-7.521 27.111-10.041 40.911-.63 3.08.239 8.63-4.401 8.24 3.65.05 3.762 2.438 2.702 5.318 6.93.58 14.839-1.498 20.759 3.272 4.78 2.93-.17 9.769 3.94 13.099 7.43 8.63 18.48 12.98 25.75 21.77.21-14.02-2.33-27.839-3.11-41.789-1.91-11.17-.32-22.542-1.3-33.782-1.03-13.67-.27-27.479-.44-41.199 2.21-15.41-15.23-25.67-12.98-41.06.47-4.45-2.729-7.96-4.969-11.43-6.12 10.98-9.351 23.159-11.951 35.359-.54 5.13-6.17 6.172-10.28 7.112-.4-5.34 2.669-9.95 4.299-14.83 6.98-20.34 16.821-39.601 28.051-57.901-1.32-.444-2.562-.608-3.746-.568z" fill="#647cc4"/>
    <path id="color7" d="m556.98 562.561c-10.68 1.33-22.13 4.559-29.47 12.959-7.85 7.21-12.86 16.759-18.35 25.759-2.57 4.44-4.539 9.971-9.769 11.951-15.04 6.41-30.241 12.59-44.411 20.84-1.66 2.7-6.389 5.26-3.839 8.84 6.57 10.31 16.659 17.981 27.599 23.221 8.2 3.79 15.851 9.179 21.151 16.599 1.68 2.03 4.559 2.97 5.849 5.28-2.96 3.86-7.899 5.711-12.109 7.961-1.01 4.21-4.221 8.148-3.291 12.638 1.51 1.26 3.32 2.091 5.08 2.961 17.25 6.93 28.949 22.48 45.689 30.34-.17-12.85-5.519-25.02-4.859-37.92-.24-8.48 2.259-16.7 3.029-25.08-2.72.92-7.129 1.13-6.949-2.89 1.05-13.97-3.98-27.4-5.1-41.12 3.87-13.44 9.51-26.45 12.62-40.16 1.62-6.01 2.011-12.45 5.031-18.01 3.2-5.41 9.529-8.309 12.099-14.169zm52.467 93.277c-1.401-.06-2.679.692-3.047 2.652-4.98 19.65-5.82 40.1-5.66 60.28 6.49.41 13.16 2.209 19.58.519 3.55-2.41 4.961-6.809 7.641-10.029-5.84-4.32-6.111-11.959-9.031-18.049-4.39-10.13-2.681-21.431-5.151-31.951-.528-1.924-2.531-3.345-4.332-3.422zm-35.343.383c-2.07-.129-4.035.904-4.534 3.568-4.3 16.17-14.3 30.981-13.91 48.211-.28 10.68.909 21.48-.791 32.07 8.76-5.45 16.222-13.689 26.352-16.509-.48-20.69 1.5-41.541-1.51-62.071-.113-3.015-2.947-5.103-5.607-5.269zm68.646 15.939c.04 4.08 1.201 8.039 1.301 12.129 1.85-3.5 3.518-7.088 5.568-10.478l.352-.59c-2.42-.35-4.801-.831-7.221-1.061z" fill="#bdd0e3"/>
    <path id="color8" d="m661.844 593.564c-1.386-.035-2.774.013-4.164.186.33 5.16 9.119 1.411 13.179 2.551-2.88 2.07-5.928 3.889-8.968 5.699-1.68 1.46-3.961-2.331-5.291.109.61 1.68.591 3.451.451 5.221 6.37-2.39 11.059 4.3 16.679 6.25-4.47 2.75-9.481 4.489-13.871 7.369.57 1.72 1.162 3.441 1.772 5.151 2.6 2.52 5.638 4.53 8.238 7.06-2.11.81-4.23 1.61-6.18 2.75.06.63.19 1.899.25 2.529 3-.41 5.991-1.39 8.241-3.5 1.28-5.88-5.641-8.549-9.151-11.939 4.19-3.83 14.54-3.67 13.17-10.99-4.15-2.75-8.799-4.679-12.869-7.549 3.28-3.46 10.89-3.821 10.93-9.391-4.118-.532-8.258-1.398-12.416-1.506zm2.426 49.987c0 .59-.01 1.779-.01 2.379 1.22 2.24.95 4.44-.66 6.41 6.03 1.7 4.14-6.779.67-8.789zm-1.52 11.41c-.38 1.75-.78 3.49-1.1 5.26 4.49 5.88.82 17.019-7.05 17.519-.33-1.69-.51-3.409-.69-5.099-1.32.19-2.639.39-3.939.58l-.352.59c-.44 3.48-.068 7.54 3.512 9.25 5.77 1.72 10.389-3.691 12.959-8.151 2.77-6.51 1.27-14.599-3.34-19.949zm29.631 10.648c-2.15.49-3.021 2.842-4.481 4.282-21.4 25.28-43.089 50.349-63.439 76.519-9.16 12.38-19.45 24.3-33.08 31.91-23.9 14-44.241 32.96-64.481 51.59-2.92 3.01-7.3 1.53-10.88 1-30.4-5.26-61.32-2.611-92.02-3.211-39.36-3.47-78.61 2.46-117.99 1.99-10.59 1.73-21.359.701-32.049.981-3.73.36-6.33-2.761-7.91-5.721-2.98-5.8-7.39-10.658-10.74-16.228-.72-1.57-2.7-.991-3.85-.371-11.96 6.24-24.471 11.32-36.361 17.74-4.19 2.99-8.97 4.989-13.44 7.519-21.72 11.91-40.63 28.081-60.91 42.151-1.27.97-3.321 2.191-2.561 4.121 9.08 21.42 24.091 40.24 42.991 53.83 8.84 7.03 21.021 11.849 24.531 23.619 4.21 16.28 6.419 33.01 8.609 49.66 1.94 14.8 6.54 29.08 11.68 43.05.45 1.15.891 2.6-.189 3.61-6.99 8.84-13.63 17.96-21.18 26.35h645.359c2.99-7.19 5.6-14.67 10.17-21.06 5.23-7.26 11.74-13.49 17.11-20.63 1.94-2.3 1.03-5.42.39-8-2.61-9.42-5.221-18.83-7.871-28.23-2.3-9.99-5.47-19.739-8.18-29.619-12.24-40.07-22.24-80.781-33.99-120.981-12.11-37.49-25.539-74.58-36.529-112.41-.15-2.09-2.111-8.4-2.391-3.08 1.58 26.4 5.601 52.729 11.571 78.539 6.13 35.04 10.209 70.44 16.589 105.41-17.77-20.21-32.378-43.198-52.298-61.478-5.14-6.13-12.652-10.05-17.112-16.66 0-10.59-.859-21.341.541-31.871.2-25.41 8.099-50.359 6.049-75.869-3.18-19.83-13.51-37.9-14.92-58.1-.05-2.7-3.708-4.422-4.158-.842-8.12 23.71-16.871 47.31-28.281 69.67-6.25 13.97-12.69 27.902-17.61 42.422-4.04 13.76-11.399 26.998-22.859 35.908-26.76 23.83-54.111 47.312-77.301 74.772-4.59 4.65-8.01 10.85-13.89 14-22.86 4.71-45.829 9.088-68.549 14.468-19.62 4.84-37.252 14.921-55.362 23.481 23.85-43.09 56.932-80.631 94.702-111.981 22.53-18.23 47.359-33.269 71.009-49.949 9.76-6.37 18.291-14.379 26.151-22.939 10.69-12.95 16.97-28.67 24.67-43.42 8.39-18.56 17.68-36.842 24.74-55.942zm-312.697 81.084c-.8-.019-1.611.077-2.434.327-11.66 4.23-24.42 9.061-34.51 14.951 49.9 9.69 100.08 18.769 151.02 16.019 3.83-.65 6.29-4.099 9.97-5.099 10.48-2.43 17.589-11.211 26.309-16.871 1.02-.53 4.031-3.97 1.041-3.26-21.05 5.16-42.68 7.411-64.06 9.961-12.88-.31-26.36 5.149-38.85-.201-12.98-3.68-25.829-7.83-38.609-12.19-3.153-1.308-6.412-3.554-9.877-3.637z" fill="#1d185b"/>
  </g>
</svg>
