<svg height="1080" width="1920" xmlns="http://www.w3.org/2000/svg">
  <path id="background" d="m0 0h1920v1080h-1920z" fill="#9c95a8"/>
  <g id="transform" transform="translate(0,0) scale(1.00)">
    <path id="color1" d="m273.408 124.139c-.617 0-1.245.07-1.878.271-1.91 2.829-2.52 6.26-3.8 9.38-2.19-.84-4.24-2.02-6.5-2.631-1.65 3.76-2.01 8.202-1.9 12.282 7.13.34 4.58 7.619 4.94 12.589.65 5.82-5 10.57-3.59 16.42 3.75 6.59-2.61 13.38-.28 20.391 4.9 9.12 2.85 19.879 5.21 29.689 3.68 25.49 19.56 48.031 39.649 63.411-10.829 15.089-20.849 32.039-22.009 51.029.08 12.57-1.38 25.88 4.291 37.56 1.829 2.53-1.851 4.08-2.931 6.02-1.151 3.6.68 7.92-1.82 11.16-4.269 6.209-5.791 13.72-8.231 20.74-1.64 4.68-2.019 9.82-.09 14.43-1.86 2.81-2.291 5.77-1.36 9.02-8.531 3.51-16.529 8.57-21.969 16.22.109 2.99 3.729 4.6 6.269 3.4 2.8-4.05 5.6-10.29 11.69-8.69-3.65 5.47-4.099 12.15-5.859 18.32-1.3 5.15-2.951 10.31-3 15.67 3.56.1 8.219-1.199 9.389-4.93-.59-4.28-2.94-8.629-.689-12.849 1.829-3.651 1.529-11.201 7.279-10.261-.41 4.08-2.319 7.901-2.079 12.061 1.869-.271 3.709-.791 5.609-.8.03 1.74-1.1 4.178 1.37 4.669 2.6.56 1.599 4.18 3.839 5.07 2.46-1.96 4.96-4.05 6.7-6.7-.929-2.83-2.739-5.28-3.679-8.11 1.55-2.94 3.37-5.85 5.89-8.07.87 5.91-.73 12.161 1.58 17.841 2.69.44 5.72-.762 7.07-3.182-.99-5.689-4.26-11.439-2.3-17.309 2.62-3.13 5.93-5.99 6.65-10.25 1.16-2.73.1-6.901 3.089-8.441 1.971 9.62-2.999 18.802-1.589 28.382 3.16-.771 5.451-3.54 8.871-3.8.7-2.951.869-6.26 3.489-8.251-.15 7.54 5.44 1.19 7-2.06.49-3.07-2.87-5.66-1.78-8.789.78-3.711 3.52-6.42 6.08-9 3.05-3.051 1.19-8.651 4.79-11.231-.96 5.329-.259 10.76-.83 16.11-2.52 6.14-6.3 12.24-5.76 19.16 2.51-1.78 4.989-3.62 7.629-5.21 3.1-6.7 2.221-15.111 6.261-21.211.16 2.071.161 4.161.321 6.241 2.6-.99 5.12-2.361 7.049-4.39.511-3.931-.26-7.92.351-11.86 2.84 1.85 3.989 5.47 7.029 7.12.15-5.71 3.22-9.77 6.06-14.39-2.99-.19-6 0-8.98-.37-1.18-5.931 3.48-10.6 4.791-16 1.049-3.291-5.031-5.14-1.682-7.99 3.18-3.44.981-8.021.611-12.01 1.75-11.62 1.55-23.52.2-35.18 6.48 1.12 12.51 4.3 19.13 5 7.97.56 14.679 6.57 22.859 5.84 3.5-1.13 6.331-3.71 8.971-6.17 6.18-4.53 3.93-12.139 3.05-18.51-.99-6.449 5.75-9.48 9.97-12.76 1.91-1.32 3.829-2.669 5.96-3.64 9.54-1.12 19.94.2 28.31-5.849 1.84-1.88 3.88-3.571 6.13-4.951 4.91-3.12 10.251-5.47 15.391-8.17 6.109-3.13 13.119-1.09 19.429.239 11.52 1.02 19.871 12.241 21.12 23.171.211 4.46 4.249 7.29 8.269 8.19 1.56-4 3.721-3.45 5.561 0 4.79-.17 4.53-5.259 1.07-7.29-4.409-4.049 4.56-6.27 2.71-10.89-1.21-5.39 5.04-10.01 3.32-14.959-7.2-1.671-3.68-9.98-3.97-15.28.19-3.77-2.89-6.141-5.27-8.541-8.05-6.739-19.58-7.56-27.2-15.19-3.85 3.41-5.861 8.14-7.87 12.74-1.951-.52-3.8-1.39-5.79-1.72-3.18.49-5.961 4.02-9.261 2.1-2.929-1.55-6.849 1.16-9.139-1.809-3.34-3.251-1.12-8.131-.89-12.1-3.22.54-6.67 1.189-9.26 3.3-1.87 2.72-1.76 6.269-2.88 9.3-5.069.36-10.69-5.421-14.01 1.029.24 2.76 3.26 3.62 4.39 5.871-1.7.76-3.5 1.289-5.14 2.149-1.05 2.16-.18 6.96-3.82 6.24-6.72-.87-13.22-3.07-19.98-3.73-6.81-.92-14.02 1.08-20.489-1.87-13.98-6.06-29.321-8.669-44.511-8.24-1.67-.08-3.92.13-4.5-1.87-3.87-8.33-9.04-15.979-15.23-22.75-2.91-3.54 1.379-6.51 3.859-8.57 1.24-2.52.351-5.67.811-8.42 5.35-.19 10.191 3.97 15.52 2.8 1.391-1.89 5.05-4.27 3.74-6.69-7.23-3.409-16.02-7.08-23.21-1.6 1.44-3.86 3.78-8.13 7.98-9.42 5.07-.58 9.47 3.99 14.541 2.78 2.249-2.14 3.959-4.809 5.179-7.639-2.83-4-8.78-2.271-13-2.931 2.15-3.57 6.18-5.32 8.76-8.5 1.08-2.4-1.44-4.539-2.81-6.239-5.91 3.58-8.74 13.009-16.67 12.08-3.98-.401-7.51 1.629-11.259 2.529 1.249-5.31 8.119-6.439 9.379-11.689.91-2 .76-5.801 3.9-5.281 5.57 1.16 3.72-5.78 4.75-9.23-3.75-.67-5.98-4.08-9.69-4.96 1.16-2.609 3.99-3.729 5.71-5.879.62-3.2-3.17-6.761-6.32-5.411-4.37 3.04-5.26 9.87-10.97 11.15-4.62 1.05-8.71 3.38-12.77 5.72-.46-4.34.37-9.02 3.45-12.3 3.22-.88 6.39 1.2 9.679.83.6-2.85-1.709-4.75-3.118-6.87 1.649-2.67 4.469-4.38 6.059-7.08.5-3.52-4.03-4.78-6.641-5.67-2.8 2.88-3.719 7.381-6.809 10.181-2.64 1.25-5.66 1.389-8.52 1.729 1.61-4.88 7.11-9.729 4.09-15.1-.74-2.229-4.44-2.61-4.69.11-2.33 8.15-5.98 16-11.93 22.15-.98.93-2.161 1.2-3.541.84-.229-4.269 2.711-7.88 3.411-12.01 1.96-4.97-3.131-8.82-6.911-10.98-.549 3.62.491 7.18.761 10.77-1.98 4.24-3.43 9.14-6.9 12.41-.12-6.33-1.41-12.819-5.74-17.69-.58-4.189 4.6-7.67 4.2-11.99-2.015-1.65-4.498-3.444-7.172-3.49zm-.378 28.741c4.05 4.27 1.769 12.59 1.929 18.44-5.28-4.12-3.789-12.9-1.929-18.44zm35.08 3.979c-2.5 3.34-5.33 7.241-9.43 8.511.87-3.74 4.19-6.67 7.63-8.1.449-.1 1.349-.3 1.8-.411zm24.19 17.811c-1.2 4.31-3.459 8.931-7.259 11.471-1.791-4.851.829-9.011 5.309-10.9.49-.14 1.46-.431 1.95-.571zm228.139 17.344c-2.292-.03-4.496.681-4.698 3.456.14 1.91.339 3.811.539 5.72 5.59.791 7.89-4.11 6.41-8.94-.712-.13-1.487-.224-2.251-.236zm1.451 11.406c-2.069.39-4.06 1.09-6.031 1.81-.6 3.01-.779 6.09-.809 9.15 4.65-1.81 8.34-5.56 6.84-10.96zm-177.168 92.457c5.936-.167 11.748 2.241 17.698 2.582 6.24 1.571 12.43-1.329 18.66-.379-6.56 6-14.85 9.93-22.1 15.061-4.37-4.2-10.4-2.341-15.71-3.371-3.13-2.18-3.65-6.64-5.35-9.9-1.16-2.59 2.49-3.27 4.25-3.75.854-.142 1.704-.219 2.552-.243zm-38.372 104.573c3.78 1.8 1.55 11.12-2.27 13.64-.17-4.489-1.73-10.34 2.27-13.64zm-20.32 10.42c-2.33 8-3.6 16.709-8.971 23.389.12-5.5-2.278-12.539 2.531-16.659 1.971-1.98 3.47-4.419 5.68-6.159zm-19.78 1.31c2.57.24-.95 6.42-1.8 8.97-.42 4-3.691-.1-2.491-2.07.86-2.54 1.981-5.35 4.291-6.9zm-21.009 18.879c3.229 1.111-1.471 8.101-4.411 10.071.26-3.71 2.051-7.271 4.411-10.071z" fill="#ce4949"/>
    <path id="color2" d="m510.472 140.041c-10.189-.135-20.274 2.537-28.722 8.718-17.88 13.371-25.731 35.601-30.54 56.471-9.971 8.89-16.78 21.26-17.3 34.76-.331 4.931 5.57 6.53 6.24 11.04.8 2.87 1.43 7.29 5.43 6.87 3.32-6.45 8.941-.67 14.01-1.03 1.12-3.03 1.01-6.58 2.88-9.3 2.59-2.11 6.04-2.76 9.26-3.3-.23 3.97-2.45 8.85.89 12.1 2.29 2.97 6.21.26 9.139 1.81 3.3 1.92 6.081-1.61 9.261-2.1 1.99.33 3.839 1.2 5.79 1.72 2.009-4.6 4.02-9.33 7.87-12.741.08-12.869-4.78-25.978-2.78-39.069.87-3.209 4.34-4.56 6.92-6.16 9.4-4.76 19.13-9.02 29.16-12.24.42 12.891-3.01 27.16-14.8 34.269 5.7-1.48 10.93-4.229 15.73-7.609-1.02 3.21-2.05 6.42-2.78 9.7 6.44-9.55 15.38-17.52 19.611-28.48.269-3.7 4.1-3.74 6.949-3.22 1.48 4.83-.82 9.731-6.41 8.94-.13 1.351-.261 2.69-.421 4.04 1.971-.72 3.962-1.42 6.031-1.81 1.5 5.4-2.19 9.15-6.84 10.96-3.26 7.21-4.22 15.24-6.83 22.72 2.66 5.01-1.65 9.579-3.33 14.11 3.94-2.66 5.78-7.18 8.92-10.569 1.8 5.569 1.89 11.609 1.16 17.379-.4 4.79-6.63 6.339-10.35 4.39-3.39-1.78-6.74-3.95-10.74-3.88l-2 1.72c2.38 2.4 5.46 4.771 5.27 8.54 4.89.4 9.53 1.69 13.62 4.48 7.7 2.58 12.78-5.54 16.58-10.85 5.28-4.52 10.43-10.301 11.43-17.41-1.31-10.62-10.63-17.389-15.47-26.32 0-11.34 5.08-22.43 2.99-33.89-2.04-12.37-7.73-25.65-19.27-31.82-10.187-7.954-23.458-12.766-36.558-12.939z" fill="#614d3d"/>
    <path id="color3" d="m661.051 807.729c-1.235.08-2.478.247-3.731.695-4.8 2.016-9.351 5.232-12.211 9.656-4.62 8.52-1.25 18.456-3.55 27.432 3.751 3.488 9.23 6.385 10.73 11.449-3.069 7.736-6.41 15.966-12.379 21.982-4.74 3.48-11.47 8.665-17.18 4.233.34 4.752 2.39 9.185 3.12 13.881 1.13 7.744 6.98 13.368 9.64 20.496 6.04 5.648 15.511 2.896 22.451.424 11.06-4.96 11.91-18.529 13.87-28.905 1.26-4.28-5.192-6.704-2.801-10.984 2.329-3.584 6.079-5.977 8.439-9.561 8.91-13.296 9.431-30.255 7.321-45.615-.49-4.816-2.399-10.744-7.799-11.808-5.354-.568-10.569-3.551-15.92-3.375zm-191.379 107.798c-7.312.136-14.584 3.322-18.483 9.522-1.689 3.872-2.348 8.12-3.199 12.248.64 7.944 5.45 14.792 6.24 22.664-3.34 5.08-9.91 7.032-14.66 10.68-5.95 4.608-18.329 4.006-18.629-5.37-2.671 5.208-1.72 11.337-3.64 16.817-2.91 9.336-2.302 19.182-1.942 28.792 4.431 14.77 29.65 18.97 36.83 4.32 3.571-5.87 8.35-11.94 7.51-19.239-.37-4.928 5.351-6.402 8.621-8.682 15.22-8.544 20.241-26.63 24.901-42.23 3.1-9.152-3.752-16.921-7.981-24.305-4.17-3.584-9.881-5.321-15.568-5.217z" fill="#7b593f"/>
    <path id="color4" d="m537.98 187.59c-10.03 3.22-19.76 7.48-29.16 12.24-2.58 1.6-6.05 2.951-6.92 6.16-2 13.091 2.86 26.2 2.78 39.069 7.62 7.631 19.151 8.451 27.201 15.191l2-1.721c6.44-5.85 12.06-12.879 14.34-21.429 2.61-7.48 3.57-15.509 6.83-22.719.03-3.06.208-6.141.808-9.151.16-1.35.29-2.69.42-4.041-.2-1.909-.399-3.808-.539-5.718-4.231 10.96-13.169 18.928-19.609 28.478.73-3.28 1.759-6.489 2.779-9.699-4.8 3.38-10.03 6.129-15.73 7.609 11.79-7.109 15.22-21.378 14.8-34.269zm-54.191 7.439l-.559.321c-5.66 2.69-6.449 9.5-8.679 14.67.35 3.92 1.709 9.55 4.469 11.75 2.74-8.65 3.5-17.801 4.769-26.741zm13.811 17.813c-3.24 8.7-5.77 17.837-6.01 27.168.66 3.6 5.3 3.08 8.09 3.76 2.79-10.1.47-21.059-2.08-30.928zm-33.35 80.947c-2.25 1.38-4.291 3.071-6.131 4.951.43 4.02-4.879 12.25.981 12.69.72-6.15 2.6-12.021 5.15-17.641zm-34.439 10.801c-2.131.971-4.051 2.32-5.961 3.64 8.4 2.33 10.329 12.27 16.66 17.29 3.82.05 7.66-.691 11.51-.151 3.04-6.16-3.749-5.089-7.678-4.689-5.62-4.66-6.982-13.439-14.531-16.09zm101.324 9.836c-.964-.06-1.896.795-2.676 2.795 3.131 3.87 5.331 8.349 7.641 12.738l1.15.691c-.2-4.64-1.67-9.099-3.23-13.439-.92-1.72-1.92-2.717-2.885-2.785zm-2.076 11.324c1.451 7.14 2.911 14.309 3.271 21.609.15 7.88-3.25 15.161-6.33 22.221 1.46 6.36-.549 13.09 1.811 19.279 1.329 3.78 4.799 6.071 7.769 8.5 5.07 4.04 9.25 9.243 14.461 13.032-.48-8.36-3.161-16.731-7.371-23.961-3.7-4.56-2.619-10.731-3.459-16.151 6.269 4.77 13.788 8.081 21.818 7.801 12.29-.55 19.772 10.799 29.461 16.279-3.449-7.829-9.679-14.189-15.439-20.418-8.28-7.111-15.15-16.771-26.11-19.882-5.131-2.04-15.02-.959-12.31-9.309.7-7.13-3.081-13.76-7.572-19zm-163.184 148.891c-2.036 0-3.057 6.416-3.154 8.49.91 3.91 1.93 8.339 5.58 10.639 7 4.22 9.98 15.319 19.75 14.099 5.53.84 9.299-3.138 10.949-7.978-6.04.88-13.26.87-17.32-4.51-4.58-7.2-13.689-11.082-14.869-20.322-.333-.291-.645-.42-.936-.418zm-5.605 27.25c-3.31 2.111-6.811 4.01-9.821 6.55-3.3 4.449-4.159 11.101-9.849 13.45-.18-4.109-.39-11.72-6.58-10.09-.36 5.69-1.1 11.589.63 17.14 1.38 6.74 5.931 12.209 7.401 18.918 7.34-1.629 13.949 3.361 21.209 1.461 2.071-3.22 3.281-7.019 6.291-9.599 1.88-2.97 4.989-3.94 8.349-3.84 6.3-2.86-.64-13.451 7.1-14.481.14-1.41.02-2.82-.17-4.189-4.88-.191-10.329 1.5-14.689-1.451-4.6-3.509-7.261-8.838-9.871-13.869zm187.556 135.662c-1.092 0-2.187.301-3.267 1.027-11.38 7.19-19.738 18.102-27.588 28.811 12.31 12.451 13.649 30.639 17.459 46.779 16.71 2.94 33.051-7.181 39.621-22.43.15-2.651-1.51-4.981-2.41-7.381-6.651-13.58-6.72-29.419-14.551-42.539-2.737-1.65-5.988-4.279-9.264-4.267zm-155.547 3.687c2.19 11.52 4 23.121 5.92 34.701 1.34 9.7 3.171 19.338 3.951 29.118.79 10.731-2.988 21.001-4.308 31.511l1.267-.33c14.28-5.811 31.402-7.03 44.733 1.86l.888.291c-1.07-15.22 1.179-30.271 2.51-45.371-1.751-8.58-2.72-17.35-1.451-26.1-.06-6.35 3.722-14.07-1.398-19.27-1.889-2.21-3.691-4.689-6.321-6.06-11.85 1.871-21.98 9.36-32.9 13.5-4.4-4.509-8.131-9.67-12.891-13.85z" fill="#f7e6d9"/>
    <path id="color5" d="m486.81 283.97c-2.46.03-4.878.476-7.169 1.65-5.14 2.7-10.481 5.05-15.391 8.17-2.55 5.62-4.43 11.49-5.15 17.64-5.86-.44-.55-8.669-.98-12.689-8.37 6.049-18.77 4.729-28.31 5.849 7.549 2.651 8.911 11.43 14.531 16.09 3.929-.4 10.719-1.47 7.679 4.69-3.85-.54-7.69.2-11.51.15-6.331-5.02-8.26-14.96-16.66-17.29-4.22 3.28-10.96 6.311-9.97 12.76.88 6.371 3.13 13.98-3.05 18.51-.62 2.65-2.2 4.93-2.94 7.52 3.511.3 7.86 1.2 10.63-1.6 4.8-5.14 6.24-12.72 11.46-17.49-3.22 10.34-9.06 20.13-9.6 31.27.18 6.04-8.05 5.61-9.43 10.959-3.33 9.511-3.229 20.12-7.46 29.351-9.86 9.5-12.529 23.39-17.4 35.59-3.7 1.99-4.95 5.27-4.47 9.4-9.64-.23-9.6 10.79-14.99 16.13-4.75 4.38 3.389 9.149.18 14.429 1.18 9.24 10.29 13.121 14.87 20.321 4.06 5.38 11.28 5.39 17.32 4.51-1.65 4.84-5.42 8.82-10.95 7.98-9.77 1.22-12.75-9.88-19.75-14.1-3.65-2.3-4.67-6.73-5.58-10.64-.16-.37-.46-1.1-.62-1.471-7.99 4.16-5.2 13.891-1.83 20.231 2.61 5.031 5.271 10.36 9.871 13.869 4.36 2.951 9.809 1.26 14.689 1.451.19 1.369.31 2.78.17 4.19-7.74 1.03-.8 11.62-7.1 14.48-3.36-.1-6.47.87-8.35 3.84-.12 7.62 7.68 14.25 3.991 21.85-4.251 10.49-3.751 22.01-4.891 33.06-4.41 4.57-10.57 7.42-13.93 13.029-3.48 4.68-2.4 11.402-6 15.882-4.9.92-10.31.759-14.57 3.739-2.02 9.36 1.74 18.83 5 27.51 1.81 5.511 7.67 7.72 10.92 12.16 5.19 6.51 7.58 15.61 14.98 20.13 10-1.5 18.391-9.901 28.94-8.97 1.86-.18 5.36 1 4.21-2.169-1.92-11.58-3.73-23.18-5.92-34.7 4.76 4.18 8.49 9.34 12.89 13.849 10.92-4.14 21.05-11.629 32.9-13.5 2.63 1.371 4.431 3.85 6.32 6.06 5.12 5.2 1.34 12.92 1.4 19.27 1.26 4.39 8.231 4.181 12.251 5.121 7.18-3.5 11.82-12.94 20.549-12.8 3.7 7.169 5.3 15.549 10.53 21.849 6.64.191 12.13-5.389 18.8-6.2 4.4-.369 6.97-4.04 9.05-7.5 7.85-10.709 16.209-21.62 27.589-28.81 4.32-2.9 8.882 1.04 12.531 3.24 3.711 2.03 7.45 4.76 11.78 5.08 4.88-5.43 6.6-13.181 11.54-18.59 6.009-4.191 12.309-8.129 17.4-13.469 1.34-1.56 2.85-3.611 2.12-5.791-2.3-6.82-7.291-12.39-9.72-19.15-.491-12.33 7.451-22.37 13.231-32.52 1.469-3.45 4.46-7.9 1.5-11.38-4.46-5.44-8.48-11.54-14.3-15.63-13.991-5.38-28.811-8.46-43.641-10.4-12.52-1.54-24.55 3.8-36.92 3.76-2.06-2.5-6.07-3.97-6.021-7.66-.569-7.55-5.318-13.72-7.869-20.62 13.071.3 26.7-.39 38.49-6.63 4.31-2.69 3.65-8.48 3.22-12.82-1.94-14.71-2.561-29.88-7.89-43.88-2.26-6.3-6.631-11.47-10.2-17.03-3.611-4.789 0-10.78-.66-16.14-.73-5.37 5.3-8.62 4.93-13.891-.97-1.989-2.51-3.619-3.68-5.479 1.33-3.6 4.02-6.51 5.6-10 3.08-7.06 6.48-14.341 6.33-22.221-.36-7.3-1.82-14.469-3.271-21.609 4.491 5.24 8.271 11.87 7.571 19 .32.38.95 1.14 1.27 1.52.68-5.46 1.36-11.451-1.8-16.311-2.31-4.389-4.51-8.869-7.641-12.739-4.02-.9-8.058-3.73-8.269-8.19-1.249-10.93-9.6-22.151-21.12-23.171-3.944-.831-8.16-1.938-12.26-1.889zm87.24 407.771c-6.57 15.249-22.91 25.369-39.62 22.429 6.16 28.76 21.48 54.34 38.711 77.789 19.02 28.817 41.849 56.793 49.589 91.217 5.71 4.432 12.44-.752 17.18-4.232 5.969-6.016 9.311-14.248 12.38-21.984-1.5-5.064-6.98-7.96-10.731-11.448-6.06-5.352-8.829-13.376-12.759-20.256-19.72-41.457-34.75-84.886-51.18-127.697-1.1-1.86-1.41-5.229-3.57-5.818zm-152.219 39.917c-7.731-.08-15.581 1.678-22.721 4.583-1.36.389-2.31 1.339-2.19 2.859-5.43 30.35-5.03 61.988 2.639 91.932 7.14 33.8 15.341 67.408 20.841 101.536 1.59 8.664 1.481 17.544 1.341 26.304-1.36 2.008-2.18 4.12-.8 6.4.3 9.376 12.679 9.976 18.629 5.368 4.75-3.648 11.32-5.6 14.66-10.68-.79-7.872-5.6-14.72-6.24-22.664-8.149-63.472-3.89-127.568-2.86-191.296-.4-2.57 1-6.06-1.289-7.9-6.665-4.445-14.279-6.362-22.01-6.442z" fill="#4b434a"/>
  </g>
</svg>
