<svg height="1080" width="1920" xmlns="http://www.w3.org/2000/svg">
  <path id="background" d="m0 0h1920v1080h-1920z" fill="#097392"/>
  <g id="transform" transform="translate(0,0) scale(1.00)">
    <path id="color1" d="m0 0v .18945312l.18945312-.18945312zm1078.9199 68.570312c-.17 7.48-.6294 14.980079-2.1094 22.330079-1.1 5.51-5.2607 9.699839-6.7207 15.089839-3.23 7.26-9.5793 12.53883-14.0293 19.04883-2.99 4.49-8.7913 8.45149-7.6113 14.52149 3.47 2.22 9.6614-3.34024 10.9414 2.50976-2.17 14.32-14.3501 23.66938-23.9101 33.35938-7.46 8.01-20.1804 13.34031-21.1504 25.57031 1.69 7.13-.0705 14.15062-2.4805 20.89062-3.59-2.9-13.13944-1.44054-11.1894-8.06054 2.48-8.84 8.46-16.18977 11.08-25.00977 4.28-9 4.4205-19.27 8.7305-28.25 2.8-6.7 6.6-12.92008 9.5-19.58008-13.05 14.1-19.3309 32.83954-25.1309 50.76954-3.61 11.29-12.36972 20.1507-15.25972 31.7207-1.39 4.3 3.44898 7.27898 3.45898 11.45898.22 3.88.8018 7.76 2.5918 11.25 6.59004 5.58 17.24934 4.64055 23.35934-1.18945 2.38-7.17 4.8099-14.31094 6.3399-21.71094 5.21-7.74 13.4904-12.87968 21.4804-17.42968 4.15-2.24001 9.1391-2.51954 13.0391-5.26954 8.3-9.34 18.6099-17.0907 30.9199-20.2207 5.85-2.61 11.2708-6.13992 16.0508-10.41992 5-5.78 11.2802-10.42899 15.4102-16.95899-7.11 5.09-12.7498 12.37024-21.0098 15.74024-5.74 2.42-11.4412 4.91015-17.0312 7.66015-12.46 5.24001-23.4587 13.53969-36.3887 17.67969-4.79 1.87-8.8204 5.72055-14.1504 6.06055 1.21-7.14 9.7496-9.26102 13.5996-14.79102 10.14-13.99 19.1005-28.8707 26.5605-44.4707.95-2.29 2.2097-4.73906 1.6797-7.28906-2.12-3.2-6.5505-2.41102-9.8105-3.29102 3.65-10.22 9.6598-19.72984 16.2598-28.33984 3.43-9.690001 1.5907-20.168673-.7793-29.888673-.41-1.33-.8903-2.840234-2.2403-3.490235z" fill="#68cbe1"/>
    <path id="color2" d="m1236.3105 82.859375c-51.74 1.82-104.371 4.029844-154.371 19.089845-6.6 8.61-12.6098 18.11984-16.2598 28.33984 3.26.88 7.6905.09102 9.8105 3.29102.53 2.55-.7297 4.99906-1.6797 7.28906-7.46 15.6-16.4205 30.4807-26.5605 44.4707-3.85 5.53-12.3896 7.65102-13.5996 14.79102 5.33-.34 9.3604-4.19055 14.1504-6.06055 12.93-4.14 23.9287-12.43968 36.3887-17.67969-6.03-3.99999-10.7096-9.75023-14.2696-15.99023 10.69 1.68 20.9808 5.19008 31.3008 8.33008 8.26-3.37 13.8998-10.65024 21.0098-15.74024-4.13 6.53-10.4102 11.17899-15.4102 16.95899 6.85 3.49 14.3301 5.39133 21.5801 7.86133 21.08 7.35 42.0796 14.9189 62.8496 23.1289 14.18 5.64 29.9006 9.27102 41.6406 19.54102-25.03 5.58-50.8309-.56984-74.4609-9.08985-22.95-9.41999-46.0102-18.85148-67.6602-31.02148-12.31 3.13-22.6199 10.8807-30.9199 20.2207 16.52 14.14 33.0999 30.0493 40.0899 51.2793 3.44 8.09 2.5097 16.94047 3.0097 25.48047 2.45-2.29 1.9406-6.25984 2.3906-9.33984.02-17.41-4.9407-34.27024-9.2207-50.99024 15.6 21.32 25.9915 46.77086 30.0215 72.88086l.9297.16992c1.07-24.74-4.3798-49.43062-11.8398-72.89062 42.1 9.7 84.4893 19.96101 127.7793 22.04101 9.48-.4 19.0197.1493 28.5097.2793 8.43 9.45 13.7104 21.35086 17.4004 33.38086 4.91 13.82 6.6792 29.19008 2.1992 43.33008-2.13 2.48-5.4998 3.69992-7.0898 6.66992 1.88.25 3.7816.35867 5.6816.63867-.74 15.01-7.4103 28.97992-9.8203 43.66992 2.96-3.14 4.2403-7.42015 6.2403-11.16015 14.6-33.57 22.4282-71.22993 15.9882-107.66992 28.17 10.72999 54.7216 28.35078 71.8516 53.55078 13.55 14.99 18.0491 36.1689 16.5391 55.8789-4.52 12.05-11.9204 23.73117-23.4004 30.20117-.83.93-4.5589 2.0893-2.0489 3.0293 9.04-3.08 15.4086-10.6193 21.5586-17.5293 16.82-26.46 11.471-60.14984 1.461-88.08984 18.75 7.54 34.4702 20.7993 49.2402 34.2793 9.1 9.79 18.3197 20.72062 20.4297 34.39062 3.69 13.82-3.6292 27.05985-9.9492 38.83985-5.26 8.47-11.1308 16.66961-18.0508 23.84961-10.23 8.67-21.6909 15.77117-32.9609 22.95117-2.69 2.49 1.8404.75961 3.1504.34961 27.89-12.05 50.3403-34.39032 66.4003-59.82032 6.04-9.97 7.2207-21.82945 7.8907-33.18945-5.13-22.07-16.3805-42.75078-32.9805-58.30078-23.08-24.49-51.9296-42.81055-82.0996-57.31055 18.56-3.54 37.8198-6.86875 54.0098-17.21875 3.3-3.07 7.719-6.21156 8.039-11.10156-3.54 1.1-6.0587 3.98172-9.2187 5.76172-14.61 7.98-31.27 11.27875-47.75 12.21875-5.42 1.28-10.8596.36094-16.2696-.28906-13.95.48-25.9004-7.96985-37.6504-14.33985-6.28-2.85-12.2407-6.33023-18.2207-9.74023 2.06-2.35 5.7303-1.87117 8.4903-2.95117 14.62-4.64 28.3899-11.50961 42.4199-17.59961 19.01-10.21 40.2193-17.79039 55.2793-33.90039 3.39-3.65 7.4704-7.13938 8.9004-12.10938-8.82 5.6-16.1505 13.45086-25.4805 18.38086-19.73 12.86-42.4498 20.07914-65.0898 25.86914-11.17 1.68-22.1686 5.02938-33.5586 4.35938-7.12 2-13.9403-1.71008-21.0703-1.08008-14.74.37-29.0414-4.3193-42.1114-10.7793-32.24-10.3-65.4395-17.65922-99.0195-21.94922-10.5-1.03-21.4591-3.71093-29.7891-10.46093 15.99-4.05 32.4792-5.77969 48.8692-7.42969 31.46-2.58 63.6404-3.67047 94.6504 3.51953 27.29 5.51 53.5298 14.98976 79.5898 24.50977-7.82-7.29001-18.7401-10.17868-27.8301-15.63868-40.8-18.6-84.2405-31.09101-128.3105-39.04101 3.96-2.760002 8.8706-3.379768 13.3906-4.759768 20.11-4.89 40.5401-8.419688 61.0801-10.929688 1.33-.33 3.1705-.370859 3.8105-1.880859zm-173.1914.021484c-5.07 1.72-9.909 4.06875-14.789 6.21875-21.59 11.020001-43.461 21.800941-63.21096 35.960941-6.66 6.08-15.66875 10.92875-17.71875 20.46875-4.47 1.76-7.35039-1.17891-9.40039-4.62891-32.69-15.37-67.01953-28.37969-103.01953-33.17969-1.29.1-6.7011-.52007-3.87109 1.41992 15.27999 6.22001 30.49132 13.00032 44.61132 21.57032-49.26 11.66-97.40093 28.79922-141.96093 52.94922-24.8 14.72-50.46907 29.57914-69.78907 51.36914 5.79-1.12 10.69883-4.51907 16.04883-6.78907 33.32-15.13 66.69985-30.33968 101.08985-42.92968 27.20999-7.81 55.42124-13.55071 83.78124-13.97071-5.45999 5.74-12.0607 10.29032-17.7207 15.82032-10.61 11.42-22.76 21.43984-32 34.08984-9 13.24-19.1807 25.92063-25.2207 40.89062-.88 2.67 1.59094 1.38016 2.21094-.08984 11.91-16.92 24.61961-33.27164 37.84961-49.18164 8.41-9.12 15.9407-19.59906 26.9707-25.78906 11.77-5.36 23.78867-10.91992 36.88867-11.91992-13.3 13.35-25.40922 28.84-30.69922 47.25-.2 1.39-1.17078 4.79953 1.19922 2.76953 7.82-14.55 15.72172-29.43946 27.01172-41.68946 3.05-2.25 5.45977-6.07015 9.50976-6.41015-4.32999 9.75-8.65992 19.99992-8.16992 30.91992.42 3.75-1.11047 7.24078-1.98047 10.80078 1.35-.78 2.67055-1.64062 4.06055-2.39062 2.58 7.36 3.69945 15.28078 2.68945 23.05078-8.24 3.19-14.83945 10.05945-17.68945 18.43945-1.69 7.03-6.45148 12.53016-11.52148 17.41016-11.17 14.1-6.44 34.43008 3.5 47.83007 2.6 3.69 7.11992 5.81938 9.16992 9.85938-3.31 8.96-2.25984 18.77977-.83984 28.00977.67999 3.85-1.97993 6.81945-3.66993 9.93945.76 3.3 4.19086 6.83125 1.38086 10.03125-3.9 5.61-5.35023 13.02883-2.99023 19.54883-6.29 1.37-5.99969-5.44938-4.92969-9.60938-2.18-.75-2.12086 1.86977-2.63086 3.25977-11.36 52.49-23.4393 104.83101-36.0293 157.04101-2.02 7.59.80055 15.01836 3.31055 22.06836.56 8.51-1.36 16.99149-1.5 25.52149 3.22.65 6.48859 1.43882 9.8086 1.29883 5.07999-1.44001 7.86015-6.62946 7.66015-11.68946 2.31-.35 4.68-.33976 7-.00976.5 2.83-.34914 6.08007 1.38086 8.58007 6.1 8.38 10.27922 17.98047 17.44922 25.48047 2.02 2.98 2.40984 7.93953 6.83984 8.26953 5.89 2.11 7.26086 9.49969 11.13086 13.92969 3.76 3.96.96906 9.38094-1.46093 13.21094-4.12 3.68-11.32016 2.34945-13.91016-2.56055-6.17-8.63-12.49953-17.16109-17.76953-26.37109-2.8-5.51-9.41906-2.2693-14.03907-1.7793 6.52001 9.89 13.76961 19.32953 20.59961 29.01953 2.73 3.3-2.58023 7.32032.00977 10.82032 2.89 4.88 5.80945 10.25015 10.68945 13.41015 2.07 1.38 5.02039 2.30914 5.90039 4.86914-.19 3.49-2.18023 7.17149-.24023 10.52149 8.68.62 17.41133-.10149 26.11133.22851 5.78.38 11.61937-.33906 17.35937.46094 4.11 2.84 6.90914 7.14992 9.36914 11.41992 6.11 9.65 12.55118 19.10086 18.45117 28.88086 10.67 18.04 22.52961 35.36016 33.59958 53.16016 2.01 3.03 4.3192 5.86883 6.1192 9.04883 9.37 15.96 19.4013 31.55046 29.6113 46.98046 17.11 26.38 33.4893 53.23016 50.5293 79.66016 4.64 7.42 9.3395 14.79945 14.0195 22.18945 15.08 24.43 30.5298 48.64047 45.7598 72.98046 6.8 8.34 14.801 17.0389 25.791 19.3789-.9-3.61-3.3012-6.5287-5.2012-9.6387-21.4-33.95995-42.9398-67.84089-64.0898-101.96089-3.03-3.05 1.8216-6.59-.3984-9.75-3.01-5.63-4.7011-11.88945-5.5411-18.18945.33-3.32 4.2793-6.46961 1.7793-9.84961-3.47-4.6-2.2289-10.47055-2.3789-15.81055 1.04-12.07-2.2304-23.89047-.6504-35.98047-2.44-13.85-.8891-28.0093-1.3691-42.0293-6.65-7.95-14.94-14.83086-19.75-24.13085-2.97-11.09001-4.2098-22.57844-6.0898-33.89844-.29-3.66-1.9406-7.82133.4394-11.11133 2.57 14.45 4.5289 29.14976 9.6289 43.00977 2.38 5.25 6.9703 8.99085 10.5703 13.38085 6.69 7.13 12.8303 14.84977 20.2403 21.25977.91-2.19 1.5807-4.47023 2.2207-6.74023 4.8-14.25-3.8214-28.33039-10.1914-40.65039-2.85-6.43-9.3889-9.38946-14.6289-13.43946 4.17-15.54-6.38-29.1907-12.67-42.4707-1.66-2.44-1.6898-7.64961-5.3398-7.59961 2.05 6.08 5.2294 11.90078 6.1894 18.30078-.79 7.03-5.4791 12.70875-10.3691 17.46875 3.65 12.11 5.2997 25.2118 7.4297 37.8418.87 2.52-2.6608 2.45945-4.3008 2.68945-3.69-12.67-4.9298-25.90117-6.5098-38.95117l-2.6796.04101c1.99 14.31 5.0697 28.53 5.7597 43 .13 3.79-1.2494 7.36969-2.3594 10.92969 1.12 8.07 3.56 15.88047 5.67 23.73047 4.34 15.48 8.3786 31.07875 13.8886 46.21875 2.37 7.01 5.4511 13.87023 6.6211 21.24024.72 4.56999-2.1297 8.83992-1.4297 13.41992.57 4.42 1.0587 8.89132.6387 13.36132-14.45-22.85-28.9996-45.67023-43.0996-68.74023-24.2-39.34-48.959-78.34992-73.95898-117.16992-8.14999-11.88-15.39976-24.34992-23.25976-36.41992-3.53-5.38-6.37125-12.04055-12.78125-14.56055-1.92-.98-4.63023-1.63063-4.99023-4.14062-1.18001-5.22001 4.73007-9.36844 3.08007-14.64844-1.62-5.79-4.71929-11.07141-8.52929-15.69141-3.09-3.03-.45071-7.76047-2.72071-11.23047-3.04-5.98-3.04976-12.77859-2.75976-19.30859.34-9.45-3.01969-18.47039-6.92969-26.90039-1.92-7.87.07078-19.16039 8.80078-21.65039 14.46 6.1 30.50844 4.04125 45.39844.78125 2.27-2.78 4.34055-5.71102 6.56055-8.54102 4.03-6.25 14.92937-4.7207 17.35937 2.2793 20.50996 1.41 41.08026-4.2193 58.74026-14.5293 1.12 6.62 1.3802 13.36024 2.4902 19.99024 1.28-1.36 2.5795-2.74024 4.1895-3.74024 4.7 3.47 9.1507 7.31024 13.7207 10.99024 7.91 6 16.3606 11.27984 24.8906 16.33984.34-.5 1.0194-1.48047 1.3594-1.98047-1.6-14.42-2.4797-28.93015-2.1797-43.41015-12.04-47.89001-24.7401-95.71899-35.3301-143.95899 8.68 12.92 15.1091 27.22875 22.8691 40.71875 4.98-3.96 9.1811-8.92851 11.3711-14.97852.78-17.18 2.7107-34.2907 3.6407-51.4707-8.29 5.18-15.9507 11.28961-23.9707 16.84961-7.66 4.07-16.4703 5.08109-24.7403 7.37109 1.84 8.81001 4.1003 17.72883 3.7403 26.79883-.01 2.68-2.5609 4.13047-4.6309 5.23047-2.38-16.63-.0689-35.44031-10.8789-49.57031-6.22-8.71-12.06-17.77875-19.25-25.71875 2.15 9.25-.3807 18.2682-5.7207 25.9082 6.05 2.87 12.8097 5.23156 17.1797 10.60156.27 12.49-.7789 25.17985-3.8789 37.33985-1.31 5.28-.3106 10.6893-.3106 16.0293-4.46 5.34-11.3908 7.65945-17.0508 11.43945 2.59 5.8 4.9506 11.84023 8.3106 17.24023 4.62 3.31 7.3006-3.23961 11.1406-4.59961 3.04 4.71 6.9493 11.57 2.7793 16.75-3.85 6.21-9.9701 10.44086-16.4101 13.63086-2.61 1.07-.9903 5.23891-3.9903 5.87891-11.35 4.32-23.19897 7.60094-35.20897 9.46094-2.71-1-2.46-6.34086-6-6.63086-11.53-1.65-21.23937-8.82914-30.10937-15.86914-4.69-3.54 5.78906-6.55024 2.78906-10.74024-2.26-2.65 1.36938-4.28937 2.60938-6.35937-.41-1.71-1.89938-3.2718-1.35938-5.0918 2.82-9.08 7.46992-17.61937 9.66992-26.85937-3.08-10.54-6.14031-21.13907-7.82031-32.03907-4.6 6.63-7.32008 14.33938-10.08008 21.85938-2.67 6.3 1.14125 13.45031-2.21875 19.57031-2.53 4.88-4.95093 9.83008-7.71093 14.58008-1.01 1.78-4.08993.22953-3.16993-1.73047 2.21-6.21 6.77953-11.55906 7.51954-18.28906 3.12-36.58 28.82007-66.67172 57.58007-87.26172 5.61-5.42 10.44965-11.83852 14.09965-18.72852-1.64-3.5-5.6593-6.06125-9.52933-5.78125-3.26 1.47-5.82 4.05125-8.75 6.03125 2.58-11.24-.77071-22.31031-4.47071-32.82031 5.05-.65 9.9811-1.84 14.8711-3.25.17 2.5.08047 5.01906.23046 7.53906 5.25998-1.99 11.26988-5.72007 16.83988-2.58007 5.89 3.50999 11.8002 10.68039 8.9902 17.90039-1.49 5.11-5.1915 9.47023-6.0215 14.74023 11.64 14.85 23.4417 29.75063 32.5117 46.39062 1.89-8.98-.8315-17.9814-.1015-26.9414.95-7.93 9.8611-8.98 16.2011-10 11.48.73 22.7388-3.55953 34.2188-1.76953 3.31 1.26 6.0502 4.6807 9.9902 3.4707 8.12-1.99 16.7406 1.5 24.3106-3-3.69 4.99-10.0106 7.04992-14.8906 10.66992-.79 12.83-1.8386 25.63992-3.2286 38.41992 5.7-4.36 9.0086-10.93109 11.8086-17.37109 3.15-9.19 1.6596-20.09984 7.3496-28.33984 4.98.74 10.1202 1.68093 14.6602 3.96093 2.24 3.05.9914 8.20891 4.4414 10.62891 2.12.27 4.2602.15125 6.4102.28125 2.52-.49 3.939 4.37945 6.289 1.93945 9.88-10.05 23.8796-15.30945 31.7696-27.43945 3.59-6.28 11.4111-8.79094 18.2011-6.71094-.18-2.1.9294-5.46992-1.8906-6.16992-7.68-1.08-15.9504-3.06023-23.1504 1.00977-5.8 3.59-12.0602-.34836-17.9902-1.31836-8.42-2.28-17.1789-2.00125-25.7989-1.53125-8.6.6-18.0306-.35985-24.8906-6.08985-1.97-1.19-4.1494-4.20968-6.6094-2.42968-5.21 2.9-11.76 4.83914-17.5 2.36914-7.07-2.89-13.1897-7.6886-20.2597-10.5586l.209.87891c.7 2.52 1.2693 5.08055 2.1093 7.56055 1.82-.59 3.6616-2.91063 5.6016-1.39063 4.77 2.77 9.7802 6.16047 11.4902 11.73047-3.99-2.18-7.1909-5.54086-11.2109-7.63086-2.85 1.42-5.1494 3.69008-7.8594 5.33008-2.2-6.12-3.3497-12.53977-5.1797-18.75977-4.75-1.91-6.1111-6.58015-3.9511-11.16015 3.93-9.78-2.2292-18.98899-5.8692-27.70899-2.09-4.01-4.6213-8.20101-8.6113-10.54101-6.94-1.81-14.0502-3.00938-20.9902-4.85938 3.48-12.55 9.3914-24.68055 10.2714-37.81054-7.99 4.55-16.2704 9.68968-21.4804 17.42968-1.53 7.4-3.9599 14.54094-6.3399 21.71094.04 13.22-8.0094 24.11078-17.4394 32.55078-3.61002 2.55-1.7508 7.3493-3.3008 10.7793-4.07 3.42-9.92008 4.59898-15.08008 3.70898-5.89-4.6-10.06992-11.0489-13.91992-17.3789-2.77-4.68-8.78031-4.53086-13.07031-6.88086-3.04-2.42-4.19891-6.34891-5.37891-9.87891 2.17 1.31 4.21938 2.80922 6.35938 4.19922-6.64-12.37-10.07071-26.23922-10.97071-40.19922 2.84 2.69 5.24071 5.78984 7.97071 8.58984-.43-3.91-1.09094-7.80023-1.21094-11.74023 15.42 16.35 31.40133 32.33047 49.11128 46.23047-2.55995-6.12-4.98964-12.30102-6.42964-18.79102-1.79-3.49-2.3718-7.37-2.5918-11.25-.01-4.18-4.84898-7.15898-3.45898-11.45898 2.89-11.57 11.64972-20.4307 15.25972-31.7207 5.8-17.93 12.0809-36.66954 25.1309-50.76954-2.9 6.66-6.7 12.88008-9.5 19.58008-4.31 8.98-4.4505 19.25-8.7305 28.25-2.62 8.82-8.6 16.16977-11.08 25.00977-1.95004 6.62 7.5994 5.16054 11.1894 8.06054 2.41-6.74 4.1705-13.76062 2.4805-20.89062.97-12.23 13.6904-17.56031 21.1504-25.57031 9.56-9.69 21.7401-19.03938 23.9101-33.35938-1.28-5.85-7.4714-.28976-10.9414-2.50976-1.18-6.07 4.6213-10.03149 7.6113-14.52149 4.45-6.51 10.7993-11.78883 14.0293-19.04883-12.79 2.55-25.0003 7.87055-37.0703 12.81055-8.35 2.6-14.9898 8.56899-22.8398 12.20899 3-6.03 8.7795-9.77055 13.2695-14.56055 11.47-13.1 26.4699-22.498361 39.6699-33.568361zm-147.46676 80.300781c1.74541.03115 2.99727.72031 1.97852 3.25781-5.46 1.3-11.04016 2.39008-16.66016 2.33008 2.6-3.6 7.35868-4.22945 11.38868-5.18945 1.02-.19875 2.24572-.41713 3.29296-.39844zm328.05076 67.04492c6.2678-.02783 12.5477.16016 18.8164.00391-.15 1.34-.3802 2.68023-.7402 3.99023-11.27-.86-22.7184-.17984-33.8184-2.83984 1.46-.31 2.9586-.55 4.4786-.75 3.7462-.2925 7.503-.3876 11.2636-.4043zm-330.62107 94.80078c1.91063-.11015 4.13586.41 3.31836 2.5625-3.94 8.15-5.86047 17.37086-4.48047 26.38086 2.42 17.26 4.10078 34.61953 5.05078 52.01953-.46 15.14-3.25976 30.06969-6.00976 44.92969-2.76 13.32-9.23016 26.14008-7.91016 40.08008 1.02 24.45-1.92008 48.83984-6.33008 72.83984-2.39.46-4.90031-.35937-6.57031-2.10937 1.58-18.25 4.36016-36.4407 5.66016-54.7207-1.43-14.35-.09149-29.03047 4.47851-42.73047 5.13-12.77 6.77024-26.66961 6.74024-40.34961.04-5.8 2.05-11.31047 3-16.98047 2.69-20.53-4.27852-40.57852-4.97852-60.97852 1.1-7.11 3.46961-14.08015 6.34961-20.66015.4425-.14 1.04477-.24649 1.68164-.28321zm70.36719 33.08204c-10.24 10.51-19.2393 22.26992-27.7793 34.16992 13.94-7.03 28.15016-13.8286 41.41016-22.0586-4.5-3.76-8.68086-10.61132-13.63086-12.11132zm-196.5586 2.90039c1.47001 8.25 4.36961 16.15117 6.59961 24.20117 1.69 11.42 12.41977 17.98937 20.75977 24.60937-2.34-12.46-5.03078-24.91054-6.05078-37.56054 7.02 1.63 13.93062 4.01093 20.39062 7.21093 2.64 1.07 2.85016 4.16836 3.41016 6.56836 2.73 15.42 6.11945 30.7218 10.18945 45.8418.63 2.2.09102 5.18891 2.54102 6.37891 4.44 2.61 7.12867 7.20953 11.38867 10.01953 8.38-16.02 16.76016-32.04844 25.91016-47.64844-6.48-1.6-12.18883-5.10086-18.29883-7.63086-25.41-11.13-50.78985-22.44023-76.83985-31.99023zm309.63868 83.48046c-1.19 1.6-3.0792 3.22899-2.4492 5.45899 1.19 6.91 4.1308 13.63148 3.5508 20.77148.03 3.8-6.8115 4.40993-5.0215 8.66992 5.47 16.82 10.7404 33.73891 15.1504 50.87891 2.26 8.2-.6693 16.46117-.7793 24.70117-.44 15.93 7.95 32.08024.5 47.49024 3.54 26.34 2.5687 53.05914-.7813 79.36914-3.89 12.94 5.6614 24.64992 15.1914 32.16992 1.75-10.24 1.9996-20.68047 3.3496-30.98047-1.37-3.98-5.0607-6.93976-5.8007-11.25976-.31-5.45 5.0704-9.52993 5.9804-14.41993-5.07-7.13-.1408-15.13968 3.3692-21.67968 8.29-13.69 14.4615-28.49 21.1015-43 2.45-4.15-.7707-9.32047 2.2793-13.23047 12.89 1.98 8.5099 20.42945 19.1699 25.43945 4.37.83 8.9497.73156 13.3497.10156 4.97-1.93.5397-7.90148 1.5097-11.77148 9.61 3.34 19.0311 7.39055 27.3711 13.31055 6.6 4.1 10.8602 10.83976 16.9902 15.50976 8.16-2.32 16.3604-4.53023 24.4004-7.24023-.88-2.96-3.5913-4.82852-5.3613-7.22852-10.68-12.01-21.0587-24.29039-32.1387-35.90039-4.62-6.92-11.9903-11.36133-16.8203-18.11133-4.07-5.76-9.7398-10.05984-14.5898-15.08984-11.07-12.04-22.6913-23.64953-34.8613-34.51953-2.01-5.16-.1998-11.25883-2.7598-16.29883-3.89-4.19-8.6489-7.4918-12.6289-11.5918-3.49-2.86-5.561-7.22906-9.461-9.53906-7.92-2.62-16.4193-2.24969-24.6093-3.17969-.45-6.59-1.1012-13.35008-5.2012-18.83008zm-246.47852 17.16016c-5.9 4.48-5.79078 12.06938-2.55078 18.10938-11.82 3.58-24.07992 5.6096-36.41992 6.09961-8.71 1.45-14.09985 9.38125-21.08985 14.03124-5.7 4.34-13.76109 8.85008-13.37109 17.08008-.65 10.15-8.92828 17.31985-16.23828 23.33985-57.2 51.84-114.58141 103.55867-170.44141 156.63867 12.27.04 24.54055.48008 36.81055.33008 6.74-1.76 15.24047 2.05078 20.23047-4.19922 22.49-16.39 46.32008-30.85914 69.08008-46.86914 1.65-1.13 3.56906-1.7618 5.53906-2.0918.3 5.94-3.88008 12.99016-.58008 18.16016 7.86-1.57 15.86953-.5093 23.76953-1.2793 8.16-3.33 11.94071-11.97992 16.47071-18.91992 3.61-5.28 5.5196-11.51102 9.09961-16.79102 6.42-6.84 16.59117-6.47 24.70117-10 4.6-1.74 4.78945-7.22867 6.43945-11.13867 3.83 7.37 7.14984 14.92945 9.33984 22.93945 10.3 1.81 16.73047 13.21016 14.23047 23.16016-1.32 6.52.15891 13.12937 2.12891 19.35938 5.29 19.24999 10.06047 38.65046 14.98047 57.98046l.7207.34961c2.38-11.83 1.70977-24.05023 3.25977-35.99023.44-19.97 3.02976-39.92844 2.00976-59.89844-6.78-17.95.94086-36.71133-.11914-55.11133.31-7.85-7.28148-14.14914-5.27148-22.11914 4.61-18.17 9.4314-36.29125 14.6914-54.28125 1.69-4.64-2.20062-8.05945-4.89062-11.18945-2.21-9.19 6.7407-20.78922-2.5293-27.69922zm204.19532 11.52344c3.1961-.09147 6.4616.82976 9.0547 2.55664 4.68 6.9 4.0084 16.18984.8984 23.58984-7.95 9.04-17.1186 17.42922-28.0586 22.69922-4.58 2.37-10.1001.93985-14.6601 3.33985-10.69 5.35999-22.28089 10.22054-34.38089 10.31054-4.74.09-5.15945-5.39969-7.93945-7.92969-1.51 3.78-.59954 10.84946-6.26954 10.93946-9.03999.11-17.42999-4.33039-25.25-8.40039-3.19-1.35-2.64039-5.20938-1.65039-7.85938 8.84 4.51 18.09016 9.23938 28.16016 9.85938.97-5.97-.19133-13.33938-6.11133-16.35938-9-5.29-17.82953-11.45945-28.01953-14.18945-.12.86-.38 2.58922-.5 3.44922 1.88 11.35 4.14141 22.63117 6.19141 33.95117 1.01 3.72-3.66117 4.88984-6.45117 4.83984-3.74-21.49-6.42961-43.18164-8.09961-64.93164-.59-2.5 1.25914-4.55976 3.61914-5.00976.96 4.34 1.30093 8.7914 1.96093 13.1914 13.28 8.31 28.40985 14.2386 39.33985 25.8086 2.82-1.89 3.55976-6.44875 7.25976-7.46875 11.64-3.18 23.75936-4.91102 35.10936-9.04102 9.58-7.06 18.9006-14.54922 28.8106-21.19922 2.0562-1.39125 4.5005-2.07534 6.9863-2.14648zm4.9531 6.73633c-6.91 4.58-12.919 10.61023-18.789 16.49023-4.71 4.6-6.9293 11.39891-5.5293 17.87891 14.03-.58 24.0885-13.74899 27.9785-25.95899-1.16-2.62-.7502-7.85015-3.6602-8.41015zm-38.2988 20.84961c-.38.11-1.151.34117-1.541.45117-6.38 3.03-13.4085 4.13851-20.22854 5.72851-6.56 1.42-14.25016 1.25086-19.41016 6.13086 1.57 6.07 3.67844 12.6593 8.39844 17.0293 9.88 1.11 19.06136-4.34898 28.61136-6.20899 3.03-1.36999 9.9404-.78999 8.4004-5.75-1.11-5.85-1.8305-11.90085-4.2305-17.38085zm225.584 125.06054c-7.0838.0175-14.1689.48055-21.1739 1.31055-3.34 2.26-4.9408 7.2182-1.1308 9.9082 8.54.92 17.8997.03164 25.6797 4.18164 4.07 4.57 7.3207 10.08875 9.7207 15.71875-7.06 10.01-8.0203 22.32969-6.5703 34.17969 6.59-7.59 7.0699-18.93953 13.6699-26.26953 10.07-7.72 4.3511-21.67008 5.8711-32.33008-1.14-2.16-3.0704-3.79984-4.9004-5.33984-7-.95-14.0823-1.37688-21.166-1.35938zm31.6054 12.10938c-.97 8.3-.1703 17.12008-3.9003 24.83008 5.09 1.74 10.7307 1.95015 15.4707 4.66015 2.59 1.1 1.2799 5.6093 4.4199 5.7793 6.71 1 13.4499 1.85078 20.1699 2.80078-.44-3.35-3.8002-5.06984-5.9102-7.33984-10.9-9.49-18.88-21.73047-30.25-30.73047zm-235.2304 53.5c-4.7 10.1-5.7889 21.58961-6.1289 32.59961 2.49 20.69 4.029 41.61023 8.459 61.99023 3.52 7.84 5.6203 16.22016 8.9003 24.16016 5.52-11.57 9.9911-23.81914 12.6211-36.36914.12-12.86-1.8714-25.68047-3.0214-38.48047.29-7.12-9.5603-6.46024-11.4903-12.49024-3.81-10.24-6.1198-20.98015-9.3398-31.41015zm-382.73831 9.79883c-.15027-.01015-.32109-.00352-.51171.02148-2.12 1.5-4.32876 3.02008-6.96876 3.33008-29.55 4.53-59.0907 9.2307-88.4707 14.7207-5.59.27-8.24945 5.63828-11.93945 8.98828 1.1 9.59 2.98992 19.07125 4.91992 28.53125.88 3.59 1.30914 8.22992 5.36914 9.66992 13.89 5.8 24.25969 17.17891 34.67969 27.62891 3.86-8.48 1.42062-18.15844 2.14062-27.14844 1.53-6.87-11.29023-3.78039-9.74023-10.40039 6.41-8.29 10.88953-18.15109 18.26953-25.62109 13.78-7.91 29.99164-9.88992 45.43164-12.41992 5.43-.85 4.87906-7.71946 6.78906-11.68946.20625-1.55625 2.28539-5.45913.03125-5.61132zm-120.09179 37.93164c-26.06 21.08-50.86961 43.75929-75.84961 66.02929-4.69 5.36-11.53961 8.61-15.09961 15 21.26-7.77 42.10055-17.31984 63.81054-24.08984 3.74-.65 3.00993-5.49867 5.91993-7.13867 8.06-4.97 16.36-9.56102 24.25-14.79102 1.55-1.21 3.65961-2.22031 4.09961-4.32031-2.65-10.17-5.13086-20.37945-7.13086-30.68945zm335.9707 14.11914c-1.47.9-2.09039 2.60062-2.65039 4.14062-3.26 10.5-5.3493 21.44945-9.2793 31.68946-10.91 11.73-21.33937 25.85109-21.35937 42.62109.28 9.59-1.06172 19.75953 2.98828 28.76953 9.2-12.19 17.34094-25.16016 26.46094-37.41016 3.51-4.17 3.4489-9.82921 4.1289-14.94922 1.55-12.32 3.30149-24.61992 5.02149-36.91992.08-2.05 1.47937-3.50007 2.85937-4.83008-4.91-2.59999-8.78992-7.22132-8.16992-13.11132zm36.73047 4.48047c-3.55 4.45-8.73008 7.33007-12.33008 11.58007-1.77 14.12-1.53945 28.44016-2.18945 42.66016-.7 7.8 3.42836 14.75016 5.81836 21.91016 3.37 8.48 6.13086 17.2407 10.13086 25.4707 4.52-8.49 6.59031-18.14133 7.82031-27.61133.3-6.56.39047-13.15961-1.01953-19.59961-.75-8.33-7.39094-14.78086-7.96094-23.13086-.23-10.43.42047-20.86929-.26953-31.27929zm-23.90039 10.12109l-1.7207.39844c-1.76 12.23-2.32001 24.63992-3.75 36.91992-.79 5.65-.22001 11.83015-3.25 16.91016-6.19 10.1-13.50032 19.44124-20.07032 29.28124 1.07 3.18 2.56024 6.29899 2.74024 9.70899.74 27.98-.74977 55.97117.24023 83.95117.69 5.66-7.56984 8.52852-5.58984 14.47852 1.71 4.66 1.68101 9.58992.79101 14.41992.39 6.37.89883 12.74156 1.54883 19.10156.12 4.85 4.80969 7.39882 8.17969 10.04882 3.62 2.66 8.73 5.53 13 2.5-4.6-8.33999-6.29836-18.07929-5.81836-27.52929-.96-4.7-2.48149-9.91961 1.97852-13.34961-1.58-7.37-5.29024-15.03078-2.99024-22.80078-.31-8.49 1.57024-16.81969 2.74024-25.17969 5.95999-22.19 12.50015-44.22937 18.66015-66.35937.58-3.2 3.89102-4.22094 6.29102-5.71094-2.22-7.37-6.96071-13.64984-9.47071-20.83984-1.33-18.4 2.40961-36.77063 2.34961-55.14063-3.02 15.11-2.29008 30.85008-4.83007 46.08008.06999 3.23-6.90024 2.85953-5.49024-.73047 1.8-15.34 3.94094-30.6982 4.46094-46.1582z" fill="#0d191c"/>
    <path id="color3" d="m952.94922 218.75c.12 3.94.78094 7.83023 1.21094 11.74023-2.73-2.8-5.13071-5.89984-7.97071-8.58984.9 13.96 4.33071 27.82922 10.97071 40.19922-2.14-1.39-4.18938-2.88922-6.35938-4.19922 1.18 3.53 2.33891 7.45891 5.37891 9.87891 4.29 2.35 10.30031 2.20086 13.07031 6.88086 3.85 6.33 8.02992 12.7789 13.91992 17.3789 5.16.89 11.01008-.28898 15.08008-3.70898 1.55-3.43-.30922-8.2293 3.3008-10.7793 9.43-8.44 17.4794-19.33078 17.4394-32.55078-6.11 5.83-16.7693 6.76945-23.35934 1.18945 1.44 6.49 3.86969 12.67102 6.42964 18.79102-17.70995-13.9-33.69128-29.88047-49.11128-46.23047zm45.96094 74.40039c-4.89 1.41-9.8211 2.6-14.8711 3.25 3.7 10.51 7.05071 21.58031 4.47071 32.82031 2.93-1.98 5.49-4.56125 8.75-6.03125 3.87003-.28 7.88933 2.28125 9.52933 5.78125-3.65 6.89-8.48965 13.30852-14.09965 18.72852-28.76 20.59-54.46007 50.68172-57.58007 87.26172-.74 6.73-5.30954 12.07906-7.51954 18.28906-.92 1.96 2.15993 3.51047 3.16993 1.73047 2.76-4.75 5.18093-9.70008 7.71093-14.58008 3.36-6.12-.45125-13.27031 2.21875-19.57031 2.76-7.52 5.48008-15.22938 10.08008-21.85938 1.68 10.9 4.74031 21.49907 7.82031 32.03907-2.2 9.24-6.84992 17.77937-9.66992 26.85937-.54 1.82.94938 3.3818 1.35938 5.0918-1.24 2.07-4.86938 3.70937-2.60938 6.35937 3 4.19-7.47906 7.20024-2.78906 10.74024 8.87 7.04 18.57937 14.21914 30.10937 15.86914 3.54.29 3.29 5.63086 6 6.63086 12.01-1.86 23.85897-5.14094 35.20897-9.46094 3-.64 1.3803-4.80891 3.9903-5.87891 6.44-3.19 12.5601-7.42086 16.4101-13.63086 4.17-5.18.2607-12.04-2.7793-16.75-3.84 1.36-6.5206 7.90961-11.1406 4.59961-3.36-5.4-5.7206-11.44023-8.3106-17.24023 5.66-3.78 12.5908-6.09945 17.0508-11.43945 0-5.34-.9994-10.7493.3106-16.0293 3.1-12.16 4.1489-24.84984 3.8789-37.33985-4.37-5.36999-11.1297-7.73156-17.1797-10.60156 5.34-7.64 7.8707-16.6582 5.7207-25.9082 7.19 7.94 13.03 17.00875 19.25 25.71875 10.81 14.13 8.4989 32.94031 10.8789 49.57031 2.07-1.1 4.6209-2.55047 4.6309-5.23047.36-9.07-1.9003-17.98882-3.7403-26.79883-1.13-3.05-2.399-6.02999-3.709-9-9.07-16.63999-20.8717-31.54062-32.5117-46.39062.83-5.27 4.5315-9.63023 6.0215-14.74023 2.81-7.22-3.1002-14.3904-8.9902-17.90039-5.57-3.14-11.5799.59007-16.83988 2.58007-.15-2.52-.06046-5.03906-.23046-7.53906zm78.36914 4.59961c-.4152-.01534-.8552.0432-1.3184.18945 1.83 6.22 2.9797 12.63977 5.1797 18.75977 2.71-1.64 5.0094-3.91008 7.8594-5.33008 4.02 2.09 7.2209 5.45086 11.2109 7.63086-1.71-5.57-6.7202-8.96047-11.4902-11.73047-1.94-1.52-3.7816.80063-5.6016 1.39063-.84-2.48-1.4093-5.04055-2.1093-7.56055-.6094-1.82-1.9312-3.28315-3.7305-3.34961zm-164.19727 27.27734c-.63687.03672-1.23914.14321-1.68164.28321-2.88 6.58-5.24961 13.55015-6.34961 20.66015.7 20.4 7.66852 40.44852 4.97852 60.97852-.95 5.67-2.96 11.18047-3 16.98047.03 13.68-1.61024 27.57961-6.74024 40.34961-4.57 13.7-5.90851 28.38047-4.47851 42.73047-1.3 18.28-4.08016 36.4707-5.66016 54.7207 1.67 1.75 4.18031 2.56937 6.57031 2.10937 4.41-24 7.35008-48.38984 6.33008-72.83984-1.32-13.94 5.15016-26.76008 7.91016-40.08008 2.75-14.86 5.54976-29.78969 6.00976-44.92969-.95-17.4-2.63078-34.75953-5.05078-52.01953-1.38-9.01.54047-18.23086 4.48047-26.38086.8175-2.1525-1.40773-2.67265-3.31836-2.5625zm208.10747 24.54297c-6.62 2.76-11.4286 8.38961-17.3086 12.34961-.93 17.18-2.8607 34.2907-3.6407 51.4707 7.49-7.23 12.7207-16.36039 17.7207-25.40039 1.39-12.78 2.4386-25.58992 3.2286-38.41992zm-137.74028 8.53907c4.95 1.5 9.13086 8.35132 13.63086 12.11132-13.26 8.23-27.47016 15.0286-41.41016 22.0586 8.54-11.9 17.5393-23.65993 27.7793-34.16992zm-175.25 14.15039c1.02 12.65 3.71078 25.10054 6.05078 37.56054 1.28 3.99 5.48992 5.86953 8.41992 8.51953 6.74 4.99 12.70945 11.01039 19.68946 15.65039-.04-.53-.12993-1.57937-.16993-2.10937-4.07-15.12-7.45945-30.4218-10.18945-45.8418-.56-2.4-.77016-5.49836-3.41016-6.56836-6.46-3.2-13.37062-5.58093-20.39062-7.21093zm257.80078 15.39062c10.59 48.24 23.2901 96.06899 35.3301 143.95899-.3 14.48.5797 28.99015 2.1797 43.41015 1.1 9.17 1.4507 18.51141 3.9707 27.44141 7.45-15.41-.94-31.56024-.5-47.49024.11-8.24 3.0393-16.50117.7793-24.70117-4.41-17.14-9.6804-34.05891-15.1504-50.87891-1.79-4.26 5.0515-4.86992 5.0215-8.66992.58-7.14-2.3608-13.86148-3.5508-20.77148-.63-2.23 1.2592-3.85899 2.4492-5.45899-1.16-5.95-5.2602-10.68109-7.6602-16.12109-7.76-13.49-14.1891-27.79875-22.8691-40.71875zm-179.20117 6.0957c-1.28488-.16652-3.75453 5.16977-4.76953 6.88477-9.15 15.6-17.53016 31.62844-25.91016 47.64844-2 4.44-4.96836 8.60109-6.06836 13.37109 9.27 6.91.3193 18.50922 2.5293 27.69922 2.69 3.13 6.58062 6.54945 4.89062 11.18945-5.26 17.99-10.0814 36.11125-14.6914 54.28125-2.01 7.97 5.58148 14.26914 5.27148 22.11914 1.06 18.4-6.66086 37.16133.11914 55.11133 1.5-.75 1.43102-2.67008 1.79102-4.08008 1.14-9.71 2.25984-19.42015 3.08984-29.16015.14-8.53 2.06-17.01149 1.5-25.52149-2.51-7.05-5.33055-14.47836-3.31055-22.06836 12.59-52.21 24.6693-104.55101 36.0293-157.04101-.1275-.275-.28715-.40981-.4707-.4336zm47.98047 80.28321c-2.36.45-4.20914 2.50976-3.61914 5.00976 1.67 21.75 4.35961 43.44164 8.09961 64.93164 2.79.05 7.46117-1.11984 6.45117-4.83984-2.05-11.32-4.31141-22.60117-6.19141-33.95117-1.01-5.98-1.9493-11.95899-2.7793-17.95899-.66-4.4-1.00093-8.8514-1.96093-13.1914zm122.0801 59.39062c-17.66 10.31-38.2303 15.9393-58.74026 14.5293.49 8.86 2.63146 17.51984 4.77146 26.08984 7.57 25.97 16.9503 51.36016 26.4903 76.66016 5.52 13.2 11.2385 26.49047 13.4785 40.73047 3.22 10.43 5.5298 21.17015 9.3398 31.41015 1.93 6.03 11.7803 5.37024 11.4903 12.49024 1.15 12.8 3.1414 25.62047 3.0214 38.48047-2.63 12.55-7.1011 24.79914-12.6211 36.36914-3.28-7.94-5.3803-16.32016-8.9003-24.16016.06 12.77 4.3396 25.32094 10.8496 36.21094 5.85-11.66 10.0114-24.09055 14.5214-36.31055 1.11-3.56 2.4894-7.13969 2.3594-10.92969-.69-14.47-3.7697-28.69-5.7597-43l2.6796-.04101c1.58 13.05 2.8198 26.28117 6.5098 38.95117 1.64-.23 5.1708-.16945 4.3008-2.68945-2.13-12.63-3.7797-25.7318-7.4297-37.8418 4.89-4.76 9.5791-10.43875 10.3691-17.46875-.96-6.4-4.1394-12.22078-6.1894-18.30078-2.64-6.61-6.4301-12.81016-8.3301-19.66016-1.23-17.81-1.1708-35.69023-2.5508-53.49023-1.42-13.12-3.0597-26.20938-4.1797-39.35938-.89-9.57-2.0002-19.11968-2.9902-28.67968-1.11-6.63-1.3702-13.37024-2.4902-19.99024zm-128.05862 20.00977c-8.73 2.49-10.72078 13.78039-8.80078 21.65039 3.91 8.43 7.26969 17.45039 6.92969 26.90039-.29 6.53-.28024 13.32859 2.75976 19.30859 2.27 3.47-.36929 8.20047 2.72071 11.23047 3.81 4.62 6.90929 9.90141 8.52929 15.69141 1.65 5.28-4.26007 9.42843-3.08007 14.64844.36 2.51 3.07023 3.16062 4.99023 4.14062 7.17-25.69 15.68055-50.98086 23.81055-76.38086 3.44-11.92 6.00906-24.0882 7.53906-36.4082-14.89 3.26-30.93844 5.31875-45.39844-.78125zm328.86722 60.68554c-.8676-.04931-1.8571.44532-2.7071.66407-8.04 2.71-16.2404 4.92023-24.4004 7.24023-1.96 1.27-4.97 2.57133-5.25 5.11133 14.01-1.66 28.3399-1.85117 42.3399.04883-1.07-5.03-5.2713-8.57899-8.6113-12.20899-.375-.6-.8506-.82588-1.3711-.85547zm-354.47855 16.625c-1.64 8.15-2.42023 16.46008-4.24023 24.58008 2.59 4.91 9.79015 6.24055 13.91016 2.56055 2.43-3.83 5.22093-9.25094 1.46093-13.21094-3.87-4.43-5.24086-11.81969-11.13086-13.92969zm369.36135 1.7793c-1.52 10.66 4.1989 24.61008-5.8711 32.33008 2.16 3.25 5.9498.18016 7.5098-2.08984 3.73-7.71 2.9303-16.53008 3.9003-24.83008 1.08-3.5-2.669-5.25016-5.539-5.41016zm-374.11135 47.90039c-1.97 12.77-1.53859 26.19047-6.80859 38.23047-4.64 11.79-9.54086 23.50891-15.63086 34.62891-.62 5.89 3.25992 10.51132 8.16992 13.11132-1.38 1.33-2.77937 2.78008-2.85937 4.83008-1.72 12.3-3.47149 24.59992-5.02149 36.91992-.68 5.12-.6189 10.77922-4.1289 14.94922-9.12 12.25-17.26094 25.22016-26.46094 37.41016-4.05-9.01-2.70828-19.17953-2.98828-28.76953-2.57 12.45-3.69024 26.52992 2.50976 38.16992 5.85-5.26 9.72836-12.48977 14.81836-18.50977 6.57-9.83999 13.88031-19.18124 20.07032-29.28124 3.02999-5.08 2.46-11.26016 3.25-16.91016 1.42999-12.28 1.99-24.68992 3.75-36.91992l1.7207-.39844c-.52 15.46-2.66094 30.8182-4.46094 46.1582-1.41 3.59 5.56024 3.96047 5.49024.73047 2.53999-15.23 1.81007-30.97008 4.83007-46.08008.06 18.37-3.67961 36.74063-2.34961 55.14063 2.51 7.19 7.25071 13.46984 9.47071 20.83984 4.17 9.98 7.03906 20.42094 10.28906 30.71094 6.2-11.21 8.86016-24.1307 10.66016-36.7207.1-2.3 1.1107-5.07063-.7793-6.89063-1.23 9.47-3.30031 19.12133-7.82031 27.61133-4-8.23-6.76086-16.9907-10.13086-25.4707-2.39-7.16-6.51836-14.11016-5.81836-21.91016.65-14.22.41945-28.54016 2.18945-42.66016 3.6-4.25 8.78008-7.13007 12.33008-11.58007.54-5.55-3.62008-11.75914.16992-16.86915 4.8-7.22 7.37031-15.63054 9.07031-24.06054 1.49-7.4 5.74024-13.77102 8.24024-20.79102-8.7-.33-17.43133.39149-26.11133-.22851-1.94-3.35.05023-7.03149.24023-10.52149-.88-2.56-3.83039-3.48914-5.90039-4.86914zm-308.5 16.5293c-9.39 4.26-17.20992 11.33055-24.91992 18.06055-1.39 1.42-5.40961 5.49101-.84961 4.29101 29.38-5.49 58.92071-10.1907 88.4707-14.7207 2.64-.31 4.84875-1.83008 6.96876-3.33008-.47-1.29-.83868-3.53062-2.63868-3.39062-10.07-.53-20.1707.27992-30.2207-.58008-12.27.15-24.54055-.29008-36.81055-.33008zm487.63085 30.90039c-2.38 3.29-.7294 7.45133-.4394 11.11133 1.88 11.32 3.1198 22.80843 6.0898 33.89844 4.81 9.3 13.1 16.18085 19.75 24.13085 4.87 5.1 9.3685 10.67047 14.9785 14.98047 1.99-3.97 3.4313-8.80093 2.2813-13.21093-.64 2.27-1.3107 4.55023-2.2207 6.74023-7.41-6.41-13.5503-14.12977-20.2403-21.25977-3.6-4.39-8.1903-8.13085-10.5703-13.38085-5.1-13.86001-7.0589-28.55977-9.6289-43.00977zm-525.33983.43945c-4.95 2.36-8.36117 7.0711-12.20117 10.8711 2 10.31 4.48086 20.51945 7.13086 30.68945.26 1.91 2.0389 2.7707 3.6289 3.4707 19.33 7.9 31.87117 25.48047 48.20117 37.73047.3-5.61.89899-11.81164-1.79101-16.93164-10.42-10.45-20.78969-21.82891-34.67969-27.62891-4.06-1.44-4.48914-6.07992-5.36914-9.66992-1.93-9.46-3.81992-18.94125-4.91992-28.53125zm543.01953 197.36133c-.93 6.32-.5003 12.85055.9297 19.06055 2.4 4.4 8.9098 6.0089 13.0898 3.1289-4.68-7.39-9.3795-14.76945-14.0195-22.18945zm-237.0293 48.29883c-4.37.28-6.74992 5.10101-6.41992 9.04101 1.52 14.64 6.1993 28.69007 9.0293 43.08007 2.29 8.58 11.97062 16.54 20.89062 11.75 5.07-1.59 2.24891-7.3796 3.12891-11.0996 2.84-8.54 5.00992-18.0216 2.16992-26.85156-2.13 1.79996-3.77031 4.12046-6.07031 5.73046-4.27 3.03-9.38.16-13-2.5-3.37-2.65-8.05969-5.19882-8.17969-10.04882-.65-6.36-1.15883-12.73156-1.54883-19.10156z" fill="#f3ead9"/>
    <path id="color4" d="m1238.7598 258.38867c-.1988.00848-.4013.02742-.6094.06055-18.59 7.38-35.7713 17.82164-53.1113 27.68164-14.01 7.02-27.3986 16.72883-34.9786 30.79883 8.62-.47 17.3789-.74875 25.7989 1.53125-.33-5.54 4.6205-8.73117 9.0605-10.70117 10.76-4.92 20.951-10.93954 31.211-16.76954 2.8-1.91 7.1189-.61929 8.4589 2.47071 3.46 7.76 4.8109 16.79906 10.6309 23.28906 4.23 4.63 12.6193-1.02094 16.0293 4.28906-1.9 6.31-4.9902 12.94164-10.1602 17.18164-9.42 3.4-19.4092-4.63125-22.1992-13.28125-6.79-2.08-14.6111.43094-18.2011 6.71094-7.89 12.13-21.8896 17.38945-31.7696 27.43945-2.35 2.44-3.769-2.42945-6.289-1.93945-3.92 9.83-10.3716 18.55-13.6016 28.75-3.17 6.79.0098 14.73008-3.7402 21.33008-2.04 3.65 2.5406 6.88867 1.8906 10.63867-1.25 7.67-6.1788 14.2107-7.2188 21.9707-1.72 9.28 1.9684 18.29047 3.8184 27.23047-1.83 3.61-5.2885 6.03875-7.9785 8.96875 3.98 4.1 8.7389 7.4018 12.6289 11.5918 2.56 5.04.7498 11.13883 2.7598 16.29883 12.17 10.87 23.7913 22.47953 34.8613 34.51953 3.08-6.67 8.789-11.44969 13.459-16.92969 1.63-6.56-5.5407-11.08976-4.9707-17.50976-.11-4.14 1.7804-8.01907 4.1504-11.28907 4.29-5.64 12.9414-5.08093 17.0214-10.96093 2.59-3.24 2.5392-7.55891 3.6192-11.37891 3.16-2.51 8.1108-2.99078 9.8808-7.05078 8.82-19.6 17.0284-39.50055 24.0684-59.81055 1.86-5.63-2.1898-11.30914-.7598-16.86914 4.18-8.73 8.6912-17.33102 12.9512-26.04101 1.96-4.24 6.2791-7.5886 6.2891-12.5586-.68-5.49-7.4505-8.99047-5.9805-14.98047 2.42-8.14 6.8205-15.54054 9.5605-23.56054 1.3-3.28-.5793-8.03024-4.5293-7.99024-4.19-.58-10.2707.63055-12.0507-4.43945-4.91-11.12-10.2393-22.08-14.4493-33.5-.6468-2.75625-2.5693-5.31852-5.5507-5.19141zm-184.5137 214.78516c-2.4858.07114-4.9301.75523-6.9863 2.14648-9.91 6.65-19.2306 14.13922-28.8106 21.19922-11.35 4.13-23.46936 5.86102-35.10936 9.04102-3.7 1.02-4.43976 5.57875-7.25976 7.46875-10.93-11.57-26.05985-17.4986-39.33985-25.8086.83 6 1.7693 11.97899 2.7793 17.95899.12-.86.38-2.58922.5-3.44922 10.19 2.73 19.01953 8.89945 28.01953 14.18945 5.92 3.02 7.08133 10.38938 6.11133 16.35938-10.07-.62-19.32016-5.34938-28.16016-9.85938-.99 2.65-1.53961 6.50938 1.65039 7.85938 7.82001 4.07 16.21001 8.51039 25.25 8.40039 5.67001-.09 4.75954-7.15946 6.26954-10.93946 2.78 2.53 3.19945 8.01969 7.93945 7.92969 12.1-.09 23.69089-4.95054 34.38089-10.31054 4.56-2.40001 10.0801-.96985 14.6601-3.33985 10.94-5.27 20.1086-13.65922 28.0586-22.69922 3.11-7.4 3.7816-16.68984-.8984-23.58984-2.5931-1.72688-5.8586-2.64811-9.0547-2.55664zm4.9531 6.73633c2.91.56 2.5002 5.79015 3.6602 8.41015-3.89 12.21-13.9485 25.37899-27.9785 25.95899-1.4-6.48.8193-13.27891 5.5293-17.87891 5.87-5.88 11.879-11.91023 18.789-16.49023zm-38.2988 20.84961c2.4 5.48 3.1205 11.53085 4.2305 17.38085 1.54 4.96001-5.3704 4.38-8.4004 5.75-9.55 1.86-18.73136 7.31899-28.61136 6.20899-4.72-4.37-6.82844-10.9593-8.39844-17.0293 5.16-4.88 12.85016-4.71086 19.41016-6.13086 6.82004-1.59 13.84854-2.69851 20.22854-5.72851.39-.11 1.161-.34117 1.541-.45117zm56.3594 59.90039c-4.37 7.55-9.65 14.49968-14.92 21.42968 1.12 13.15 2.7597 26.23938 4.1797 39.35938 1.38 17.8 1.3208 35.68023 2.5508 53.49023 1.9 6.85 5.6901 13.05016 8.3301 19.66016 3.65-.05 3.6798 5.15961 5.3398 7.59961 3.69-7.05 6.6597-14.56828 11.4297-20.98828 3.45-3.58 8.5793-.34086 12.5293.61914 3.35-26.31 4.3213-53.02914.7813-79.36914-2.52-8.93-2.8707-18.27141-3.9707-27.44141-.34.5-1.0194 1.48047-1.3594 1.98047-8.53-5.06-16.9806-10.33984-24.8906-16.33984zm-47.8789 90.03906c-12.92 19.62-24.9403 39.85984-35.99028 60.58984-2.72999 5.31-9.59 4.86141-14.5 6.69141 24.99998 38.82 49.75898 77.82992 73.95898 117.16992 6.38-9.24 11.5307-19.24086 17.2207-28.88086 2.19.84 4.1902 2.10086 6.1602 3.38086-2.11-7.85-4.55-15.66047-5.67-23.73047-4.51 12.22-8.6714 24.65055-14.5214 36.31055-6.51-10.89-10.7896-23.44094-10.8496-36.21094-4.43-20.38-5.969-41.30023-8.459-61.99023.34-11.01 1.4289-22.49961 6.1289-32.59961-2.24-14.24-7.9585-27.53047-13.4785-40.73047zm-53.99028 86.10156c-1.61999 6.59-1.38117 13.51977-3.45117 20.00977-3.49-1.09-6.57968-3.08024-9.92968-4.49024 1.67 7.58 6.25046 14.46985 12.48046 19.08985 11 7.01 22.51 13.39078 34.49997 18.55078-11.06997-17.8-22.92958-35.12016-33.59958-53.16016zm39.71878 62.20899c-20.81002 31.8-38.90846 65.81945-48.89846 102.68945 28.79-14.19 57.32976-31.18899 78.50976-55.70899-10.21-15.43-20.2413-31.02046-29.6113-46.98046z" fill="#2c2f30"/>
  </g>
</svg>
