<svg height="1080" width="1920" xmlns="http://www.w3.org/2000/svg">
  <path id="background" d="m0 0h1920v1080h-1920z" fill="#98d4d3"/>
  <g id="transform" transform="translate(0,0) scale(1.00)">
    <path id="color1" d="m1510.56 85.738c-7.25.02-12.48 6.242-18.49 9.462-5.86-3.45-11.69-8.41-19.08-6.841 1.22 2.091 2.79 3.991 4.69 5.511.98.82 1.96 1.65 2.91 2.53-15.94 6.85-28.24 20.741-34.43 36.79-2.53 6.12.49 12.52.3 18.8-.1 10.351-.22 20.71.69 31.03.77 8.48-4.03 15.91-5.38 24.039 5.47-2.329 10.15-6.129 14.25-10.4 8.42-17.509 8.5-38.219 19.31-54.839 3.84 9.87 6.76 20.08 10.88 29.86 1.99 4.29 2.12 9.06 2.22 13.72 2.1-2.94 3.59-6.239 5.29-9.41 1.72 4.56 2.35 9.41 3.18 14.19 10.04-12.6 8.3-29.799 12.09-44.639 9.84 9.089 14.57 21.929 20.54 33.579.75-5.07.98-10.21 1.82-15.27 5.84 9.26 10.51 19.29 13.86 29.72.92 4.67 5.56 15.191-1.99 15.471-.26.56-.77 1.689-1.02 2.249-.19 4.971-4.18 8.17-7.46 11.34.73 2.21 1.46 4.43 2.23 6.65 3.44-1.05 6.89-2.07 10.31-3.221 5.1-7.389 9.55-15.289 13.38-23.409-.64-1.89-1.44-3.71-2.24-5.52-1.18 2.42-2.56 4.74-4.09 6.95 2.01-11.95 1.31-24.03.52-36.05 3.77.31 7.5 1.04 11.3 1.04-3.29-4.83-8.51-7.629-12.78-11.38-2.74-9.509-5-19.211-9.13-28.28 3.97-.28 7.96 0 11.94-.369-4.43-10.791-13.93-18.341-22.86-25.341-8.56-6.54-19.39-8.19-29.81-9.11 1.86-1.34 4.11-1.789 6.39-1.749-6.55-1 1.35-5.131 3.9-6.7-1.13-.279-2.2-.405-3.24-.403zm-66.55 10.572c-12.85 1.22-22.51 11.02-29.96 20.731-6.09 6.809-8.39 16.529-15.77 22.218-26.49 16.171-44.68 42.551-59.3 69.291 2.48-.87 5.59-3.08 7.55-.1 3.3 5.49 3.08 12.84 8.07 17.44 5-16.06 8.3-33.54 18.47-47.26-1.73 9.61-5.55 18.73-7.79 28.24 2.21-2.45 4.24-5.11 6.8-7.22-.32 8.45-1.47 16.94-.22 25.391 1.21 6.969-1.29 15.349 4.02 21.059 7.8 7.71 17.73 12.88 28.02 16.45-5.32-9.34-11.29-19.34-10.24-30.54.88-7.5 1.1-15.23 3.33-22.49 4.97 4.98 7.54 11.77 11.84 17.3-1.14-13.39-2.27-26.89-1.83-40.32 4.66 3.75 7.36 9.28 11.68 13.37-1.38-8.23-.89-16.609-1.98-24.88 1.15-9.3.17-19.53 5.58-27.71 6.01-7.67 13.77-13.959 22.71-17.89 2.88-8.26 8.03-15.48 14.03-21.76-3.57-5.1-8.57-10.42-15.01-11.32zm130.99.1c-9.49.09-18.3 4.832-25.88 10.223 9.24 8.44 16.51 19.06 20.52 30.95 2.79 1.78 5.6 3.52 8.24 5.54 7.03 5.27 16.35 7.04 22.51 13.51 4.8 7.1 3.84 16.211 3.94 24.36-1.69 24.611-8.83 49.02-22.12 69.91 9.27.2 15.75-6.75 22.08-12.41 0 7.611-5.36 13.5-8.28 20.12 2.9-2.051 5.8-4.3 9.36-5.1-.17 7.449-4.7 13.8-9.08 19.47 9.19-4.73 19.22-9.459 25.41-18.09 7.1-12.3 7.88-26.89 9.54-40.66 1.54-3.19 3.79-.04 4.69 1.94 3.58 7.8 6.25 15.99 9.81 23.8-.67-13.34-2.32-26.66-4.28-39.87-1.12-8.13-4.09-15.97-4.38-24.21 1.19-.289 2.28-.05 3.25.73 9.33 6.93 17.99 15.09 23.87 25.23 4.58 7.96 5.22 17.389 8.89 25.709 2.87-4.049 1.89-17.598 10.72-16.269-2.16-10.2-8-19.449-15.69-26.4-15.82-13-36.77-21.66-46.35-40.831-8.2-12.5-17-24.669-27.18-35.649-5.03-5.011-10.46-10.51-17.68-11.96-.64-.04-1.27-.05-1.91-.04zm-4.64 44.083c-.84.931-2.17 1.071-3.23 1.551.64 5.949 1.81 11.839 2.52 17.779 1.64.07 3.33.04 5.01-.07-1.32-2.13-3.15-4-3.85-6.45 3.32-1.02 6.78-1.52 10.09-2.62-3.28-3.72-9.58-4.72-10.54-10.19zm-129.32 14.5c-4.99 5.191-10.78 9.509-15.84 14.62 4.97 1.429 10.29 1.56 15.36.57.29-5.06.3-10.13.48-15.19zm123.4 52.83c-2.64 5.27-5.63 10.35-8.78 15.33.37-.19 1.12-.56 1.5-.75 5.7-3.62 12.78-3.15 18.81-5.98-3.71-3.04-7.95-5.39-11.53-8.6zm-103.08 5.29c-.46.05-1.37.16-1.83.22-1.33 2.42-2.66 4.829-3.99 7.229 2.7 4.231 7.62 5.891 11.51 8.721-.51 1.6-2.65.921-3.87 1.361v3.439c8.74.22 17.55 0 26.12 2.07-2.51-2.1-5.2-3.96-7.95-5.7-4.12-2.22-8.45-5.04-9.59-9.92-.34-.56-1.03-1.68-1.37-2.24-3.54-.689-6.35-2.951-9.03-5.18z" fill="#759dae"/>
    <path id="color2" d="m1509.9 92.841c-2.28-.04-4.53.409-6.39 1.749 10.42.92 21.25 2.57 29.81 9.11 8.93 7 18.43 14.55 22.86 25.341-3.98.38-7.97.09-11.94.369 4.13 9.069 6.39 18.771 9.13 28.28 4.27 3.751 9.49 6.55 12.78 11.38-3.8 0-7.53-.73-11.3-1.04.79 12.02 1.49 24.1-.52 36.05 1.53-2.21 2.91-4.53 4.09-6.95.83-1.75 1.39-3.64 2.44-5.289 3.02-2.58 8.83-.191 10.69-4.191.6-9.29-1-18.59-1.9-27.83-.71-5.94-1.88-11.83-2.52-17.779 1.06-.48 2.39-.62 3.23-1.551-.18-.729-.54-2.19-.72-2.91-4.01-11.89-11.28-22.51-20.52-30.95-10.41-9.94-25.2-13.48-39.22-13.789zm-32.22 1.029c-7.03 3.32-13.33 8.12-18.66 13.76-6 6.28-11.15 13.5-14.03 21.76-2.41 8.32-3.54 16.96-3.95 25.6-.18 5.06-.19 10.13-.48 15.19-.38 4.09.56 8.499-.94 12.379-3.25 2.551-6.8 5.971-5.37 10.571 2.75 11.66 11.78 20.349 17.08 30.78-1.29 1.92-4.21 3.051-4.21 5.58 5.33.54 10.72.56 16.06 1.151 1.22-.44 3.36.239 3.87-1.361-3.89-2.83-8.81-4.49-11.51-8.721-2.38-3.38-4.43-6.989-5.97-10.829 3.31 1.2 6.54 2.67 9.96 3.6.46-.06 1.37-.171 1.83-.22 0-2.251.45-4.44 1.14-6.569-2.12-3.331-4.37-6.562-6.48-9.882-4.1 4.271-8.78 8.071-14.25 10.4 1.35-8.129 6.15-15.559 5.38-24.039-.91-10.32-.79-20.679-.69-31.03.19-6.28-2.83-12.68-.3-18.8 6.19-16.049 18.49-29.94 34.43-36.79-.95-.88-1.93-1.71-2.91-2.53zm87.65 101.174c-2.95-.04-3.15 5.392-4.67 7.606-3.83 8.12-8.28 16.02-13.38 23.409-2.32 3.72-6.78 6.261-7.36 10.891 8.09.88 10.98-8.98 15.74-13.8 3.15-4.98 6.14-10.06 8.78-15.33 1.5-3.82 4.26-8.33 2.33-12.4-.55-.254-1.02-.371-1.44-.376zm-194.87 308.256c-6.9.3-12.97 3.69-17.92 8.27-6.57 5.58-16.8-1.37-22.59 5.36-5.97 8.4-3.99 19.13-4.39 28.74-.1 5.89-7.38 4.94-10.51 8.4-4.15 3.71-3.04 10.04-.33 14.271 7.05 11.569 15.68 22.14 24.94 32 2.38 2.189 4.63 5.129 8.03 5.639 2.05-3.71 2.12-8.47 5.25-11.56 3.64 1.76 7.25 3.73 10.46 6.221 1.93 2.48 1.58 6.519 4.76 8.129 10.39 6.43 22.3 9.71 33.58 14.2 7.69 2.72 15.44 5.27 23.17 7.88 5.34 1.61 10.69 3.25 16.2 4.25 6.04 1.3.37-8.29 4.25-10.57 7.23-1.12 14.96.74 18.62 7.529 7.08 1.82 14.36.16 21.51-.3 6.16-.689 12.32-1.419 18.46-2.309 6.37-1.18 12.92-2.02 18.94-4.55 4.52-1.34 2.78-9.67 8.97-7.78 5.74.11 11.93.93 17.08-2.27 12.87-7.35 23.23-18.29 35.78-26.13 1.58-.96 3.39-2.63 2.25-4.64-2.88-4.83-8.75-6.67-12.03-11.09 1.27-5.209 5.75-11.431 1.52-16.38-11.87-3.591-21.18-12.14-30.81-19.52-4.61 2.1-9.56 3.35-14.59 3.81-24 2.62-48.31 3.03-72.33.47-4.55-.66-9.75.22-13.71-2.46-1.24-2.831-.7-6.04-.6-9.02-.5.171-1.51.509-2.01.669-3.01 5.291-9.65 3.211-14.42 2.171-17.07-4.61-34.15-9.8-50-17.72-4.77-1.98-7.84-6.48-7.53-11.71zm291.88 130.22c-.67.02-1.36.286-2.02.88-4.57 2.6-9.21 5.25-13.23 8.659-2.77 2.031.44 7.62 3.69 5.651 5.03-2.331 9.81-5.34 14.24-8.68 2.84-2.104.26-6.599-2.68-6.51zm-123.15 13.05c-7.06 8.42-14.97 16.28-24.4 22.04 2.47 30.509 4 61.57 12.47 91.14 41.51-28.44 82.15-58.409 125.58-83.96 4.28-1.409 4.34-8.14-.52-8.28-7.57 4.409-15.44 9.08-24.31 10.18-3.51.351-3.39-4.06-4.69-6.19-2.51.34-4.91 1.27-7.42 1.5 3.29-7.16 12.51-8.75 17.67-14.31.11-2.549-1.66-5.3-4.5-4.02-14.06 4.95-26.43 13.71-40.36 19.03-15.32 6.51-32.51 6.68-47.68 13.63-2.36 1.38-3.88-1.069-3.67-3.24 0-12.52 1.83-24.99 1.83-37.52zm120.27 1.589c-.33.04-.68.153-1.02.371-5.21 2.53-10.14 5.74-14.76 9.229-2.66 1.38-.36 6.302 2.35 4.382 5.27-2.5 10.3-5.651 15.01-9.1 2.42-1.383.72-5.132-1.58-4.882zm-288.7 2.421c.77 24.25 6.11 48.159 6.51 72.43.24 21.989-13.67 40.089-21.69 59.6-11.31 25.726-13.55 54.054-18 81.478-3.28 22.32-7.41 44.536-9.85 66.96-.97 3.68 1.9 8.152 6.04 7.008.67-4.36-.52-8.984 1.08-13.176 1.02-2.768 3.98-.968 5.94-.568 17.49-49.944 31.14-101.144 48.2-151.222 2.37-8 7.12-15.33 7.38-23.87 2.38-27.88 3.22-55.91 3.48-83.87-10.74-2.49-20.35-8.24-29.09-14.77zm69.34 3.83l-1 .58c-4.74 2.92-9.72 5.44-14.85 7.58-.45 26.22-3.43 52.36-7.01 78.32-.98 9.24-4.44 17.909-7.74 26.52-9.71 26.32-21.47 52.07-27.49 79.59-8.87 29.576-21.42 57.904-30.55 87.392-2.99 10.76-6.17 21.84-5.29 33.12 6.1-4.12.41-14.632 7.49-17.856 7.83-3.624 7.37-13.36 9.5-20.448 8.37-28.008 21.11-54.488 29.51-82.488 4.52-14.392 7.89-29.112 12.7-43.408 4.97-14.813 14.35-27.652 19.41-42.432 3.49-9.64 5.27-19.8 6.35-29.96 2.91-25.51 6.98-50.91 8.97-76.51zm229.21.1c-3.01 1.309-6.07 2.99-8.06 5.67 1.53 6.34 14.71-3.49 8.06-5.67zm-201.6 6.14c4.12 25.79 10.82 51.24 18.31 76.28 3.15 8.93 6.01 18.43 12.36 25.7 4.67 5.44 12.38 1.83 18.41 1.92-6.42-3.82-11.17-10.171-12.46-17.591-4.44-24.84-8.09-49.82-11.59-74.8-9.12-1.82-17.56-6.069-25.03-11.509zm-140.45 289.51c-.66 0-1.3.128-1.86.328-1.91 3.032-4.65 5.264-7.19 7.6-2.07 7.28-6.97 15.704-2.31 22.88.18 4.36-2.8 8.488-1.73 12.808 2.44 1.344 6.09 1.464 6.39-2.08 2.77-12.568 8.52-24.232 11.54-36.696 1.21-3.344-2-4.936-4.84-4.84zm29.71 11.736c-.32 0-.65 0-.97.08-1.12 2.768-1.24 5.84-2.33 8.624-2.75.736-6.72-.336-8.13 2.864-2.34 5.76-4.02 11.984-4.22 18.232 2.47 1.008 5.7 2.44 8.21.928 2.05-4.488 1.24-9.656 2.77-14.312 2.95-.6 7.99 1.624 9.19-2.328.93-4.032 3.17-8.28 2.04-12.416-2.04-.984-4.29-1.664-6.56-1.648zm-25.67 23.136c-.71-.08-1.39.08-1.97.488-2.55 3.848-2.6 8.976-3.31 13.488-1.49 3.962 5.73 5.792 6.53 1.962 1.2-4.786 3.14-9.842 2.16-14.794-1-.472-2.24-1.048-3.41-1.144z" fill="#2e2d35"/>
    <path id="color3" d="m1475.33 141.82c-10.81 16.62-10.89 37.33-19.31 54.839 2.11 3.32 4.36 6.551 6.48 9.882 2.5-2.04 5.1-5.911 8.71-3.721 5.63 3.86 9.26-7.22 14.76-2.75 6.54 5.55-8.15 11.64-2.68 17.571 4.2 3.96.1 8.899-1.94 12.809 2.75 1.74 5.44 3.6 7.95 5.7 3.73 2.56 5.72 8.98 1.92 12.27-3.78 4.25-6.93 9.42-7.79 15.11 1.53 1.98 4.9 3.11 4.14 6.14-.87 6.97 3.88 13.88.75 20.671-2.02 6.529-9.5 8.629-12.34 14.618-10.84 19.92-20.86 41.061-22.51 64.021-2.14 28.97-1.73 58.13-5.61 86.979-.42 3.54-1.58 7.381-5.11 8.971-5.32 2.65-9.85 7.749-9.48 14.029.21 10.9-.22 22.281 3.32 32.711 3.65 5.71 3.79 12.6 5.82 18.889.5-.16 1.51-.498 2.01-.669.31-4.049.68-8.189-.14-12.2-1.26-3.66-4.64-6.5-4.51-10.631-.1-10.7-2.03-21.709 1.12-32.149 4.66-6.071 14.85-8.13 15.71-17.04.36-23.25-.76-46.58.72-69.82.32-25.38 6.74-50.68 18.64-73.1 4.08-8.26 12.25-13.32 16.54-21.43 6.37-5.71 1.7-14.6.5-21.57-2.11-5.94 2.26-11.21 3.04-16.92.89-3.95-.24-8.12.89-12.01 2.31-3.91 7.01-5.27 11.17-6.2 9.73-2.08 19.36-4.61 28.87-7.54-.77-2.22-1.5-4.44-2.23-6.65-3.34-2.33-7.67-4.32-8.99-8.46.98-2.41 2.53-4.56 3.43-7.02-2.53-4.34-9.01-6.87-9.38-11.97 1.76-5.64 6.36-1.35 9.1.91 5.64 2.111 10.84-5.77 16.31-2.52-3.35-10.43-8.02-20.46-13.86-29.72-.84 5.06-1.07 10.2-1.82 15.27-5.97-11.65-10.7-24.49-20.54-33.579-3.79 14.84-2.05 32.039-12.09 44.639-.83-4.78-1.46-9.63-3.18-14.19-1.7 3.171-3.19 6.47-5.29 9.41-.1-4.66-.23-9.43-2.22-13.72-4.12-9.78-7.04-19.99-10.88-29.86zm-225.23 52.096c-1.1-.02-2.2-.02-3.31 0-9.55 6.89-19.72 12.88-29.36 19.58-6.48 7.28-7.65 17.61-11.63 26.27-6.71 18.19-17.16 34.68-24.51 52.58-5.34 12.23-2.91 25.811-1.52 38.591.57 2.68.23 6.718 3.63 7.518 5.88 2.26 11.65 4.861 17.68 6.721 0-18.65-2.81-39.041 7.17-55.87 9.79-18.42 21.48-36.36 25.99-57.01 1.29-5.75 3.42-12.22 9.41-14.62 11.29-5 21.04-12.73 29.61-21.521-7.67-.989-15.42-2.106-23.16-2.243zm286.22 7.15c-.61-.03-1.22.222-1.82.875 1.69 3.74 4.79 6.54 7.7 9.349.25-.56.76-1.689 1.02-2.249-1.61-2.251-4.24-7.83-6.9-7.975zm-59.8 10.314c-3.57.07-4.86 4.25-6.13 6.91.34.56 1.03 1.68 1.37 2.24 1.93-2.7 6.05-5.37 4.76-9.15zm-39.78 35.162c-2.28.03-4.56.424-6.8 1.278-15 6.5-23.95 21.659-38.78 28.39-11.51 7.52-21.8 16.729-32.31 25.549-3.23 2.38-2.31 6.951-2.1 10.411.1 2.44 1.89 4.94 4.22 2.81 12.11-10.14 22.01-22.95 35.13-31.89 14.81-6.3 22.14-22.27 35.95-30.01 6.52-2.72 13.08 1.139 19.01 3.579 1.83-.98 3.4-2.369 5.11-3.569-5.79-3.509-12.59-6.644-19.43-6.548zm127.27 16.232c-4.42 0-8.9.438-13.17.516-2.75 2.251-5.89 3.891-9.03 5.5 8.43 1.611 18.86 1.62 24.83 8.62 5.74 14.92 10.85 31.71 24.76 41.21 15.31 11.35 21.88 29.73 32.1 45.039 3.71-3.44 6.73-7.549 10.35-11.089-12.04-11.43-13.32-29.9-24.03-42.4-3.1-2.86-8.18-2.731-10.58-6.511-7.47-11.62-7.08-28.278-19.12-36.818-4.87-3.285-10.43-4.055-16.11-4.067zm201.51 54.482c-.22 0-.46 0-.69.03 0 20.25 6.14 39.94 15 57.98 5.82 13.18 13.52 25.61 17.47 39.55 3.14 11.18 2.46 22.96 4.5 34.3 8.01 2.07 16.22 3.539 24.4 4.839-.1-16.98-7.7-32.509-10.25-49.069-1.72-9.02-5.59-17.52-10.69-25.12-7.85-11.75-14.31-24.391-19.51-37.511-4.5-6.27-8.46-12.899-12.88-19.23-1.92-2.381-4.01-5.719-7.35-5.773zm-483.46 36.264c-2.9.9-5.7 2.199-8.12 4.039 13.61 11.871 23.68 27.591 39.02 37.471 3.19 2.36 5.94 5.3 9.4 7.311.47-3.64.56-7.671-1.99-10.621-7.48-9.46-20.03-13.019-27.69-22.33-4.2-4.84-6.55-10.95-10.62-15.87zm86.1 255.25c.51 13.94 1.11 27.96 2.6 41.81 8.74 6.53 18.35 12.28 29.09 14.77 8.17 1.6 16.66.03 24.4-2.78 5.13-2.14 10.11-4.66 14.85-7.58 3.16-5.88 1.69-13.37 2.01-19.89-5.51-1-10.86-2.64-16.2-4.25-1.31 9.17-12.36 7.93-18.97 6.27-4.02-3.38-3.33-9.44-4.2-14.15-11.28-4.49-23.19-7.77-33.58-14.2zm162.16 8.074c-4.38-.114-3.34 6.842-7.43 8.056-6.02 2.53-12.57 3.37-18.94 4.55 0 2.72.34 5.51-.33 8.18-3.52 3.09-8.83 3.24-13.27 2.89-2.96-1.87-3.52-5.781-4.86-8.761-7.15.46-14.43 2.12-21.51.3l-1.26-.249c1.18 9.66 2.58 19.41 4.99 28.84 7.47 5.44 15.91 9.689 25.03 11.509 7.49 1.8 15.48.391 22.05-3.549 9.43-5.76 17.34-13.62 24.4-22.04 1.12-9.42 1.19-19.09.68-28.57-2.64-.6-5.34-.78-8.01-.88-.58-.177-1.09-.265-1.54-.276zm-118.01 23.589c4.39-.02 8.35 3.949 8.5 8.508 1.09 5.64-3.79 12.309-9.89 11.079-8.43-1.8-9.46-15.56-1.67-18.9 1.01-.469 2.05-.684 3.06-.687zm84.24 5.97c4.75 0 8.97 4.58 8.59 9.577.8 5.84-5.03 11.85-10.94 9.779-7.56-2.829-7.82-14.819-.97-18.579 1.11-.537 2.23-.778 3.32-.777z" fill="#fffcf8"/>
    <path id="color4" d="m1203.78 191.425c-7.26.316-12.93 5.625-17.94 10.434-9.46 9.711-17.55 20.641-25.1 31.861-7.73 13.29-21.72 21.541-28.98 35.221-5.58 8.909-5.58 20.609-.42 29.718 1.64 4.011 6 7.942 3.94 12.582-4.08 9.229-10.36 17.669-12.18 27.769-1.07 4.9 3.25 8.5 6.85 10.94 12.75 8 27.54 11.76 41.98 15.409 9.21 2.42 17.14 7.831 25.48 12.191 18.45 10.01 39.44 14.56 60.24 15.94 6.27.8 8.11-6.51 9.83-11.09 3.13-8.02 3.11-16.97 6.46-24.841 2.42-1.84 5.22-3.139 8.12-4.039 4.07 4.92 6.42 11.03 10.62 15.87 7.66 9.311 20.21 12.87 27.69 22.33 2.55 2.95 2.46 6.981 1.99 10.621 3.84 5.769 12.51 10.309 19.36 6.389 12.26-6.48 21.27-17.38 31.26-26.71 12.64-11.78 26.82-22.41 42.91-28.91 2.7 10.929 1.27 22.7.42 33.88-3.67 14.12-10.51 27.45-12.36 42.06-.68 4.95.6 10.34-1.84 14.93-3.11 5.47-10.78 4.801-14.49 9.561-1.31 3.12-.71 6.769-2.23 9.849-3.42 5.92-10.52 8.29-14.29 13.84-4.29 8.53 3.73 17.36-.64 26.07-.31 5.23 2.76 9.73 7.53 11.71 15.85 7.92 32.93 13.11 50 17.72 4.77 1.04 11.41 3.12 14.42-2.171-2.03-6.289-2.17-13.179-5.82-18.889-3.54-10.43-3.11-21.811-3.32-32.711-.37-6.28 4.16-11.379 9.48-14.029 3.53-1.59 4.69-5.431 5.11-8.971 3.88-28.849 3.47-58.009 5.61-86.979 1.65-22.96 11.67-44.101 22.51-64.021 2.84-5.989 10.32-8.089 12.34-14.618 3.13-6.791-1.62-13.701-.75-20.671.76-3.03-2.61-4.16-4.14-6.14.86-5.69 4.01-10.86 7.79-15.11 3.8-3.29 1.81-9.71-1.92-12.27-8.57-2.08-17.38-1.85-26.12-2.07-1.78-.08-3.54-.1-5.28.07-.78 5.48 4.14 9.929 3.67 15.359-1.14 1.89-3.72 2.271-5.4 3.581-1.71 1.2-3.28 2.589-5.11 3.569-5.93-2.44-12.49-6.299-19.01-3.579-13.81 7.74-21.14 23.71-35.95 30.01-13.12 8.94-23.02 21.75-35.13 31.89-2.33 2.129-4.12-.37-4.22-2.81-.37-11.35-4.89-21.98-6.69-33.13-3.68-13.31-4.11-28.05-12.3-39.67-7.97-12.41-18.29-23.1-29.06-33.08-8.93-9.78-23.43-8.521-35.44-10.131-8.57 8.79-18.32 16.521-29.61 21.521-5.99 2.4-8.12 8.87-9.41 14.62-4.51 20.649-16.2 38.589-25.99 57.009-9.98 16.83-7.17 37.22-7.17 55.871-6.03-1.86-11.8-4.461-17.68-6.721-3.4-.8-3.06-4.839-3.63-7.519-1.39-12.78-3.82-26.36 1.52-38.59 7.35-17.901 17.8-34.39 24.51-52.58 3.98-8.66 5.15-18.99 11.63-26.27 9.64-6.7 19.81-12.69 29.36-19.58-13.57-2.36-27.7-2.271-41.53-2.491-.5-.02-.99-.02-1.48 0zm353.38 30.975c-.38.19-1.13.56-1.5.75-4.76 4.82-7.65 14.68-15.74 13.8.58-4.63 5.04-7.171 7.36-10.891-3.42 1.151-6.87 2.171-10.31 3.221-9.51 2.93-19.14 5.46-28.87 7.54-4.16.93-8.86 2.29-11.17 6.2-1.13 3.89 0 8.06-.89 12.01-.78 5.71-5.15 10.98-3.04 16.92 1.2 6.97 5.87 15.86-.5 21.57-4.29 8.11-12.46 13.17-16.54 21.43-11.9 22.42-18.32 47.72-18.64 73.1-1.48 23.24-.36 46.57-.72 69.82-.86 8.91-11.05 10.969-15.71 17.04-3.15 10.44-1.22 21.449-1.12 32.149-.13 4.131 3.25 6.971 4.51 10.631.82 4.011.45 8.151.14 12.2-.1 2.98-.64 6.189.6 9.02 3.96 2.68 9.16 1.8 13.71 2.46 24.02 2.56 48.33 2.15 72.33-.47 5.03-.46 9.98-1.71 14.59-3.81 1.73-7.9-3.18-15.3-2.58-23.17.69-4.5 4.13-8.221 4.03-12.91.37-5-4.32-8.17-5.43-12.73-2.95-11.52-.57-24.141-5.76-35.121-2.94-7.42-10.41-12.339-12.2-20.189 0-10.36 5.17-19.84 6.46-30.05 2.54-14.91 10.31-29.13 22.3-38.5 2.08-2.24 4.6.2 5.94 1.98 9.83 13.41 14.93 29.78 25.72 42.55 10.23 13.06 20.16 26.61 27.07 41.78 1.79 3.69 5.17 7.86 9.78 7.111 8.67-1.74 14-10.051 22.38-12.441 6.42-1.46 12.23 2.52 18.24 4.07 11.87 3.65 24.22.09 36.28-.09 2.76-.14 3.87 2.87 4.58 5.03 2.23 8.709 2.04 17.78 2.74 26.68.28 4.411 5.21 5.909 8.7 7.169 26.3 7.58 54.25 6.48 80.5 14.251 12.75 3.04 26.13-.35 37.24-6.89 9.01-4.82 13.14-14.921 15.91-24.21 1.14-4.611 5.78-7.2 7.07-11.74 1.83-5.85 1.03-12.229-1.41-17.78-4.93-11.369-13.4-20.62-20.84-30.36-5.92-7.88-8.15-17.64-11-26.871-3-9.969-12.08-16.12-17.52-24.6-4.42-6.12-7.15-14.199-14.13-17.909-1.13-.08-4.17-2.051-3.97.109 5.2 13.12 11.66 25.761 19.51 37.511 5.1 7.6 8.97 16.1 10.69 25.12 2.55 16.56 10.15 32.089 10.25 49.069-8.18-1.3-16.39-2.769-24.4-4.839-2.04-11.34-1.36-23.12-4.5-34.3-3.95-13.94-11.65-26.37-17.47-39.55-8.86-18.04-15-37.729-15-57.98-5.62-4.1-8.92-10.95-15.84-13.29-24.06-10.77-51.79-.89-71.47 14.45-14.97 10.84-26.88 25.98-43.67 34.12-3.62 3.54-6.64 7.649-10.35 11.089-10.22-15.309-16.79-33.689-32.1-45.039-13.91-9.5-19.02-26.29-24.76-41.21-5.97-7-16.4-7.009-24.83-8.62 3.14-1.609 6.28-3.249 9.03-5.5-.54-8.96 9.4-12.82 10.26-21.31 1.09-6.38 2.96-15.88-3.94-19.58z" fill="#537cbd"/>
  </g>
</svg>
