<svg height="1080" width="1920" xmlns="http://www.w3.org/2000/svg">
  <path id="background" d="m0 0h1920v1080h-1920z" fill="#bbaca2"/>
  <g id="transform" transform="translate(0,0) scale(1.00)">
    <path id="color1" d="m693.891 102.789c4.7 8.8 9.18 18.1 10.16 28.15-3.24 1.84-7.821 1.642-11.631 1.782-5.41-7.82-13.13-13.78-22.02-17.16-16.39-6.43-33.859-10.342-51.439-11.282 15.83 5.43 31.988 14.47 40.068 29.75-9.75-2.57-19.778-5.858-29.968-3.638 10.97 1.19 22.77 4.319 30.49 12.709-2.99 2.26-6.56 4.611-10.5 3.621-19.48-3.09-38.89 4.048-55.41 13.888-6.96 4.48-14.032 9.092-19.522 15.362 11.42-7.52 25.131-12.5 38.951-9.92-27.15 18.59-44.84 47.28-58.48 76.58-10.87 21.8-19.25 44.909-23.41 68.959-3.05 14.43-8.731 28.679-18.231 40.099 15.55-12 26.77-28.698 34.99-46.308 1.29 8.42-.898 16.869-2.298 25.139-3.91 12.94-12.211 23.939-17.551 36.269 4.66-5.28 10.629-9.149 15.349-14.359 4.26-4.45 7.561-10.541 13.481-12.901 1.93 19.51 5.721 38.82 7.461 58.34.1 4.1.059 8.21-.031 12.32.18 5.75-2.15 11.112-3.11 16.692 6.35-3.42 11.749-8.28 17.789-12.16 6.18 15.25-.938 31.45-10.808 43.24 13.44-5.11 24.209-15.122 32.779-26.422 5.4 12.3 11.87 26.101 25.84 30.371-10.12-6.29-13.649-18.561-12.029-29.881-5.72-3.36-12.381-7.119-15.641-12.779 12.74-12.31 22.491-27.22 30.721-42.83.59 20.1-.552 40.23-2.452 60.23.04 4.14-.299 8.26-.839 12.35 3.74-4.12 6.42-9.019 9.63-13.539 5.16-7.04 8.57-15.132 13.02-22.592 4.55 4.18 8.931 8.562 13.631 12.592-.45 3.47-1.042 5.449 1.318 1.289 7.69 4.46 15.951 7.85 24.551 10.15-7.76-4.69-15.52-10.29-20.4-18.05 10.94-24.53 18.45-51.13 17.8-78.18 7.16 14.17 21.559 25.48 37.969 25.09-14.89-6.85-28.57-17.969-33.51-34.199 5.41 3.13 11.471 6.47 17.961 5.08 3.25-.46 5.979-3.022 9.119-3.362 12.46 6.54 22.762 16.701 31.362 27.721-1.62-4.67-4.041-9.01-5.731-13.65 11.39 7.03 22.9 14.15 32.67 23.38-4.36-10.2-9.65-19.96-14.32-30 9.53 8.95 16.509 20.031 24.189 30.481-1.33-18.35-5.188-36.431-11.978-53.541 9.2 9.71 20.419 17.95 33.869 20.4-13.36-12.22-22.039-28.86-28.039-45.74 9.96 6.97 20.5 16.66 33.68 14.51-10.45-6.22-21.141-14.769-23.641-27.379 17.92 14.3 34.229 30.949 47.289 49.879-.69-11.29-6.42-21.351-9.93-31.891 5.56 4.98 10.67 10.45 15.76 15.91 9.99 9.25 17.731 20.551 23.891 32.631.27-11.89-2.981-23.409-5.731-34.859 3.75 3.15 9.751 5.72 8.311 11.68.65-1.21 1.259-2.45 2.019-3.6 5.54.65 11.272 1.649 16.612-.641-5.18-.09-10.682-.57-14.942-3.83.53-11.91.401-24.219-4.299-35.439-2.47-7.09-6.871-13.22-10.281-19.84 9.86 6.76 17.7 15.94 25.66 24.75-5.98-15.08-17.45-27.041-30.08-36.811 10.97.29 20.712-5.259 27.862-13.259-5.63 3.16-12.142 5.458-18.602 3.558-8.58-2.33-17.459-4.169-25.469-8.129 5.4-1.85 11.18-2.79 16.11-5.84-18.43-3.39-28.801-20.739-39.141-34.589-16.96-23.68-38.859-45.492-67.379-54.192.94-6.5 2.96-13.408.44-19.808-2.57-6.03-8.971-8.921-14.741-11.071 3.99 3.88 9.182 7.8 9.272 13.93-.15 5.11-2.412 10.111-5.592 14.051-5.72.3-11.638-.59-17.318-1.41-6.01-11.16-14.39-21.572-25.58-27.852zm151.648 168.602c15.39 7.62 23.611 24.679 24.221 41.349-5.83-4.98-12.439-10.059-14.789-17.689-2.8-8.03-6.842-15.57-9.432-23.66zm-154.459 38.138c7.89 7.81 15.479 16.06 24.449 22.67-7.41 1.31-15.02-1.368-20.84-5.888-4.11-4.44-3.909-11.132-3.609-16.782zm-18.5 55.66c.88.01.321 5.611.481 7.821.95 14.77-2.061 29.33-6.471 43.34-4.35-6.92-10.091-15.431-6.061-23.811 3.95-9.14 8.971-17.83 12.051-27.35zm-69.699 25.43c-1.19 8.73-2.901 17.461-6.041 25.731-3.29-2.62-5.08-7.19-6.74-11.08 4.12-4.61 8.08-9.36 12.14-14.01z" fill="#624d3c"/>
    <path id="color2" d="m789.75 279.461c2.5 12.61 13.191 21.159 23.641 27.379-13.18 2.15-23.72-7.54-33.68-14.51 6 16.88 14.679 33.52 28.039 45.74-13.45-2.45-24.669-10.69-33.869-20.4 6.79 17.11 10.648 35.191 11.978 53.541-7.68-10.45-14.659-21.531-24.189-30.481 4.67 10.04 9.96 19.8 14.32 30-9.77-9.23-21.28-16.35-32.67-23.38 1.69 4.64 4.111 8.98 5.731 13.65-8.6-11.02-18.902-21.181-31.362-27.721-3.14.34-5.869 2.902-9.119 3.362-6.49 1.39-12.551-1.95-17.961-5.08 4.94 16.23 18.62 27.349 33.51 34.199-16.41.39-30.809-10.92-37.969-25.09.65 27.05-6.86 53.65-17.8 78.18 4.88 7.76 12.64 13.36 20.4 18.05-8.6-2.3-16.861-5.69-24.551-10.15-2.36 4.16-1.768 2.181-1.318-1.289-4.7-4.03-9.081-8.412-13.631-12.592-4.45 7.46-7.86 15.552-13.02 22.592 5.72 3.09 11.95-2.822 17.76-.512 7 4.32 12.289 12.382 21.199 12.862 13.25 1.25 27.391 3.91 36.911 14.08 5.29 6.52 12.97 10.249 18.47 16.529 6.47 6.01 13.459 11.48 20.469 16.83 6.41-8.24 13.9-16.109 23.49-20.609 12.3-1.44 25.091-.992 36.901-5.272 4.58-1.7 6.499-6.548 8.189-10.728 2.83-7.27 6.87-13.971 10.41-20.901 12.54-21.33 19.121-45.99 18.731-70.73-.94-17.99-4.941-35.691-5.891-53.651-5.09-5.46-10.2-10.93-15.76-15.91 3.51 10.54 9.24 20.601 9.93 31.891-13.06-18.93-29.369-35.579-47.289-49.879zm-98.67 30.068c-.3 5.65-.501 12.342 3.609 16.782 5.82 4.52 13.43 7.198 20.84 5.888-8.97-6.61-16.559-14.86-24.449-22.67zm-18.5 55.66c-3.08 9.52-8.101 18.21-12.051 27.35-4.03 8.38 1.711 16.891 6.061 23.811 4.41-14.01 7.421-28.57 6.471-43.34-.16-2.21.399-7.811-.481-7.821zm-42.689 11.231c-8.23 15.61-17.981 30.52-30.721 42.83 3.26 5.66 9.921 9.419 15.641 12.779 4.07 1.91 8.338 3.311 12.628 4.621 1.9-20 3.042-40.13 2.452-60.23zm-27.01 14.199l-.641.641c-4.06 4.65-8.02 9.4-12.14 14.01 1.66 3.89 3.45 8.46 6.74 11.08 3.14-8.27 4.851-17.001 6.041-25.731zm13.439 86.906c-9.623.171-19.06 3.628-28.16 6.504-6.84 2.41-14.91.501-20.74 5.651-24.73 18.78-42.949 47.82-44.369 79.34.77 28.04 7.948 56.051 21.238 80.781 24.86-.38 49.751-8.37 70.811-21.59 8.65 8.73 19.42 14.779 30.48 19.939-4.31-11.51-.58-24.03 5.35-34.22 13.22-24.4 39.27-38.229 64.9-46.119 8.89-2.66 19.83-5.651 27.85.779.99-3.1-2.199-5.261-3.869-7.391-9.44-8.92-21.15-15.058-33.1-19.888-4.1-1.74-8.711-2.811-11.861-6.151-11.34-11.71-20.03-25.939-32.7-36.359-11.94-8.73-24.71-16.981-39.14-20.821-2.239-.358-4.469-.494-6.69-.455zm252.741.286c-8.57 13.34-16.252 27.339-22.282 42.019-1.24-8.1-11.999-11.101-18.439-7.471-4.22 4.51-3.309 11.401-2.209 16.961 1.46 5.51 1.598 11.4 3.908 16.66 3.29 2.82 8.011 1.45 11.951 1.75 8.01-1.55 11.101 11.99 19.311 6.62 3.7 2.87 6.219 10.631 12.619 9.281 9.13-2.24 19.521-3.292 26.641-10.022 1.15-3.95.299-7.899-1.141-11.609 1.02-7.21 5.28-14.579 2.49-21.859-1.37-2.9.91-6.301-1.09-8.981-4.34-6.51-7.78-13.839-14.23-18.599-4.03-6.64-9.829-12.62-17.529-14.75zm337.419 351.24c-4.2-.182-7.48 3.596-11.36 4.978-4.37 2.21-9.14-.3-13.7.41-8.65 1.41-17.99 3.03-24.3 9.68-15.65 6.51-33.21 4.11-49.55 7.49-15.16 2.5-30.09-1.89-43.25-9.24-.24 2.52 1.36 4.542 2.69 6.522 14.8 22.24 23.74 47.6 34.57 71.83 9.98 2.11 19.83 5.5 30.11 5.74 6.71-.26 12.02-5.442 13.83-11.682.63-3.86 4.67-1.16 6.65 0 4.04 2.92 8.94 4.271 13.15 6.821 5 8.76 12.35 17.099 22.65 19.339 5.84 1.92 12.3-2.088 14.06-7.798 3.31-9.11 6.37-19.701 15.45-24.741 8.67-3.8 18.55-7.691 23.43-16.361 1.25-5.63-2-10.71-4.26-15.59-6.59-13.15-13.51-26.25-21.79-38.41-2.32-2.77-4.72-5.508-6.51-8.648-.64-.207-1.26-.314-1.87-.34zm18.17 62.797c1.73-.041 2.96 1.526 3.54 3.232-1.57-.63-4.93-.91-4.81-2.93.45-.198.87-.293 1.27-.302z" fill="#fbebdb"/>
    <path id="color3" d="m708.97 834.25c16.41-1.54 32.7 1.78 49.02 3.02 31.29 3.44 62.73 4.68 94.15 5.75 12.45.44 24.96.63 37.4-.13 10.31.18 20.63-.04 30.94.12 32.65.77 65.33.4 97.92-1.04 7.64-.19 16.62-2.29 22.49 4.04 8.8 4.41 6.86 15.58 11.21 23.09 4.38 9.85 16.29 14.03 19.42 24.61 1.81 5.62 3.95 11.35 3.82 17.34.11 1.73-1.89 2.42-3.3 2.27-5.33-.02-10.65.19-15.97.45-36.48 2.19-72.96 3.82-109.44 6.32-41.18 2.9-82.43 4.23-123.63 6.92-36.96.92-73.98 4.9-110.96 2.06-39.48-2.78-78.44-10.04-117.29-17.22-6.45-1.5-12.82-3.36-19.38-4.33-21.79-5.15-43.6-10.29-65.21-16.13-.1-.19-.29-.56-.38-.75 9.93-2.75 19.92-5.29 29.8-8.21 15.92-4.09 31.62-9 47.56-12.99 18.25-5.17 36.57-10.11 54.75-15.52 22.53-5.98 44.56-13.76 67.08-19.67z" fill="#828282"/>
    <path id="color4" d="m477.676 301.256c-1.219.002-2.439.017-3.656.045-12.05-.2-24.74.399-35.6 6.189-8.97 4.95-12.17 15.86-13.01 25.43-.16 9.69-.49 19.43.61 29.08.67 9.34-4.989 17.469-10.709 24.289-11.35 13.48-23.421 27.961-27.131 45.551 9.14-1.52 15.93-9.159 24.74-12.029 9.02-4.46 19.601-5.091 27.971-10.911 13.3-8.43 22.438-22.209 36.468-29.599 6.27-3.58 10.621 4.46 16.071 6.25 13.88 5.31 28.939 1.009 42.599-2.891 5.92-1.82 4.911 6.32 9.051 8.1 6.12 3.12 12.871 4.749 19.301 7.109-1.74-19.52-5.531-38.83-7.461-58.34-5.92 2.36-9.221 8.451-13.481 12.901-4.72 5.21-10.689 9.079-15.349 14.359 5.34-12.33 13.641-23.329 17.551-36.269 1.4-8.27 3.588-16.719 2.298-25.139-8.22 17.61-19.44 34.308-34.99 46.308 9.5-11.42 15.181-25.669 18.231-40.099-16.791-7.472-35.216-10.364-53.504-10.334zm78.724 108.849c-2.651-.006-5.295.099-7.91.584-8.52 2.19-15.359 8.121-23.349 11.551-11.66 5.15-24.151 8.8-34.651 16.26-6.97 4.94-12.19 11.839-18.64 17.359-7.78 6.26-18.37 5.88-27.17 9.93-16.62 7.12-32.11 16.751-49.25 22.701-18.25 6.13-35.681 14.431-52.641 23.481-10.52 6.02-21.218 12.319-29.408 21.429-1.44 1.49-2.031 4.921.299 5.821 20.33 9.58 46.589 11.97 59.929 32.24 7.58 14.07 19.022 26.458 33.852 32.908 5.06 2.19 11.88 2.502 15.17-2.738 16.32-20.08 28.438-43.242 39.408-66.592 5.43-10.7 14.14-20.268 25.49-24.738 6.58-2.62 10.481-8.77 15.371-13.5 3.84 6.19 6.58 13.019 9.43 19.709 6.83-7.03 12.13-15.359 18.16-23.049 2.36-3.43 7.03-1.841 10.52-2.131 8.89.64 17.51-3.13 26.41-1.65 5.83-5.15 13.9-3.241 20.74-5.651 11.2-3.54 22.91-7.959 34.85-6.049 14.43 3.84 27.2 12.091 39.14 20.821 12.67 10.42 21.36 24.649 32.7 36.359 3.15 3.34 7.761 4.411 11.861 6.151 11.95 4.83 23.66 10.968 33.1 19.888 1.67 2.13 4.859 4.291 3.869 7.391 5.92 3.91 10.61 9.55 16.5 13.33 9.19-3.72 15.611-11.84 23.381-17.68.25 3.08.37 6.17.57 9.26 1.03-4.65-.901-10.68 3.389-13.98 9.21-8.34 19.251-16.361 25.781-27.081 1.99-9.1-5.831-16.299-9.731-23.759 4.52 1.44 8.611 3.9 12.561 6.48 2.62-5.61 6.83-10.351 9.09-16.121 2.81-9.12 2.49-19.998 9.42-27.318 8.78-4.91 21.128-4.591 27.298-13.631-5.64.03-11.729-.11-16.599-3.33-6.35-4.41-10.701-10.95-15.311-17.02-3.54 6.93-7.58 13.631-10.41 20.901-1.69 4.18-3.609 9.028-8.189 10.728-11.81 4.28-24.601 3.832-36.901 5.272-9.59 4.5-17.08 12.369-23.49 20.609-7.01-5.35-13.999-10.82-20.469-16.83-5.5-6.28-13.18-10.009-18.47-16.529-9.52-10.17-23.661-12.83-36.911-14.08-8.91-.48-14.199-8.542-21.199-12.862-5.81-2.31-12.04 3.602-17.76.512-3.21 4.52-5.89 9.419-9.63 13.539.54-4.09.879-8.21.839-12.35-4.29-1.31-8.558-2.711-12.628-4.621-1.62 11.32 1.909 23.591 12.029 29.881-13.97-4.27-20.44-18.071-25.84-30.371-8.57 11.3-19.339 21.312-32.779 26.422 9.87-11.79 16.988-27.99 10.808-43.24-6.04 3.88-11.439 8.74-17.789 12.16.96-5.58 3.29-10.942 3.11-16.692-2.64.04-5.298-.077-7.95-.084zm-58.14 164.594c-7.4 4.78-5.94 14.471-7.68 21.971-1.28 10.52-5.59 20.23-8.68 30.26-2.49 7.33 1.461 14.499 1.311 21.859.77.02 1.78-.179 1.84.961 4.07 10.95 8.519 21.769 13.969 32.109 3.62 7.24 7.291 15.601 15.121 19.141 21.86 10.89 44.249 22.58 68.869 25.34 12.02-.32 24.15-2.61 35.34-7.09 2.32-9.17 2.731-18.659 4.371-27.939.46-2.99 1.208-6.181-.352-8.971-14.75 2.87-30.639 10.379-45.349 3.439-20.21-8.27-39.53-18.839-57.26-31.599-7.91-5.55-10.74-15.319-13.84-23.959-5.28-17.94-11.31-36.642-7.66-55.522zm465.773 78.778c-8.539-.032-17.049 1.552-25.572 1.203-22.27 5.45-45.7 11.69-62.99 27.8-7.37 7-15.431 15-16.871 25.53-.51 6.22 6.149 8.11 9.849 11.5.96 3.99-.519 8-1.189 11.92-1.36 6.89-.641 13.969.929 20.759.39 2.17.581 4.38.821 6.59 1.92 4.92 5.619 8.98 10.849 10.34 26.75 9.25 54.82 14.751 80.76 26.311 5.5 2.27 11.351 6.88 10.461 13.56.15 5.31-3.629 13.119 2.551 16.299 7.92 3.23 16.619 4.382 25.129 4.852-4.64-9.31-10.809-18.422-11.459-29.112.57-3.87 4.03-6.429 6.92-8.679 7.069-4.85 14.409-9.87 22.809-12 4.25-1.27 7.36 2.02 9.05 5.48 4.43 8.52 14.03 11.97 22.65 14.65 28.9 8.85 58.78 17.041 89.27 15.911 14.88-.01 29.04-6.071 41.55-13.711 3.8-2.48 8.22-3.92 12.8-3.66-6.11-.96-6.38-8.279-10.72-11.629-17.98-16.98-43.29-22.452-62.85-37.112-7.44-5.52-12.26-14.158-20.81-18.228-9.15-4.85-20.39-1.141-29.33-6.731-23.47-13.24-41.15-34.161-60.42-52.541-10.249-10.17-23.421-18.598-38.271-18.978-1.974-.223-3.945-.317-5.916-.324zm-286.396 8.32c-4.097.11-7.772 3.513-11.006 5.853-.38 11.94-3.821 23.519-4.901 35.379.87.13 2.589.38 3.459.51 19.9-5.07 39.771-12.379 55.821-25.559 1.14-.54 2.061-2.989.301-3.269-13.31-4.99-27.132-8.47-40.772-12.41-.99-.379-1.957-.53-2.902-.504zm27.023 124.902c-10.53 9.56-22.15 17.851-33.99 25.711-.9.67-1.821 1.311-2.731 1.971-9.86 6.92-20.98 11.628-31.5 17.398 2.25 7.27 3.492 14.791 5.452 22.141 22.53-5.98 44.56-13.76 67.08-19.67 8.71-11.81 19.269-22.21 27.349-34.52-.35-3.08-3.691-3.37-6.031-4.24-8.63-2.66-17.149-5.661-25.629-8.791zm-228.379 5.668c-2.962.115-5.964 1.03-7.351 3.813-.68 3.29.52 6.6 1.16 9.82 3.9 14.06-.701 28.56 1.029 42.83 6.73 12.52 20.561 17.831 32.711 23.551 11.38 5.13 23.77 6.929 35.75 10.049 15.92-4.09 31.621-9.001 47.561-12.991-.6-.28-1.82-.829-2.43-1.109-2.29-8.97-1.95-18.42-4.5-27.35-25.72-3.57-52.311-6.09-76.121-17.22-12.7-6.19-18.31-19.7-24.92-31.28-.918-.1-1.901-.151-2.889-.113zm99.088 115.153c-7 2.92-14.41 4.6-21.67 6.73-3.43 5.21-4.8 12.389-5.91 18.609.58.13 1.721.402 2.291.532 16.21-3.65 31.53-11.481 44.67-21.541-6.45-1.5-12.821-3.36-19.381-4.33zm147.801 85.531c-7.41 2.39-13.159 7.529-18.449 13.009-2.18 13.27 6.749 24.37 8.939 36.89 1.32 6.28-2.241 11.72-4.371 17.28-.98 7.02-4.72 13.1-6.84 19.77h59.371c2.72-3.43 4.509-8.55 9.119-9.75 4.89 1.54 7.6 6.45 11.26 9.75h82.231c-3.74-15.21-19.97-21.17-32.01-28.56-35.51-21.04-70.09-44.52-109.25-58.389zm282.72 13.479c3.2 11.24 3.64 23.1 2.16 34.64-5.34 18.38-22.861 28.72-37.691 38.83h40.411c4.8-8.67 9.16-17.96 9.48-28.05 1.09-16.03-2.23-33.98-14.36-45.42z" fill="#645b4e"/>
    <path id="color5" d="m877.945 456.088c-5.386.032-10.851.972-16.006 2.002-6.17 9.04-18.518 8.721-27.298 13.631-6.93 7.32-6.61 18.198-9.42 27.318-2.26 5.77-6.47 10.511-9.09 16.121 2.3 5.38 5.88 10.04 10 14.16-1.1-5.56-2.011-12.451 2.209-16.961 6.44-3.63 17.199-.629 18.439 7.471 6.03-14.68 13.712-28.679 22.282-42.019 7.7 2.13 13.499 8.11 17.529 14.75 6.45 4.76 9.89 12.089 14.23 18.599 2 2.68-.28 6.081 1.09 8.981 2.79 7.28-1.47 14.649-2.49 21.859 1.44 3.71 2.291 7.659 1.141 11.609 4.98-1.06 8.948-5.12 12.138-8.91 4.14-4.88.311-11.969 3.981-17.039 2.13-3.5 5.66-7.44 3.33-11.76-3.53-7.46-5.179-15.68-5.209-23.91.02-3.89-1.09-8.08-4.25-10.58-3.66-2.78-8.74-3.631-11.49-7.541-2.24-4.57-.801-11.17-5.581-14.34-4.84-2.6-10.148-3.474-15.535-3.441zm-211.314 211.562c-3.27 2.73-7.731 3.361-11.061 5.911-2.85 3.82-4.15 9.72-9.57 10.75-4.13 1.03-5.86-3.501-8.18-5.881-5.22 1.01-10.191 3.07-15.451 3.91 1.56 2.79.812 5.981.352 8.971-1.64 9.28-2.051 18.769-4.371 27.939 4.42-1.64 9.169-2.43 13.349-4.66 3.13-3.56 5.381-8.46 10.481-9.61 4.11-1.99 5.611 4.829 9.541 3.559 4.62-1.29 8.708-4.08 13.468-5-.87-.13-2.589-.38-3.459-.51 1.08-11.86 4.521-23.439 4.901-35.379zm110.039 50.889c-15.99 3.22-32.519 3.412-48.699 5.522-3.09.5-6.51 1.988-7.67 5.128.09 3.1.749 6.181.529 9.291-2.31 15.99-12.01 29.711-19.57 43.571-.57 2.32 2.09 3.268 3.4 4.648 8.48 3.13 16.999 6.131 25.629 8.791 2.34.87 5.681 1.16 6.031 4.24 2.06-3.99 6.759-1.02 9.959-.38 25.24 8.53 51.42 13.97 76.67 22.31 22.08 7.37 44.73 13.141 66.59 21.231 10.31.18 20.631-.041 30.941.119 5.59-14.46 11.88-29.759 10.01-45.549-3.46-2.87-7.849-4.312-11.939-6.012-28.3-9.96-57.152-18.179-86.112-25.949 11.41-4.26 24.631-3.501 36.571-6.721-.24-2.21-.431-4.42-.821-6.59-3.86 2.36-7.96-.388-11.75-1.468-19.58-6.51-39.169-13.041-58.359-20.651-7.6-2.92-14.72-6.931-21.41-11.531zm241.9 61.539c-.49.025-1.01.113-1.54.272-8.4 2.13-15.74 7.15-22.809 12-2.89 2.25-6.35 4.809-6.92 8.679.65 10.69 6.819 19.802 11.459 29.112 4.46 4.89 10.95 8.478 17.75 7.398-1.54-3.97-2.82-8.74-.82-12.75 4.34-5.36 11.53-10.249 18.63-7.199 11.97 5.51 21.03 15.469 30 24.779 13.16 7.35 28.09 11.74 43.25 9.24 16.34-3.38 33.9-.98 49.55-7.49 6.31-6.65 15.65-8.27 24.3-9.68 4.56-.71 9.33 1.8 13.7-.41 4.43-1.58 8.08-6.288 13.23-4.638.31-2.32-2.67-3.311-3.79-4.961-8.46-6.27-1.22-21.21-12.21-25.41-4.58-.26-9 1.18-12.8 3.66-12.51 7.64-26.67 13.701-41.55 13.711-30.49 1.13-60.37-7.061-89.27-15.911-8.62-2.68-18.22-6.13-22.65-14.65-1.48-3.027-4.04-5.926-7.51-5.752zm-382.131 51.701c-5.11 2.07-10.689 2.831-15.699 5.121-3.51 2.77-7.051 5.93-11.711 6.42-4.8 1.01-7.869-3.71-12.029-5-5.71-.18-11.249 1.53-16.789 2.66 2.55 8.93 2.21 18.38 4.5 27.35.61.28 1.83.829 2.43 1.109 18.25-5.17 36.57-10.109 54.75-15.519-1.96-7.35-3.202-14.871-5.452-22.141zm-171.699 29.121c-6.5-.02-12.71 1.949-18.76 4.139-14.97 5.69-30.68 10.241-44.49 18.451-6.72 9.38 2.17 20.479 4.67 29.959 3.17 7.31 5.89 15.841 12.66 20.631 4.66 3.31 10.249.221 14.959-1.359 16.58-6.77 32.642-14.751 48.942-22.121 1.69-1.43 4.709-.18 3.199 2.16-2.82 6.37-6.13 12.55-9.35 18.74-6.78 10.55-7.731 23.981-4.881 35.971 1.7 7.48 10.602 8.57 16.532 11.25 11.05 3.48 22.449 8.48 34.269 6.66 2.67-3 3.389-7.131 5.299-10.561 6.5-9.33 9.35-20.519 14.24-30.689 2.12-3.93 2.441-10.5 8.051-10.74-.57-.13-1.711-.402-2.291-.532 1.11-6.22 2.48-13.399 5.91-18.609-2.86-1.28-4.609-4.26-7.699-5.1-15.18-5.03-31-8.34-46.99-9.06-3.89-.21-5.67-4.56-9.28-5.59-5.26-1.58-9.661-5.19-12.281-10.01-5.24-7.36-5.599-17.54-12.709-23.59zm239.981 145.16c-5.55 1.51-11.04 5.11-12.66 10.93-2.53 11.14-2.351 22.73-.961 34.03 1.07 9.88-1.719 19.53-4.209 28.98h15.558c2.12-6.67 5.86-12.75 6.84-19.77 2.13-5.56 5.691-11 4.371-17.28-2.19-12.52-11.119-23.62-8.939-36.89z" fill="#534c42"/>
    <path id="color6" d="m562.439 489.338c-7.161.121-14.206 2.512-21.429 1.992-3.49.29-8.16-1.299-10.52 2.131-6.03 7.69-11.33 16.019-18.16 23.049-4.12 4.99-11.259 8.611-11.769 15.701 3.81 14 .159 28.568-2.301 42.488-3.65 18.88 2.38 37.582 7.66 55.522 3.1 8.64 5.93 18.409 13.84 23.959 17.73 12.76 37.05 23.329 57.26 31.599 14.71 6.94 30.599-.569 45.349-3.439 5.26-.84 10.231-2.9 15.451-3.91 2.32 2.38 4.05 6.911 8.18 5.881 5.42-1.03 6.72-6.93 9.57-10.75 3.33-2.55 7.791-3.181 11.061-5.911 3.98-2.88 8.628-7.369 13.908-5.349 13.64 3.94 27.462 7.42 40.772 12.41 1.76.28.839 2.729-.301 3.269-16.05 13.18-35.921 20.489-55.821 25.559-4.76.92-8.848 3.71-13.468 5-3.93 1.27-5.431-5.549-9.541-3.559-5.1 1.15-7.351 6.05-10.481 9.61-4.18 2.23-8.929 3.02-13.349 4.66-11.19 4.48-23.32 6.77-35.34 7.09-24.62-2.76-47.009-14.45-68.869-25.34-7.83-3.54-11.501-11.901-15.121-19.141-5.45-10.34-9.899-21.159-13.969-32.109-.06-1.14-1.07-.941-1.84-.961-.17 11.86-.231 23.872 2.389 35.512 3.29 32.12.599 64.429.509 96.629.1 1.85.241 3.941 2.411 4.461 21.89 10.61 44.59 22.128 69.48 22.308 29.45-2.25 59.389-7.419 85.939-20.959 3.38-1.47 8.842-4.161 11.032.369 4.69 8.9 7.778 18.622 12.968 27.272.91-.66 1.831-1.301 2.731-1.971 3.42-11.43 7.57-22.701 10.08-34.461 7.02-13 22.511-19.878 27.971-33.988-1.84-8.41-2.792-17.01-1.862-25.65 2.49-15.18 12.24-27.851 17.42-42.151 10.22 3.63 20.081 9.02 27.711 16.84 8.54 8.22 15.56 17.889 24.68 25.539 6.69 4.6 13.81 8.611 21.41 11.531 19.19 7.61 38.779 14.141 58.359 20.651 3.79 1.08 7.89 3.828 11.75 1.468-1.57-6.79-2.289-13.869-.929-20.759.67-3.92 2.149-7.93 1.189-11.92-3.7-3.39-10.359-5.28-9.849-11.5 1.44-10.53 9.501-18.53 16.871-25.53 17.29-16.11 40.72-22.35 62.99-27.8-18.82-13.41-38.291-25.89-57.801-38.27-8.69-5.32-17.519-11.079-27.689-13.019-13.05-1.03-26.22.879-39.25-.821-14.03-2.19-28.23-5.21-40.91-11.83 6.23-3.75 12.32-9.16 11.32-17.24-.2-3.09-.32-6.18-.57-9.26-7.77 5.84-14.191 13.96-23.381 17.68-5.89-3.78-10.58-9.42-16.5-13.33-8.02-6.43-18.96-3.439-27.85-.779-25.63 7.89-51.68 21.719-64.9 46.119-5.93 10.19-9.66 22.71-5.35 34.22-11.06-5.16-21.83-11.209-30.48-19.939-21.06 13.22-45.951 21.21-70.811 21.59-13.29-24.73-20.468-52.741-21.238-80.781 1.42-31.52 19.639-60.56 44.369-79.34-1.669-.278-3.328-.37-4.981-.342zm662.211 402.51c-.4.009-.82.104-1.27.302-.12 2.02 3.24 2.3 4.81 2.93-.58-1.706-1.81-3.273-3.54-3.232z" fill="#444542"/>
    <path id="color7" d="m706.859 718.311c-.93 8.64.022 17.24 1.862 25.65-5.46 14.11-20.951 20.988-27.971 33.988-2.51 11.76-6.66 23.031-10.08 34.461 11.84-7.86 23.46-16.151 33.99-25.711-1.31-1.38-3.97-2.328-3.4-4.648 7.56-13.86 17.26-27.581 19.57-43.571-3.28-5.45-6.67-10.889-8.56-17.019-.63-2.4-3.551-2.33-5.411-3.15zm-220.75 62.619c-1.61 3.3-5.238.24-7.888.22-.54 3.79-.061 7.65.949 11.33 6.61 11.58 12.22 25.09 24.92 31.28 23.81 11.13 50.401 13.65 76.121 17.22 5.54-1.13 11.079-2.84 16.789-2.66 4.16 1.29 7.229 6.01 12.029 5 4.66-.49 8.201-3.65 11.711-6.42 5.01-2.29 10.589-3.051 15.699-5.121 10.52-5.77 21.64-10.478 31.5-17.398-5.19-8.65-8.278-18.372-12.968-27.272-2.19-4.53-7.652-1.839-11.032-.369-26.55 13.54-56.489 18.709-85.939 20.959-24.89-.18-47.59-11.698-69.48-22.308-2.17-.52-2.311-2.611-2.411-4.461zm253.424 16.758c-1.296.028-2.44.546-3.213 2.042-8.08 12.31-18.639 22.71-27.349 34.52 16.41-1.54 32.699 1.78 49.019 3.02 31.29 3.44 62.731 4.68 94.151 5.75-9.53-7.39-20.102-13.42-29.192-21.36-25.25-8.34-51.43-13.78-76.67-22.31-2-.4-4.585-1.71-6.746-1.662zm-268.414 51.142c-2.27 3.94-4.449 7.94-6.379 12.07 7.11 6.05 7.469 16.23 12.709 23.59 2.62 4.82 7.021 8.43 12.281 10.01 3.61 1.03 5.39 5.38 9.28 5.59 15.99.72 31.81 4.03 46.99 9.06 3.09.84 4.839 3.82 7.699 5.1 7.26-2.13 14.67-3.81 21.67-6.73-21.79-5.15-43.599-10.289-65.209-16.129-.1-.19-.291-.56-.381-.75 9.93-2.75 19.921-5.291 29.801-8.211-11.98-3.12-24.37-4.919-35.75-10.049-12.15-5.72-25.981-11.031-32.711-23.551zm13.397 61.166c-.609-.028-1.267.157-1.795.604-16.3 7.37-32.362 15.351-48.942 22.121-4.71 1.58-10.299 4.669-14.959 1.359-6.77-4.79-9.49-13.321-12.66-20.631-19.26 19.75-37.809 40.32-54.349 62.42-17.11 23.28-27.241 50.741-43.491 74.521-7.97 9.06-15.51 18.6-20.66 29.61h225.061c43.05-35.85 85.269-73.75 135.049-100.199 3.12-1.64 6.421-3.76 10.121-3.08 22.33 2.73 44.159 8.66 65.279 16.33 39.16 13.869 73.74 37.349 109.25 58.389 12.04 7.39 28.27 13.35 32.01 28.56h105.929c14.83-10.11 32.351-20.45 37.691-38.83 1.48-11.54 1.04-23.4-2.16-34.64-2.9-10.271-8.399-19.521-14.009-28.491-13.4-20.54-28.72-39.859-45.25-57.949-41.18 2.9-82.431 4.23-123.631 6.92-36.96.92-73.981 4.9-110.961 2.06-39.48-2.78-78.439-10.04-117.289-17.22-13.14 10.06-28.46 17.891-44.67 21.541-5.61.24-5.931 6.81-8.051 10.74-4.89 10.17-7.74 21.359-14.24 30.689-1.91 3.43-2.629 7.561-5.299 10.561-11.82 1.82-23.219-3.18-34.269-6.66-5.93-2.68-14.832-3.77-16.532-11.25-2.85-11.99-1.899-25.421 4.881-35.971 3.22-6.19 6.53-12.37 9.35-18.74 1.038-1.609-.064-2.702-1.404-2.764z" fill="#425556"/>
    <path id="color8" d="m1030.34 816.662c-5.72-.272-11.12 3.772-14.65 8.127-2 4.01-.72 8.78.82 12.75.63 1.46 1.25 2.942 1.89 4.432 7.64-.19 16.62-2.291 22.49 4.039 8.8 4.41 6.86 15.58 11.21 23.09 4.38 9.85 16.29 14.031 19.42 24.611 1.81 5.62 3.95 11.35 3.82 17.34.11 1.73-1.89 2.419-3.3 2.269-5.33-.02-10.65.19-15.97.45 9.11 9.86 16.74 21.709 28.76 28.349 6.48 4 15.63.061 18.5-6.639 1.37-4.94-.2-10.069-1.75-14.759-10.83-24.23-19.77-49.59-34.57-71.83-1.33-1.98-2.93-4.002-2.69-6.522-8.97-9.31-18.03-19.269-30-24.779-1.33-.572-2.67-.865-3.98-.928zm263.62 12.336c-7.48.256-12.88 8.158-20.14 10.031-19.27 5.67-39.64 3.01-58.96-.99 8.28 12.16 15.2 25.26 21.79 38.41 2.26 4.88 5.51 9.96 4.26 15.59.89-1.44.98-3.909 3.07-4.119 19.84-3.86 40.61-8.23 60.58-2.65 5.83 1.48 13.27 4.781 18.21-.459 2.94-8.36-.59-17.331-3.39-25.291-4.6-11.23-10.25-23.29-21.03-29.79-1.55-.564-3.01-.779-4.39-.732z" fill="#d1c7c0"/>
  </g>
</svg>
