<svg height="1080" width="1920" xmlns="http://www.w3.org/2000/svg">
  <path id="background" d="m0 0h1920v1080h-1920z" fill="#393446"/>
  <g id="transform" transform="translate(0,0) scale(1.00)">
    <path id="color1" d="m1089.96 80.08c5.96 1.97 11.67 4.75 17.82 6.1-5.27-3.37-11.75-4.72-17.82-6.1zm17.2 5.61c.64.411 1.91 1.249 2.54 1.669 53.19 20.851 103.36 49.891 146.88 87.011 32.45 27.04 63.41 55.9 92.24 86.78 38.58 41.74 73.4 87.651 98.01 139.091 14.98 31.429 25.8 65.02 30.01 99.649 4.43 35.911 6.07 73.2-4.46 108.251-6.26 20.929-17.97 40.349-34.34 54.918-20.86 18.751-47.23 29.981-73.76 38.121-49.08 15.29-101.2 19.52-152.31 15.39-22.7-2.12-45.53-5.56-66.98-13.529-9.09-3.7-19.32-8.191-23.21-17.951-7.95-13.16-18.07-25.46-30.32-34.731 8.57 12.02 15.18 25.351 21.5 38.661 2.38 3.91 6.21 6.59 9.6 9.55 17.63 14.32 36.37 27.23 55.58 39.31 20.81 12.45 42.14 26.27 66.82 28.97 43.34 5.79 87.62 5.32 130.73-2.18 36.54-6.58 73.12-19 102.3-42.629 21.32-17.18 37.14-40.891 44.88-67.151 16.7-52.569 12.16-109.6-2.91-161.97-18.69-64.01-51.88-123-91.83-176.07-36.64-48.14-78.85-92.34-127.15-128.9-50.21-38.04-105.79-68.9-164.37-92.02-9.79-3.46-19.3-7.96-29.45-10.24zm-539.457 125.759c-5.839-.09-11.973 2.676-14.673 7.601-3.37 9.32-.18 19.26 1.39 28.62 2.27 2.44 4.7 4.74 7.35 6.771-.33-9.7-5.92-18.941-4.011-28.721 2.591-8.13 12.242-9.18 19.331-10.9-2.486-2.246-5.884-3.321-9.387-3.371zm13.205 7.864c-7.525.211-15.486 5.74-14.538 13.697.14 8.54 1.24 17.029 1.789 25.549 2.48 1.44 5.091 2.641 7.721 3.791-.4-10.8-4.68-21.91-1.08-32.55 2.23-5.82 8.75-7.14 14.18-8.12-2.25-1.718-5.128-2.45-8.072-2.367zm188.012 47.307c4.38 3.42 7.47 8.53 12.78 10.65 5.35 2.33 9.68 6.28 14.3 9.74 3.78-6.42-4.05-9.71-7.81-13.26-6.32-2.67-12.47-5.84-19.27-7.13zm14.039 19.55c1.12 4.37 2.911 8.7 6.121 11.98 6.74-5-1.701-9.64-6.121-11.98zm-166.581 138.053c-2.156.09-4.207.749-5.898 2.287.69 4.08 2.75 7.871 3.1 12.08l.24-.07c12.96-3.969 25.179 5.001 34.19 13.371-3.54-10.38-11.92-19.02-21.169-24.72-2.988-1.644-6.871-3.093-10.463-2.947zm198.534 4.677l-.136.6c-.88 10.38-6.04 20.67-15.617 25.51.76 1.829 2.985 2.88 4.761 3.69 11.744-3.66 18.312-19.51 10.992-29.8zm6.568 12.17c1.176 9.3-4.488 17.45-11.16 23.25 2.56 4.62 7.304.13 9.48-2.461 3.824-5.989 7.512-14.799 1.68-20.789zm-110.89 58.12c-3.88.351-6.76 3.44-8.94 6.39-1.15 4.24.32 8.439 1.791 12.379-.02 12.4-5.281 24.071-7.171 36.182 2.03-.891 4.11-1.701 6.26-2.321 6.5-2.08 13.42-1.7 20.12-2.67-5.49-11.92-10.12-24.24-14.37-36.65-2.24-4.79 4.321-8.19 2.31-13.31z" fill="#bbd531"/>
    <path id="color2" d="m1138.71 95.626c-.69-.02-1.4.06-2.1.304 58.58 23.12 114.16 53.98 164.37 92.02 48.3 36.56 90.51 80.76 127.15 128.9 39.95 53.07 73.14 112.06 91.83 176.07 15.07 52.37 19.61 109.401 2.91 161.97-7.74 26.26-23.56 49.971-44.88 67.151-29.18 23.629-65.76 36.049-102.3 42.629-43.11 7.5-87.39 7.97-130.73 2.18-24.68-2.7-46.01-16.52-66.82-28.97-19.21-12.08-37.95-24.99-55.58-39.31-3.39-2.96-7.22-5.64-9.6-9.55-6.32-13.31-12.93-26.641-21.5-38.661-10.42-10.029-22.72-18.22-36.24-23.4 11.41 11.44 21.82 24.02 29.68 38.2 8.12 15.171 12.14 32.062 16.51 48.582 1.76 6.34 3.55 13.549 9.22 17.579 4.41 1.26 8.94-.159 13.36-.579 12.95.64 23.64 9.049 32.68 17.589 5.67 4.24 11.63 10.2 11.73 17.72-1.34 8.22-11.1 11.48-18.43 10.17-13.8-2.44-26.68-9.76-36.04-20.17-2.43-3.26-9.87-4.751-9.66 1.009.86 9.02 10.37 14.161 12.12 22.891.88 4.94-3.3 10.21-8.57 8.3-1.11-4.44 1.91-10.57-2.35-13.72-4.77.74-8.82 4.5-13.88 3.79.35-4.05 3.46-7.7 2.86-11.77-3.1-4.07-8.02.43-11.78.95 3.18-11.6-7.51-20.48-15.92-26.15-3.21-.42-5.08 4.73-8.61 2.7-9.51-5.6-17-14.36-22.52-23.809-5.85-9.531-3.51-21.88-9.72-31.2-2.45-3.611-7.83-2.391-9.8 1.039-5.9 11.56-3.14 26.62-12.47 36.55-7.838 6.15-22.878 8.17-28.23-2.13-6.24-9.03-9.152-19.77-11.928-30.241-5.872-24.969-9.088-50.629-8.824-76.269-.504-11.769-6.224-22.88-15.208-30.44-14.816-13.47-30.872-25.79-43.512-41.48-9.416-8.63-17.16-18.8-26.536-27.47-6.368-6.76-12.096-14.66-19.784-19.88-3.912.02-6.56-2.699-8.616-5.679-.592 4.529-.96 9.078-1.52 13.618 1.28 3.64 4.216 6.331 6.504 9.361 16.896 21.19 33.536 42.561 49.936 64.121 12.424 17.169 25.56 34.069 34.744 53.289 5.152 10.84 6.328 22.92 9.768 34.3 8.76 29 21.016 56.82 33.768 84.25 4.8 11.76 12.872 22.22 14.856 35.05 1.112 3.92.664 9.94 5.496 11.32 4.04.74 9.416 1.231 12.116-2.609 3.2-5.34 1.72-11.851 1.97-17.741-.66-10.44 2.63-20.7 7.32-29.9 2.24-4.28 6.43-9.39 11.88-7.1 10.68 5.74 19.46 15.259 23.71 26.71 1.81 5.649.47 11.58-.27 17.3-.16 4.889 3.29 10.78 8.71 10.79 3.69.52 6.32-2.459 9.12-4.31.16 2.46.19 4.95.41 7.43 5.35-1.11 7.89-7.99 13.81-7.3-.1 4.61-2.56 9.452-.73 13.94 5.07.272 11.01-.936 14.69 3.584-2.06 4.888-8.9 4.464-13.33 5.984-4.37 2.032-5.68-6.072-9.76-2.896-8.45 4.336-18 5.376-26.96 8.216-5.44 1.92-3.43 11.24 2.52 10.792 10.44-.08 21.12-3.352 31.55-.8 4.85 1.768 9.55 4.92 11.41 9.968 2.16 4.984 6.4 10.664 3.93 16.16-7.95 6.712-19.6 3.984-28.49 8.672-2.86 1.32-2.22 5.312-.82 7.528 4.9 7.792 11.26 15.016 19.53 19.304 8.02 3.808 11.36-8.408 19.16-7.384 5.09.72 9.76 3.2 13.68 6.472 8.5 6.656 16.39 15.672 17.54 26.84-.23 8.432-5.82 18.288-15.22 18.4-9.88-.336-17.57-7.872-23.38-15.152-6.12-8.848-10-19.376-18.17-26.72-5.95-6.48-15.01-8.736-23.48-9.24-19.88.472-40.65-3.36-57.046-15.232-5.6-4.168-4.792-13.176-11.8-16.032-11.192-4.944-21.152-12.816-33.184-15.672-4.904.168-1.912 6.76-.672 9.44 11.184 21.08 32.312 35 53.982 43.688 19.1 8.912 39.19 16.856 55.45 30.648 7.74 6.512 12.22 16.256 13.04 26.272.93 18.776 15.75 32.36 28.82 44.024 4.59 4.144 9.76 8.926 16.24 9.366-1-5.718-4.48-10.846-4.27-16.798-.24-10.4 3.79-22.072 13.68-26.92 7.88-2.4 15.05 2.84 22.72 3.56 10.11 1.816 22.87.56 29.23-8.552 11.06-3.264 27.31-4.032 31.75-16.76-16.47 5.208-35.26.952-49.17-8.96-8.27-6.36-15.9-15.488-16.07-26.4 1.5-3.792 6.63-5.496 6.98-9.968.45-9.192-3.19-18.24-1.77-27.464 3.79 1.88 7.39 4.376 10.22 7.544 1.29 5.336-3.28 9.688-3.98 14.808 5.25-.472 8.25-10.448 14.02-6.04 3.15 6.264-.72 14.232 2.45 20.76 7.12 1.072 14.51-4.52 21.33-.656 4.83 5.056-.31 14.048 5.66 18.576 4.58-1.352 4.73-8.592 9.32-8.8 5.14 8.04 10.36 16.56 11.27 26.304.3 5.576 5.8 8.168 9.89 10.864 13.08 7.152 26.53 13.76 39 22.008 32.14 20.064 60.66 45.204 90.71 68.144-7.3-9.53-16.25-17.75-24.16-26.8-27.84-30.128-56.16-59.816-83.52-90.4-3.76-4.936-8.73-9.68-15.07-10.76-7.15-1.528-14.26-3.96-20.32-8.12-.16-4.04 3.67-7.12 3.57-11.232-5.31-2.328-11.16 4.168-15.82-.168-3.71-9.6-4.41-20.408-9.52-29.52-3.18-2.392-7.41-2.192-11.12-3.088-.37-3.6 0-7.232-.24-10.832-3.18 1.272-5.81 4.68-9.47 4.088-.73-1.92-1.1-3.944-1.79-5.864-2.29.248-4.56.584-6.81 1.016 4.53-13.488 21.16-16.768 33.52-13.872 16.98 4.08 34.55 9.08 48.57 19.904 4.87 3.408 9.63 11.2 3.33 15.68-13.09 2.376-23.77-7.464-34.76-12.792-2.52 1.672-4.76 4.008-5.81 6.88 1.53 4.792 3.31 9.84 7.12 13.336 5.66 6.032 14.6 6.752 20.72 12.176 3.41 2.272 7.48 6.736 11.88 4.304 14.41-10.16 33.33-6.088 48.94-1.216 32.53 11.632 58.5 35.352 86.64 54.528 2.23 1.32 4.86 2.24 7.5 1.864 9.5-1.36 19.17-4.464 28.76-2.552 2.92-.08 6.12-1.568 6.75-4.688-2.47-3.432-6.97-4.184-10.54-5.952-17.34-6.792-33.77-15.712-49.7-25.312-11.55-6.824-23.92-16.32-25.66-30.624-.42-6.832-.63-16.304 6.64-19.712 15.02-8.28 32.57-8.6 48.99-12.032 38.45-6.72 74.21-26.608 101-54.86 31.45-31.03 53.83-70.28 67.89-111.97 18.44-53.06 17.7-110.96 6.64-165.47-7.7-43.86-21.72-86.76-43.05-125.91-25.33-46.22-60.32-86.52-98.93-122.029-83.41-75.031-184.18-128.591-289.23-166.582-2.99-.585-5.99-2.733-9.02-2.833zm-806.171 59.615c-7.153-.03-14.295.153-21.38 1.289 24.56 3.69 48.262 11.94 70.631 22.58 13.291 6.8 26.46 14.28 37.46 24.51 3.54 2.4 5.98 6.97 10.64 7.23-2.48-7.17-6.54-14.32-5.07-22.23 25.73 9.36 50.45 21.71 74.66 34.53 17.46 9.18 34.741 18.72 51.51 29.12 29.971 19.33 58.77 40.86 84.56 65.48 4.31-3.67 8.74-7.21 13.54-10.23-8.66-4.68-15.16-13.02-24.88-15.65-17.351-7.68-32.06-20.1-48.33-29.52-2.63-1.15-5.241-2.351-7.721-3.791-2.24-1.209-4.409-2.529-6.389-4.118-2.65-2.031-5.08-4.331-7.35-6.771-3.78-2.44-6.87-5.669-9.4-9.38-9.22.171-17.04-6.11-21.75-13.57-2.73-4.59-8.1-6.239-12.39-8.93-16.67-9.729-33.77-18.68-50.71-27.92-5.58-2.85-9.9-7.39-14.27-11.75-4.85-4.32-11.35.141-16.85-.979-2.88-2.531-3.6-7.251-7.891-8.211-21.289-8.52-44.609-9.53-67.159-11.65-7.14.25-14.307 0-21.461-.04zm331.555 168.033c-.134 0-.272.02-.414.05-1.72 2.65-2.11 5.86-3.239 8.76-.5 1.209-1.051 2.409-1.611 3.6.1 2.849 2.36 4.889 4.67 6.2 1.52-4.88 1.89-10.031 3.09-14.98.554-2.016-.493-3.733-2.496-3.627zm87.636 75.485c1.51 5.951.369 11.941-1.92 17.511.48.5.98 1 1.49 1.52 4.26.1 6.43 4.09 9.28 6.63 6.31 6.97 13.72 12.73 20.34 19.36-2.28-5.44-5.95-10.13-8.2-15.57-3.47-7.011-4.98-15.44-11.27-20.66-3.26-2.91-5.85-6.62-9.72-8.791zm373.53 432.945c2.65 0 4.8 2.656 6.81 4.224 5.77 5.888 13.98 11.88 13.3 21.12 0 5.984-7.4 7.752-11.93 5.632-6.14-3.328-11.54-8.224-14.87-14.4-2.75-5.888.96-12.624 5.52-16.424.4-.104.79-.152 1.17-.152z" fill="#2b2a28"/>
    <path id="color3" d="m724.672 126.959c-7.759-.09-15.458 1.175-22.782 3.791 10.891.2 23.29-4.79 33.03 1.62-19.93-.4-42.499 6.329-53.03 24.54 8.88-10.42 22.72-14.84 36.13-13.6-2.82 2.649-6.67 3.71-9.77 5.96-10.65 7.46-18.28 19.5-19.709 32.489-10.4 2.36-21.941 6.691-26.461 17.311-7.31 16.5-1.121 35.271 8.279 49.571 2.62-3.12 6.671-3.471 9.531-.461 4.711-.56 9.03 1.47 13.24 3.27 4.57.2 7.08 4.12 6.85 8.409 5.38-.969 10.93-1.599 16.04.891 1.57-1.25 3.099-2.54 4.69-3.76 1.049-.84 2.12-1.66 3.149-2.54.631-2.47 1.141-4.969 1.341-7.509-1.51 1-2.919 2.139-4.31 3.289-.9.74-1.8 1.48-2.749 2.14-4.831 3.09-11.491 2.35-15.951-1.09-4.14-2.85-7.82-6.58-9.81-11.26 8.11.74 17.67-2.04 19.9-10.89-5.25 2.52-11.63 4.82-17.17 1.8-4.011-2.02-2.65-8.57 1.71-9.11 7.72-1.87 15.67-3.11 23.621-3.34 1.7-5.64 1.429-11.61 1.939-17.43.44-7.71 5.9-14.32 12.42-18.03-1.06 5.52-1.299 12.2.941 17.03.22-9.23 5.029-17.44 10.959-24.209-2.89 11.54 1.639 23.149 7.259 33.109 2.911 5.22 2.822 11.811 6.882 16.44 1.109-7.62-1.411-16.27 3.669-22.89 4.269-5.29 9.4-9.85 14.331-14.51-3.32 7.8-3.201 17.59 1.929 24.58-2.35-10.19 1.48-20.36 7.54-28.49 2.229 8.68 5.911 17.04 11.38 24.19 6.47 9.31 2.63 22.111-4.949 29.571-2.831 2.3 2.599 2.079 4.059 2.839-4.32 5.59-11.379 6.68-18.01 6.37.06.41.18 1.231.23 1.64 5.72 1.6 11.71 1.69 17.57.89.09 4.73.47 9.45.78 14.17-2.8.89-5.73 1.2-8.54 2 .23 1.69.5 3.389.411 5.109 1.14-.02 2.259-.159 3.389-.409 2.52-.64 5.07-1.329 7.698-1.409 2.6 10.229 13.392 15.049 22.544 18.018 10.936 1.06 21.792 2.981 32.8 3.521 11.792.06 23.6-.28 35.376.45 5.488.69 11.904 1.831 15.128 6.86 6.112 9.52 6.824 24.82-4.08 31.23 6.432-1.49 12.192-6.259 14.312-12.579.88-3.751.32-7.651.712-11.451 5.16 4.291 8.44 10.35 9.56 16.94 4.16-13.32-2.456-29.04-13.456-37.25-9.792-10.2-22.272-19.25-36.624-21.06 5.592-8.65 14.88-14.559 24.024-19.03 9.456-4.58 19.872.27 27.288 6.44-4.68-7.21-12.576-12.18-20.912-13.93-15.6-1.75-29.016 8.19-41.96 15.39-3.368 2.171-6.848 6.96-11.28 4.76-6.368-2.8-12.952-6.44-16.936-12.309 5.2-5.24 6.008-12.821 9.704-18.971 5.704-22.32 3.256-49.62-14.44-66.18-4.744-3.3-8.048-7.99-11.36-12.61-5.888-7.45-16.76-4.92-24.069-9.9-5.58-3.57-11.889-6.61-18.669-6.35-6.469-.45-12.531 2.669-18.98 2.28-11.34-.32-21.52-7.14-33.01-6.23-1.11-.07-2.22-.108-3.328-.121z" fill="#9f8da8"/>
    <path id="color4" d="m746.7 175.841c-5.93 6.769-10.739 14.979-10.959 24.209-2.24-4.83-2.001-11.51-.941-17.03-6.52 3.71-11.98 10.32-12.42 18.03-.51 5.82-.239 11.79-1.939 17.43-3.951 10.12-4.78 21.91.449 31.75 1.391-1.15 2.8-2.289 4.31-3.289-.2 2.54-.71 5.039-1.341 7.509.351 2.02 1.801 3.69 3.311 5 14.26-3.36 29.03.66 41.75 7.17 6.8 1.29 12.95 4.46 19.27 7.13 1.071-.9 2.091-1.86 3.051-2.891.09-1.72-.181-3.419-.411-5.109 2.81-.8 5.74-1.11 8.54-2-.31-4.72-.689-9.44-.78-14.17-5.86.8-11.85.71-17.57-.89-.05-.409-.17-1.23-.23-1.64 6.631.31 13.69-.78 18.01-6.37-1.46-.76-6.89-.539-4.059-2.839 7.579-7.46 11.419-20.261 4.949-29.571-5.469-7.15-9.151-15.51-11.38-24.19-6.06 8.13-9.89 18.3-7.54 28.49-5.13-6.99-5.249-16.78-1.929-24.58-4.931 4.66-10.062 9.22-14.331 14.51-5.08 6.62-2.56 15.27-3.669 22.89-4.06-4.629-3.971-11.22-6.882-16.44-5.62-9.96-10.149-21.569-7.259-33.109zm-108.982 293.359c-.519-.03-1.053.02-1.588.19-8.76 1.9-17.45 4.17-25.9 7.18-8.5 3.45-16.32 8.58-23.53 14.21 9.61-.77 19.661 1.04 27.541 6.85 18.589 13.49 27.969 39.871 18.959 61.56 8.32-3.9 17.141-6.61 25.541-10.34-.12-2.76-6.42-5.849-7.951-9.76-5.989-12.549-12.01-25.1-18.46-37.41-2.16-3.68 1.24-6.341 4.36-7.47 1.251-2.54 1.19-5.3.54-7.98.52-5.14 3.58-9.64 4.4-14.68-.923-1.35-2.352-2.256-3.912-2.35zm143.082 60.49c-8.95 11.16-22.15 17.92-35.92 21.069-7.2 1.691-16.66 5.331-22.23-1.609-6.7.97-13.62.59-20.12 2.67 1.48 3.87 3.11 7.681 4.67 11.521 3.37 7.129 6.64 14.389 11.17 20.879 12.69-13.19 30.491-20.58 48.071-24.62 7.6-1.5 16.489-1.99 22.659 3.58 1.33-11.72-2.01-23.619-8.3-33.49z" fill="#f8d5bb"/>
    <path id="color5" d="m519.041 208.974c-3.493.249-5.87 4.339-8.161 6.816 4.29 2.691 9.66 4.34 12.39 8.93 4.71 7.46 12.53 13.741 21.75 13.57-1.82-9.029-1.2-18.49 2.93-26.82-8.79-.25-17.8.85-26.3-1.99-.937-.418-1.804-.564-2.609-.506zm-19.561 14.176c-1.58.83-3.14 1.769-4.35 3.109.99 5.251 1.23 10.971 4 15.671 2.92 2.74 5.56-2.131 8.48-1.871 1.94 3.72 4.46 6.991 8.91 7.591 2.98 5.13 9.27 3.6 13.721 6.36 2.2 1 4.609-.31 6.9-.31 2.809 1.34 5.099 5.34 8.639 3.4 1.83-1.19 5.421-2.26 5.21-4.83-16.769-10.4-34.05-19.94-51.51-29.12zm176.192 22.96c-1.913-.104-3.839.776-5.313 2.531-1.6 1.369-2.729 3.179-3.609 5.079 2.66.57 5.4.841 8.02 1.621 1.02 16-1.98 32.269-8.52 46.918-.45 1.62-2.129 2.121-3.46 2.791 1.771 3.61 5.78 3.69 9.2 2.72 4.96-9.51 5.39-20.49 7.08-30.89.72-9.52 2.611-19.2.82-28.7-1.251-1.317-2.731-1.99-4.218-2.07zm17.458 5.34c1.98 7.85.09 15.889-1.04 23.709-2.16 12.02-3.72 24.271-7.84 35.821.5 2.49 8.39.99 8.57-3.1 4.05-15.69 5.4-31.941 7.16-48.021.23-4.289-2.28-8.209-6.85-8.409zm96.75 61.46c6.35 9.64 12.344 19.58 16.52 30.4l1.352.77c-4.272-11.08-9.202-22.921-17.872-31.17zm17.272 31.38c-1.408 3.051 3.32.1 0 0zm1 2.96c-1.432 3.05 3.32.14 0 0zm .968 2.98c-1.48 3.04 3.304.14 0 0zm .976 3.15c-1.848 3.84 3.624 1.09 0 0zm1.064 4.01c-.68 1.151-.64 3.8.832 4.21.64-1.15.6-3.819-.832-4.21zm.448 4.7c.232 6.711.744 14.82-4.88 19.669-5.808 4.46-13.769 4.991-20.718 3.411-1.36-1.6-5.209 1.729-.969 1.14 8.64 1.6 20.031 1.27 25.311-6.93 2.552-5.04 4.04-12.85 1.256-17.29zm-52.008 8.82c4.51 6.98 13.139 10.7 20.659 13.86 2.331 2.68 2.111-1.86.361-1.25-7.9-2.53-14.46-7.73-21.02-12.61zm-36.644 39.539c-2.191-.03-4.395.1-6.566.141-6.46.44-12.9 1.71-18.949 4.01-.56 5.53.189 11.12.918 16.6 10.82-3.35 22.061-5.41 33.441-4.89.05-5.1-.879-10.191-2.359-15.051-2.115-.589-4.294-.779-6.485-.81zm13.514 1.641c1.09 4.92 1.46 9.93 1.72 14.96 6.191 1.39 12.08 3.691 17.92 6.14-.46-5.42-2.69-10.469-4.81-15.4-.51-.52-1.01-1.02-1.49-1.52-4.08-2.33-8.78-3.309-13.34-4.18zm-46.77 5.93c-2.15.83-4.21 1.96-5.9 3.53.63 5.04 1.67 10.02 3.09 14.9 1.76-.66 3.62-1.31 5.069-2.57-.809-5.28-1.909-10.51-2.259-15.86zm-72.297 20.241c-1.188 0-2.385.08-3.583.259l-.24.07c-1.41.65-3.41 1.3-2.37 3.23 2.169 5.7-8.15 6.929-6.78 11.739 3.43 1.69 6.97 6.451 3.94 9.941-3.41 3.92.14 9.11 1.86 13.07 8.45-3.01 17.14-5.28 25.9-7.18 2.14-.65 4.27.359 5.5 2.16-.82 5.039-3.88 9.539-4.4 14.679.65 2.68.711 5.44-.54 7.98 3.24-.41 9.07 1.531 9.34-3.289 2.6-13.88-2.6-28.011-8.76-40.271-3.719-7.638-11.549-12.321-19.867-12.389zm210.197 19.769c-1.44 5.77-4.072 11.11-7.656 15.84 6.616 7.99 13.584 16.21 16.904 26.21 2.112 5.81-5.744 6.63-8.928 9.64 2.4 1.99 5.224 4.91 8.672 3.921 2.272-1.491 2.352-4.571 2.88-6.982.56-4.54.928-9.089 1.52-13.618 2.056 2.98 4.704 5.699 8.616 5.679 1.712-.53 5.136-1.66 3.88-4.09-2.728-4.55-8.616-6.71-9.848-12.31-2.568-9.38-6.088-20.46-16.04-24.29zm-14.896 30.876c-1.848.02-3.68.209-5.432.564-10.742 7.16-15.502 20.3-21.772 31.14-3.03 4.08-1.52 9.11-.43 13.59 6.19.24 9.35-5.65 9.1-11.19-.3-8.48 11.702-5.87 14.606-12.34 1.736-1.85-.856-7.309 3.232-5.829 5.2 3.889 11.712.949 14.536-4.271-.136-2.31-.128-4.62 1.408-6.511-4.072-3.637-9.72-5.198-15.248-5.153zm-230.814 87.124c-2.189.64-6.091 1-4.231 4.17 4.16 11.12-2.949 23.58-14.118 26.77 3.729 1.58 8.529 1.53 11.309-1.8 6.69-7.94 8.971-19.04 7.04-29.14zm258.478 116.67c-.576-.02-1.16 0-1.76.07l.264 1.23c3.832 5.24 8.008 10.359 10.872 16.209-.656 9.21-2.712 19.271-9.656 25.92-4.6 4.411-.08 10.72.88 15.8-2.384-3.769-4.904-7.68-8.776-10.08-5.528-3.72-12.76-2.229-18.536-5.379-6.52-3.24-9.824-10.131-13.264-16.161-2.851 8.02 2.656 16.27 10 19.35 4.64 2.18 9.664 3.28 14.664 4.35 9.296 1.06 11.144 15.741 20.768 14.931.976-6.51-3.848-12.571-2.968-18.881 6.736-8.78 12.896-18.87 12.816-30.33-.544-8.213-6.68-16.81-15.304-17.029z" fill="#dfd8dd"/>
    <path id="color6" d="m855.472 225.782c-2.368.02-4.704.127-6.944.288-3.696 6.15-4.504 13.731-9.704 18.971 3.984 5.869 10.568 9.509 16.936 12.309 4.432 2.2 7.912-2.589 11.28-4.76 4.008-7.069 12.552-10.29 16.568-17.34-6.952-7.743-17.872-9.532-28.136-9.468zm-53.144 43.259c-2.628.08-5.178.769-7.698 1.409 2.24 8.43 6.242 16.24 9.698 24.209 1.928 3.831 3.72 8.3 7.744 10.4 7.448.871 9.728-7.949 15.04-11 16.968-2.14 32.48 12.561 34.448 29.021 5.656-10.25 1.824-23.05-3.888-32.5-11.008-.54-21.864-2.461-32.8-3.521-9.152-2.969-19.944-7.789-22.544-18.018z" fill="#5b2f4c"/>
    <path id="color7" d="m710.175 245.905c-3.358.124-5.706 3.228-7.985 5.375 4.46 3.44 11.12 4.18 15.951 1.09-2.32-2.25-4.271-5.09-7.282-6.45-.233-.02-.46-.02-.684-.02zm10.535 11.085c-1.591 1.22-3.12 2.51-4.69 3.76 1.37 2.07 4.1 1.36 6.2 1.35-.39-1.74-.901-3.439-1.51-5.11zm-61.893 45.908c-3.247.138-6.997 3.309-9.727 4.622-4.8 3.02-9.23 6.56-13.54 10.23-1.46 1.2-3.3 2.64-2.12 4.7 2.63 7.2 4.42 14.751 7.829 21.64 11.32-9.789 18.881-24.64 33.661-30.04 1.96-1.07 5.839-.25 6.09-3.08-3.151-.61-6.129-1.84-9.02-3.2-3.42.97-7.429.89-9.2-2.72-1.124-1.65-2.496-2.214-3.973-2.152zm-29.167 22.843c-1.14 1.269-2.2 3.009-1.25 4.718 3.22 8.32 6.6 16.611 10.62 24.582.89 1.5 2.42 4.479 4.38 2.459 6.25-6.4 9.92-14.82 15.43-21.82.56-1.19 1.111-2.39 1.611-3.6-8.011 4.1-11.151 16.281-20.031 18.561-5.051-7.551-7.95-16.32-10.76-24.9zm-4.56 12.169c-2.48 4.76-.88 10.18 1.2 14.76 4.78 9.5 12.169 17.29 19.069 25.26 4.651.81 5.731-5.88 7.661-9.04 2.56-7.429 9.81-15.39 6.05-23.37-4.61 5.63-8.29 11.96-12.94 17.56-1.21 1.34-2.59 3.19-4.66 2.64-6.7-8.42-9.92-19.81-16.38-27.81z" fill="#ae4e71"/>
    <path id="color8" d="m681.639 248.086c-.577 0-1.16.02-1.749.09 1.791 9.5-.1 19.18-.82 28.7-1.69 10.4-2.12 21.38-7.08 30.89 2.891 1.36 5.869 2.59 9.02 3.2.809 0 2.43 0 3.24 0 4.12-11.55 5.68-23.8 7.84-35.82 1.131-7.82 3.02-15.86 1.04-23.71-3.684-1.574-7.451-3.326-11.491-3.364zm-22.898 300.764c-8.4 3.73-17.221 6.44-25.541 10.34-15.16 10.471-34.01 12.03-51.31 16.84 1.931 10.1-.35 21.2-7.04 29.14 2.23 1.19 4.689.11 6.909-.55 17.5-5.68 32.38-16.86 48.351-25.65 8.2-3.51 16.78-7.931 25.931-7.211 5.089 1.7 5.849 7.761 8.459 11.771 7.74 10.75-.69 23.811 2.11 35.711.449 5.42 2.64 12.019 8.57 13.489 5.23.88 11.68 1.09 15.79-2.85 3.25-3.14 1.67-10.49 7.58-10.46 5.32-1.19 2.969 6.29 2.209 9.18l-.03 1.33c3.631-3.91 4.051-9.83 4.871-14.9.22-15.34-.05-30.7.06-46.04.07-1.98.971-3.789 1.54-5.649-1.56-3.84-3.19-7.651-4.67-11.521-2.15.62-4.23 1.43-6.259 2.321-2.44 3.2-2.14 9.68-7.18 9.9-11.56-1.571-20.61-9.661-30.35-15.191zm197.467 158.653c-.384.02-.616.62-.536 2.227.08 11.46-6.08 21.549-12.816 30.329-.88 6.311 3.944 12.371 2.968 18.882-9.624.809-11.472-13.871-20.768-14.931-5-1.071-10.024-2.171-14.664-4.351-.224.191-.656.571-.864.761 19.928 33.41 45.752 63.22 62.752 98.372 4.4 13.616 13.752 24.768 19.064 37.976 7.56 17.44 10.552 36.352 15.312 54.64.936 2.392.216 6.32 2.936 7.488 1.208-1.256 2.008-5.368 3.752-2.328 4.936 6.032 12.176 11.816 20.512 9.232 9.88-2.4 11.608-14.248 11.088-22.824-.144-4.04 3.912-.376 5.832.216l.856-.432c-3.104-11.488-11.464-20.488-16.288-31.192-6.184-11.488-9.792-24.088-14.824-36.08-2.128-5.536-7.728-8.784-10.04-14.192-1.128-11.328-11.328-18.448-15.088-28.752-11.928-33.683-20.12-68.834-36.016-101.003-.728-1.259-2.32-4.073-3.168-4.038zm97.312 221.521c-.1 2.568-.472 5.128-1.176 7.616-1.336 6.304-3.136 13.12-8.512 17.208-8.264 6.144-20.688 5.672-28.592-.904l-1.048-.09c6.032 9.44 18.92 10.2 28.8 8 12.632-4.784 13.44-20.632 10.528-31.832z" fill="#25242a"/>
    <path id="color9" d="m687.756 322.175c-.411.02-.844.111-1.297.255-4.56 2.65-3.839 12.96 2.421 12.58 6.487-1.294 5.047-13.249-1.124-12.835zm-2.318 32.753c-.625 0-1.312.129-2.058.422-4.18 2.6-3.91 11.69 1.61 12.5 6.78-.272 6.487-12.888.448-12.922zm-1.264 35.098c-.552-.02-1.16.08-1.824.315-2.59 3.269-2.951 11.749 2.46 12.369 4.803-1.677 4.696-12.519-.636-12.684zm-26.974 15.515c-1.77 2.84-2.199 7.889-.41 10.389.3-3 1.39-9.549.41-10.389zm26.6 16.009c-5.06.43-12.19 1.849-10.79 8.609-5-6.669-10.391 1.021-16.551.291-4.24 3.21-1.349 9.471-.589 13.74 1.62 5.551 8.22.89 12.13 2.51 4.12 1.68 7.2-1.71 7.38-5.6 4.38 1.9 8.801-1.42 11.51-4.65-1.42-4.88-2.46-9.86-3.09-14.9zm-4.61 3.56c3.291.249 2.049 7.64 3.72 10.81-5.34 5.32-8.329-8.741-3.72-10.81zm-21.68 8.432c4.304.169 2.269 7.146 3.52 10.608-5.29.63-3.931-6.89-5.071-10.43.592-.139 1.105-.195 1.551-.178zm34.323 9.672c-.427-.03-.886 0-1.374.106-4.829 2.22-4.909 10.28-.309 12.58 7.716 1.997 8.093-12.249 1.683-12.686zm-32.266 6.73c-.389 0-.805.05-1.247.176-3.52 2.75-2.69 8.56 0 11.61 7.106 2.784 7.094-11.666 1.247-11.786zm7.043 169.297c-.3.05-.9.139-1.19.189-2.17 10.72 5.39 24.68 17.59 23.529 8.769.511 14.88-6.889 17.749-14.359.76-2.89 3.111-10.37-2.209-9.18-5.91-.03-4.33 7.32-7.58 10.46-4.11 3.94-10.56 3.73-15.79 2.85-5.93-1.47-8.121-8.069-8.57-13.489zm279.614 301.871c-.8-.08-1.336.352-1.28 1.864.52 8.576-1.208 20.424-11.088 22.824-8.336 2.576-15.576-3.2-20.512-9.232-1.744-3.04-2.544 1.072-3.752 2.328-.16 5.28 1.92 10.328 5.648 14.048 7.904 6.576 20.328 7.048 28.592.904 5.376-4.088 7.176-10.904 8.512-17.208-1.08-4.36.728-9.6-1.568-13.448-1.2-.368-3.232-1.936-4.552-2.08z" fill="#d1ac75"/>
    <path id="color10" d="m590.318 490.616c-1.209.02-2.416.06-3.618.164-10.89 3.23-20.02 10.36-29.13 16.87-20.63 19.1-39.3 40.211-56.57 62.391-4.35 6.2-1.83 13.98-.541 20.749 3.1 9.82 7.571 21.949 18.561 25.02 15.43 3.58 30.441-3.39 44.521-8.84 11.169-3.19 18.278-15.65 14.118-26.77-1.86-3.17 2.042-3.53 4.231-4.17 17.3-4.81 36.15-6.369 51.31-16.84 9.01-21.689-.37-48.07-18.959-61.56-6.895-5.084-15.453-7.104-23.923-7.014zm185.005 67.989c-3.001 0-6.033.433-8.882.995-17.58 4.04-35.381 11.43-48.071 24.62-.57 3.44 1.88 6.34 3.2 9.31 14.15 28.52 28.66 56.85 44.72 84.34 9.44 15.75 27.431 24.82 34.102 42.44 3.44 6.029 6.744 12.92 13.264 16.16 5.776 3.15 13.008 1.66 18.536 5.38 3.872 2.4 6.392 6.31 8.776 10.08-.96-5.08-5.48-11.39-.88-15.8 6.944-6.65 9-16.711 9.656-25.92-2.864-5.851-7.04-10.97-10.872-16.21-4.392-6.19-9.888-11.499-14.328-17.61-11.824-20.74-14.264-45.04-21.672-67.431-5.142-15.08-5.372-31.939-13.772-45.779-3.856-3.482-8.774-4.595-13.777-4.575z" fill="#433d49"/>
  </g>
</svg>
