<svg height="1080" width="1920" xmlns="http://www.w3.org/2000/svg">
  <path id="background" d="m0 0h1920v1080h-1920z" fill="#bc6850"/>
  <g id="transform" transform="translate(0,0) scale(1.00)">
    <path id="color1" d="m102.529 101.061c-3.6297 9.74-7.2299 19.509-12.9899 28.269 5.37 27.59 12.4899 55.079 24.6499 80.529 8.47 18.3 20.481 34.61 31.961 51.08 21.13 30.88 50.341 58.061 86.901 68.801-12.48-.85-24.961-3.05-36.901-6.74-21.55-10.59-43-21.7-62.72-35.48-32.08-23.88-54.9501-59.08-65.7601-97.42-2.78-8.05-3.94-16.52-6.25-24.7-5.01 7.16-12.56 15.27-9.25 24.67 5.54 33.76 19.6896 67.09 45.0996 90.67 32.0705 29.43 74.8595 42.059 115.5895 54.369 32.49 4.89 65.252 7.911 98.112 8.741 37.59 2.14 75.21-2.691 111.91-10.561 54.99-11.3 111.189-20.438 162.699-43.818 6.81-2.7 13.11-6.681 20.16-8.741-3.35-4.4 4.501-3.809 7.151-4.169 8.81-3.6 16.9-8.921 25.99-11.831-6.43-2.85-12.281-6.949-16.731-12.429-6.61 4.5-13.59 8.44-20.57 12.33-7.71 4.37-15.44 9.809-24 11.949-4.18 3.61-9.77 4.89-14.81 6.84-3.71 1.73-7.84 4.381-12.04 2.791-7.39-2.64-15.031-4.491-22.621-6.441-9.01-1.41-18.028-5.749-27.228-3.709-3.2 3.86-2.622 8.879-2.182 13.509 10.3-.02 20.38 2.36 30.25 5.1-10.07 3.58-20.57 5.9-31 8.25-14.42 3.33-28.71 7.21-43.17 10.34-3.59 1-7.14 2.11-10.75 3.01-44.54 10.62-89.969 20.761-136.049 18.441-21-1.55-42.069-2.381-63.009-4.731-19.43-2.83-35.062-16.069-47.692-30.259-47.36-57.27-75.12-127.73-94.75-198.66zm517.934 94.294c-.341-.022-.763-.015-1.274.026-1.39.15-2.769.45-4.089.83-2.4 6.328 10.476-.512 5.363-.856zm1.037 5.143c-.29.002-.628.028-1.02.082-2.01.74-5.06 1.35-4.23 4.18 3.028 1.172 9.599-4.291 5.25-4.262zm102.619 14.316c-29.15.176-56.75 12.158-82.109 25.686-4.91 3.44-10.301 6.111-15.321 9.381 7.35 3.22 15.121 5.46 22.141 9.43 4.74-2.07 9.471-4.181 14.141-6.411.24-2.67 2.56-5.48 4.16-1.8 19.68-8.08 39.819-15.55 60.859-19.18 9.74-1.48 19.06 2.82 26.69 8.5-2.35-11.9-11.219-25.441-24.709-25.481-1.957-.096-3.909-.136-5.852-.125zm16.319 48.397c-4.275.08-8.577.702-12.627 1.478-13.43 2.56-26.511 6.87-38.991 12.43 4.33 5.36 9.77 9.64 14.69 14.42 12.96-5.13 26.8-9.509 40.82-9.799-5.07 6.21-11.72 11.14-18.66 15.09.26 2.87.839 5.731 2.019 8.381 4.32-1.46 8.53-3.511 13.1-4.111 1.31 1.88 2.242 3.981 3.262 6.041 5.24-3.65 10.319-8.001 13.209-13.821 3.54-7.55 2.89-16.101 3.01-24.211-5.663-4.662-12.708-6.032-19.832-5.898zm-111.749 43.139c-38.87 18.67-81.369 28.759-123.839 35.339-61.26 10.67-123.589 16.661-185.799 13.561-8.2-.3-16.37-1.22-24.58-1.26 4.68 1.8 9.68 2.299 14.58 3.209 40.36 6.49 81.389 8.891 122.209 6.901 1.94-.05 3.89-.101 5.84-.161 10.35-.8 20.7-1.779 31.08-2.119 6.22-1.51 12.65-1.67 19-2.22 38.35-4.93 76.411-12.46 113.201-24.51 4.4-1.58 8.74-3.339 13.25-4.619.97-.33 1.94-.66 2.92-1 4.16-1.89 8.439-3.481 12.719-5.061.1-.04.29-.12.38-.16 4.35-2.03 8.84-3.729 13.26-5.619 5.7-2.64 11.27-5.561 17.11-7.871-10.12-3.45-21.721.61-31.331-4.41zm59.631 11.73c-5.8 2.61-11.94 4.311-17.99 6.221 2.93 4.28 4.81 10.059 10.66 10.939 4.95-.4 9.611-2.229 14.221-3.939.02-2.07.769-3.98 1.959-5.66-1.98-3.4-5.11-6.271-8.85-7.561zm-288.31 103.9c-5.7 1.58-11.049 4.181-16.619 6.151-4.05 3.38-9.131 5.059-13.721 7.519-23.65 10.78-47.11 22.08-69.33 35.62-2.63 1.69-5.24 3.43-7.85 5.16-34.49 21.34-61.14 52.28-87.66 82.41-30.7 36.11-59.65 74.52-78.76 118.17-19.65 46.39-33.7098 95.58-37.1598 146.01-1.39 6.33 1.8003 12.42 7.9003 14.64 33.7505 19.5 75.8285 21.18 112.3085 8.68 39.48-13.73 76.561-34.17 117.391-44 32.22-8.11 65.691-7.18 98.621-6.16-6.13-21.5-9.721-43.731-10.471-66.071-.24-3.16-.47-8.079-4.67-8.209-11.6-.08-23.241.111-34.791 1.241-5.63.33-11.219 1.17-16.859 1.32-29.43 3.93-59.31 9.2-86.01 22.85-22.72 10.81-43.379 25.409-63.119 40.919-2.57 2.1-5.11 4.319-8.16 5.719 4.91-24.22 11.079-48.259 17.859-72.049 13.03-46.11 32.891-90.43 59.891-130.07 2.97-4.23 5.878-8.54 9.488-12.25 1.5-13.11 3.54-26.199 7.65-38.779-34.65 35.38-60.79 78.168-81.07 123.148-22.37 49.6-41.838 101.451-48.148 155.811-7.46 5.38-16.871 6.141-25.491 8.551-10 1.79-19.88 6.06-30.21 4.41 3.68-59.34 26.441-115.88 55.531-167.16 28.35-50.38 62.05-98.04 103.01-139.01 22.92-23.31 47.838-44.941 75.718-62.141 3.69-2.28 7.471-4.471 10.721-7.371 14.22-12.24 30.02-22.539 44.01-35.059zm-86.24 103.059c-8.66 13.5-15.42 28.42-19.35 44 3.76-1.84 5.801-5.639 8.711-8.449 2.91-12.04 6.219-23.971 10.639-35.551zm406.25 231.75c-22.39 4.53-42.589 16.302-61.059 29.342-7.56 5.95-15.572 11.89-20.922 20.01-1.23 2.18.961 2.55 2.041.92 10.57-11.71 23.669-20.801 37.109-28.911 13.82-7.95 28.241-15.28 43.821-19.08-.24-.57-.74-1.711-.99-2.281zm-214.653 29.596c-18.854-.053-37.883 4.062-55.377 10.654.05.59.14 1.762.19 2.352 22.17-6.91 45.581-11.86 68.881-8.84 9.8.85 19.159 3.949 28.529 6.719.16-.6.49-1.801.65-2.401-13.65-5.88-28.208-8.443-42.873-8.484zm-343.637 97.234c1.1 1.12 2.121 2.39 3.571 3.07 31.05 15.64 64.02 27.081 97.34 36.811 52.65 14.74 105.769 27.931 159.439 38.381 8.64 1.29 17.21 2.91 25.82 4.34 6.76.96 13.529 1.799 20.289 2.759 10.59.78 21.191 2.46 31.821 1.85 3.76-.54 3.27-5.06 2.74-7.81-3.65-17.94-9.32-35.521-17.34-51.981-44.7-9.39-89.56-19.969-135.43-21.359-32.64-.7-64.969 4.53-97.349 7.8-30.99 2.52-61.301-5.811-90.901-13.861z" fill="#d15936"/>
    <path id="color2" d="m558.955 124.359c-14.888.138-29.85 4.497-42.574 12.032-15.59 9.1-34.23 9.42-51.75 8.83 10.17 4.46 21.349 6.359 32.379 7.109-12.65 13.72-26.381 27.019-43.391 35.199-6.61 3.39-13.739 5.511-20.629 8.221 11.29-.49 22.31-3.251 33.01-6.721-5.26 8.62-11.649 16.732-15.199 26.282 9.79-10.92 18.958-22.581 30.138-32.211-3 8.43-5.999 16.87-8.349 25.49-13.81 12.62-26.401 27.36-33.891 44.66 8.86-9.91 17.81-20.571 30.08-26.381-4.11 9.44-10.469 17.612-16.039 26.182 2.1-1.43 4.11-3.001 6.24-4.391-2.82 7.28-7.01 14.38-6.98 22.42 5.9-9.32 11.589-18.909 19.039-27.119-10.74 23.55-22.339 46.988-29.129 72.078.53.06 1.589.171 2.119.231 3.61-.9 7.16-2.01 10.75-3.01 7.56-20.54 17.302-40.32 27.932-59.44.9 4.14 1.32 8.42 2.84 12.41 2.21-8.72 3.369-17.739 6.179-26.339.14 10.95-2.209 21.969-.669 32.879 2.99 1.78 6.46 2.511 9.82 3.291 9.2-2.04 18.218 2.299 27.228 3.709-9.95-7.09-21.659-14.95-24.189-27.79-2.74-10.92-6.03-21.83-7.17-33.05 1.84-3.66 4.639-6.75 7.199-9.92-.38 5.97-3.51 11.209-4.92 16.929 4.42-6.67 8.151-13.749 11.821-20.849-1.87 6.58-4.059 13.121-4.719 19.961 10.28-19.99 20.159-40.34 32.639-59.08-2.32 17.44-7.021 34.459-12.661 51.099 11.82-14.71 17.511-33.21 22.121-51.22 3.37 4.23 5.34 9.379 7.92 14.099 4.54 9.93 10.3 19.842 10.76 31.012.3 17.12-1.779 34.17-4.699 51.01 4.61-10.01 8.3-20.422 11.59-30.932-2.1 17.76-5.511 35.351-11.031 52.381 5.04-1.95 10.63-3.23 14.81-6.84 8.43-21.21 13.16-43.78 14.9-66.51 1.43 11.3 1.15 22.721.79 34.071 4.69-10.12 2.861-23.13 11.781-31.08 2.78-2.34 5.58-6.551 9.66-5.721 7.18 15.69.349 37.54-16.201 44.26-.49 4.52 1.7 8.831 3.07 13.031 6.98-3.89 13.96-7.83 20.57-12.33-2.94-4.9 1.049-4.28 4.539-2.42 5.02-3.27 10.411-5.941 15.321-9.381-4.24-19.72-7.31-39.68-11.09-59.49-4.55-22.65-21.86-40.89-42.25-50.67-9.376-4.193-19.528-6.075-29.715-5.981zm61.508 70.996c5.113.344-7.763 7.184-5.363.856 1.32-.38 2.699-.68 4.089-.83.511-.041.933-.048 1.274-.026zm1.037 5.143c4.349-.029-2.222 5.434-5.25 4.262-.83-2.83 2.22-3.44 4.23-4.18.392-.054.73-.08 1.02-.082zm-134.32 159.102c-6.35.55-12.78.71-19 2.22-8.59 7.58-15.57 17.281-26.19 22.231-31.59 16.87-67.7 22.079-102.82 26.269-19.2 1.93-38.71 2.169-57.77-1.211-2.74-.37-5.429-.969-8.089-1.699-18.05-3.62-34.861-11.69-50.311-21.51 13.97 14.66 33.67 22.02 52.68 27.7 2.76.58 5.51 1.231 8.24 1.951 47.49 8.76 96.919 2.359 141.949-14.401-3.82 3.11-7.418 6.629-11.908 8.789-21.14 10.57-44.391 15.511-67.051 21.641-18.02 5.18-35.6 11.811-52.56 19.801-2.73 1.45-5.45 2.9-8.18 4.33-15.57 8.72-31.099 18.408-43.279 31.578 13.97-10.55 28.29-20.939 44.58-27.689 2.73-1.31 5.529-2.45 8.369-3.52 28.28-12 58.201-19.189 87.551-27.949 5.57-1.97 10.919-4.571 16.619-6.151-13.99 12.52-29.79 22.819-44.01 35.059-3.25 2.9-7.031 5.091-10.721 7.371 1.43 1.76-1.56 3.119-2.41 4.459-21.17 19.69-37.99 44.322-46.93 71.932-4.11 12.58-6.15 25.669-7.65 38.779-.13 7.82-.759 15.669.231 23.459.47-11.51 2.28-23.05 5.9-34 3.93-15.58 10.69-30.5 19.35-44-4.42 11.58-7.729 23.511-10.639 35.551-2.45 15.98-4.982 32.11-4.762 48.32 2.68-17.31 7.831-34.28 15.401-50.09 2.41-5.17 4.989-10.25 7.919-15.15.93-1.7 1.962-3.341 3.122-4.891-.24 2.9-.961 5.722-1.641 8.532-1.79 8.98-3.58 17.968-5.27 26.968.11.44.32 1.332.42 1.772 1.52-7.35 3.861-14.531 6.741-21.451 1.89-4.68 3.769-9.45 6.679-13.61-1.41 7.45-2.52 14.949-3.59 22.459.09 1.76.051 3.592.741 5.262 5.7-20.62 19.039-38.581 34.029-53.551-13.01 25.66-20.791 54.339-20.131 83.209 1.72-.17 1.381-2.25 1.881-3.42 4.4-20.6 10.469-41.149 20.279-59.849-4.64 14.29-8.528 29.199-7.978 44.339 1.38-1.45 2.818-2.849 4.058-4.419 17.97-24.42 37.352-47.889 53.182-73.799 5.32-8.25 7.309-18.511 14.469-25.541 4.13-4.57 8.599-9.071 11.099-14.811 15.93-33.69 31.851-67.419 47.401-101.269zm-50.08 4.339c-1.95.06-3.9.111-5.84.161.03 7.65-.539 15.319.291 22.939 2.34-7.53 3.069-15.55 5.549-23.1zm91.98 47.782c-4.49 3.15-6.481 8.499-9.381 12.949-12.13 20.88-25.659 40.879-39.099 60.939-4.44 6.07-7.859 12.822-10.049 20.022-1.45 5.01-6.051 7.849-9.071 11.779-16.05 32.49-36.11 62.96-53.57 94.74 18.53-.82 35.349-9.05 51.959-16.5-6.63-11.41-9.659-24.73-13.289-37.38-1.23-2.5 1.56-3.67 3.51-4.18 27.7-8.08 56.489-13.1 82.939-24.99 11.82-5.33 11.34-20.64 20.76-28.33 3.7-2.32.2-6.099-.35-9.139-1.62-4.67 4.691-8.19 2.721-12.74-7.79-18.15-15.249-36.45-22.029-55-1.61-4.08-2.521-8.52-5.051-12.17zm-141.68 204.049c.16 8.03 1.94 15.979 3.78 23.769 1.17 3.71 2.061 7.491 2.871 11.301.88 3.9 4.769 10.48-1.041 12.24-4.05-1.06-5.949-5.69-10.209-6.41.75 5.1 4.388 9.121 7.818 12.711 11.43 10.87 25.821 18.828 41.371 21.808-4.67-3.15-10.15-4.989-14.41-8.779-9.77-6.88-14.66-18.281-19.06-28.971-5.1-12.15-6.01-25.529-11.12-37.669z" fill="#422f31"/>
    <path id="color3" d="m89.5391 129.33c-8.82 12.45-20.0092 23.14-28.1192 36.07 2.31 8.18 3.47 16.65 6.25 24.7 10.81 38.34 33.6801 73.54 65.7601 97.42 19.72 13.78 41.17 24.89 62.72 35.48 11.94 3.69 24.421 5.89 36.901 6.74-36.56-10.74-65.771-37.921-86.901-68.801-11.48-16.47-23.491-32.78-31.961-51.08-12.16-25.45-19.2799-52.939-24.6499-80.529zm642.0819 102.297c-1.202.013-2.413.108-3.631.293-21.04 3.63-41.179 11.1-60.859 19.18 3.52 11.5 14.579 17.169 21.689 26.019 12.48-5.56 25.561-9.87 38.991-12.43 10.8-2.07 23.399-3.04 32.459 4.42-.22-9.7-.97-19.989-5.59-28.689-6.677-4.97-14.646-8.884-23.059-8.793zm-68.65 21.273c-4.67 2.23-9.401 4.341-14.141 6.411 5.19 2.85 10.649 5.17 16.119 7.41-1.05-4.55-2.128-9.121-1.978-13.821zm-24.09 11.83c-9.09 2.91-17.18 8.231-25.99 11.831 14.49-2.21 29.139-2.03 43.709-.68-4.7-5.33-11.639-7.791-17.719-11.151zm-33.141 16c-7.05 2.06-13.35 6.041-20.16 8.741-51.51 23.38-107.709 32.518-162.699 43.818-36.7 7.87-74.32 12.701-111.91 10.561-32.86-.83-65.622-3.851-98.112-8.741 26.92 7.35 53.862 15.441 81.612 18.881 8.21.04 16.38.96 24.58 1.26 62.21 3.1 124.539-2.891 185.799-13.561 42.47-6.58 84.969-16.669 123.839-35.339-3.99-3.76-14.999 1.979-15.459-4.991 13.65-4.53 28.13-5.7 41.95-9.33-.76-2.63-2.109-5.729-5.219-6.009-14.58-2.86-30.261.99-44.221-5.29zm138.59 1.01c-14.02.29-27.86 4.669-40.82 9.799 3.8 3.62 7.11 7.701 10.76 11.471 3.57-2.19 6.85-6.78 11.4-6.18 6.94-3.95 13.59-8.88 18.66-15.09zm-245.631 7.83c-.35 4.44-.42 8.9-.75 13.35 10.43-2.35 20.93-4.67 31-8.25-9.87-2.74-19.95-5.12-30.25-5.1zm242.09 11.53c-4.57.6-8.78 2.651-13.1 4.111.72 2.1 1.9 4.109 2.1 6.369-8.44 7.64-16.238 15.951-23.488 24.731-2.31 3.35-7.942 4.139-8.762-.821-4.08 4.99 2.061 9.89 3.611 14.61-5.9-2.68-9.95-8.181-16-10.571-1.93-.8-2.86-2.809-4.16-4.289-5.85-.88-7.73-6.659-10.66-10.939 6.05-1.91 12.19-3.611 17.99-6.221-9.51-2.12-19.07-4.12-28.3-7.32-5.84 2.31-11.41 5.231-17.11 7.871.28 1.45.579 2.909.869 4.379 5.3-3.07 11.241 1.31 16.391 3.01.68 5.68 1.62 12.589-1.33 17.849-5.61.14-10.999-2.079-16.629-1.639 1.21.9 2.46 1.771 3.75 2.581.41.18 1.209.548 1.609.728 5.43 2.16 8.101 7.891 11.811 12.061 2.79 3.06.918 6.95-1.092 9.83 1.77 3.79 3.481 7.631 4.721 11.631-3.29-2.35-6.11-5.271-9.33-7.711-6.18 4.42-6.841-4.87-11.071-7.08-2.45-2.1-7.019-2.509-7.529-6.219-1.79-1.56-3.79-2.83-5.73-4.16-.41 6.39.029 13.42-3.491 19.07-3.38-.72-3.068-6.991-6.398-8.811-1.51 1.39-2.55 5.091-5.16 3.561-4.55-2.42-9.26-4.481-14.16-6.051.76-1.13 1.629-2.181 2.429-3.291-2.89-.69-6.01-.839-8.58-2.439.1-3.22 3.3-5.48 3.83-8.66-2.09-2.13-3.711-5.331-1.711-8.081 2.34-1.6 5.491-1.35 8.221-1.9-1.34-.73-2.639-1.469-3.949-2.199-36.79 12.05-74.851 19.58-113.201 24.51-15.55 33.85-31.471 67.579-47.401 101.269-2.5 5.74-6.969 10.241-11.099 14.811-7.16 7.03-9.149 17.291-14.469 25.541-15.83 25.91-35.212 49.379-53.182 73.799-1.24 1.57-2.678 2.969-4.058 4.419-4.76 9.03-11.531 16.871-16.491 25.821-1.11 2.37-2.96 4.591-3.13 7.291 2.22 2.94 5.37 4.978 8.05 7.478 1.29-3.56 4.53.14 6.6 1 11.67 7.79 25.179 14.131 34.289 24.901 2.12-1.72 3.611-4.021 4.891-6.391-1.84-7.79-3.62-15.739-3.78-23.769 6.71-1.86 13.65-2.57 20.51-3.62 17.46-31.78 37.52-62.25 53.57-94.74 3.02-3.93 7.621-6.769 9.071-11.779 2.19-7.2 5.609-13.952 10.049-20.022 13.44-20.06 26.969-40.059 39.099-60.939 2.9-4.45 4.891-9.799 9.381-12.949 2.53 3.65 3.441 8.09 5.051 12.17 6.78 18.55 14.239 36.85 22.029 55 1.97 4.55-4.341 8.07-2.721 12.74.55 3.04 4.05 6.819.35 9.139-9.42 7.69-8.94 23-20.76 28.33-26.45 11.89-55.239 16.91-82.939 24.99-1.95.51-4.74 1.68-3.51 4.18 3.63 12.65 6.659 25.97 13.289 37.38 5.91-2.61 11.591-5.701 17.471-8.361 2.12-.98 3.079 2 4.359 3.15 10.36 14.05 21.332 27.801 34.772 39.071 25.76 21.97 57.02 35.891 87.92 48.961 1.45.56 3.49 1.079 4.41-.621 15.32-20.82 25.099-44.99 36.199-68.12.63 24.04 3.03 48.31 10.17 71.34 11.62-.04 21-9.33 28.51-17.41 6.98-9.66 14.09-20.659 15.4-32.529-6.26-3.35-14.22-3.711-21-6.371 6.13-12.8-4.729-25.67-1.199-38.77 5.32-23.22 12.18-46.221 14.25-70.041 2.67-32.57 1.409-65.288.039-97.888 25.84 7.21 49.461 20.409 74.721 29.209 8.27 1.69 16.759-.701 24.789-2.661 5.51-.97 7.4-6.75 9.84-10.99 1.87-3.4 4.009-7.429 2.099-11.299-16.78-39.75-40.738-75.929-58.568-115.179-1.02-2.06-1.952-4.161-3.262-6.041zm-79.324 85.871c2.413-.053 2.581 3.951 1.295 5.789-3.42 1.23-3.761-3.42-2.471-5.5.439-.191.831-.282 1.176-.289zm-316.186 77.439c-27.88 17.2-52.798 38.831-75.718 62.141-40.96 40.97-74.66 88.63-103.01 139.01-29.09 51.28-51.851 107.82-55.531 167.16 10.33 1.65 20.21-2.62 30.21-4.41 8.62-2.41 18.031-3.171 25.491-8.551 6.31-54.36 25.778-106.211 48.148-155.811 20.28-44.98 46.42-87.768 81.07-123.148 8.94-27.61 25.76-52.242 46.93-71.932.85-1.34 3.84-2.699 2.41-4.459zm312.071 21.891c3.73.25 3.75 7.69.58 9-3.33-1.27-3.12-7-.58-9zm-9.18 94.918c4.081-.119 4.166 8.968.051 9.511-3.16-1.82-2.81-6.701-.92-9.361.307-.095.597-.142.869-.15zm-98.199 133.531c-.33 1.76-.491 3.559-.551 5.369 1.4 18.19 1.761 36.462.641 54.682 27.71 32.92 54.459 66.69 79.169 101.92 2.26 3.88 6.65.64 9.43-.76-1.73-1.56-4.039-3.291-3.439-5.961 3.39-12.3 12.939-21.57 22.869-28.98-7.43-13.61-17.599-25.67-23.699-40.03-18.44-25.29-35.66-51.541-50.01-79.381-3.48-2.72-8.42-1.498-12.24-3.638-6.75-3.77-14.74-2.791-22.17-3.221zm-155.817 80.773c-22.751-.061-45.493 1.241-67.644 6.817-40.83 9.83-77.911 30.27-117.391 44-36.48 12.5-78.558 10.82-112.3085-8.68l-1.2402.34c16.1497 16.42 35.5797 29.43 55.4397 40.99 3.32 2.09 7.07 3.279 10.72 4.629 29.6 8.05 59.911 16.381 90.901 13.861 32.38-3.27 64.709-8.5 97.349-7.8 45.87 1.39 90.73 11.969 135.43 21.359-8.46-17.9-16.75-36-28.57-52-13.59-19.25-25.039-40.169-31.709-62.859-10.291-.319-20.635-.629-30.977-.657zm139.856 193.288c-4.86 2.75-12.471-.121-15.571 5.039.9 28.7.842 57.43.782 86.15h13.959c1.12-27.7 2.36-55.39 4.08-83.051.07-2.97.77-7.608-3.25-8.138zm-27.112 3.931c-13.941-.187-28.04 3.442-41.869 1.248-.46.12-1.389.361-1.849.481-1.32 6.439-1.19 13.109-1.42 19.659 6.32 21.98 12.799 43.91 19.189 65.87h36.051c.54-28.8.14-57.61-.48-86.4-3.195-.569-6.404-.815-9.622-.858z" fill="#232227"/>
    <path id="color4" d="m548.23 165.85c-4.61 18.01-10.301 36.51-22.121 51.22 5.64-16.64 10.341-33.659 12.661-51.099-12.48 18.74-22.359 39.09-32.639 59.08.66-6.84 2.849-13.381 4.719-19.961-3.67 7.1-7.401 14.179-11.821 20.849 1.41-5.72 4.54-10.959 4.92-16.929-2.56 3.17-5.359 6.26-7.199 9.92 1.14 11.22 4.43 22.13 7.17 33.05 2.53 12.84 14.239 20.7 24.189 27.79 7.59 1.95 15.231 3.801 22.621 6.441 4.2 1.59 8.33-1.061 12.04-2.791 5.52-17.03 8.931-34.621 11.031-52.381-3.29 10.51-6.98 20.922-11.59 30.932 2.92-16.84 4.999-33.89 4.699-51.01-.46-11.17-6.22-21.082-10.76-31.012-2.58-4.72-4.55-9.869-7.92-14.099zm65.729 41.392c-3.68-.213-6.302 3.625-8.908 5.819-8.92 7.95-7.091 20.96-11.781 31.08.36-11.35.64-22.771-.79-34.071-1.74 22.73-6.47 45.3-14.9 66.51 8.56-2.14 16.29-7.579 24-11.949-1.37-4.2-3.56-8.511-3.07-13.031 16.55-6.72 23.381-28.57 16.201-44.26-.255-.052-.507-.084-.752-.098zm8.486 41.268c-1.409.025-1.948 1.035-.295 3.791 4.45 5.48 10.301 9.579 16.731 12.429 6.08 3.36 13.019 5.821 17.719 11.151-14.57-1.35-29.219-1.53-43.709.68-2.65.36-10.501-.231-7.151 4.169 13.96 6.28 29.641 2.43 44.221 5.29 3.11.28 4.459 3.379 5.219 6.009-13.82 3.63-28.3 4.8-41.95 9.33.46 6.97 11.469 1.231 15.459 4.991 9.61 5.02 21.211.96 31.331 4.41 9.23 3.2 18.79 5.2 28.3 7.32 3.74 1.29 6.87 4.161 8.85 7.561 2.99 2.85 5.619-.682 7.529-2.942 3.94-4.81 7.62-9.83 11.17-14.92 1.57-1.71-.859-3.309-1.599-4.769-3.65-3.77-6.96-7.851-10.76-11.471-4.92-4.78-10.36-9.06-14.69-14.42-7.11-8.85-18.169-14.519-21.689-26.019-1.6-3.68-3.92-.87-4.16 1.8-.15 4.7.928 9.271 1.978 13.821-5.47-2.24-10.929-4.56-16.119-7.41-7.02-3.97-14.791-6.21-22.141-9.43-1.526-.814-3.148-1.391-4.244-1.371zm-270.271 391.941c-.904-.043-1.819.161-2.744.748-1.47 7.13-6.079 13.312-8.539 20.182-4.82 12.29-5.93 25.578-7.59 38.558-.74 3.06 1.269 5.44 3.349 7.35 2.77 2.46 3.16 6.701 6.33 8.801 3.97 2.73 9 2.759 13.62 2.849-.78-2.9-1.769-5.809-1.799-8.839 2.83-5.19 8.1-9.01 13.92-10.08 2.33 6.48 3.55 13.329 6.09 19.759 5.28-4.42 7.498-11.14 9.468-17.49 5.12-15.87-9.669-30.668-6.289-46.318-4.8-5.49-11.801-8.372-17.961-12.032-2.527-.99-5.143-3.357-7.855-3.488zm339.646 47.488c-11.29 2.9-16.98 14.4-27.8 18.09-21.93 9-45.13 18.741-69.37 15.461-3.35 0-7.259-1.791-10.269.119 14.35 27.84 31.57 54.091 50.01 79.381 22.23-23.84 50.73-42.979 82.74-50.439-5.38-21.98-15.301-42.442-25.311-62.612zm-250.83 5.041c.28 33.35 5.501 66.399 8.571 99.549 31.35-12.16 66.929-15.299 99.019-4.039 1.25-4.46 1.171-9.109 1.481-13.689 1.12-18.22.759-36.492-.641-54.682-2.07-7.45-9.911-11.128-16.301-14.308-29.06-12.12-61.119-12.671-92.129-12.831z" fill="#f5d2c3"/>
    <path id="color5" d="m724.832 296.777c-4.122.018-7.216 4.18-10.562 6.233.74 1.46 3.169 3.059 1.599 4.769-3.55 5.09-7.23 10.11-11.17 14.92-1.91 2.26-4.539 5.792-7.529 2.942-1.19 1.68-1.939 3.59-1.959 5.66.81 1.37 1.618 2.749 2.328 4.189.82 4.96 6.452 4.171 8.762.821 7.25-8.78 15.048-17.091 23.488-24.731-.2-2.26-1.38-4.269-2.1-6.369-1.18-2.65-1.759-5.511-2.019-8.381-.284-.037-.563-.054-.838-.053zm-81.922 21.854c-4.42 1.89-8.91 3.589-13.26 5.619.56 3.27.83 6.58 1.36 9.85 5.15-2.44 9.379-6.58 12.769-11.09-.29-1.47-.589-2.929-.869-4.379zm-13.64 5.779c-4.28 1.58-8.559 3.171-12.719 5.061 3.73 2.11 7.43 7.618 12.09 4.318 1.14-3 .889-6.249.629-9.379zm-15.639 6.061c-4.51 1.28-8.85 3.039-13.25 4.619 1.31.73 2.609 1.469 3.949 2.199 5.7-.51 11.419-.86 17.119-1.43-2.28-2.23-5.058-3.838-7.818-5.388zm18.334 13.074c-.756-.002-1.496.352-2.205 1.324-.67 2.95-.38 6.012-.41 9.022 1.94 1.33 3.94 2.6 5.73 4.16 5.05-3.24 13.17-4.902 12.49-12.512-.4-.18-1.199-.548-1.609-.728-3 .29-5.951.988-8.971 1.138-1.629-.674-3.363-2.401-5.025-2.404zm26.324 23.885c-1.67 1.15-3.259 2.41-4.609 3.92 3.22 2.44 6.04 5.361 9.33 7.711-1.24-4-2.951-7.841-4.721-11.631zm3.176 19.541c-.345.007-.737.098-1.176.289-1.29 2.08-.949 6.73 2.471 5.5 1.286-1.838 1.118-5.842-1.295-5.789zm-4.115 99.33c-2.54 2-2.75 7.73.58 9 3.17-1.31 3.15-8.75-.58-9zm-9.18 94.918c-.272.008-.562.055-.869.15-1.89 2.66-2.24 7.541.92 9.361 4.115-.543 4.03-9.63-.051-9.511zm-301.084 37.293c-.689.002-1.282.405-1.686 1.517-2.01 4.47-5.209 8.331-6.849 12.971 3.03 3.4 6.899 6.009 10.879 8.199 3.7-2.35 7.229 1.42 10.599 2.74 6.16 3.66 13.161 6.542 17.961 12.032 4.81.27 4.169-7.861 8.299-10.041-9.11-10.77-22.619-17.111-34.289-24.901-1.423-.591-3.399-2.523-4.914-2.517zm169.434 375.088c.62 28.79 1.02 57.6.48 86.4h2.221c.06-28.72.118-57.45-.782-86.15-.48-.06-1.439-.19-1.919-.25z" fill="#eee"/>
    <path id="color6" d="m647.854 321.945c-1.383-.005-2.75.297-4.075 1.065-3.39 4.51-7.619 8.65-12.769 11.09-.53-3.27-.8-6.58-1.36-9.85-.09.04-.28.12-.38.16.26 3.13.511 6.379-.629 9.379-4.66 3.3-8.36-2.208-12.09-4.318-.98.34-1.95.67-2.92 1 2.76 1.55 5.538 3.158 7.818 5.388-5.7.57-11.419.92-17.119 1.43-2.73.55-5.881.3-8.221 1.9-2 2.75-.379 5.951 1.711 8.081-.53 3.18-3.73 5.44-3.83 8.66 2.57 1.6 5.69 1.749 8.58 2.439-.8 1.11-1.669 2.161-2.429 3.291 4.9 1.57 9.61 3.631 14.16 6.051 2.61 1.53 3.65-2.171 5.16-3.561 3.33 1.82 3.018 8.091 6.398 8.811 3.52-5.65 3.081-12.68 3.491-19.07.03-3.01-.26-6.072.41-9.022 2.27-3.11 4.86.1 7.23 1.08 3.02-.15 5.971-.848 8.971-1.138-1.29-.81-2.54-1.681-3.75-2.581 5.63-.44 11.019 1.779 16.629 1.639 2.95-5.26 2.01-12.169 1.33-17.849-3.863-1.275-8.169-4.058-12.316-4.075zm-.284 23.594c.68 7.61-7.44 9.272-12.49 12.512.51 3.71 5.079 4.119 7.529 6.219 4.23 2.21 4.891 11.5 11.071 7.08 1.35-1.51 2.939-2.77 4.609-3.92 2.01-2.88 3.882-6.77 1.092-9.83-3.71-4.17-6.381-9.901-11.811-12.061z" fill="#497b5e"/>
    <path id="color7" d="m262.219 350.811c-1.66-.09-3.304.967-2.449 3.099 3.95 17.95 9.791 35.49 13.541 53.5 2.66.73 5.349 1.329 8.089 1.699-4.93-18.81-11.041-37.298-16.451-55.978-.14-1.488-1.439-2.251-2.73-2.32zm13.461 62.789c2.79 14.2 7.49 27.951 10.49 42.111 2.73-1.43 5.45-2.88 8.18-4.33-3.33-11.99-7.45-23.75-10.43-35.83-2.73-.72-5.48-1.371-8.24-1.951zm20.16 42.48c-2.84 1.07-5.639 2.21-8.369 3.52 1.71 5.59 2.379 11.56 5.019 16.83 2.61-1.73 5.22-3.47 7.85-5.16-1.58-5.04-3.04-10.12-4.5-15.19zm25.849 87.59c-2.93 4.9-5.509 9.98-7.919 15.15 1.22 5.19 2.67 10.329 4.13 15.459 1.69-9 3.48-17.988 5.27-26.968-.5-1.22-.991-2.431-1.481-3.641zm3.372 10.93c-2.88 6.92-5.221 14.101-6.741 21.451 7.46 28.46 14.981 56.91 22.571 85.33 2.46-6.87 7.069-13.052 8.539-20.182-3.98-2.19-7.849-4.799-10.879-8.199 1.64-4.64 4.839-8.501 6.849-12.971-2.68-2.5-5.83-4.538-8.05-7.478.17-2.7 2.02-4.921 3.13-7.291-3.94-12.16-6.749-24.729-11.589-36.549-.69-1.67-.651-3.502-.741-5.262-1.07-2.94-2.209-5.849-3.089-8.849zm43.66 145.42c-5.82 1.07-11.09 4.89-13.92 10.08.03 3.03 1.019 5.939 1.799 8.839.58 1.84 1.19 3.662 1.74 5.522 5.64-.15 11.229-.99 16.859-1.32-.13-1.13-.258-2.252-.388-3.362-2.54-6.43-3.76-13.279-6.09-19.759zm53.359 261.861c10.9 39.319 21.66 78.689 32.19 118.119h26.679c-6.39-21.96-12.869-43.89-19.189-65.87-4.54-15.989-9.45-31.879-13.86-47.909-8.61-1.43-17.18-3.05-25.82-4.34z" fill="#6c6795"/>
    <path id="color8" d="m478.084 587.098c-.232.01-.479.069-.744.191-5.88 2.66-11.561 5.751-17.471 8.361-16.61 7.45-33.429 15.68-51.959 16.5-6.86 1.05-13.8 1.76-20.51 3.62 5.11 12.14 6.02 25.519 11.12 37.669 4.4 10.69 9.29 22.091 19.06 28.971 4.26 3.79 9.74 5.629 14.41 8.779 2.95.8 5.96 1.451 9 1.791 31.01.16 63.069.711 92.129 12.831 6.39 3.18 14.231 6.858 16.301 14.308.06-1.81.221-3.609.551-5.369 7.43.43 15.42-.549 22.17 3.221 3.82 2.14 8.76.918 12.24 3.638 3.01-1.91 6.919-.119 10.269-.119 24.24 3.28 47.44-6.461 69.37-15.461 10.82-3.69 16.51-15.19 27.8-18.09 1.47-1.14 4.179-2.35 2.869-4.66-3.21-6.78-7.279-13.119-11.009-19.619-7.51 8.08-16.89 17.37-28.51 17.41-7.14-23.03-9.54-47.3-10.17-71.34-11.1 23.13-20.879 47.3-36.199 68.12-.92 1.7-2.96 1.181-4.41.621-30.9-13.07-62.16-26.991-87.92-48.961-13.44-11.27-24.412-25.021-34.772-39.071-1.12-1.006-1.994-3.412-3.615-3.341zm-84.033 63.742c-3.76 1.93-7.64 3.63-11.25 5.83 4.26.72 6.159 5.35 10.209 6.41 5.81-1.76 1.921-8.34 1.041-12.24z" fill="#6c656a"/>
    <path id="color9" d="m717.131 750.551c-32.01 7.46-60.51 26.599-82.74 50.439 6.1 14.36 16.269 26.42 23.699 40.03-9.93 7.41-19.479 16.68-22.869 28.98-.6 2.67 1.709 4.401 3.439 5.961 23.78 25.2 46.161 52.319 74.311 72.949 8.29 4.95 18.149 12.9 28.039 7.1 14.99-4.42 26.44-17.059 30.24-32.049.61-5.85-1.509-11.481-2.939-17.041-8.34-32.19-17.462-64.171-27.692-95.811-5.74-17.63-11.849-35.179-19.609-52.039-15.58 3.8-30.001 11.13-43.821 19.08-13.44 8.11-26.539 17.201-37.109 28.911-1.08 1.63-3.271 1.26-2.041-.92 5.35-8.12 13.362-14.06 20.922-20.01 18.47-13.04 38.669-24.812 61.059-29.342-.89-2.12-1.889-4.178-2.889-6.238zm-212.027 30.978c-18.938.175-37.909 4.16-55.543 11 .14 1.49.279 2.99.429 4.51 31.1-11.72 67.05-15.61 98.25-2.17.66-2.08.39-4.259.34-6.379-14.039-4.926-28.748-7.096-43.476-6.961zm.847 8.123c-18.926-.197-37.758 4.124-55.771 9.739 2.03 19.9 3.63 39.878 6.66 59.648 11.82 16 20.11 34.1 28.57 52 8.02 16.46 13.69 34.041 17.34 51.981.53 2.75 1.02 7.27-2.74 7.81-10.63.61-21.231-1.07-31.821-1.85-.66 8.36-1.11 16.88-3.16 25.01 17.02 2.7 34.451-3.42 51.491-.39.48.06 1.439.19 1.919.25 3.1-5.16 10.711-2.289 15.571-5.039-2.41-1.43-1.431-4.511-1.641-6.801.46-12.27-1.169-24.651.981-36.811 2.49-21.31 3.239-42.779 5.339-64.129 2.37-27.99 6.901-55.8 8.901-83.8-9.37-2.77-18.729-5.869-28.529-6.719-4.369-.566-8.742-.853-13.11-.899z" fill="#26282d"/>
  </g>
</svg>
