<svg height="1080" width="1920" xmlns="http://www.w3.org/2000/svg">
  <path id="background" d="m0 0h1920v1080h-1920z" fill="#55619a"/>
  <g id="transform" transform="translate(0,0) scale(1.00)">
    <path id="color1" d="m1150.03 134.176c-9.41-.053-18.84 1.865-27.52 5.465-7.28 3.43-15.95-.432-22.94 3.898-3.9 1.77-5.38 5.99-8.04 9-3.48 2-7.61 2.731-10.84 5.211-5.17 3.55-7.29 9.97-12.35 13.65-27.64 16.66-38.7 50.211-42.13 80.661 4.64-12.45 8.62-25.541 16.03-36.641-7.24 26.03-11.61 53.961-4.63 80.551.72-11.05 1.19-22.141 2.57-33.131l.8.019c.52 21.13.85 42.601 6.03 63.241 1.52 5.28 3.02 10.831 6.78 15.031-1.9-18.17-2.85-36.491-1.71-54.731 5.92 23.02 9.9 48.041 24.64 67.561-2.45-18.04-5.16-36.311-3.63-54.551 5.35 15.62 9.05 32.63 19.81 45.68-2.13-13.88-6.87-27.469-6.77-41.619-.47-8.86-1.27-17.692-1.96-26.532 4.75 9.5 8.21 19.881 14.95 28.211-6.23-17.43-9.47-35.81-10.91-54.22 4.55 14.84 9.4 30.48 19.86 42.31-2.77-14.21-7.19-28.799-4.87-43.359 3.1 13.31 7.99 26.61 16.69 37.33-4.31-13.97-5.23-28.722-4.6-43.262 4.1 11.51 8.13 23.52 15.73 33.24-3.99-10.61-8.38-21.1-10.76-32.25 5.3 8.25 9.37 17.321 12.16 26.721 1.41 4.46.99 9.44 3.35 13.6.66-12.55-2.22-25.16-5.69-37.17 12.98 16.76 23.83 35.121 31.93 54.721 1.08-16.71-.9-33.551-4.65-49.831 5.12 10.05 9.42 20.511 12.62 31.331-.98-16.73-4.28-33.4-9.75-49.26 10.33 14.97 18.49 31.459 23.49 48.959.85 3.12.96 6.6 3 9.25.96-15.09.39-30.47-2.45-45.34 4.46 7.4 6.2 15.97 9.78 23.74-.07-8.85-2.48-17.54-5.89-25.66 8.32 11.21 14.11 24.09 18.57 37.24.93-8.73.84-17.559-.25-26.269 5.57 23.29 5.24 47.84.55 71.25 11.55-13.7 16.67-31.78 18.51-49.33 1.11 4.62 1.25 9.389 1.11 14.119-.15.53.02 3.591 1.27 2.451 2.39-7.64 3.19-15.62 3.55-23.57 10.61 3.48 8.64 17.168 7.93 25.898-4.05 10.15-12.1 18.97-21.94 23.82-2.64 5.83-6.46 11.691-5.67 18.391.42 7.22-.71 14.53.81 21.66 1.39.79 2.83 1.6 4.24 2.43 3.88-6.7 4.36-14.619 7.09-21.629 1.02 9.45.02 18.979.41 28.469 4.79-14.3 9.39-28.861 10.47-43.991.07-1.95.83-3.759 1.79-5.429 1.89 11.87 4.55 23.871 10.13 34.621-2.73-18.73.35-37.55 2.47-56.16l.64-.08c1.24 14.92 2.82 29.948 7.96 44.138-1.08-14.67-3.51-29.289-3.12-44.039-.09-2.67.76-5.211 1.78-7.631-3.37-7.33-8.34-15.309-6.76-23.609.79-3.86 4.58-2.271 6.89-.811 1.29-22.08-1.2-44.548-9.35-65.228-7.42-17.12-16.87-33.582-29.68-47.262-9.87-10.43-24.52-14.919-38.57-15.209-4.4-.05-8.11-2.639-12.22-3.779-5.46-1.511-11.1-2.254-16.74-2.285zm76.33 163.103c-1.32 2-1.18 4.711-1.47 7.051 1.67-1.39 3.6-6.361 1.47-7.051zm-124.16 36.612c.32 8.02-.13 16.05.1 24.08 1.53-4.91 3.01-9.841 5.23-14.491-1.75-3.22-3.72-6.299-5.32-9.589zm5.98 10.75c-.81 7.75-1.78 15.489-2 23.279 3.28-4.26 3.28-11.161 7.53-14.221 2.2 7.23 2.77 14.821 3.79 22.291 1.22-7.43 2.59-14.879 2.49-22.429-4.31-2.44-8.45-5.25-11.81-8.92zm13.87 10.019c2.47 7.05 6.09 13.571 9.43 20.221 1.11-4.27 4.35-7.342 8.2-9.262-.11-1.35-.14-3.059-1.62-3.629-5.18-2.77-10.7-4.85-16.01-7.33z" fill="#788adb"/>
    <path id="color2" d="m1160.23 235.051c5.47 15.86 8.77 32.53 9.75 49.26-3.2-10.82-7.5-21.281-12.62-31.331 3.75 16.28 5.73 33.121 4.65 49.831-8.1-19.6-18.95-37.961-31.93-54.721 3.47 12.01 6.35 24.62 5.69 37.17-2.36-4.16-1.94-9.14-3.35-13.6-2.79-9.4-6.86-18.471-12.16-26.721 2.38 11.15 6.77 21.64 10.76 32.25-7.6-9.72-11.63-21.73-15.73-33.24-.63 14.54.29 29.292 4.6 43.262-8.7-10.72-13.59-24.02-16.69-37.33-2.32 14.56 2.1 29.149 4.87 43.359-10.46-11.83-15.31-27.47-19.86-42.31 1.44 18.41 4.68 36.79 10.91 54.22-6.74-8.33-10.2-18.711-14.95-28.211.69 8.84 1.49 17.672 1.96 26.532 5.67 9.97 11.32 19.98 16.08 30.42 1.6 3.29 3.57 6.369 5.32 9.589l.65 1.161c3.36 3.67 7.5 6.48 11.81 8.92.52.27 1.54.819 2.06 1.099 5.31 2.48 10.83 4.56 16.01 7.33 1.48.57 1.51 2.279 1.62 3.629 1.3 16.3-3.15 32.262-2.8 48.512 15.08 11.89 34.98 5.199 51.64 1.289 8.86-7.04 14.29-17.3 20.56-26.51 5.94-7.89 2.04-18.22 3.52-27.25-1.52-7.13-.39-14.44-.81-21.66-.79-6.7 3.03-12.561 5.67-18.391 9.84-4.85 17.89-13.67 21.94-23.82.71-8.73 2.68-22.418-7.93-25.898-.36 7.95-1.16 15.93-3.55 23.57-1.27 1.14-1.42-1.921-1.27-2.451.14-4.73 0-9.499-1.11-14.119-1.84 17.55-6.96 35.63-18.51 49.33 4.69-23.41 5.02-47.96-.55-71.25 1.09 8.71 1.18 17.539.25 26.269-4.46-13.15-10.25-26.03-18.57-37.24 3.41 8.12 5.79 16.81 5.89 25.66-3.58-7.77-5.32-16.34-9.78-23.74 2.84 14.87 3.41 30.25 2.45 45.34-2.04-2.65-2.15-6.13-3-9.25-5-17.5-13.16-33.989-23.49-48.959zm91.85 31.295c-1.11.069-2.04.715-2.38 2.404-1.58 8.3 3.39 16.279 6.76 23.609 2.33 4.72 2.22 10.162 4.15 15.032 3.25 9.86 9.45 18.278 15.28 26.718-3.04 1.95-6.82 1.562-10.14 2.602-1.47 2.75-1.39 6.09-.47 9.01 2.75 7.39 11.79 10.21 13.86 17.99 4.72 13.77 13.94 26.448 27.63 32.328 2.92.69 7 5.082 2.7 6.852 14.95 6.74 31.99 4.02 47.89 4.17-.31-3.13-1.38-6.112-2.68-8.942-8.46-17.02-9.11-36.648-17.18-53.738-4.76-9.15-12.93-15.931-17.94-24.951-3.14-4.26-5.08-11.72-11.54-11.45-6.47.61-13.73 1.92-17.83 7.51-11.99-10.99-21.84-25.04-27.06-40.58-1.19-3.16-4.9-4.121-6.54-6.971-1.3-.821-3.07-1.683-4.51-1.593zm-25.72 30.933c2.13.69.2 5.661-1.47 7.051.29-2.34.15-5.051 1.47-7.051zm-216.98 522.362c-3.31.15-7.11-.511-9.86 1.779-3.52 2.96-4.141 8.32-8.321 10.67-5.88 3.47-10.188 9.16-12.818 15.39-1.79 6.59.128 13.509-1.102 20.209-.76 3.52.692 6.85 1.362 10.25-.86 3.54-2.881 6.681-4.211 10.061-.56 2.02-1.071 4.05-1.561 6.1-.64 9.36 8.29 14.84 12.99 21.82 5.71 5.53 15.091 15.559 22.801 7.519 3.41-.23 8.44 3.481 10.77-1.009 4.38-5.75-5.19-10.22-3.32-16.2 1.36-6.43.41-13.15-2.6-18.98-1.79-4.1-5.22-7.91-4.68-12.66 2.25-1.38 5.98-1.709 6.62-4.779 1.87-13.06-3.44-25.612-4.14-38.522-.42-3.92-1.26-7.768-1.93-11.648z" fill="#feedd8"/>
    <path id="color3" d="m1212.6 361.66c-1.48 9.03 2.42 19.36-3.52 27.25h-.05c-6.27 9.21-11.7 19.47-20.56 26.51-15.98 23.21-32.67 46-51.04 67.4-1.15-22.87-2.29-45.819-.6-68.689-.35-16.25 4.1-32.212 2.8-48.512-3.85 1.92-7.09 4.992-8.2 9.262l-.24.939c-2.17 13.3-5.54 26.36-8.74 39.44-3.48 14.25-5.5 29.42-14.11 41.74 2.6-1.91 6.57-5.361 4.06.029-1.58 5.11-2.79 10.32-4.09 15.51-4.05 24.35-9.65 48.482-12.63 73.022-3.83 39.6-8.7 79.119-12.05 118.759-3.03 41.92-6.13 83.821-10.29 125.641-8.03 64.28-19.88 128.03-28.21 192.25 15.16 7.15 31.48 11.598 47.67 15.738 3.35-29.43 7.86-58.728 13.04-87.888 5.4 29.83 9.01 60.079 14.32 89.949 20.52-1.44 40.18-8.699 59.68-14.879-6.13-55.88-7.99-112.061-10.2-168.131-.18-16 .68-32.05-.97-48 0-46.66.1-93.33 0-140-.29-6.03.89-11.99 1.01-18 1.67-46.62 13.74-91.969 26.96-136.449.76-3.37 1.87-6.652 2.95-9.942.46-2.98.95-5.999 2.2-8.779 8.4-17.51 15.13-35.979 18.63-55.119 2.39-11.3 1.46-22.932-1.56-34.012-.68-.87-1.37-1.749-2.02-2.609-1.41-.83-2.85-1.64-4.24-2.43zm142.04 36.459c1.3 2.83 2.37 5.812 2.68 8.942-15.9-.15-32.94 2.57-47.89-4.17-2.48 1.08-2.38 3.758-2.48 6.048.63 1.88 1.22 3.781 1.72 5.711.55 1.23.3 3.47 2.22 3.45 23.43 4.45 47.2 6.881 70.87 9.781v-5.102c-.14-1.8-.25-3.589-.35-5.379-.42-4.71-.29-9.44-.65-14.15-8.28-3.27-17.26-4.391-26.08-5.131zm-356.003 412.088c-5.85-.063-11.361 1.787-13.887 7.514-8.44 14.67-17.58 29.069-24 44.769.87 6.26 2.23 12.45 2.83 18.76 1.08 5.24 5.83 7.45 10.85 6.75 1.33-3.38 3.351-6.521 4.211-10.061-.67-3.4-2.122-6.73-1.362-10.25 1.23-6.7-.688-13.619 1.102-20.209 2.63-6.23 6.938-11.92 12.818-15.39 4.18-2.35 4.801-7.71 8.321-10.67 2.75-2.29 6.55-1.629 9.86-1.779.69-2.27 1.43-4.521 2.27-6.741-3.71-1.439-8.46-2.644-13.013-2.693z" fill="#fff"/>
    <path id="color4" d="m1218.86 366.699c.02.026.05.052.07.078-.01-.026-.01-.052-.02-.078zm.07.078c3 11.057 3.93 22.66 1.54 33.934-3.5 19.14-10.23 37.609-18.63 55.119-1.25 2.78-1.74 5.799-2.2 8.779 7.92 6.5 14.02 14.851 21.47 21.821 18.13-12.92 33.17-29.72 47.99-46.19 2.35.94 6.57 2.56 6.4 5.28-14.03 17.84-30.67 33.529-45.84 50.349 5.7 6.36 12.64 11.58 18.11 18.16-.6 2.76-2.09 5.23-3.72 7.5-15.97-15.44-31.4-31.498-47.36-46.978-13.22 44.48-25.29 89.829-26.96 136.449-.12 6.01-1.3 11.97-1.01 18v140c1.65 15.95.79 32 .97 48 2.21 56.07 4.07 112.251 10.2 168.131 1.18 5.55 1.66 11.209 2.05 16.869.13 1.32.33 2.69.5 4.04 44.87-10.561 89.62-22.17 132.78-38.47.32-3.89-.52-7.731-1.12-11.531-7.09-47.02-14.2-94.03-20.96-141.1-4.85-28.5-3.35-57.72.49-86.25 8.86-49.22 16.92-98.598 24.3-148.048 8.87 6.45 16.63 14.319 24.67 21.759 2.52 2.78 6.39 5.359 6.29 9.539.19 3.87-.2 8.311 2.83 11.291 3.2 4.25 9.44 3.261 13.05 6.991 10.37 9.53 21.42 18.48 33.88 25.16 7.8 4.42 17.38 8.049 26.23 4.529 9.99-6.03 15.06-17.059 19.88-27.199 3.3-5.46 7.77-10.861 7.14-17.691-1.13-19.23-6.75-38-14.16-55.7-8.79-22.43-17.03-45.1-24.01-68.16-5-16.59-4.13-34.121-6.56-51.121-32.14.58-64.24-3.039-95.87-8.439-5-2.04-5.74-8.91-7.09-13.6-.98-3.13 2.38-2.93 4.5-3.35-.5-1.93-1.09-3.831-1.72-5.711-24.69-1.88-48.17-11.359-69.74-23.089-4.18-1.78-5.77-6.261-8.84-9.241-3.22-3.235-6.45-6.431-9.48-9.832zm-87.69 9.043c-8.82 5.37-16.3 12.59-23.04 20.35-4.23 4.74-8.26 10.07-14.22 12.74-23.92 10.8-47.77 21.769-71.86 32.209-6.22 2.59-13.4 4.76-17.07 10.91-8.949 14.96-13.759 32-16.589 49.09-3.13 15.45-7.151 30.712-10.211 46.182-1.09 7.13-8.41 10.399-11.51 16.429-4.11 6.21-4.35 13.79-5.22 20.92-3.49 15.37-11.01 29.42-18.62 43.09-9.75 21.05-19.619 42.199-32.679 61.449-3.83 6.27-7.901 13.222-7.061 20.862.95 9.6 4.151 18.779 6.971 27.949 13.05 43.47 25.319 87.17 36.799 131.08.88 3.13 2.36 6.05 3.56 9.07-.97-7.27-.861-14.88 1.949-21.75 6.76-17.08 17.21-32.319 27.6-47.339 1.94-2.62 3.831-5.841 7.281-6.581 9.29-2.39 19.16-1.8 28.37.62-.62 3.52-2.37 6.69-4.04 9.8-.84 2.22-1.58 4.471-2.27 6.741.67 3.88 1.51 7.728 1.93 11.648.7 12.91 6.01 25.462 4.14 38.522-.64 3.07-4.37 3.399-6.62 4.779-.54 4.75 2.89 8.56 4.68 12.66 3.01 5.83 3.96 12.55 2.6 18.98-1.87 5.98 7.7 10.45 3.32 16.2-2.33 4.49-7.36.779-10.77 1.009-7.71 8.04-17.091-1.989-22.801-7.519-4.74 12.64-7.799 25.97-9.039 39.41 21.58 12.79 43.26 25.549 66.03 36.119.73-3.1 1.48-6.178 2.33-9.238 8.33-64.22 20.18-127.97 28.21-192.25 4.16-41.82 7.26-83.721 10.29-125.641 3.35-39.64 8.22-79.159 12.05-118.759 2.98-24.54 8.58-48.672 12.63-73.022-18.88 17.64-39.21 33.862-61.33 47.272-1.12-2.71-1.97-5.621-1.83-8.571 8.05-6.5 17.92-10.431 26.37-16.381-7.13-16.06-13.75-32.589-17.31-49.849 2.23-1.52 4.85-2.401 7.51-2.811 3.85 16 8.45 31.851 14.19 47.281 8.85-3.6 14.55-11.86 21.42-18.14 5.18-4.6 9.75-9.861 15.07-14.311 2.51-5.39-1.46-1.939-4.06-.029 8.61-12.32 10.63-27.49 14.11-41.74 3.2-13.08 6.57-26.14 8.74-39.44zm250.52 46.959c.01.005.03.011.04.016v-.016zm.04.016v5.086c4.1.54 8.23.93 12.38.84-3.71-2.771-8.05-4.43-12.38-5.926zm-125.59 14.615c3.39-.077 6.43 5.244 2.72 7.391-4.7 3.56-9.69-5.861-3.4-7.301.23-.056.45-.085.68-.09zm-185.23 2.838c3.55.267 6.47 5.068 3.03 7.772-3.92 5.32-9.62-4.82-4.58-7.59.52-.167 1.04-.22 1.55-.182zm-44.25 212.281c2.86 27.05 4.06 54.301 3.16 81.491-.64 20.76-4.51 41.7-12.9 60.75-2.98-7.05-5.29-14.381-8.52-21.331-1.57-3.71-4-7.269-3.86-11.449.2-12.34 1.05-24.711.32-37.051.14-5.01-7.911-5.64-6.891-10.99 1.95-9.54 7.181-17.929 11.311-26.619 5.8-11.26 11.02-22.819 16.89-34.019zm46.76 12c5.86 1.58 2.8 11.852-1.14 13.862-5.52-3.21-5.25-11.912 1.14-13.862zm-6.12 76.061c4.06 3.31 2.97 12.611-1.87 16.041-3.24-4.93-3.46-12.451 1.87-16.041zm-10.07 80.699c4.58 3.21 4.3 10.131 1.27 14.291-.51.68-2.11 1.8-2.59.52-3.41-4.44-1.31-10.541 1.32-14.811zm-96.55 41.201c-1.52 5.81-6.87 18.03 2.83 18.76-.6-6.31-1.96-12.5-2.83-18.76z" fill="#f4e4b7"/>
    <path id="color5" d="m1381.87 411.289c-.33 2.02-.46 4.061-.46 6.111.08 1.79.21 3.579.35 5.379 4.34 1.5 8.7 3.162 12.42 5.942-4.15.09-8.28-.3-12.38-.84-23.67-2.9-47.44-5.331-70.87-9.781-1.92.02-1.67-2.22-2.22-3.45-2.12.42-5.48.22-4.5 3.35 1.35 4.69 2.09 11.56 7.09 13.6 31.63 5.4 63.73 9.019 95.87 8.439-.2-6.66-.04-14.84-6.07-19.17-5.95-4-12.44-7.29-19.23-9.58zm-112.82 28.951c-14.82 16.47-29.86 33.27-47.99 46.19-7.45-6.97-13.55-15.321-21.47-21.821-1.08 3.29-2.19 6.572-2.95 9.942 15.96 15.48 31.39 31.538 47.36 46.978 1.63-2.27 3.12-4.74 3.72-7.5-5.47-6.58-12.41-11.8-18.11-18.16 15.17-16.82 31.81-32.509 45.84-50.349.17-2.72-4.05-4.34-6.4-5.28zm-207.28 1.959c-2.66.41-5.28 1.291-7.51 2.811 3.56 17.26 10.18 33.789 17.31 49.849-8.45 5.95-18.32 9.881-26.37 16.381-.14 2.95.71 5.861 1.83 8.571 22.12-13.41 42.45-29.632 61.33-47.272 1.3-5.19 2.51-10.4 4.09-15.51-5.32 4.45-9.89 9.711-15.07 14.311-6.87 6.28-12.57 14.54-21.42 18.14-5.74-15.43-10.34-31.281-14.19-47.281zm-62.028 358.758c-4.182.001-8.357.478-12.422 1.523-3.45.74-5.341 3.961-7.281 6.581-10.39 15.02-20.84 30.259-27.6 47.339-2.81 6.87-2.919 14.48-1.949 21.75 1.34 4.31 2.44 9.28 6.41 12.02 4.71 3.06 10.519 3.41 15.969 3.93.49-2.05 1.001-4.08 1.561-6.1-5.02.7-9.77-1.51-10.85-6.75-9.7-.73-4.35-12.95-2.83-18.76 6.42-15.7 15.56-30.099 24-44.769 4.49-10.18 18.42-8.111 26.9-4.821 1.67-3.11 3.42-6.28 4.04-9.8-5.18-1.362-10.57-2.144-15.948-2.143zm-22.922 154.373c-.63 3.93-2.599 7.781-2.189 11.811 12.02 6.94 24.678 12.769 36.729 19.689 10.1 5.67 20.31 11.16 30.63 16.4.3-3.31.36-6.629.69-9.929.05-.46.17-1.392.17-1.852-22.77-10.57-44.45-23.329-66.03-36.119zm338.4 12.24c-43.16 16.3-87.91 27.909-132.78 38.47.17 3.08.22 6.18.61 9.26 35.9-8.59 71.95-16.93 107.14-28.21 7.99-3.43 16.68-5.339 24.19-9.789.94-3.15.57-6.511.84-9.731z" fill="#a77558"/>
    <path id="color6" d="m1136.88 414.131c-1.69 22.87-.55 45.819.6 68.689 18.37-21.4 35.06-44.19 51.04-67.4-16.66 3.91-36.56 10.601-51.64-1.289zm-30.99 495.93c-5.18 29.16-9.69 58.458-13.04 87.888-16.19-4.14-32.51-8.588-47.67-15.738-.85 3.06-1.6 6.138-2.33 9.238-.04.46-.17 1.392-.17 1.852 9.37 7.279 22.03 8.549 33.4 10.669 22.3 3.82 44.97 3.81 67.5 2.84 3.13-.46 6.29-.71 9.47-.88 9.66-1.05 19.19-3.17 28.89-3.93-.39-5.66-.87-11.319-2.05-16.869-19.5 6.18-39.16 13.439-59.68 14.879-5.31-29.87-8.92-60.119-14.32-89.949z" fill="#b8223b"/>
    <path id="color7" d="m1256.16 437.41c-.22.005-.45.034-.68.09-6.29 1.44-1.3 10.861 3.4 7.301 3.71-2.147.68-7.468-2.72-7.391zm-185.18 2.838c-.51-.038-1.03.015-1.55.182-5.04 2.77.66 12.91 4.58 7.59 3.44-2.704.52-7.505-3.03-7.772zm2.51 224.281c-6.39 1.95-6.66 10.652-1.14 13.862 3.94-2.01 7-12.282 1.14-13.862zm-6.12 76.061c-5.33 3.59-5.11 11.111-1.87 16.041 4.84-3.43 5.93-12.731 1.87-16.041zm-10.07 80.699c-2.63 4.27-4.73 10.371-1.32 14.811.48 1.28 2.08.16 2.59-.52 3.03-4.16 3.31-11.081-1.27-14.291z" fill="#ececf1"/>
    <path id="color8" d="m1011.36 986.83c-.04 15.06-.25 30.13.1 45.18 1.84 12.61-.17 25.39 1.57 38 .36 3.31.3 6.65.18 9.99h132.6c-1.02-24.39-2.23-48.75-2.23-73.19-22.53.97-45.2.98-67.5-2.84-11.37-2.12-24.03-3.39-33.4-10.669-.33 3.3-.39 6.619-.69 9.929-10.32-5.24-20.53-10.73-30.63-16.4zm278.83.26c-35.19 11.28-71.24 19.62-107.14 28.21-.39-3.08-.44-6.18-.61-9.26-.17-1.35-.37-2.72-.5-4.04-9.7.76-19.23 2.88-28.89 3.93 4.26 24.67 8.33 49.37 12.38 74.07h133.57c-2.41-31.02-5.27-62-8.81-92.91z" fill="#47465a"/>
  </g>
</svg>
