<svg height="1080" width="1920" xmlns="http://www.w3.org/2000/svg">
  <path id="background" d="m0 0h1920v1080h-1920z" fill="#7ab4ab"/>
  <g id="transform" transform="translate(0,0) scale(1.00)">
    <path id="color1" d="m552.539 101.26c-1.85 8.28-7.839 14.509-11.559 21.859 3.48-2.64 7.8-3.03 11.93-3.67.51-.7 1.04-1.39 1.58-2.09 1.29-1.81 2.5-3.68 3.51-5.66-.57-3.97-2.501-7.739-5.461-10.439zm72.461 20.98c-6.77 1.29-13.581 1.989-20.461 2.049 2.8.65 7.72.771 2.25 2.451 4.48 2.79 9.791 3.45 14.961 3.34 1.53-2.4 2.63-5.06 3.25-7.84z" fill="#f3eed1"/>
    <path id="color2" d="m587.33 100.9c1.07 7.2-1.25 15.861-8.59 18.731-5.83-.72-11.701-.212-17.541-.682-1.33-2.29-2.209-4.81-3.199-7.25-1.01 1.98-2.22 3.85-3.51 5.66 2.48 3.54 6.049 6.101 8.539 9.621-3.36 4.89-8.38 8.32-13 11.92.94-6.5 3.161-12.801 2.881-19.451-4.13.64-8.45 1.03-11.93 3.67-13.36 4.35-25.819 11.372-37.009 19.842-11.39 9.2-23.911 17.359-33.071 28.949-14.57 17.39-21.729 40.53-20.759 63.09-.5 13.52 5.369 26.7 14.279 36.66 2.3 2.37-1.801 4.11-3.221 5.6-19.04 15.51-41.579 30.44-67.189 29.16-14.56.42-31.681-5.921-36.571-20.891-3.97-10.76-.289-22.229 5.551-31.509-9.49 9.58-14.811 26.011-7.121 38.201 5.34 8.4 14.572 13.308 23.932 15.898 14.92 3.71 30.499.871 44.959-3.449 17.25-5.56 33.659-13.901 47.599-25.561 3.55 1.28 6.521 4.262 9.911 6.102-6.17 7.71-14.66 13.329-23.43 17.699-27.15 14.15-54.801 28.56-77.231 49.76-14.51 14.42-27.478 31.98-31.058 52.59-2.33 11.8 3.869 25.34 15.349 29.81-7.22-6.24-11.121-15.58-11.111-25.07-1.12-18.03 9.622-34.129 21.762-46.439 14.48-12.86 31.018-23.752 48.978-30.952-13.48 14.59-23.079 34.052-21.049 54.362 2.67 17.39 14.161 32.33 28.331 42.24-6.17-7.64-11.301-17.041-9.971-27.201 1.51-11.82 8.409-22.261 16.199-30.971 5.22-4.72 9.581-11.029 16.361-13.559-3.92 11.78-8.25 23.87-7.23 36.52-2.01 21.37 10.399 44.02 30.619 52.09-10.72-14.94-20.518-32.58-18.738-51.6 3.49 5.27 3.039 12.49 6.449 18.03 4.86 12.69 15.33 21.781 22.16 33.281.34-2.56.811-5.101 1.561-7.561 3.19-7.62.258-16.08 3.058-23.82.61-15.81 2.501-31.74 7.121-46.94 2.11-8.66 2.761-17.59 2.401-26.48 2.93-23.59-1.432-47.61 2.888-71.07 1.56-6.97 4.491-14.56 11.151-18.11 9.11-4.07 19.491-1.609 29.041-.849.79-.68 1.569-1.361 2.359-2.041.64-3.02 1.12-6.119 2.36-8.969 7.47 9.13 13.31 19.7 15.65 31.35.32 1.73.52 3.479.93 5.209.13.65.37 1.951.5 2.611 1.81 13.03-.601 26.739-7.651 37.939 10.41-7.1 15.311-20.06 15.871-32.32-.12-.54-.341-1.63-.461-2.17-.36-2.25-.39-4.55-.4-6.83-.45-16.11-6.969-31.3-14.289-45.41-8.96-16.9-11.34-36.55-10.41-55.43 1.2 2.25 3.131 4.009 4.291 6.289 1.15-9.66 3.448-19.149 6.978-28.219-.51 5.59-1.538 11.25-.558 16.84 4.19.51 8.47.51 12.66-.09 1.97-7.42 3.118-15.131 6.318-22.191 2.42 8.42 4.302 16.991 6.442 25.481 3.71-8.04 3.279-17.619 5.109-26.299 2.8 8.44 3.199 17.379 3.609 26.189 3.65.5 5.95-3.59 7.35-6.5.69 1.02 1.291 2.141 2.231 2.981 1.18-6.85-.67-13.641-1.54-20.411 4.42 11.77 12.659 22.81 10.629 36.04-.26 11.23 2.682 22.529.102 33.669 11.53 11 30.239 10.22 40.129 23.25 5.78 7.35 4.69 17.531 3.14 26.141-1.93 9.97-12.87 16.21-11.32 27.08.93.65 1.859 1.301 2.779 1.981.42-4.14.271-8.48 2.081-12.33 2.88-4.77 8.01-7.38 11.82-11.25 7.87-10.9 9.37-27.57-.09-38.01 9.92 4.46 18.379 13.039 23.029 22.949 3.37 6.71 2.451 16.629-5.429 19.529 5.71-.06 9.929-5.529 9.689-11.009.71-10.23-5.258-19.78-13.828-25-17.56-11.73-32.661-26.64-46.461-42.51-3.27-2.77-.981-7.02-.561-10.52 3.24-16.67-2.689-33.949-13.169-46.929 1.38-4.23 5.61-7.291 5.98-11.981-5.17.11-10.481-.55-14.961-3.34 5.47-1.68.55-1.801-2.25-2.451-6.49-2.16-13.918.492-19.898-3.328 5.5-5.02 5.399-13.661 2.689-20.061zm30.932 31.127c3.141-.128-1.488 5.894-3.483 7.582-2.83-1.15-4.619-4.149-6.679-6.349 2.77-.18 5.54-.4 8.31-.77.796-.3 1.403-.444 1.852-.463zm-5.672 11.502c13.43 11.99 17.78 32.491 13.24 49.651-5.08-4.39-6.9-12.569-6.17-19.369.6.17 1.81.49 2.41.66-1.41-10.81-5.6-20.892-9.48-30.942zm-113.369 8.981c-2.87 13.03-5.681 26.33-4.481 39.73.82 16.26 3.8 33.31-2.57 48.91-4.95 10.39-12.48 19.389-20.82 27.219-1.6 1.02-3.93 4.121-5.76 2.141-11.81-14.08-14.77-33.83-11.66-51.52 5.55-26.69 23.54-49.061 44.4-65.791zm107.849 76.97c-4.13 4.37-7.45 9.87-12.99 12.62-3.84 1.97-7.739-1.32-11.699-1.02-1.78 3.18-2.611 6.87-2.621 10.5 3.71 1.36 7.22 3.329 9.83 6.359 1.38-3.48 3.1-6.829 5.75-9.529-.31 3.64-2.511 6.72-3.151 10.24 2.53.22 6.522 1.3 7.362-2.06 3.83-8.57 7.619-17.54 7.519-27.11zm-109.9 18.02c-1.22 12.7-5.231 25.561-13.301 35.631-3.34.29-12.318-3.95-7.398-7.67 8.34-7.68 14.859-17.29 19.779-27.32zm130.1 105.58c.17 5.83-.489 11.69.111 17.5 14.71 10.66 31.829 17.421 48.439 24.561 8.23 3.99 17.221 7.639 22.991 15.089 6.12 8.4 10.568 20.25 4.228 29.79 7.78-8.12 4.781-20.939 1.231-30.379-6.81-12.78-22.66-14.44-34.44-20.42-17.49-7.44-31.84-20.651-42.56-36.141zm-93.78 7.891c.03 11.22-.361 22.438-1.871 33.568-2.2 9.3-5.21 18.662-4.43 28.352 13.72-17.34 12.721-41.9 6.301-61.92zm93.641 12.539c-1.72 20.33-2.261 41-1.881 61.5 5.42-6.6 3.83-16.771 6.76-23.221.97 11.13-1.189 22.65-6.539 32.49-.65 2.81-.17 5.762.08 8.602 5.04-2.33 8.759-6.811 12.179-11.051 9.35-15.14 5.039-34.231-2.111-49.301 16.83 13.7 26.041 36.921 21.561 58.461 7.65-7.53 9.78-19.79 5.23-29.5-7.95-18.34-25.219-32.06-35.279-47.98zm-124.682 137.74c-4.6 3.85-6.768 9.739-11.388 13.609-2.46 3.56-3.801 7.761-6.131 11.411-5.36 10.49-11.29 20.671-17.6 30.611-15.79 26.49-38.111 48.048-59.801 69.648-27.86 30.46-54.899 63.301-69.439 102.471-5.11 15.04-9.1 31.43-5.36 47.26 2.41 15.08 12.369 29.91 27.469 34.51 20.67 6.94 42.842 1.321 63.022-4.639 2.23-1.05 3.799 1.109 5.369 2.299 16.65 14.11 37.24 23.21 58.66 27.05 3.55-1.66 7.13-3.649 8.99-7.269 2.39-5.18 9.14-5.29 12.01-10 11.94-17.26 21.63-36.022 34.43-52.682 1.56-9.3-1.351-18.829-.731-28.259-8-3.04-12.25-11.76-20.42-14.59-3.64-.85-7.65-.249-11-2.129-4.75-2.58-7.439-8.972-5.129-14.012 2.55-4.01 8.029-3.839 11.549-6.559 2.87-2.96 3.851-7.1 5.141-10.88-2.48-.23-7.549-2.161-4.209-4.981 3.82-2.22-2.801-4.28-1.381-7.43 2.77-.63 5.47.23 7.83 1.67-.52-4.58-1.3-9.548 1.17-13.718 2.83-5.55 4.301-13.83-.029-18.84-4.72.29-9.98 1.449-14.34-.901-2.25-2.94-1.012-7.5-3.432-10.48-3.42-5.19-11.639-1.83-14.949-7.24-2.07-5.23.12-11.05-1.33-16.36-4.12-3.53-10.959-5.64-11.609-11.82 1.72-6.25 6.579-11.02 9.439-16.76 3.69-6.02-.779-13.83 3.221-19.75 3.17-4.01 8.398-6.26 10.468-11.16-2.6-9.86-2.259-20.15-3.339-30.23-3.87-6.42 1.849-13.36 2.849-19.85zm6.09 83.199c-1.45.91-2.89 1.82-4.26 2.84 1.5 1.7 3.252 3.191 4.612 5.031.92 3.22-.842 6.621-.202 9.901 1.76 2.31 4.54 3.51 6.93 5.08-2.39-7.6-3.72-15.602-7.08-22.852zm-104.422 56.178c.671-.046-.741 2.891-1.017 3.492-14.46 28-20.76 60.51-16.6 91.83 3.43 21.82 13.621 42.151 27.811 58.971-10.84 6.61-22.981 11.02-35.551 12.85-12.41 1.91-26.12-2.52-34.11-12.43-12.85-15.09-13.3-36.811-7.06-54.801 13.06-38.05 38.939-70.04 65.689-99.34.417-.394.683-.561.838-.572zm327.133 92.373c2.19 5.84 3.57 13.181-.85 18.381-4.86 4.6-11.9 6.029-18.4 6.029-26.23.58-52.21-7.419-75.15-19.769-17.61 11.98-35.851 23.448-51.651 37.718-1.5 17.7-.68 35.711 1.49 53.371 16.23-2.81 32.91-2.24 49.1.45 17.6 3.03 36.912 11.41 44.022 29.06 5.52 11.84 1.089 25.381-5.881 35.571 14.62-9.06 18.59-29.19 11.67-44.34 12.63 7.3 23.36 18.44 31.41 30.67 6.72 9.7 7.351 23.489.371 33.209-3.83 5.03-10.381 6.46-16.391 6.16 4.95 2.87 11.37 1.391 15.83-1.789 15.48-10.41 25.13-28.991 24.03-47.721 1.19-22.47-6.61-44.59-18.45-63.43-11.96-17.05-26.619-32.11-43.019-44.9 8.96.73 17.479 4.859 26.619 4.199 9.67.08 20.99.921 28.51-6.369 6.87-7.91 1.47-18.97-3.26-26.5zm-182.699 76.68c-9.4 8.51-17.502 18.549-26.012 28.009 10.17.62 20.341-1.149 30.311-2.949-1.85-8.29-2.959-16.69-4.299-25.06z" fill="#aa6546"/>
    <path id="color3" d="m554.49 117.359c-.54.7-1.07 1.39-1.58 2.09.28 6.65-1.941 12.951-2.881 19.451 4.62-3.6 9.64-7.03 13-11.92-2.49-3.52-6.059-6.081-8.539-9.621zm63.772 14.668c-.449.019-1.056.163-1.852.463-2.77.37-5.54.59-8.31.77 2.06 2.2 3.849 5.199 6.679 6.349 1.995-1.688 6.624-7.71 3.483-7.582z" fill="#c6ac9a"/>
    <path id="color4" d="m591.58 146.721c-1.83 8.68-1.399 18.259-5.109 26.299-2.14-8.49-4.022-17.061-6.442-25.481-3.2 7.06-4.348 14.771-6.318 22.191-4.19.6-8.47.6-12.66.09-.98-5.59.048-11.25.558-16.84-3.53 9.07-5.828 18.559-6.978 28.219-1.16-2.28-3.091-4.039-4.291-6.289-.93 18.88 1.45 38.53 10.41 55.43 7.32 14.11 13.839 29.3 14.289 45.41 3.57 1.24 7.942 3.37 11.422.73 3.29-3 3.529-7.83 3.939-11.98-.47-1.06-1.049-2.06-1.689-3.01-2.29-.61-4.142-2.04-5.522-3.92-1.56-1.74-3.589-3.4-3.429-5.99.01-3.63.841-7.32 2.621-10.5 3.96-.3 7.859 2.99 11.699 1.02 5.54-2.75 8.86-8.25 12.99-12.62 2.28-3.6 4.631-7.171 6.891-10.791 2.58-11.14-.362-22.439-.102-33.669 2.03-13.23-6.209-24.27-10.629-36.04.87 6.77 2.72 13.561 1.54 20.411-.94-.84-1.541-1.961-2.231-2.981-1.4 2.91-3.7 7-7.35 6.5-.41-8.81-.809-17.749-3.609-26.189zm-40.98 93.24c-1.24 2.85-1.72 5.949-2.36 8.969-.46 3.24-.56 6.69 1.19 9.59 5.67 4.2 10.34 9.711 16.82 12.791-2.34-11.65-8.18-22.22-15.65-31.35zm-29.631 183.596c-2.219-.004-4.285.715-5.219 2.982-.68 6.48-9.83 5.351-12.24 10.631-.23 2.66-1.55 4.891-3.24 6.891 2.22 3.55 4.4 7.5 8.14 9.66 1.82-2.15 3.28-4.57 4.67-7.01.24-.47.74-1.401.99-1.871 1.63-3.35 3.64-6.5 5.45-9.75.17-.3.521-.88.691-1.17 1.67-3.3 4.34-6 5.75-9.43-1.448-.49-3.267-.931-4.992-.933zm-46.43 106.494c-4.53 3.85-6.83 9.489-10.75 13.789-4.32 2.22-11.949.931-13.019-4.629-1.13-2.92-4.209-8.801-7.809-6.061-.01 4.81 2.119 9.319 2.199 14.139-3.93-2.99-6.721-7.56-11.631-9.09-4.66 5.03 2.411 11.731 6.451 14.821 5.51 2.18 4.409 10.12 10.129 11.88 5.35 2.62 11.481 1.671 17.221 1.981 6.31-9.94 12.24-20.121 17.6-30.611-3.55-1.94-6.921-4.159-10.391-6.219zm127.182 185.189c-1.252.015-2.483 1.688-2.91 2.821.87 6.04 4.219 11.498 4.599 17.638-3.86 1.85-7.021 4.702-10.381 7.272-7.91 3.02-16.109-1.151-24.099-1.141-9 1.78-17.601 5.85-26.981 5.44-.62 9.43 2.291 18.959.731 28.259-12.8 16.66-22.49 35.422-34.43 52.682-2.87 4.71-9.62 4.82-12.01 10-1.86 3.62-5.44 5.609-8.99 7.269-6.73 4.61-14.139 10.11-16.029 18.52-1.27 5.34 1.988 9.95 4.718 14.17 5.31 7.84 7.4 17.48 7.42 26.85.62 10.66 7.391 19.96 7.241 30.73.87 4.86 3.72 10.26 8.63 12.01 3.7.98 4.251-4.68 7.821-4.74 6.74-1.47 15.269-7.631 12.349-15.491-3.55-10.81-6.039-22.099-5.689-33.529.59-10.68-2.331-21.321-.711-31.971 1.7-5.58 5.829-9.99 9.539-14.34 8.51-9.46 16.612-19.499 26.012-28.009 1.34 8.37 2.449 16.77 4.299 25.06 7.37 37.7 19.419 74.27 31.939 110.52 2.31 5.62.35 12.179 3.5 17.519 8 9.78 6.781 23.721 13.971 34.051 3.85 7.15 12.86 8.88 20.23 7.63 7.58-1.75 12.041-8.63 17.731-13.27 8.52-7.111 19.689-9.43 29.199-14.78 6.1-4.13 11.889-9.681 19.619-10.301 8.1.76 13.04-9.62 11.16-16.32-5.37-.05-10.169-2.169-15.199-3.519-8.29 2.55-16.609 5.101-25.199 6.621-14.77 5.43-32.27 4.159-44.75-5.911-8.54-9.41-10.802-22.32-13.862-34.21-6.01-27.79-10.98-55.82-14.5-84.04-2.17-17.66-2.99-35.671-1.49-53.371 15.8-14.27 34.041-25.738 51.651-37.718 7.49-5.48 15.74-9.871 23.16-15.471-11.48-1.01-23.19 4.879-34.43 1.189-7.03-6.47-15.041-11.71-22.631-17.5-.392-.445-.811-.624-1.228-.619z" fill="#f9e0d0"/>
    <path id="color5" d="m548.24 248.93c-.79.68-1.569 1.361-2.359 2.041-1.04 8.4 5.329 14.929 10.889 20.259 3.47 2.8 6.57 6.431 10.91 7.901-.13-.66-.37-1.961-.5-2.611-6.92-4.79-13.91-10.32-17.75-18-1.75-2.9-1.65-6.35-1.19-9.59zm31.52 2.65c-.16 2.59 1.869 4.25 3.429 5.99 2.4.41 4.522 1.57 5.522 3.92.64.95 1.219 1.95 1.689 3.01 2.4 5.26 2.711 11.76 7.231 15.83 4.78 3.86 11.31 3.06 17 4.1 4.92.96 8.198 5.08 11.238 8.72.35-.36 1.06-1.07 1.41-1.42-3.23-4.89-8.06-9.44-14.24-9.65-5.62-.55-12.869-.34-16.039-5.99-2.73-5.94-3.92-12.541-7.41-18.151-2.61-3.03-6.12-4.999-9.83-6.359zm-4.321 31c .12.54.341 1.63.461 2.17 14.3 8.32 32.329 3.819 46.639 11.859.51-.54 1.021-1.079 1.551-1.619-14.93-8.46-33.471-4.24-48.651-12.41zm-55.228 151.34c-.17.29-.521.87-.691 1.17 17.18 18.46 38.08 34.141 62.55 41.301-7.18.71-14.969 2.948-21.759-.602-17.01-7.5-33.531-17.209-46.241-30.949-.25.47-.75 1.401-.99 1.871 12.34 14.03 29.26 23.128 45.93 31.078-17.88-1.36-35.439-5.909-51.949-12.869-1.64-.37-5.551-2.74-3.811.67 19.45 8.61 40.511 13.83 61.811 14.57 20.77 5.94 42.989 4.98 63.959.5 2.36.05 1.061-2.63 1.031-3.91-12.6 1.84-25.43 1.69-38-.35 12.38-4.16 25.249-8.56 35.209-17.3-.36-.25-1.07-.729-1.42-.969-11.2 7.54-23.56 13.55-36.77 16.58-3.68.7-7.229-1.01-10.689-2-19.9-6.15-36.971-19.001-51.611-33.471-2.14-1.78-3.569-4.99-6.559-5.32zm65.945 43.926c5.602-.045 11.197 1.639 16.815 1.984 5.99.68 12.02.04 18 .65-16.16 1.47-32.941 3.279-48.821-.951 2.8-.25 5.601-.599 8.401-.949 1.87-.512 3.738-.719 5.605-.734zm-140.642 19.947c-4.148.254-1.273 9.028.855 11.588.64-.13 1.921-.411 2.561-.541-1.23-3.57-1.991-7.251-2.491-10.981-.341-.063-.649-.083-.925-.066zm169.506 188.008c-3.06.72-3.011 2.889-2.081 5.459 10.68 6.01 23.171 6.821 35.071 8.291 11.08.4 22.93 1.329 32.9-4.531 1.71-1.24 2.141-5.641-.099-5.831-22.02 1.13-43.941-.938-65.791-3.388zm-96.459.681c-.68-.014-1.369.05-2.061.207-1.42 3.15 5.201 5.21 1.381 7.43-3.34 2.82 1.729 4.751 4.209 4.981 5.95 1.16 10.79 5.05 16.32 7.3 17.78 8.69 38.719 5.25 56.529-1.48.7-2.02.501-4.13.081-6.17-23.7 4.29-50.56 4.939-70.69-10.391-1.77-1.08-3.731-1.833-5.769-1.877z" fill="#1c2823"/>
    <path id="color6" d="m636.736 285.025c-3.799.117-6.532 4.484-9.457 6.705-.35.35-1.06 1.06-1.41 1.42-.59.62-1.189 1.23-1.779 1.84-.53.54-1.041 1.079-1.551 1.619-1.42 1.86-5.269 5.021-2.529 7.211 9.17 5.25 10.03 16.85 14.83 25.33 2.15 4.1 5.391 10.66 11.041 8.84 7.19-3.77 12.629-10.19 17.609-16.47 1.67-2.41 4.51-5.98 1.75-8.67-4.97-5.78-10.941-10.579-16.551-15.709-.92-.68-1.849-1.331-2.779-1.981-4.52-1.75-6.58-5.939-8.4-10.099-.263-.032-.52-.043-.774-.036zm-174.642 220.039c-4.645.094-8.721 2.716-13.164 3.776-.64.13-1.921.411-2.561.541-4.66.82-10.048 1.809-12.808 6.119-4.51 6.68-2.952 15.749-.032 22.699 4.91 1.53 7.701 6.1 11.631 9.09-.08-4.82-2.209-9.329-2.199-14.139 3.6-2.74 6.679 3.141 7.809 6.061 1.07 5.56 8.699 6.849 13.019 4.629 3.92-4.3 6.22-9.939 10.75-13.789-3.71-4.43-.06-9.191 2.25-13.221-.72-6.41-7.18-12.02-13.76-11.75-.315-.017-.626-.022-.935-.016z" fill="#8a1a20"/>
    <path id="color7" d="m483.641 494.539c-3.5 4.63-5.941 11.24-6.291 17.24 2.56 5.95 8.491 9.63 13.711 13.08 4.62-3.87 6.788-9.759 11.388-13.609-1 6.49-6.719 13.43-2.849 19.85 4.12 1.83 8.07 4.02 12.13 6 6.33 2.39 12.64 4.84 19.09 6.9 4.97 1.38 10.03 2.361 15.09 3.381 7.42 1.65 15.05 1.489 22.61 1.459 23.64-3.28 45.529-14.18 65.269-27.19.39-.27 1.18-.81 1.57-1.08 2.63-2.13 8.171-4.551 5.721-8.711-1.91-4.11-3.36-8.378-4.84-12.648-16.63 7.58-32.4 17.578-49.97 23.228-13.1 4.86-27.411 4.372-40.831 1.202-22.5-4.72-43.458-15.402-61.798-29.102z" fill="#4f827c"/>
    <path id="color8" d="m635.359 520.57c-.39.27-1.18.81-1.57 1.08 6.45 31.45 16.772 62.061 28.432 91.911 1.06-3.9 1.1-8.121.17-12.041-1.4-3.8-4.972-7.12-3.772-11.51.44-6.18 6.451-13.34 1.111-18.78-3.48-3.83-3.15-9.251-1.46-13.781 1.96-5.99-1.59-11.919-6.18-15.539-4.55-3.31-1.53-9.081-1.25-13.551-4.4-3.83-10.231-5.459-15.481-7.789zm-123.629 16.53c-2.41 1.75-4.7 3.72-6.56 6.06-2.34 5.8.869 12.51-2.231 18.17-2.07 4.9-7.298 7.15-10.468 11.16-4 5.92.469 13.73-3.221 19.75-2.86 5.74-7.719 10.51-9.439 16.76.65 6.18 7.489 8.29 11.609 11.82 1.45 5.31-.74 11.13 1.33 16.36 3.31 5.41 11.529 2.05 14.949 7.24 2.42 2.98 1.182 7.54 3.432 10.48 4.36 2.35 9.62 1.191 14.34.901-.42-13.36-7.822-25.34-9.852-38.5-2.39-1.57-5.17-2.77-6.93-5.08-.64-3.28 1.122-6.681.202-9.901-1.36-1.84-3.112-3.331-4.612-5.031 1.37-1.02 2.81-1.93 4.26-2.84 11.37-4.5 5.52-18.1 7.5-27.17 3.23-4.78 8.931-7.229 12.461-11.799 2.98-3.05 2.12-7.62 2.32-11.48-6.45-2.06-12.76-4.51-19.09-6.9zm34.18 10.281c-2.16 18.54-5.901 38.629 3.369 55.969.23-3.28.451-6.551.721-9.811 6.1 2.28 5.95 10.821 10.1 15.381 7.02-2.72 10.28-10.011 15.89-14.471.19 2.2.29 4.431.43 6.651 1.81-8.58 1.319-17.4 1.189-26.11-1.4-9.2-6.119-17.42-9.089-26.15-7.56.03-15.19.191-22.61-1.459z" fill="#124736"/>
    <path id="color9" d="m633.789 521.65c-19.74 13.01-41.629 23.91-65.269 27.19 2.97 8.73 7.689 16.95 9.089 26.15.13 8.71.621 17.53-1.189 26.11-.14-2.22-.24-4.451-.43-6.651-5.61 4.46-8.87 11.751-15.89 14.471-4.15-4.56-4-13.101-10.1-15.381-.27 3.26-.491 6.531-.721 9.811-9.27-17.34-5.529-37.429-3.369-55.969-5.06-1.02-10.12-2.001-15.09-3.381-.2 3.86.66 8.43-2.32 11.48-3.53 4.57-9.231 7.019-12.461 11.799-1.98 9.07 3.87 22.67-7.5 27.17 3.36 7.25 4.69 15.252 7.08 22.852 2.03 13.16 9.432 25.14 9.852 38.5 4.33 5.01 2.859 13.29.029 18.84-2.47 4.17-1.69 9.138-1.17 13.718 20.13 15.33 46.99 14.681 70.69 10.391 1.06-5.17 4.61-9.51 5.24-14.76-1.18-4.08-4.19-7.651-3.99-12.121-.18-10.31-.849-20.589-1.879-30.849 6.45 9.03 12.34 18.59 17.07 28.63.76 5.49-.201 11.461 3.559 16.151 21.85 2.45 43.771 4.518 65.791 3.388 1.06-5.6 3.138-10.889 4.888-16.279 1.73-6.17-4.588-9.95-6.388-15.18-6.14-14.52-13.08-28.919-17.09-44.169-11.66-29.85-21.982-60.461-28.432-91.911zm-134.189 9.45c1.08 10.08.739 20.37 3.339 30.23 3.1-5.66-.109-12.37 2.231-18.17 1.86-2.34 4.15-4.31 6.56-6.06-4.06-1.98-8.01-4.17-12.13-6zm113.339 160.16c-3.04 6.98-10.669 9.62-15.839 14.65-.54-.25-1.621-.74-2.161-.99-17.81 6.73-38.749 10.17-56.529 1.48-5.53-2.25-10.37-6.14-16.32-7.3-1.29 3.78-2.271 7.92-5.141 10.88-3.52 2.72-8.999 2.549-11.549 6.559-2.31 5.04.379 11.432 5.129 14.012 3.35 1.88 7.36 1.279 11 2.129 8.17 2.83 12.42 11.55 20.42 14.59 9.38.41 17.981-3.66 26.981-5.44 7.99-.01 16.189 4.161 24.099 1.141 3.36-2.57 6.521-5.422 10.381-7.272-.38-6.14-3.729-11.598-4.599-17.638.57-1.51 2.568-3.982 4.138-2.202 7.59 5.79 15.601 11.03 22.631 17.5 11.24 3.69 22.95-2.199 34.43-1.189 8.96 1.49 18.72 1.29 26.67-3.5-2.53-11.02-5.4-22.19-5.77-33.65-9.97 5.86-21.82 4.931-32.9 4.531-11.9-1.47-24.391-2.281-35.071-8.291z" fill="#284c55"/>
  </g>
</svg>
