<svg height="1080" width="1920" xmlns="http://www.w3.org/2000/svg">
  <path id="background" d="m0 0h1920v1080h-1920z" fill="#7174af"/>
  <g id="transform" transform="translate(0,0) scale(1.00)">
    <path id="color1" d="m1421.09 86.0996c.01.0115.02.0237.04.0352-.01-.0118-.01-.0234-.01-.0352zm.04.0352c.58 2.9877 1.44 5.9161 2.01 8.9043-8.04-1.96-15.79-5.2399-24.08-6.0899 3.1 3.64 6.88 6.8299 9.07 11.1698-1.38 1.87-3.18 3.361-4.77 5.041 1.39.51 2.85.921 4.26 1.481 1.29 11.58-.41 23.33 1.18 34.91 1.45-4.56 2.53-9.22 3.84-13.83 3.86 2.81 6.52 7.049 8.24 11.429-.68 2.63-2.66 4.911-2.76 7.661 1.27 2.57 3.42 4.57 4.8 7.08-1.14 2.1-2.72 3.909-3.8 6.019 1.61 3.41 4.6 5.891 6.59 9.061-1.16 3.06-5.32 6.31-2.07 9.42 3.32 3.23.95 10.4 7.1 10.24 9.16-.36-5.8-9.6-.1-12.91 5.1-3.15-1.29-8.862-2-12.852 8.04-1.42-2.11-10.458-.59-14.238 7.42.25 1.66-7.521 1.27-11.641 2.5 2.28 5.26 4.27 8.41 5.58-5.21-7.28-8.42-15.77-6.35-24.82 5.01 1.89 8.84 5.79 13.22 8.75-1.02-5.59-3.83-10.55-6.14-15.66 5.9 2.66 11.04 6.68 16.83 9.56-5.72-6.85-13.06-12.051-19.13-18.541-5.16-5.1076-9.67-10.8417-15.03-15.7242zm-148.81 74.1662c.12 1.65.32 3.299.42 4.959-6-.5-12.04-1.46-18.06-.58 3.97 2.96 8.7 5.13 11.69 9.24-1.89 1.75-4.02 3.22-6.01 4.84 2.38.92 4.93 1.44 7.2 2.65 2.75 6.52 4.21 13.539 7.31 19.949-.51-2.89-.76-5.82-.64-8.75 3.28 2.52 7.14 5.781 6.59 10.401-.22 2.85.45 5.57 2.91 7.26 3.46 2.28.52 7.649 4.06 9.839 4.87 2.59 2.04 9.451 6.54 12.481 1.79 2.85 4.6.79 6.61-.57-2.22-1.62-4.35-3.309-6.51-4.959 6.91-3.66-3.22-8.561-5.15-12.491 1.64-.28 3.31-.47 4.99-.75-1.99-3.4-4.52-6.421-6.92-9.531 1.8-.17 4.11 1.051 5.38-.799-6.52-5.38-5.38-14.119-7.34-21.519 4.57 1.42 8.7 3.89 13.13 5.66-1.26-4.19-3.77-7.78-6.11-11.41 3.99.26 7.97.629 11.97.959-11.09-4.72-23.97-7.169-32.06-16.879z" fill="#f5ecdb"/>
    <path id="color2" d="m1438.46 110.84c2.31 5.11 5.12 10.07 6.14 15.66-4.38-2.96-8.21-6.86-13.22-8.75-2.07 9.05 1.14 17.54 6.35 24.82 13.82 23.48 26.18 47.98 36.72 73.1-5.45-3.86-9.46-9.35-14.87-13.26-8.35-6.85-18.32-11.549-28.87-13.779-6.15.16-3.78-7.01-7.1-10.24-3.25-3.11.91-6.36 2.07-9.42-1.99-3.17-4.98-5.651-6.59-9.061 1.08-2.11 2.66-3.919 3.8-6.019-1.38-2.51-3.53-4.51-4.8-7.08.05-2.75 2.08-5.031 2.76-7.661-1.72-4.38-4.38-8.619-8.24-11.429-1.31 4.61-2.39 9.27-3.84 13.83.28 5.1 1.2 10.179 1.06 15.299-21.54 6-42.7 14.76-60.49 28.58-2.17 1.54-4.47 4.08-7.38 2.82-12.59-3.47-25.1-7.24-37.58-11.07-4-.33-7.98-.699-11.97-.959 2.34 3.63 4.85 7.22 6.11 11.41-4.43-1.77-8.56-4.24-13.13-5.66 1.96 7.4.82 16.139 7.34 21.519 5.05 7.46 10.85 14.83 13.62 23.51-1.17 2.23-3.39 3.64-5.41 5.02-2.01 1.36-4.82 3.42-6.61.57-4.5-3.03-1.67-9.891-6.54-12.481-3.54-2.19-.6-7.559-4.06-9.839-2.46-1.69-3.13-4.41-2.91-7.26.55-4.62-3.31-7.881-6.59-10.401-.12 2.93.13 5.86.64 8.75 4.41 12.65 11.69 24.05 16.86 36.33-15.82 8.96-34.49 15.171-52.84 12.661 18.53 7.14 38.79 2.161 56.55-4.799-22.47 33.3-36.87 73.928-31.29 114.478 2.4 13.88 7.74 27.79 17.85 37.91-17.07-20.44-16.48-49.259-11.17-73.929 2.43-8.97 3.84-18.461 8.28-26.721-4.11 25.99-3.12 53.571 7.85 77.871 6.53 14.51 18.56 28.11 34.99 30.77-14.98-4.9-25.23-18.931-29.47-33.571 3.4 2.98 6.46 6.401 10.35 8.791-2.02-4.1-4.33-8.13-5.26-12.66 5.42 4.33 14.24 7.799 11.78 16.369.69-1.7 1.33-3.42 2.1-5.08 4.74 6.98 12.38 13.03 11.97 22.26 8.11 58.54 25.03 115.97 50.1 169.49 3.49 7.66 8.12 14.811 10.85 22.801 4.32-.76 8.68-1.35 12.99-2.26 2.68-1.39 5.64-1.309 8.52-.609 1.08-1.2 2-2.541 2.9-3.891l.2-.48c-8.2-15.74-12.23-33.16-17.21-50.09-6.56-26.97-12.83-54.329-13.99-82.119-6.62-5-12.66-11.17-15.61-19.08-8.25-21.47-18.97-42.341-34.33-59.641-4.85-4.8-2.61-12.251-2.61-18.291 3.06 6.83 6 13.97 11.62 19.17-2.46-6.5-4.52-13.179-5.22-20.119-2.41-19.56-2.66-39.491-.18-59.051 3.07 24.97 13.08 52.882 37.49 64.182-19.97-13.29-26.74-38.531-29.45-61.041-1.6-18.7-1.66-38.039 3.99-56.119 10.58 12.79 15.44 29.189 19.73 44.939 4 20.42 6.74 42.411-1.04 62.301 4.25-5.27 5.3-12.032 7.12-18.342 2.29 10.01 5.69 20.192 13.28 27.512-3.21-6.03-6.1-12.372-6.68-19.272-2-18.13-2.53-36.398-4.92-54.468 5.14 14.7 9.68 30.189 19.76 42.449-1.51-4.24-2.75-8.611-2.86-13.141 3.66 2.73 6.21 6.571 8.98 10.131-.27-4.17-.82-8.311-1.11-12.471 3.05 3.22 5.89 6.66 9.32 9.51-9.67-14.69-12.93-32.428-14.51-49.658-.63-8.06-1.56-16.322.42-24.272 3.36 23.52 13.33 45.91 28.98 63.84-7.87-14.06-13.65-29.359-16.96-45.109 7.11 14.51 14.72 29.27 26.84 40.32-2.01-4.08-4.35-7.999-5.93-12.269 3.6 3.49 6.68 7.598 10.93 10.388-1.3-4.14-2.71-8.278-3.04-12.638 4.12 4.42 7.37 9.609 11.95 13.609-17.4-28.7-29.43-60.429-38.89-92.529 4.96 4.99 8.59 11.09 12.6 16.83 13.83 21.64 25.99 45.459 28.04 71.469 1.01-27.85-7.92-55.699-24.25-78.209-1.68-2.29-3.28-4.651-4.64-7.141 17.12 15.31 27.72 36.381 38.24 56.461 29.7 63.66 48.39 132.748 53.05 202.908.23 2.68.06 5.371-.2 8.041.24 9.54.31 19.091.1 28.631v8.709c.73 10.07.9 20.251-.98 30.211-2.2 24.67-5.99 49.389-14.07 72.879-3.4 12.7-8.18 24.99-13.31 37.08-8.54 20.05-18.5 39.97-33.74 55.83 14.66-8.29 26.78-20.45 38.39-32.49-10.45 18.11-22.82 35.469-38.51 49.439 5.69-2.07 10.51-5.829 15.34-9.389 22.59-17.87 38.61-42.659 51.33-68.169 14.4-29.64 24.11-61.201 32.27-93.041 4.15 23.29 8.65 46.749 16.71 69.099 8.75 28.67 22.49 56.35 43.76 77.82 4.32 3.13 8.31 6.912 13.45 8.702-4.27-4.38-9.6-7.561-13.65-12.151-19.08-18.76-26.59-45.541-33.38-70.631-10.75-49.98-12.96-101.248-16.27-152.138-.15-2.06-.27-4.11-.37-6.16-.49-6.08-1.46-12.141-1.46-18.241 5.41-1.24 7.28 4.289 10.1 7.549 2.72.57 5.55.4 8.3.92 1.82 2.15 2.69 4.961 4.6 7.061 2.91.6 5.93.47 8.87 1.08.71 3.14.21 6.57 1.53 9.57 2.58 2.04 6.05 2.389 8.87 4.029.68 4.41-.9 9.882 3.42 12.862 4.48 3.05 1.99 8.51 1.89 12.91-.61 4.59 6.45 6.048 5.54 10.648-.72 3.89-.64 7.842 1.4 11.352 2.29 3.29-1.5 5.919-3.13 8.469 1.83 4.63 3.92 9.37 3.63 14.48-.32 16.42-4.69 32.56-4.82 48.92 6.52 4.54 11.96 10.4 18.2 15.31 41.18 35.15 90.31 60.201 141.92 75.981 6.28 24.86 5.46 50.949 3.02 76.299-4.43 26.15-15.16 52.829-35.98 70.179-8.22 7.5-23.34 8.721-29.92-1.509 2.73 4.75 6.37 9.63 11.96 11.09 9.73 2.41 19.61-1.679 27.54-7.129 13.64-9.66 22.75-24.301 29.48-39.321 14.18-32.34 17.33-68.121 18.2-103.031 11.09.37 21.89 4.01 33.08 3 15.46.77 33.96-1.419 43.2-15.549-5.01 4.65-10.38 9.261-17.13 11.061-19.93 5.4-41.04.54-59.88-6.59-.39-22.39-6.5-44.122-10.62-65.932 13.24 6.25 26.6 12.321 40.4 17.311-18.66-10.2-33.36-26.01-47.41-41.66-4.15-4.37-5.05-10.54-7.19-15.93-10.43-26.28-23.77-51.311-38.52-75.391-2.62-4.13-5.92-7.919-7.33-12.689 5.37 4.37 8.9 10.461 13.6 15.471 55.34 64.74 115.68 127.279 189.88 170.459v-23.969c-36.16-26.31-68.34-57.672-99.73-89.352 32.64 13.56 67.89 20.3 99.73 35.84v-58.51c-71.68-47.63-141.97-97.759-206.7-154.609-2.23-1.82-4.21-3.93-5.87-6.27 7.12 3.15 12.85 8.64 19.57 12.53 58.99 38.76 124.79 66.369 193 84.109v-39.719c-68.7-11.98-137.48-31.239-197.41-67.929-2.28-1.3-4.32-2.971-6.24-4.721 28.94 11.72 59.25 21.07 90.61 22.93 22.19 3.38 44.69 1.76 67.05 2 15.33-.91 30.7-1.501 45.99-2.991v-25.689c-52.33 4.31-105.8 3.88-157.07-8.77-33.85-8.68-66.78-22.361-95.02-43.191-32.04-23.95-58.22-55.168-78.43-89.568-10.85-18.47-22.64-36.721-38.24-51.571-16.19-16.76-37.15-29.071-59.98-34.031-7.42-1.51-11.83-8.249-17.3-12.849-6.4-5.34-12-11.6-18.67-16.62-5.79-2.88-10.93-6.9-16.83-9.56zm-122.25 227.961c3.57 9.69 4.77 20.269 5.86 30.529-3-1.79-4.21-5.211-4.76-8.471-1.24-7.27-2.17-14.718-1.1-22.058zm117.95 141.808c-.07 27.22 1.71 54.731-4.45 81.481 4.51-1.81 3.51-7.37 5.3-11.02 2.21-1.86 5.28-2.6 7.18-4.83 1.11-2.75 1.18-5.86 2.59-8.5 2.39-2.18 5.78-2.72 8.4-4.59 1.96-2.64 2.33-6.11 4.19-8.83 2.59-2.22 6.31-2.719 8.74-5.179 2.72-4.39 2.34-11.581 8.59-12.741-.21-8.12-.48-16.461-3.15-24.201-4.67 3.02-8.51 8.721-14.47 8.791-7.78-3.09-15.17-7.151-22.92-10.381zm178.36 57.862c4.44 2.74 7.5 7.109 11.61 10.289 30.04 27.13 64.84 48.269 100.1 67.849 2.16 1.12 4.22 2.641 5.31 4.911 12.25 21.63 24.42 43.759 30.84 67.919-27.56-11.94-50.62-32.109-72.32-52.509-26.13-26.62-49.85-55.749-69.59-87.459-2.13-3.58-4.94-6.87-5.95-11zm-218.99 56.449c-2.66.3-5.3.6-7.92 1 .84 1.09 1.7 2.22 2.56 3.34.38-.28 1.15-.839 1.53-1.119 1.28-1.07 2.52-2.171 3.83-3.221z" fill="#bd785f"/>
    <path id="color3" d="m1429.29 136.99c.39 4.12 6.15 11.891-1.27 11.641-1.52 3.78 8.63 12.818.59 14.238.71 3.99 7.1 9.702 2 12.852-5.67 3.31 9.29 12.55.1 12.91 10.55 2.23 20.52 6.929 28.87 13.779 5.41 3.91 9.42 9.4 14.87 13.26-10.54-25.12-22.9-49.62-36.72-73.1-3.15-1.31-5.91-3.3-8.41-5.58zm-136.56 66.5c-1.27 1.85-3.58.629-5.38.799 2.4 3.11 4.93 6.131 6.92 9.531-1.68.28-3.35.47-4.99.75 1.93 3.93 12.06 8.831 5.15 12.491 2.16 1.65 4.29 3.339 6.51 4.959 2.02-1.38 4.24-2.79 5.41-5.02-2.77-8.68-8.57-16.05-13.62-23.51zm124.11 374.78c-4.67.25-5.63 5.65-7.86 8.82l-.2.48c.66 1.53 2.11 6.059 4.08 3.299 2.96-3.79 9.79-3.53 10.53-9-2.33-.92-5.82-.609-6.55-3.599zm-14.22 12.709c-1.8-.073-3.59.223-5.26 1.091-1.3.94-2.55 1.91-3.83 2.85-1.31 1.05-2.55 2.151-3.83 3.221 2.52.88 5.02 1.849 7.51 2.879 2.7-3.35 5.73-6.419 8.67-9.559-1.08-.263-2.17-.439-3.26-.482zm5.7 1.982c-3.11 2.49-6 5.24-8.67 8.18 1.67 1.21 3.34 2.429 5 3.679 1.93-1.74 3.59-3.771 4.98-5.961-.47-1.97-.84-3.948-1.31-5.898zm-31.79 15.318c-2.18 1.71-4.35 3.421-6.58 5.051 1.53 2.36 3.01 4.759 4.41 7.209 3.61 1.58 7.28 3.041 10.96 4.451 3.19-2.94 6.06-6.189 8.83-9.519-.86-.92-1.74-1.822-2.58-2.692-.44-.12-1.3-.38-1.74-.5-4.47-1.23-8.77-3.01-13.3-4z" fill="#e8b0b0"/>
    <path id="color4" d="m1182.01 185.939c-9.99 12.54-16.79 27.601-20.83 43.061-1.56 3.47-4.87 5.719-7.47 8.359.95-11.62 5.32-22.47 9.21-33.33-6 10.7-10.36 22.611-10.91 34.961-.17 4.57-4.54 7.271-7.22 10.471.52-15.82 6.29-30.682 11.14-45.522-7.67 14.79-12.96 31.281-12.86 48.071.27 5.5-5.18 8.499-8.2 12.349-.42-20.02 4.59-39.479 10.95-58.289-6.94 14.71-11.3 30.64-12.6 46.85-.53 5.59.58 11.3-.53 16.83-2.02 3.06-4.52 5.77-6.77 8.66-1.75-15.12 2.48-29.811 5.79-44.381-6.19 14.08-8.66 29.68-7.37 45 1.03 5.33-3.77 9.042-4.64 14.022-.15 2.86-2.04.039-1.86-1.051-3.88-16.5-2.93-33.391-1.15-50.061-4.43 18.85-5.15 39.032.93 57.612.73 2.6 1.95 5.35 1.07 8.09-25.3 73.87-43.97 150.389-50.4 228.339-4 53.26-3 106.93 3.67 159.93-9.26-21.3-18.14-42.84-28-63.91-2.43-4.92-3.59-10.45-3.07-15.93 3.04-34.08-2.14-68.769-14.63-100.609-11.65-28.76-28.09-55.41-46.92-80-25.99-32.68-57.259-62.861-95.959-79.811-3.64-1.66-7.471-2.851-11.381-3.621 22.99 9.85 41.98 27.03 58.27 45.67 34.98 40.12 58.73 88.47 78.72 137.41 9.13 24.36 18.18 49.102 21.96 74.952.07 8.61 5.9 15.348 9.2 22.888 16.75 34.7 33.07 70.182 40.68 108.192 9.74 41.82 24.78 82.279 42.89 121.179 2.3 3.86 4.26 7.92 5.78 12.16 1.48 2.94 3.11 5.81 4.73 8.69 4.11 7.86 8.54 15.559 12.45 23.529 3.26 5.16 6.21 10.5 9.19 15.83 2.08 3.01 4.1 6.072 5.88 9.282 16.16 26.87 34.86 52.12 54.32 76.659 1.72-3.53 3.43-7.09 4.75-10.79-18.95-22.85-35.93-47.249-52.33-71.969-2.34-3.15-4.27-6.572-6.1-10.022-2.27-3.31-4.41-6.719-6.3-10.259-5.27-7.81-10.07-15.95-14.2-24.41-.72-1.39-1.4-2.781-2.1-4.151-4.11-2.4-10.78-3.888-11.21-9.488 1.63-.46 3.31-.771 4.97-1.211-1.28-3.29-2.94-6.41-4.31-9.65-2.91-5.85-6.49-11.74-6.25-18.53-2.6-42.25 17.18-81.161 34.33-118.461 18.81-42.26 54.4-75.349 95.29-96.049 22.8-11.06 45.93-21.531 67.99-34.031 11.52-7.62 26.35-13.109 39.67-6.619-9.12-7.09-21.54-7.12-32.52-6.23-11.99.69-23.33 4.88-34.57 8.72-35.14 11.67-73.92 18.07-102.7 43.18-19.08 16.8-29.96 42.13-29.54 67.5.23 10.8-6.53 19.651-10.77 29.061-16.52 33.56-31.28 69.619-31.38 107.589-3.47-3.62-4.23-8.84-6.32-13.24-22.95-55.35-36.19-114.591-39.87-174.371-4.23-76.53 3.86-153.389 20.12-228.189 8.72-35.98 17.98-72.39 34.68-105.59 20.58 1.12 39.95-7.941 56.67-19.141-16.46 7.34-33.31 16.171-51.78 16.031 6.17-3.23 11.62-7.4 16.08-12.72 13.22-5.33 26.72-11.04 37.68-20.42-13.59 7.73-27.75 14.659-42.73 19.279 6.78-4.2 11.13-11.669 18.92-14.199 10.15-4.79 19.71-11.15 27.68-19.08-11.23 7.67-22.63 15.829-35.84 19.609 4.27-3.91 9.03-7.258 13.02-11.488 10.15-7.09 21.33-13.291 29.25-23.051-11.42 8.22-22.6 17.669-36.06 22.289 3.45-3.79 8.82-5.678 11.32-10.318-.75-.99-1.55-1.92-2.24-2.91 11.65-6.03 23.63-12.411 32.58-22.221-6.88 4.62-13.23 10.26-20.94 13.49-1.26-.95-2.35-2.08-3.36-3.25 14.15-7.48 28.42-16.441 37.45-30.041-8.95 8.56-18.09 17.3-29.26 22.92-.3-.54-.91-1.609-1.21-2.139 8.7-7.29 18.39-14.361 23.45-24.861-5.05 5.77-9.45 12.492-16.26 16.352-2.41-.12-4.73-1.071-6.99-1.821 11.79-9.7 23.28-20.26 31.17-33.49-10.55 12.45-21.91 24.56-35.47 33.74 4.43-14.82 15.72-26.07 26.25-36.83-11.49 7.37-19.92 18.58-26.1 30.58-.85-2.28-2.65-4.74-1.5-7.24 3.55-9.41 11.2-16.21 17.75-23.51-10.52 6.85-18.25 17.52-22.87 29.09-1.29 4.28-6.12 5.219-9.57 7.129 4.14-13.12 10.7-25.23 17.52-37.1z" fill="#fcd979"/>
    <path id="color5" d="m1404.85 215.721c9.46 32.1 21.49 63.829 38.89 92.529-4.58-4-7.83-9.189-11.95-13.609.33 4.36 1.74 8.498 3.04 12.638-4.25-2.79-7.33-6.898-10.93-10.388 1.58 4.27 3.92 8.189 5.93 12.269-12.12-11.05-19.73-25.81-26.84-40.32 3.31 15.75 9.09 31.049 16.96 45.109-15.65-17.93-25.62-40.32-28.98-63.84-1.98 7.95-1.05 16.212-.42 24.272 1.58 17.23 4.84 34.968 14.51 49.658-3.43-2.85-6.27-6.29-9.32-9.51.29 4.16.84 8.301 1.11 12.471-2.77-3.56-5.32-7.401-8.98-10.131.11 4.53 1.35 8.901 2.86 13.141-10.08-12.26-14.62-27.749-19.76-42.449 2.39 18.07 2.92 36.338 4.92 54.468.58 6.9 3.47 13.242 6.68 19.272-7.59-7.32-10.99-17.502-13.28-27.512-1.82 6.31-2.87 13.072-7.12 18.342 7.78-19.89 5.04-41.881 1.04-62.301-4.29-15.75-9.15-32.149-19.73-44.939-5.65 18.08-5.59 37.419-3.99 56.119 2.71 22.51 9.48 47.751 29.45 61.041-24.41-11.3-34.42-39.212-37.49-64.182-2.48 19.56-2.23 39.491.18 59.051.7 6.94 2.76 13.619 5.22 20.119-5.62-5.2-8.56-12.34-11.62-19.17-.04 6.04-2.24 13.491 2.61 18.291 15.36 17.3 26.08 38.171 34.33 59.641 2.95 7.91 8.99 14.08 15.61 19.08 17.39 11.4 38.03 16.168 56.38 25.728 7.75 3.23 15.14 7.291 22.92 10.381 5.96-.07 9.8-5.771 14.47-8.791 2.67 7.74 2.94 16.081 3.15 24.201.11 3.45-.12 6.91.11 10.37 3.52-1.29 7.27-2.39 10.31-4.67 2.69-3.13 2.84-7.599 5-11.049 3.06-1.94 6.95-1.97 10.03-3.91 2.82-3.53 2.76-9.171 7.54-11.061.3-2.67.43-5.361.2-8.041-4.66-70.16-23.35-139.248-53.05-202.908-10.52-20.08-21.12-41.151-38.24-56.461 1.36 2.49 2.96 4.851 4.64 7.141 16.33 22.51 25.26 50.359 24.25 78.209-2.05-26.01-14.21-49.829-28.04-71.469-4.01-5.74-7.64-11.84-12.6-16.83zm-88.64 123.08c-1.07 7.34-.14 14.788 1.1 22.058.55 3.26 1.76 6.681 4.76 8.471-1.09-10.26-2.29-20.839-5.86-30.529zm-183.02 517.09c-1.31-.004-2.63.176-3.95.629 1.37 3.24 3.03 6.36 4.31 9.65-1.66.44-3.34.751-4.97 1.211.43 5.6 7.1 7.088 11.21 9.488 3.2.63 6.39 1.45 9.41 2.75-2.43.55-4.86 1.051-7.31 1.401 4.13 8.46 8.93 16.6 14.2 24.41 4.22-.88 8.49-2.04 12.85-1.69 1.23 5.24-3.38 8.659-6.55 11.949 1.83 3.45 3.76 6.872 6.1 10.022 6.41-4.94 11.38-15.481 20.89-13.211 21.29 5.32 43.7 8.549 65.51 4.449 3.23-.9 6.39-2.07 9.54-3.25-8.12-12.36-17.38-24.199-28.06-34.459-3.56-.4-7.13-.6-10.65-1.22-18.34-3.14-35.41-11.239-53.7-14.629-9.1-1.47-18.3-2.471-27.22-4.881-3.82-.938-7.69-2.607-11.61-2.619zm-9.47 6.429c-7.05 8.42-15.47 15.541-24.01 22.391-2.08 1.61-3.93 3.568-5.03 5.988 13.41.44 25.81-6.729 34.82-16.219-1.52-4.24-3.48-8.3-5.78-12.16zm10.51 20.85c-12.76 3.96-25.64 7.91-38.03 12.83 1.82 3.35 5.99 3.429 9.21 4.539-1.24 1.25-2.58 2.41-3.74 3.74 1.08 2.16 3.57 2.69 5.76 3.08 13.03 1.88 26.23.78 39.25-.66-3.91-7.97-8.34-15.669-12.45-23.529zm21.64 39.359c-7.12 9.29-17.88 15.511-24 25.401 12.2 1.19 21.22-9.079 29.88-16.119-1.78-3.21-3.8-6.272-5.88-9.282zm140.5 22.28c-.59.015-1.21.145-1.8.261-11.86 5.81-25.31 7.031-37.39 12.141-10.89 6.8-18.38 17.789-29.03 24.959-5.47 3.25-5.14 10.26-7.33 15.51-1.32 3.7-3.03 7.26-4.75 10.79-1.97 4.71-6.27 8.29-7.07 13.48 5.27-.59 9.18-4.43 13.08-7.63-8.91 13.42-21.97 25.25-24.59 41.86.19 2.25-1.5 6.36 1.42 7.17 6.69-3.8 8.46-13.62 16.76-14.88 6.63-2.82 12.54-7.16 19.44-9.52 6.6-4.2 14.29 1.09 21.27-1.44 4.89-1.88 11.81 2.21 15.08-3.05 10.14-15.22 24.35-26.97 36.41-40.55 3.26-3.67 6.02-7.829 9.86-10.939.53-.43 1.57-1.301 2.09-1.731-6.57-11.93-13.63-23.611-21.14-34.961-.44-1.206-1.33-1.497-2.31-1.47z" fill="#fce0d1"/>
    <path id="color6" d="m1555.17 461.904c-.57-.039-1.19.011-1.87.166.01 6.1.97 12.161 1.46 18.241 4.66-.13 10.4-1.022 13.04 3.878 2.83 5.62 11.84 3.111 13.19 9.731 1.43 5.1 9.58 6.05 7.37 12.41 4.27 14.47 11.53 27.89 16.33 42.19 1.63-2.55 5.42-5.179 3.13-8.469-2.04-3.51-2.12-7.462-1.4-11.352.91-4.6-6.15-6.058-5.54-10.648.07-4.4 2.59-9.86-1.89-12.91-4.32-2.98-2.74-8.452-3.42-12.862-2.82-1.64-6.29-1.989-8.87-4.029-1.32-3-.82-6.43-1.53-9.57-2.94-.61-5.96-.48-8.87-1.08-1.91-2.1-2.78-4.911-4.6-7.061-2.75-.52-5.58-.35-8.3-.92-2.47-2.852-4.21-7.442-8.23-7.715zm-47.48 24.176c-4.78 1.89-4.72 7.531-7.54 11.061-3.08 1.94-6.97 1.97-10.03 3.91-2.16 3.45-2.31 7.919-5 11.049-3.04 2.28-6.79 3.38-10.31 4.67-.23-3.46-.01-6.92-.11-10.37-6.25 1.16-5.87 8.351-8.59 12.741-2.43 2.46-6.15 2.959-8.74 5.179-1.86 2.72-2.23 6.19-4.19 8.83-2.62 1.87-6.01 2.41-8.4 4.59-1.41 2.64-1.48 5.75-2.59 8.5-1.9 2.23-4.97 2.97-7.18 4.83-1.79 3.65-.79 9.21-5.3 11.02-2.42 1.5-5.31 2.239-7.41 4.189-2.26 3.79-2.67 8.471-5.46 11.991.73 2.99 4.22 2.679 6.55 3.599-.74 5.47-7.57 5.21-10.53 9-1.97 2.76-3.42-1.769-4.08-3.299-.9 1.35-1.82 2.691-2.9 3.891-2.94 3.14-5.97 6.209-8.67 9.559-2.23 3.9-4.45 7.829-7.38 11.259.44.12 1.3.38 1.74.5 2.34-4.1 4.88-8.138 8.08-11.638 2.67-2.94 5.56-5.69 8.67-8.18.47 1.95.84 3.928 1.31 5.898 4.3 6.36 6.84 13.671 9.56 20.801 4.34-.59 7.32-3.641 9.27-7.371 1.49-3.48 5.81-2.539 8.55-4.219 2.18-2.26 3.4-5.269 5.59-7.519 3.35-2.94 9.3-2.151 11.3-6.701 1.62-3.55 3.67-7.151 7.88-7.911 5.92-.93 3.93-8.989 8.8-11.189 3-1.73 6.84-3.569 6.5-7.699-.27-4.68 1.83-8.682 5.68-11.272 5.41-3.61-.62-12.448 5.54-15.308 2.93-1.48 5.07-3.861 5.46-7.231.97-5.79 7.78-6.551 11.33-10.201 1.6-2.48 2.06-5.488 2.7-8.328.21-9.54.14-19.091-.1-28.631zm-110.33 105.99c-4.31.91-8.67 1.5-12.99 2.26-1.27 1.38-.14 1.56 1.24 1.59 2.62-.4 5.26-.7 7.92-1 1.28-.94 2.53-1.91 3.83-2.85zm319.64 127.991c-2.41 1.33-4.48 3.198-6.95 4.378-3.69.67-5.84-3.319-9.05-4.349-2.95.81-5.09 3.249-7.46 5.029-1.13 4.11.3 9.862-3.98 12.352-2.71 2-6.04 3.39-7.99 6.24-1.67 4.16-.15 8.93-1.78 13.1-2.62 4.14-8.48 3.9-11.71 7.32-2.98 4.27-2.91 9.918-5.79 14.228-3.24 3.15-8.24 3.391-11.71 6.221-3.3 3.87-3.04 9.731-6.64 13.391-3.75 2.46-8.73 1.979-12.42 4.519-2.24 2.86-2.51 6.689-4.28 9.799-3.93 2.28-10.82 1.631-10.63 7.801 1.51 9.28 1.9 18.7 3.51 27.98.27 7.93 3.4 15.65 2.71 23.58-3.45 3.48-8.42 4.601-12.75 6.561-35.31 16.04-71.5 30.029-107.52 44.379-7.73 3.16-15.99 5.09-23.29 9.25-6.44 7.93-14.14 15.92-24.35 18.56-7.91.79-15.9-.08-23.84.43 4.27 7.99-6.49 9.169-11.48 12.109 15.15-.08 30.75 3.591 45.58-.759 13.14-6.24 20.82-19.379 30.29-29.799 4.35-2.94 10.34-1.24 13.99 2.18 2.46 2.66 5.74.568 8.65-.032 5.9-2.06 10.99 3.892 16.88 2.692 3.72-1.25 5.89-5.052 9.54-6.432 3.69-.73 7.54-.039 11.24-.889 2-1.78 3.31-4.16 4.98-6.22 3.26-2.15 7.94-.19 11.73-1.2 3.24-2.46 4.76-6.609 8.14-8.929 4.02-1.43 8.53-.011 12.58-1.371 4.06-3.14 5.35-8.57 9.11-12 5.03-1.43 10.56.539 15.49-1.391 4.87-3.1 7.04-9.048 11.91-12.148 3.59-1.32 7.67-.241 11.25-1.631 3.37-3.12 4.19-8.31 8.08-10.99 3.36-2.09 7.65-1.851 11.02-3.911 3.35-3.55 4.02-9.049 7.98-12.089 3.79-1.89 8.5-1.501 11.99-4.081 2.33-3.18 1.4-7.868 4.05-10.888 3.68-2.83 9.04-2.332 12.55-5.442 2.22-4.19 1.88-9.369 4.54-13.379 3.75-4.05 9.84-5.421 12.83-10.281 1.65-4.59.18-9.949 2.65-14.299 2.97-2.94 7.46-3.66 10.45-6.58 1.25-3.24.48-6.97 1.7-10.25 2.82-4.25 8.43-5.42 11.53-9.41.8-4.01-.19-8.19.8-12.16 1.84-2.81 4.93-4.549 6.66-7.439.91-4.61-3.82-9.442-.6-13.622 1.43-2.28 4.69-6.449.6-7.849-5.71-2.08-8.81-7.279-12.83-11.379-3.08 1.55-5.35 4.869-8.89 5.269-3.46-1.4-5.57-4.959-9.07-6.169zm-425.88 205.029c-.46.59-.9 1.2-1.32 1.82-1.7 2.79-3.54 5.56-4.56 8.69 1.95 1.04 4.07 1.69 6.19 2.38 3.44-3.96 8.55-5.541 13.25-7.451-4.03-2.89-8.78-4.369-13.56-5.439z" fill="#323232"/>
    <path id="color7" d="m1558.39 480.172c-1.23.025-2.47.106-3.63.139.1 2.05.22 4.1.37 6.16 12.77 2.82 25.39 9.099 33.23 19.859 2.21-6.36-5.94-7.31-7.37-12.41-1.35-6.62-10.36-4.111-13.19-9.731-1.98-3.675-5.7-4.093-9.41-4.017zm-50.6 34.539c-.64 2.84-1.1 5.848-2.7 8.328-3.55 3.65-10.36 4.411-11.33 10.201-.39 3.37-2.53 5.751-5.46 7.231-6.16 2.86-.13 11.698-5.54 15.308-3.85 2.59-5.95 6.592-5.68 11.272.34 4.13-3.5 5.969-6.5 7.699-4.87 2.2-2.88 10.259-8.8 11.189-4.21.76-6.26 4.361-7.88 7.911-2 4.55-7.95 3.761-11.3 6.701-2.19 2.25-3.41 5.259-5.59 7.519-2.74 1.68-7.06.739-8.55 4.219-1.95 3.73-4.93 6.781-9.27 7.371 2.15 9.53 7.95 19.61 2.85 29.26-4 8.82-16.91 13.711-24.65 6.721-5.18-5.58-7-13.252-10.25-19.952-.17 13.09.82 26.202 3.53 39.022 11.86 63.13 34.28 123.688 58.7 182.908.85 2.08 1.74 4.171 3.01 6.061 13.09-5.58 25.55-12.64 38.15-19.25 11.53-6.01 23.75-10.67 35.01-17.17.83-7.05-4.95-12.929-4.64-19.869 5.54-2.65 12.73-4.89 14.83-11.34.12-9.22-2.1-18.261-3.54-27.311-3.51-30.93-8.8-61.64-10.58-92.75.48-7.35-6.72-11.099-9.37-17.179-12.72 25.51-28.74 50.299-51.33 68.169-4.83 3.56-9.65 7.319-15.34 9.389 15.69-13.97 28.06-31.329 38.51-49.439-11.61 12.04-23.73 24.2-38.39 32.49 15.24-15.86 25.2-35.78 33.74-55.83 5.13-12.09 9.91-24.38 13.31-37.08-4.7-7.79-7.7-16.609-8.74-25.629-2.76-27.74 8.18-55.021 23.79-77.461zm94.96 100.158c-4.2 31.38.86 62.961 2.03 94.371 4.05 4.59 9.38 7.771 13.65 12.151-5.14-1.79-9.13-5.572-13.45-8.702 4.03 35.8 6.92 71.681 11.63 107.401-.19-6.17 6.7-5.521 10.63-7.801 1.77-3.11 2.04-6.939 4.28-9.799 3.69-2.54 8.67-2.059 12.42-4.519 3.6-3.66 3.34-9.521 6.64-13.391 3.47-2.83 8.47-3.071 11.71-6.221 2.88-4.31 2.81-9.958 5.79-14.228 3.23-3.42 9.09-3.18 11.71-7.32 1.63-4.17.11-8.94 1.78-13.1 1.95-2.85 5.28-4.24 7.99-6.24 4.28-2.49 2.85-8.242 3.98-12.352-21.56-4.11-43.32-9.629-62.05-21.519-6.14-4-13.55-7.831-15.88-15.321-8.55-23.42-12.86-48.51-12.86-73.41zm-379.7 252.791c1.22 3.36 2.07 6.83 2.67 10.36 3.52.62 7.09.82 10.65 1.22-4.1-4.23-8.4-8.29-13.32-11.58zm106.37 7.567c-3.14.125-5.36 3.575-7.35 5.753-10.81 14.34-21.45 28.86-30.95 44.11 4.78 1.07 9.53 2.549 13.56 5.439 11.85-4.01 23.74-7.928 35.91-10.888 3.71-1.1 7.91-1.441 10.98-4.061 12.11-10.85 25.26-20.461 38.25-30.221-14.72-1.78-29.53-3.018-44.12-5.728-5.3-.08-10.17-2-14.87-4.24-.49-.132-.96-.182-1.41-.164zm67.98 9.99c-1.73.007-3.45.025-5.18.053 2.45 2.72 4.94 5.489 7.97 7.589 4.4-2.19 8.39-5.129 12.75-7.429-5.18-.165-10.37-.235-15.54-.213zm-132.97 28.482c-3.15 1.18-6.31 2.35-9.54 3.25 5.96 3.07 11.23 8.371 18.26 8.701-2.98-3.93-5.88-7.921-8.72-11.951zm214.84 18.141c-14.62 3.79-28.37 10.321-42.88 14.551-1.94 1.17-7.17 1.079-5.31 4.439 7.94-.51 15.93.36 23.84-.43 10.21-2.64 17.91-10.63 24.35-18.56zm84.91 28.349c-2 4.01-7.5 2.761-11.16 3.831-21.88 3.61-44.02 4.101-66.03 6.201-35.7-.78-70.77 7.929-106.38 8.769-4.75 1.3-9.1 3.691-12.96 6.731-9.89 7.39-20.8 13.169-31.48 19.299-7.59 24.68-15.33 49.42-19.37 74.98h372.4c-26.34-22.07-51.62-45.44-76.79-68.84-6.72-6.43-14.24-12.559-17.95-21.349-5.91-8.41-10.62-17.581-14.93-26.891-5.09-1.05-10.14-2.481-15.35-2.731zm-244.36 21.051c-.52.43-1.56 1.301-2.09 1.731 3.93 6.67 8.99 12.548 13.52 18.809.99.65 2 1.3 3.02 1.97-5.23-7.22-10.14-14.7-14.45-22.51z" fill="#46434c"/>
    <path id="color8" d="m1555.13 486.471c3.31 50.89 5.52 102.158 16.27 152.138 6.79 25.09 14.3 51.871 33.38 70.631-1.17-31.41-6.23-62.991-2.03-94.371.19-.74.56-2.219.75-2.949.13-16.36 4.5-32.5 4.82-48.92.29-5.11-1.8-9.85-3.63-14.48-4.8-14.3-12.06-27.72-16.33-42.19-7.84-10.76-20.46-17.039-33.23-19.859zm-47.34 36.949c-15.61 22.44-26.55 49.721-23.79 77.461 1.04 9.02 4.04 17.839 8.74 25.629 8.08-23.49 11.87-48.209 14.07-72.879 1.88-9.96 1.71-20.141.98-30.211zm36.72 42.35c-8.16 31.84-17.87 63.401-32.27 93.041 2.65 6.08 9.85 9.829 9.37 17.179 1.78 31.11 7.07 61.82 10.58 92.75 1.44 9.05 3.66 18.091 3.54 27.311-2.1 6.45-9.29 8.69-14.83 11.34-.31 6.94 5.47 12.819 4.64 19.869-11.26 6.5-23.48 11.16-35.01 17.17-12.6 6.61-25.06 13.67-38.15 19.25-1.27-1.89-2.16-3.981-3.01-6.061-24.42-59.22-46.84-119.778-58.7-182.908-2.71-12.82-3.7-25.932-3.53-39.022-.59-1.37-1.24-2.718-1.83-4.058-4.07 4.48-7.77 9.329-12.45 13.209-9.43 10.03-15.62 23.26-15.88 37.15-4.39 53-4.49 106.66-15.94 158.83-.82 7.51-9.77 8.12-15.11 11.25-4.96 3.08-9.79-2.4-14.95-.83-12.54 2.46-24.6 6.78-36.42 11.52-9.9 4.03-20.41-.731-30.58.779-5.79.85-11.67.52-17.46 1.16-1.44.45-4.88.831-3.47 2.961 4.92 3.29 9.22 7.35 13.32 11.58 10.68 10.26 19.94 22.099 28.06 34.459 2.84 4.03 5.74 8.021 8.72 11.951 5.57.07 11.23-.41 16.65 1.26.42-.62.86-1.23 1.32-1.82 9.5-15.25 20.14-29.77 30.95-44.11 2.27-2.49 4.85-6.639 8.76-5.589 4.7 2.24 9.57 4.16 14.87 4.24 14.59 2.71 29.4 3.948 44.12 5.728-12.99 9.76-26.14 19.371-38.25 30.221-3.07 2.62-7.27 2.961-10.98 4.061-12.17 2.96-24.06 6.878-35.91 10.888-4.7 1.91-9.81 3.491-13.25 7.451 1.14 2.31 2.06 4.72 3.14 7.09 1.56-.31 3.4-.721 4.11 1.209 7.51 11.35 14.57 23.031 21.14 34.961 4.31 7.81 9.22 15.29 14.45 22.51.48.32 1.43.95 1.9 1.27 10.68-6.13 21.59-11.909 31.48-19.299 3.86-3.04 8.21-5.431 12.96-6.731 13-5.34 25.99-10.711 38.99-16.051 4.99-2.94 15.75-4.119 11.48-12.109-1.86-3.36 3.37-3.269 5.31-4.439 14.51-4.23 28.26-10.761 42.88-14.551 7.3-4.16 15.56-6.09 23.29-9.25 36.02-14.35 72.21-28.339 107.52-44.379 4.33-1.96 9.3-3.081 12.75-6.561.69-7.93-2.44-15.65-2.71-23.58-1.61-9.28-2-18.7-3.51-27.98-4.71-35.72-7.6-71.601-11.63-107.401-21.27-21.47-35.01-49.15-43.76-77.82-8.06-22.35-12.56-45.809-16.71-69.099zm-147.11 319.447c5.17-.022 10.36.048 15.54.213-4.36 2.3-8.35 5.239-12.75 7.429-3.03-2.1-5.52-4.869-7.97-7.589 1.73-.028 3.45-.046 5.18-.053z" fill="#6569a8"/>
    <path id="color9" d="m1389.7 598.141c-.38.28-1.15.839-1.53 1.119-3.9 2.99-7.86 5.889-11.64 9.019 4.53.99 8.83 2.77 13.3 4 2.93-3.43 5.15-7.359 7.38-11.259-2.49-1.03-4.99-1.999-7.51-2.879zm9.95 3c-3.2 3.5-5.74 7.538-8.08 11.638.84.87 1.72 1.772 2.58 2.692 3.19-3.85 6.81-7.301 10.5-10.651-1.66-1.25-3.33-2.469-5-3.679zm-29.7 12.189c-1.88 1.31-3.79 2.59-5.45 4.15 3.15 1.4 6.46 2.419 9.86 3.059-1.4-2.45-2.88-4.849-4.41-7.209zm278.07 309.52c-22.36.49-45.27 7.819-61.6 23.589 10.87 3.8 22.37 6.041 32.6 11.491 5.45 2.2 10.98 4.26 16.22 6.98 16.63 8.29 34.58 13.3 51.9 19.84-25.27-2.55-51.59-3.61-74.98-14.57-10.89-2.37-21.61-5.57-32.63-7.26 4.31 9.31 9.02 18.481 14.93 26.891 5.92 2.64 11.58 5.869 17.63 8.259 26.31 9.75 55.22 5.55 81.76-1.031 4.82-1.13 10.57-2.459 14.25 1.891 11.87 10.09 25.76 19.63 41.89 20.18 22.74.72 43.28-12.6 65.99-12.22 11.46 2.13 22.11 7.15 33.04 11.06 10.13 3.57 21.58 2.94 31.37-1.44 12.93-5.62 25.79-11.68 39.61-14.81v-36.52c-13.62-6.57-28.65-11.09-43.91-9.91-17.39.98-33.43 8.53-48.92 15.88-5.64 2.61-12.28 5.11-18.46 3.09-15.03-9.17-29.1-20.92-46.23-25.98-22.34-4.31-46.09 3.34-63.61 17.39-17.33-10.17-30.18-26.22-44.66-39.88-1.75-1.51-3.82-2.88-6.19-2.92z" fill="#e95e58"/>
    <path id="color10" d="m1409.62 598.859c-1.39 2.19-3.05 4.221-4.98 5.961-3.69 3.35-7.31 6.801-10.5 10.651-2.77 3.33-5.64 6.579-8.83 9.519-.14 2.21-.13 4.421 0 6.641.59 1.34 1.24 2.688 1.83 4.058 3.25 6.7 5.07 14.372 10.25 19.952 7.74 6.99 20.65 2.099 24.65-6.721 5.1-9.65-.7-19.73-2.85-29.26-2.72-7.13-5.26-14.441-9.56-20.801z" fill="#554946"/>
    <path id="color11" d="m1364.5 617.48c-3.08 5.64-2.47 12.66-2.84 18.93h.01c2.68 3.9 7.52 5.6 11.2 8.43 4.68-3.88 8.38-8.729 12.45-13.209-.14-2.22-.15-4.431 0-6.641-3.68-1.41-7.35-2.871-10.96-4.451-3.4-.64-6.71-1.659-9.86-3.059zm196.25 306.2c-1.67 2.06-2.98 4.44-4.98 6.22-3.7.85-7.55.159-11.24.889-3.65 1.38-5.82 5.182-9.54 6.432-5.89 1.2-10.98-4.752-16.88-2.692-2.91.6-6.19 2.692-8.65.032-3.65-3.42-9.64-5.12-13.99-2.18-9.47 10.42-17.15 23.559-30.29 29.799-14.83 4.35-30.43.679-45.58.759-13 5.34-25.99 10.711-38.99 16.051 35.61-.84 70.68-9.549 106.38-8.769 22.01-2.1 44.15-2.591 66.03-6.201 3.66-1.07 9.16.179 11.16-3.831-2.22-6.9-.67-14.318-2.54-21.308-1.05-4.99-1.15-10.131-.89-15.201zm-229.5 78.1c-25.11 23.36-47.33 49.73-66.4 78.22h51.95c4.04-25.56 11.78-50.3 19.37-74.98-.47-.32-1.42-.95-1.9-1.27-1.02-.67-2.03-1.32-3.02-1.97zm281.16 9.38c25.17 23.4 50.45 46.77 76.79 68.84h230.8v-12.4c-8.66-1.26-17.34-2.59-25.76-5-1.01-.1-2.04-.22-2.99-.32-92.87-17.36-186.89-29.12-278.84-51.12z" fill="#b55561"/>
    <path id="color12" d="m1561.64 938.881c1.87 6.99.32 14.408 2.54 21.308 5.21.25 10.26 1.681 15.35 2.731 11.02 1.69 21.74 4.89 32.63 7.26 5.92-.91 8.99-6.77 6.86-12.25-10.23-5.45-21.73-7.691-32.6-11.491-8.38-2.14-16.31-5.768-24.78-7.558z" fill="#9f9da9"/>
  </g>
</svg>
