<svg height="720" width="1280" xmlns="http://www.w3.org/2000/svg">
  <path id="background" d="m0 0h1280v720h-1280z" fill="#7280a4"/>
  <g id="transform" transform="translate(0,0) scale(1.00)">
    <path id="color1" d="m402.931 134.329c-2.883.271-4.717 4.186-6.571 6.245-17.24 24.88-33.894 50.331-47.706 77.306-2.359 3.639-1.72 8 .44 11.546 10.052 19.614 21.48 38.548 34.106 56.614 3.466 4.494 6.48 9.614 11.266 12.854 13.12 3.346 25.28-3.614 36.255-9.828-.361-1.786-.747-3.56-1.187-5.32-6.388 1.906-14.988 10.574-20.56 3.254-12.36-14.734-22.4-31.254-31.894-47.92-3.306-6.761-8.946-14.294-5.32-22.08 7.774-18.746 18.386-36.186 29.361-53.211 3.933-5.308 7.174-11.429 12.465-15.549 5.081-.813 9.788 2.04 14.414 3.72 9.32 4.08 19.065 7.319 27.945 12.32-1.76 4.16-4.039 8.106-5.585 12.374 8.706-2.72 16.306-8.64 25.546-9.654 5.068.92 8.708 5.094 13.468 6.8 3.2-.24 5.786-2.52 8.76-3.574 2.946-1.292 6.64 3.828 8.96.88-7.84-5-16.468-8.72-25.734-9.88-7.734-2.08-15.654-1.281-23.454-.546-17.706-8.335-34.492-18.826-52.8-25.893-.79-.392-1.509-.523-2.175-.458zm255.963 14.892c-1.79-.05-3.9.494-5.36.633-22.214 4.932-43.788 12.386-65.455 19.212-8.426.06-16.705-2.906-25.239-2.532-7.066 1-14.681.492-21.028 4.28 7.188 4.8 14.375 11.466 23.576 11.052 8.72.134 14.946 6.959 21.158 12.148.999-2.975.614-7.56 4.534-8.254 20.72-7.334 41.414-14.854 62.441-21.254 5.6-2.612 5.959 5.08 6.759 8.734 3.853 27.414 4.934 55.12 6.294 82.746.64 3.708-1.2 6.974-3.8 9.454-16.588 17.226-34.014 33.64-51.974 49.426-1.574 1.134-3.88 3.628-5.746 1.589-7.574-7.161-14.36-15.135-21.454-22.776-1.706-2.08-4.186-4.093-4.026-7.053 3.026-.92 6.185-1.306 9.305-1.84 5.267-7.077 5.001-16.906 4.615-25.346-4.214 10.266-11.534 20.32-20 28.294 5.372-13.148 9.359-27.508 7.919-41.8-5.347 7.826-7.973 17.706-14.173 25.266-8.626 8.6-7.706 22.734-17.306 30.734-7.174 5.426-9.974 15.04-8.854 23.706 3.174.44 6.826.574 9.014-2.214 7.68-6.066 14.332-13.226 21.412-19.92 10.054 3.654 12.842 14.48 19.414 21.6 4.521 2.24 9.721 9.88 14.8 4.628 21.055-18.494 40.266-39.042 58.468-60.322 4.693-5.826 10.546-11.986 9.638-20.118-.68-32.614-5.732-65.04-11.492-97.094-.18-2.266-1.65-2.924-3.44-2.979zm-172.294 70.205c-8.866 10.24-13.2 24.359-12.506 37.853-3.68-8.573-4.228-18-4.668-27.2-5.532 11.333-6.452 26.427-4.332 39.361-1.694-2.906-1.654-7.774-5.388-8.786-.786 9.52 3.014 19.106 10.894 24.72 3.466 3.186-6-2.454-4.32 1.16.214 13.412 18.946 15.56 18.96 28.84 7.294 2.906 9.226 11.6 16.054 14.826 5.812-3.186 9.478-9.586 16.518-10.706.64-1.188 1.307-2.345 2-3.508 9.04-5.092 20.842-6.906 26.842-16.226 2.426-4.826-3.948-1.506-6.52-1.415 4.692-2.293 10.64-4.039 12.6-9.466-1.934.415-3.828.935-5.734 1.415 10.974-8.828 16.44-22.881 18.8-36.349-4.96 3.135-7.561 8.909-12.32 12.389.666-9.028 2.735-18.028 1.241-27.108-4.281 5.774-5.187 13.4-9.321 19.363 2.146-9.483 4.934-18.884 5.588-28.644-5.962 6.614-6.202 17.215-11.694 24.601-.868-10.986-3.468-21.72-4.815-32.652-4.507 7.132-3.399 16.6-4.413 24.772-4.012-6.892-4.066-15.746-8.84-22.054-.826 13.508-.04 27.082-.306 40.614-7.905-10.852-14.106-23.066-17.974-35.932-.772-1.68-1.106-4-3.12-4.668-1.012 5.628.893 11.148 1.254 16.734-2.026-6.72-2.826-13.694-3.894-20.615-4.811 6.761-2.251 16.495-2.932 24.51-3.959-8.175-4.854-17.295-7.654-25.829zm129.134 1.414c-4.32 2.16-7.614 5.814-11.44 8.681.28 8.508 3.599 16.639 3.32 25.213-1.52-7.56-3.399-15.068-6.626-22.094-.773.68-2.294 2.054-3.054 2.734 4.426 14.88-2.028 29.721-2.748 44.346 6.054-6.054 14.72-10.068 18.56-17.974 1.868-13.507 2.828-27.28 1.988-40.906zm-162.24 14.614c-2.2 16.521-4.669 33.292-1.682 49.852-4.08-5.212-6.212-11.666-10.452-16.746-.36 3.346-.2 6.8-1.173 10.066-2.761 1.6-5.721 2.828-8.613 4.188.132 1.691.586 3.306 1.332 4.852 2.44-1.746 4.934-3.451 7.654-4.746 1.386 2.346 2.294 4.934 3.306 7.454 3.868 8.146 10.669 14.506 18.92 18.066 2.735-3.934 3.948-9.12.759-13.174-7.413-12.2-6.398-26.96-4.824-40.506-2.495-6.16-1.681-14.134-5.227-19.306zm46.561 100.426c-1.788 2.439.705 6.786-2.575 8.08-4.746 1.8-5.574 8.266-10.786 9.174-4.694 1.132-6.8 6.625-11.76 7.211-4.76.841-11.28 2.695-14.534-2.079-3.334-3.172-3.72-7.88-5.134-11.986-8.306-1.241-17.44-6.346-25.386-1.654-3.866 1.48-8.56.788-10.546 5.44-7.388 7.68-7.282 18.279-10.388 27.746-1.134 5.294-1.586 11.042-4.88 15.562-13.732 19.346-30.145 36.586-46.011 54.147-7.855 2.305-16.854-.495-23.535-5.215-.64-.332-1.946-1.012-2.599-1.346-2.975-.746-6.056-1.32-9.107-.72-1.029 3.654 2.041 6.066 4.573 8.066.56.32 1.693.988 2.253 1.308 3.694 1.958 7.295 4.651 8.88 8.666-2.56 2-3.2 4.866-3.054 7.986-2.2-3.88-5.186-7.212-8.854-9.746-.933.201-2.8.614-3.733.814-.199.946-.573 2.866-.759 3.811.454.681 1.372 2.03 1.825 2.709 3.509 2.452 5.801 10.546-.345 5.786-.506-.4-1.506-1.2-2.014-1.6-5.786-1.866-9.426-9.28-16.412-6.974 1.492 7.068 9.746 11.228 14.732 16.334.548.454 1.64 1.374 2.188 1.826 9.36-1.146 18.786-.2 28.172-.146 4.748 1.745 8.52 5.934 13.76 6.36 5.348.334 10.719-.346 16.053.36-4.705 7.52-10.759 14.134-15.413 21.734-16 27.772-47.56 41.106-65.121 67.666 23.6-12 48.495-21.8 74.361-27.655 9.96-2.359 21.48-1.011 29.854-7.839 13.894-10.066 28.44-19.52 41.014-31.212 8.826-15.308 21.052-28.32 28.572-44.374-1.546 7.347-6.12 13.721-7.12 21.2-.72 6.387 8.454 8.706 12.84 5.814 6.388-6.04 8.054-15.2 13-22.268 4.508 7.52 4.88 17.294 11.36 23.668 3.12 3.506 10.028 3.547 12.294-.948 1.135-3.68.694-7.611.867-11.399 6.88 9.613 13.919 19.453 23.479 26.613 6.788 4.48 8.014 13.854 15.108 18.079 5.012 2.773 10.158 5.321 14.706 8.881-2.266-10.094-17.72-8.319-19.28-19.173 7.254 2.519 13.094 7.865 20.066 11.027 8.04 5.04 17.84 4.625 26.84 6.465 38.334 5.615 75.08 18.535 111.12 32.321-17.44-15.08-37.161-27.64-55.347-41.934-4.733-4.2-11.345-6.705-14.359-12.545 24.227-12.666 51.026-19.576 78.306-20.909 8.44-.332 20.494-3.36 26.014 4.868 2.346 21.319 1.745 42.906-1.36 64.186-1.855 8-10.626 10.839-16.92 14.614-13.854 7.185-27.026 15.626-40.466 23.546-7.268 3.374-13.828-3.88-19.268-7.826 3.388-1.054 7.173-1.134 10.254-3.026-4.746-5.294-11.706-7.694-17.559-11.48-6.48-3.334-12.601-8.068-20.027-8.96 9.866 6.426 20.878 11.186 30.252 18.492-12.041 2.76-24.919 3.64-35.691 10.2-15.28 9.374-29.615 20.215-44.095 30.76-4.08 2.934-9.014 7.988-14.415 5.414-18.999-11.106-40.265-17.334-61.105-23.974-5.694-1.52-11.854-3.306-17.666-1.32-13.148 4.094-26.373 7.921-39.454 12.215-4.573 1.533-7.44-3.841-8.546-7.455-3.36-11.812-9.389-23.747-6.36-36.32 3.76-19.732 8.56-39.866 19.08-57.186-1.294-6-1.627-13.519-6.574-17.705-6.119 7.159-10.494 15.999-9.946 25.585-22.094 18.494-40.054 41.466-55.52 65.72-3.2 4.574-6.414 11.44-13.12 10.534-28.388-.72-57.12-4.026-85.322 1.094-4.667.866-10.066 2.984-14.318-.243-1.654-21.226 3.08-42.625 12.12-61.811 8.625-19.868 20.506-38.214 33.586-55.428-.134-.946-.414-2.838-.546-3.786-20.48 18.32-35.708 41.4-50 64.614-1.68 2.64-3.014 5.48-4.08 8.44-4.148 10.2-8.709 20.321-11.094 31.147-5.401-3.094-10.228-7.375-16.534-8.521-.547-3.16-5.907-2-4.8.214 7.479 2.8 15.12 6.372 20.268 12.731-2.32 16.255-2.76 33.589 4.492 48.776-3.226-3.36-5.76-8.015-10.532-9.333-2.2 10.812 3.866 23.452 14.692 26.678 8.374-.84 16.16-5.318 22.774-10.346 5.44-4.026 3.412-11.508 4.174-17.306 9.425 9.505 19.332 18.52 28.826 27.96 1.76 1.706 3.586 3.358 5.4 5.038 9.694 8.174 18.786 17.082 28.854 24.814 2.12 1.48 4.4 3.388 7.172 2.919 29.388-3.665 58.494-9.319 87.76-13.719.894 15.4-2.786 30.748-3.346 46.174h50.999c-1.293-11.694-6.105-22.706-6.879-34.494-2.014-24.026-2.894-48.132-3.48-72.227-.733-3.959 4.306-3.545 6.88-4.039-.96 25.906 2.335 51.641 3.055 77.481 2.571 10.999 5.745 21.905 6.319 33.279h46.04c-5.349-16.506-13.188-32.826-13.44-50.466 21.72 6.852 41.652 18.48 62.426 27.692 6.786 3.094 15.734 4.92 21.721-.76 18.96-15.466 36.653-32.692 51.773-51.96 4.532-6.44 9.946-12.746 11.851-20.546 1.001-4.84-3.611-7.974-6.371-11.16-7.268-7.854-15.148-15.16-22.068-23.306 12.334-3.948 20 16.092 32.149 9.04 18.586-10.2 37.959-19.147 55.639-30.879 7.612-4.188 5.985-13.535 6.251-20.8 2.507 1.905 4.747 4.145 6.735 6.599 6.385 6.893 12.614 13.946 17.654 21.934 7.332 9.227 6.2 22.918.64 32.718-4.428 2.188-8.828 4.52-12.614 7.76-4.88 4.868-7.174 11.493-8.026 18.213.92 7.68-.68 15.496.8 23.107.652 4.549 6.532 3.855 9.492 2.069 5.16-3.189 9.773-7.627 12.653-13.001 2.426-3.2-3.693-5.628-.985-8.814 5.612-11.306 8.012-23.854 9.532-36.295 1.92-16 1.641-32.945-5.706-47.651-5.853-11.068-14.4-20.628-23.626-29-9.52-4.614-5.868-16.868-6.415-25.334.16-4.52-1.505-8.707-4.853-11.747-10.6-1.28-21.24-.653-31.852-.639-4.88-2.148-8.748-6.241-12.948-9.495 5.148-6.186 13.854-6.454 20.36-10.465 1.44-1.708 3.588-3.08 3.92-5.44-3.56-3.948-9.04-.254-13.306.332-4.106.88-9.12 3.028-12.694-.293-6.772-5.639-15.28-8.16-23.04-12 .908-1.053 1.881-2.039 2.922-2.947 4.812-1.412 9.893-.266 14.8-.945 2.438-.826 2.838-4.96-.07-5.333-9.467-3.68-19.428-.548-28.762 1.852-10.12 6.414-19.398-3.639-27.411-8.854-11.734-7.04-23.387-14.24-35.467-20.652 2.227-1.094 4.761-1.668 6.72-3.268 1.333-8.44-4.934-16.16-11.814-20.253-3.559-8.467-6.854-17.027-8.694-26.024-4.894-7.308-9.852-17.148-19.574-18.335-6.052-.588-10.105 2.946-12.585 8.04-5.105-1.974-8.24 1.415-11.2 5.095-4.892 1.386-9.906 2.64-14.946 3.332-6.72.05-9.001-9.28-16.041-7.6-2.546-2.921-4.186-6.547-7.066-9.2-2.8-2.026.201-7.496-3.612-8.441zm-.751 22.941c1.456.03 2.911.134 4.351.3-1.321 11.373-1.521 22.825-1.081 34.279 1.88 10.266 6.653 19.666 10.48 29.266-2.748 5.468-7.148 10.375-11.654 14.52-8.414-5.12-17.546-10.093-24.279-17.306-1.561-21.801 8.919-41.734 17.825-60.84 1.446-.18 2.903-.243 4.358-.219zm49.551 12.125c.4 4.466-3.455 10.534 1.399 13.548 11.027 5.652 23.532 7.972 34.652 13.427 8.934 10.107 6.04 25.733 14.708 35.785 7.572 4.654 16.426 6.934 24.346 10.988-3.8 7.946-11.2 14.972-10.854 24.506.113 4.374 3.948 6.985 6.388 10.146.64 13.708 11.786 23.52 18.546 34.588.4 2.08-2.093 4.761.815 5.854 6.919 4.358 11.811 11.052 18.305 15.946-16.014-3.668-31.32-10.92-47.626-13.068-10.16 4.24-20.774-.412-31.148-1.332-5.2-.148-7.774-5.386-11.306-8.414-6.454-7.452-18.48-7.494-23.6-16.386-7.055-11.04-20.294-19.588-20.735-33.789 11.387.389 21.734 8.309 33.401 6.495-6.254-11.466-20.426-18.121-23.146-31.827 1.054-14.108 10.8-25.479 16.96-37.373-.774-7.774-2.134-15.64-5.494-22.814 1.36-2.04 1.734-5.612 4.389-6.28zm-102.335 11.708c-3.479 10.346 1.6 20.066 2.786 30.28 4.054 6.346 5.308 16.226 6.534 24.321 1 3.492-3.746 4.026-4.585 6.865-2.72 9.161-11.949 13.894-16.829 21.746 6.588-1.412 12.254-5.359 18.8-6.946-1.56 1.2-3.039 2.494-4.371 3.946 2.279 3.148 5.599-.44 8.305-1.16.134 2.92.214 5.866-.186 8.773-12.894 26.533-32.067 51.027-58.253 65.361-7.546 4.626-15.961.92-23.866 0-11.695 2.786-22.615 9.146-34.895 9.44 4.734-5.48 9.746-10.84 15.84-14.84 3.014-1.934 1.161-6.186 3.187-8.76 7.347-11.64 13.519-24.254 23.373-34.026 8.16-3.934 15.254-11.054 18.04-19.762.04-8.918-6.586-15.653-11.174-22.638-5.8-3.574-12.946-5.32-19.56-3.04 12.148-9.308 23.16-20 33.36-31.374 4.56-2.04 9.614-2.866 14.334-4.534.96-3.64 1.214-8.441 5.227-10.08 8.134-4.24 15.453-10.16 23.933-13.586zm212.524 95.683c7.13-.14 12.958 5.522 18.01 10.129 1.812-.866 2.892 2.028 4.212 2.96-14.28 3.068-27.92 8.734-40.811 15.534-1.707 1.2-4.121 1.186-4.895-1.066-3.426-5.974-8.414-11.588-11.266-17.52-2.44-1.148-3.534-5.32-1.828-7.44 11.12.07 22.908 2.306 33.44-2.16 1.073-.278 2.119-.417 3.138-.437zm-83.458 57.223c4.095 3.974 5.134 11.76 11.388 12.84-4.068-3.974-5.04-11.946-11.388-12.84zm-154.346 15.226c-1.494 41.669 23.76 78.588 26.415 119.427-29.228 3.786-58.241 9.362-87.481 13.175-3.64-.373-6.149-3.654-9.094-5.522-20.975-18.36-41.946-36.747-61.24-56.987-2.52-6.919 3.586-12.145 7.2-17.185 28.426-4.6 57.841 0 86.615-1.16 12.731-16.6 21.505-36.68 36.879-51.228zm226.972 40.029c1.288-.02 2.532.44 3.348 1.64 7.894 8.453 17.2 15.651 23.719 25.319 2.441 6.026-1.399 12.04-4.439 17.052-15.494 23.934-36.148 43.974-58.361 61.534-6.827 2.414-13.399-3.054-19.585-5.386-18.84-9.68-38.694-17.16-57.948-25.934.07-15.254 5.428-30.066 8.214-44.946 11.774 2.88 21.974 9.972 33.027 14.72 4.4 1.466 7.827-2.508 11.307-4.493 19.452-12.933 37.052-29.267 58.44-38.933.72-.345 1.506-.552 2.278-.573z" fill="#f8f5ec"/>
    <path id="color2" d="m520.755 149.675c-13.036-.03-26.181 4.755-38.41 8.78-1.893.125-1.411 1.519-.985 2.771 9.266 1.16 17.894 4.88 25.734 9.88 2.572-2.64 4.693-5.8 7.826-7.84 8.96 2.934 19.425.439 26.892 7.548 6.347-3.788 13.962-3.28 21.028-4.28-8.346-5.814-17.546-10.32-26.895-14.266-5.005-1.828-10.09-2.579-15.19-2.593zm-41.661 161.365c-.214 5.014.125 10.334-2.215 14.946-14.973 7.323-38.24 1.228-46.999 18.64 7.946-4.692 17.08.413 25.386 1.654 1.414 4.106 1.8 8.814 5.134 11.986 3.254 4.774 9.774 2.92 14.534 2.079 4.96-.586 7.066-6.079 11.76-7.211 5.212-.908 6.04-7.374 10.786-9.174 3.28-1.294.788-5.641 2.575-8.08 3.813.945.811 6.415 3.611 8.441 2.88 2.653 4.52 6.279 7.068 9.2 7.04-1.68 9.32 7.654 16.04 7.6 5.04-.692 10.054-1.946 14.946-3.332 2.96-3.68 6.095-7.069 11.2-5.095 2.48-5.094 6.534-8.628 12.586-8.04-8.492-11.574-22.972-13.68-36.212-15.56-2.214-.228-4.44-.508-6.588-1.094-.96-3.32.8-10.08-4.893-8.506-7.04 1.12-10.707 7.52-16.519 10.706-6.828-3.226-8.76-11.92-16.054-14.826-2.08-1.4-4.066-2.934-6.146-4.334zm69.761 59.906c-2.655.668-3.029 4.24-4.389 6.28 3.36 7.174 4.72 15.04 5.494 22.814 6.986 10.414 10.761 22.506 16.56 33.56 3.481 10.426 10.08 20.546 9.706 31.774-6.332 2.56-13.481 2.132-20.08 3.866-11.667 1.814-22.014-6.106-33.401-6.495.441 14.201 13.68 22.749 20.735 33.789 5.12 8.892 17.146 8.933 23.6 16.386 3.532 3.027 6.106 8.266 11.306 8.414 10.374.92 20.988 5.572 31.148 1.332 16.306 2.148 31.612 9.4 47.626 13.068-6.494-4.894-11.386-11.588-18.305-15.947-2.908-1.092-.415-3.773-.815-5.853-6.76-11.068-17.906-20.88-18.546-34.588-2.44-3.161-6.28-5.772-6.388-10.146-.346-9.534 7.054-16.56 10.854-24.506-7.92-4.054-16.774-6.334-24.346-10.988-8.668-10.052-5.774-25.679-14.708-35.785-11.12-5.455-23.625-7.775-34.652-13.427-4.854-3.014-.999-9.082-1.399-13.548zm-102.335 11.708c-8.48 3.427-15.799 9.346-23.933 13.586-4.013 1.64-4.267 6.44-5.227 10.081-1.986 8.973-3.681 18.413-8.615 26.319-5.786 5.24-13.745 7.306-19.519 12.626 4.588 6.988 11.214 13.72 11.174 22.64-2.786 8.708-9.88 15.828-18.04 19.76-9.854 9.774-16.026 22.388-23.373 34.028-2.026 2.572-.173 6.826-3.187 8.761-6.094 4-11.106 9.359-15.84 14.839 12.28-.294 23.2-6.653 34.895-9.44 7.905.906 16.32 4.612 23.866 0 26.186-14.334 45.359-38.828 58.253-65.36.4-2.908.32-5.854.186-8.774-2.706.72-6.026 4.306-8.305 1.161 1.332-1.455 2.811-2.746 4.371-3.946-6.546 1.586-12.212 5.531-18.8 6.945-2.332.666-4.732 1.026-7.132 1.28 2.6-4.066 5.88-7.894 6.68-12.813 2.986-14.493 9.24-28 15.332-41.401-1.186-10.212-6.265-19.931-2.786-30.279zm26.826 81.466c-7.52 16.054-19.746 29.066-28.572 44.374-12.574 11.692-27.12 21.146-41.014 31.212-8.374 6.828-19.894 5.48-29.854 7.839-25.866 5.855-50.761 15.655-74.361 27.655 17.561-26.56 49.121-39.894 65.121-67.666-10.092.332-19.066 5.985-28.572 8.88-17.308 5.172-32.495 15.372-48.88 22.52-9.04 19.186-13.774 40.585-12.12 61.811 4.252 3.228 9.651 1.109 14.319.243 28.201-5.12 56.933-1.814 85.321-1.094 6.706.906 9.92-5.96 13.12-10.534 15.466-24.254 33.426-47.226 55.52-65.72-.548-9.586 3.827-18.426 9.946-25.585 4.948 4.186 5.28 11.705 6.574 17.705-10.52 17.32-15.32 37.454-19.08 57.186-3.029 12.573 3 24.508 6.36 36.32 1.106 3.614 3.974 8.988 8.546 7.455 13.081-4.294 26.306-8.121 39.454-12.215 5.812-1.986 11.972-.2 17.666 1.32 20.84 6.64 42.106 12.868 61.105 23.974 5.401 2.574 10.335-2.48 14.415-5.414 14.48-10.545 28.815-21.386 44.095-30.76 10.772-6.56 23.65-7.44 35.691-10.2-9.373-7.306-20.386-12.066-30.252-18.492 7.426.892 13.547 5.626 20.027 8.96 5.853 3.786 12.813 6.186 17.559 11.48-3.081 1.892-6.866 1.972-10.254 3.026 5.44 3.946 12 11.2 19.268 7.826 13.44-7.92 26.612-16.361 40.466-23.546 6.294-3.775 15.065-6.614 16.92-14.614 3.105-21.28 3.706-42.867 1.36-64.186-5.52-8.227-17.574-5.2-26.014-4.867-27.28 1.332-54.078 8.242-78.306 20.908 3.014 5.84 9.626 8.345 14.359 12.545 18.186 14.294 37.907 26.854 55.347 41.934-36.04-13.786-72.786-26.706-111.12-32.321-9-1.84-18.8-1.425-26.84-6.465-6.972-3.162-12.812-8.508-20.066-11.027 1.56 10.854 17.014 9.079 19.28 19.173-4.547-3.56-9.694-6.108-14.706-8.881-7.094-4.225-8.32-13.599-15.108-18.079-9.56-7.16-16.598-17-23.478-26.613-.174 3.788.267 7.719-.868 11.399-2.266 4.495-9.174 4.454-12.294.948-6.48-6.374-6.852-16.148-11.36-23.668-4.946 7.068-6.612 16.228-13 22.268-4.386 2.892-13.56.573-12.84-5.814 1-7.479 5.574-13.853 7.12-21.2zm204.354 24.186c-.205 0-.419.05-.646.16-17.213 3.52-35.268.113-52.76-.09 2.852 5.932 7.84 11.546 11.266 17.52.774 2.253 3.187 2.266 4.895 1.066 12.891-6.8 26.531-12.465 40.811-15.533-1.154-.816-2.127-3.133-3.566-3.121zm-102.114 47.254c6.348.894 7.32 8.866 11.388 12.84-6.254-1.08-7.293-8.866-11.388-12.84zm-154.346 15.226l-.706.52c-15.374 14.548-24.148 34.628-36.879 51.228-28.774 1.172-58.189-3.44-86.615 1.16-3.614 5.04-9.72 10.266-7.2 17.185 19.294 20.24 40.265 38.627 61.24 56.987 2.945 1.868 5.454 5.149 9.094 5.521 29.24-3.812 58.253-9.388 87.481-13.175-2.655-40.838-27.909-77.757-26.415-119.426zm-155.066 1.988c-6.228 5.306-13.708 8.92-19.868 14.306-2.652 2.705-5.214 5.506-7.76 8.32 6.306 1.146 11.133 5.427 16.534 8.521 2.385-10.826 6.946-20.947 11.094-31.147zm382.038 38.041c-.772.02-1.558.227-2.278.572-21.388 9.667-38.988 26-58.44 38.934-3.48 1.985-6.907 5.959-11.307 4.493-11.053-4.748-21.253-11.84-33.027-14.72-2.786 14.88-8.134 29.692-8.214 44.946 19.254 8.774 39.108 16.254 57.948 25.934 6.186 2.332 12.758 7.8 19.585 5.386 22.213-17.56 42.867-37.6 58.361-61.534 3.04-5.012 6.88-11.026 4.439-17.052-6.519-9.668-15.825-16.867-23.719-25.319-.816-1.2-2.06-1.676-3.348-1.64z" fill="#5f6d92"/>
    <path id="color3" d="m514.92 163.266c-3.132 2.04-5.254 5.2-7.826 7.84-2.32 2.948-6.014-2.172-8.96-.88-2.974 1.054-5.56 3.334-8.76 3.574-4.76-1.706-8.4-5.88-13.468-6.8-9.24 1.014-16.84 6.934-25.546 9.654-17.52 11.747-37.24 22.706-47.666 41.88 10.52-11.96 22.48-24.241 37.8-29.588-14.548 11.814-29.654 26.015-32.36 45.643 4.066-12.415 10.52-25.175 21.8-32.429-7.32 13.026-17.148 25.614-18.546 41.095-.881 13.585-1.214 27.6 2.746 40.8.36-16.666 7.186-33.015 15.4-47.161-4.788 15.252-5.534 31.626 0 46.852.44 1.76.826 3.534 1.187 5.32.586 3.108 1.493-.72 2.185-1.4-.746-1.546-1.2-3.161-1.332-4.852 1.28-8.24-2.868-19.068 2.852-25.628.348 7.494 1.895 14.92 5.761 21.44.973-3.266.813-6.72 1.173-10.066 4.24 5.08 6.372 11.534 10.452 16.746-2.987-16.56-.518-33.331 1.682-49.852 3.546 5.172 2.732 13.146 5.227 19.306-1.573 13.546-2.589 28.306 4.824 40.506 3.189 4.054 1.976 9.24-.759 13.174-8.251-3.56-15.052-9.92-18.92-18.066-17.186 1.92-25.56 19.692-34.292 32.44-6.974 10.225-18.348 17.412-30.868 17.972-17.68 2.988-35.386-1.797-53.066 0-35.6 1.814-70.694 16.923-96.106 41.935 22.492-17.641 48.306-32.189 76.866-36.776 18.814-2.279 37.826-2.904 56.76-1.89-6.026 3.559-13.506 3.945-20.2 5.905-20.68 5.506-41.146 12.334-60.186 22.2-19.16 9.266-37.214 22.254-48.962 40.295-8.827 14.132-14.346 30.85-13.318 47.624 1-19.787 11.04-38.24 24.932-52 15.6-15.613 33.094-30.653 53.654-39.025-32.506 26.24-64.574 58.452-74.306 100.572-4.174 24.294-2.055 49.588 5.64 72.986-7.269-32.613-7.12-70.08 13.931-97.666-6.785 18.493-14.919 37.52-13.399 57.72-1.172 13.454 3.174 26.36 5.96 39.334 3.12 8.36 4.28 17.572 9.4 25.08 6.16-5.386 13.64-9 19.868-14.306 1.066-2.96 2.4-5.8 4.08-8.44-11.907-18.388-15.109-41.159-12.64-62.614.491-2.039.532-4.548 2.346-5.908-.48 14.682 1.748 31.108 13.295 41.454-14.521-23.012-14.549-58.145 7.466-76.545 26.093-26.095 63.784-33.175 96.958-46.215-16.999 13.614-33.118 28.534-45.758 46.454.653.334 1.959 1.014 2.599 1.346 12.255-20.772 31.639-36.266 50.694-50.56 7.706-4.974 16.346-8.4 23.732-13.934 3.107-9.467 3-20.066 10.388-27.746 1.986-4.652 6.68-3.96 10.546-5.44 8.759-17.412 32.026-11.317 46.999-18.64 2.335-4.612 2.001-9.932 2.215-14.946 2.08 1.4 4.066 2.934 6.146 4.334 0-13.28-18.746-15.428-18.96-28.84-1.68-3.614 7.786 2.026 4.32-1.16-7.88-5.614-11.68-15.2-10.894-24.72 3.734 1.012 3.694 5.88 5.388 8.786-2.12-12.934-1.2-28.027 4.332-39.361.44 9.2.988 18.627 4.668 27.2-.694-13.494 3.64-27.613 12.506-37.853 2.8 8.534 3.695 17.654 7.654 25.829.681-8.015-1.879-17.749 2.932-24.51 1.068 6.921 1.868 13.895 3.894 20.615-.361-5.586-2.266-11.106-1.254-16.734 2.014.668 2.348 2.988 3.12 4.668 3.868 12.866 10.069 25.08 17.974 35.932.266-13.532-.52-27.106.306-40.613 4.774 6.307 4.828 15.161 8.84 22.053 1.014-8.172-.09-17.64 4.413-24.772 1.347 10.932 3.947 21.666 4.815 32.652 5.492-7.386 5.732-17.987 11.694-24.601-.654 9.76-3.442 19.161-5.588 28.644 4.134-5.963 5.04-13.589 9.321-19.363 1.494 9.08-.575 18.08-1.241 27.108 4.759-3.48 7.36-9.254 12.32-12.389-2.36 13.467-7.826 27.521-18.8 36.349 1.906-.48 3.8-1 5.734-1.415-1.96 5.427-7.908 7.173-12.6 9.466 2.572-.09 8.946-3.411 6.52 1.415-6 9.32-17.802 11.134-26.842 16.226 4.282 5.109 8.083-4.212 12.109-1.212-.575 4.826-1.895 9.52-2.627 14.32 13.24 1.88 27.72 3.986 36.212 15.56 9.72 1.187 14.679 11.027 19.574 18.335 1.84 8.997 5.134 17.557 8.694 26.023 6.88 4.094 13.146 11.814 11.812 20.254-1.959 1.6-4.492 2.174-6.72 3.268 12.08 6.412 23.734 13.612 35.468 20.652 9.146 2.908 18.746 4.56 27.412 8.854 9.334-2.4 19.294-5.533 28.76-1.853 2.92.374 2.52 4.508.08 5.334-4.906.679-9.986-.467-14.8.945 11 4.88 22.773 8.508 32.813 15.24 4.266-.586 9.746-4.28 13.306-.332-.333 2.36-2.479 3.732-3.919 5.44 9.854 4.438 17.76 12.266 24.439 20.598 3.349 3.04 5.012 7.228 4.852 11.748 3.574 7.986 5.429 16.654 6.417 25.334 9.226 8.372 17.772 17.932 23.626 29 4.266-25.734 4.065-52.6-4.228-77.48 2.574-19.642-8.775-37.654-22.215-50.893-37.905-39.935-92.412-58.015-145.132-68.255-12.773-9.852-21.32-24.48-25.919-39.812 5.159 4.746 9.148 10.666 14.894 14.786-1.48-2.12-2.866-4.306-3.8-6.734-6.574-7.12-9.361-17.946-19.415-21.6-7.08 6.694-13.731 13.854-21.411 19.92-2.188 2.788-5.842 2.654-9.015 2.214-1.12-8.666 1.681-18.28 8.853-23.706 9.6-8 8.68-22.134 17.307-30.734 6.2-7.56 8.826-17.44 14.172-25.266 1.44 14.292-2.545 28.652-7.919 41.8 8.468-7.974 15.787-18.028 20-28.294.388 8.44.653 18.269-4.615 25.346.202 2.374-.05 4.748-.505 7.068 1.96-4.214 4.202-8.294 6.814-12.134.72-14.625 7.173-29.466 2.746-44.346-1.467-9.308-6.052-17.628-8.84-26.519 6.613 6.119 8.694 15.625 11.894 23.785 3.228 7.026 5.106 14.534 6.626 22.094.279-8.574-3.038-16.705-3.32-25.213-3.76-12.761-8.668-25.507-17.747-35.507-6.213-5.189-12.439-12.014-21.159-12.148-9.2.414-16.387-6.252-23.575-11.052-7.467-7.109-17.931-4.614-26.891-7.548zm98.054 199.228c37.026 3.692 72.438 19.294 102.971 40.227 16.069 11.799 30.709 26.345 39.71 44.345 2.08 4.908-3.029.348-3.909-1.6-21.092-25.332-51.706-40-81.24-53.172-19.76-8.494-41.812-14.574-57.532-29.8zm-285.587 85.812c-.932 3.268-2.761 6.148-4.508 9.028.933-.2 2.8-.613 3.733-.814 1.04-2.279 2.042-4.586 3.028-6.906-.56-.32-1.693-.988-2.253-1.308zm-5.267 12.839c-.279 2.281-.413 4.589-.534 6.895.508.4 1.508 1.2 2.014 1.6.1-1.946.226-3.866.345-5.786-.453-.679-1.371-2.028-1.825-2.709zm-2.214 16.255c.07.586.255 1.734.348 2.32.132.948.412 2.84.546 3.786 1 10.16 5.694 19.64 12.534 27.12-5.454-9.732-10.574-20.04-11.24-31.4-.548-.452-1.64-1.372-2.188-1.826zm433.974 76.054c-1.334 19.386-12.334 36.24-23.44 51.533-4.894 7.427-11.466 13.479-18.346 19.027 22.64-5.962 34.372-28.028 46.493-45.868 2.253 9.814-2.961 18.84-6.387 27.654 4.414-1.64 2.64 3.212 2.145 5.814-6.773 20.026-18.505 40.198-38.319 49.6 15.72-1.254 27.388-14.748 35.508-27.135.852-6.72 3.146-13.345 8.026-18.213 4.946-13.2 8.08-26.958 11.974-40.478-5.04-7.988-11.269-15.04-17.654-21.934zm-435.44 101.32c4.014 9.346 4.254 19.8.6 29.305 5.386-6.934 4.826-16.013 4.8-24.267-1.814-1.68-3.64-3.332-5.4-5.038z" fill="#bcdfe9"/>
    <path id="color4" d="m499.304 358.821c-1.455-.03-2.912.04-4.358.219-8.906 19.106-19.386 39.039-17.825 60.84 6.733 7.212 15.865 12.186 24.279 17.306 4.506-4.145 8.906-9.052 11.654-14.52-3.826-9.6-8.6-19-10.48-29.266-.44-11.454-.24-22.906 1.081-34.279-1.44-.166-2.895-.277-4.351-.3z" fill="#aa718e"/>
  </g>
</svg>
