<svg height="1080" width="1920" xmlns="http://www.w3.org/2000/svg">
  <path id="background" d="m0 0h1920v1080h-1920z" fill="#646469"/>
  <g id="transform" transform="translate(0,0) scale(1.00)">
    <path id="color1" d="m918.199 97.9492c-.04 6.5698-.749 13.3518 1.041 19.7618 2.16 4.69 1.06 11.829 5.75 14.709.55-4.93.95-12.711 7.01-13.811-.05-1.32-.249-2.62-.359-3.92 3.4 1.85 7.38 5.292 10.67 1.202-4.54-6.27-11.642-9.951-17.622-14.661-1.95-1.4595-4.13-2.6608-6.49-3.2808zm101.941 1.1016c-.33.0048-.75.2272-1.3.7597-7.01 5.2905-16.65 8.8085-20.24 17.3785 4.58 1.69 6.45-3.57 10.45-4 .37 2.88 2.32 2.991 4.68 2.241-.54 1.15-1.2 2.251-1.59 3.461 1.95 3.89 0 8.399 2.12 12.269 4.6 1.14 4.09-5.549 5.6-8.439 1.57-6.64 2.43-13.561 1.78-20.381-.31-1.365-.5-3.3038-1.5-3.2892zm-70.435 79.4862c-6.886-.093-10.014 9.127-7.205 14.863 2.42 3.5 6.561 4.909 10.311 6.459-5.14 3.08-15.082 10.57-8.452 16.51-.62.66-2.508 1.001-1.308 2.391 3.15 3.54 7.67 5.62 10.42 9.59-3.04-1.07-4.321-.03-3.491 3.17 4.36 1.43 7.28 5.5 11.86 6.47 9.34 2.79 19.41.11 27.06-5.64-.22-.37-.651-1.13-.861-1.5-2.79-7.39 11.101-8.42 10.281-16.01.58-2.88-2.749.86-4.009 1.17 1.07-2.27 2.738-4.421 2.968-6.981-1.73-4.3-6.089-6.56-9.929-8.66 4.1-2.74 10.42-4.569 10.92-10.349.05-3.43-.281-7.95-3.481-9.95-7.25-1.51-16.199 3.69-16.439 11.61-2.36 2.54-4.14 5.51-4.26 9.08 3.49 6.57-9.839 7.77-8.779.98.18-9.06-4.68-19.349-13.35-22.859-.79-.223-1.544-.334-2.256-.344z" fill="#e6dfcd"/>
    <path id="color2" d="m1020.64 98.0078c-.37-.0126-.85.1034-1.46.3828-8.68 5.8804-18.44 9.9584-28.2 13.6384-13.69-5.36-29.321-5.089-42.951.221-7.92-3.35-15.16-8.35-23.34-11.02 5.98 4.71 13.082 8.391 17.622 14.661-3.29 4.09-7.27.648-10.67-1.202.11 1.3.309 2.6.359 3.92-6.06 1.1-6.46 8.881-7.01 13.811-4.69-2.88-3.59-10.019-5.75-14.709-.04 5.67 1.619 11.189 3.949 16.309-9.71 16.09-9.748 35.551-8.628 53.701 1.59 12.81 5.449 25.278 10.209 37.228-.59-6.17-3.679-12.028-2.959-18.308 3.88 5.63 7.06 13.338 9.82 20.148 1.85 3.64 4.209 7.002 6.769 10.182 4.59 4.15 7.119 10.008 11.719 14.138.41-4.09-5.119-8.01-2.639-11.66-3.62-3.96-4.21-9.669-4.4-14.789 3.03 3.52 2.899 8.83 6.109 12.1.26-1.75.531-3.5.791-5.24-.83-3.2.451-4.24 3.491-3.17-2.75-3.97-7.27-6.05-10.42-9.59-1.2-1.39.688-1.731 1.308-2.391-6.63-5.94 3.312-13.43 8.452-16.51-3.75-1.55-7.891-2.959-10.311-6.459-3.1-6.33 1.031-16.899 9.461-14.519 8.67 3.51 13.53 13.799 13.35 22.859 2.91-.38 5.839-.67 8.779-.98.12-3.57 1.9-6.54 4.26-9.08.24-7.92 9.189-13.12 16.439-11.61 3.2 2 3.531 6.52 3.481 9.95-.5 5.78-6.82 7.609-10.92 10.349 3.84 2.1 8.199 4.36 9.929 8.66-.23 2.56-1.898 4.711-2.968 6.981 1.26-.31 4.589-4.05 4.009-1.17.82 7.59-13.071 8.62-10.281 16.01 3.2-3.27 3.982 1.1 5.172 3.57 2.89-.11 3.868-3.63 5.728-5.42-.48 2.96-1.019 5.921-1.849 8.801-1.21 4.91-3.76 9.339-5.07 14.209 6.12-4.66 10-11.521 14.81-17.401 1.48-2.45 2.86-5.029 5.04-6.949-.38 2.91-1.68 5.571-3.18 8.051 1.68 1.69 3.66-1.19 5.41-1.57-3.95.06.2-3.84.75-5.76 6.27-14.28 11.56-29.561 10.89-45.381.28-15.47-.03-31.61-7.05-45.77-2.94-4.81 1.93-9.489 1.17-14.509-1.51 2.89-1 9.579-5.6 8.439-2.12-3.87-.17-8.379-2.12-12.269.39-1.21 1.05-2.311 1.59-3.461-2.36.75-4.31.639-4.68-2.241-4 .43-5.87 5.69-10.45 4 3.59-8.57 13.23-12.088 20.24-17.3785 2.19-2.13 2.38.7095 2.8 2.5295.15-1.828.59-4.2774-1-4.3322z" fill="#b88b66"/>
    <path id="color3" d="m974.09 200.76c-2.94.31-5.869.6-8.779.98-1.06 6.79 12.269 5.59 8.779-.98zm47.61 772.22c-4.83 2.6-10.17 4.4-15.7 4.37-10.3-.14-21.439 1.21-30.699-4.33-.68 3.1 2.45 4.74 4.91 5.58 10.68 4 22.379 1.87 33.209-.34 2.98-1.01 7.94-1.3 8.28-5.28zm-57.93.6c-13.77 5.91-30.06 4.911-44 .051-.26.18-.77.548-1.03.728 7.91 7.2 19.479 5.181 29.289 5.291 5.22-1.53 12.191.52 15.951-4.15-.05-.48-.16-1.44-.21-1.92z" fill="#403f3c"/>
    <path id="color4" d="m943.08 224.66c.19 5.12.78 10.829 4.4 14.789 7.05 2.75 14.119 5.49 20.959 8.75.19-.65.57-1.94.76-2.59-6.03-4.07-12.9-7.139-20.01-8.849-3.21-3.27-3.079-8.58-6.109-12.1zm-11.449 2.129c-5.88 1.67-11.062.561-16.432 3.871.15 2.85 2.361 3.991 5.051 3.391 6.22-.45 12.2 1.39 18.15 2.92-2.56-3.18-4.919-6.542-6.769-10.182zm85.789.481c-.82.038-1.67.363-2.57 1.111-.55 1.92-4.7 5.82-.75 5.76 3.11-.44 6.26-.59 9.4-.75 1.17.25 1.75-2.1.68-2.43-2.24-1.343-4.33-3.806-6.76-3.691zm-5.55.39c-2.18 1.92-3.56 4.499-5.04 6.949.47.28 1.4.832 1.86 1.102 1.5-2.48 2.8-5.141 3.18-8.051zm-12.931 1.34c-1.86 1.79-2.838 5.31-5.728 5.42-1.19-2.47-1.972-6.84-5.172-3.57.21.37.641 1.13.861 1.5.35.66 1.06 1.98 1.42 2.64-4.82 6.58-14.469 5.839-19.519 12.129.27.33.81.981 1.08 1.301 8.06-4.32 16.579-7.629 25.209-10.619.83-2.88 1.369-5.841 1.849-8.801zm-245.763 551.287c-.211.017-.435.057-.676.123-1.91 1.08-3 3.699-5.49 3.529-6.67.3-12.681 3.542-18.141 7.122-3.98-.23-5.418-6.64-9.738-6.01-2.5 2.55-4.85 5.549-6.08 8.929-.25 4.15 4.169 7.161 7.799 8.231-4.68 10.97-4.301 23.149-5.731 34.789-.03 2.17-1.69 4.52-4.09 4.01-11.63-.39-23.73 1.42-34.84-2.85-.03 5.79 6.411 8.55 10.831 10.86 8.79 4.94 19.52 5.361 27.83 11.191.34 9.26.02 18.569 1.14 27.789-3.15 14.21-9.121 28.25-7.951 43.07.32 5.85 4.42 10.47 8.99 13.7-2.33 2.4-5.039 4.42-7.099 7.08 7.89 3.72 16.08-.759 22.39-5.379 8.63-.61 15.42-6.762 23.67-8.602 9.31.05 18.72.891 27.93-.959 8.62 4.25 18.61 5.79 28.15 4.91-1.63-4.97-9.009-6.02-11.109-10.8 6.49-6.22 4.979-16.461.289-23.321-7.64-12.14-15.04-24.448-22.02-36.988-3.34-4.59-2.631-10.46-3.441-15.75-1.26-8.84-12.119-13.06-10.029-22.91 5.53-6.83 14.69-13.091 13.49-23.051.1-11.58-10.67-18.77-19.98-23.24-2.944-.769-2.935-5.729-6.094-5.473zm-32.5 9.514c5.383-.078 6.185 9.723.324 9.568-5.67.17-5.379-7.769-.859-9.529.183-.024.361-.037.535-.039zm26.564 3.129c4.75-.39 6.009 6.419 5.539 10.099-4.65.76-6.099-6.469-5.539-10.099zm25.813 3.607c2.032-.031 1.636 3.839-.114 4.723-2.46.25-3.21-3.589-.91-4.449.393-.184.733-.269 1.024-.274zm-3.414 10.09c.878.01 1.76.073 2.64.143-1.01 3.72-1.039 7.57-1.129 11.4-2.82.31-5.67.289-8.48.029.19-4.08 2.59-7.818 4.35-11.398.865-.14 1.74-.184 2.619-.174zm-27.389 24.383c3-.15 4.98 2.56 7.74 3.17 3.29.39 5.45-3.15 8.68-3.02.32 2.56.299 5.16.019 7.74-2.66-.58-4.61-2.57-6.83-3.97-4.07-.8-5.36 5.469-9.5 4.859-.39-2.91-.389-5.859-.109-8.779z" fill="#edecf0"/>
    <path id="color5" d="m949.98 231.52c-.26 1.74-.531 3.49-.791 5.24 7.11 1.71 13.98 4.779 20.01 8.849.4.37 1.202 1.13 1.602 1.51 5.05-6.29 14.699-5.549 19.519-12.129-.36-.66-1.07-1.98-1.42-2.64-7.65 5.75-17.72 8.43-27.06 5.64-4.58-.97-7.5-5.04-11.86-6.47zm73.52 1.871c-3.14.16-6.29.31-9.4.75h.01c-1.75.38-3.73 3.26-5.41 1.57-.46-.27-1.39-.822-1.86-1.102-4.81 5.88-8.691 12.741-14.811 17.401 1.31-4.87 3.861-9.299 5.071-14.209-8.63 2.99-17.149 6.299-25.209 10.619-.65 98.85-.081 197.74-.291 296.6-1.22 12.24-.759 24.56-1.629 36.81 5.77 38.27 8.268 76.99 11.638 115.5.99 1.69 1.071 3.66 1.161 5.58 4.9 51.88 17.109 102.77 21.52 154.69 2 5.65 1.35 11.72 2.5 17.5 4.26 2.52 2.69 7.72 2.94 11.83 2.85-2.72-1.18-9.25 2.3-12.11 5.56-1.25 10.62 1.96 15.98 2.77 14.95 3.73 30.17-2.2 42.94-9.67 2.33-2.35 1.66-5.93 1.76-8.91-.31-7.68.7-15.45-1.02-23.01-.38-39.47-13.01-77.64-15.03-117.02-2.21-20.94-3.64-41.891-4.16-62.941-2.2-10.89.6-22.159-1.8-33.039 0-14.67-.1-29.35 0-44.01-.93-1.77 1.92-2.13 1.61-2.89-1.04-.73-1.8-1.719-1.61-3.049-.34-9.34 0-18.711 1.34-27.971.59-2.46 3.14-3.7 4.87-5.32 6.2-4.62 11.62-10.151 17.52-15.141 2.24-2.43 4.67-4.699 6.81-7.219 2.38-4.74 1.64-10.41.51-15.41-3.43-18.9-7.49-37.699-10.44-56.689-1.64-15.29-6.04-30.111-8.45-45.281-.29-6.91-2.57-13.469-3.81-20.219-2.81-30.98-6.25-61.922-9.46-92.852-1.16-12.76-10.51-23.399-21.79-28.719-6.01-6.76-7.52-16.369-4.3-24.839zm-100.928.593c-.77-.01-1.544.011-2.322.067-1.12.67-3.431 1.128-2.811 2.888.95 4.97 2.301 10.931-1.339 15.161-1.98 2.06-1.44 5.05-2.44 7.48-3.98 3.87-10.421 3.679-14.131 7.949-4.88 4.89-6.83 11.632-8.83 18.032-8.98 26.05-16.788 52.469-25.228 78.689-2.81 8.44-5.012 17.33-10.862 24.27-.41 6.72-.169 13.701-2.959 20.031-11.95 28.37-23.81 56.819-37.57 84.359-1.97 5.25-5.5 10.23-4.85 16.11-.44 4.43 3.399 7.391 4.379 11.441 2.26.26 4.061 1.728 5.871 2.978 6.09 4.38 13.95 4.531 20.69 7.381 1.64.61 1.46 2.719 1.84 4.119 3.93-8.25 11.4 7.591 15.22.461 11.15-26.43 14.109-55.35 22.389-82.67 2-2.7 4.551-5.05 5.811-8.24 2.61-4.55.08-10.02 2.05-14.76 6.57-19.98 17.99-38.01 23.75-58.31.68-1.25.729-4.161 2.719-3.721 4.12 5.32.101 12.231 2.731 18.031 3.67 20.83-5.471 40.711-11.731 60.081-9.49 23.93-14.738 49.418-17.058 74.978-2.35 23.59-1.322 47.451-1.612 71.211 2.18 16.22.492 32.699 1.112 49.029 1.89 10.2.518 20.641.978 30.961-2.49 12.53.402 25.451-1.978 37.981.07 9.41-2.061 18.669-3.041 28.019-.1 4.05-2.759 7.319-4.379 10.869-13.57 29.2-25.33 59.311-34.42 90.231l.568-.19c7.12-2.48 14.07-5.471 21.41-7.291 11.4-3.79 23.881-1.618 35.241-5.648 3.72-1.28 7.74-3.781 8.3-8.041 2.75-12.83 5.98-25.55 9.01-38.32 5.86-26 12.511-51.879 19.131-77.709 7.22-24.06 11.659-49.061 21.779-72.161 1.78-5.74 4.049-11.369 4.879-17.349.4-14.74 4.472-29.451 3.432-44.381 2.41-19.64-.43-39.31.09-59 .11-86.93-.272-173.861.048-260.801-6.84-3.26-13.909-6-20.959-8.75-2.48 3.65 3.049 7.57 2.639 11.66-4.6-4.13-7.129-9.988-11.719-14.138-5.206-1.339-10.435-2.915-15.828-2.987zm-175.332 558.946c-.56 3.63.889 10.859 5.539 10.099.47-3.68-.789-10.489-5.539-10.099z" fill="#58585c"/>
    <path id="color6" d="m969.199 245.609c-.19.65-.57 1.94-.76 2.59-.32 86.94.062 173.871-.048 260.801-.52 19.69 2.32 39.36-.09 59 1.04 14.93-3.032 29.641-3.432 44.381 1.88-10.15 3.502-20.351 5.092-30.551.87-12.25.409-24.57 1.629-36.81.21-98.86-.359-197.75.291-296.6-.27-.32-.81-.971-1.08-1.301-.4-.38-1.202-1.14-1.602-1.51z" fill="#9b9b9b"/>
    <path id="color7" d="m813.609 520.461c-3.3 5.95-10.579 8.299-13.369 14.699-1.94 4.57-5.94 7.48-9.76 10.36-3.35 2.7 2.52 3.289 4.54 3.259 11.71-2.61 20.739-13.198 32.919-14.068 3.75 9.05-5.03 18.08-.4 26.92 3.82.61 2.84-5.22 4.08-7.67 1.04-7.64 8.981-11.682 10.391-19.022-.38-1.4-.2-3.509-1.84-4.119-6.74-2.85-14.6-3.001-20.69-7.381-1.81-1.25-3.611-2.718-5.871-2.978zm260.821 4.158c-5.9 4.99-11.32 10.521-17.52 15.141-1.73 1.62-4.28 2.86-4.87 5.32-1.34 9.26-1.68 18.631-1.34 27.971-.19 1.33.57 2.319 1.61 3.049 4.45-3.06 8.39-6.769 12.15-10.639 4.79-4.32 4.15-11.36 5.84-17.07 1.51-7.87 5.1-15.632 4.13-23.772zm-113.76 328.401c-4.82.77-9.09 3.03-13.32 5.31-6.54 2.61-12.44-2.47-18.85-2.93-.27 2.17-.9 4.291-1.07 6.491 4.08 7.4.33 16.209 2.74 24.099.34 12.64.091 25.34.141 38-2.02 13.1-7.111 25.449-11.291 37.959-.87 3.74-1.25 10.16-.28 12.41.26-.18.77-.548 1.03-.728 13.94 4.86 30.23 5.859 44-.051.05.48.16 1.44.21 1.92l.571.369c1.14-19.05-.67-37.999-2.91-56.879.1-17.33-.06-34.66.08-51.99-1.2-1.74 2.93-2.66 1.49-3-2.01-3.32.279-7.86-2.541-10.98zm18.269.781c-2.63 3.28.101 7.97-2.259 11.25h-.02c.05.87 2.23 1.359 1.61 2.929.17 15.67-.09 31.35.07 47.02-1.22 19.33-3.371 38.57-3.061 58.02 9.26 5.54 20.401 4.19 30.701 4.33 5.53.03 10.87-1.77 15.7-4.37 1.73-10.75-5.69-19.68-6.94-30-1.22-7.8-5.76-14.95-5.12-23 .1-11.02-.01-22.04.1-33.05-.25-4.11 1.32-9.31-2.94-11.83-1.15-5.78-.5-11.85-2.5-17.5-5.031 1.55-11.479 2.789-15.809-.991-2.76-1.99-6.342-2.028-9.532-2.808z" fill="#544f4c"/>
    <path id="color8" d="m969.961 581.83c-1.59 10.2-3.212 20.401-5.092 30.551-.83 5.98-3.099 11.609-4.879 17.349.52 15.11-1.721 30.169-.791 45.309.73 4.64-1.71 8.911-1.76 13.451 2.57 13.69 1.7 27.69 1.01 41.51.22 16.71-1.399 33.34-2.349 49.99.35 24.38-1.94 49.22 4.57 73.03 2.82 3.12.531 7.66 2.541 10.98 4.52-.3 9.189-.889 13.469 1.051 2.36-3.28-.371-7.97 2.259-11.25 4.03-10.12 4.141-21.081 4.971-31.791-.14-26.34.909-52.74-1.801-78.99-.55-15.22-.259-30.47-.509-45.69-3.37-38.51-5.869-77.23-11.639-115.5zm-50.881 197.77c-3.03 12.77-6.26 25.49-9.01 38.32-.56 4.26-4.58 6.761-8.3 8.041-11.36 4.03-23.841 1.858-35.241 5.648-7.34 1.82-14.29 4.811-21.41 7.291 7.15 7.8 17.261 13.179 27.901 14.039 13.61 1.1 26.12 8.45 39.98 7.76 4.87-.55 9.56 1.532 14.43 1.192.17-2.2.8-4.321 1.07-6.491-3.02-25.23-2.99-51.04-9.42-75.8z" fill="#3c3e41"/>
    <path id="color9" d="m959.99 629.73c-10.12 23.1-14.559 48.101-21.779 72.161-6.62 25.83-13.271 51.709-19.131 77.709 6.43 24.76 6.4 50.57 9.42 75.8 6.41.46 12.31 5.54 18.85 2.93 4.23-2.28 8.5-4.54 13.32-5.31-6.51-23.81-4.22-48.65-4.57-73.03.95-16.65 2.569-33.28 2.349-49.99.69-13.82 1.56-27.82-1.01-41.51.05-4.54 2.49-8.811 1.76-13.451-.93-15.14 1.311-30.199.791-45.309zm21.61 67.6c.25 15.22-.041 30.47.509 45.69 2.71 26.25 1.661 52.65 1.801 78.99-.83 10.71-.941 21.671-4.971 31.791 3.19.78 6.772.818 9.532 2.808 4.33 3.78 10.778 2.541 15.809.991-4.411-51.92-16.62-102.81-21.52-154.69-.09-1.92-.17-3.89-1.16-5.58z" fill="#c7baa4"/>
    <path id="color10" d="m720.676 789.801c-.174.002-.352.015-.535.039-4.52 1.76-4.811 9.699.859 9.529 5.861.155 5.059-9.646-.324-9.568zm52.377 6.736c-.291.005-.631.09-1.024.274-2.3.86-1.55 4.699.91 4.449 1.75-.884 2.146-4.754.114-4.723zm-3.414 10.09c-.879-.01-1.754.034-2.619.174-1.76 3.58-4.16 7.318-4.35 11.398 2.81.26 5.66.281 8.48-.029.09-3.83.119-7.68 1.129-11.4-.88-.07-1.762-.133-2.64-.143z" fill="#eecbc0"/>
    <path id="color11" d="m742.25 831.01c-.28 2.92-.281 5.869.109 8.779 4.14.61 5.43-5.659 9.5-4.859 2.22 1.4 4.17 3.39 6.83 3.97.28-2.58.301-5.18-.019-7.74-3.23-.13-5.39 3.41-8.68 3.02-2.76-.61-4.74-3.32-7.74-3.17z" fill="#ef7181"/>
  </g>
</svg>
