<svg height="1080" width="1920" xmlns="http://www.w3.org/2000/svg">
  <path id="background" d="m0 0h1920v1080h-1920z" fill="#a2c6dd"/>
  <g id="transform" transform="translate(0,0) scale(1.00)">
    <path id="color1" d="m332.1 105.85c-18.26-.16-38.72 4.64-49.83 20.41-11.73 15.96-12.119 36.83-10.809 55.76 1.13 7.01.928 14.62 4.728 20.88 4.98 6.59 11.65 11.65 17.84 17-2.37 6.93-6.188 17.399 1.612 22.219 2.03 1.29 4.208 2.381 6.048 3.951.63 4.86-.639 9.85.481 14.67 1.82 3.99 6.549 4.63 10.119 6.28.83 3.53-.069 7.219.701 10.759 1.74 2.52 5.1 3.131 7.49 4.901.59 3.24-.089 6.65.901 9.82 1.34 3.5 5.38 4.749 7.33 7.689.19 4.41-2.991 9.742.809 13.362 3.82 3.85 9.701 7.85 7.941 14.16-2.89 9.68-4.1 20.179-1.25 30.029.33 1.71 1.649 2.871 2.959 3.901-.96-4.16-2.359-8.311-1.959-12.641 1.37 5.73 2.839 11.64 6.879 16.16.55.22 1.64.659 2.18.879-4.18-10.44-1.46-22.34-1.68-33.35-1.32-3.78-3.99-6.909-5.27-10.669-.25-4.21.961-8.34 1.241-12.52.47-4.64-2.882-7.52-5.862-10.43 2.01-6.95-.459-14.311-6.779-18.041-1.5-5.02 1.09-12.339-5.18-14.959-3.51-4.81-2.99-12.511-8.59-16.211-4.98-2.42-1.99-8.12-1.72-12.25.04-4.29-2.14-7.959-4.11-11.589.44-.26 1.301-.789 1.731-1.059 3.47 3.54 4.239 8.93 6.869 13.1 4.06 7.33 9.101 14.038 13.791 20.968.76 1.35 2.138 2.072 3.568 2.532-3.59-5.95-8.04-11.541-9.17-18.631-3.42-13.09-6.689-26.661-6.009-40.241 4.25 8.37 6.191 18.071 12.121 25.641-.44-5.21-4.331-9.261-5.131-14.381-1.55-8.37-3.381-16.688-5.311-24.978 8.05-12.37 16.862-24.76 21.022-39.17 1.48-5.17 2.019-10.572 3.719-15.692 7.39 3.04 13.5 8.671 19.22 14.141 7.25 9.06 15.451 19.471 14.231 31.801.73 13.1 1.439 27.039-6.241 38.459 2.5 6.96-.03 14.35-.46 21.47 3.58-8.41 3.83-17.76 4.88-26.73 3.01 2.08 1.65 8.09 2.36 11.76 1.47 7.66.549 15.4-.221 23.06 9.07-22.47 6.301-47.43 8.471-71.07-.51-14.56-1.729-29.73-9.049-42.68-9.23-16.75-27.901-26.9-46.611-28.47zm-35.231 90.439c1.097-.094 2.673 1.702 4.012.451 1.72 7.51 5.179 14.48 7.139 21.93-3.7-2.55-8.821-1.24-12.161-4.49-2.3-2.25-6.19-4.45-5.75-8.11 2.28-3.1 4.641-6.129 6.321-9.609.135-.105.282-.158.439-.172zm66.932 36.451c-1.64 2.28-3.1 5.161-5.91 6.141-3.67-.02-8.601-2.791-11.401.699 4.08-.33 9.69-1.24 7.43 4.76-.19 5.4 6.141 6.46 9.381 9.41.62 2.45.479 5.059 1.379 7.449 2.21 3.61 6.889 3.361 10.429 4.621 2.27 2.3 4.322 5.271 8.032 4.391 2.43-3.85 6.849-8.311 3.129-12.861-2.57-.58-5.17-.24-7.75-.12-2.42-3.15-5.739-5.55-7.879-8.9-.56-6.01-.87-12.32-6.84-15.59zm32.76 21.496c-.787.027-1.588.22-2.372.614-.34.13-1.009.379-1.349.509 4.15.44 7.85 2.392 10.89 5.192-.593-3.413-3.76-6.43-7.169-6.315zm-3.211 42.584c-2.08 5.02-3.34 10.36-3.85 15.77.06 3.85.459 7.84 3.039 10.92-.12-3.82-.969-7.55-1.189-11.36 1.48.04 1.009 1.78 1.339 2.75.07 6.38 5.08 10.88 8.67 15.6-2.25-6.65-4.169-13.34-3.119-20.5.01-4.6 1.44-12.29-4.89-13.18z" fill="#d1a18c"/>
    <path id="color2" d="m345.52 134.109c-1.7 5.12-2.239 10.522-3.719 15.692-4.16 14.41-12.972 26.8-21.022 39.17 1.93 8.29 3.761 16.608 5.311 24.978.8 5.12 4.691 9.171 5.131 14.381-5.93-7.57-7.871-17.271-12.121-25.641-.68 13.58 2.589 27.151 6.009 40.241 5.87 2.62 11.73 5.38 17.83 7.41 1.31-3.02 1.851-6.299 2.971-9.379.15-.35.44-1.031.58-1.381 2.8-3.49 7.731-.719 11.401-.699 2.81-.98 4.27-3.861 5.91-6.141 2.76-4.88 5.739-9.62 8.929-14.23 7.68-11.42 6.971-25.359 6.241-38.459 1.22-12.33-6.981-22.741-14.231-31.801-5.72-5.47-11.83-11.101-19.22-14.141zm-48.651 62.18c-.157.014-.304.067-.439.172-1.68 3.48-4.041 6.509-6.321 9.609-.44 3.66 3.45 5.86 5.75 8.11 3.34 3.25 8.461 1.94 12.161 4.49-1.96-7.45-5.419-14.42-7.139-21.93-1.339 1.251-2.915-.545-4.012-.451zm13.182 28.672c-.43.27-1.291.799-1.731 1.059 1.97 3.63 4.15 7.299 4.11 11.589 1.5.13 2.99.272 4.49.452-2.63-4.17-3.399-9.56-6.869-13.1zm77.504 29.469c-1.138.08-1.797.771-1.285 2.92 3.72 4.55-.699 9.011-3.129 12.861.68 3.66-3.31 4.979-4.75 7.709.97 3.47 2.62 6.869 5.08 9.529 3.9-.04 7.829-.44 11.529 1.24 5.25-7.72 8.84-17.168 16.9-22.548-2.77-1.8-5.65-3.43-8.17-5.59-3.04-2.8-6.74-4.752-10.89-5.192-1.57-.123-3.823-1.032-5.285-.929zm18.873 130.109c-1.323-.07-2.676.164-4.059.842 1.27 3.45 3.531 6.779 2.971 10.639-.83 7.79-6.56 13.64-10.57 19.98.48.21 1.42.63 1.9.84 2.94.81 5.801 2.351 8.891 2.461 3.23-1 6.069-2.961 9.269-4.051 4.35-1.29 6.9-5.79 11.77-5.91.14-2.05 1.059-6.96-1.651-6.92-3.58 1.72-5.908-2.51-7.068-5.25 3-.19 5.998-.199 8.988-.459 2.62-.95 5.06-2.771 6.17-5.391-5.17-.03-10.798 1.1-15.488-1.75-3.45-1.882-7.154-4.822-11.123-5.031zm-111.549 198.199c-5.389-.076-9.845 3.956-15.18 4.762-5.3.78-1.879 6.271-.709 9.301 8.72 19.93 16.739 40.18 25.119 60.26 2.94 6.97 1.892 14.469.772 21.699-4.75 6.03-10.891 11.24-13.861 18.48-2.7 7.8-3.32 16.539-.78 24.459 4.51 12.92 22.499 20.741 33.699 11.201 7.25-6.26 10.551-15.561 13.481-24.371 1.39-4.59 2.239-10.059 6.609-12.859-.85 11.08 5.992 21.17 4.032 32.33-1.58 6.58-.13 13.22.33 19.82 11.64 12.19 30.959 7.64 42.519-2.24-.23-16.16-7.741-31.36-7.221-47.57-.94-18.12 7.361-34.82 12.461-51.77 5.13-17.94 12.111-35.429 15.651-53.769-1.33.4-2.641.859-3.961 1.269-1.81.58-3.66 1.001-5.52 1.391-9.33 2.51-19.029-.52-28.429 2.42-2.22.4-4.511.558-6.731.068-10.06-1.61-19.18-6.148-29-8.818-2.59-.54-5.12-1.311-7.5-2.461-2.55-.95-5.46-2.35-8.07-.77-7.17 3.26-14.779.02-21.779-1.98-1.62-.26-3.24-.509-4.84-.779-.368-.044-.733-.068-1.092-.073z" fill="#f1e3d6"/>
    <path id="color3" d="m312.43 237.609c-.27 4.13-3.26 9.83 1.72 12.25 5.6 3.7 5.08 11.401 8.59 16.211 6.27 2.62 3.68 9.939 5.18 14.959 6.32 3.73 8.789 11.091 6.779 18.041 2.98 2.91 6.332 5.79 5.862 10.43 3.53 7.12 6.319 15.219 4.029 23.189.22 11.01-2.5 22.91 1.68 33.35-.54-.22-1.63-.659-2.18-.879.94 8.09-.53 16.31.24 24.34 8.2.66 16.539.429 24.539-1.631-.21-12.32.82-24.68-.83-36.92.29-8.66-3.959-16.45-5.279-24.83-3.88-16.77-10.68-32.909-11.99-50.209-2.71-7.73-12.95-12.29-12.85-20.99 2.83 2.13 5.149 6.699 9.359 4.859.66-1.77 1.121-3.608 1.721-5.398 3.69 5 5.291 10.808 5.711 16.898 9.09 15.83 15.209 33.211 20.269 50.711 3.81 11.3 3.729 23.39 6.129 34.99 2.03 10.12 3.11 20.41 5.26 30.5 2.65-.92 5.351-1.72 7.901-2.91-1.87-20.29 1.059-40.83-1.731-61.06-2.58-3.08-2.979-7.07-3.039-10.92-2.1-8.67-7.05-16.021-11.68-23.481-8-16.35-18.81-31.049-29.41-45.769-.84-.8-1.68-1.589-2.5-2.379-1.12 3.08-1.661 6.359-2.971 9.379-6.1-2.03-11.96-4.79-17.83-7.41 1.13 7.09 5.58 12.681 9.17 18.631-1.43-.46-2.808-1.182-3.568-2.532-4.69-6.93-9.731-13.638-13.791-20.968-1.5-.18-2.99-.322-4.49-.452zm84.064 125.129c-.384-.028-.781.108-1.113.483-1.39 1.31.848 3.55 2.158 2.16 1.148-.998.108-2.558-1.045-2.643zm-1.724 53.262c-5.26 7.4-15.35 5.489-23.04 7.859-10.5 3.39-21.14 6.281-32.23 6.731-.36 12.29-2.79 24.4-3.59 36.66l1.24 1.961c6.52.01 13.041.088 19.561-.022 2.47-.3 4.94-.668 7.43-.808 7.68-.27 15.459-.812 22.699-3.592 1.61-.51 3.31-.68 5-.67 3.39-.03 6.78.04 10.17-.01-1.65-13.85-4.641-27.54-5.231-41.5 1.24-.54 3.581.251 3.791-1.599-3.04.37-4.46-.99-3.9-4.17-.48-.21-1.42-.63-1.9-.84zm10.271 44.99c-.259-.011-.539.076-.82.299-1.41.96.048 3.641 1.558 2.461 1.13-.796.386-2.709-.738-2.76zm3.27 43.963c-.373-.034-.76.088-1.09.438-1.51 1.33.818 3.7 2.148 2.16 1.05-.983.06-2.494-1.058-2.598z" fill="#f6f9fa"/>
    <path id="color4" d="m295.641 242.119c-9.66 11.22-23.511 18.171-32.301 30.221-5.89 10.46-6.039 22.98-6.039 34.66-1.94 13.39-1.511 27.229 2.549 40.199 1.26 14.8-.159 29.75.701 44.58 2.36 12.42 9.019 23.702 14.879 34.772 3.61 3.72 9.28 1.41 13.81 2.34.9 3.32-3.341 4.17-4.711 6.58.37 13.59-8.229 25.188-10.799 38.308-4.82 2.87-4.55 8.921-6.08 13.711-2.75 12.78-7.61 25.32-7.49 38.52-1.42 8.12-5.059 16.151-3.609 24.541 2.02 2.09 5.259 2.658 7.969 3.568 10.44.7 20.939-2.428 31.339.022 2.33.41 4.611 1.119 6.801 2.019 9.08 3.56 18.85 5.441 28.61 5.301 1.44-1.2 3.73-2.16 3.56-4.4.38-28.34-.57-56.711.15-85.051.15-1.62.57-3.19.93-4.76.8-12.26 3.23-24.37 3.59-36.66 11.09-.45 21.73-3.341 32.23-6.731 7.69-2.37 17.78-.459 23.04-7.859 4.01-6.34 9.74-12.19 10.57-19.98.56-3.86-1.701-7.189-2.971-10.639 5.53-2.71 10.582 1.679 15.182 4.189 4.69 2.85 10.318 1.72 15.488 1.75-.48-.46-1.45-1.38-1.93-1.84 3.16-4.41 6.821-8.861 7.561-14.441.87-5.6-2.72-10.539-2.94-16.039.04-12.03-1.71-23.94-1.05-36-.07-6.27.84-13.231-3.08-18.631-5.8-8.14-.489-19.249-5.289-27.609-5.32-2.54-7.431-12.959-14.411-10.619-8.06 5.38-11.65 14.828-16.9 22.548-3.7-1.68-7.629-1.28-11.529-1.24-2.46-2.66-4.11-6.059-5.08-9.529 1.44-2.73 5.43-4.049 4.75-7.709-3.71.88-5.762-2.091-8.032-4.391-3.54-1.26-8.219-1.011-10.429-4.621-.9-2.39-.759-4.999-1.379-7.449-3.24-2.95-9.571-4.01-9.381-9.41-1.84-.35-3.68-.66-5.51-1 10.6 14.72 21.41 29.419 29.41 45.769 4.63 7.46 9.58 14.811 11.68 23.481.51-5.41 1.77-10.75 3.85-15.77 6.33.89 4.9 8.58 4.89 13.18-1.05 7.16.869 13.85 3.119 20.5-3.59-4.72-8.6-9.22-8.67-15.6-.33-.97.141-2.71-1.339-2.75.22 3.81 1.069 7.54 1.189 11.36 2.79 20.23-.139 40.77 1.731 61.06-2.55 1.19-5.251 1.99-7.901 2.91-2.86 1.85-4.818-1.671-7.398-2.371-3.42.72-6.632 2.23-10.102 2.76-8 2.06-16.339 2.291-24.539 1.631-.77-8.03.7-16.25-.24-24.34-4.04-4.52-5.509-10.43-6.879-16.16-.4 4.33.999 8.481 1.959 12.641-1.31-1.03-2.629-2.191-2.959-3.901-2.85-9.85-1.64-20.349 1.25-30.029 1.76-6.31-4.121-10.31-7.941-14.16-3.8-3.62-.619-8.952-.809-13.362-1.95-2.94-5.99-4.189-7.33-7.689-.99-3.17-.311-6.58-.901-9.82-2.39-1.77-5.75-2.381-7.49-4.901-.77-3.54.129-7.229-.701-10.759-3.57-1.65-8.299-2.29-10.119-6.28-1.12-4.82.149-9.81-.481-14.67-1.84-1.57-4.018-2.661-6.048-3.951zm75 6.211c2.14 3.35 5.459 5.75 7.879 8.9 2.58-.12 5.18-.46 7.75.12-1.17-4.91 3.78-2.211 6.57-1.991.34-.13 1.009-.379 1.349-.509-6.48-5.93-15.668-4.33-23.548-6.52zm-30.08 61.17c-.28 4.18-1.491 8.31-1.241 12.52 1.28 3.76 3.95 6.889 5.27 10.669 2.29-7.97-.499-16.069-4.029-23.189zm55.933 53.238c1.153.085 2.193 1.645 1.045 2.643-1.31 1.39-3.548-.85-2.158-2.16.332-.375.729-.511 1.113-.483zm30.375 33.973c-2.99.26-5.988.269-8.988.459 1.16 2.74 3.488 6.97 7.068 5.25.82-1.84 1.43-3.759 1.92-5.709zm-12.039 18.539c-3.2 1.09-6.039 3.051-9.269 4.051-3.09-.11-5.951-1.651-8.891-2.461-.56 3.18.86 4.54 3.9 4.17-.21 1.85-2.551 1.059-3.791 1.599.59 13.96 3.581 27.65 5.231 41.5 1.23 10.09 1.3 20.311 2.32 30.411.62 2.43.861 4.941.561 7.441-.14 10.3 1.068 20.64 2.548 30.84.45 2.4.691 4.849.821 7.299 1.1 6.71.251 14.559 4.621 20.189 3.3-.85 6.359-2.4 9.609-3.42 1.25-.43 2.5-.829 3.77-1.209 1.71-.57 3.419-1.129 5.109-1.769 3.7-2.51 11.081-4.44 8.971-10.34-1.31-15.99-4.469-31.742-6.779-47.602-3.35-16.82-5.511-34.009-11.401-50.199-3.33-9.88-8.33-19.8-7.33-30.5zm-9.789 45.74c1.124.051 1.868 1.964.738 2.76-1.51 1.18-2.968-1.501-1.558-2.461.281-.223.561-.31.82-.299zm3.27 43.963c1.118.104 2.108 1.615 1.058 2.598-1.33 1.54-3.658-.83-2.148-2.16.33-.35.717-.472 1.09-.438z" fill="#bfe5e9"/>
    <path id="color5" d="m349 254.381c-.6 1.79-1.061 3.628-1.721 5.398-4.21 1.84-6.529-2.729-9.359-4.859-.1 8.7 10.14 13.26 12.85 20.99 1.31 17.3 8.11 33.439 11.99 50.209 1.32 8.38 5.569 16.17 5.279 24.83 1.65 12.24.62 24.6.83 36.92 3.47-.53 6.682-2.04 10.102-2.76 2.58.7 4.538 4.221 7.398 2.371-2.15-10.09-3.23-20.38-5.26-30.5-2.4-11.6-2.319-23.69-6.129-34.99-5.06-17.5-11.179-34.881-20.269-50.711-.42-6.09-2.021-11.898-5.711-16.898z" fill="#c97271"/>
    <path id="color6" d="m391.84 464.119c-1.69-.01-3.39.16-5 .67.55 11.68 3.099 23.342 1.769 35.022-7.78-.19-15.608-.711-23.388-1.061.2-10.16-1.58-20.219-1.08-30.369-2.49.14-4.96.508-7.43.808 1.73 10.02 3.05 20.192 1.92 30.362-7.07 1.41-15.09 2.88-21.24-1.99-.66-9.42.009-18.91-.241-28.35l-1.24-1.961c-.36 1.57-.78 3.14-.93 4.76-.72 28.34.23 56.711-.15 85.051.17 2.24-2.12 3.2-3.56 4.4-.2 2.12-.311 4.259-.651 6.369-8.48.24-16.13-4.991-24.68-4.891-4.11.76-2.609-4.259-3.279-6.779-2.19-.9-4.471-1.609-6.801-2.019.03 2.73.2 5.489-.24 8.199-10.69 3.91-21.889 7.68-33.449 6.51-.38 2.13-.72 4.41.15 6.49 5.46-1.31 11.12-1.25 16.61-2.34 5.61-1.13 10.78-5.33 16.75-3.73.6 4.48.301 9.031.291 13.541 1.6.27 3.22.519 4.84.779.68-4.74 1.07-9.5 1.5-14.26 9.64-1.35 19.058 2.91 28.298 5.09.6 3.94.161 7.95.051 11.92 2.38 1.15 4.91 1.921 7.5 2.461-.06-3.9-.25-7.812.19-11.682 6.51-.55 12.251 3.641 18.701 3.791 2.74.2 5.61-.341 8.26.619 1.47 5.22 1.809 10.69 1.849 16.09 2.22.49 4.511.332 6.731-.068-.53-5.45-1.43-10.88-1.76-16.34 8.85.02 17.689-2.072 26.459-1.932 1.84 5.12 2.52 10.562 3.73 15.852 1.86-.39 3.71-.811 5.52-1.391-.67-5.47-3.05-10.79-2.66-16.34 6.66-.34 12.701-3.51 19.291-4.22.88 5.01 1.11 10.109 2.08 15.109 1.19-.46 2.339-1.009 3.449-1.629.05-4.81-1.96-9.65-.66-14.4 2.47-1.18 5.389-5.43 2.599-7.01-5.97 1.74-3.849-6.21-5.679-9.59-1.27.38-2.52.779-3.77 1.209.54 3.45 2.101 6.97 1.321 10.49-6.67 1.91-13.381 4.441-20.411 4.401-.16-10.69-5.54-20.92-3.97-31.53 2.92-.45 5.89-.26 8.83-.13-.13-2.45-.371-4.899-.821-7.299-3.19 1.57-6.83 1.78-10.25.91.54-9.8-3.319-19.452-1.839-29.172 3.16-.92 6.411-1.518 9.541-2.578.3-2.5.059-5.011-.561-7.441-3.12 1.11-7.349 5.15-10.359 2.48.78-11.02-1.311-21.901-2.131-32.881zm-10.924 41.836c2.934-.011 5.854.071 8.734.356-.25 9.34 2.771 19 2.071 28.41-8.12.42-16.251 2.419-24.471.939.45-9.8-2.61-19.54-.98-29.4 4.831-.013 9.757-.287 14.646-.305zm-43.746.445c7.42 2.18 15.129 1.06 22.699 1.94-.22 9.19 2.4 18.15.83 27.39-7.78.07-15.659.46-23.379.04-.41-9.77-.12-19.59-.15-29.37zm52.137 34.319c2.889-.025 5.507 1.836 4.802 5.361-1.69 9.28 4.021 18.201 2.301 27.231-8.14 1.67-16.55 3.38-24.89 2.49-2.47-10.96-4.05-22.411-3.18-33.641 5.99-1.18 12.199 1.101 18.099-.779.91-.435 1.905-.654 2.868-.662zm-48.952 1.271c7.094-.089 14.105 2.049 21.315 1.27 1.02 10.47 3.169 20.97 3.189 31.4-9.56 2.09-18.429-2.791-27.679-4.041-.67-9.43-.029-18.979.131-28.439 1.017-.119 2.031-.177 3.044-.19z" fill="#8e4f4b"/>
    <path id="color7" d="m402.01 464.109c-3.39.05-6.78-.02-10.17.01.82 10.98 2.911 21.861 2.131 32.881 3.01 2.67 7.239-1.37 10.359-2.48-1.02-10.1-1.09-20.321-2.32-30.411zm-15.17.68c-7.24 2.78-15.019 3.322-22.699 3.592-.5 10.15 1.28 20.209 1.08 30.369 7.78.35 15.608.871 23.388 1.061 1.33-11.68-1.219-23.342-1.769-35.022zm-30.129 4.4c-6.52.11-13.041.032-19.561.022.25 9.44-.419 18.93.241 28.35 6.15 4.87 14.17 3.4 21.24 1.99 1.13-10.17-.19-20.342-1.92-30.362zm48.18 32.772c-3.13 1.06-6.381 1.658-9.541 2.578-1.48 9.72 2.379 19.372 1.839 29.172 3.42.87 7.06.66 10.25-.91-1.48-10.2-2.688-20.54-2.548-30.84zm-23.975 3.994c-4.889.018-9.815.292-14.646.305-1.63 9.86 1.43 19.6.98 29.4 8.22 1.48 16.351-.519 24.471-.939.7-9.41-2.321-19.07-2.071-28.41-2.88-.285-5.8-.367-8.734-.356zm-43.746.445c.03 9.78-.26 19.6.15 29.37 7.72.42 15.599.03 23.379-.04 1.57-9.24-1.05-18.2-.83-27.39-7.57-.88-15.279.24-22.699-1.94zm66.668 33.547c-1.475-.007-2.948.058-4.408.283-1.57 10.61 3.81 20.84 3.97 31.53 7.03.04 13.741-2.491 20.411-4.401.78-3.52-.781-7.04-1.321-10.49-3.25 1.02-6.309 2.57-9.609 3.42-4.37-5.63-3.521-13.479-4.621-20.189-1.47-.065-2.947-.145-4.422-.153zm-14.531.772c-.963.008-1.958.227-2.868.662-5.9 1.88-12.109-.401-18.099.779-.87 11.23.71 22.681 3.18 33.641 8.34.89 16.75-.82 24.89-2.49 1.72-9.03-3.991-17.951-2.301-27.231.705-3.525-1.913-5.386-4.802-5.361zm-48.952 1.271c-1.013.013-2.027.071-3.044.19-.16 9.46-.801 19.009-.131 28.439 9.25 1.25 18.119 6.131 27.679 4.041-.02-10.43-2.169-20.93-3.189-31.4-7.21.779-14.221-1.359-21.315-1.27zm-54.269 11.201c-7.182.082-14.389 1.409-21.566.928-1.01 4.86-1.52 9.821-2.35 14.731 11.56 1.17 22.759-2.6 33.449-6.51.44-2.71.27-5.469.24-8.199-3.25-.766-6.508-.987-9.773-.95zm145.283.7c-1.69.64-3.399 1.199-5.109 1.769 1.83 3.38-.291 11.33 5.679 9.59 2.79 1.58-.129 5.83-2.599 7.01-1.3 4.75.71 9.59.66 14.4 1.66-1.08 3.78-1.94 4.68-3.81-1.16-9.69-1.071-19.389-3.311-28.959zm-128.709 2.269c.67 2.52-.831 7.539 3.279 6.779 8.55-.1 16.2 5.131 24.68 4.891.34-2.11.451-4.249.651-6.369-9.76.14-19.53-1.741-28.61-5.301zm-10.262 12.764c-4.642.214-8.91 3.158-13.468 4.076-5.49 1.09-11.15 1.03-16.61 2.34-.03 4.66-.26 9.36.19 14.01 5.29 2.87 10.78 5.481 16.48 7.451-1.17-3.03-4.591-8.521.709-9.301 5.69-.86 10.382-5.389 16.272-4.689.01-4.51.309-9.061-.291-13.541-1.12-.3-2.21-.396-3.282-.346zm13.516.148c-1.198.009-2.398.089-3.603.258-.43 4.76-.82 9.52-1.5 14.26 7 2 14.609 5.24 21.779 1.98 2.61-1.58 5.52-.18 8.07.77.11-3.97.549-7.98-.051-11.92-8.085-1.908-16.308-5.407-24.695-5.348zm118.557 4.108c-6.59.71-12.631 3.88-19.291 4.22-.39 5.55 1.99 10.87 2.66 16.34 1.32-.41 2.631-.869 3.961-1.269 5.24-.1 10.34-.762 14.75-4.182-.97-5-1.2-10.099-2.08-15.109zm-84.909 3.89c-.401 0-.806.015-1.212.049-.44 3.87-.25 7.782-.19 11.682 9.82 2.67 18.94 7.208 29 8.818-.04-5.4-.379-10.87-1.849-16.09-2.65-.96-5.52-.419-8.26-.619-6.047-.14-11.47-3.832-17.489-3.84zm59.028 2.209c-8.77-.14-17.609 1.952-26.459 1.932.33 5.46 1.23 10.89 1.76 16.34 9.4-2.94 19.099.09 28.429-2.42-1.21-5.29-1.89-10.732-3.73-15.852z" fill="#bab6b7"/>
    <path id="color8" d="m291.141 696c-6.33 7.12-8.611 16.85-11.471 25.73-7.72 29.81-10.701 60.6-12.811 91.25-.14 2.78-.399 5.57-.459 8.36-.55 4.96 4.361 8.039 7.401 11.199 3.37-3.57 7.449-2.99 10.859.16 6.88-3.03 4.821-11.179 5.981-17.129 1.42-14.27 5.058-28.251 10.398-41.541 6.46-14.78 16.021-27.879 24.291-41.609l-1.391.48c-11.2 9.54-29.189 1.719-33.699-11.201-2.54-7.92-1.92-16.659.78-24.459zm99.769 49.58c-11.56 9.88-30.879 14.43-42.519 2.24-.31 13.19 3.18 26.089 3.83 39.219 1.19 28.8.7 57.671-1.09 86.441 1.8 4.93 8.229 5.681 12.289 3.071 4.99-3.07 11.47 9.28 13.31.41 4.6-38.76 17.479-76.591 15.959-115.971-.47-5.07.421-10.82-1.779-15.41z" fill="#51596d"/>
    <path id="color9" d="m266.859 812.98c-2.32 1.85-5.73 3.621-5.82 6.981-.75 15.65-.98 31.359-2.85 46.939-1.51 8.96-3.409 17.909-3.599 27.039.46 8.08 2.219 16.241 5.949 23.461 4.06 7.36 14.051 7.389 21.121 5.219 6.43-1.93 9.61-8.568 10.18-14.818 1.02-19.4-6.211-38.621-1.561-57.961-2.96 3.86-6.278 2.45-9.308-.41 2.52 1.73 3.039 9.92-.901 6.05.26 4.58-6.65-.46-7.08 4.26 2.28 2.37 5.481 2.061 8.321 1.071-4.78 2.76.49 3.989 3.25 5.179 1.32 3.26 1.22 6.87 1.16 10.34-.91-2.99-1.291-6.089-1.991-9.119-2.1.37-4.05 1.319-5.8 2.519 1.66 1.47 3.49 2.739 5.17 4.209-1.63.86-3.341 1.582-4.981 2.442 1.62 1.69 3.881 2.899 4.881 5.109-4.53.78-9.239.89-13.699-.33 1.65-1.71 3.539-3.12 5.299-4.68-1.56-1.28-3.29-2.351-4.86-3.611 1.37-1.13 2.841-2.099 4.221-3.199-1.36-1.23-2.851-2.29-4.201-3.52 1.77-1.32 3.77-2.34 5.34-3.9-1.26-.91-2.611-1.701-4.061-2.211-2.86 4.45-2.75 10.041-5.18 14.701.1-7.94 4.37-14.85 6.09-22.42.95-1.64 2.212-3.08 3.262-4.65-2.32 1.06-4.35 2.849-6.9 3.359-.99-1.63-2.631-3.558-1.801-5.558 3.86-4.39 10.11-6.291 15.75-4.731 3.46 1.87 5.8 5.231 7.98 8.401 1.69-8.37 2.68-16.861 4.33-25.231.9-3.41-1.309-6.45-3.929-8.34-1.16 5.95.899 14.099-5.981 17.129-3.41-3.15-7.489-3.73-10.859-.16-3.04-3.16-7.951-6.239-7.401-11.199.06-2.79.319-5.58.459-8.36zm12.83 28.59c1.6 2.98 3.191 5.97 4.981 8.85 1.23 2.76 5.351-1.27 3.131-2.99-2.19-2.46-4.382-6.07-8.112-5.86zm-5.019.225c-.366.025-.84.135-1.44.346-2.98 1.37-8.61 4.48-4.06 7.58 2.411-.481 9.035-8.164 5.5-7.926zm3.805 1.017c-.267-.07-.593.082-.985.547-.65 1.95-1.82 6.24 1.67 5.58.52-1.34.472-5.823-.685-6.127zm-1.629 7.518c-.139.01-.272.033-.397.07-4.88 1.61-.009 6.41 3.141 4.1 2.728-1.444-.669-4.311-2.744-4.17zm-2.803 4.492c-.2-.004-.438.045-.713.158-1.51.28-1.91 3.45.15 2.59 1.584-.157 1.966-2.719.563-2.748zm7.957 4.448c3.36.06-1.49 3.01 0 0zm1.039 2.99c3.33.19-1.57 2.96 0 0zm-6.531 1.554c-.439.014-.873.104-1.287.286-1.17.5-4.711 1.841-2.381 3.201 2.5 2.43 5.819 1.02 8.359-.5-.804-1.658-2.789-3.045-4.691-2.987zm-1.272 6.998c-.39.028-.733.121-.996.297-5.33 1.03 2.04 6.372 4.51 3.702 4.244-1.103-.784-4.189-3.514-3.999zm75.231 2.6c-1.626-.069-3.664.529-3.358 2.498-.31 13.04.232 26.121-.718 39.151-1.78 11.85-4.84 23.66-4.08 35.74.65 4.66-1.621 12.95 5.029 13.75 9.78 1.55 19.76 1.918 29.65 1.728 3.32.34 4.391-2.99 5.221-5.49.76-8.68-1.871-17.138-2.631-25.728-2.52-17.68-1.16-35.68 2.01-53.18 1.06-3.29-2.14-4.75-4.86-4.92-1.84 8.87-8.32-3.48-13.31-.41-4.06 2.61-10.489 1.859-12.289-3.071-.208-.035-.432-.058-.664-.068zm-74.317 3.957c-1.9.41-3.24 1.96-4.41 3.41 3.09.27 6.199.271 9.289-.029-1.31-1.49-2.859-3.031-4.879-3.381zm87.278 12.664c4.289-.149 8.409 2.144 11.642 4.906 2.52 2.18.171 5.672-1.439 7.702-2.61 1.67-3.732-3.282-6.522-2.602-.55 2.36 4.38 3.511 1.26 5.441-.84 4.72 1.812 9.96 2.522 14.84-1.26-1.52-2.411-4.429-4.551-2.179-3.15 1.06.77 2.538 1.82 3.728 1.96 1.31-1.269 2.481-2.099 3.381.6 1.94 5.029 1.65 4.679 4.26-4.82.62-9.74.64-14.56.01.26-2.51 4.07-2.2 4.98-4.28-1.38-.56-2.79-1.011-4.16-1.541.93-2.17 4.011-2.499 4.891-4.529-2.37-2.32-5.281-2.39-6.721.81.29-3.54 3.269-7.08 1.619-10.57 2.01-3.32 2.79-7.609 3.41-11.529-1.77 1.48-4.089 5.48-6.219 2.17-3.95-4.47 2.939-8 6.459-9.5 1-.319 1.999-.483 2.989-.518zm3.002 1.477c1.38 3.8 2.92 8.13 6.31 10.57 5.66-5.15-1.37-9.35-6.31-10.57zm-5.106.211c-.393-.021-1.049.155-2.045.59-3.64.75-8.148 6.938-2.558 7.628 1.189-2.227 6.727-8.105 4.603-8.218zm2.727 1.129c-2.04 2.37-2.811 6.69 1.269 7.3-.08-2.13 1.331-7.51-1.269-7.3zm2.969 4.4c-1.56 2.97 3.34.15 0 0zm-4.817 2.527c-.207.02-.489.112-.863.303.079 2.923 2.31-.441.863-.303zm2.211 1.811c-.358.032-.767.163-1.225.422-3.42.53-2.908 4.12.452 3.66 3.298.315 3.281-4.308.773-4.082zm1.482 4.502c-.184.016-.398.051-.646.109-.591 3.75 3.415-.348.646-.109zm-3.447 1.31c-7.08 1.38 1.471 6.369 4.551 3.379-.42-1.97-2.671-3.289-4.551-3.379zm-2.383 3.971c-.281-.027-.576.029-.855.199-1.87.86-.47 3.44 1.25 2.08 1.779-.503.825-2.163-.395-2.279zm6.852.693c-.185.016-.4.049-.648.106-.572 3.741 3.418-.332.648-.106zm-3.025 1.557c-.843-.033-1.699.173-2.524.709-.61.27-1.82.82-2.42 1.1 2.07 3.82 6.811 3.659 8.871-.071-1.15-.962-2.523-1.682-3.927-1.738zm-.623 6.85c-1.58.38-2.789 1.559-3.969 2.609 2.29 1.98 6.439 2.34 7.879-.84-1.24-.64-2.45-1.879-3.91-1.769zm.019 5.769c-1.69.36-3.06 1.51-4.42 2.53 3.11.28 6.242.28 9.352-.03-1.37-1.24-2.952-2.66-4.932-2.5z" fill="#c99b64"/>
    <path id="color10" d="m277.963 840.203c-4.318.082-8.558 1.975-11.453 5.268-.83 2 .811 3.928 1.801 5.558 2.55-.51 4.58-2.299 6.9-3.359-1.05 1.57-2.312 3.01-3.262 4.65-1.72 7.57-5.99 14.48-6.09 22.42 2.43-4.66 2.32-10.251 5.18-14.701 1.45.51 2.801 1.301 4.061 2.211-1.57 1.56-3.57 2.58-5.34 3.9 1.35 1.23 2.841 2.29 4.201 3.52-1.38 1.1-2.851 2.069-4.221 3.199 1.57 1.26 3.3 2.331 4.86 3.611-1.76 1.56-3.649 2.97-5.299 4.68 4.46 1.22 9.169 1.11 13.699.33-1-2.21-3.261-3.419-4.881-5.109 1.64-.86 3.351-1.582 4.981-2.442-1.68-1.47-3.51-2.739-5.17-4.209 1.75-1.2 3.7-2.149 5.8-2.519.7 3.03 1.081 6.129 1.991 9.119.06-3.47.16-7.08-1.16-10.34-2.76-1.19-8.03-2.419-3.25-5.179-2.84.99-6.041 1.299-8.321-1.071.43-4.72 7.34.32 7.08-4.26 3.94 3.87 3.421-4.32.901-6.05 3.03 2.86 6.348 4.27 9.308.41l-.039-.699c-2.18-3.17-4.52-6.531-7.98-8.401-1.41-.39-2.858-.564-4.297-.537zm1.726 1.367c3.73-.21 5.922 3.4 8.112 5.86 2.22 1.72-1.901 5.75-3.131 2.99-1.79-2.88-3.381-5.87-4.981-8.85zm-5.019.225c3.535-.238-3.089 7.445-5.5 7.926-4.55-3.1 1.08-6.21 4.06-7.58.6-.211 1.074-.321 1.44-.346zm3.805 1.017c1.157.304 1.205 4.787.685 6.127-3.49.66-2.32-3.63-1.67-5.58.392-.465.718-.617.985-.547zm-1.629 7.518c2.075-.141 5.472 2.726 2.744 4.17-3.15 2.31-8.021-2.49-3.141-4.1.125-.037.258-.06.397-.07zm-2.803 4.492c1.403.029 1.021 2.591-.563 2.748-2.06.86-1.66-2.31-.15-2.59.275-.113.513-.162.713-.158zm7.957 4.448c-1.49 3.01 3.36.06 0 0zm-5.492 4.544c1.902-.058 3.887 1.329 4.691 2.987-2.54 1.52-5.859 2.93-8.359.5-2.33-1.36 1.211-2.701 2.381-3.201.414-.182.848-.272 1.287-.286zm-1.272 6.998c2.73-.19 7.758 2.896 3.514 3.999-2.47 2.67-9.84-2.672-4.51-3.702.263-.176.606-.269.996-.297zm.914 6.557c2.02.35 3.569 1.891 4.879 3.381-3.09.3-6.199.299-9.289.029 1.17-1.45 2.51-3 4.41-3.41zm87.278 12.664c-.99.035-1.989.199-2.989.518-3.52 1.5-10.409 5.03-6.459 9.5 2.13 3.31 4.449-.69 6.219-2.17-.62 3.92-1.4 8.209-3.41 11.529 1.65 3.49-1.329 7.03-1.619 10.57 1.44-3.2 4.351-3.13 6.721-.81-.88 2.03-3.961 2.359-4.891 4.529 1.37.53 2.78.981 4.16 1.541-.91 2.08-4.72 1.77-4.98 4.28 4.82.63 9.74.61 14.56-.01.35-2.61-4.079-2.32-4.679-4.26.83-.9 4.059-2.071 2.099-3.381-1.05-1.19-4.97-2.668-1.82-3.728 2.14-2.25 3.291.659 4.551 2.179-.71-4.88-3.362-10.12-2.522-14.84 3.12-1.93-1.81-3.081-1.26-5.441 2.79-.68 3.912 4.272 6.522 2.602 1.61-2.03 3.959-5.522 1.439-7.702-3.233-2.762-7.353-5.055-11.642-4.906zm3.002 1.477c4.94 1.22 11.97 5.42 6.31 10.57-3.39-2.44-4.93-6.77-6.31-10.57zm-5.106.211c2.124.113-3.414 5.991-4.603 8.218-5.59-.69-1.082-6.878 2.558-7.628.996-.435 1.652-.611 2.045-.59zm2.727 1.129c2.6-.21 1.189 5.17 1.269 7.3-4.08-.61-3.309-4.93-1.269-7.3zm2.969 4.4c3.34.15-1.56 2.97 0 0zm-4.819 2.527c1.447-.138-.782 3.226-.861.303.374-.191.654-.283.861-.303zm2.213 1.811c2.508-.226 2.525 4.397-.773 4.082-3.36.46-3.872-3.13-.452-3.66.458-.259.867-.39 1.225-.422zm1.482 4.502c2.769-.239-1.237 3.859-.646.109.248-.058.462-.093.646-.109zm-3.447 1.31c1.88.09 4.131 1.409 4.551 3.379-3.08 2.99-11.631-1.999-4.551-3.379zm-2.383 3.971c1.22.116 2.174 1.776.395 2.279-1.72 1.36-3.12-1.22-1.25-2.08.279-.17.574-.226.855-.199zm6.852.693c2.77-.226-1.22 3.847-.648.106.248-.057.463-.09.648-.106zm-3.025 1.557c1.404.056 2.777.776 3.927 1.738-2.06 3.73-6.801 3.891-8.871.071.6-.28 1.81-.83 2.42-1.1.825-.536 1.681-.742 2.524-.709zm-.623 6.85c1.46-.11 2.67 1.129 3.91 1.769-1.44 3.18-5.589 2.82-7.879.84 1.18-1.05 2.389-2.229 3.969-2.609zm.019 5.769c1.98-.16 3.562 1.26 4.932 2.5-3.11.31-6.242.31-9.352.03 1.36-1.02 2.73-2.17 4.42-2.53z" fill="#33383b"/>
    <path id="color11" d="m283.039 862.26c-1.57 2.96 3.33.19 0 0zm-28.449 31.679c-.36 8.93.439 18.481 5.109 26.321 5.7 9.73 21.291 10.469 28.231 1.769 3.13-4.03 4.25-9.208 3.91-14.228-.57 6.25-3.75 12.888-10.18 14.818-7.07 2.17-17.061 2.141-21.121-5.219-3.73-7.22-5.489-15.381-5.949-23.461zm87.721 56.862c-.12 4.81-.882 9.758.388 14.478 1.35 3.72 5.841 4.191 9.221 4.621 8.31.87 16.7 1.85 25.06 1.36 4.9-.48 4.861-6.781 5.231-10.471-.83 2.5-1.901 5.83-5.221 5.49-9.89.19-19.87-.178-29.65-1.728-6.65-.8-4.379-9.09-5.029-13.75z" fill="#504137"/>
  </g>
</svg>
