<svg height="1080" width="1920" xmlns="http://www.w3.org/2000/svg">
  <path id="background" d="m0 0h1920v1080h-1920z" fill="#e8e5f6"/>
  <g id="transform" transform="translate(0,0) scale(1.00)">
    <path id="color1" d="m .169922 0c-.04.04-.129922.129688-.169922.179688v1079.820312h1315.27c-6.49-19.19-11.49-38.88-15.65-58.69l2.04-.8c-2.52-1-4.95-2.36-6.69-4.46-3.81-1.23-9.98-.44-10.32-5.88-4.11-5.93-15.08 1.67-18.32-5.36.01-28.659-.95-57.37-4.36-85.83-3.37-42.87-2.91-85.939-2.56-128.929-2.6-1.21-7.4-2.081-6.5-5.951 2.63-14.98 3.61-30.21 6.93-45.08 1.13-4.27-.22-9.511 3.46-12.731-2.38-3.31-.4-8.139 2.15-10.869.19-12.64 4.86-24.68 6.83-37.08 2.48-12.21 8.08-24.54 5.16-37.11-3.22-19.58-.77-39.49-1.73-59.22 2.38-26.27 7.47-52.531 6.5-78.891-5.87 12.65-11.37 25.541-14.96 39.051-3.1 9.02-.16 18.799 3.85 27.029-4.4 1.57-5.32-6.409-7.75-9.189-2.83 4.99-.87 10.811-1.61 16.201-1-6.24-1.68-12.811-1.93-19.201 4.42-27.56 14.26-53.919 25.91-79.209 1.41-2.53.66-5.481 1.22-8.211-.45-12.72 1.64-28.5 14.42-34.76 1.5-5.95-4.61-9.569-6.97-14.279-9.14-20.76-9-43.91-12-65.92-10.92-15.32-19.5-32.101-28.18-48.731-2.17 14.42 4.73 28.481 3.98 42.661-10.26-16-15.4-34.361-19.87-52.651-.94 14.17.12 28.271 2.61 42.221-7.17-11.43-6.92-25.371-9.36-38.151-1.57 10.03.67 20.74-.91 31.01-4.72-8.57-5.35-18.491-6.76-27.961-2.04-10.24-.05-20.689-.97-31.029-.73-4.47 1.4-8.701 1.16-13.131-6.82 12.22-8.28 26.791-11.78 40.221-1.38-20.82 5.39-41.269 10.85-61.039-8.24 4.39-15.56 10.669-24.48 13.689 2.46-3.53 6.27-5.781 9.15-8.951 14.78-13.07 26.85-28.849 37.85-45.139 7.08-10.76 17.36-18.8 27.37-26.66 20.5-13.85 43.7-25.71 68.99-26.09 15.11-.6 30.05 2.999 44.32 7.719 11.75 2.19 23.52 5.671 33.45 12.531 5.27 4.41 10.21 9.219 15.24 13.889 13.15 8.13 23.58 20.171 31.33 33.441 14.4 34.2 19.78 72.22 40.64 103.52 15.39 25.87 36.88 47.27 54.54 71.51 7.43 8.68 13.33 18.539 20.79 27.189 4.79 5.83 8.31 13.011 14.85 17.151 15.29 9.78 31.42 18.339 48.43 24.689 2.49 1.09 5.95.971 7.49 3.561-5.26.65-10.31-3.031-15.44-1.411 6.85 5.64 13.7 11.451 18.89 18.741 11.17 11.69 16.63 27.249 23.44 41.599 2.7 7.71 4.35 15.801 4.82 23.961 1.54 12.51 2.85 26.18-1.68 38.09-.15-9.57-.54-19.361-3.76-28.461-7.08-16.87-16.05-33.119-27.63-47.359-6.15-5.08-13.47-8.81-20.75-12.01 5.09 16.82 11.35 33.45 13.71 51.01.15 7.13 7.16 10.11 11.24 14.83 5.48 5.83 12.26 10.47 16.81 17.16 11.2 15.37 18.39 34.7 17.04 53.83-6.71-22.17-19.71-42.58-38.36-56.58-3-2.05-5.56-5.04-9.28-5.73 9.36 15.32 18.27 31.35 22.32 49 .3 2.02 1.18 4.359 0 6.259-4.73-14.62-9.1-30.159-19.29-42.049 1.36 14.61 5.8 29.16 4.69 44.01-.13 8.94 1.09 19.089-3.48 27.049-5.47-28.88-17.18-56.679-34.52-80.449-1.47 3.37.81 6.961 1.24 10.381 5.11 19.73 5.3 40.209 6.91 60.189-2.47-2.4-2.28-6.089-3.09-9.189-2.12-11.36-6.75-21.981-11.31-32.471-.77-2.05-2.17 1.28-1.34 2.1 3.24 12.15 2.63 24.749 2.77 37.179-1.5.52-2.17-1.708-2.17-2.808.23-11.96-2.72-23.801-6.77-34.991-1.46-3.44-2.44-7.461-5.61-9.781-1.63 2.76-2.63 6.122-5.54 7.862 1.26-4.73 5.82-9.251 3.36-14.391-4.15-6.94-10.37-12.311-16.04-17.971-2-1.95-3.87-4.34-6.75-4.91 2.49 16.51 8.93 32.17 14.99 47.66 2.73 7.88 8.12 14.551 10.53 22.571-14.65-13.11-22.6-31.729-30.86-49.139 1.38 30.27 7.64 60.739 18.84 89.019-9.29-5.02-15.07-14.499-20.83-23.009-5.8-8.09-8.74-17.791-14.22-25.991.84 13.54 4.29 27.411 0 40.731-3.73-17.39-8.58-35.351-19.74-49.631.64 8.4-2.63 16.53-1.09 24.93.09 6.7 5.37 11.46 7.63 17.41-4.7-2.26-6.5-7.689-10.86-10.369 3.69 8.87 8.64 17.219 13.96 25.209-5.68-1.16-9.21-6.18-13.15-9.95-7.7-7.69-13.02-17.261-18.36-26.621-.86 10.17 2.5 20.221 2.9 30.411.33 10.41 6.25 19.31 10.09 28.66 1.68 7.62 1.94 15.479 2.04 23.259 3.15 22.63 7.73 45.041 10.56 67.721 5.36.3 11.83 1.89 14.06 7.41 3.84 11.61 2.56 24.07 4.99 35.95.67 3.34 2.17 6.549 2.17 10.009-.99 2.83-3.12 5.122-4.36 7.862 21.82 19.22 43.6 38.519 63.69 59.589 2.03 2.69 6.27 4.59 6.27 8.28-3.21 4.33-7.7 7.5-11.1 11.67 2.41 2.97-.11 6.601-3 8.031-2.85 1.16-2.95 5.089-5.91 5.969-3.42.81-4.52 4.34-6.74 6.59-2.5.77-5.43.86-6.77 3.48-2.36 4.14-9.02 1.519-10.64 6.369-1.36 4.21-7.84 1.951-8.89 6.121-1.26 4.84-7.36 4.391-11.28 4.141-.42 6.52-8.46 5.33-10.45 10.92-6.23-.04-10.52 4.85-16.63 5.34-1.45 2.3-7.76 7.508-7.96 2.478-3.78 1.96-8.77 6.66-12.05 1.42-4.16-.33-8.43 3.611-8 8.211-16.42 7.57-34.26 11.64-51.71 16.11.46.27 1.38.8 1.84 1.06.88 13.72-.68 27.57 1.07 41.26-.34 9.08 3.82 17.32 5.47 26.07h465.95v-1080zm1298.110078 376.029c-1.01 4.59-.31 9.521 2.32 13.461.68 1.44 2.44 3.821.42 4.981-2.8-3.28-4.23-7.6-7.6-10.41-1.81 12.29 2.18 24.639 8.6 35.009 1.47 1.98 3.07 4.321 5.64 4.901-.25-4.24.46-8.35 2.33-12.17 1.37-12.78-2.89-26.402-11.71-35.772zm19.66 39.75c-1.52 3.61-.92 7.672-2.23 11.352 2.74-1.82 5.4-3.771 7.95-5.871-2.78-.75-4.01-3.471-5.72-5.481zm301.98 55.951l-.53.59c-.02 4.1 4.56 8.679 8.43 10.879 3.25 1.38 5.34 5.591 9.28 4.891-4.78-6.29-11.42-10.98-17.18-16.36zm5.17 32.53c1.16 7.62 5.25 15.39 5.15 23.41 2.73 4 .31 9.61 4.07 13 2.86 2.5 5.6 5.19 8.71 7.41 1.25-4.45-1.67-8.39-2.53-12.6-1.14-5.12-2.05-10.48-5.21-14.82-3.42-5.34-5.4-12.39-10.19-16.4zm-248.81 517.71c-1.65.09-3.23.43-4.81.77 2.93 19.13 5.86 38.26 9.57 57.26h7.51c-4.56-19.21-9.4-38.45-12.27-58.03z" fill="#b8b5c8"/>
    <path id="color2" d="m1292.03 248.85c-1.27-.083-2.38.524-2.25 2.189h.01c.24 12.45 4.52 24.502 5.9 36.842-3.74.1-4-5.361-7.79-5.281 1.27 9.25 4.21 18.21 7.38 26.97.62 1.1-.05 2.16-.48 3.18-4.17-6.84-9.75-12.66-14.01-19.43-1.89-2.94-3.67-6.199-6.97-7.759-.23 8.04 3.03 15.739 4.95 23.459-4.81-5.02-4.92-14.06-10.89-17.43-.01 15.94 8.56 29.94 10.89 45.4.5 3.44 3.99 5.45 5.64 8.09-4.03 2.28-2.87 6.72.19 9.25 5.84 10.04 15.15 17.641 25.59 22.561 8.22 3.36 15.53 8.519 23.28 12.759 6.15 2.95 11.62-4.1 17.52-2.91 1.15 3.57 3.84 8.14.19 11.17 1.9.89 3.65 2.54 5.87 2.5 13.01-4.56 24.8-11.781 37.06-18.051-.34-5.78 2.99-10.818 3.34-16.478-2.46 1-4.84 2.169-7.37 2.939 3.5-9.17 9.22-18.041 8.88-28.201-4.87-1.72-.72-7.149-.92-10.709.29-11.74 1.67-24.07-2.55-35.31-7.96-4.52-16.01-9.101-22.74-15.401-3.62-2.64-6.49-6.679-11.1-7.619.99 5.95 5.92 10.01 8.19 15.4 1.98 4.87 4.72 9.359 7.03 14.059-6.33-3.32-9.31-11.249-16.19-13.439.55 6.11 4.82 11.141 5.32 17.291-5.42-4.61-9.15-10.851-14.2-15.801-4.2-1.73-.68 4.01-.1 6-7.74-5.79-11.78-15.36-18.97-21.57 1.11 10.56 7.79 19.839 9.1 30.419-2.84-1.05-6.44-5.869-8.74-2.449-6.89-4.36-10.82-12.73-18.33-15.91.73 2.77 1.73 5.48 2.08 8.35-3.3-.09-4.11-3.801-5.6-6.061-7.22-11.44-11.59-24.388-16.04-37.068-.49-1.095-1.9-1.869-3.17-1.951zm137.95 27.884c-.3.023-.62.071-.94.147-3.47 11.6.16 24.399-1.9 36.349-.29 2.25-2.52 5.23-.13 7 2.3-.85 4.81-1.819 6.42-3.769 4.94-9.5 6.08-20.562 4.31-31.022-1.15-3.693-3.24-9.047-7.76-8.705zm-25.7 86.295c-2.77 5-6.38 10.42-5.23 16.42 3.42-1.43 6.74-3.139 9.67-5.439-.55-3.59-.65-10.211-4.44-10.981zm76.55 491.731c7.3 10.17 9.8 24.529 21.46 31.029 5.07 1.7 7.49 6.482 10.55 10.422 2.98 4.25 10.27-.622 7.94-5.092-2.46-8.93-6.36-17.579-6.46-27.019.3-4.79-5.28-3.351-8.35-4.231-8.59-.67-16.65-4.219-25.14-5.109zm50.54 5.269c-3.46-.147-6.91 1.461-10.4 1.461 2.42 9.15 6.78 17.629 12.16 25.379 1.55 2.29 4.19 3.621 7 3.291-1.2-10.23-6.84-19.499-7.27-29.949-.5-.103-.99-.161-1.49-.182zm-101.81 150.721c-1.26.05-2.52.28-3.78.83v-.03c-5.72-.28-4.11 8.29-9.51 7.86-13.32.98-26.65 1.95-39.99 2.53 2.87 19.58 7.71 38.82 12.27 58.03h65.5c-1.65-8.75-5.81-16.99-5.47-26.07-1.75-13.69-.19-27.54-1.07-41.26-.46-.26-1.38-.79-1.84-1.06-5.22 2.33-10.64-1.05-16.11-.83zm-91.59 8.17c-4.39-.17-8.48 2.65-12.97 2.14-7.79-.37-15.63.43-23.37-.55l-2.04.8c4.16 19.81 9.16 39.5 15.65 58.69h65.8c-3.71-19-6.64-38.13-9.57-57.26-6.48.46-12.98.1-19.46.34-4.55.53-7.88-3.21-12.14-3.89-.64-.17-1.27-.25-1.9-.27z" fill="#fef6eb"/>
    <path id="color3" d="m1408.72 374.01c-2.93 2.3-6.25 4.009-9.67 5.439.04 2.97.78 7.11-2.03 9-1.38-1.82-2.2-3.96-2.92-6.09-12.26 6.27-24.05 13.491-37.06 18.051-2.22.04-3.97-1.61-5.87-2.5-3.14 2.16-7.51 3.259-9 7.119-4.24 12.15-8.34 24.372-11.45 36.862.93 4.08 3.14 1.619 4.54-.731-2.57-6.2.32-13.001 3.52-18.381 2.7-4.97 11.4-3.109 11.99 2.451.9 6.23-.16 13.131-3.91 18.331 1.11 3.37 4.04 5.498 6.64 7.718 16.02-22.17 34.96-41.989 53.9-61.619 1.6-5.07 1.47-10.41 1.32-15.65zm-65.66 72.64c-3.06 4.17.74 11.881 2.64 15.231 1.4-1.98 2.81-3.96 4.26-5.91 1.2-4.27-4.07-7.051-6.9-9.321zm-5.87 1.112c-.42-.071-.9.223-1.4 1.078h-.03c-2.62 11.14-7.77 21.54-9.62 32.82-.15 2.86-.18 5.74.1 8.6 4.97-6.22 8.73-13.33 13.41-19.77 1.18-5.79-.98-11.64-.48-17.51.12-1.507-.71-5.006-1.98-5.218zm268.51 478.668c-3.91 4.17-7.55 8.66-11.94 12.32-3.31-1.06-5.66-3.831-8.79-5.221-.9 2.99-1.13 6.541-4.17 8.231-20.43 15.64-41.07 31.209-63.37 44.109.2 5.03 6.51-.178 7.96-2.478 6.11-.49 10.4-5.38 16.63-5.34 1.99-5.59 10.03-4.4 10.45-10.92 3.92.25 10.02.699 11.28-4.141 1.05-4.17 7.53-1.911 8.89-6.121 1.62-4.85 8.28-2.229 10.64-6.369 1.34-2.62 4.27-2.71 6.77-3.48 2.22-2.25 3.32-5.78 6.74-6.59 2.96-.88 3.06-4.809 5.91-5.969 2.89-1.43 5.41-5.061 3-8.031z" fill="#fff"/>
    <path id="color4" d="m1407.4 389.66c-18.94 19.63-37.88 39.449-53.9 61.619 2.64 2.47 4.89 6.09 8.93 6.17 11.89-2.91 24.14-4.95 35.48-9.66 3.95-5.56 6.39-12.059 9.84-17.939 2.18-5.38.72-11.26.94-16.87-.47-7.77.15-15.64-1.29-23.32zm16.65 1.199c-1.5 5.34-1.67 10.942-1.95 16.452 2.56-2.44 4.88-5.111 7.29-7.711.41-3.67-2.6-6.771-5.34-8.741zm-81.88 14.17c-5.45 6.18-12.23 10.971-18.51 16.231-2.55 2.1-5.21 4.051-7.95 5.871-3.05 4.49-3.17 10.17-5.64 14.93-.86 2.21-2.84 4.339-2.11 6.859 4.05 2.17 7.94 4.641 11.7 7.301 2.97-5.37 9.23-8.34 11.06-14.33 3.11-12.49 7.21-24.712 11.45-36.862zm-9.95 41.532l-.92.609c-7.46 6.69-13.94 14.619-19.22 23.119-3.74 5.1 1.09 11.211 4.73 14.721 3.38-9 6.37-18.17 10.17-27.01 1.83-3.76 4.59-7.209 5.24-11.439zm19.62 8.41c-.67-.002-1.32.292-1.88 1-1.45 1.95-2.86 3.93-4.26 5.91 1.79 6.43 4.93 13.468 9.28 18.408 5.16-1.97 10.06-4.588 15.39-6.158-4.35-5.22-9.55-9.972-14.66-14.442.23-2.062-1.87-4.715-3.87-4.718zm-39.23 10.029c-2.44 1.02-6.71 2.239-4.54 5.689 1.76-1.68 3.28-3.589 4.54-5.689zm31.24.4c-.03 6.67.79 13.389 2.39 19.879 1.93-1.16 3.79-2.439 5.72-3.599-2.69-5.43-4.78-11.26-8.11-16.28zm-4.2 5.09c0 .011 0 .023.01.033 0-.011.01-.022.02-.033zm.01.033c-4.67 6.432-8.43 13.527-13.39 19.737-.31-2.86-.28-5.74-.1-8.6-2.9 3.3-3.34 7.78-4.42 11.86 1.33 1.39 2.67 2.809 4.22 4.009 4.98-2.57 9.25-6.33 14.24-8.92 2.36-5.719.61-12.234-.55-18.086zm-3.6 58.608c-.17 2.17-.14 4.369.3 6.519 5.78 1.46 11.81 1.01 17.73 1.19-.62-2.23-1.2-4.47-2.07-6.6-5.33-.24-10.63-.909-15.96-1.109zm22.21.988c-.03 2.11.11 4.21.22 6.33 9.71 1.21 19.58-.039 29.21-1.449-.14-1.63-.48-3.239-.94-4.779-9.49-.19-19.01.708-28.49-.102zm-82.39 177.07c-3.86 2.25-6.95 5.531-10.46 8.231h.04c-2.55 2.73-4.53 7.559-2.15 10.869 3.73-4.61 8.56-8.119 12.57-12.449 1.97-1.78.61-4.551 0-6.651zm67.47 3.123c-.3.025-.61.076-.9.149-2.44 1.67-1.51 5.128.95 6.228 17.27 10.55 35 20.331 52.65 30.241 3.01 2.74 7.83-4.039 3.39-5.289-17.71-10.41-35.75-20.252-53.44-30.692-.79-.547-1.73-.711-2.65-.637zm186.63 75.348c.9 6.52 2.83 12.85 3.92 19.33.5 3.24-3.64 3.94-5.99 4.26-20.49 2.21-41.5-1.53-60.26-9.93-3.12-.94-2.69-4.7-3.4-7.22-6.45.27-6.01 7.47-4.85 12-.18 9.73 3.17 18.92 5.2 28.31 2.26 4.76 1.29 10.459 3.89 15.039 3.55 3.15 7.43 6.671 12.34 7.311 8.49.89 16.55 4.439 25.14 5.109 3.07.88 8.65-.559 8.35 4.231 2.08-1.16 4.22-2.4 6.65-2.61 3.99 0 7.92-2.099 11.89-1.279 5-4.04 9.54-8.67 13.98-13.32 1.24-2.74 3.37-5.032 4.36-7.862-.03-3.46-1.5-6.669-2.17-10.009-2.43-11.88-1.15-24.34-4.99-35.95-2.23-5.52-8.7-7.11-14.06-7.41zm12.76 21.51c2.67.92 3.07 4.161 3.07 6.631-4.6 1.32-5.86-3.771-3.07-6.631zm-38.29 11.902c3 .2 5.77 3.92 2.59 6.008-3.67 3.07-9.79-2.899-4.64-5.519.65-.392 1.35-.535 2.05-.489z" fill="#63536d"/>
    <path id="color5" d="m1429.39 399.6c-2.41 2.6-4.73 5.271-7.29 7.711h-.04c-2.65 5.53-1.07 11.799-1.38 17.689-2.22 27.03-1.84 54.709 5.08 81.109 2.16 14.7 8.02 28.44 12.19 42.68-7.52-8.32-10-19.448-14.07-29.578-7.49-21.63-12.37-44.261-12.78-67.201-1.69-7.37.9-15.48-3.39-22.16-3.45 5.88-5.89 12.379-9.84 17.939-11.34 4.71-23.59 6.75-35.48 9.66 1.09 5.86 8.22 6.442 10.25 11.762 5.33 6.11.37 14.35-4.28 19.18-2.57 2.06-3.12 6.56-6.4 7.41-5.66-2.46-8.13-8.651-10.04-14.121-1.93 1.16-3.79 2.439-5.72 3.599.95 7.15 1.12 14.541 3.92 21.301 2.34 7.86 2.69 17.079 8.11 23.539 9.48.81 19-.088 28.49.102.46 1.54.8 3.149.94 4.779-9.63 1.41-19.5 2.659-29.21 1.449-.55 3.19 1.57 6.281 2.69 9.281 2.46 4.82 2.31 10.431 4.59 15.321.93 2.47 2.53 8.3-1.96 6.5-3.91-10.01-5.28-20.841-9.72-30.711-5.92-.18-11.95.27-17.73-1.19-.44-2.15-.47-4.349-.3-6.519 5.33.2 10.63.869 15.96 1.109-2.66-6.92-6.39-13.539-7.22-21.029-.72-6.81-4.78-13.32-2.67-20.24l-1.92-.362c-4.99 2.59-9.26 6.35-14.24 8.92-1.55-1.2-2.89-2.619-4.22-4.009-1.46 1.67-4.11 2.899-3.97 5.429-1.23 19.65-2.8 39.321-1.86 59.041.53 3.11 1.66 9.86-3.46 8.75-.52-23.96-.44-47.96 2.71-71.74 2.06-7.79-8.57-10.111-9.8-16.961.55-2.57 1.73-4.93 2.7-7.35-2.17-3.45 2.1-4.669 4.54-5.689 2.55-2.75 4.99-5.619 7.05-8.779-3.76-2.66-7.65-5.131-11.7-7.301.8 2.78-2.32 4.56-3.11 6.99-3.15 7.8-6.39 15.69-11.55 22.43-4.37 7.93-6.88 16.759-11.12 24.779.97 26.36-4.12 52.621-6.5 78.891.96 19.73-1.49 39.64 1.73 59.22 2.92 12.57-2.68 24.9-5.16 37.11-1.97 12.4-6.64 24.44-6.83 37.08 3.51-2.7 6.6-5.981 10.46-8.231.65 2.1 2.01 4.871 0 6.651-4.01 4.33-8.84 7.839-12.57 12.449-3.68 3.22-2.33 8.461-3.46 12.731-3.32 14.87-4.3 30.1-6.93 45.08-.9 3.87 3.9 4.741 6.5 5.951 8.56 2.54 17.28 5.069 26.19 5.769 3.87-4.32 5.01-10.43 8.93-14.64 5.15 4.75 8.4 11.14 13.15 16.24 6.28 2.66 13.35 2.44 19.95 3.99 18.62 2.02 37.41 3.95 56.14 2.35 26.84-4.81 53.55-11.17 78.84-21.51.91 3.21 1.26 6.54 1.67 9.85.71 2.52.28 6.28 3.4 7.22 18.76 8.4 39.77 12.14 60.26 9.93 2.35-.32 6.49-1.02 5.99-4.26-1.09-6.48-3.02-12.81-3.92-19.33-2.83-22.68-7.41-45.091-10.56-67.721-.1-7.78-.36-15.639-2.04-23.259-3.84-9.35-9.76-18.25-10.09-28.66-.4-10.19-3.76-20.241-2.9-30.411-.72-7.97-4.07-15.519-3.05-23.619-3.27-12.38-2.09-25.391-3.79-38.051-.23-8.99-1.34-17.93-1.46-26.91-2.72-6.76-1.19-14.08-2.54-21.09-.52-22.2-5.17-44.069-11.05-65.349-10.59-16.38-26-28.73-38.74-43.32-5.53-5.29-7.73-13.52-14.37-17.67zm-128.06 35.23c-12.78 6.26-14.87 22.04-14.42 34.76 6.17-2.49 6.34-10.18 9.6-15.18 2.1-6.33 7.03-12.67 4.82-19.58zm69.04 39.301c-5.33 1.57-10.23 4.188-15.39 6.158.8 3.16 2.85 7.461 6.8 6.811 4.8-.64 3.53-7.849 8.39-8.299.2-1.55.2-3.11.2-4.67zm-65.54 105.226c2-.086 2.65 3.79 1.05 4.512-2.75 2.28-3.73-3.449-1.47-4.439.15-.043.28-.067.42-.073zm-.87 51.245c2.2.386 2.97 7.617-.85 7.148-3.13-.92-2.38-6.111.39-7.131.16-.039.31-.043.46-.017zm-5.46 55.578c3.06.45 4.96 5.93.92 6.24-3.88 1.77-1.98-4.38-.92-6.24zm44.81 24.132c.92-.074 1.86.09 2.65.637 17.69 10.44 35.73 20.282 53.44 30.692 4.44 1.25-.38 8.029-3.39 5.289-17.65-9.91-35.38-19.691-52.65-30.241-2.46-1.1-3.39-4.558-.95-6.228.29-.073.59-.124.9-.149zm-51.89 29.108c3.73.03 2.63 6.91.54 8.23-2.03-1.49-2.73-6.3-.54-8.23z" fill="#eddecb"/>
    <path id="color6" d="m1343.61 419.904c-1.96.108-3.82 1.012-4.83 2.875-3.2 5.38-6.09 12.181-3.52 18.381 2.99 3.42 7.5 4.891 11.6 2.401 3.75-5.2 4.81-12.101 3.91-18.331-.37-3.475-3.9-5.505-7.16-5.326z" fill="#7b5c59"/>
    <path id="color7" d="m1335.26 441.16c-1.4 2.35-3.61 4.811-4.54.731-1.83 5.99-8.09 8.96-11.06 14.33-2.06 3.16-4.5 6.029-7.05 8.779-1.26 2.1-2.78 4.009-4.54 5.689-.97 2.42-2.15 4.78-2.7 7.35 1.23 6.85 11.86 9.171 9.8 16.961-3.15 23.78-3.23 47.78-2.71 71.74 5.12 1.11 3.99-5.64 3.46-8.75-.94-19.72.63-39.391 1.86-59.041-.14-2.53 2.51-3.759 3.97-5.429 1.08-4.08 1.52-8.56 4.42-11.86 1.85-11.28 7-21.68 9.62-32.82 2.01-3.42 3.54 2.13 3.38 4.14-.5 5.87 1.66 11.72.48 17.51 1.16 5.86 2.92 12.389.56 18.119l1.92.362c-2.11 6.92 1.95 13.43 2.67 20.24.83 7.49 4.56 14.109 7.22 21.029.87 2.13 1.45 4.37 2.07 6.6 4.44 9.87 5.81 20.701 9.72 30.711 4.49 1.8 2.89-4.03 1.96-6.5-2.28-4.89-2.13-10.501-4.59-15.321-1.12-3-3.24-6.091-2.69-9.281-.11-2.12-.22-4.22-.22-6.33-5.42-6.46-5.77-15.679-8.11-23.539-2.8-6.76-2.97-14.151-3.92-21.301-1.6-6.49-2.39-13.209-2.39-19.879 3.33 5.02 5.42 10.85 8.11 16.28 1.91 5.47 4.38 11.661 10.04 14.121 3.28-.85 3.83-5.35 6.4-7.41 4.65-4.83 9.61-13.07 4.28-19.18-2.03-5.32-9.16-5.902-10.25-11.762-4.04-.08-6.29-3.7-8.93-6.17-2.6-2.22-5.53-4.348-6.64-7.718-4.1 2.49-8.61 1.019-11.6-2.401zm-3.04 5.401c-.65 4.23-3.41 7.679-5.24 11.439-3.8 8.84-6.79 18.01-10.17 27.01-3.64-3.51-8.47-9.621-4.73-14.721 5.28-8.5 11.76-16.429 19.22-23.119zm10.84.089c2.83 2.27 8.1 5.051 6.9 9.321 2.22-2.83 6.05.968 5.75 3.718 5.11 4.47 10.31 9.222 14.66 14.442.04 1.56-.02 3.12-.2 4.67-4.86.45-3.59 7.659-8.39 8.299-3.95.65-6-3.651-6.8-6.811-4.35-4.94-7.49-11.978-9.28-18.408-1.9-3.35-5.7-11.061-2.64-15.231zm-38.19 132.707c-.14.006-.28.03-.42.073-2.26.99-1.28 6.719 1.47 4.439 1.6-.722.95-4.598-1.05-4.512zm-.87 51.245c-.15-.026-.3-.022-.46.017-2.77 1.02-3.52 6.211-.39 7.131 3.83.469 3.05-6.762.85-7.148zm-5.46 55.578c-1.06 1.86-2.96 8.01.92 6.24 4.04-.31 2.14-5.79-.92-6.24zm-7.08 53.24c-2.19 1.93-1.49 6.74.54 8.23 2.09-1.32 3.19-8.2-.54-8.23zm251.28 67.75c-2.79 2.86-1.53 7.951 3.07 6.631.05-2.47-.4-5.711-3.07-6.631zm-38.29 11.902c-.7-.046-1.4.097-2.05.489-5.15 2.62.97 8.589 4.64 5.519 3.18-2.088.41-5.808-2.59-6.008z" fill="#e3d8ab"/>
    <path id="color8" d="m1294.5 781.18c-3.92 4.21-5.06 10.32-8.93 14.64v.03c-8.91-.7-17.63-3.23-26.19-5.77-.35 42.99-.81 86.06 2.56 128.93 3.41 28.46 4.36 57.17 4.36 85.83 3.24 7.03 14.21-.57 18.32 5.36.34 5.44 6.51 4.65 10.32 5.88 1.74 2.1 4.17 3.46 6.69 4.46 7.74.98 15.58.18 23.37.55 5.13.58 9.74-3.19 14.87-1.87 4.26.68 7.59 4.42 12.14 3.89 6.48-.24 12.98.12 19.46-.34 1.58-.34 3.16-.67 4.81-.77 13.34-.58 26.67-1.55 39.99-2.53 5.4.43 3.79-8.14 9.51-7.86 6.73-2.94 13.47 2.84 19.89 0 17.45-4.47 35.29-8.54 51.71-16.11-.43-4.6 3.84-8.541 8-8.211 3.28 5.24 8.27.54 12.05-1.42 22.3-12.9 42.94-28.469 63.37-44.109 3.04-1.69 3.27-5.241 4.17-8.231 3.13 1.39 5.48 4.161 8.79 5.221 4.39-3.66 8.03-8.15 11.94-12.32 3.4-4.17 7.89-7.34 11.1-11.67.03-3.69-4.24-5.59-6.27-8.28-20.09-21.07-41.87-40.369-63.69-59.589-4.44 4.65-8.98 9.28-13.98 13.32.43 10.45 6.07 19.719 7.27 29.949-2.81.33-5.45-1.001-7-3.291-5.38-7.75-9.74-16.229-12.16-25.379-2.43.21-4.57 1.45-6.65 2.61.09 9.44 4 18.089 6.46 27.019 2.33 4.47-4.96 9.342-7.94 5.092-3.06-3.94-5.48-8.722-10.55-10.422-11.66-6.5-14.16-20.859-21.46-31.029-4.91-.64-8.79-4.161-12.34-7.311-2.6-4.58-1.63-10.279-3.89-15.039-2.03-9.39-5.38-18.58-5.2-28.31-1.16-4.53-1.6-11.73 4.85-12-.41-3.31-.76-6.64-1.67-9.85-25.29 10.34-52 16.7-78.84 21.51-18.73 1.6-37.52-.33-56.14-2.35-6.6-1.55-13.67-1.33-19.95-3.99-4.75-5.1-8-11.49-13.15-16.24z" fill="#5f4d59"/>
  </g>
</svg>
