<svg height="1080" width="1920" xmlns="http://www.w3.org/2000/svg">
  <path id="background" d="m0 0h1920v1080h-1920z" fill="#7c90c2"/>
  <g id="transform" transform="translate(0,0) scale(1.00)">
    <path id="color1" d="m1454.71 66.5508c-.06 5.52 3.74 10.2497 9.18 11.2597-6.91 6-13.51 12.83-16.44 21.75-9.29 21.1805-10.91 46.4395-28.29 63.3495 4.69-1.02 9.3-2.46 13.83-4.07 4.39-1.54 8.38-3.931 12.19-6.561-.66 5.04-3.48 9.41-4.55 14.33 3.61-2.59 5.97-6.399 7.98-10.289.98 11.01 7.34 21.29 4.22 32.51-.28 9.52-3.76 18.601-7.9 27.051-3.44 5.96-5.76 12.569-10.23 17.889-7.48 10.38-13.75 23.501-10.21 36.541 2.48 5.34 4.46 12.339 10.79 14.199-.71-4.55-2.8-9.13-1.47-13.77 3.11-14.26 14.87-23.981 22.14-36.041 3.83-4.89 7.24-10.17 9.27-16.09.21-3.33.95-6.659 3.02-9.359 4.12-5.81 5.58-12.931 6.32-19.881-7.06-5.8-11.18-14.079-17.08-20.859.2-5.24 1.97-10.331 3.02-15.471 2.1 2.76 3.1 6.261 5.62 8.721-.82-8.9-3.34-17.96-1.14-26.86 2.93-8.5 7.92-16.089 12.77-23.589 3.07 9.88 4.43 22.089 13.66 28.369-2.52-9.04-6.48-18.05-5.1-27.67 7.65 10.89 13.6 22.939 18.97 35.099 5.14-8.02 2.35-19.67 3.01-29.17 4.01 6.16 6.51 13.101 9.63 19.711.98-6.18.09-12.411-.9-18.531 5.49 6.05 14.52 9.261 16.7 17.901.44 10.36-3.76 20.32-8.03 29.56 5.03-1.44 6.27-7.399 8.98-11.269 1.33 5.57 3.04 11.45 1.68 17.16-2.85 6.79-8.65 11.699-13.67 16.859 3.35 11.55 6.87 24.389 3.35 36.199-3.78 8.55-7.67 17.261-8.42 26.701-.8 5.65-1.55 11.391-.7 17.081 4.13-.29 1.83-7.421 4.58-10.321 2.03 7.69 3.55 17.06 10.75 21.69-2.32-12.43-.39-24.889 3.96-36.629.26-5.55 6.06-7.651 7.19-12.811-3.4.02-1.35-3.17-1.04-5.06 4.21-13.36 7.03-27.48 4.89-41.51 10.78 13.8 12.16 32.9 7.08 49.24.35.17 1.07.5 1.43.66 7.09-17.27 3.2-37.14-4.84-53.41.99.47 1.99.991 3.01 1.471-3.19-6.42-3.19-13.681-3.85-20.651 5.08 7.3 11.59 14.039 20.06 17.299-6.03-10.04-9.55-21.659-9.2-33.429 1.67 2.05 3.17 4.261 4.99 6.211-.4-4.74-2.25-9.172-3.32-13.772-4.03-14.8-4.41-30.859-12.54-44.3085-13.88-24.89-48.09-33.2697-73.43-22.4297-7.51 3.56-17.19 2.29-21.92-5zm168.84 871.6482c-3.39 3.6-5.37 8.151-7.92 12.301-4.09-3.45-7.89-8.31-13.61-8.75-5.25 2.34-7.5 8.19-9.38 13.23-.27 2.34 4.62 9.249 5.45 4.629 1.26-4.35 3.87-9.639 8.95-10.109 5.21 1.23 6.87 6.661 8.04 11.221 3.52-6.14 6.51-12.632 11.22-18.022 1.41.72 2.7 1.661 4.04 2.571-.85-3.36-3.54-6.041-6.79-7.071zm-196.61 9.295c-.6.012-1.22.06-1.84.147-4.8 1.21-2.92 7.27-2.8 10.82 1.43-2.17 3.29-5.381 6.42-4.061 8.54 2.76 14.23 10.4 19.58 17.17.64-1.54 1.3-3.08 1.99-4.58 2.21-4.94 5.45-9.651 9.92-12.791 1.25.55 2.4 1.301 3.59 2.041.31-.65.92-1.949 1.23-2.599-.68-1.61-1.29-3.231-1.81-4.881-8.19-3.68-13.17 6.709-15.73 12.849-5.34-6.328-11.56-14.29-20.55-14.115z" fill="#f2f3f1"/>
    <path id="color2" d="m1477.75 111.311c-4.85 7.5-9.84 15.089-12.77 23.589-2.2 8.9.32 17.96 1.14 26.86-2.52-2.46-3.52-5.961-5.62-8.721-1.05 5.14-2.82 10.231-3.02 15.471 5.9 6.78 10.02 15.059 17.08 20.859 4.88 2.85 3.72 8.871 3.82 13.641.41 7.57-4.47 16.619-13.16 15.599-2.03 5.92-5.44 11.2-9.27 16.09 5.83 9.99 17.62 13.701 27.69 17.711 1.74 5.54 1.86 12.111 5.95 16.901 3.8-3.99 6.27-8.95 9.51-13.35 6.06-1.53 12.7-.931 18.51-3.731.75-9.44 4.64-18.151 8.42-26.701-5.68-4.03-9.05-10.609-9.28-17.549-.29-6.5-.02-14.6 5.93-18.65 5.02-5.16 10.82-10.069 13.67-16.859 1.36-5.71-.35-11.59-1.68-17.16-2.71 3.87-3.95 9.829-8.98 11.269 4.27-9.24 8.47-19.2 8.03-29.56-2.18-8.64-11.21-11.851-16.7-17.901 1 6.12 1.88 12.351.9 18.531-3.12-6.61-5.62-13.551-9.63-19.711-.66 9.5 2.13 21.15-3.01 29.17-5.37-12.16-11.32-24.209-18.97-35.099-1.38 9.62 2.58 18.63 5.1 27.67-9.23-6.28-10.59-18.489-13.66-28.369zm-32.57 40.968c-3.81 2.63-7.8 5.021-12.19 6.561-3.23 3.5-.46 8.959-2.59 12.529-11.8 6.35-25.39 8.132-37.33 14.182 2.07 1.22 4.76 2.12 5.67 4.59 2.83 8.13 3.05 16.849 5.01 25.189 11.69-6.55 20.64-17.06 32.8-22.93 4.85-3.03 10.51-5.48 16.28-3.57 3.12-11.22-3.24-21.5-4.22-32.51-2.01 3.89-4.37 7.699-7.98 10.289 1.07-4.92 3.89-9.29 4.55-14.33zm153.96 248.065c-1.96-.063-3.94.166-5.91.726-2.35 2.1-3.04 5.41-4.37 8.17-5.94 13.73-13.97 26.61-23.44 38.16-2.41 3.85-5.45-.25-6.77-2.8-3-3.58-5.25-9.85-10.56-9.87-5.06 3.22-8.45 8.389-13.14 12.049-1.68 1.57-4.31 2.761-4.31 5.381 6.78 1.52 12.1-3.6 16.88-7.51 1.5 1 2.8 2.289 4.03 3.629-2.63 1.01-5.34 2.082-6.85 4.612-4.11 5.82-10.93 8.64-15.9 13.49 2.28 1.46 3.1 4.49 5.26 5.84 6.75.22 12.31-4.821 18.85-5.891 2.3 1.28 4.06 3.32 5.82 5.25-6.36-.48-11.91 2.74-16.85 6.33 5.01 6.31 12.42-3.52 18.79.17 9.16 1.44 12.23-8.929 16.58-14.769 12.75-13.61 25.15-27.531 37.38-41.651 1.65-2.31 5.33-4.321 4.52-7.551-3.54-7.759-11.51-13.492-20.01-13.765zm-31.63 133.256c-26 2.42-51.56 13.711-77.87 7.711 6.3 26.47 13.7 52.98 25.45 77.66 5.16 11.48 10.4 22.969 14.14 35.009 2.44 9.2 3.23 18.791 6.01 27.911 2.45 6.84 8.16 12.029 9.87 19.209 3.67 9.4 2.3 19.741 5.73 29.211 6.9 33.14 20.28 64.838 23.85 98.628.53 3.54 1.04 7.082 1.61 10.622 3.49 18.3 1.42 37.01 2.01 55.49 2.78 6.02 1.6 12.608 2.02 18.988 2.11 8.82-2.25 17.37-2.61 26.15-.38 8.78 10.15 9.591 14.92 14.791 1.88-5.04 4.13-10.89 9.38-13.23 5.72.44 9.52 5.3 13.61 8.75 2.55-4.15 4.53-8.701 7.92-12.301-4.48-12.96-5.84-26.86-11.39-39.5-11.58-39.87-7.86-81.749-8.47-122.709.49-29.56-2.88-60.851-19.69-86.051-7.52-14.59-12.9-30.539-14.26-46.959.29-10.69-1.55-21.28-.96-31.98.54-25.85-1.27-51.58-1.27-77.4zm-169.7 4.461c1.85 8.18 2.84 16.519 4.71 24.709 7.11 34.83 19.33 68.699 22.51 104.259-.72 10.84-1.7 21.921-5.7 32.141-6.72 20.88-12.16 42.891-9.43 64.961 1.85 27.56 7.76 54.609 12.88 81.689 2.95 14.19 5.55 28.67 5.28 43.19-2.21 7.85 1.27 15.52 1.55 23.32-1.56 11.78-.88 23.841-4.51 35.311 10-1.39 16.69 7.218 22.39 13.968 2.56-6.14 7.54-16.529 15.73-12.849-1.65-9-2.47-18.08-2.12-27.24-1.03-10.01-4.06-19.96-1.8-30.09 2.47-9.6-4.06-18.039-4.8-27.369-1.51-11.48-3.47-23.141-2.35-34.711-1.3-22.44 1.01-44.979 4.02-67.209 4.7-21.41 3.56-43.411 3.56-65.151-.22-4.48 2.27-8.35 3.73-12.41 3.01-8.15 3.61-16.96 3.34-25.57.18-22.69-1.15-45.56 2.77-68.01-.16-8.72 2.36-17.14 2.53-25.83 1.19-7.65-.14-15.471 1.48-23.051-7.58-2.89-15.76-.719-23.58-.449-17.47.6-34.94-1.269-52.19-3.609zm-42.99 249.035c-.21-.022-.31.194-.31.644.34 7.31.72 14.641.46 21.971 2.69-3.14 5.17-10.401 10.05-8.801-2.37-4.8-5.76-8.991-9.2-13.041-.46-.495-.79-.752-1-.773zm49.15 1.523c-5.04 3.67-8.76 8.731-12.49 13.651 8.65-1.9 10.08 7.909 12.62 13.669.07-9.11.54-18.23-.13-27.32zm222.33 154.08c-4.71 5.39-7.7 11.882-11.22 18.022-1.17-4.56-2.83-9.991-8.04-11.221-5.08.47-7.69 5.759-8.95 10.109 5.46 2.2 8.48 9.04 14.89 8.83 2.66.12 4.13-2.34 6.04-3.75 6.07 1.48 13.29.46 18.1-3.83 0-1.27-.05-2.519-.16-3.759-1.49-4.26-2.61-9.19-6.62-11.83-1.34-.91-2.63-1.851-4.04-2.571zm-199.21 11.399c-2.18.148-3.63 2.6-4.79 4.363-1.18 3.43-1.52 7.25-.4 10.76 1.37 2.38 2.03 5.67 4.46 7.17 7.25.89 13.61 5.969 21.18 4.209.62-2.98.59-6.03.76-9.03-5.35-6.77-11.04-14.41-19.58-17.17-.59-.247-1.13-.337-1.63-.302zm33.12.101c-4.47 3.14-7.71 7.851-9.92 12.791.85 4.25.39 8.611.95 12.901.35 4.62 8.29 4.99 9.32.57 1.35-3.63 1.9-7.492 3.05-11.182.44-4.33.09-8.699.19-13.039-1.19-.74-2.34-1.491-3.59-2.041z" fill="#e1bfa2"/>
    <path id="color3" d="m1387.09 183.283c-.91.028-1.8.367-2.58 1.207-8.64 8.24-21.75 9.181-30.05 17.971-10.02 7.36-16.08 18.439-24.76 27.129-2.72 4.03-8.91 7.23-7.17 12.92 2.86 5.99 9.54 8.67 14.99 11.82 9.27 3.82 19.25 6.04 29.24 6.84 4.12.14 5.77 5.88 10.24 4.67 12.74-1.8 24.28 5.719 36.95 5.189 1.02 3.13 3.12 5.231 6.28 6.221-.89 6.34-4.69 12.11-4.12 18.73-1.03 10.26 4.08 19.829 10.34 27.559 1.86 2.01-1.41 3.631-2 5.551 2.11 14.67.16 29.739-3.12 44.109-4.69 13.98-11.39 27.221-15.81 41.321-2.25 5.54-2.6 11.869-6.15 16.839-1.29 2.05-3.28 3.982-3.02 6.602.06 8.47-2.13 16.709-3.16 25.059-.23 1.48.04 4.18 2.2 3.82 3.82-.01 7.67-.199 11.49.301 23.46 4.1 46.67 10.119 70.55 11.349 21.47 1.04 43.02.26 64.45-.58 4.94-3.59 10.49-6.81 16.85-6.33-1.76-1.93-3.52-3.97-5.82-5.25-6.54 1.07-12.1 6.111-18.85 5.891-2.16-1.35-2.98-4.38-5.26-5.84 4.97-4.85 11.79-7.67 15.9-13.49 1.51-2.53 4.22-3.602 6.85-4.612-1.23-1.34-2.53-2.629-4.03-3.629-4.78 3.91-10.1 9.03-16.88 7.51.04-2.62 2.63-3.811 4.31-5.381 4.69-3.66 8.08-8.829 13.14-12.049 5.31.02 7.56 6.29 10.56 9.87-.02-9.55-3.27-18.681-5.37-27.901-2.23-9.56-7.15-18.688-6.52-28.738.67-4.54-3.77-7.661-3.95-11.941 4.15-16.38 6.32-33.21 9.52-49.77 1.58-3.43 3.59-7.9 7.64-8.75 8.2 8.64 15.49 18.2 23.47 27.09 3.92 3.51-.73 10.86 4.77 13.15 5.41 1.89 9.53 5.88 13.97 9.35-3.63 1.78-4.86 5.82-7.44 8.66-1.32 4.37.03 9.43-2.37 13.58-1.88 3.68-6.21 6.169-6.34 10.619-.42 3.38 1.44 6.361 2.83 9.291 1.33-2.76 2.02-6.07 4.37-8.17 10.49-2.99 21.56 3.489 25.92 13.039.81 3.23-2.87 5.241-4.52 7.551 4 2.47 8.6-.669 12.92.971 7.17-6.32 3.96-16.661 7.38-24.641 4.13-10.49 5.81-21.67 8.52-32.56.86-3.57.72-7.48-1.24-10.67-5.47-10.23-11.99-19.891-18.85-29.231-9.25-9.36-15.07-21.389-23.59-31.379-2.9-3.09-2.9-7.919-7.19-9.759-2.26-9.22-4.29-18.721-8.84-27.211-2.92-6.53-5.93-13.68-12.5-17.34-4.65-3.19-10.61-2.74-15.49-5.27-.36-.16-1.08-.49-1.43-.66-3.8-.19-7.3-1.73-10.93-2.67-1.13 5.16-6.93 7.261-7.19 12.811-4.35 11.74-6.28 24.199-3.96 36.629-7.2-4.63-8.72-14-10.75-21.69-2.75 2.9-.45 10.031-4.58 10.321-.85-5.69-.06-11.431.7-17.081-5.81 2.8-12.45 2.201-18.51 3.731-3.24 4.4-5.71 9.36-9.51 13.35-4.09-4.79-4.21-11.361-5.95-16.901-10.07-4.01-21.86-7.721-27.69-17.711-7.27 12.06-19.03 21.781-22.14 36.041-1.33 4.64.76 9.22 1.47 13.77-6.33-1.86-8.31-8.859-10.79-14.199-3.54-13.04 2.73-26.161 10.21-36.541 4.47-5.32 6.79-11.929 10.23-17.889-10.14-4.33-20.52 1.819-28.85 7.269-5.7 2.37-12.49-1.18-12.33-7.82-1.96-8.34-2.18-17.059-5.01-25.189-.91-2.47-3.6-3.37-5.67-4.59-1.75-.887-3.96-2.329-5.98-2.268z" fill="#f2f1dd"/>
    <path id="color4" d="m1401.13 466.799c-1.91-.014-3.83.036-5.74.041-.16 13.53-1.13 27.241-3.7 40.461 1.25 8.86 2.95 17.729 2.69 26.709-.13 2 1.78 3.351 3.43 4.051 17.25 2.34 34.72 4.209 52.19 3.609 7.82-.27 16-2.441 23.58.449 5.03-4.28-2-13.159 4.45-15.469 7.99 1.57 2.46 14.611 11.61 14.661 26.31 6 51.87-5.291 77.87-7.711 2.35-2.96.99-7.69.85-11.28-1.89-7.48.83-15.431-2-22.711-1.12-5.72-1.6-11.568-1.87-17.388-.01-2.18-2.18-3.271-3.82-4.141-6.37-3.69-13.78 6.14-18.79-.17-21.43.84-42.98 1.62-64.45.58-23.88-1.23-47.09-7.249-70.55-11.349-1.91-.25-3.83-.328-5.75-.342z" fill="#7586b4"/>
    <path id="color5" d="m1404.53 786c-5.82 4.64-12.31 9.251-16.72 15.141 1.2.35 2.37 1.069 3.67 1.129 3.73-4.92 7.45-9.981 12.49-13.651.67 9.09.23 18.21.13 27.32.19.41.56 1.221.74 1.631 2.23-10.31.3-21.12-.31-31.57zm-50.02 1.74c.07 7.96-1.89 15.939-.71 23.869.29-.48.88-1.428 1.17-1.898.26-7.33-.12-14.661-.46-21.971zm1.31.129c3.44 4.05 6.83 8.241 9.2 13.041 1.64 2.76 4.84.75 7.29.6-4.63-5.41-10.3-10.131-16.49-13.641zm155.08 32.088c-.65-.007-1.3.01-1.96.053 3.37 1.54 3.56 5.201 3.23 8.461 15.24 4.99 29.54 13.54 45.78 15.17 6.4.9 12.64-1.44 18.35-4.08-.57-3.54-1.08-7.082-1.61-10.622-10.92 7.62-25.34 5.19-36.89.43-8.71-3.74-17.17-9.3-26.9-9.412zm-119.14 22.893c4.71 3.98 10.49 6.94 15.52 10.66-3.39-5.31-9.69-8.56-15.52-10.66zm-1.86 4.939c3.91 4.1 7.13 9.141 11.52 12.611-2.65-4.97-6.24-10.291-11.52-12.611zm131.84 70.041c-2.69 5.47-9.86 11.19-15.57 6.16.36 9.61-.12 19.361-2.47 28.721-3.42 2.91-4.48 7.33-3 11.59 7.13 2.59 15.19-3.001 15.82-10.391 1.52-12.06 3.62-24.04 5.22-36.08zm-48.95.221c-3.48 2.31-7.56 3.339-11.69 3.469-.35 9.16.47 18.24 2.12 27.24.52 1.65 1.13 3.271 1.81 4.881l.55.619c2.25-12.12 11.1-23.539 7.21-36.209zm-66.86 22.789c-6.94 1.97-13.7 4.841-19.47 9.221-1.92 10.45-1.89 21.189-3.66 31.679-1.47 3.72-6.32 6.219-5.37 10.799 1.74 3.77 6.44 1.781 9.59 1.541 6.5-.1 9.23-7.261 9.23-12.791 5.3-1.81 4.68-7.85 6.83-12.09 1.79-3.76-1.71-7.369-1.48-11.199.47-5.95 4.1-11.17 4.33-17.16z" fill="#7f7566"/>
    <path id="color6" d="m1363.3 800.699c-3.78.361-5.98 6.264-8.33 9.012-.29.47-.88 1.418-1.17 1.898-4.05 6.42-5.92 13.851-9.4 20.551-.32 5.49 3.71 10.101 6.3 14.651.15.21.44.629.59.839 3.79 7.85 14.86 10.81 14.76 20.36.95 6.09 4.01 11.73 4.01 17.99-.29 12.86 4.69 25.28 10.1 36.66 3.48 3.78 7.54 7.46 8.39 12.82 6.86-4.9 14.45-10.28 23.32-9.72 2.86-2.63 1.68-8.621 4.19-11.811 4.51-.53 9.17-.149 13.55-1.619-.28-7.8-3.76-15.47-1.55-23.32.27-14.52-2.33-29-5.28-43.19-4.86 1.8-8.18-3.76-12.42-5.17-4.08-1.31-.34-5.629.18-8.269-1.79-4.98-3.83-9.871-5.7-14.811-.18-.41-.55-1.221-.74-1.631-2.54-5.76-3.97-15.569-12.62-13.669-1.3-.06-2.47-.779-3.67-1.129-5.16.39-10.35-.091-15.5.369-2.45.15-5.65 2.16-7.29-.6-.61-.2-1.18-.262-1.72-.211zm5.15 5.039c1.35-.023 2.75.161 4.19.582 8.77 3.48 15.09 10.95 21.63 17.44 2.84 4.81-.16 11.061-3.97 14.551-6.85 6.34-13.05 15.398-23.27 15.888-11.74-1.92-21.53-15.409-18-26.969l.96-2.441c1.87-8.68 8.99-18.891 18.46-19.051zm140.49 14.272c-4.75.54-8.97 4.47-13.89 2.92-14.45-3.73-30.14-1.25-42.9 6.42-1.12 11.57.84 23.231 2.35 34.711.74 9.33 7.27 17.769 4.8 27.369-2.26 10.13.77 20.08 1.8 30.09 4.13-.13 8.21-1.159 11.69-3.469.58-4.76.35-9.601 1.39-14.301 5.61 5.57 12.3 11.45 20.79 11.01 5.82-.9 8.77 5.02 11.2 9.23 5.71 5.03 12.88-.69 15.57-6.16 3.24-4.97-2.41-8.47-3.65-12.92-3.6-11.33-1.99-23.33-.27-34.83 1.15-12.86 2.07-28.14-7.89-38-2.5-1.65 1.14-2.579 2.24-3.609.33-3.26.14-6.921-3.23-8.461zm-117.18 22.84c5.83 2.1 12.13 5.35 15.52 10.66-5.03-3.72-10.81-6.68-15.52-10.66zm-1.86 4.939c5.28 2.32 8.87 7.641 11.52 12.611-4.39-3.47-7.61-8.511-11.52-12.611zm19.88 84.861c-8.28 1.79-16.11 5.28-22.42 11.02-.62-2.8-.25-6.521-3.62-7.471.61 4.67 1.86 9.232 2.72 13.862 5.77-4.38 12.53-7.251 19.47-9.221 2.35-1.94 3.09-5.33 3.85-8.19z" fill="#efecdd"/>
    <path id="color7" d="m1368.45 805.738c-9.47.16-16.59 10.371-18.46 19.051 3.32-.74 6.74-1.248 10.16-.828-.16 4.46-7.7 1.749-11.12 3.269-3.53 11.56 6.26 25.049 18 26.969 10.22-.49 16.42-9.548 23.27-15.888 3.81-3.49 6.81-9.741 3.97-14.551-6.54-6.49-12.86-13.96-21.63-17.44-1.44-.421-2.84-.605-4.19-.582zm7.86 6.951c1.38.027 2.5.427 1.94 2.42-2.1-.01-5.83 1.14-4.44-2.33.73.012 1.66-.106 2.5-.09zm-14.05.192c.94 3.68-6.96 4.78-4.22.17 1.38-.17 2.79-.22 4.22-.17zm13.41 11.789c4.64.32 13.7-1.34 14.68 4.58-4.67-1.73-9.57-2.369-14.52-2.279-.04-.58-.16-1.731-.16-2.301zm-11.04 2.023c1.59.103 2.35 1.139 1.57 3.397-2.78.74-4.15-.369-3.41-3.199.69-.163 1.31-.232 1.84-.198zm-.29 9.373c2.34.095 4.36 2.326 6.96 1.914-1.6 2.31-2.95 4.789-4.5 7.129-4.68.23-3.06-6.6-7.04-7.99 1.16-.36 2.35-.679 3.56-.949.35-.088.69-.117 1.02-.104zm15.82 86.594c.79 4.59 2.11 9.149 3.58 13.539 3.37.95 3 4.671 3.62 7.471 6.31-5.74 14.14-9.23 22.42-11.02 1.34-2.04 1.85-4.5 2.09-6.89-8.87-.56-16.46 4.82-23.32 9.72-.85-5.36-4.91-9.04-8.39-12.82z" fill="#c9b699"/>
    <path id="color8" d="m1376.31 812.689c-.84-.016-1.77.102-2.5.09-1.39 3.47 2.34 2.32 4.44 2.33.56-1.993-.56-2.393-1.94-2.42zm-14.05.192c-1.43-.05-2.84 0-4.22.17-2.74 4.61 5.16 3.51 4.22-.17zm-4.67 10.928c-2.56.001-5.11.425-7.6.98l-.96 2.441c3.42-1.52 10.96 1.191 11.12-3.269-.85-.105-1.71-.153-2.56-.152zm18.08.861c.04.57.16 1.721.16 2.301 4.95-.09 9.85.549 14.52 2.279-.98-5.92-10.04-4.26-14.68-4.58zm-11.04 2.023c-.53-.034-1.15.035-1.84.198-.74 2.83.63 3.939 3.41 3.199.78-2.258.02-3.294-1.57-3.397zm-.29 9.373c-.33-.013-.67.016-1.02.104-1.21.27-2.4.589-3.56.949 3.98 1.39 2.36 8.22 7.04 7.99 1.55-2.34 2.9-4.819 4.5-7.129-2.6.412-4.62-1.819-6.96-1.914zm-.61 1.473c3.43-.21 4.16 3.211 3.43 5.871-3.29.27-3.43-3.561-3.43-5.871zm-16.84 6.639c-.28.035-.74.143-1.4.342-1.91.5-3.22 2.08-4.5 3.47 1.62-.744 7.91-4.06 5.9-3.812zm3.81 2.633c-3.3 2.87-7.73 5.46-8.8 9.99 2.64-3.54 5.71-6.681 9.39-9.151-.15-.21-.44-.629-.59-.839z" fill="#535453"/>
    <path id="color9" d="m1363.73 837.539c.04 2.31.14 6.141 3.43 5.871.73-2.66-.04-6.081-3.43-5.871z" fill="#da9b8f"/>
    <path id="color10" d="m1575.88 938.988c-1.45.016-3.33.943-4.27 1.643-1.4 3.47-2.03 8.789 1.66 11.109 7.82 5.97 16.75 10.309 24.38 16.539 4.63 3.26 9.31 7.501 15.31 7.551 10.05.26 20.6-1.33 29.29-6.65 2.98-4.85-1.01-9.86-5.29-12.08.16 1.24.16 2.489.16 3.759-4.81 4.29-12.03 5.31-18.1 3.83-1.91 1.41-3.38 3.87-6.04 3.75-6.41.21-9.43-6.63-14.89-8.83-.83 4.62-5.72-2.289-5.45-4.629-4.77-5.2-15.3-6.011-14.92-14.791-.25-.892-.97-1.21-1.84-1.201zm-125.59 28.002c-.69 1.5-1.35 3.04-1.99 4.58-.17 3-.14 6.05-.76 9.03-7.57 1.76-13.93-3.319-21.18-4.209-2.43-1.5-3.09-4.79-4.46-7.17l-.78-.522c-.08 5.6-1.4 12.65 3.29 16.84 8.87 7.14 21.36 7.5 32 4.9 9.21-2.06 9.8-14.02 7.2-21.16-1.15 3.69-1.7 7.552-3.05 11.182-1.03 4.42-8.97 4.05-9.32-.57-.56-4.29-.08-8.651-.95-12.901z" fill="#616795"/>
  </g>
</svg>
