<svg height="1080" width="1920" xmlns="http://www.w3.org/2000/svg">
  <path id="background" d="m0 0h1920v1080h-1920z" fill="#757a95"/>
  <g id="transform" transform="translate(0,0) scale(1.00)">
    <path id="color1" d="m954.871 92.7969c-3.979-.0209-7.964.1451-11.941.5039-26.48 3.49-51.511 16.6092-69.571 36.2892 4.05 1.11 8.271 1.231 12.381 2.051-.3 7.03-4.25 14.249-10.97 16.959-5.2 2.44-11.07 1.939-16.59 3.019-12.32 23.38-12.941 50.571-13.991 76.381-.73 18.65 2.101 37.3.131 55.91-.62 4.34.77 9.499-2.48 13.039-3.79 5.1-7.76 10.251-9.94 16.291 3.87-4.78 6.39-10.64 11.17-14.67-1.08 49.61-12.051 98.81-8.121 148.58 1.59-.59 3.072-1.449 4.512-2.339-7.22-49.7 3.63-99.37 7.51-148.85.38-.86-.191-3.901 1.429-2.451 6.05 19.54 7.07 40.171 9.36 60.381 2.11 26.76 5.021 53.519 5.121 80.379-.38 14.24-.151 28.49-.131 42.74-.75 13.44-2.809 26.771-3.609 40.211-1.06 20.67-2.452 41.559-7.362 61.779-4.54 21.03-8.238 42.27-10.468 63.68-1.6 18.13-3.521 36.889 1.919 54.609 3.81-1.51 1.41-7.049 2.09-10.289 8.26 14 14.961 31.74 31.071 38.41-4.43-20.29-9.362-40.61-11.032-61.4-2.35-16.97-.299-34.06.891-51 3.53-56.62 13.171-112.6 18.971-169 .51-8.36-.211-16.759.379-25.129.64-20.96.24-41.95.91-62.91 4.01 17.64 6.66 35.628 9.73 53.478 3.06.11 5.74-3.41 9.18-3.75-5.39-13.95-8.631-28.758-9.051-43.728 5.13 13.88 8.792 28.31 12.012 42.74 2.76.04 5.39-.882 8-1.672 2.23-3.92 5.189-9.598 10.519-8.828 2.52.29 2.07 3.039 2.19 4.879.06-10.34-.03-20.76-.82-31.07-11.28-9.19-24.19-17.311-32.45-29.731-1.74-3.94-7.511-3.04-8.791-7.51-.57-6.39-.229-12.859-.119-19.279 1.82 1.76 3.44 3.72 5.18 5.57-2.21-6.78-6.81-13.199-5.16-20.689 3.12 2.18 4.83 5.659 7.17 8.549-1.03-8.27-8.981-14.28-7.571-22.94.03-11.87-.519-23.74-.939-35.59 3.11-2.1 6.909-2.869 10.099-4.849 1.69-11.27 1.111-22.752 1.481-34.112 4.35 8.39 4.979 18.041 5.269 27.311 5.79 2.18 12.461-.801 17.151-4.301.89-3.15.56-6.489.73-9.719 1.11 2.28 2.02 4.67 3.35 6.85 6.34-.33 13.259-1.619 18.269-5.769-1.92-6.4-2.37-13.111-1.5-19.731.84 5.76 1.501 11.59 3.301 17.16.02-11.08.131-22.3 2.721-33.14.07 12.54.788 25.279 3.978 37.439 7.75-.36 15.912-.728 23.022-4.148 2.36-13.09 1.028-26.72 1.828-40.01 4.14 13.39 4.111 27.599 4.961 41.469 11.27 3.68 23.08 6.311 34.11 10.951 2.33.78 4.63 2.389 7.2 1.969.97-2.68 1.37-5.52 2.05-8.27 1.56 3.49.98 7.44 1.97 11.02 3.15 3.37 7.75 5.91 9.13 10.58 2.17 21.35.98 42.9-1.47 64.17 2.54-3.31 3.63-7.409 5.21-11.209.15 10.65-.01 21.299.34 31.939.3 21.29.2 42.579.63 63.859 1.08 22.03-.86 44.191 1.32 66.151.65 19.35 4.72 38.55 3.93 57.98 4.35 48.63 11.11 97.17 11.11 146.01-.51 15.71-6.57 30.519-11.8 45.109-1.55 3.41 1.67 2.3 2.4.09 3.3-7.65 7.12-15.11 9.38-23.16 2.17 6.39.41 13.341 1 19.961.67 9.27-2.38 18.369-1.85 27.609 4.53-4.61 6.68-10.958 9.14-16.808 14.6-39.91 12.59-83.911 3.28-124.781-3.25-18.87-3.48-38.02-5.02-57.02.47-35.28-.9-70.65 1-105.84 1.28-30.21 4.67-60.281 8.25-90.301 2.15-21.95 3.54-43.978 5.96-65.898 1.47 12.27 1.64 24.639 2.3 36.969.5 29.04 2.91 58.18 0 87.17-1.14 12.56-3.59 24.941-6.07 37.291-.2 1.92.59 5.19 2.84 3.07 3.61-17.63 6.24-35.471 7.34-53.441 2.01-37.77-2.88-75.4-4.31-113.1-1.3-11.95-.91-23.96.27-35.9 3.06-25.61-4.21-51.021-12.16-75.081 8.66-1.21 17.45-.799 26.16-1.439-.31-1.05-.66-2.24-1.97-2.27-8.64-1.23-17.47 1.641-26.04-.019-7.63-15.68-17.43-31.111-32.29-40.881-23.27-15.164-50.866-24.3871-78.719-24.5331zm79.109 239.3121c-8.56 12.08-18.52 23.371-29.58 33.321-.82 7.19-1.53 15.611.35 22.541 1.82-.22 3.91-.531 5.45.799 6.71 4.96 8.77 13.599 14.15 19.679.61-1.18 1.24-2.359 1.86-3.549 2.29-24.26 5.86-48.461 7.77-72.791z" fill="#41494a"/>
    <path id="color2" d="m868.059 128.963c-2.994-.022-5.92.684-8.02 3.047-5.74 6.32-13.08 10.98-18.42 17.67-.64 1.28-.779 3.48 1.221 3.42 5.12.34 10.2-1.331 15.34-1.481 5.52-1.08 11.39-.579 16.59-3.019 6.72-2.71 10.67-9.929 10.97-16.959-4.11-.82-8.331-.941-12.381-2.051-1.683-.338-3.504-.614-5.3-.627zm-115.704 368.822c-4.363.112-8.255 4.521-9.605 8.766-5.9 16.2-11.57 32.479-17.34 48.719-6.94 18.61-9.46 38.45-11.76 58.05-.76 3.47-3.619 5.861-5.689 8.571-9.74 12.26-19.671 24.38-29.061 36.91-7.25 9.86-8.301 22.4-9.541 34.17-1.03 18.68 5.98 36.469 13.68 53.119 4.94 11.96 6.892 24.94 6.352 37.82 11.64-7.93 22.078-17.46 30.648-28.64 2.91-3.42 4.751-7.569 5.881-11.879.38-3.39.77-6.772 1.43-10.112-.44-2.41-.631-5.58-3.571-6.16-7.72-2-7.388-12.409-3.318-17.609 2.5-4.37 9.709.26 10.959-5.25 6.98-16.83 8.9-35.479 8.82-53.549-1.87-12.59-5.291-25.491-14.541-34.701 4.59-19.67 7.05-40.09 14.25-59-.76-4.95-.639-10.689 3.881-13.869 2.54-6.64 4.531-13.61 8.311-19.68 3.42 3.83 2.43 9.809 3.83 14.559 6.43-2.83 12.789-5.83 19.209-8.69-4.68-10.67-8.999-22.59-18.379-30.06-1.483-1.083-2.991-1.522-4.446-1.485z" fill="#507943"/>
    <path id="color3" d="m975.25 179.381c-.8 13.29.53 26.92-1.83 40.01-7.11 3.42-15.27 3.788-23.02 4.148-3.19-12.16-3.91-24.899-3.98-37.439-2.59 10.84-2.701 22.06-2.721 33.14-1.8-5.57-2.459-11.4-3.299-17.16-.87 6.62-.42 13.331 1.5 19.731-5.01 4.15-11.929 5.439-18.269 5.769-1.33-2.18-2.242-4.57-3.352-6.85-.17 3.23.162 6.569-.728 9.719-4.69 3.5-11.361 6.481-17.151 4.301-.29-9.27-.919-18.921-5.269-27.311-.37 11.36.209 22.842-1.481 34.112-3.19 1.98-6.989 2.749-10.099 4.849.42 11.85.969 23.72.939 35.59-1.41 8.66 6.541 14.67 7.571 22.94-2.34-2.89-4.05-6.369-7.17-8.549-1.65 7.49 2.95 13.909 5.16 20.689-1.74-1.85-3.362-3.81-5.182-5.57-.11 6.42-.449 12.889.121 19.279 1.28 4.47 7.049 3.57 8.789 7.51 8.26 12.42 21.171 20.541 32.451 29.731.79 10.31.881 20.73.821 31.07-.29 1.92.05 3.929 1.84 5.019 8.65 6.72 17.429 13.302 26.509 19.442 4.28 2.66 4.28 10.629 10.58 9.869 5 .76 3.81-6.089 7.04-8.369 8.54-7.16 17.42-13.921 26.08-20.961 5.41-3.6 2.3-10.769 3.65-16.119-1.88-6.93-1.17-15.351-.35-22.541 11.06-9.95 21.02-21.241 29.58-33.321 1.57-.1 3.17-.089 4.77-.109-.34-10.64-.19-21.289-.34-31.939-1.58 3.8-2.67 7.899-5.21 11.209 2.45-21.27 3.64-42.82 1.47-64.17-1.38-4.67-5.98-7.21-9.13-10.58-.99-3.58-.41-7.53-1.97-11.02-.68 2.75-1.08 5.59-2.05 8.27-2.57.42-4.87-1.189-7.2-1.969-11.03-4.64-22.839-7.271-34.109-10.951-.85-13.87-.821-28.079-4.961-41.469zm-197.16 348.398c-.96.53-1.93 1.051-2.91 1.551-6.42 2.86-12.779 5.86-19.209 8.69-4.04 1.75-8.131 3.351-12.141 5.121-4.52 3.18-4.641 8.919-3.881 13.869.47 2.14 1.312 4.571-.318 6.461-2.81 3.83-2.922 9.828.978 12.978 2.85 2.7.291 6.631-.449 9.711-1.51 4.61 2.38 8.36 4.66 11.91 3.17 5.91 4.401 12.611 7.061 18.731.31-2.53.509-5.141 1.619-7.471 7.77.79 14.79 4.871 22.48 6.061 7.76.84 14.121-4.352 20.571-7.772 3.11-2.6 8.349-4.749 7.779-9.609-2.36-7.39 2.609-15.581-3.041-22.141 2.27-6.81 2.181-13.818-.469-20.488 5.85 2.36 14.329 2.85 16.709-4.49-3.73-6.22-10.719-9.642-15.789-14.702-3.42-3.72-7.41.202-10.82 1.622-4.61-2.89-8.13-7.232-12.83-10.032zm-29.199 127.66c-2.77 4.91-3.021 10.652-4.651 15.952-5.95 20.54-10.87 41.368-16.89 61.888-.66 3.34-1.05 6.722-1.43 10.112 2.01 9.1 5.29 17.91 9.43 26.25 4-6.11 6.789-13.211 6.009-20.641-1.07-8.3 2.552-16.011 3.702-24.061.99-17.56 2.609-35.049 3.599-52.609 1.06-5.58.841-11.281.231-16.891zm408.829 159.321c-5.27 7.3-10.27 14.881-16 21.801h-.05c-8.19 4.19-17.2 6.6-25.46 10.65 2.16 5.01 4.34 10.189 3.73 15.799-.79 10.99 1.59 21.85 4.72 32.31 4.61 19.32 8.11 38.89 11.52 58.45 1.27 4.33-4.83 5.011-7.47 6.861 1.33 6.39.82 12.999 2.29 19.379.3 2.61 1.83 6.12-1.15 7.76.49.33 1.47.98 1.96 1.31.48 4.25 4.08 10.72.1 13.66.53.33 1.57.99 2.1 1.32 2.59 9.72 3.25 19.98 4.87 29.96.09.5.25 1.51.35 2.01.85 4.22 1.66 8.47 1.66 12.8.04.45.14 1.34.14 1.79 3.29 9.51 4.23 19.55 6.05 29.38h40.28c-3.47-14.92-8.52-29.39-13.37-43.9-1.7-4.91-4.34-9.73-3.75-15.11.69-24.69-1.07-49.32-1.17-73.99-1.5-14.28-.18-28.691-1.6-42.971-.6-29.88.68-60.729-9.75-89.269zm-285.665 264.05c-.305 0-.6.39-.885 1.19h1.83c-.325-.79-.64-1.19-.945-1.19z" fill="#f9e5da"/>
    <path id="color4" d="m1006.87 387.775c-.72.017-1.44.113-2.12.196-1.35 5.35 1.76 12.519-3.65 16.119-8.66 7.04-17.54 13.801-26.08 20.961-3.23 2.28-2.04 9.129-7.04 8.369-6.3.76-6.3-7.209-10.58-9.869-9.08-6.14-17.859-12.722-26.509-19.442-1.79-1.09-2.13-3.099-1.84-5.019-.12-1.84.328-4.589-2.192-4.879-5.33-.77-8.289 4.908-10.519 8.828-1.98 6.5-7.191 10.942-11.401 15.922-1.34 9.95-3.349 20.388-.169 30.238.42 23.06 4.89 45.831 9.72 68.311 5.94 25.4 16.429 49.44 27.789 72.82 6.33-35.47 12.692-70.96 19.692-106.31.88-12.46-5.33-23.931-9.66-35.241-.99-2.39-.051-4.81 1.419-6.74-1.81-2.1-4.09-3.76-5.73-6.01.88-2.26 2.51-4.139 4.33-5.709 3.17 3.41 5.319 7.7 8.869 10.78 3.77.67 7.751.701 11.531-.039 2.08-2.45 3.19-5.682 5.7-7.772 2.61-.77 5.13.95 7.39 2.07-2.3 3.35-8.011 4.701-6.951 9.641 1.35 11.22-3.179 21.88-3.209 33.01 2.43 27.92 4.21 55.94 4.43 84 1.98 12.41-.53 25.16 1.75 37.47 13.69-29.97 21.67-62.019 31.25-93.419 5.68-18.93 10.58-38.141 13.34-57.741 2.88-12.88 5.41-28.091-2.08-39.871-5.38-6.08-7.44-14.719-14.15-19.679-.96-.832-2.14-1.022-3.33-.995zm103.67 580.895c-.93.34-1.84.669-2.75 1.019 1.92 7.55 3.29 15.291 4.1 23.041-2.66 1.19-5.53 1.949-8.43 2.209-1.33-7.33-2.33-14.728-3.73-22.048-.51.18-1.52.538-2.03.718.76 7.56 4.11 15.402 2.85 22.852-15.17 3.25-30.03 8.389-45.44 10.349-2.09-5.92-2.07-12.589-2.33-18.849-.5.1-1.52.31-2.02.42-.13 6.39 1.76 12.609 1.88 18.979-3.76.91-7.62 1.66-11.49 1.56-1.74-5.59-1.64-11.549-2.65-17.279-.43.06-1.31.159-1.74.209.36 6.23 2.3 12.44 1.88 18.65-19.01 3.58-38.25 6.72-57.601 7.61-.37-9.44-.29-18.92.08-28.36-.65-.69-1.279-1.371-1.889-2.051-.7 9.98.18 20.021-.49 29.991-1.94 1.56-5.09.82-7.51 1.03-.41-13.05-.19-26.119-.07-39.169-.47-.53-1.401-1.582-1.871-2.112-.57 13.8.311 27.661-.369 41.461-17.62.63-35.36.86-52.91-1-.47-5.68 1.499-11.19 2.029-16.81-.51-.07-1.539-.2-2.049-.3-1.02 5.61-1.099 11.35-2.349 16.92-2.76-.02-5.511-.4-8.151-1.12.57-5.74 1.249-11.5 2.539-17.119-.96-.15-1.888-.292-2.818-.442.09 5.921-.82 11.811-1.57 17.671-10.62.23-21.23-2.57-31.83-3.68.02.53.038 1.6.048 2.13 10.37 1.2 20.751 2.55 31.071 4.1-.05 2.25-.35 4.53-1.11 6.68-9.81-.57-19.47-2.61-29.15-4.18.04.52.13 1.55.17 2.07 9.62 2.04 19.46 2.7 29.14 4.4-.99 12.27-3.039 24.43-4.099 36.7-.38 1.66-.352 4.8-2.852 4.39-7.99-.6-15.78-2.74-23.75-3.54-.07.57-.209 1.7-.279 2.27 8.22.67 16.35 2.29 24.49 3.58.85 2.7.4 5.59.42 8.38h1.949c.22-2.65.242-5.39 1.282-7.87 2.58-.02 5.199.24 7.679 1.05.11 2.27-.091 4.54-.201 6.82h1.461c.44-2.25.78-4.52 1.44-6.71 19.62 1.96 39.389 2.66 59.089 2.23.35 1.46.531 2.96.791 4.48h1.491c-1.71-6.76 11.999-7.19 9.209 0h1.82c.42-1.84-.95-5.47 2.1-5.04 20.67-1.2 41.2-4.1 61.55-7.76.58 2.36.98 4.8.98 7.26-9.3 2.49-18.9 3.55-28.29 5.54h11.77c5.43-1.5 11.08-2.54 16.69-3.07.21.77.64 2.3.85 3.07h1.26c-.58-6.1 7.67-5.01 11.84-5.95.63 1.93 1.03 3.95 1.48 5.95h1.84c-.36-2.44-1.46-5-.59-7.42 15.9-4.08 31.95-7.95 47.6-12.81 3.85 5.46 2.99 13.62 4.34 20.23h1.92c-.65-6.96-2.39-13.77-3.08-20.72 2.57-1.39 5.49-2.13 8.42-2.25 1.6 7.62 2.23 15.44 4.33 22.97h1.14c-.57-8.28-2.69-16.39-3.19-24.64 5.49-1.19 10.83-2.93 16.15-4.74-.04-.45-.14-1.34-.14-1.79-5.55 1.1-10.77 3.71-16.44 4.17-.78-3.03-1.6-6.2-1.13-9.33 5.25-2.65 11.04-4.24 15.91-7.64-.08-.5-.25-1.51-.35-2.01-5.33 2.76-10.57 6.44-16.63 7.16-1.91-10.57-3.83-21.18-5.21-31.83 5.67-1.69 11.31-3.51 16.97-5.29-.53-.33-1.57-.99-2.1-1.32-5.17 1.09-9.99 3.64-15.28 4.11-.84-4.07-1.73-8.229-1.46-12.389 5.58-1.74 11.15-3.511 16.69-5.381-.49-.33-1.47-.98-1.96-1.31-5.17 1.99-10.62 3.091-15.79 5.041-1.51-7.98-3.2-16.001-3.57-24.141zm1.95 26.51c.67 4.15 1.84 8.36 1.35 12.6-2.15 1.54-4.94 1.91-7.5 2.19-1.32-4.01-1.9-8.31-2.21-12.509 2.12-.67 4.3-1.191 6.46-1.811.47-.12 1.43-.35 1.9-.47zm-11.88 3.027c1.99-.265 1.34 3.573 1.92 5.283.01 2.52 1.79 5.36.7 7.71-15.16 4.28-30.58 7.79-46.1 10.39-1.16-3.96-1.38-8.13-1.92-12.2 14.66-4.05 29.82-6.24 44.37-10.8.4-.224.74-.345 1.03-.383zm-50.56 11.673c4.94-.19 4.05 8.41 3.66 12.61-3.75.45-7.49 1.55-11.26 1.26-.42-3.85-.97-7.68-1.32-11.52 1.95-1.11 4.27-1.2 6.43-1.69.96-.43 1.79-.63 2.49-.66zm64.84.41c1.72 10.73 4.37 21.48 4.93 32.31-2.64.87-5.25 2.89-8.05 2.69-1.63-9.75-3.5-19.49-4.75-29.3-1.18-4.56 4.36-4.42 7.27-5.56zm-77.33 2.21c2.89 1.39 2.25 8.52 2.25 12.11-19.08 2.8-38.34 4.5-57.599 5.12-.33-3.19-.4-6.42-.07-9.61 18.609-1.07 37.149-3.91 55.419-7.62zm65.35 1.23c.88.01 1.64.31 1.95 1.39 1.4 10.63 3.63 21.21 5.14 31.78-12.67 5-25.76 8.77-38.89 12.25-3.25 1.15-6.62 2.32-10.12 2-.42-12.39-3.62-24.69-3.88-37 14.27-3.79 28.93-5.97 43.16-10.01.76-.13 1.76-.42 2.64-.41zm-197.721 5.45c2.81.06 5.672.28 8.372 1.18-.16 2.16-.501 4.32-.891 6.47-2.49.27-4.999.2-7.459-.11-.34-2.51-.312-5.05-.022-7.54zm71.567.85c4.253-.33 2.624 5.89 2.764 9.7-2.78.36-5.599.35-8.389.14.28-3.43-2.11-9.97 3.42-9.28.87-.34 1.597-.52 2.205-.56zm-60.567.16c17.52 1.24 35.11 1.2 52.67.91.21 2.91.21 5.85.01 8.78-17.96.66-35.829-1.06-53.719-2.1-.24-2.57-.051-5.24 1.039-7.59zm138.481 4.15c1.44 12.42 3.85 24.86 4.21 37.32-3.72 1.05-7.59 2.26-11.48 2.13-1.17-12.5-3.42-24.92-4.3-37.43 3.45-.78 7-1.08 10.47-1.87.27-.03.83-.15 1.1-.15zm-15.3 2.43c.46.01.93.06 1.39.17 2.27 10.91 2.45 22.12 4.31 33.11.21 1.92 1.05 5.25-1.86 5.38-20.26 3.7-40.77 6.89-61.29 7.53-.34-13.65-.339-27.37-.039-41 17.84-1.11 35.629-2.43 53.359-4.76 1.36-.2 2.74-.48 4.13-.43zm-131.229 2.21c2.291-.09 4.38.21 3.83 2.98-1.21 12.23-2.791 24.44-4.391 36.63-.57 4.19-5.81.61-8.58 1.17 2.04-13.52 2.82-27.25 5.32-40.67.998.13 2.446-.06 3.821-.11zm5.929.95c18.28.44 36.521 2.4 54.901 2.13.15 13.67.6 27.39.08 41.05-17.29 1.31-34.69-.07-51.99-.93-2.91.19-8.192.14-7.372-4.17 1.39-12.69 3.291-25.35 4.381-38.08zm-72.541.48c-2.28 7.84-2.439 16.1-3.939 24.1-.3 1.18-.74 3.5-2.52 2.67-12.64-3.07-25.041-7.01-37.621-10.29-.4.33-1.209.99-1.609 1.32 13.06 4.25 26.489 7.33 39.599 11.4 1.25 2.95.442 6.44-.628 9.36-13.99-2.99-27.771-7.21-41.391-11.66-.15.78-.12 1.57.09 2.37 13.77 4.05 27.45 8.29 41.41 11.63-.04 2.92-.64 5.8-1.09 8.69h2.051c.38-2.61.679-5.25 1.379-7.79 5-.22 9.461 2.1 7.631 7.79h1.808c-1.51-6.03 3.481-5.75 7.981-4.98.04-.37.12-1.1.16-1.47-2.19-.26-4.4-.5-6.51-1.11-.19-3.16-1.05-10.19 3.76-9.37-.14-.27-.411-.82-.551-1.09-2.04-.56-3.319-1.96-2.639-4.11.26-1.67 2.539-4.28-.451-4.42-.5 2.13-.889 4.31-1.609 6.4-2.63-.33-5.229-1-7.629-2.09.78-7.8 1.819-15.58 3.309-23.27-.33-1.37-.661-2.74-.991-4.08zm134.918 1.45c1.738.07 3.079.7 2.944 3.03.76 12.6.19 25.27.32 37.9-2.8.32-5.642.32-8.422 0 .13-13.55-.51-27.11-.17-40.66v-.01c1.455.13 3.591-.34 5.328-.26zm143.003 13.46c2.71.03 2.07 6.51 2.33 9.16-2.68.96-5.43 1.77-8.22 2.28-.47-2.79-.97-5.57-1.27-8.37 2.21-1.36 4.68-2.26 7.16-3.07zm-10.4 4.09c2.72.2 1.72 5.93 1.81 8.21-15.81 4.49-31.57 9.2-47.53 13.11-.95-2.32-1.36-4.85-1.23-7.34 15.76-3.54 31.23-8.33 46.36-13.94.22-.04.41-.05.59-.04zm-268.839 11.67c2.26-.03 4.495.65 6.639 1.32-.44 3.08-.911 6.16-1.241 9.27-2.82-.47-5.598-1.18-8.308-2.08.56-2.78.129-6.28 1.939-8.45.324-.04.648-.05.971-.06zm217.839 2.96c2.92-.34 2.2 4.78 2.58 7.36-3.73 1.05-7.58 1.68-11.37 2.48-.93-2.36-1.4-4.94-1.08-7.46 2.76-.72 5.58-1.24 8.38-1.87.58-.3 1.07-.46 1.49-.51z" fill="#fefefe"/>
    <path id="color5" d="m1039.38 395.859c-.18 6.53.32 13.09-.37 19.59-4.98-2.65-7.43-8.399-12.8-10.549-.62 1.19-1.25 2.369-1.86 3.549 7.49 11.78 4.96 26.991 2.08 39.871-2.76 19.6-7.66 38.811-13.34 57.741-9.58 31.4-17.56 63.449-31.25 93.419-4.98 11.25-9.94 22.75-16.83 32.95-8.49-13.48-15.921-27.7-22.731-42.1-11.36-23.38-21.849-47.42-27.789-72.82-4.83-22.48-9.3-45.251-9.72-68.311-3.18-9.85-1.171-20.288.169-30.238 4.21-4.98 9.421-9.422 11.401-15.922-2.61.79-5.24 1.712-8 1.672-1.01.29-1.989.618-2.959.988-3.44.34-6.122 3.86-9.182 3.75-.66 5.51-5.108 10.72-10.148 12.92-.12-.87-.37-2.608-.49-3.488-.59 8.37.129 16.769-.381 25.129-5.8 56.4-15.439 112.38-18.969 169-1.19 16.94-3.241 34.03-.891 51 1.67 20.79 6.6 41.11 11.03 61.4-16.07-6.67-22.77-24.41-31.03-38.41-.68 3.24 1.72 8.779-2.09 10.289-5.44-17.72-3.519-36.479-1.919-54.609 2.23-21.41 5.928-42.65 10.468-63.68 4.91-20.22 6.302-41.109 7.362-61.779.8-13.44 2.859-26.771 3.609-40.211-.02-14.25-.249-28.5.131-42.74-7.55 4.03-15.56 7.161-23.42 10.541-1.44.89-2.922 1.749-4.512 2.339-11.42 4.22-21.98 10.42-33.41 14.59-5.3 3.06-10.308 7.981-11.148 14.321-3.36 17.41-8.621 34.408-12.301 51.718 4.7 2.8 8.22 7.142 12.83 10.032 3.41-1.42 7.4-5.342 10.82-1.622 5.07 5.06 12.059 8.482 15.789 14.702-2.38 7.34-10.859 6.85-16.709 4.49 2.65 6.67 2.739 13.678.469 20.488 5.65 6.56.681 14.751 3.041 22.141.57 4.86-4.669 7.009-7.779 9.609 15.71 42.56 31.189 85.231 46.939 127.791 8.8 20.54 17.581 41.14 28.151 60.85 7.49 12.06 10.26 26.16 13.16 39.84 4.79 18.5 14.999 35.071 21.049 53.041-1.88 8.53.76 17.779-2.68 25.929-.03-5.2.64-10.961-2.93-15.281-8.7-10.55-10.63-24.629-17.9-36.029-9.89-14.5-14.15-32.04-23.16-46.94 1.66 30.88 8.57 61.231 9.8 92.141-.06 5.21-.321 10.449.469 15.629 1.46 20.74-.85 41.711 1.41 62.381 11.11 4.97 22.832 8.228 34.352 12.058.93.15 1.858.292 2.818.442 2.69.11 5.361.599 7.961 1.319.51.08 1.539.2 2.049.3 3 .21 6.532 1.25 8.922-1.26 11.13-9.94 22.479-19.78 34.119-29.07 3.41.61 5.739 4.289 8.209 6.679.47.53 1.401 1.582 1.871 2.112 2.94 2.45 5.78 5.048 8.07 8.148.61.68 1.239 1.361 1.889 2.051 6.73 8.42 18.521 6 27.891 5.15 9.35-.05 18.46-2.41 27.75-3.05.43-.05 1.31-.149 1.74-.209 3.96-1.51 8.07-2.57 12.26-3.26.5-.11 1.52-.32 2.02-.42 15.15-4.22 30.02-9.352 44.92-14.352.51-.18 1.52-.538 2.03-.718 2.63-1.19 5.3-2.332 8.06-3.202.91-.35 1.82-.679 2.75-1.019 6.05-2.73 12.14-5.359 18.22-8.039 2.64-1.85 8.74-2.531 7.47-6.861-3.41-19.56-6.91-39.13-11.52-58.45-3.13-10.46-5.51-21.32-4.72-32.31.61-5.61-1.57-10.789-3.73-15.799 8.26-4.05 17.27-6.46 25.46-10.65 5.73-6.92 10.73-14.501 16-21.801 1.99-3.54 4.73-6.571 6.77-10.071 2.57-6.59 2-13.789 2.3-20.699.99-2.99 4.34-4.48 5.92-7.17-.61-5.36-7.01-6.23-9.78-9.97-1.13-4.24 2.01-8.651-.12-12.811-3.35-7.79.96-15.609 2.82-23.119 1.2-4.28-2.68-7.289-3.97-10.949 1.02-4.76 4.71-8.851 4.14-13.991.41-4.52-3.34-7.781-4.16-11.951-.72-10.96 7.51-20.129 7.15-31.039-.12-5.9-1.98-12.21-6.92-15.84-3.75-2.87-2.94-8.03-3.25-12.15-1.03-12.42-2.44-24.81-4.67-37.07-1.65-33.66-3.38-67.339-7.45-100.869-1.47-11.52-8.92-21.78-18.77-27.68-16.66-9.34-33.26-18.811-49.87-28.221-.32-.42-.96-1.279-1.27-1.699-2.25 2.12-3.04-1.15-2.84-3.07-3.99 1.9-7.42-3.151-10.48-5.231-1.9 35.19-.53 70.56-1 105.84 1.54 19 1.77 38.15 5.02 57.02 9.31 40.87 11.32 84.871-3.28 124.781-2.46 5.85-4.61 12.198-9.14 16.808-.53-9.24 2.52-18.339 1.85-27.609-.59-6.62 1.17-13.571-1-19.961-2.26 8.05-6.08 15.51-9.38 23.16-.73 2.21-3.95 3.32-2.4-.09 5.23-14.59 11.29-29.399 11.8-45.109.03-48.84-6.76-97.38-11.11-146.01.79-19.43-3.28-38.63-3.93-57.98-2.18-21.96-.24-44.121-1.32-66.151zm-288.079 240.01c-3.66 4.96-6.741 10.402-11.061 14.842.08 18.07-1.84 36.719-8.82 53.549-1.25 5.51-8.459.88-10.959 5.25-4.07 5.2-4.402 15.609 3.318 17.609 2.94.58 3.131 3.75 3.571 6.16 6.02-20.52 10.94-41.348 16.89-61.888 1.63-5.3 1.881-11.042 4.651-15.952 1.48-6.42 1.89-13.02 2.41-19.57zm204.719 21.699c2.349-.036 4.669.318 6.451 1.961 2.53 2.75 2.148 6.93 1.558 10.34-2.33 3.85-8.609 6.35-12.129 3.08-.31-5.02-.211-10.07-.031-15.09 1.32-.108 2.741-.269 4.151-.291zm-230.1 85.823c-1.13 4.31-2.971 8.459-5.881 11.879 2.56 7.26 4.801 18.081 14.971 16.781.09-.6.26-1.8.34-2.41-4.14-8.34-7.42-17.15-9.43-26.25zm223.666 44.095c4.041.185 7.972 3.2 7.744 7.514.29 5.3-5.74 8.64-10.51 7.17-.37-4.77-.36-9.58 0-14.34.895-.277 1.833-.386 2.766-.344zm-1.414 142.869c4.237.302 7.391 5.12 5.799 9.475-1.05 5.06-9.371 6.27-10.991 1.02-.54-3.3-1.361-7.96 2.129-9.92 1.049-.473 2.085-.644 3.063-.575z" fill="#5f6771"/>
    <path id="color6" d="m952.33 430.32c-1.82 1.57-3.45 3.449-4.33 5.709 1.64 2.25 3.92 3.91 5.73 6.01-1.47 1.93-2.409 4.35-1.419 6.74 4.33 11.31 10.54 22.781 9.66 35.241-7 35.35-13.362 70.84-19.692 106.31 6.81 14.4 14.241 28.62 22.731 42.1 6.89-10.2 11.85-21.7 16.83-32.95-2.28-12.31.23-25.06-1.75-37.47-.22-28.06-2-56.08-4.43-84 .03-11.13 4.559-21.79 3.209-33.01-1.06-4.94 4.651-6.291 6.951-9.641-2.26-1.12-4.78-2.84-7.39-2.07-2.51 2.09-3.62 5.322-5.7 7.772-3.78.74-7.761.709-11.531.039-3.55-3.08-5.699-7.37-8.869-10.78z" fill="#bc6469"/>
    <path id="color7" d="m796.551 607.619c-6.45 3.42-12.811 8.612-20.571 7.772-7.69-1.19-14.71-5.271-22.48-6.061-1.11 2.33-1.309 4.941-1.619 7.471.53 6.34.66 12.798-.58 19.068-.52 6.55-.93 13.15-2.41 19.57.61 5.61.829 11.311-.231 16.891-.99 17.56-2.609 35.049-3.599 52.609-1.15 8.05-4.772 15.761-3.702 24.061.78 7.43-2.009 14.531-6.009 20.641-.08.61-.25 1.81-.34 2.41-6.85 19.93-16.22 39.2-20.74 59.91.06 13.84-2.771 27.489-6.661 40.709-6.65 16.21-6.459 34.1-6.439 51.32-.54 3.32 3.281 3.131 5.551 2.821 1.87-6.74 1.67-13.831 2.42-20.731 1.01-6.87 6.339-11.9 8.689-18.24 3.36-7.94 2.54-16.941 6.16-24.811 5.27-12.03 12.14-23.59 20.77-33.5 4.24 25.76 4.441 52.101 9.961 77.711 4.26 18.09 4.109 36.83 8.179 54.94 3.27 12.8 6.28 25.71 8.08 38.81.85 10.79-1.2 21.57-2.38 32.28.18 2.38-2.279 2.9-3.719 4.15 5.27 1.01 2.239 7.05 1.859 10.54-1.5-.36-2.97-.9-4.41-1.34l-.42 1.01c1.57 1.28 4.839 1.72 4.369 4.33-1.13 9.34-1.7 18.77-3.42 28.04h24c2.33-6.61 2.841-14.88 6.651-20.32-.21-.8-.24-1.59-.09-2.37.79-3.04 1.55-6.09 2.42-9.1.4-.33 1.209-.99 1.609-1.32-.4-1.39-.49-2.83 0-4.19 3.47-11.53 6.022-23.33 9.762-34.78 9.76 3.03 19.88 5.18 29.51 8.52 2.07 4.46 3.578 9.2 4.808 13.97.33 1.34.661 2.71.991 4.08 1.82 6.37 5.069 12.33 5.929 18.96 2.99.14.711 2.75.451 4.42 2.76-2.74 3.429 2.1 2.639 4.11.14.27.411.82.551 1.09 1.67 3.22 2.55 6.86 2.75 10.48-.04.37-.12 1.1-.16 1.47.12 1.66.37 3.31.64 4.98h15.85c.57-1.59 1.18-1.59 1.83 0h13.439c-5.08-1.04-10.298-1.51-15.218-3.13-.44-2.93-.531-5.9-.221-8.83.07-.57.209-1.7.279-2.27-1.17-5.24.31-10.53.67-15.77 1.52-8.66.641-17.46.891-26.18-.04-.52-.13-1.55-.17-2.07-.31-2.2-.681-4.39-.811-6.6-.01-.53-.028-1.6-.048-2.13.42-8.73-1.692-17.319-.952-26.049-2.26-20.67.05-41.641-1.41-62.381-.79-5.18-.529-10.419-.469-15.629-1.23-30.91-8.14-61.261-9.8-92.141 9.01 14.9 13.27 32.44 23.16 46.94 7.27 11.4 9.2 25.479 17.9 36.029 3.57 4.32 2.9 10.081 2.93 15.281 3.44-8.15.8-17.399 2.68-25.929-6.05-17.97-16.259-34.541-21.049-53.041-2.9-13.68-5.67-27.78-13.16-39.84-10.57-19.71-19.351-40.31-28.151-60.85-15.75-42.56-31.229-85.231-46.939-127.791zm26.592 105.91c8.819-.202 15.592 10.476 12.267 18.92-1.91 8.09-12.82 11.66-19.09 6.24-7.93-6.12-6.77-20.699 2.94-24.369 1.32-.511 2.623-.762 3.883-.791zm-42.151 4.121c11.263-.439 17.329 16.419 9.309 24.639-4.05 5.17-12.9 5.69-17.24.65-7.07-6.81-5.201-20.91 4.279-24.57 1.266-.444 2.487-.673 3.652-.719zm27.08 49.053c10.914-.141 20.941 10.149 20.127 21.297 1.3 11-7.819 22.42-19.189 22.18-11.21.51-20.679-10.221-20.209-21.141-.87-9.44 5.308-19.109 14.568-21.609 1.566-.474 3.144-.707 4.703-.727zm6.969 222.088c4.402.076 8.299 3.154 12.779 3.408 3.93 2.42 5.27 7.762 5.45 12.101-7.94-1.35-15.67-4-23.36-6.37-.38-3.24.579-6.889 3.209-8.969.653-.129 1.293-.181 1.922-.17zm-5.771 11.539c7.57 1.28 15.391 4.52 23.191 6.09 3.56.47 2.89 4.99 3.75 7.61-9.37-2.68-18.92-4.86-28.07-8.24-.72-1.85-.031-3.97 1.129-5.46z" fill="#eff6ed"/>
    <path id="color8" d="m956.02 657.568c-1.41.022-2.831.183-4.151.291-.18 5.02-.279 10.07.031 15.09 3.52 3.27 9.799.77 12.129-3.08.59-3.41.972-7.59-1.558-10.34-1.782-1.643-4.102-1.997-6.451-1.961zm-6.434 129.918c-.933-.042-1.871.067-2.766.344-.36 4.76-.37 9.57 0 14.34 4.77 1.47 10.8-1.87 10.51-7.17.228-4.314-3.703-7.329-7.744-7.514zm-1.414 142.869c-.978-.069-2.014.102-3.063.575-3.49 1.96-2.669 6.62-2.129 9.92 1.62 5.25 9.941 4.04 10.991-1.02 1.592-4.355-1.562-9.173-5.799-9.475z" fill="#bea370"/>
    <path id="color9" d="m823.143 713.529c-1.26.029-2.563.28-3.883.791-9.71 3.67-10.87 18.249-2.94 24.369 6.27 5.42 17.18 1.85 19.09-6.24 3.325-8.444-3.448-19.122-12.267-18.92zm-42.151 4.121c-1.165.046-2.386.275-3.652.719-9.48 3.66-11.349 17.76-4.279 24.57 4.34 5.04 13.19 4.52 17.24-.65 8.02-8.22 1.954-25.078-9.309-24.639zm27.08 49.053c-1.559.02-3.137.253-4.703.727-9.26 2.5-15.438 12.169-14.568 21.609-.47 10.92 8.999 21.651 20.209 21.141 11.37.24 20.489-11.18 19.189-22.18.814-11.147-9.213-21.438-20.127-21.297z" fill="#333a36"/>
    <path id="color10" d="m1128.76 960.631c-6.08 2.68-12.17 5.309-18.22 8.039.37 8.14 2.06 16.161 3.57 24.141 5.17-1.95 10.62-3.051 15.79-5.041 2.98-1.64 1.45-5.15 1.15-7.76-1.47-6.38-.96-12.989-2.29-19.379zm-167.68 10.129c-11.64 9.29-22.989 19.13-34.119 29.07-2.39 2.51-5.922 1.47-8.922 1.26-.53 5.62-2.499 11.13-2.029 16.81 17.55 1.86 35.29 1.63 52.91 1 .68-13.8-.201-27.661.369-41.461-2.47-2.39-4.799-6.069-8.209-6.679zm136.62 2.849c-14.9 5-29.77 10.132-44.92 14.352.26 6.26.24 12.929 2.33 18.849 15.41-1.96 30.27-7.099 45.44-10.349 1.26-7.45-2.09-15.292-2.85-22.852zm-226.841 13.362c-.74 8.73 1.372 17.319.952 26.049 10.6 1.11 21.21 3.91 31.83 3.68.75-5.86 1.66-11.75 1.57-17.671-11.52-3.83-23.242-7.088-34.352-12.058zm-55.818 1.82c-.629-.011-1.269.041-1.922.17-2.63 2.08-3.589 5.729-3.209 8.969 7.69 2.37 15.42 5.02 23.36 6.37-.18-4.339-1.52-9.681-5.45-12.101-4.48-.254-8.377-3.332-12.779-3.408zm166.078.959c-.37 9.44-.45 18.92-.08 28.36 19.351-.89 38.591-4.03 57.601-7.61.42-6.21-1.52-12.42-1.88-18.65-9.29.64-18.4 3-27.75 3.05-9.37.85-21.161 3.27-27.891-5.15zm152.891 14.31c-5.66 1.78-11.3 3.6-16.97 5.29 1.38 10.65 3.3 21.26 5.21 31.83 6.06-.72 11.3-4.4 16.63-7.16-1.62-9.98-2.28-20.24-4.87-29.96zm-326.799 3.86c-3.74 11.45-6.292 23.25-9.762 34.78-.49 1.36-.4 2.8 0 4.19 12.58 3.28 24.981 7.22 37.621 10.29 1.78.83 2.22-1.49 2.52-2.67 1.5-8 1.659-16.26 3.939-24.1-1.23-4.77-2.738-9.51-4.808-13.97-9.63-3.34-19.75-5.49-29.51-8.52zm295.699 5.81c-.88-.01-1.88.28-2.64.41-14.23 4.04-28.89 6.22-43.16 10.01.26 12.31 3.46 24.61 3.88 37 3.5.32 6.87-.85 10.12-2 13.13-3.48 26.22-7.25 38.89-12.25-1.51-10.57-3.74-21.15-5.14-31.78-.31-1.08-1.07-1.38-1.95-1.39zm-230.07 10.09c-.25 8.72.629 17.52-.891 26.18-.36 5.24-1.84 10.53-.67 15.77 7.97.8 15.76 2.94 23.75 3.54 2.5.41 2.472-2.73 2.852-4.39 1.06-12.27 3.109-24.43 4.099-36.7-9.68-1.7-19.52-2.36-29.14-4.4zm166.53 2.94c-1.39-.05-2.77.23-4.13.44-17.73 2.33-35.519 3.65-53.359 4.76-.3 13.63-.301 27.35.039 41 20.52-.64 41.03-3.83 61.29-7.53 2.91-.13 2.07-3.46 1.86-5.38-1.86-10.99-2.04-22.2-4.31-33.11-.46-.11-.93-.16-1.39-.18zm-125.3 3.17c-1.09 12.73-2.991 25.39-4.381 38.08-.82 4.31 4.462 4.36 7.372 4.17 17.3.83 34.7 2.24 51.99.93.52-13.66.07-27.38-.08-41.05-18.38.27-36.621-1.69-54.901-2.13zm-152.16 17.7c-2.98 10.69-5.139 21.62-7.949 32.37h8.898c1.72-9.27 2.29-18.7 3.42-28.04.47-2.61-2.799-3.05-4.369-4.33zm379.12 2.99c-5.32 1.81-10.66 3.55-16.15 4.74.5 8.25 2.62 16.36 3.19 24.64h19.01c-1.82-9.83-2.76-19.87-6.05-29.38zm-290.794 6.44c-.374.05-.818.3-1.336.81-.68 2.15.599 3.55 2.639 4.11.642-1.63.321-5.13-1.303-4.92zm-56.726 2.62c-3.81 5.44-4.321 13.71-6.651 20.32h46.971c.45-2.89 1.05-5.77 1.09-8.69-13.96-3.34-27.64-7.58-41.41-11.63zm317.49.09c-15.65 4.86-31.7 8.73-47.6 12.81-.87 2.42.23 4.98.59 7.42h51.35c-1.35-6.61-.49-14.77-4.34-20.23zm-260.469 14.85c-2.835.07-4.87 1.23-3.832 5.38h8.621c-.27-1.67-.52-3.32-.64-4.98-1.407-.24-2.86-.43-4.149-.4zm196.189 2.31c-5.61.53-11.26 1.57-16.69 3.07h17.54c-.21-.77-.64-2.3-.85-3.07z" fill="#9c989a"/>
    <path id="color11" d="m1107.79 969.689c-2.76.87-5.43 2.012-8.06 3.202 1.4 7.32 2.4 14.718 3.73 22.048 2.9-.26 5.77-1.019 8.43-2.209-.81-7.75-2.18-15.491-4.1-23.041zm-136.63 9.862c-.12 13.05-.34 26.119.07 39.169 2.42-.21 5.57.53 7.51-1.03.67-9.97-.21-20.011.49-29.991-2.29-3.1-5.13-5.698-8.07-8.148zm79.6 8.83c-4.19.69-8.3 1.75-12.26 3.26 1.01 5.73.91 11.689 2.65 17.279 3.87.09 7.73-.65 11.49-1.56-.12-6.37-2.01-12.589-1.88-18.979zm81.1.699c-5.54 1.87-11.11 3.641-16.69 5.381h.05c-.27 4.16.62 8.319 1.46 12.389 5.29-.47 10.11-3.02 15.28-4.11 3.93-2.94.33-9.41-.1-13.66zm-19.37 6.1c-.47.12-1.43.35-1.9.47-2.16.62-4.34 1.141-6.46 1.811.31 4.199.89 8.499 2.21 12.509 2.56-.28 5.35-.65 7.5-2.19.49-4.24-.68-8.45-1.35-12.6zm-11.88 3.027c-.29.038-.63.159-1.03.383-14.55 4.56-29.71 6.75-44.37 10.8.54 4.07.76 8.24 1.92 12.2 15.52-2.6 30.94-6.11 46.1-10.39 1.09-2.35-.7-5.19-.7-7.71-.58-1.71.07-5.548-1.92-5.283zm-192.581 1.264c-1.29 5.619-1.969 11.379-2.539 17.119 2.64.72 5.391 1.12 8.151 1.12 1.25-5.57 1.329-11.31 2.349-16.92-2.6-.72-5.271-1.209-7.961-1.319zm-98.759.859c-1.16 1.49-1.849 3.61-1.129 5.46 9.15 3.38 18.7 5.56 28.07 8.24-.86-2.62-.19-7.14-3.75-7.61-7.8-1.57-15.621-4.81-23.191-6.09zm240.78 9.55c-.7.03-1.53.23-2.49.66-2.16.49-4.48.58-6.43 1.69.35 3.84.9 7.67 1.32 11.52 3.77.29 7.51-.81 11.26-1.26.39-4.2 1.28-12.8-3.66-12.61zm64.84.41l-.6.14c-2.91 1.14-8.45 1-7.27 5.56 1.25 9.81 3.12 19.55 4.75 29.3 2.8.2 5.41-1.82 8.05-2.69-.56-10.83-3.21-21.58-4.93-32.31zm-77.33 2.21c-18.27 3.71-36.81 6.55-55.419 7.62-.33 3.19-.26 6.42.07 9.61 19.259-.62 38.519-2.32 57.599-5.12-.04-3.59.64-10.72-2.25-12.11zm-165.701 2.65c.13 2.21.501 4.4.811 6.6 9.68 1.57 19.34 3.61 29.15 4.18.76-2.15 1.06-4.43 1.11-6.68-10.32-1.55-20.701-2.9-31.071-4.1zm33.33 4.03c-.29 2.49-.318 5.03.022 7.54 2.46.31 4.969.38 7.459.11.39-2.15.731-4.31.891-6.47-2.7-.9-5.562-1.08-8.372-1.18zm71.567.85c-.608.04-1.335.22-2.205.56-5.53-.69-3.14 5.85-3.42 9.28 2.79.21 5.609.22 8.389-.14-.14-3.81 1.489-10.03-2.764-9.7zm-60.567.16c-1.09 2.35-1.279 5.02-1.039 7.59 17.89 1.04 35.759 2.76 53.719 2.1.2-2.93.2-5.87-.01-8.78-17.56.29-35.15.33-52.67-.91zm138.481 4.15c-.27.04-.83.15-1.1.15-3.47.79-7.02 1.09-10.47 1.87.88 12.51 3.13 24.93 4.3 37.43 3.89.13 7.76-1.08 11.48-2.13-.36-12.46-2.77-24.9-4.21-37.32zm-146.529 4.64c-1.375.05-2.823.24-3.821.11-2.5 13.42-3.28 27.15-5.32 40.67 2.77-.56 8.01 3.02 8.58-1.17 1.6-12.19 3.181-24.4 4.391-36.63.55-2.77-1.539-3.07-3.83-2.98zm68.306 2.89c-1.737-.08-3.873.4-5.328.26v.01c-.34 13.55.3 27.11.17 40.66 2.78.31 5.622.31 8.422 0-.13-12.63.44-25.3-.32-37.9.135-2.33-1.206-2.96-2.944-3.03zm-133.927 2.62c-1.49 7.69-2.529 15.47-3.309 23.27 2.4 1.09 4.999 1.76 7.629 2.09.72-2.09 1.109-4.27 1.609-6.4-.86-6.63-4.109-12.59-5.929-18.96zm296.71 1.54c-4.87 3.4-10.66 4.99-15.91 7.64-.47 3.13.35 6.3 1.13 9.33 5.67-.46 10.89-3.07 16.44-4.17.01-4.33-.81-8.58-1.66-12.8zm-374.349 1.39c-1.24 2.95-1.631 6.15-2.551 9.2 1.44.44 2.91.98 4.41 1.34.38-3.49 3.411-9.53-1.859-10.54zm354.569 7.91c-2.48.81-4.95 1.71-7.16 3.07.3 2.8.8 5.58 1.27 8.37 2.79-.51 5.54-1.32 8.22-2.28-.26-2.65.38-9.16-2.33-9.16zm-323.61 2.88c-.87 3.01-1.63 6.06-2.42 9.1 13.62 4.45 27.401 8.67 41.391 11.66 1.07-2.92 1.878-6.41.628-9.36-13.11-4.07-26.539-7.15-39.599-11.4zm313.21 1.21c-.18-.01-.37 0-.59.04-15.13 5.61-30.6 10.4-46.36 13.94-.13 2.49.28 5.02 1.23 7.34 15.96-3.91 31.72-8.62 47.53-13.11-.09-2.28.91-8.01-1.81-8.21zm13.55 7.61c-2.93.12-5.85.86-8.42 2.25.69 6.95 2.43 13.76 3.08 20.72h9.67c-2.1-7.53-2.73-15.35-4.33-22.97zm-282.389 4.05c-.323.01-.647.02-.971.06-1.81 2.17-1.379 5.67-1.939 8.45 2.71.9 5.488 1.61 8.308 2.08.33-3.11.801-6.19 1.241-9.27-2.144-.67-4.379-1.35-6.639-1.32zm11.043 1.93c-3.868.1-3.102 6.47-2.924 9.43 2.11.61 4.32.85 6.51 1.11-.2-3.62-1.08-7.26-2.75-10.48-.301-.05-.578-.07-.836-.06zm206.796 1.04c-.42.05-.91.21-1.49.51-2.8.63-5.62 1.15-8.38 1.87-.32 2.52.15 5.1 1.08 7.46 3.79-.8 7.64-1.43 11.37-2.48-.38-2.58.34-7.7-2.58-7.36zm-12.48 3.15c-20.35 3.66-40.88 6.56-61.55 7.76-3.05-.43-1.68 3.2-2.1 5.04h36.34c9.39-1.99 18.99-3.05 28.29-5.54.02-2.46-.4-4.9-.98-7.26zm-174.57.84c-.31 2.93-.219 5.9.221 8.83 4.92 1.62 10.138 2.09 15.218 3.13h9.471c-.02-2.79.43-5.68-.42-8.38-8.14-1.29-16.27-2.91-24.49-3.58zm28.141 4.09c-1.04 2.48-1.062 5.22-1.282 7.87h8.76c.11-2.28.311-4.55.201-6.82-2.48-.81-5.099-1.05-7.679-1.05zm-60.952.07c-.306-.01-.617 0-.929.01-.7 2.54-.999 5.18-1.379 7.79h9.01c1.715-5.33-2.098-7.71-6.702-7.8zm71.331 1.09c-.66 2.19-1 4.46-1.44 6.71h61.32c-.26-1.52-.441-3.02-.791-4.48-19.7.43-39.469-.27-59.089-2.23zm151.15.76c-4.17.94-12.42-.15-11.84 5.95h13.32c-.45-2-.85-4.02-1.48-5.95zm-84.77.72c-2.865.05-5.864 1.85-5.009 5.23h9.209c1.395-3.6-1.335-5.28-4.2-5.23z" fill="#835457"/>
  </g>
</svg>
