<svg height="1080" width="1920" xmlns="http://www.w3.org/2000/svg">
  <path id="background" d="m0 0h1920v1080h-1920z" fill="#b4494d"/>
  <g id="transform" transform="translate(0,0) scale(1.00)">
    <path id="color1" d="m915.369 143.02c-1.7 8.87-3.079 17.85-5.879 26.47-.81 2.3-2.019 4.789-4.439 5.709-5.78 2.7-11.702-2.349-17.612-.779-2.36 1.79-3.249 4.97-3.089 7.83 3.93-.45 8.371.071 10.871 3.551 5.78 7.57 6.79 17.379 9.34 26.279 4.32-7.61 5.508-17.19 12.378-23.18 2.55-2.35 7.162-2.21 8.372-5.91-2.8-13.39-3.482-27.55-9.942-39.97zm85.041 3.041c-4.7 11.69-8.209 23.859-13.449 35.339 9.92 6.94 18.089 16.81 23.889 27.45-.32-7.92-.96-17.01 4.6-23.44 3.11-3.56 8.21-3.36 12.53-3.23-.5-2.81-1.39-5.709-3.43-7.789-5.58-.83-10.95 1.7-16.5 1.82-.06-10.52-3.4-20.64-7.64-30.15zm-81.715 59.222c-.12-.018-.241-.012-.365.018-3.31 5.48-9.719 12.938-3.859 18.888 1.89-4.36 5.52-7.449 8.42-11.019-.975-2.306-2.391-7.619-4.196-7.887zm72.395.877c-.32 3.17-.33 6.379.14 9.539 2.27 2.16 4.979 3.822 7.709 5.362.29-3.53.461-7.131-.189-10.631-2.39-1.7-5.01-3.05-7.66-4.27zm94.59 114.754c-.59-.009-1.15.009-1.68.047-6.65.08-10.42 6.549-12.47 12.059-.79 2.67-1.24 5.48-2.46 8-4.38 2.84-9.24 5.22-12.49 9.47-7.75 8.75-9.02 21.04-8.24 32.24.9 4.88 1.11 10.419 4.75 14.209 3.69 4.12 9.75 5.191 14.99 4.151 5.16-1.11 8.18-6.37 12.68-8.35 11.69 5.51 23.37 11.481 36.1 14.321 2.19.69 4.85.71 6.59 2.41 24.31 30.55 58.75 53.599 97.09 61.959 12.18 1.19 20.25 11.51 30.44 17.16 9.37 5.93 18.78 11.84 28.06 17.93 3.68 2.42 7.46 4.691 11.26 6.951 17.08-7.75 34.68-14.661 50.55-24.811 10.51-6.51 20.39-14.23 31.92-18.93 18.69-6.54 32.33-22.09 43.59-37.71-3.19-2.71-7.83-2.23-11.61-3.6-17.55-4.94-34.93-10.55-52.1-16.66 20.44-11.79 43.8-18.33 67.31-20.19-17.77-5.79-36.95-7.35-55.19-2.8-16.35 3.46-33.02 6.01-49.78 5.5-12.17.45-22.72-6.41-33.71-10.54-23.06-10.26-47.91-17.27-73.28-17.55-6.93.33-13.78-1.06-20.7-.92-19.43-.58-38.9.44-58.29-1-9.87-.72-20.69 1.79-29.58-3.78-6.69-3.11-10.34-9.73-14.18-15.64 3.89-5.47 9.88-10.56 9.78-17.83-.25-4.673-5.27-6.031-9.35-6.096zm-1.61 7.113c2.16.055 3.93 2.857 3.85 4.953-.66 3.66-3.31 6.71-6.24 8.84-2.73.01-5.38-.879-7.92-1.769 1.52-4.64 4.35-9.24 8.77-11.58.52-.323 1.04-.456 1.54-.444zm-267.759 11.998c-5.545.053-11.095.998-16.151 3.186-5.61 2.27-5.101 10.189-1.291 13.879 3.73 4.66 10.141 4.37 15.361 5.99 1.05 4.66-5.121 4.839-8.191 6.119-40.8 9.52-81.909 18.131-121.789 31.131-47.85 15.21-93.769 36.7-135.869 64.09-5.56 4.08-11.62 7.91-18.74 8.18 6.16 19.21 24.02 31.531 41.92 38.781 10.01 4.32 20.999 6.068 30.669 11.228 5.39 2.74 8.911 7.831 13.481 11.621 8.17 6.76 17.71 11.691 27.67 15.231 8.33-9.49 18.539-17.052 28.769-24.352 13.11-9.48 24.73-20.768 36.27-32.058 9.8-11.05 20.279-21.47 30.119-32.5 9.12-9.88 17.721-21.08 30.361-26.67 10.23-4.37 20.759-8.112 31.389-11.352-1.97 12.82-5.979 25.372-10.889 37.362-14.11 37.75-38.51 71.639-70.42 96.339-20.16 15.44-44.94 27.399-70.89 25.969 5.21 2.73 7.349 8.371 11.099 12.451 26.58-3.77 51.3-16.201 72.25-32.711 31.27-26.05 52.03-62.619 66.1-100.339 2.81-6.62 3.772-13.961 7.342-20.241.87 7.83-.64 15.661-1.24 23.461-4.65 37.48-10.421 76.42-30.321 109.27-3.31 6-8.159 10.881-12.859 15.791-3.46 3.64-7.111 7.088-10.801 10.488-10.44 9.77-23.06 18.592-37.59 20.352 7.3 3.29 15.639 4.66 23.459 6.75 5.6 1.77 9.551-3.46 13.621-6.33 7.15-5.3 12.55-12.411 18.44-18.981 3.98-4.66 7.22-9.86 10.67-14.9 2.21-4.32 4.409-8.66 7.029-12.75 17.1-32.52 25.621-68.959 28.951-105.379 1.46-14.11.33-28.302.93-42.442-.25-3.81-.841-7.688-.051-11.468 2.44-2.81 6.19-3.871 9.42-5.481 4.53-2.58 8.671-5.89 13.461-7.99 7.81 3.74 16.911 9.31 25.641 4.93 8.01-5.54 8.919-16.461 8.539-25.391-2.57-17.08-18.72-28.099-34.85-30.519-4.43-2.05-5.5-8.89-11.15-9.95-3.218-.536-6.542-.826-9.869-.795zm151.539 4.196c-3.25 3.64-5.959 7.819-9.799 10.879-3.6-3.16-6.241-7.209-9.461-10.719-1.6 1.89-3.249 3.729-4.869 5.599 2.67 2.54 5.57 4.951 7.58 8.081-1.31 3.87-4.181 8.078-8.621 8.388-6.83.91-13.671 1.77-20.401 3.25-.22 18.46.112 37.001 2.782 55.281 1.22 22.34-.032 44.709-.872 67.049-.03 6.3-3.799 11.642-5.199 17.612 3.74.2 7.5-.191 11.24.259.64 5.53-2.76 10.33-6.3 14.18 9.35 4.43 18.61 10.069 29.06 11.279 8.13-.85 14.999-5.948 22.119-9.558-.59-3.73-2.129-7.681-.759-11.381 5.39-1.4 11.009-.41 16.509-.91-.39-6.53-3.249-12.559-4.339-18.959-4.71-21.87.861-44.021 4.191-65.651.79-4.6-1.331-8.921-2.891-13.111-9.02 2.46-10.65-10.288-4.83-14.818-2.64-11.12-4.34-22.381-4.4-33.871-4.87-1.57-11.87-1.641-14.02-7.161-.13-4.84 4.22-8.239 6.77-11.939-1.19-1.24-2.35-2.509-3.49-3.779zm-153.348 1.543c4.696.072 9.421 1.135 12.969 4.146-4.68 1.1-8.752 5.289-13.772 3.779-4.03-.89-8.599-.979-11.879-3.759-.51-3.26 4.21-2.901 6.41-3.741 2.01-.287 4.138-.458 6.272-.425zm143.853 14.918c.915.126 1.888 1.92 2.645 2.437 6.84 8.43 14.17 19.661 10.01 30.891-4.91 11.64-24.98 8.33-26.44-4.01-.74-11.02 5.711-21.009 12.901-28.779.282-.438.579-.582.884-.539zm24.856 7.177c.72 3.14.099 7.271 1.799 9.801 7.48 1.06 7.44 10.11 3.25 14.75.34 4.71 2.72 9.19 4.26 13.66 1.03-12.15-.53-24.251-.62-36.381-2.88-.7-5.799-1.23-8.689-1.83zm-69.422 3.811c-3.94 1.04-7.63 2.77-11.25 4.59-.8 3.85-1.029 7.81-.559 11.72 2.31 21.97 6.73 43.83 6.26 66.01.79 17.13-5.111 34.139-14.801 48.119-3.44 3.63 1.221 5.561 4.051 7.141 3.5-6.71 10.28-12.929 18.33-12.279 2.68-9.37 2.34-19.301 2.03-28.961-.02-15.67-.019-31.35.041-47.03.06-6.91-3.92-13.06-4.01-19.97-.34-9.78.068-19.56-.092-29.34zm85.451.051c-.41 14.09.77 28.249-1.099 42.269-.94 6.46 3.099 11.98 6.039 17.33 1.9-12.64 4.52-25.159 6.7-37.759-4.17-7.13-7.32-14.81-11.64-21.84zm-67.449 5.949c7.339.367 7.961 15.962-.82 14.721-6.7-1.13-6.85-11.111-1.67-14.311.9-.323 1.731-.448 2.49-.41zm-.592 27.059c5.777-.275 8.443 8.81 4.311 12.761-1.64 1.96-4.75 2.451-6.85.981-4.55-2.98-3.739-10.59.651-13.34.66-.245 1.291-.374 1.888-.402zm209.051 5.279c6.02-.066 12.08.574 17.98 1.781 7.43 1.59 11.28 8.841 17.52 12.461 4.6 2.96 10.4 3.661 14.57 7.381 7.35 5.97 10.38 15.269 15.9 22.689-17.62-4.73-32.97-15.35-47.47-26.07-7.21-5.82-14.84-11.28-21.08-18.17.86-.039 1.72-.063 2.58-.072zm-160.697 22.713c6.665-.125 8.381 12.366 1.367 14.369-7.77 1.67-10.06-11.011-3.59-13.901.791-.308 1.533-.455 2.223-.468zm-46.994.004c6.653-.114 8.384 12.354 1.351 14.375-7.75 1.65-10.04-11.021-3.57-13.911.789-.306 1.53-.453 2.219-.464zm63.73 3.425c-3.24 22.14-7.51 45.51.4 67.19.85 3 4.741 2.36 6.771 4.14 2.23 2.11 3.05 5.19 4.24 7.93.79-.76 1.59-1.501 2.42-2.221-.67-10.61-4.89-20.539-6.37-31.019-2.35-11.68-1.79-23.619-1.6-35.449-1.96-3.52-3.761-7.141-5.861-10.571zm-18.953 24.379c6.459.352 8.348 12.152 1.584 14.602-7.71 1.37-11.189-10.22-4.619-13.99 1.097-.478 2.112-.662 3.035-.612zm-43.826.127c6.714-.132 8.451 12.395 1.4 14.434-7.53 1.62-10.02-11.049-3.64-13.959.796-.31 1.545-.461 2.24-.475zm-1.86 27.065c6.964.158 8.243 13.706.35 14.558-7.42.32-8.359-10.978-2.689-14.148.838-.299 1.619-.427 2.339-.41zm48 1.008c6.964.154 8.243 13.717.34 14.55-7.41.32-8.359-10.988-2.679-14.138.838-.3 1.619-.428 2.339-.412zm-114.58 31.511c-7.25 1.1-14.401 2.809-21.541 4.449-6.61 2.4-15.58 2.31-20 8.25 3.44 12.13 11.381 22.611 19.211 32.331 3.11-3.05 5.74-6.56 9.03-9.43 1.06 4.51 1.119 10.089 5.519 12.859 7.14 4.87 16.2 1.671 24 3.951 7.53 3.39 10.751 11.989 17.711 16.219 6.44 4.26 14.511 2.731 21.721 2.131 5.54-.8 13.209-4.83 17.109 1.24 3.06 4.16 7.759 6.469 12.449 8.299 1.39.07 2.801.15 4.211.24 12.68-2.58 21.88-13.349 34.59-15.869 6.82-1.6 12.18 5.03 18.9 4.17 5.39-1.14 9.6-5.039 13.64-8.529 3.8-3.58 7.55-7.37 12.15-9.92 3.74-2.25 7.19 2.069 10.95 1.949 3.51-1.05 6.21-3.741 9.03-5.971 2.52-3.32 5.54-7.188 4.47-11.648-1.2-4.35-5.59-6.54-9.17-8.66-5.17-2.15-10.24-4.851-15.83-5.651-5.65 7.85-11.84 18.069-23.22 16.299-7.91 1-2.86-11.358-9.9-11.728-7.82 2.77-10.071 11.899-13.071 18.759-2.86 6.94-12.068 4.191-17.558 2.571-6.03-1.7-1.331-10.992-7.541-12.432-7.05-1.61-14.51.182-21.11 2.772-3.23 1-3.27 4.82-4.74 7.32-5.57.98-11.421 1.53-17.051.76-1.22-4.22 1.54-10.201-2.92-12.981-3.72-2.3-7.759-4.229-12.019-5.269-5.41-1.38-8.84 4.738-14.07 4.648-5.95.36-11.32-2.759-15.44-6.779-3.98-3.98-10.449-4.201-14.019-8.551.06-5.58 3.199-10.479 4.509-15.799zm-52.002 61.58c-.307-.005-.642.022-1.007.08-9.07 2.4-20.541 8.011-21.081 18.741 1.28 6.25-5.44 8.699-9.06 12.289-4.6 3.54-6.79 9.129-10.9 13.109-9.78 10.08-21.65 17.84-33.45 25.33-26.7 17.88-54.75 33.961-83.91 47.471-13.93 6.4-29.409 9.691-41.939 18.881-16.66 15.19-37.47 24.84-54.75 39.25-2.67 2.31-6.071 5.659-4.471 9.549 3.97 9.67 14.2 16.08 24.52 16.33 9.38-.65 16.93-6.881 25.13-10.811 5.02-2.32 9.77-7.01 15.67-6.09 3.49 7.83 11.55 12.772 20.18 11.942 13.98 1.52 25.289-11.091 28.359-23.651 1.15-2.66 4.601-3.38 5.811-6.01 2.74-5.82 2.201-12.539 4.641-18.429 1.67-2.51 4.269-4.231 6.169-6.571 2.9-3.21 5.979-6.69 10.299-7.89 26.28-5.43 52.851-10.41 77.981-20.11 7.16-3.08 14.611-6.21 20.211-11.81 8.67-9.34 16.59-19.339 24.67-29.199 3.17-3.54 6.289-7.702 10.949-9.282 5.81-.07 11.121 3.241 16.971 2.961 2.71-.01 5.488-2.15 5.628-4.97.42-6.52-.23-13.07.35-19.59-.34-8.79-1.108-17.63-3.228-26.18-.83-2.28-1.492-6.211-4.772-5.551-9.61 1.16-18.739 4.63-28.029 7.17.4-2.29 1-4.529 1.57-6.769.384-3.225 2.096-10.116-2.512-10.19zm334.712 57.061c11.4 15.05 21.02 31.348 30.89 47.408 18.54 30.08 35.17 62.95 37.84 98.74 3.86 22.92-.99 46.291-5.57 68.801 13.65-11.04 25.38-24.869 33.1-40.699 5.45-11.08 4.27-23.791 1.26-35.371-13.56-56.41-49.67-106.429-97.52-138.879zm-157.128 31.973c-1.438-.025-2.869.369-4.252 1.376-8.03 9.25-11.69 21.27-17 32.11-3.97-10.69-3.75-22.421-6.58-33.401-2.22.06-4.379.561-6.509 1.081-6.01 2.54-11.862 5.42-17.692 8.33-.45 3.59-.539 7.229-.529 10.849.6 11.37 6.041 22.311 4.301 33.811 1.16 11.5 7.158 22.75 4.218 34.51-2.44 8.25-3.389 16.8-4.269 25.33-1.91 18.95-3.811 37.89-5.061 56.9-2.73 25.1-17.049 46.989-23.109 71.199-.2 14.92 5.86 29.121 10.98 42.901 3.94 9.2 8.211 19.43 17.311 24.66 12.5 6.85 27.449 10.401 41.559 7.461 9.73-2.12 16.64-12.521 13.25-22.241-7.44-19.84-28.84-28.891-40.5-45.541-4.02-7.03-3.31-15.528-1.68-23.138 3.83-19.92 13.159-38.142 22.029-56.192 5.46-11.69 12.91-22.468 16.75-34.888 7.121-22.57 6.141-46.931 2-69.981-4.56-17.08 6.741-32.54 11.831-48.09 1.04-4.31-2.72-7.58-4.97-10.74-3.375-2.385-7.762-6.232-12.078-6.306z" fill="#434343"/>
    <path id="color2" d="m957.936 171.955c-11.671-.106-23.392 3.646-32.625 11.035h.019c-1.21 3.7-5.819 3.56-8.369 5.91-6.87 5.99-8.061 15.57-12.381 23.18-2.55-8.9-3.56-18.709-9.34-26.279-2.5-3.48-6.941-4.001-10.871-3.551-11.65 5.21-22.17 12.939-31.01 22.109-3.7 3.26-3.38 9.541-8.24 11.651-7.1 3.51-14.938 5.111-22.408 7.631-25.27 6.42-47.621 26.439-53.951 52.119-1.28 11.67-3.291 24.55 2.099 35.47-.32-11.79-2.059-26.641 8.141-34.941 5.68 19.75 19.78 37.61 39.83 43.99-1.23-2.13-2.54-4.249-3.24-6.619 10.91 3.11 21.9 6.55 33.33 7.16-13.43-7.59-25.529-19.249-30.619-34.099-5.72-15.72-.971-36.691 14.969-44.451 10.37-6.12 22.799-3.929 34.009-6.959 4.63-1.03 8.93-3.051 13.34-4.741-15.83 35.23-27.86 72.91-29.43 111.77 2.39-4.12 6.182-9.359 11.702-7.449 2.55 2.25 2.06 6.199 2.57 9.279 15.39-7.47 29.378-19.859 47.328-20.109 6.85-.65 13.941.199 20.481-2.401-.04-3.47 1.99-6.13 4.63-8.15 1.15-1.2 2.29-2.431 3.44-3.651-.29-6.03-6.299-8.39-9.959-12.17-4.41-4.04-6.53-10.1-11.58-13.49-5.09-3.47-11.091-6.458-14.061-12.148 7.94-14.2 12.14-31.33 25.51-41.83 1.6 11.28 2.36 24.419 12.76 31.609-3.13-8.79-4.44-18.2-4.18-27.51 8.1 4.05 12.88 12.41 19.25 18.59 4.62 4.23 6.52 10.341 9.99 15.391 4.36-10.55 2.45-22.062.69-32.932 6.6 4.53 11.731 11.061 14.961 18.361-.02-3.44-.092-6.89.228-10.33 4.67 3.51 8.562 7.92 12.692 12.03 3.359 2.88.228 7.169-.102 10.689-1.57 6.31 2.451 11.941 3.471 17.951-2.92 2.37-8.11-1.051-9.68 3.219-2.63 4.87-5.51 9.651-9.76 13.281-3.53 2.81-1.89 7.75-2.3 11.61 2.7-3.8 5.04-10.62 10.5-10.2 2.53 8.42 1.31 17.459 1.24 26.129.31-2.08.66-4.169 1.25-6.199 3.59-1.03 7.259.039 10.52 1.619 15.06 2.68 26.97 12.791 40.43 19.311-.58-4.2-1.06-8.549 0-12.709 6.07-1.98 10.51 3.669 14.35 7.389 2.83-3.8 4.92-9.55 10.41-9.92 2.72.32 2.99 3.3 3.56 5.42 2.05-5.51 5.82-11.979 12.47-12.059 4.23-.3 10.75.709 11.03 6.049.06 7.27-5.89 12.36-9.78 17.83 3.84 5.91 7.49 12.53 14.18 15.64 8.89 5.57 19.71 3.06 29.58 3.78 19.39 1.44 38.86.42 58.29 1-20.24-12.38-41.18-23.641-61.24-36.321-29.46-19.97-54.23-46.029-76.2-73.849-2.94-4.08-6.52-7.761-8.6-12.391 9.89 1.48 19.7 3.58 29.71 4.17 19.03 2.37 38.57-1.669 57.26 3.781 11.62 3.6 24.08 8.409 31.47 18.629 6.45 9.36 6.04 21.1 4.31 31.83 2.97-3.68 6.44-6.939 9.38-10.619 3.1-7.99-.3-16.491.56-24.711 10.86 5.62 14.16 18.391 17.64 29.121 1.86-13.34-3.33-26.489-9.31-38.179-6.09-12.34-16.24-23.501-29.97-27.041-18.35-5.1-37.72-2.73-56.37-6.18-12.08-.43-23.05-6.569-30.31-16.119-9.51-11.99-21.98-22.931-37.65-25.201-4.32-.13-9.42-.33-12.53 3.23-5.56 6.43-4.92 15.52-4.6 23.44-5.8-10.64-13.969-20.51-23.889-27.45-8.47-6.253-18.728-9.351-29.025-9.445zm-39.219 33.328c1.804.268 3.218 5.581 4.193 7.887-2.9 3.57-6.53 6.659-8.42 11.019-5.86-5.95.55-13.408 3.86-18.888.123-.03.246-.036.367-.018zm72.392.877c2.65 1.22 5.271 2.57 7.661 4.27.65 3.5.481 7.101.191 10.631-2.73-1.54-5.441-3.202-7.711-5.362-.47-3.16-.461-6.369-.141-9.539zm92.951 121.867c-.49-.012-1.01.121-1.53.444-4.42 2.34-7.25 6.94-8.77 11.58 2.54.89 5.19 1.779 7.92 1.769 2.93-2.13 5.58-5.18 6.24-8.84.05-2.096-1.71-4.898-3.86-4.953zm-51.97 45.303c-7.24.138-14.05 2.834-20.97 5.109 14.1 28.24 32.39 55.972 60.25 72.202-4.92 1.4-10.09 3.03-15.25 2.33-5.86-1.85-9.91-6.862-13.96-11.192-12.37-14.71-21.98-31.468-31.28-48.218-2.18 12.6-4.8 25.119-6.7 37.759 8.49 14.56 19.61 27.831 34.15 36.651-6.79 1.25-15.75 4.959-21.25-1.041-5.71-6.15-10.58-13.049-14.93-20.209-.19 11.83-.75 23.769 1.6 35.449 1.48 10.48 5.7 20.409 6.37 31.019 5.4-.32 9.27-4.329 14.06-6.179 7.26-1.23 14.47 1.31 21.39 3.26 5.59 2 11.78 3.85 15.81 8.47 2.81 4.35-.62 8.92-3.74 11.92-4.41 4.27-5.55 10.511-8.59 15.641 3.58 2.12 7.97 4.31 9.17 8.66 1.07 4.46-1.95 8.328-4.47 11.648 8.53 6.46 17.2 12.74 25.63 19.33 11.79-13.29 27.55-21.939 42.43-31.209 19.32-15.58 27.14-40.849 31.68-64.349 6.85 28.46 5.57 60.599-9.72 86.269-8.08 13.98-21.17 24.72-35.97 30.94 4.39 3.09 8.57 6.45 12.89 9.64 28-7.12 53.24-23.63 72.16-45.33 21.04-24.18 28.52-58.231 23.06-89.461 11.95 20.08 15.66 44.591 12.1 67.571-1.73 14.01-6.55 27.68-14.82 39.17 21.39-12.98 32.59-37.73 36.34-61.67 2.49-12.83.93-25.95 1.45-38.92-10.19-5.65-18.26-15.97-30.44-17.16-38.34-8.36-72.78-31.409-97.09-61.959-1.74-1.7-4.4-1.72-6.59-2.41-12.73-2.84-24.41-8.811-36.1-14.321-4.5 1.98-7.52 7.24-12.68 8.35-5.24 1.04-11.3-.031-14.99-4.151-3.64-3.79-3.85-9.329-4.75-14.209-4.83-1.45-8.37-5.04-11.17-9.05-1.72-.278-3.41-.382-5.08-.35zm-138.43.965c-6.53-.115-13.067 2.241-19.371 4.125-.72.95-1.439 1.899-2.109 2.869.38 8.93-.529 19.851-8.539 25.391-8.73 4.38-17.831-1.19-25.641-4.93-4.79 2.1-8.931 5.41-13.461 7.99-2.45 6-5.649 11.649-9.369 16.949-.6 14.14.53 28.332-.93 42.442-3.33 36.42-11.851 72.859-28.951 105.379 9.86.99 19.652-1.03 29.352-2.53-10.82 7.51-23.421 12.83-36.381 15.28-3.45 5.04-6.69 10.24-10.67 14.9 7.39.62 15.71-.729 23.39-1.519.54-10.73 12.011-16.341 21.081-18.741 5.85-.94 3.929 6.67 3.519 10.11 9.74-8.22 17.77-18.14 27.16-26.74-7.83-9.72-15.771-20.201-19.211-32.331 4.42-5.94 13.39-5.85 20-8.25-1.8-6.51-.279-13.529 2.481-19.529 3.3-5.36 10.61-4.25 15.99-4.51 10.46.69 21.189-1.361 31.439 1.459 9.69-13.98 15.591-30.989 14.801-48.119.47-22.18-3.95-44.04-6.26-66.01-.47-3.91-.241-7.87.559-11.72-2.944-1.35-5.91-1.913-8.879-1.965zm246.59 35.713c-.86.009-1.72.033-2.58.072 6.24 6.89 13.87 12.35 21.08 18.17 14.5 10.72 29.85 21.34 47.47 26.07-5.52-7.42-8.55-16.719-15.9-22.689-4.17-3.72-9.97-4.421-14.57-7.381-6.24-3.62-10.09-10.871-17.52-12.461-5.9-1.207-11.96-1.847-17.98-1.781zm-335.369 31.351c-3.57 6.28-4.532 13.621-7.342 20.241-14.07 37.72-34.83 74.289-66.1 100.339 12.94 6.64 27.491 10.171 41.881 12.151 19.9-32.85 25.671-71.79 30.321-109.27.6-7.8 2.11-15.631 1.24-23.461zm-15.481 18.532c-21.03 21.36-50.58 35.47-80.98 33.16-11.54 11.29-23.16 22.578-36.27 32.058-10.23 7.3-20.439 14.862-28.769 24.352-5.9 8.02-12.712 15.338-19.272 22.818 15.94-11.94 32.771-26.8 53.891-26.67 14.55-.99 27.74 5.891 40.98 10.621 31.91-24.7 56.31-58.589 70.42-96.339zm489.64 46.629c9.8 19.97 11.79 42.709 9.11 64.589 7.56-16.2 11.61-34.27 10.69-52.17-2.98-1.62-5.8-3.498-8.54-5.468-3.8-2.26-7.58-4.531-11.26-6.951zm-673.56 65.291c-4.2 7.32-5.501 15.939-6.531 24.199 8.01-7.75 15.841-15.699 24.291-22.959-1.96 1.19-3.959 2.429-6.179 3.039-3.5-2.36-7.261-4.239-11.581-4.279zm120.37 13.279c7.54 5.66 15.58 10.689 23.81 15.279 3.69-3.4 7.341-6.848 10.801-10.488-11.68-.41-23.431-.951-34.611-4.791zm224.429 15.449c-.03 6.12-.509 12.231-1.209 18.311 2.23.02 4.481.03 6.731.05.03-6.07-.351-12.131-1.311-18.121-1.41-.09-2.821-.17-4.211-.24z" fill="#ecb7ba"/>
    <path id="color3" d="m931.23 230.221c-13.37 10.5-17.569 27.63-25.509 41.83 2.97 5.69 8.968 8.678 14.058 12.148 5.05 3.39 7.17 9.45 11.58 13.49 3.66 3.78 9.671 6.14 9.961 12.17 4.41 4.94 12.141 3.532 16.071 9.112 2.76.17 5.219-3.27 7.519-4.92 3.69-4.93 11.11 2.229 14.34-1.871.41-3.86-1.229-8.8 2.301-11.61 4.25-3.63 7.13-8.411 9.76-13.281 1.57-4.27 6.759-.849 9.679-3.219-1.02-6.01-5.04-11.641-3.47-17.951.33-3.52 3.46-7.809.099-10.689-4.13-4.11-8.019-8.52-12.689-12.03-.32 3.44-.251 6.89-.231 10.33-3.23-7.3-8.359-13.831-14.959-18.361 1.76 10.87 3.671 22.382-.689 32.932-3.47-5.05-5.37-11.161-9.99-15.391-6.37-6.18-11.15-14.54-19.25-18.59-.26 9.31 1.049 18.72 4.179 27.51-10.4-7.19-11.16-20.329-12.76-31.609zm71.53 93.308c-2.08 5-6.92 7.441-12.16 7.461-.43 1.91.059 3.84.849 5.6 6.14 14.14 12.331 28.279 19.671 41.849 8.52-2.8 16.87-6.239 26.05-4.759-1.31-3.82-3.95-7.941-2.53-12.061 2.2-3.99 7.53-2.828 11.25-3.978.22-5.07-1.65-9.911-2.7-14.801-13.46-6.52-25.37-16.631-40.43-19.311zm-89.99.532c-17.95.25-31.941 12.639-47.331 20.109.02 3.73.071 7.469.491 11.189 3.88-1.9 8.991-7.879 13.131-3.429 2.8 9.11-1.952 18.02-4.772 26.49 9.17-2.74 18.83-6.48 28.25-2.16 3.62-1.82 7.31-3.55 11.25-4.59 2.78-.84 5.63-1.421 8.49-1.971 6.73-1.48 13.571-2.34 20.401-3.25 4.44-.31 7.311-4.518 8.621-8.388-2.01-3.13-4.91-5.541-7.58-8.081-2.26.71-5.151 2.891-7.141.571-5.81-5.31-7.62-13.591-13.16-19.121-3.73-2.46-10.73-1.199-10.65-7.369zm44.89 9.75c-4.18 2.3-6.28 6.9-9.07 10.57 3.22 3.51 5.861 7.559 9.461 10.719 3.84-3.06 6.549-7.239 9.799-10.879-3.18-3.67-6.27-7.5-10.19-10.41zm30.41 11.589c-2.08 1.86-4.21 3.68-6.23 5.61.03 5.62.051 11.359 1.371 16.849 2.89.6 5.809 1.13 8.689 1.83 2.46.59 4.951 1.092 7.491 1.362-3.69-8.58-7.281-17.251-11.321-25.651zm-16.73 2.6c-2.55 3.7-6.9 7.099-6.77 11.939 2.15 5.52 9.15 5.591 14.02 7.161-.16-4.93-.33-9.869-.41-14.799-2.28-1.45-4.58-2.841-6.84-4.301zm-12.985 12.682c-.305-.043-.602.101-.884.539-7.19 7.77-13.641 17.759-12.901 28.779 1.46 12.34 21.53 15.65 26.44 4.01 4.16-11.23-3.17-22.461-10.01-30.891-.758-.517-1.73-2.311-2.645-2.437zm-106.585 195.158c-3.29 2.87-5.92 6.38-9.03 9.43-9.39 8.6-17.42 18.52-27.16 26.74-.57 2.24-1.17 4.479-1.57 6.769 9.29-2.54 18.419-6.01 28.029-7.17 3.28-.66 3.942 3.271 4.772 5.551 2.12 8.55 2.888 17.39 3.228 26.18 24.83-7.31 50.202-16.01 70.682-32.34-7.21.6-15.281 2.129-21.721-2.131-6.96-4.23-10.181-12.829-17.711-16.219-7.8-2.28-16.86.919-24-3.951-4.4-2.77-4.459-8.349-5.519-12.859zm169.85 24.711c-4.04 3.49-8.25 7.389-13.64 8.529-6.72.86-12.08-5.77-18.9-4.17-12.71 2.52-21.91 13.289-34.59 15.869.96 5.99 1.341 12.051 1.311 18.121.73 17.69 1.28 35.42.51 53.12 2.13-.52 4.289-1.021 6.509-1.081 2.83 10.98 2.61 22.711 6.58 33.401 5.31-10.84 8.97-22.86 17-32.11 5.53-4.03 11.83 1.75 16.33 4.93 7.39-31.93 16.68-63.779 18.89-96.609z" fill="#f2d6c0"/>
    <path id="color4" d="m989.75 301.98c-5.46-.42-7.8 6.4-10.5 10.2-3.23 4.1-10.65-3.059-14.34 1.871.47 2.23 1.001 4.47 1.221 6.76-10.07 1.39-19.55-2.781-28.25-7.301-2.64 2.02-4.671 4.68-4.631 8.15 8.84 9.46 22.88 7.371 34.49 6.731 1.21 3.97 1.59 8.209 3.53 11.959 3.13-1.27 5.091-4.17 7.451-6.44-.32 6.12-.561 12.251-.541 18.391.08 4.93.25 9.869.41 14.799.06 11.49 1.76 22.751 4.4 33.871 1.48 4.98 3.24 9.868 4.83 14.818 1.56 4.19 3.681 8.511 2.891 13.111-3.33 21.63-8.901 43.781-4.191 65.651 1.09 6.4 3.949 12.429 4.339 18.959-5.5.5-11.119-.49-16.509.91-1.37 3.7.169 7.651.759 11.381 3.51 4.42 5.511 9.19 3.721 14.84 4.82.12 10.5.81 14.6-2.25.76-5.47-.35-11.01.09-16.51 5.52 4.42 9.06 11.789 16.15 13.949 3.47-4.11 6.45-9.19 6.76-14.67-3.05-1.68-7.94-1.58-8.73-5.75-1.19-2.74-2.01-5.82-4.24-7.93-2.03-1.78-5.921-1.14-6.771-4.14-7.91-21.68-3.64-45.05-.4-67.19 2.1 3.43 3.901 7.051 5.861 10.571 4.35 7.16 9.22 14.059 14.93 20.209 5.5 6 14.46 2.291 21.25 1.041-14.54-8.82-25.66-22.091-34.15-36.651-2.94-5.35-6.979-10.87-6.039-17.33 1.869-14.02.689-28.179 1.099-42.269 4.32 7.03 7.47 14.71 11.64 21.84 9.3 16.75 18.91 33.508 31.28 48.218 4.05 4.33 8.1 9.342 13.96 11.192 5.16.7 10.33-.93 15.25-2.33-27.86-16.23-46.15-43.962-60.25-72.202-7.34-13.57-13.531-27.709-19.671-41.849-.79-1.76-1.279-3.69-.849-5.6.1-.72.29-2.161.39-2.881.07-8.67 1.29-17.709-1.24-26.129zm-6.699 30.36c2.28 4.06 3.789 8.57 5.019 13.06 4.04 8.4 7.631 17.071 11.321 25.651-2.54-.27-5.031-.772-7.491-1.362.09 12.13 1.65 24.231.62 36.381-1.54-4.47-3.92-8.95-4.26-13.66-2.3-4.19-2.74-9.83-3.25-14.75-1.7-2.53-1.079-6.661-1.799-9.801-1.32-5.49-1.341-11.229-1.371-16.849-.09-6.23.071-12.53 1.211-18.67zm-60.772 37.359c-2.86.55-5.71 1.131-8.49 1.971.16 9.78-.248 19.56.092 29.34.09 6.91 4.07 13.06 4.01 19.97-.06 15.68-.061 31.36-.041 47.03.31 9.66.65 19.591-2.03 28.961-8.05-.65-14.83 5.569-18.33 12.279-1.3 3.02-5.141 2.7-7.701 3.98.49 3.89 2.72 9.001 7.07 9.491 5.16-1.65 8.961-8.18 15.121-5.67-3.79 4.96-6.749 11.099-4.419 17.439 3.53 1.4 9.219 1.29 10.759-2.9 1.04-3.06 3.09-5.55 5.61-7.51 3.54-3.85 6.94-8.65 6.3-14.18-3.74-.45-7.5-.059-11.24-.259 1.4-5.97 5.169-11.312 5.199-17.612.84-22.34 2.092-44.709.872-67.049-2.67-18.28-3.002-36.821-2.782-55.281z" fill="#bc4c62"/>
    <path id="color5" d="m941.32 309.859c-1.15 1.22-2.289 2.451-3.439 3.651 8.7 4.52 18.18 8.691 28.25 7.301-.22-2.29-.751-4.53-1.221-6.76-2.3 1.65-4.759 5.09-7.519 4.92-3.93-5.58-11.661-4.172-16.071-9.112zm53.619 11.647c-.899.02-1.801.147-2.699.404-.59 2.03-.94 4.119-1.25 6.199-.1.72-.29 2.161-.39 2.881 5.24-.02 10.08-2.461 12.16-7.461-2.45-1.185-5.121-2.083-7.821-2.023zm-61.689.154c-6.54 2.6-13.63 1.751-20.48 2.401-.08 6.17 6.92 4.909 10.65 7.369 5.54 5.53 7.35 13.811 13.16 19.121 1.99 2.32 4.881.139 7.141-.571 1.62-1.87 3.269-3.709 4.869-5.599 2.79-3.67 4.89-8.27 9.07-10.57 3.92 2.91 7.01 6.74 10.19 10.41 1.14 1.27 2.3 2.539 3.49 3.779 2.26 1.46 4.56 2.851 6.84 4.301-.02-6.14.221-12.271.541-18.391-2.36 2.27-4.321 5.17-7.451 6.44-1.94-3.75-2.32-7.989-3.53-11.959-11.61.64-25.65 2.729-34.49-6.731zm134.72 5.94c-5.49.37-7.58 6.12-10.41 9.92h-.02c-3.84-3.72-8.28-9.369-14.35-7.389-1.04 4.16-.56 8.509 0 12.709 1.05 4.89 2.92 9.731 2.7 14.801-3.72 1.15-9.05-.012-11.25 3.978-1.42 4.12 1.22 8.241 2.53 12.061 2.8 4.01 6.34 7.6 11.17 9.05-.78-11.2.49-23.49 8.24-32.24 3.25-4.25 8.11-6.63 12.49-9.47 1.22-2.52 1.67-5.33 2.46-8-.57-2.12-.84-5.1-3.56-5.42zm-84.919 4.74c-1.14 6.14-1.301 12.44-1.211 18.67 2.02-1.93 4.15-3.75 6.23-5.61-1.23-4.49-2.739-9-5.019-13.06zm-122.17 2.152c-4.456-.22-7.62 4.243-9.711 7.848-.23.33-.69.98-.92 1.31-2.65-2.78-6.131-7.38-10.471-4.91-3.16 3.06-2.789 8-2.449 12.03 16.13 2.42 32.28 13.439 34.85 30.519.67-.97 1.389-1.919 2.109-2.869 2.82-8.47 7.572-17.38 4.772-26.49-4.14-4.45-9.251 1.529-13.131 3.429-.42-3.72-.471-7.459-.491-11.189-.51-3.08-.02-7.029-2.57-9.279-.69-.239-1.352-.367-1.988-.399zm556.899 96.682c-.6-.039-1.13.116-1.42.846-11.26 15.62-24.9 31.17-43.59 37.71-11.53 4.7-21.41 12.42-31.92 18.93-15.87 10.15-33.47 17.061-50.55 24.811 2.74 1.97 5.56 3.848 8.54 5.468 8.53 4.14 16.42 9.641 25.34 12.981 3.89.57 7.95-1.38 10.86-3.93 9.61-4.19 23.06 1.75 30.44-7.57 3.02-.85 7.36 2.21 9.39-1.49 2.96-3.37-.57-8.81 2.38-11.83 5.82-1.81 11.76 1.53 17.67 1.31 2.92-.09 4.56-3.99 7.65-3.01 4.58 1.25 9.17-.6 13.31-2.42 1.52-4.2 3.93-7.97 7.85-10.31 4.26-2.49 1.01-8.471 4.48-11.481 8.1-9.45 22.98-9.319 29.78-20.209 1.76-1.6 4.39-2.47 4.96-5.07.8-4.59 8.13-2.39 8.74-7.07.21-3.37 1.94-9.749-3.02-10.199-16.51-1-32.87-3.711-49.02-7.151-.58-.045-1.26-.277-1.87-.316zm-906.364 38.732c-6.136-.048-12.225.945-17.945 3.555-4.02 2.01-10.17 4.06-10 9.51.08 5.47 4.889 8.768 7.549 12.968-1.42 2.37-4.629 4.021-4.469 7.061 1.77 3.3 6.2 3.85 8.09 7.08 1.3 3.29 5.44 2.37 7.74 4.49 3.5 3.69 9.16 2.061 13.18 4.891 3.86 2.9 10.22-.621 12.83 4.129 2.51 3.43 7.788-.199 10.718 2.461 3.1 3.84 2.952 9.039 4.112 13.619 1.65 2.5 6.23 1.87 6.91 5.26 1.06 6.08 8.84 3.471 12.76 6.121 1.38 1.32 2.038 3.698 4.218 3.898 8.84 1.36 17.07 4.921 25.51 7.701 2.82.46 2.76 4.48 5.41 5.28 2.73.79 5.231 2.101 7.451 3.881 4.32.04 8.081 1.919 11.581 4.279 2.22-.61 4.219-1.849 6.179-3.039.22-.19.649-.572.869-.772 6.56-7.48 13.372-14.798 19.272-22.818-9.96-3.54-19.5-8.471-27.67-15.231-4.57-3.79-8.091-8.881-13.481-11.621-9.67-5.16-20.659-6.908-30.669-11.228-17.9-7.25-35.76-19.571-41.92-38.781-5.905-1.555-12.089-2.645-18.225-2.694zm366.383 30.676c-5.271.074-10.569.413-15.799.068-5.38.26-12.69-.85-15.99 4.51-2.76 6-4.281 13.019-2.481 19.529 7.14-1.64 14.291-3.349 21.541-4.449-1.31 5.32-4.449 10.219-4.509 15.799 3.57 4.35 10.039 4.571 14.019 8.551 4.12 4.02 9.49 7.139 15.44 6.779 5.23.09 8.66-6.028 14.07-4.648 4.26 1.04 8.299 2.969 12.019 5.269 4.46 2.78 1.7 8.761 2.92 12.981 5.63.77 11.481.22 17.051-.76 1.47-2.5 1.51-6.32 4.74-7.32 6.6-2.59 14.06-4.382 21.11-2.772 6.21 1.44 1.511 10.732 7.541 12.432 5.49 1.62 14.698 4.369 17.558-2.571 3-6.86 5.251-15.989 13.071-18.759 7.04.37 1.99 12.728 9.9 11.728 11.38 1.77 17.57-8.449 23.22-16.299 5.59.8 10.66 3.501 15.83 5.651 3.04-5.13 4.18-11.371 8.59-15.641 3.12-3 6.55-7.57 3.74-11.92-4.03-4.62-10.22-6.47-15.81-8.47-6.92-1.95-14.13-4.49-21.39-3.26-4.79 1.85-8.66 5.859-14.06 6.179-.83.72-1.63 1.461-2.42 2.221.79 4.17 5.68 4.07 8.73 5.75-.31 5.48-3.29 10.56-6.76 14.67-7.09-2.16-10.63-9.529-16.15-13.949-.44 5.5.67 11.04-.09 16.51-4.1 3.06-9.78 2.37-14.6 2.25 1.79-5.65-.211-10.42-3.721-14.84-7.12 3.61-13.989 8.708-22.119 9.558-10.45-1.21-19.71-6.849-29.06-11.279-2.52 1.96-4.57 4.45-5.61 7.51-1.54 4.19-7.229 4.3-10.759 2.9-2.33-6.34.629-12.479 4.419-17.439-6.16-2.51-9.961 4.02-15.121 5.67-4.35-.49-6.58-5.601-7.07-9.491 2.56-1.28 6.401-.96 7.701-3.98-2.83-1.58-7.491-3.511-4.051-7.141-5.125-1.41-10.369-1.601-15.64-1.527z" fill="#dfe0dd"/>
    <path id="color6" d="m985.01 377.66c.51 4.92.95 10.56 3.25 14.75 4.19-4.64 4.23-13.69-3.25-14.75zm-53.219.01c-.759-.038-1.59.087-2.49.41-5.18 3.2-5.03 13.181 1.67 14.311 8.781 1.241 8.159-14.354.82-14.721zm51.199 23.301c-5.82 4.53-4.19 17.278 4.83 14.818-1.59-4.95-3.35-9.838-4.83-14.818zm-51.791 3.758c-.597.028-1.228.157-1.888.402-4.39 2.75-5.201 10.36-.651 13.34 2.1 1.47 5.21.979 6.85-.981 4.132-3.951 1.466-13.036-4.311-12.761zm48.354 27.992c-.69.013-1.432.16-2.223.468-6.47 2.89-4.18 15.571 3.59 13.901 7.014-2.003 5.298-14.494-1.367-14.369zm-46.994.004c-.689.011-1.43.158-2.219.464-6.47 2.89-4.18 15.561 3.57 13.911 7.033-2.021 5.302-14.489-1.351-14.375zm44.777 27.804c-.923-.05-1.938.134-3.035.612-6.57 3.77-3.091 15.36 4.619 13.99 6.764-2.45 4.875-14.25-1.584-14.602zm-43.826.127c-.695.014-1.444.165-2.24.475-6.38 2.91-3.89 15.579 3.64 13.959 7.051-2.039 5.314-14.566-1.4-14.434zm-1.86 27.065c-.72-.017-1.501.111-2.339.41-5.67 3.17-4.731 14.468 2.689 14.148 7.893-.852 6.614-14.4-.35-14.558zm48 1.008c-.72-.016-1.501.112-2.339.412-5.68 3.15-4.731 14.458 2.679 14.138 7.903-.833 6.624-14.396-.34-14.55z" fill="#a8974d"/>
    <path id="color7" d="m1053.75 566.609c-2.82 2.23-5.52 4.921-9.03 5.971-3.76.12-7.21-4.199-10.95-1.949-4.6 2.55-8.35 6.34-12.15 9.92-2.21 32.83-11.5 64.679-18.89 96.609 2.25 3.16 6.01 6.43 4.97 10.74-5.09 15.55-16.391 31.01-11.831 48.09 4.141 23.05 5.121 47.411-2 69.981-3.84 12.42-11.29 23.198-16.75 34.888 19.53-.94 38.951-4.869 57.311-11.619 9.51-3.69 19.81-8.371 25.27-17.451 4.51-6.36-.78-15.299 4.8-21.269 8.72-8.82 20.82-12.85 32.22-16.94 27.76-8.19 57.16-13.561 86.09-9.461 13.57 2.01 26.72 8.66 33.7 20.91-2.67-35.79-19.3-68.66-37.84-98.74-9.87-16.06-19.49-32.358-30.89-47.408-8.78-7.51-18.61-13.771-27.09-21.651-4.32-3.19-8.5-6.55-12.89-9.64-9.7-6.89-19.43-13.841-28.42-21.651-8.43-6.59-17.1-12.87-25.63-19.33zm-122.709 22.348c-3.414.122-7.204 1.593-10.32 2.043-20.48 16.33-45.852 25.03-70.682 32.34-.58 6.52.07 13.07-.35 19.59-.14 2.82-2.918 4.96-5.628 4.97-5.85.28-11.161-3.031-16.971-2.961-4.66 1.58-7.779 5.742-10.949 9.282-8.08 9.86-16 19.859-24.67 29.199-5.6 5.6-13.051 8.73-20.211 11.81-25.13 9.7-51.701 14.68-77.981 20.11-4.32 1.2-7.399 4.68-10.299 7.89 27.4 18.72 59.86 27.041 90.79 37.901 7.24 3.04 15.561 5.049 20.781 11.369 3.5 4.5 1.789 10.32 1.719 15.5.19 8.6-.85 17.46 2.15 25.73 3.99 14.97 14.811 26.691 25.631 37.231 3.48 3.92 10.398 3.92 13.888 0 11.58-11 19.802-24.882 29.532-37.432 28.43-38.06 53.49-79.309 68.08-124.779 1.11-4.41 1.799.509 2.539 2.449-.01-3.62.079-7.259.529-10.849 4.25-20.34 8.421-40.76 10.451-61.5.7-6.08 1.179-12.191 1.209-18.311-4.69-1.83-9.389-4.139-12.449-8.299-1.706-2.655-4.134-3.377-6.789-3.283zm-322.842 58.004c13.3 18.82 29.411 35.409 45.461 51.879 29.16-13.51 57.21-29.591 83.91-47.471-25.95 3.46-52.27 9.402-78.57 5.762-17.27-1.5-34.281-4.98-50.801-10.17zm334.141 137.889c-12.92 18.27-25.37 36.951-39.17 54.611 11.35 1.33 22.759 1.299 34.109 2.289 1.25-19.01 3.151-37.95 5.061-56.9z" fill="#973437"/>
  </g>
</svg>
