<svg height="1080" width="1920" xmlns="http://www.w3.org/2000/svg">
  <path id="background" d="m0 0h1920v1080h-1920z" fill="#4d8f5b"/>
  <g id="transform" transform="translate(0,0) scale(1.00)">
    <path id="color1" d="m958.135 77.9746c-11.987.1184-23.994 4.4107-33.766 11.3145-7.58 7.24-15.269 14.5499-24.529 19.5799 3.38.47 6.789.121 10.199.221-5.11 15.55-5.568 31.99-8.828 47.93 2.16-2.13 3.388-5 5.578-7.12.29 5.38-.92 10.671-1.43 15.991 1.22-1.5 2.231-3.15 3.311-4.75.71 3.52.94 7.108 1.57 10.638 1.18-1.03.97-3.278 1.51-4.808.73-3.46 1.381-6.952 2.391-10.352 3.76 4.32 4.849 10.611 9.339 14.371-2.54-10.96.19-21.791 4.03-32.051 1.7 1.99 1.879 4.82 2.929 7.17 3.83-6.57 5.461-14.108 8.211-21.138.31 4.68-.329 9.34-1.259 13.92 3.69-3.93 4.898-9.29 7.298-13.93 2.69 8.34 4.282 17.389 9.362 24.699-.23-7.91-1.171-15.81-.901-23.74 6.42 8.25 11.071 17.839 17.321 26.109.35-9.01-.081-18.039-.141-27.049 2.96 5.56 4.981 11.53 7.471 17.29.5-4.41-.14-8.819-.49-13.219 3.47 4.58 5.759 9.899 8.349 14.949.47-.99.95-1.969 1.44-2.949 2.89 4.44 4.361 9.709 5.121 14.929.89-1.26 1.74-2.55 2.92-3.57.65 6.05-1.13 11.93-3.01 17.61 5.68-4.76 6.829-12.761 11.869-17.821 2.66 4 3.4 8.911 4.11 13.561-.55 2.73 1.77.15 1.6-.75.57-3.37.53-6.821 1.36-10.141 2.12.13 5.9 6.002 5.09 1.192-3.77-18.66-3.09-39.041-13.65-55.651-5.68-9.5198-15.699-15.3308-25.879-18.9608-5.944-2.4544-12.218-3.5366-18.496-3.4746z" fill="#4f4d4b"/>
    <path id="color2" d="m944.689 124.961c-2.4 4.64-3.608 10-7.298 13.93.93-4.58 1.569-9.24 1.259-13.92-2.75 7.03-4.381 14.568-8.211 21.138-1.05-2.35-1.229-5.18-2.929-7.17-3.84 10.26-6.57 21.091-4.03 32.051-4.49-3.76-5.579-10.051-9.339-14.371-1.01 3.4-1.661 6.892-2.391 10.352 1.49 5.31 6.12 11.109 11.91 12.539 2.24 3.62 4.12 7.57 7.43 10.41 4.75 3.62 4.781 10.201 4.631 15.631.97 3.33.029 8.228 4.029 9.638 6.09 2.57 3.42 10.582 5.6 15.702.41 4.44 6.519 4.628 7.009 8.978 1.04 4.07 2.56 8.031 4.76 11.631 1.23.07 2.481.05 3.731-.07 2.05-4.01 2.87-8.429 3.74-12.799.57-3.11 5.051-3.011 5.961-5.981 2.02-4.79 1.679-10.14 3.039-15.08 1.85-1.51 4.27-2.221 6.01-3.881.54-2.75.751-5.57 1.611-8.25-.27-4.07.23-8.399 1.92-12.119 4.09-4.04 7.218-8.82 10.238-13.66 7.391-1.16 9.711-9.37 14.741-13.9-.71-4.65-1.45-9.561-4.11-13.561-5.04 5.06-6.189 13.061-11.869 17.821 1.88-5.68 3.66-11.56 3.01-17.61-1.18 1.02-2.03 2.31-2.92 3.57-.76-5.22-2.231-10.489-5.121-14.929-.49.98-.97 1.959-1.44 2.949-2.59-5.05-4.879-10.369-8.349-14.949.35 4.4.99 8.809.49 13.219-2.49-5.76-4.511-11.73-7.471-17.29.06 9.01.491 18.039.141 27.049-6.25-8.27-10.901-17.859-17.321-26.109-.27 7.93.671 15.83.901 23.74-5.08-7.31-6.672-16.359-9.362-24.699zm-63.392 375.572c-1.834.071-4.555 3.44-5.518 5.207-1.52 6.71.161 13.719-.429 20.549 3.3-7.51 5.4-15.47 7.65-23.35-.219-1.79-.87-2.438-1.703-2.406zm161.073 1.807c-1.57 2.05-2.84 4.3-4.2 6.49 2.69 3.64 4.75 7.69 6.36 11.92 3.93-5.9 5.25-14.6-2.16-18.41z" fill="#f1dcbf"/>
    <path id="color3" d="m981.211 205.439c-.86 2.68-1.071 5.5-1.611 8.25-1.74 1.66-4.16 2.371-6.01 3.881-1.36 4.94-1.019 10.29-3.039 15.08-.91 2.97-5.391 2.871-5.961 5.981-.87 4.37-1.69 8.789-3.74 12.799 8.18-3.82 12.54-13.361 20-18.571.72 1.96 1.299 4.002 1.429 6.102-4.99 4.88-11.119 8.46-16.179 13.25.23 5.85-3.111 11.009-3.151 16.779 5.29 52.81 8.16 105.95 7.25 159.01-3.2 5.32-7 10.909-11.92 14.699-4.43-4.22-8.259-9.139-11.689-14.189-.67-9.79-.11-19.68-.25-29.51 1.32-41.07 2.691-82.23 7.121-123.09 2.71-8.21-3.201-15.611-2.701-23.711-5.31-4.74-11.52-8.609-16.09-14.119.45-2.09.62-4.66 2.31-6.17 6.49 6.53 11.199 16.55 20.139 19.59-2.2-3.6-3.72-7.561-4.76-11.631-.49-4.35-6.599-4.538-7.009-8.978-2.18-5.12.49-13.132-5.6-15.702-4-1.41-3.059-6.308-4.029-9.638-2.36.44-3.341 2.848-4.311 4.738-4.34 9.19-10.09 18.221-10.4 28.691.09 15.13 5.321 29.611 6.541 44.581 1.76 4.07 4.768 7.788 4.648 12.468.65 43.67-1.228 87.331-1.808 130.991.48 11.47-.171 23.11-3.151 34.24-2.9 9.12-8.35 17.099-12.9 25.439 1.9.76 3.84 1.512 5.83 2.102 1.37-.26 2.741-.521 4.141-.731 7.43-1.28 15.018-.099 22.468.391 1.43 3.56.3 7.909.26 11.769 6.97 2.27 14.581.969 21.721.129-6.51-1.75-13.41.572-19.84-1.308-.51-1.98.31-3.81 1.25-5.5-1.28-1.38-1.95-3.401-.44-4.901 5.71-.68 11.501-.16 17.241-.07 4.05-.19 7.879 2.881 11.869 1.231 3.3-1.17 6.821-1.211 10.291-1.051.82 0 2.44-.02 3.26-.03-2.8-16.44-5.85-32.97-5.68-49.73-.26-35.01 1.338-70.05-1.022-105.02-.35-14.58-3.36-29.54.43-43.89 7.36-13.95 14.131-29 14.231-45.08-.26-13.32-10.029-23.419-15.299-34.949-.89-1.83-2.02-3.602-3.84-4.622zm-70.988 86.434c-.24.015-.532.092-.883.246-3.33 16.84-3.74 34.291-3.86 51.221 1.34 3.01-.24 8.491 3.54 9.711.93-7.99-1.34-16.021-1-24.051.24-11.02.9-22.07 2.91-32.93.148-1.338.972-4.301-.707-4.197zm93.847 1.137c-.62.64-.85 1.44-.62 2.41 2.08 16.62 5.44 33.52 4.87 50.17 1.58 3.83-1.73 10.53 2.68 12.5 1.85-3.25.49-7.21 1.54-10.69-2.37-17.94-3.1-36.45-6.87-54.33-.4-.02-1.2-.05-1.6-.06zm-74.009 622.99c-5.42 4.98-13.28 4.321-19.17.631-.06 2.98 3.25 2.939 5.24 4.029-1.72 1.67-4.141 2.291-6.131 3.551.34 2.73 4.23 3.229 6.15 4.859-2.76 1.7-6.421 2.27-8.451 4.91 1.71 1.24 3.59 2.23 5.34 3.44-2.57 1.44-6.699 1.23-8.049 4.16 6.2-.49 12.231.989 18.321 1.779-1.09-2.2-3.031-3.749-4.641-5.509 2.86-.79 6.08-.411 8.74-1.821-1.64-2.82-4.62-4.369-6.68-6.799 2.76-1.21 5.929-1.471 8.459-3.191-1.73-2.27-4.599-3.199-6.709-5.019 2.82-1.6 10.251-.12 7.581-5.02zm21.298.75c-.11 10.52-12.659 14.87-12.619 25.32-.56 9.06-2.16 18.809-8.81 25.539-.69-5.12-1.521-10.519-4.991-14.589-7.6-9.58-23.268-10.25-32.128-2.01-6.59 4.62-5.72 13.78-4.75 20.73 13.31 8.58 33.91 8.73 45.08-3.66 5.71-7.61 6.348-17.58 8.298-26.51 9.68-3.79 11.23-15.8 9.92-24.82zm-32.242 5.408c2.58.017 5.297 1.803 6.832 3.582-4.44 2.34-9.719 3.229-13.519-.791 1.43-1.21 3.179-1.92 4.939-2.5.565-.206 1.153-.295 1.748-.291zm-1.697 8.291c2.95.07 5.55 2.802 7.41 5.012-4.7.24-9.981 2.569-13.801-1.441 1.02-2.11 4.301-2.531 6.391-3.571zm72.801 7.541c-2.81.8-5.691 1.6-8.151 3.24.5 2.93 4.89 2.68 7.01 4.27-2.31 1.57-5.98 1.491-7.26 4.211 3.71 1.05 7.61 1.348 11.26 2.648-.72 2.81-6.569 2.74-6.949 6.17 2.2.4 4.44.591 6.68.901-1.09 1.62-4.64 3.259-3.6 5.179 5.91-.68 11.819-.44 17.739.09-.12-4.21-5.75-3.659-7.899-6.019 1.319-.71 2.709-1.3 4.039-2.01-.59-2.55-5.311-3.029-3.391-5.959-1.23-1.74-3.12-2.861-4.66-4.281 3.66.26 6.151-.55 3.691-4.26-.93-.52-1.86-.979-2.82-1.369.64 1.25 1.309 2.519 1.789 3.869-4.58 1.29-9.238-.53-12.898-3.25 2.5-.9 5.068-1.59 7.648-2.24-.75-.41-1.488-.81-2.228-1.19zm-75.278.641c1.593.098 3.096.897 4.227 2.228-2.22-.46-5.781.301-7.131-1.609.96-.484 1.949-.678 2.904-.619zm76.311 8.564c2.499.021 4.921 1.966 6.365 3.856-3.69.96-8.019-1.461-11.709-2.551 1.38-.48 2.81-.919 4.27-1.189.357-.082.717-.119 1.074-.116zm5.164 6.573c1.542.069 3.086 1.14 4.062 2.302-3.12 2.03-6.881 2.759-10.441 1.469.27-2 2.9-2.188 4.33-3.158.647-.469 1.348-.645 2.049-.613zm-1.139 6.572c2.75-.11 5.561.84 7.841 2.39-3.711-.15-7.42-.33-11.12 0 .96-.96 1.919-2.04 3.279-2.39zm-32.808 7.699c-1.04 6.27.229 15.21 8.269 15.49.73 5.14.339 12.251 5.879 14.871 11.44 4.92 24.341 4.16 36.421 2.57 4-.61 8.68-.94 11.41-4.351.97-8 1.17-18.278-6.56-23.158-9.84-4.05-21.04-2.491-30.99.359-6.73 2.08-9.301 9.1-12.961 14.35-1.01-3.64-.678-7.55-1.978-11.09-1.7-4.37-6.71-5.601-9.49-9.041z" fill="#ebeeee"/>
    <path id="color4" d="m917.459 207.268c-1.495-.05-2.966.365-4.408 1.613-5.49 5.15-11.631 10.039-15.201 16.799-7.69-2.59-13.59 3.8-17.78 9.3-2.94 4.9-9.739 3.641-13.359 7.741-2.57 1.9-1.412 5.37-1.922 8.08-6.29 5.18-15.568 9.06-16.728 18.17-4.11 25.09-5.022 50.608-5.362 75.978-1.48 3.45-5.218 5.371-7.308 8.461-.54 6.41 2.129 12.431 3.459 18.551-.96 6.79-.69 14.349-5.01 20.059-1.5 4.11 3.76 7.661 2.23 11.951-2.37 10.84-2.33 21.989-2.91 33.019-.59 5.2 3.59 8.841 5.92 12.981-1.17 2.4-4.04 4.698-2.66 7.638 2.05 2.88 5.049 4.901 7.189 7.711-1.38 6.6-4.51 12.86-4.75 19.68-.09 8.28 5.941 14.92 6.881 23 1.65 7.14 1.05 14.569 2.51 21.699 5.79 6.08 15.81 6.182 20.74 13.352.84.95 4.48 3.37 4.17.84-1.99-5.98-.88-12.222 2.19-17.602.59-6.83-1.091-13.839.429-20.549 1.4-2.57 6.521-8.531 7.221-2.801 2.76 3.06 7.229 2.57 10.949 2.34 5.79-.27 8.7-5.999 12.66-9.379 2.61-3.04 5.211-6.091 7.731-9.201 4.55-8.34 10-16.319 12.9-25.439 2.98-11.13 3.631-22.77 3.151-34.24.58-43.66 2.458-87.321 1.808-130.991.12-4.68-2.888-8.398-4.648-12.468-1.22-14.97-6.451-29.451-6.541-44.581.31-10.47 6.06-19.501 10.4-28.691-4.77 1.455-9.466-2.872-13.951-3.021zm85.151 2.679c-.48-.008-.97.064-1.48.242-5.269 1.79-10.749.382-16.079-.128 5.27 11.53 15.039 21.629 15.299 34.949-.07 16.08-6.871 31.13-14.231 45.08-3.79 14.35-.78 29.31-.43 43.89 2.36 34.97.762 70.01 1.022 105.02-.17 16.76 2.88 33.29 5.68 49.73.99 11.02 3.929 23.7 13.839 30.12 11.28 5.86 25.35.33 31.94-10.02 1.36-2.19 2.63-4.44 4.2-6.49 7.41 3.81 6.09 12.51 2.16 18.41.14 4.86-1.26 9.49-2.66 14.08.88 2.54 5.1-2.63 6.86-4.1 2.92-4.84 9.22 1.909 12.05-2.951 5.02-7.35 11.18-14.349 14.27-22.759-1.34-10.69-5.12-20.991-6.72-31.661 2.29-3.08 5.73-5.35 7.07-9.08 1.06-3.88-.21-7.879.12-11.799 2.2-3.66 5.51-6.62 7.27-10.56.98-7.23-.13-14.59.52-21.84 1.1-4.01 3.62-7.741 3.41-12.041-.53-5.82-7.56-8.939-6.8-15.039.41-4.87-1.05-10.18 1.42-14.67 2.72-4.98 1.91-10.87 2.01-16.32.37-4.63-5.55-6.49-5.45-11-2.25-21.98-4.42-43.969-6.7-65.949-.77-7.35-.53-15.21-4.49-21.75-3.11-6.32-11.1-8.242-15.2-13.282 1.94-6.91-4.18-11.549-9.88-13.609-8.46-2.69-12.85-14.81-23.04-10.82-1.85-5.4-6.3-9.13-10.45-12.76-1.59-1.276-3.45-2.855-5.53-2.893zm-92.387 81.926c1.679-.104.855 2.859.707 4.197-2.01 10.86-2.67 21.91-2.91 32.93-.34 8.03 1.93 16.061 1 24.051-3.78-1.22-2.2-6.701-3.54-9.711.12-16.93.53-34.381 3.86-51.221.351-.154.643-.231.883-.246zm93.847 1.137c.4.01 1.2.04 1.6.06 3.77 17.88 4.5 36.39 6.87 54.33-1.05 3.48.31 7.44-1.54 10.69-4.41-1.97-1.1-8.67-2.68-12.5.57-16.65-2.79-33.55-4.87-50.17-.23-.97-.02-1.77.62-2.41z" fill="#66be79"/>
    <path id="color5" d="m936.98 231.91c-1.69 1.51-1.86 4.08-2.31 6.17 4.57 5.51 10.78 9.379 16.09 14.119-.5 8.1 5.411 15.501 2.701 23.711-4.43 40.86-5.801 82.02-7.121 123.09.14 9.83-.42 19.72.25 29.51 3.43 5.05 7.259 9.969 11.689 14.189 4.92-3.79 8.72-9.379 11.92-14.699.91-53.06-1.96-106.2-7.25-159.01.04-5.77 3.381-10.929 3.151-16.779 5.06-4.79 11.189-8.37 16.179-13.25-.13-2.1-.709-4.142-1.429-6.102-7.46 5.21-11.82 14.751-20 18.571-1.25.12-2.501.14-3.731.07-8.94-3.04-13.649-13.06-20.139-19.59z" fill="#c16a69"/>
    <path id="color6" d="m914.34 486.699c-2.52 3.11-5.121 6.161-7.731 9.201 4.46 1.7 9.171 3.47 14.041 2.92.54-3.34.2-6.739-.48-10.019-1.99-.59-3.93-1.342-5.83-2.102zm18.381.803c-2.816-.046-5.624.088-8.41.568 1.3 3.65-.02 7.781 1.33 11.311 7.06 1.23 14.288.119 21.398.849.04-3.86 1.17-8.209-.26-11.769-4.656-.306-9.366-.883-14.058-.959zm23.459.803c-2.157.003-4.308.09-6.45.345-1.51 1.5-.84 3.521.44 4.901-.94 1.69-1.76 3.52-1.25 5.5 6.43 1.88 13.33-.442 19.84 1.308 6.67-.82 13.399-.279 20.099-.699.87-3.57.422-7.28.272-10.9-3.47-.16-6.991-.119-10.291 1.051-3.99 1.65-7.819-1.421-11.869-1.231-3.588-.056-7.196-.281-10.791-.275z" fill="#706256"/>
    <path id="color7" d="m924.311 488.07c-1.4.21-2.771.471-4.141.731.68 3.28 1.02 6.679.48 10.019-4.87.55-9.581-1.22-14.041-2.92-3.96 3.38-6.87 9.109-12.66 9.379-3.72.23-8.189.72-10.949-2.34-2.25 7.88-4.35 15.84-7.65 23.35-3.07 5.38-4.18 11.622-2.19 17.602 1.12 5.58 2.03 11.2 3.33 16.75 3.15 12.52 2.021 25.529 3.141 38.289 1.05 28.06 2.58 56.09 3.68 84.14.71 9.07.959 18.281-.881 27.231-1.48 6.7 1.11 13.28 2.82 19.66 2.77 10.85 5.681 21.769 6.131 33.019 2.34 29.85 10.05 60.3 2.58 90.01-.44 3.33-.171 7.12 2.309 9.66 5.78 7.2 14.261 13.34 14.861 23.36.82 5.2-7.771 5.49-6.231 10.99 1.71 6.4-1.239 14.159 3.561 19.439.8.02 1.62.022 2.43.192 5.89 3.69 13.75 4.349 19.17-.631 4.21-1.78 9.339-1.8 12.769-5.16 3.86-3.7 3.881-9.41 5.801-14.1 4.95-8.82-.15-19.311 3.76-28.451 1.31-4.25 4.859-10.39-.071-13.59-6.75-5.02-14.3-12.4-12.4-21.66 3.23-14.22 5.85-28.58 8-43.01.45-3.96.661-8.168-1.029-11.888-4.99-11.35-3.802-24.061-3.852-36.121-3.23-5.05-6.71-10.74-5.68-17.01 1.13-6.34 2.351-12.669 3.301-19.039.68-4.16-5.05-5.88-4.9-9.92 4.41-39.88 12.519-79.251 17.599-119.031.46-3.38 3.42-9.739 7.58-6.879 2.37 29.2 2.712 58.559 3.942 87.839.12 29.43 3.189 58.71 5.209 88.04.82 6.88-5.55 12.13-4.93 18.98.65 15.34.861 30.679 1.061 46.029.71 22.33-1.142 44.651-.102 66.981.7 5.82-4.649 10.21-4.389 15.91 1.6 9.75 4.241 19.329 5.571 29.119-2.02 3.1-5.611 4.601-8.131 7.201-1.14 4.01 1.48 8.11.32 12.18-.75 2.34 1.261 4.57 3.231 5.56.79-5.32 6.789-6.88 10.609-9.64 5.1-3.44 11.801-4.37 16.891-.35.74.38 1.478.78 2.228 1.19 1.17.48 2.311 1.041 3.461 1.621.96.39 1.89.849 2.82 1.369 2.55.49 5.15.831 7.67 1.551.69 2.68.63 5.478 1.01 8.228 1.01-2.61 4.44-2.509 5.81-4.779 4.31-7.18 8-14.719 11.93-22.109.73-1.42 1.63-3.21.49-4.67-4.25-7.09-11.23-14.461-8.99-23.401 1.31-8.57 5.44-16.43 6.73-24.98-1.35-6.34-7.2-10.581-9.97-16.311 1.64-31.56 4.41-63.109 5.86-94.699-.87-22.19-3.27-44.43-1.77-66.66 3.72-28.49 7.84-56.94 11.75-85.41 2.86-18.26 5.52-36.561 6.95-54.991 1.34-6.52 4.49-12.529 5.67-19.109 1.4-4.59 2.8-9.22 2.66-14.08-1.61-4.23-3.67-8.28-6.36-11.92-6.59 10.35-20.66 15.88-31.94 10.02-9.91-6.42-12.849-19.1-13.839-30.12-.82.01-2.44.03-3.26.03.15 3.62.598 7.33-.272 10.9-6.7.42-13.429-.121-20.099.699-7.14.84-14.751 2.141-21.721-.129-7.11-.73-14.338.381-21.398-.849-1.35-3.53-.03-7.661-1.33-11.311z" fill="#4d4d4e"/>
    <path id="color8" d="m948.631 896.74c-1.92 4.69-1.941 10.4-5.801 14.1-3.43 3.36-8.559 3.38-12.769 5.16 2.67 4.9-4.761 3.42-7.581 5.02 2.11 1.82 4.979 2.749 6.709 5.019-2.53 1.72-5.699 1.981-8.459 3.191 2.06 2.43 5.04 3.979 6.68 6.799-2.66 1.41-5.88 1.031-8.74 1.821 1.61 1.76 3.551 3.309 4.641 5.509-6.09-.79-12.121-2.269-18.321-1.779 1.35-2.93 5.479-2.72 8.049-4.16-1.75-1.21-3.63-2.2-5.34-3.44 2.03-2.64 5.691-3.21 8.451-4.91-1.92-1.63-5.81-2.129-6.15-4.859 1.99-1.26 4.411-1.881 6.131-3.551-1.99-1.09-5.3-1.049-5.24-4.029-.81-.17-1.63-.172-2.43-.192-1.56 8.11-3.94 16.091-7.66 23.481-2.32 4.43-7.461 6.721-9.301 11.471l1.311-.381c8.86-8.24 24.528-7.57 32.128 2.01 3.47 4.07 4.301 9.469 4.991 14.589 6.65-6.73 8.25-16.479 8.81-25.539-.04-10.45 12.509-14.8 12.619-25.32.35-6.74-.478-13.65-2.728-20.01zm-29.514 25.418c-.595-.004-1.183.085-1.748.291-1.76.58-3.509 1.29-4.939 2.5 3.8 4.02 9.079 3.131 13.519.791-1.535-1.779-4.252-3.565-6.832-3.582zm-1.697 8.291c-2.09 1.04-5.371 1.461-6.391 3.571 3.82 4.01 9.101 1.681 13.801 1.441-1.86-2.21-4.46-4.942-7.41-5.012zm65.463 4.903c-3.31-.088-6.684 1.053-9.553 2.988-3.82 2.76-9.819 4.32-10.609 9.64-.32 6.68-1.41 13.389-.25 20.059 2.78 3.44 7.79 4.671 9.49 9.041 1.3 3.54.968 7.45 1.978 11.09 3.66-5.25 6.231-12.27 12.961-14.35 9.95-2.85 21.15-4.409 30.99-.359-3.33-7.1-8.51-13.642-10.48-21.512-.38-2.75-.32-5.548-1.01-8.228-2.52-.72-5.12-1.061-7.67-1.551 2.46 3.71-.031 4.52-3.691 4.26 1.54 1.42 3.43 2.541 4.66 4.281-1.92 2.93 2.801 3.409 3.391 5.959-1.33.71-2.72 1.3-4.039 2.01 2.149 2.36 7.779 1.809 7.899 6.019-5.92-.53-11.829-.77-17.739-.09-1.04-1.92 2.51-3.559 3.6-5.179-2.24-.31-4.48-.501-6.68-.901.38-3.43 6.229-3.36 6.949-6.17-3.65-1.3-7.55-1.598-11.26-2.648 1.28-2.72 4.95-2.641 7.26-4.211-2.12-1.59-6.51-1.34-7.01-4.27 2.46-1.64 5.341-2.44 8.151-3.24-2.227-1.759-4.764-2.57-7.338-2.638zm-67.94 3.279c-.955-.059-1.944.135-2.904.619 1.35 1.91 4.911 1.149 7.131 1.609-1.131-1.331-2.634-2.13-4.227-2.228zm77.506.549c-2.58.65-5.148 1.34-7.648 2.24 3.66 2.72 8.318 4.54 12.898 3.25-.48-1.35-1.149-2.619-1.789-3.869-1.15-.58-2.291-1.141-3.461-1.621zm-1.195 8.015c-.357-.003-.717.034-1.074.116-1.46.27-2.89.709-4.27 1.189 3.69 1.09 8.019 3.511 11.709 2.551-1.444-1.89-3.866-3.835-6.365-3.856zm5.164 6.573c-.701-.032-1.402.144-2.049.613-1.43.97-4.06 1.158-4.33 3.158 3.56 1.29 7.321.561 10.441-1.469-.976-1.162-2.52-2.233-4.062-2.302zm-1.139 6.572c-1.36.35-2.319 1.43-3.279 2.39 3.7-.33 7.409-.15 11.12 0-2.28-1.55-5.091-2.5-7.841-2.39z" fill="#3f3f3f"/>
  </g>
</svg>
