<svg height="1080" width="1920" xmlns="http://www.w3.org/2000/svg">
  <path id="background" d="m0 0h1920v1080h-1920z" fill="#98bfe1"/>
  <g id="transform" transform="translate(0,0) scale(1.00)">
    <path id="color1" d="m164.906 142.367c-1.056.1-2.067 1.13-1.707 2.643 1.32 4.95 5.07 9.56 4.83 14.82-7.57 9.25-20.818.97-29.718 7.5-1.02.6-1.631 2.421-.241 2.971 6.23-.98 12.601-.601 18.891-.451 1.64-.3 3.43 3.049 1.17 3.439-6.48 1.91-12.961 4.28-18.621 8 .41 1.85-.95 5.961 2.23 5.281 5.56-1.85 11.45-2.41 17.27-1.59-2.01 6.56-14.01 8.691-13.74 16.831 7.79-2.21 14.109-13.191 23.419-9.051-.37-11.77-.859-25.11 7.901-34.28-3.27-4.01-7.83-8.921-9.76-14.451-.254-1.255-1.102-1.74-1.924-1.662zm180.004 97.822c-7.26 8.13-12.309 18.681-16.449 28.891-.79-7.72 1.329-15.24 4.189-22.32-10.24 8.83-15.411 22.02-20.041 34.25.06-5.1 1.182-10.119 1.282-15.209-4.4 6.77-7.541 14.339-9.371 22.209-2.55-4.52-2.07-10.77-6.29-14.25-2.28-2.08-5.029.539-5.669 2.849-1.27 4.17-1.881 8.741-.541 12.981 3.39 3.44 7.459 6.08 11.089 9.23 7.83-.34 6.941 9.63 11.221 14.1 2 2.31 4.28 4.439 5.82 7.109 1.21 5.63-4.369 12.911-10.349 9.311 4.37 11.8 13.689 20.749 22.949 28.849 7.34 5.52 17.42 10.671 26.42 5.881 3.13-1.84 8.721-4.45 5.631-8.84-4.77-1.48-8.981-4.22-12.721-7.46-3.29-4.93.39-11.13 3.5-15.19 7.19-2.7 14.76-5.03 20.32-10.66.28-.25.849-.731 1.129-.981 4.21-1.67 9.061-2.599 13.201-5.089 6.66-2.57 8.759-10.27 6.459-16.62-3.42-2.1-6.199 1.91-8.709 3.69.96-2.99 2.17-5.91 2.77-9-2.35 1.52-3.67 4.119-5.67 6.029 3.37-6.99 8.15-14.378 6.35-22.478-5.53-6.36-9.25-13.901-12.86-21.451-.33 7.39-.93 14.861-3.23 21.941.68-9.06 2.44-19.691-1.68-27.731-.85 8.79-2.219 17.779-6.099 25.799.6-11.84-9.261-19.489-14.461-29.039-1.48 7.24-.53 14.69-.36 22.02-3.56-9.32-5.52-19.161-7.83-28.821zm215.949 207.09c-7.3.36-13.049 6.501-20.459 7.231-5.99 7.91-14.139 15.18-16.189 25.26 2.82 3.44 7.679 1.15 11.379 2.47 5.15.84 9.06 5.101 14.26 5.561-.97-6.82-9.279-7.441-11.889-12.981.86-3.02 3.609-5.061 5.199-7.711 4.09-6.86 13.73-5.959 18.77-11.769-3.76-.43-7.53.009-11.2.849 2.02-3.93 8.109-4.74 10.129-8.91zm-297.689 153.92c.24 16.6-.04 33.201.17 49.801.96 4.7 1.22 9.48.75 14.27-.06 2.64-.221 5.561-2.551 7.281-7.32 6.83-7.79 18.94-2.1 26.92 5.61 8.53 12.242 16.33 17.522 25.09 4.33 3.96 10.478 6.639 16.328 4.669 7.2-4.57 12.241-12.529 12.481-21.179 2.55-14.29 3.849-28.911 8.509-42.721 3.75-10.03 6.991-20.28 11.571-29.98-18.08-15.72-40.36-25.961-62.68-34.151zm80.141 38.49c1.02 10.39.66 20.921 1.99 31.311.61 20.76-1.812 41.3-1.942 61.99 2.11 7.5 5.441 14.98 4.971 23.01-.41 18.77-.13 37.509 2.82 56.029.48 28.39.371 57.112-7.349 84.682-1.67 4.39.688 8.998-.442 13.328-.64 2.74-1.099 5.52-1.289 8.33 7.3-4.64 17.129-4.129 23.039 2.561 2.49 2.85 2.951-2.429 3.801-4.039 1.01-3.29 1.17-6.821.26-10.141-1.46-6.11.469-12.231 1.109-18.301 5.17-22.49 14.231-44.039 17.041-67.039 4.04-24.43-.591-49.1-4.881-73.18-3.91-17.88 4.54-34.601 9.18-51.361 5.07-15.35 8.261-31.229 11.951-46.939l-.97-.02c-9.14 6.49-20.83 4.73-31.34 4.75-10.27-2.56-21.259-6.211-27.949-14.971z" fill="#f4e5d2"/>
    <path id="color2" d="m177.865 158.457c-.416-.017-.841-.009-1.275.023-8.76 9.17-8.271 22.51-7.901 34.28-.59 8.3 9.702 11.229 12.272 18.349 1.3 4.66 6.849 5.802 9.219 9.782 5.85 9.01 12.459 17.48 18.759 26.17 7.48 7.64 15.071 15.529 19.661 25.339 4.1 8.66 12.38 14.97 14.25 24.68 2.46 9.26 8.2 17.169 10.66 26.359 5.57 5.94 5.741 14.551 9.211 21.651 2.78 14.32 7.639 28.14 12.199 41.98 1.45 2.93-1.271 5.76-.561 8.68 1.62 4.33 3.861 8.551 3.811 13.311 1.09 20.63 4.231 41.069 8.391 61.279 1.22 3.12-1.591 5.24-2.811 7.76-.56 2.46.62 4.9 1.65 7.08 18.96-11.3 26.36-33.86 34.75-53.09 2.71-11.95 8.94-24.67 3.58-36.83-5.73-23.07-11.16-46.161-19.23-68.571-2.13-4.99-4.399-10.009-7.789-14.289-5.33-5.04-4.461-13.24-8.801-19-2.47-3.53-5.031-7.001-7.381-10.611-.72-1.13-1.389-2.289-2.049-3.439-.14-.23-.42-.71-.57-.94-2.37-3.69-4.88-7.291-7.16-11.041-2.24-3.21-1.041-7.619-3.391-10.779-2.5-3.11-6.469-4.729-8.759-8.039-3.61-6.93-6.01-14.511-10.19-21.141-7.54-7.43-16.209-13.661-23.939-20.871-8.24-10.5-12.641-24.149-23.641-32.359-2.21-2.8-6.339-2.701-8.369-5.641-3.994-4.247-8.349-9.829-14.596-10.082zm129.946 169.652c9.8 25.76 15.749 52.711 22.599 79.211 9.92 4.86 20.99 6.53 31 11.17 3.05 1.2 6 2.979 9.33 3.299-.19-15.25 1.739-30.759-.961-45.799.18-3.49.37-6.981-.08-10.451-1.04-3.44.902-11.629-4.898-10.309 3.09 4.39-2.501 7-5.631 8.84-9 4.79-19.08-.361-26.42-5.881-9.26-8.1-18.579-17.049-22.949-28.849-.49-.31-1.49-.931-1.99-1.231zm64.33 27.92c.2 2.34.68 4.662.75 7.032 3.04 19.99-.211 40.419 1.679 60.449.86 1.24 1.741 2.471 2.491 3.791 4.87 16.47 10.648 32.698 14.978 49.318l.791.371c-.53-17.26-1.539-34.51-2.609-51.74 14.24 9.91 29.478 18.209 44.148 27.449 6.19 3.56 12.341 8.041 19.701 8.561 12.1.98 23.491 5.5 35.151 8.51 3.24.65 5.468 3.199 8.218 4.769 4.99.23 10.8-1.789 14.85 2.201 3.19 2.17 9.022 5.88 11.922 3.03 2.05-10.08 10.199-17.35 16.189-25.26-3.92-2.73-8.55-4.761-13.4-4.721-4.52.64-6.249-5.848-11.029-4.648-15.71-2.64-30.382-10.841-44.192-18.961-5.56-5.74-13.889-2.511-20.799-3.901-5.02-1.96-10.64-3.718-13.33-8.808-1.93-4.4-6.889 1.649-8.929-2.201-9.47-10.83-19.041-21.589-28.041-32.809-5.67-10.87-15.709-21.222-28.539-22.432z" fill="#f0e194"/>
    <path id="color3" d="m349.062 201.846c-2.382.001-4.761.131-7.123.394-24.21 2.93-45.08 23.27-48.32 47.51-1.12 7.4-.119 14.89-.469 22.32-5.48.98-11.18 2.18-15.24 6.34.15.23.43.71.57.94 2.88-1.81 6.09-3.15 9.54-3.17-2.37 2.34-5.191 4.179-7.491 6.609 2.35 3.61 4.911 7.081 7.381 10.611 1.38-1.26 2.76-2.52 4.11-3.81-1.34-4.24-.729-8.811.541-12.981.64-2.31 3.389-4.929 5.669-2.849 4.22 3.48 3.74 9.73 6.29 14.25 1.83-7.87 4.971-15.439 9.371-22.209-.1 5.09-1.222 10.109-1.282 15.209 4.63-12.23 9.801-25.42 20.041-34.25-2.86 7.08-4.979 14.6-4.189 22.32 4.14-10.21 9.189-20.761 16.449-28.891 2.31 9.66 4.27 19.501 7.83 28.821-.17-7.33-1.12-14.78.36-22.02 5.2 9.55 15.061 17.199 14.461 29.039 3.88-8.02 5.249-17.009 6.099-25.799 4.12 8.04 2.36 18.671 1.68 27.731 2.3-7.08 2.9-14.551 3.23-21.941 3.61 7.55 7.33 15.091 12.86 21.451 1.8 8.1-2.98 15.488-6.35 22.478 2-1.91 3.32-4.509 5.67-6.029-.6 3.09-1.81 6.01-2.77 9 2.51-1.78 5.289-5.79 8.709-3.69 2.3 6.35.201 14.05-6.459 16.62-2.59 15.33 2.04 33.63 15.77 42.31-6.38-7.01-11.429-15.66-11.939-25.32 3.3 4.04 4.8 9.599 9.41 12.599 8.73 5.98 20.479 9.902 24.549 20.612.96 1.58-.751 5.548 1.509 5.638 1.32-8.25-.859-16.229-4.429-23.599 6.16.25 12.36-3.119 14.98-8.789-7.18 5.39-16.899 2.248-22.449-3.932-8.66-8.55-8.78-21.749-15.57-31.449 2.39-5.76 5.31-11.36 6.41-17.57 2.82 1.49-.402 8.11-.272 11.65 6.16-12.86 6.161-27.75 3.461-41.52 4.2 1.84 7.581 5.4 12.221 6.44-9.23-7.1-11.971-18.769-17.291-28.529-11.165-20.482-34.501-32.553-57.528-32.545zm-45.244 96.972c-.228-.009-.464-.008-.709.002 3.28 5.03 6.471 10.32 11.221 14.1-4.146-4.33-3.441-13.822-10.512-14.102zm74.643 21.852c-.346.003-.815.082-1.432.269-.28.25-.849.731-1.129.981 1.374 2.511 4.983-1.27 2.561-1.25z" fill="#626163"/>
    <path id="color4" d="m304.5 326.689c8.07 22.41 13.5 45.501 19.23 68.571 5.36 12.16-.87 24.88-3.58 36.83-8.39 19.23-15.79 41.79-34.75 53.09-1.76 1.02-5.4 1-5.06 3.8.28 9.97-1.44 19.06-2.34 28.77-3.58 13.22-10.88 25.34-11 38.99-3.71 11.37-6.131 23.28-5.811 35.26-1.69 4.09-3.24 9.14.35 12.77.61-1.08-.559-4.651 1.631-3.571 22.32 8.19 44.6 18.431 62.68 34.151 3.52.27 3.249-4.05 4.019-6.37 3.06-7.86 5.911-15.86 7.131-24.25 4.18-1.23 5.691 4.101 6.301 7.241-.29 6.4 1.339 13.378-2.041 19.218-1.94 2.85.291 6.18 2.051 8.5 6.69 8.76 17.679 12.411 27.949 14.971 10.51-.02 22.2 1.74 31.34-4.75 4.02-1.95 3.43-6.94 4.5-10.59 1.88-12.41 4.83-24.75 4.64-37.33 3.91-17.28-3.23-34.11-5.99-50.98-1.1-4.46 2.049-9.001-.961-12.981 1.34-10.8-6.478-21.53-2.238-31.83-4.49-9.45-7.062-19.71-10.512-29.58-4.33-16.62-10.108-32.848-14.978-49.318-3.9 1.31-4.471-.601-2.491-3.791-1.89-20.03 1.361-40.459-1.679-60.449-1.39.3-2.502 1.248-3.192 2.478.45 3.47.26 6.961.08 10.451 2.7 15.04.771 30.549.961 45.799-3.33-.32-6.28-2.099-9.33-3.299-10.01-4.64-21.08-6.31-31-11.17-6.85-26.5-12.799-53.451-22.599-79.211-.99-.72-2.141-1.12-3.311-1.42zm23.934 82.332c2.227.044 1.563 4.215-1.123 3.838-.09-1.2-.09-2.39-.01-3.58.439-.187.814-.264 1.133-.258z" fill="#8fbbd8"/>
    <path id="color5" d="m328.434 409.021c-.319-.006-.694.071-1.133.258-.08 1.19-.08 2.38.01 3.58 2.686.377 3.35-3.794 1.123-3.838zm46.136 14.489c-1.98 3.19-1.409 5.101 2.491 3.791-.75-1.32-1.631-2.551-2.491-3.791zm-113.177 241.342c-6.193-.296-11.523 4.028-12.993 10.267-.59 8.25-.459 16.612 1.151 24.762 1.51 7.69-2.162 15.01-4.112 22.26-.18 6.14-1.408 12.908 1.942 18.468 2.78 6.55 9.65 12.572 17.17 10.862 10.09-4.69 12.75-16.76 12.41-26.91-5.28-8.76-11.912-16.56-17.522-25.09-5.69-7.98-5.22-20.09 2.1-26.92 2.33-1.72 2.491-4.641 2.551-7.281-.911-.239-1.813-.376-2.697-.418zm81.966 245.187c-1.36.39-2.169 1.502-2.129 2.922-1.34 7.18-.96 14.919-4.65 21.449-2.36 13.28-5.229 26.489-8.689 39.539-.53 5.39-2.242 12.16 2.148 16.42 4.94 3.39 10.761 6.421 16.961 5.311 7.98-1.57 14.961-7.48 17.801-15.11 1.95-14.73.949-29.77 2.939-44.55-.14-6.35 3.75-13.109 1.17-19.129-.85 1.61-1.311 6.889-3.801 4.039-5.91-6.69-15.739-7.201-23.039-2.561.19-2.81.649-5.59 1.289-8.33z" fill="#dda661"/>
    <path id="color6" d="m364.801 980.57c-2.84 7.63-9.821 13.54-17.801 15.11-6.2 1.11-12.021-1.921-16.961-5.311.51 3.86 5.181 4.951 8.231 6.301 10.9 4.22 26.661-3.71 26.531-16.1z" fill="#eff1f4"/>
  </g>
</svg>
