<svg height="1080" width="1920" xmlns="http://www.w3.org/2000/svg">
  <path id="background" d="m0 0h1920v1080h-1920z" fill="#804c4c"/>
  <g id="transform" transform="translate(0,0) scale(1.00)">
    <path id="color1" d="m476.717 129.182c-3.601.056-7.2.31-10.778.767-24.63 3.61-47.94 17.051-62.58 37.291-18.07 24.89-21.298 56.92-21.058 86.77 1.17 13.19 1.659 26.58.549 39.76-13.66 29.9-32.979 57.62-58.039 79.07-34.24 18.21-70.551 33.06-102.081 55.99-3.62 2.9-8.14 4.37-11.82 7.16-8.52 11.63-20.93 19.929-28.41 32.449-3.61 6.85-12.361 5.202-17.971 9.272-24 9.32-47.218 21.229-67.1481 37.699-20.5 17.43-36.6009 39.861-47.3809 64.471-5.77 12.21-9.1999 25.519-9.6699 39.029.92-.24 1.3395-.86 1.2695-1.89 2.07-18.79 12.5899-35.54 25.0899-49.26 11.58-13.28 27.0312-22.141 41.7815-31.401 15.9-7.14 33.319-9.858 50.539-11.648 2.19-.62 3.181.729 3.541 2.699 1.36-1.79 2.598-3.979 5.148-4.029 6.31-.87 12.5-2.951 18.92-2.651-1.96 5.52-6.579 9.489-9.139 14.719-7.92 12.01-12.49 25.821-16.08 39.641-1.9 7.7-6.591 14.23-10.201 21.17-1.45 2.55-3.2-.569-4.16-1.869.74 4.34 1.861 9.04-.369 13.16-8.32 19.94-13.26 41.659-12.33 63.349 4.12-16.92 11.54-34.179 25-45.599-.69 8.14-4.129 15.8-4.709 24.01-.7 14.68-1.442 30.519 6.058 43.759-5.03-23.81 6.842-48.26 24.782-63.57 19.27-15.72 43.889-24.85 59.869-44.52-3.44-8.01-9.23-16.321-6.66-25.441 7.38-18.96 22.369-33.34 36.939-46.93 4.73-4.28 10.101-8.009 13.701-13.379 6.28-9.21 14.229-17.19 21.799-25.24-.42-10.53-1.689-21.171-.619-31.711 7.56-8.57 19.18-11.59 29.41-15.75.94-6.88-1.44-15.109 4.07-20.619 5.45-2.23 11.81 2.591 17.1-.849 4.85-2.97 10.43-4.111 15.93-5.161 4.83-6.96 9.459-14.431 15.859-20.031 16.32-3.63 33.001.431 49.371 1.151 1.47-.37 2.97-.7 4.5-.86 4.02.61 6.16-3.45 9.68-4.09 5.62 9.87 10.96 20.119 18.81 28.469-5.17-10.16-7.56-21.35-8.97-32.59 3.59 6.15 6.85 12.682 12.14 17.602-2.68-5.52-6.26-10.581-8.5-16.321-2.91-7.18-7.43-14.639-5.22-22.679 1.85-.27 3.69.18 5.47.66.23-6.59-.239-13.301-1.849-19.691-3.62-3.61-8.521-6.25-10.561-11.2-1.29-3.96-1.609-8.16-2.349-12.24 2.95 5.12 5.379 10.62 9.449 14.99-7.14-14.9-12.399-31.329-12.529-47.929 5.55-11.75 8.719-24.432 10.959-37.202 6.54 12.73 15.901 23.74 26.111 33.67 3.43 3.24 7.349 6.131 9.619 10.371 2.69 5.15 7.61 9.249 8.02 15.389 2.19-3.88 3.741-8.069 5.371-12.199 2.45 2.29 4.779 4.739 7.599 6.609-1.49-4.54-5.931-9.699-2.541-14.379 8.3-12.68 10.85-27.911 13.74-42.451.96 10.03 1.032 20.271-.808 30.211 6.58-9.84 7.059-22.09 8.849-33.42 5.21 7.64 9.781 15.729 14.161 23.879 4.95 8.26 4.909 18.24 6.349 27.5 1.69 6.17-5.549 9.312-6.029 15.012-2.94 24.82-24.831 40.499-42.381 55.529 2.39.73 5.371.849 7.221 2.619 2.38 6.22 1.56 13.091 2.83 19.541 2.49 4.82 5.199 9.699 9.369 13.299 2.23 4.15 3.271 8.83 4.881 13.25.62 1.71 1.268 3.421 1.898 5.141 9.09 24.5 20.571 48.87 22.631 75.25.05.52.149 1.56.209 2.08 1.23 8.03-.889 15.939-2.359 23.769 3.47-7.37 4.629-15.579 5.279-23.619.02-.84.072-2.519.102-3.359.64-17.64-3.331-35.151-9.321-51.651 11.35 21.79 27.84 41.7 31.85 66.62.71-1.45 1.449-2.869 2.189-4.299 5.22-20.92-5.658-40.85-16.228-58.09-8.02-11.36-11.021-25.561-11.791-39.211 7.8-.06 15.06 3.301 22.26 5.891-4.11-15.35-10.07-30.831-9.62-47.041-.71-2.96 2.531-.381 2.981.599 12.59 21.77 23.489 45.731 23.299 71.401 2.3-.14 6.601.879 5.701-2.821.81-28.81-12.811-55.088-22.461-81.468-2.22-6.09-3.539-12.711-2.029-19.131 4.81-22.12 7.069-44.8 6.439-67.43.91-21.35-3.981-42.92-13.871-61.85-11.2-22.35-28.27-42.5-50.68-54.14-14.137-6.614-29.787-10.073-45.392-9.828zm-18.317 113.209c.05 8.41-3.189 18.388-6.939 26.558-2.87-9.89 5.829-17.178 6.939-26.558zm-34.961 46.789c2.96 4.29 3.672 11.559 5.702 17.009-5.79-3.34-7.002-10.959-5.702-17.009zm-70.298 249.599c-6.94 8.13-13.401 16.851-22.121 23.231-2.43 1.12-1.269 6.65 1.621 4.75 6.74-4.27 14.6-5.529 22.25-6.959 2.31-2.82 2.018-7.46 4.218-10.66 3.3-4.48-2.998-7.952-5.968-10.362zm-102.18 56.721c-3.41 6.48-6.051 13.33-9.721 19.68-1.96 3.84-5.059 7.25-5.599 11.67 6.89-6.56 14.788-11.84 22.638-17.11-1.66-5.11-4.918-9.49-7.318-14.24zm-33.971 52.301c-2.35.42-4.54 1.429-6.48 2.799-9.29 6.3-20.211 10.12-31.401 10.98 7.74 5.62 17.712 4.109 26.602 3.289 3.56-5.82 7.609-11.318 11.279-17.068z" fill="#733e3a"/>
    <path id="color2" d="m539.23 231.74c-1.79 11.33-2.269 23.58-8.849 33.42 1.84-9.94 1.768-20.181.808-30.211-2.89 14.54-5.44 29.771-13.74 42.451-3.39 4.68 1.051 9.839 2.541 14.379-2.82-1.87-5.149-4.319-7.599-6.609-1.63 4.13-3.181 8.319-5.371 12.199-.41-6.14-5.33-10.239-8.02-15.389-2.27-4.24-6.189-7.131-9.619-10.371-10.21-9.93-19.571-20.94-26.111-33.67-2.24 12.77-5.409 25.452-10.959 37.202.13 16.6 5.389 33.029 12.529 47.929-4.07-4.37-6.499-9.87-9.449-14.99.74 4.08 1.059 8.28 2.349 12.24 2.04 4.95 6.941 7.59 10.561 11.2 1.61 6.39 2.079 13.101 1.849 19.691 7.21 3.07 15.18 3.669 22.69 5.809 8.65-2.52 1.649 10.911 7.849 9.871 1.11-3.82-1.04-11.002 5.26-9.522 2.67.3 4.031-1.809 5.381-3.709 17.55-15.03 39.441-30.709 42.381-55.529.48-5.7 7.719-8.842 6.029-15.012-1.44-9.26-1.399-19.24-6.349-27.5-4.38-8.15-8.951-16.239-14.161-23.879zm-80.83 10.651c-1.11 9.38-9.809 16.668-6.939 26.558 3.75-8.17 6.989-18.148 6.939-26.558zm-34.961 46.789c-1.3 6.05-.088 13.669 5.702 17.009-2.03-5.45-2.742-12.719-5.702-17.009zm46.331 432.16c-.14 11.98-.251 23.981.019 35.961 5.69 2.52 12.181 1.048 18.221 1.558 12.89-.46 26.03 1.061 38.76-1.189-.8-11.59-.099-23.21-1.719-34.75-18.37-.87-36.861-1.33-55.281-1.58zm-107.081 29.93c3.48 5.25 5.48 11.22 5.6 17.55-5.38-4.63-4.499-15.16-12.949-17.3-1.81 2.11-6.15 3.33-4.83 6.82 2.01 7.39.68 15.071 1.57 22.551 3.88 4.98 9.3 8.59 14.66 11.83 3.48-12.74 8.689-24.96 15.369-36.34-6.72-.59-13.07-2.971-19.42-5.111zm326.352 114.427c-2.174.049-4.293 1.126-5.771 3.492-1.08.75-2.121 4.481-3.491 2.061-2.33-3.42-5.369-.32-5.949 2.59-.35 1.46-.621 2.949-1.221 4.349-1.48 2.77-3.298 5.332-4.888 8.032-2.28 4.49-.581 10.78 5.259 10.58 8.59-1.87 18.12 4.559 17.68 13.779 5.02 4.73 13.549 2.201 15.949-4.359 2.76 3.32 4.471 7.839 8.461 9.929 3.12 1.22 2.411-3.3 1.901-5-1.68-5.19-2.27-10.65-1.66-16.08-5.3-.81-11.16-.591-15.84-3.541-1.62-2.48-1.742-5.589-2.612-8.359-2.81-.89-3.219-4.03-.879-5.76.25-2.45.371-4.909.491-7.359-1.744-2.779-4.634-4.417-7.43-4.354z" fill="#ffead9"/>
    <path id="color3" d="m466.064 350.473c-.46-.012-.922.01-1.384.078-2.21 8.04 2.31 15.499 5.22 22.679 2.24 5.74 5.82 10.801 8.5 16.321-5.29-4.92-8.55-11.452-12.14-17.602 1.41 11.24 3.8 22.43 8.97 32.59-7.85-8.35-13.19-18.599-18.81-28.469-3.52.64-5.66 4.7-9.68 4.09 5.42 17.25 14.741 34.169 28.731 45.879 8.87-19.79 12.418-41.569 14.478-63.039.21-2.29 1.631-4.16 2.891-5.98-7.51-2.14-15.48-2.739-22.69-5.809-1.335-.36-2.704-.703-4.086-.738zm45.266 3.187c-1.35 1.9-2.711 4.009-5.381 3.709 1.49 1.33 3.491 2.53 3.871 4.67 2.95 20.12 5.859 40.632 13.799 59.512.83 1.08 1.032 4.109 2.932 3.029 3.62-7.13 6.03-14.821 9.08-22.211-1.61-4.42-2.651-9.1-4.881-13.25-4.17-3.6-6.879-8.479-9.369-13.299-1.27-6.45-.45-13.321-2.83-19.541-1.85-1.77-4.831-1.889-7.221-2.619zm-9.154 16.565c-2.888-.019-5.928.383-8.715.246-.02 7.78-2.691 15.359-2.191 23.129 6.46.05 13.33 1.22 19.55-.93-1.13-7.26-2.771-14.46-3.701-21.75-1.534-.521-3.211-.684-4.943-.695zm-93.92 8.158c-5.15-.031-10.287.352-15.387 1.486-6.4 5.6-11.029 13.071-15.859 20.031-1.59 3.65-4.269 6.57-6.949 9.44 6.36 3.34 13.5 5.7 18.74 10.81 5.23 7.25 8.239 15.989 14.369 22.639 17.04 20.32 26.3 46.741 25.92 73.211-1.29 15.09-6.09 29.489-12.36 43.199 3.13 11.19 3.459 22.881 5.719 34.231 1.08 4.51-2.889 8.13-2.709 12.55.06 4.54 1.44 9.219-.24 13.639-6.31 18.74-11.491 37.862-15.641 57.192-.46 4.26-.569 8.989-3.939 12.119-4.02 3.66-2.401 9.399-2.721 14.189 20 6.66 40.991 9.691 61.801 12.641 42.66 6.44 86.011 2.881 128.561-2.629.7-1.98 2.029-3.961 1.619-6.141-5.12-12.39-5.229-26.24-10.629-38.59-2.85-5.45-1.762-11.601-1.932-17.461-.02-3.57-4.469-5.278-4.379-8.888-.37-9.89.071-19.792-.109-29.682-.35-3.11-.49-6.249-.16-9.359 1.67-15.57.138-31.29 1.138-46.86 3.49-8.14 7.721-16.009 10.641-24.429 5.09-11 5-23.541 2.17-35.121-4.01-24.92-20.5-44.83-31.85-66.62 5.99 16.5 9.961 34.011 9.321 51.651 6.34.05 15.109 2.91 17.259 9.01-6.27-.72-10.641-6.921-17.361-5.651-.65 8.04-1.809 16.249-5.279 23.619 1.47-7.83 3.589-15.739 2.359-23.769-7.3 1.97-15.178 1.66-22.228-1.08-.11-.76-.332-2.291-.442-3.061 7.26 2.46 14.901 2.451 22.461 2.061-2.06-26.38-13.541-50.75-22.631-75.25-3.35 8.26-6.048 16.92-10.978 24.42-2.42 1.53-2.972-3.09-4.272-4.51-2.64 6.05-6.428 11.469-9.648 17.189-2.4 19.76-.201 40.2-6.731 59.34-5.84 22.14-14.689 43.271-23.589 64.301-8.87 22.56-17.142 45.431-23.032 68.971-1.69 6.35-1.22 13.369-4.84 19.109-5.97 10.59-10.269 22.02-15.959 32.74-2.06-9.87-3.929-19.78-6.009-29.64-1.58-6.42 1.649-12.619 3.209-18.719 9.94-29.34 24.96-56.641 40.58-83.291 4.09-7.24 9.171-14.001 12.201-21.801 3.47-10.09 5.328-20.65 6.898-31.18 1.95-14.62 3.93-29.529 1.26-44.189-1.16-5.43-1.179-11.051-2.279-16.461-4.77-5.48-9.94-10.649-14.26-16.529-.72 2.18-1.28 6.98-4.43 4.22-15.79-13.01-27.44-30.9-33.41-50.46-11.254-.495-22.654-2.569-33.984-2.637zm151.834 16.617c.77 13.65 3.771 27.851 11.791 39.211 10.57 17.24 21.448 37.17 16.228 58.09 5.06-11.2 10.361-22.312 15.411-33.522 4.67-11.14-5.81-20.759-7.12-31.439-1.23-7.03-1.92-14.33-4.81-20.92-2.23-2.94-6.13-3.819-9.24-5.529-7.2-2.59-14.46-5.951-22.26-5.891zm-48.66 2.449c-6.79.75-13.61.771-20.43.721-2.29-.53-2.37 2.089-2.93 3.619 4.96 12.26 7.671 25.281 11.321 37.941 3.01.15 7.34 1.14 9.58-.74 1.86-11.48 2.279-23.24 4.779-34.65-.62-2.35-1.2-4.731-2.32-6.891zm-115.17 312.321c-5.61 9.95-6.01 21.621-9.1 32.361-9.15 6.32-21.231 4.56-31.381 1.84 2.36 2.37 4.84 4.659 6.91 7.299 6.35 2.14 12.7 4.521 19.42 5.111 1.4-3.58-.518-8.461 3.942-10.371 14.05 6.69 30.909 8.541 46.629 9.541.6-12.93 1.679-25.841 3.189-38.701-13.24-2.08-26.569-3.88-39.609-7.08zm193.51 8.24c-10.25 1.87-20.66 2.36-31.04 2.83 1.71 11.92 3.119 23.89 4.129 35.89 11.64.41 23.311-.809 34.741-3.019 1.34-3.15.13-6.49-.44-9.66-1.96-8.81-4.12-17.611-7.39-26.041zm-147.571.359c-2.38 12.35-3.52 25.031-3.58 37.611 10.32 1.36 20.78 2.011 31.17 1.321-.27-11.98-.159-23.981-.019-35.961-9.22-.71-18.471-1.251-27.571-2.971zm110.531 3.391c-9.2.9-18.449.96-27.679 1.16 1.62 11.54.919 23.16 1.719 34.75 9.76 1.19 19.751 1.04 29.531.07-.47-12.04-1.621-24.09-3.571-35.98zm-375.429 29.929c-3.08 19.94-3.221 40.4-.151 60.35 6.59 31.62 19.75 62.882 42.86 86.022.91 1.13 2.411.97 3.701.83 1.94-4.59 2.91-9.512 4.35-14.272-17.52-15.4-31.651-34.77-40.071-56.58-7.19-19.18-9.611-39.989-7.871-60.369-.91-5.34-2.328-10.581-2.818-15.981zm6.859 34.1c.12 31.88 14.77 62.571 37.27 84.791 2.85 2.8 5.73 5.581 8.41 8.561 1.52-4.17 2.97-8.352 4.48-12.522-4.55-4.54-11.119-6.57-15.179-11.75-15.85-20.5-29.301-43.56-34.981-69.08zm566.061 20.121c-.13 13.77.33 28.57-6.25 41.07 1.74 4.52 3.469 9.039 5.189 13.559 4.36-17.84 4.741-36.639 1.061-54.629zm4.029 5.86c2.26 18.17 3.09 37.031-3.25 54.541 1.51 2.98.48 10.879 4.27 10.209 4.04-9.26 3.76-19.62 3.71-29.52.29-11.9-1.84-23.72-4.73-35.23zm-109.389 48.179c-1.757-.016-3.103.786-3.072 3.201.28 1.1.61 2.23.91 3.35 10.75.9 19.821 9.5 31.131 7.34.58-2.91 3.619-6.01 5.949-2.59 1.37 2.42 2.411-1.311 3.491-2.061-11.03.97-22.18-.758-31.62-6.808-1.586-1.035-4.529-2.41-6.789-2.432zm76.959 9.071c-7.71 4.84-16.939.171-25.349 1.031-.12 2.45-.241 4.909-.491 7.359 8.18 3.35 17.07 4.339 25.84 4.379.14-4.26.08-8.519 0-12.769zm-78.73.8c-.64 5 4.53 6.869 7.83 9.299 5 3.57 10.741 6.022 16.801 7.102 1.59-2.7 3.408-5.262 4.888-8.032-11.01 1.65-19.059-7.879-29.519-8.369zm53.769 13.35c.87 2.77.992 5.879 2.612 8.359 4.68 2.95 10.54 2.731 15.84 3.541 2.33-.08 4.708-.08 6.978-.72.49-2.74.261-5.54-.039-8.28-8.54-.06-17.041-1.12-25.391-2.9z" fill="#f4f4f6"/>
    <path id="color4" d="m494.885 356.707c-.56-.019-1.234.076-2.045.313-1.26 1.82-2.681 3.69-2.891 5.98-2.06 21.47-5.608 43.249-14.478 63.039-13.99-11.71-23.311-28.629-28.731-45.879-1.53.16-3.03.49-4.5.86 5.97 19.56 17.62 37.45 33.41 50.46 3.15 2.76 3.71-2.04 4.43-4.22 2.95-8.4 5.9-16.801 7.99-25.471.56-1.53.64-4.149 2.93-3.619 6.82.05 13.64.029 20.43-.721 1.12 2.16 1.7 4.541 2.32 6.891 2.74 7.73 5.019 15.64 8.529 23.08 1.3 1.42 1.852 6.04 4.272 4.51 4.93-7.5 7.628-16.16 10.978-24.42-.63-1.72-1.278-3.431-1.898-5.141-3.05 7.39-5.46 15.081-9.08 22.211-1.9 1.08-2.102-1.949-2.932-3.029-7.94-18.88-10.849-39.392-13.799-59.512-.38-2.14-2.381-3.34-3.871-4.67-6.3-1.48-4.15 5.702-5.26 9.522-5.618.942-.395-10-5.804-10.184zm7.291 13.518c1.732.011 3.409.174 4.943.695.93 7.29 2.571 14.49 3.701 21.75-6.22 2.15-13.09.98-19.55.93-.5-7.77 2.171-15.349 2.191-23.129 2.787.137 5.827-.265 8.715-.246zm35.523 110.474c.11.77.332 2.301.442 3.061 7.05 2.74 14.928 3.05 22.228 1.08-.06-.52-.159-1.56-.209-2.08-7.56.39-15.201.399-22.461-2.061zm25.692.932c-.03.84-.082 2.519-.102 3.359 6.72-1.27 11.091 4.931 17.361 5.651-2.15-6.1-10.919-8.96-17.259-9.01zm-383.272 286.039c-1.74 20.38.681 41.189 7.871 60.369 8.42 21.81 22.551 41.18 40.071 56.58.57-1.84 1.179-3.658 1.779-5.478-2.68-2.98-5.56-5.761-8.41-8.561-22.5-22.22-37.15-52.911-37.27-84.791-1.11-6.1-2.751-12.069-4.041-18.119zm566.881 22.93c.43 5.22 2.121 10.21 3.221 15.31 3.68 17.99 3.299 36.789-1.061 54.629.61 1.92 1.25 3.832 1.84 5.772 6.34-17.51 5.51-36.371 3.25-54.541-2.08-7.16-4.13-14.38-7.25-21.17zm-104.301 75.9c.09.83.291 2.49.391 3.32 10.46.49 18.509 10.019 29.519 8.369.6-1.4.871-2.889 1.221-4.349-11.31 2.16-20.381-6.44-31.131-7.34zm53.281 10.91c-2.34 1.73-1.931 4.87.879 5.76 8.35 1.78 16.851 2.84 25.391 2.9-.14-1.44-.29-2.861-.43-4.281-8.77-.04-17.66-1.029-25.84-4.379z" fill="#6881be"/>
    <path id="color5" d="m377.01 399.9c-5.5 1.05-11.08 2.191-15.93 5.161-5.29 3.44-11.65-1.381-17.1.849-5.51 5.51-3.13 13.739-4.07 20.619-10.23 4.16-21.85 7.18-29.41 15.75-1.07 10.54.199 21.181.619 31.711-7.57 8.05-15.519 16.03-21.799 25.24-3.6 5.37-8.971 9.099-13.701 13.379-14.57 13.59-29.559 27.97-36.939 46.93-2.57 9.12 3.22 17.431 6.66 25.441 1.81 3.54 3.741 7.01 5.621 10.52 2.4 4.75 5.658 9.13 7.318 14.24-7.85 5.27-15.748 10.55-22.638 17.11-6.57 6.67-12.891 13.561-18.651 20.951-3.67 5.75-7.719 11.248-11.279 17.068-6.31 10.67-11.421 22.12-14.461 34.16-.67 11.55-12.901 17.751-14.881 28.991-.78 7.9.282 15.799.932 23.669.49 5.4 1.908 10.641 2.818 15.981 1.29 6.05 2.931 12.019 4.041 18.119 5.68 25.52 19.131 48.58 34.981 69.08 4.06 5.18 10.629 7.21 15.179 11.75 5.06-5.97 13.369-9.129 16.369-16.799 3.75-11.89 4.502-24.49 7.692-36.49 8.47-20.54 16.439-41.331 26.019-61.381 2.55-5.14 4.779-10.449 7.549-15.469 1.39-2.51 2.891-4.949 4.471-7.339 2.05-4.82 4.829-9.272 7.859-13.532 4.88-7.48 9.9-15.059 16.26-21.349 3.76 3.72 6.821 8.079 10.441 11.939 2.96 3.06 5.56 6.441 8.44 9.571.79.8 1.56 1.63 2.31 2.5.69 4.21 1.04 8.491 2.25 12.611 1.92 5.89 5.339 11.55 11.799 13.09 10.15 2.72 22.231 4.48 31.381-1.84 3.09-10.74 3.49-22.411 9.1-32.361.33-2.22.619-4.441.939-6.651.32-4.79-1.299-10.529 2.721-14.189 3.37-3.13 3.479-7.859 3.939-12.119-8.74-13.38-21.48-23.372-34.82-31.862-3.56-2.07-6.718-5.07-7.978-9.08 2.86-5.19 7.498-9.139 10.728-14.109 6.27-7.91 9.61-17.86 17.07-24.85 10.96-11.27 20.101-24.091 27.871-37.711 6.27-13.71 11.07-28.109 12.36-43.199.38-26.47-8.88-52.891-25.92-73.211-6.13-6.65-9.139-15.389-14.369-22.639-5.24-5.11-12.38-7.47-18.74-10.81 2.68-2.87 5.359-5.79 6.949-9.44zm223.576 27.118c-1.388.029-2.783.134-4.186.322 1.31 10.68 11.79 20.299 7.12 31.439-5.05 11.21-10.351 22.322-15.411 33.522-.74 1.43-1.479 2.849-2.189 4.299 2.83 11.58 2.92 24.121-2.17 35.121-2.92 8.42-7.151 16.289-10.641 24.429-1 15.57.532 31.29-1.138 46.86-.33 3.11-.19 6.249.16 9.359 5.27 11.8 10.67 23.581 18.34 34.041 8.34 39.78 19.16 79.179 34.16 117.029 1.6 3.72 2.599 7.681 2.869 11.731.04.37.12 1.12.16 1.5.66 4.84.801 9.729.641 14.609 1.14 13.55 1.059 27.141.859 40.731-.5 11.88 9.829 20.22 12.629 31.14-.07-5.52 7.041-2.609 9.861-.769 9.44 6.05 20.59 7.778 31.62 6.808 3.38-5.41 10.101-4.078 13.201.862 8.41-.86 17.639 3.809 25.349-1.031 3.58-7.31 7.739-14.471 9.539-22.491.92-5.29.012-10.699.782-16.009 3.86 5.55 6.91 11.66 11.83 16.46 6.58-12.5 6.12-27.3 6.25-41.07-1.1-5.1-2.791-10.09-3.221-15.31-.21-19.12-4.25-38.991-16.07-54.491-16.07-23.47-34.88-44.989-55.45-64.609-4.2-5.05-6.191-11.639-8.191-17.789-2.57-23.29-4.888-46.75-10.728-69.5-2.88-8.9-5.74-17.861-6.68-27.221-.52-8.02-11.221-10.82-11.131-18.97.13-8.38-1-16.751-3.17-24.831-1.36-5.18-6.539-7.518-10.439-10.468 3.65-5.42 8.92-9.801 11.5-15.901 1.48-9.11-8.41-15.809-6.18-24.849.77-9.02.598-18.431-2.352-27.051-8.487-4.629-17.809-8.11-27.523-7.902zm-243.746 36.033c15.05 4.56 29.601 10.92 43.211 18.83 4.76 1.83-1.791 8.409-4.891 5.949-13.58-6.82-27.63-13.749-38.32-24.779zm265.699 41.502c.797.097.109 3.608-.369 4.658-6.16 8.16-15.941 13.69-26.141 14.59 8.39-6.92 17.8-12.481 26.33-19.221.067-.026.127-.034.18-.027zm-269.398 34.226c2.97 2.41 9.268 5.882 5.968 10.362-2.2 3.2-1.908 7.84-4.218 10.66-7.65 1.43-15.51 2.689-22.25 6.959-2.89 1.9-4.051-3.63-1.621-4.75 8.72-6.38 15.181-15.101 22.121-23.231z" fill="#bea386"/>
    <path id="color6" d="m488.07 401.789c-2.09 8.67-5.04 17.071-7.99 25.471 4.32 5.88 9.49 11.049 14.26 16.529 1.1 5.41 1.119 11.031 2.279 16.461 2.67 14.66.69 29.569-1.26 44.189-1.57 10.53-3.428 21.09-6.898 31.18-3.03 7.8-8.111 14.561-12.201 21.801-15.62 26.65-30.64 53.951-40.58 83.291-1.56 6.1-4.789 12.299-3.209 18.719 2.08 9.86 3.949 19.77 6.009 29.64 5.69-10.72 9.989-22.15 15.959-32.74 3.62-5.74 3.15-12.759 4.84-19.109 5.89-23.54 14.162-46.411 23.032-68.971 8.9-21.03 17.749-42.161 23.589-64.301 6.53-19.14 4.331-39.58 6.731-59.34 3.22-5.72 7.008-11.139 9.648-17.189-3.51-7.44-5.789-15.35-8.529-23.08-2.5 11.41-2.919 23.17-4.779 34.65-2.24 1.88-6.57.89-9.58.74-3.65-12.66-6.361-25.681-11.321-37.941z" fill="#b0232f"/>
    <path id="color7" d="m356.84 463.051c10.69 11.03 24.74 17.959 38.32 24.779 3.1 2.46 9.651-4.119 4.891-5.949-13.61-7.91-28.161-14.27-43.211-18.83zm265.699 41.502c-.053-.007-.113.001-.18.027-8.53 6.74-17.94 12.301-26.33 19.221 10.2-.9 19.981-6.43 26.141-14.59.478-1.05 1.166-4.561.369-4.658zm-262.76 335.056c-18.35 79.12-31.079 159.541-38.769 240.391h83.679c23.25-69.11 44.091-139.05 62.211-209.68-27.15-3.31-53.951-9.461-79.791-18.451-9.64-2.8-18.61-7.36-27.33-12.26zm255.221 9.202c-24.42 8.45-49.17 16.639-75.01 19.289-8.61 1.59-17.37.159-26.01 1.339.66 30.17-.009 60.381.411 90.571 1.56 17.63 1.399 35.34 2.849 52.97-.16 22.38 3.119 44.65 2.959 67.02h81.41c5.33-49.88 10.222-99.89 12.102-150 2.14-27 .239-54.139 1.289-81.189z" fill="#373130"/>
    <path id="color8" d="m416.73 559.199c-7.77 13.62-16.911 26.441-27.871 37.711-7.46 6.99-10.8 16.94-17.07 24.85-3.23 4.97-7.868 8.919-10.728 14.109 1.26 4.01 4.418 7.01 7.978 9.08 13.34 8.49 26.08 18.482 34.82 31.862 4.15-19.33 9.331-38.452 15.641-57.192 1.68-4.42.3-9.099.24-13.639-.18-4.42 3.789-8.04 2.709-12.55-2.26-11.35-2.589-23.041-5.719-34.231zm155.401 53.17c.18 9.89-.261 19.792.109 29.682-.09 3.61 4.359 5.318 4.379 8.888.17 5.86-.918 12.011 1.932 17.461 5.4 12.35 5.509 26.2 10.629 38.59.41 2.18-.919 4.161-1.619 6.141 1.06 1.46 1.699 3.139 2.209 4.879 3.27 8.43 5.43 17.231 7.39 26.041.57 3.17 1.78 6.51.44 9.66 4.97-.19 4.32 5.259 5.23 8.619 7.07.93 15.191 5.509 21.801 1.109-15-37.85-25.82-77.249-34.16-117.029-7.67-10.46-13.07-22.241-18.34-34.041zm-251.592 81.891c-6.36 6.29-11.38 13.869-16.26 21.349 8.91-3.16 17.131-8.19 26.701-9.41-3.62-3.86-6.681-8.219-10.441-11.939z" fill="#4d3f32"/>
    <path id="color9" d="m397.199 703.119c-.32 2.21-.609 4.431-.939 6.651 13.04 3.2 26.369 5 39.609 7.08-1.51 12.86-2.589 25.771-3.189 38.701-15.72-1-32.579-2.851-46.629-9.541-4.46 1.91-2.542 6.791-3.942 10.371-6.68 11.38-11.889 23.6-15.369 36.34-4.12 15.25-7.561 31.008-6.961 46.888 8.72 4.9 17.69 9.46 27.33 12.26 25.84 8.99 52.641 15.141 79.791 18.451 3.86-5.29 6.181-11.811 11.241-16.121 7.22-.91 14.589.311 21.879-.129 8.46-.45 11.31 9.079 13.96 15.369 8.64-1.18 17.4.251 26.01-1.339 25.84-2.65 50.59-10.839 75.01-19.289 1.06-19.3.51-38.801-2.73-57.891-1-3.87-2.09-7.769-2.18-11.789 5.52 1.12 11.121 3.129 16.801 1.859.33-1.44.589-2.88.769-4.32-.04-.38-.12-1.13-.16-1.5-6.65.31-13.781.27-19.811-2.84-2.01-3.12-3.469-6.57-4.859-10-.91-3.36-.26-8.809-5.23-8.619-11.43 2.21-23.101 3.429-34.741 3.019-1.01-12-2.419-23.97-4.129-35.89 10.38-.47 20.79-.96 31.04-2.83-.51-1.74-1.149-3.419-2.209-4.879-42.55 5.51-85.901 9.069-128.561 2.629-20.81-2.95-41.801-5.981-61.801-12.641zm-60.703 12.539c-14.507-.046-27.335 7.361-40.076 13.483-1.58 2.39-3.081 4.829-4.471 7.339 14.48-4.17 27.061-16.511 43.051-16.121 2.31-.34 5.84.871 6.73-2.089-.75-.87-1.52-1.7-2.31-2.5-.983-.072-1.957-.109-2.924-.112zm105.703 2.711c9.1 1.72 18.351 2.261 27.571 2.971 18.42.25 36.911.71 55.281 1.58 9.23-.2 18.479-.26 27.679-1.16 1.95 11.89 3.101 23.94 3.571 35.98-9.78.97-19.771 1.12-29.531-.07-12.73 2.25-25.87.729-38.76 1.189-6.04-.51-12.531.962-18.221-1.558-10.39.69-20.85.039-31.17-1.321.06-12.58 1.2-25.261 3.58-37.611z" fill="#111"/>
    <path id="color10" d="m330.98 706.199c-9.57 1.22-17.791 6.25-26.701 9.41-3.03 4.26-5.809 8.712-7.859 13.532 13.59-6.53 27.28-14.521 43-13.371-2.88-3.13-5.48-6.511-8.44-9.571zm10.75 12.071c-.89 2.96-4.42 1.749-6.73 2.089-15.99-.39-28.571 11.951-43.051 16.121-2.77 5.02-4.999 10.329-7.549 15.469 12.62-6.57 24.56-14.608 37.95-19.648 6.96-2.32 14.42-1.55 21.63-1.42-1.21-4.12-1.56-8.401-2.25-12.611zm261.1 44.06c1.39 3.43 2.849 6.88 4.859 10 6.03 3.11 13.161 3.15 19.811 2.84-.27-4.05-1.269-8.011-2.869-11.731-6.61 4.4-14.731-.179-21.801-1.109zm24.83 14.34c-.18 1.44-.439 2.88-.769 4.32-5.68 1.27-11.281-.739-16.801-1.859.09 4.02 1.18 7.919 2.18 11.789 5.27 1.1 10.741 1.639 16.031.359.16-4.88.019-9.769-.641-14.609z" fill="#5e5a68"/>
  </g>
</svg>
