<svg height="1080" width="1920" xmlns="http://www.w3.org/2000/svg">
  <path id="background" d="m0 0h1920v1080h-1920z" fill="#73aab2"/>
  <g id="transform" transform="translate(0,0) scale(1.00)">
    <path id="color1" d="m1289.98 105.5c-4.69.102-9.38.669-14 1.74h-.03c-17.49 3.89-32.49 15.8-41.77 30.94-10.98 12.5-22.97 24.74-29.68 40.24-7.76 17.84-9.09 39.37.18 56.93 1.49 3.53 4.88 6.51 4.3 10.66-.72 15.21 1.25 31.139 9.5 44.269.42-.09 1.24-.25 1.65-.34-7.25-12.82-10.01-27.81-8.24-42.4 3.14 2.27 6.71 5.081 6.86 9.311.92 10.62 5.14 20.67 11.48 29.17 1.32-.88 2.57-1.88 3.8-2.92-7.43-6.68-13.66-16.979-12.64-27.049 7.19 6.9 16.49 10.848 24.14 17.138 1.14-1.74 2.27-3.5 3.65-5.07 2.38 4.47 4.24 9.212 6.46 13.772 3.53 7.1 7.54 13.939 11.71 20.689 1.41 1.95 2.81 3.89 4.15 5.91 1.26 1.89 2.51 3.789 3.87 5.629 15.9 20.53 35.55 37.83 56.61 52.92 5.8 3.93 10.02 9.671 12.96 15.971 8.47 17.15 16.4 36.459 12.86 55.939-1.1 8.37-7.16 17.471-16.78 15.551 11.65 3.94 18.08-9.51 22.85-17.68-.23 2.44-.52 4.871-.7 7.321 10.7-19.87 2.24-43.72-11.71-59.59-22.94-28.59-49.99-53.761-71.03-83.881-.53-.74-1.59-2.209-2.12-2.949-17.9-25.9-20.3-59.12-19.4-89.66 4.71 1.06 7.94 4.808 11.23 8.048-4.21-12.79-7.86-26.52-4.86-39.99 1.6 5.94 3.96 11.692 7.37 16.842-3.27-14.98-2.23-30.952 4.05-45.022-.3 6.08-1.76 12.042-1.96 18.122 3.25-1.53 6.7-2.532 10.17-3.442 1.48-4.83 1.71-9.989 3.68-14.689.23 5.38-.49 10.76-.22 16.15 1.26-11.1 2.35-22.761 8.26-32.541.4 8.31.88 16.781 4.15 24.551-.87-6-1.78-12.039-1.28-18.129 3.65 8.84 6.32 18.489 12.79 25.809 3.83.96 7.66 1.99 11.25 3.71-1.36-3.95-3.2-7.75-3.95-11.89 8.24 5.88 13.43 15.64 13.8 25.76 3.24-5.62 3.17-12.27 4.88-18.37 1.69 5.53 2.05 11.309 2.05 17.059-.62 2.82 3.21 3.472 3.5 6.022.43 2.28.43 4.609.61 6.929 1.18-2.38 2.2-4.841 3.44-7.201.92 5.32-.94 10.45-2.84 15.32-6.81 17.88-14.88 37.901-33.05 46.971-4.65 1.65-5.78 6.59-7.15 10.75 8.34-6.05 19.62-9.431 29.51-5.221 8.49 4.32 13.51 12.911 18.38 20.721 13.32 21.86 20.5 47.131 21.93 72.631.41 11.02 1.18 22.019 1.57 33.049 9.45 1.2 19.24-.59 28.17 3.58 15.89-8.64 34.88-12.41 52.58-7.59 6.09 1.08 11.58 5.551 18.02 4.221 6.93-.96 14.21-2.202 20.19-6.032-9.05 2.6-18.41 4.331-27.86 3.331v-.981c11.7-.72 23.67-2.56 34.23-7.92-2.64-1.8 1.57-6.809 2.45-9.789 23.39 7.45 39.63 35.64 30.03 59.18 9.65-13.45 3.32-30.751-2.91-44.221 16.85 11.68 32.1 34.561 22.88 55.361 4.93-4.13 7.09-10.56 8.42-16.65 1.93-14.9-3.97-29.15-9.23-42.74-7.54-17.71-22.53-31.121-39.23-40.071 2.48-3.37 4.98-9.589 10.16-7.529 36.19 6.76 71.84 24.72 93.91 54.93-4.23-9.99-11.71-18.119-18.03-26.789 11.27 8.47 22.02 17.898 30 29.648-1.79-7.58-7.53-13.339-11.27-19.959 3.09 1.38 4.68 4.78 7.32 6.53 10.81-.73 20.51 4.979 28.61 11.519-3.58-8.25-9.26-15.31-13.8-23 7.38 5.48 12.91 13.21 16.6 21.57 1.61 4.07 5.69 6.231 8.34 9.541 7.31 7.9 11.6 18.22 12.81 28.86 1.63-5.63-.2-11.53-.93-17.18-5.14-23.15-18.81-43.54-35.35-60.16-17.24-16.95-38.05-31.029-61.62-37.289-22.46-6.36-45.79-8.602-68.51-13.772-.88-.05-3.43-1.139-1.24-1.709 21.45-9.14 45.43-7.871 68.14-5.711 26.35 2.81 53.6 9.871 74.01 27.651 14.83 12.91 24.47 31.53 26.49 51.08.07-38.52-28.34-76.12-66.61-83.94-37.62-7.99-75.21 3.911-112.42 8.481-4.72.93-9.13-1.312-13.53-2.602-34.28-11.2-68.45-24.71-97.52-46.5-2.67-2.19-6.29-3.978-7.09-7.648-5.87-22.3-9.53-45.202-16.97-67.092-9.81-31.727-42.65-53.83-75.48-53.119zm-60.78 40.939c-11.29 28.55-16.06 59.251-19.51 89.631-.49 1.08.76 4.301-1.3 3.561-13.54-20.78-10.49-48.71 1.81-69.33 5.17-8.28 10.83-16.52 18.02-23.16zm6.01 30.381c-.75 9.73-1.33 19.49-1.21 29.26-8.03-6.88-10.89-22.489-.67-28.619zm-18.7 47.209c.19 9 .61 17.991 1.16 26.971-2.76-2.68-6.75-5.751-5.34-10.131 1.07-5.47 1.73-11.19 3.9-16.34zm3.84 17.078c3.13 7.584 7.05 14.741 11.84 21.403-4.75-1.64-8.24-5.571-11.83-8.891-.72-4.128-.32-8.363-.01-12.512zm277.78 78.762c5.66-.064 11.32.258 16.89 1.17-1.74 2.58-4.59 4.221-7.33 5.551-6.56-2.03-12.95-4.751-19.7-6.231 3.36-.273 6.75-.451 10.14-.49zm-123.05 19.25c21.56 7.19 44.4 10.542 67.15 9.352 20.62-1.42 41.92 1.039 60.82 9.769-5.06 10.75-18.64 12.41-29.19 12.99-35.07 2.78-74.03-5.521-98.78-32.111zm-75.33 124.008c-.21-.009-.42-.004-.63.014-.25 3.51 3.31 6.359 6.71 5.699-1.15-2.569-3.04-5.578-6.08-5.713zm10.47 83.215c-.27.004-.55.031-.83.088-3.61 2.45 7.22 6.751 6.22 2.031-1.61-.998-3.45-2.149-5.39-2.119zm280.95 126.629c-1.63 5.59-3.57 11.218-3.27 17.138 13.77-.08 29.72-1.878 40.91 7.942 3.45-.49 1.29-5.002 0-6.762-4.99-8.53-15.75-8.589-23.8-12.309-4.66-1.69-8.89-6.069-13.79-6.009z" fill="#484848"/>
    <path id="color2" d="m1296.66 131.539c-5.91 9.78-7 21.441-8.26 32.541-.27-5.39.45-10.77.22-16.15-1.97 4.7-2.2 9.859-3.68 14.689-3.47.91-6.92 1.912-10.17 3.442.2-6.08 1.66-12.042 1.96-18.122-6.28 14.07-7.32 30.042-4.05 45.022-3.41-5.15-5.77-10.902-7.37-16.842-3 13.47.65 27.2 4.86 39.99-3.29-3.24-6.52-6.988-11.23-8.048-.9 30.54 1.5 63.76 19.4 89.66 1.34-.65 2.69-1.311 4.06-1.981 4.56-13.69 10.44-28.06 22.46-36.91 1.37-4.16 2.5-9.1 7.15-10.75 18.17-9.07 26.24-29.091 33.05-46.971 1.9-4.87 3.76-10 2.84-15.32-1.24 2.36-2.26 4.821-3.44 7.201-.18-2.32-.18-4.649-.61-6.929-.29-2.55-4.12-3.202-3.5-6.022.04-5.75-.36-11.529-2.05-17.059-1.71 6.1-1.64 12.75-4.88 18.37-.37-10.12-5.56-19.88-13.8-25.76.75 4.14 2.59 7.94 3.95 11.89-3.59-1.72-7.42-2.75-11.25-3.71-6.47-7.32-9.14-16.969-12.79-25.809-.5 6.09.41 12.129 1.28 18.129-3.27-7.77-3.75-16.241-4.15-24.551zm-61.42 45.281l-1.88.641c-10.22 6.13-7.36 21.739.67 28.619-.12-9.77.46-19.53 1.21-29.26zm20.43 105.071c-.58 6.99-1.88 13.89-2.9 20.82l.16.908c4.83.15 9.75.371 14.45-1.039-4.17-6.75-8.18-13.589-11.71-20.689zm160.69 124.699c-4.86 3.56-9.74 7.11-15.34 9.43-3.47 2.96-4.04 8.01-5.71 12.06-.16-3.18-.06-6.359-.16-9.529-3.98 3.23-7.27 7.289-10 11.609-3 5.77-2.28 12.53-2.38 18.82-1.21-1.29-2.35-2.64-3.45-4-2.54 5.44-5.93 10.76-6.14 16.95-.75 10.87 4.14 20.859 8.05 30.689 15.57-.89 31.23-1.108 46.81-.318 9.79.53 20.85 3.43 26.02 12.58 9.47 1.18 22.35-4.721 20.95-15.881-2.77 2.73-5.28 5.75-8.42 8.07 1.52-4.59 2.82-9.47 1.78-14.32-1.51.37-2.96.849-4.41 1.289 3.84-3.15 5.26-8.23 2.05-12.43-2.45 2.19-4.52 4.79-7.18 6.75 2.29-4.67 4.92-9.238 5.92-14.398-1.81 3.19-3.27 6.6-5.55 9.51 2.05-11.08-2.59-21.9-7.51-31.51-.95 6.29-.86 12.69-.18 19.01-5.47-13.33-7.16-27.862-9.1-42.032-3.44 12.65-9.11 24.522-13 37.022.54-14.71-10.44-27.001-8.91-41.971-4.79 7.77-7.38 16.821-8.07 25.891-2.01-11.22.29-22.661 3.93-33.291zm-118.52 71.986c-4.81-.11-9.5 1.538-12.47 5.744-1.48 5.74-.56 11.81-.46 17.68-.34 5.24 4.85 7.939 8.41 10.699 9.42 5.45 17.07 13.282 25.09 20.512 3.07.79 6.25.769 9.42.869-3.43-6.49-5.56-13.551-8.79-20.131 6.37 4.34 6.78 15.142 14.89 16.932-.26-11.02-7.81-20.221-14.15-28.711-1.99-2.4 1.45-3.589 3.32-2.449 6.96 3.16 9.56 11.229 15.28 15.859 2.41 1.85 5.21-.679 3.13-3.109-5.25-7.5-9.54-15.572-14.19-23.432.97-.49 1.99-.928 3.04-1.328-6.67-6.04-15.99-5.131-24.09-7.211-2.62-1.159-5.54-1.858-8.43-1.924zm-172.22 52.117c-1.15.023-2.29.133-3.34.307-8.71 6.15-19.48.389-28.94 2.359-3.14 3.36-5.48 7.401-8.4 10.961 3.34.92 6.78 1.55 10 2.86 1.48 5.66-5.13 8.37-7.28 12.75-.4 2.9 3.32 3.35 5.4 3.08 6.73-.87 11.94-6.219 13.25-12.789 7.77 1.47 15.43 3.92 22.88 6.59 2.64 4.09 1.27 9.719 1.83 14.439 11.11-6.12 22.31-12.151 34.23-16.561-5.55-6.76-11.79-13.25-19.57-17.41-2.75-1.5-6.72 4.931-7.97.071-1.57-5.192-7.06-6.753-12.09-6.657zm-45.28 30.897c-.99 6.2 7.41 6.35 11.46 8.39 5.57 1.61 12.21 1.51 16.4 6.09 3.08.77 5.53-2.761 8.14-4.121.41-1.23.8-2.47 1-3.75-12.5-1.1-25.02-2.659-37-6.609zm353.92 143.961c-6.64 20.65-7.39 43.249-2.41 64.369 3.5 16.48 1.49 34.37 9.39 49.73 3.76 7.5 12.62 9.07 20.22 8.93 4.09 5.66 10.05 11.041 17.59 10.231 12.51-1.03 21.82-10.461 32.07-16.651 8.03-4.94 16.13-10.44 21.96-17.93.16-8.95-4.86-16.241-11.03-22.121 11.45-13.33 19.88-28.88 28.09-44.33 2.31-4.54 4.87-8.959 7.18-13.509-15.24 3.11-30.73 5.17-46.33 4.83-6.21-.33-13.91 1.771-18.67-3.389-3.54-3.2-6.4-7.031-9.74-10.391-9.58 1.52-19.43 3.94-29.15 2.09-7.13-2.55-12.99-7.629-19.17-11.859z" fill="#eee0cc"/>
    <path id="color3" d="m1324.82 251.736c-7.1.037-14.23 2.935-19.96 7.094-12.02 8.85-17.9 23.22-22.46 36.91-.62 1.66-1.27 3.3-1.94 4.93 21.04 30.12 48.09 55.291 71.03 83.881 13.95 15.87 22.41 39.72 11.71 59.59.18-2.45.47-4.881.7-7.321-4.77 8.17-11.2 21.62-22.85 17.68 9.62 1.92 15.68-7.181 16.78-15.551 3.54-19.48-4.39-38.789-12.86-55.939-2.94-6.3-7.16-12.041-12.96-15.971-21.06-15.09-40.71-32.39-56.61-52.92-3.87 7.93-10.68 14.042-14.06 22.262-4.07 9.98-6.85 20.53-12.12 30-1.35 2.8-2.88 5.539-4.96 7.879-.26-11.81-.94-23.689.43-35.459 2.12-12.14 5.57-24.02 8.08-36.09 1.02-6.93 2.32-13.83 2.9-20.82-2.22-4.56-4.08-9.302-6.46-13.772-1.38 1.57-2.51 3.33-3.65 5.07-2.76 4.38-7.96 6.261-11.5 9.911-1.23 1.04-2.48 2.04-3.8 2.92-2.99 2.11-6.52 3.309-10.1 3.919-.41.09-1.23.25-1.65.34-4.63.7-7.95 4.491-9.46 8.721-4.58 13.12-4.82 27.201-7.47 40.711-12.52 25.32-17.2 53.529-21.39 81.199-.32 2.14-.97 4.26-2.16 6.08-9.94 14.91-19.98 30.13-25.7 47.25-2.66 7.9-8.35 14.129-14.17 19.869-3.31 2.95-2.27 7.731-3.57 11.481-2.98 2.1-7.15 2.549-9.46 5.529-1.37 4.92 1.33 11.05-2.98 14.99-1.53.99-2.65 5.651.13 4.891 5.62-.93 13.5-.04 15.43 6.35 1.25 4.86 5.22-1.571 7.97-.071 7.78 4.16 14.02 10.65 19.57 17.41 13.11-4.85 26.88-7.74 40.81-8.83 2.72-.14 5.38-.809 7.89-1.869 2.11-6.18 5.05-12.111 8.53-17.631 13.46.09 27.09 1.09 40.38 3.58 4.15-2.86 7.79-6.368 11.3-9.968-6.6 1.63-12.41 8.72-19.85 5.66-6.47-3.51-11.07-9.641-15.36-15.461-2.81 1.64-5.75 3.11-8.88 4 1.91-3.48 4.3-6.659 6.52-9.949 7.09-9.96 11.88-21.251 16.56-32.461 2.94-.48 5.93-.119 8.89.131-.97-2.14-2.37-4.381-1.86-6.821 1.33-3.28 5.16-5.22 5.41-9 .51-7.4 5.2-13.691 10.41-18.621 4.25 4.82 6.45 11.031 10.35 16.121 1.64 2.62 5.09 6.081 2.36 9.141-2.81 3.24-3.87 7.338-3.66 11.578 7 .85 18.12-2.379 21.22 6.211 8.1 2.08 17.42 1.171 24.09 7.211 3.92.93 7.62-.971 11.46-1.361 3.88.84 6.8 4.72 11.02 4.32 3.27-.78 5.73-3.631 9.15-3.981 6.75 1.15 11.83 8.04 19.24 5.93-3.91-9.83-8.8-19.819-8.05-30.689.21-6.19 3.6-11.51 6.14-16.95-2.85-5.56-2.75-11.861-2.75-17.951-1.75 3.83-2.37 8.012-3.13 12.112-2.3-9.18.78-18.47 4.48-26.83-.82-10.75-1.1-21.531-1.67-32.301-.39-11.03-1.16-22.029-1.57-33.049-1.43-25.5-8.61-50.771-21.93-72.631-4.87-7.81-9.89-16.401-18.38-20.721-3.09-1.315-6.32-1.889-9.55-1.873zm-25.07 211.391c3.04.135 4.93 3.144 6.08 5.713-3.4.66-6.96-2.189-6.71-5.699.21-.018.42-.023.63-.014zm1.25 65.553c.63 5.25 6.26 7.829 7.08 12.929-5.2 1.21-10.3 2.991-14.61 6.241-7.54 6.02-16.29 10.701-22.75 17.961-1.57 1.14-.06 2.809 1.32 3.209 29.58 10.68 60.15 20.04 86.94 36.96 12.82 8.23 24.45 19.361 30.74 33.411-5.08 3.2-10.8 5.158-16.26 7.558 10.99 4.31 22.09 10.3 34.29 9-.09-8.84 6.4-17.079 3.39-26.019-.92-5.01-7.13-8.519-4.96-13.959 5.5-19.41 2.56-40.131-3.05-59.151-5.87-5.68-13.58-9.07-20.31-13.65-12.92-10.13-30.94-.949-44.85-8.209-3.43.31-6.91.499-10.14-.881-3.17-.1-6.35-.079-9.42-.869-6.26 1.53-12.55-.511-17.41-4.531zm9.22 17.662c1.94-.03 3.78 1.121 5.39 2.119 1 4.72-9.83.419-6.22-2.031.28-.057.56-.084.83-.088z" fill="#943e4b"/>
    <path id="color4" d="m1282.4 295.74c-1.37.67-2.72 1.331-4.06 1.981.53.74 1.59 2.209 2.12 2.949.67-1.63 1.32-3.27 1.94-4.93zm-15.02 6.84c-4.7 1.41-9.62 1.189-14.45 1.039 1.08 6.45 1.56 13.012 3.32 19.342 4.4-5.56 10.5-9.321 15.28-14.471-1.34-2.02-2.74-3.96-4.15-5.91zm-14.05 24.93c-1.85 1.33-2.21 5.83.51 6.33 1.76-1.43 2-6.34-.51-6.33zm308.69 407.859c-3.89 1.15-7.82 2.19-11.88 2.41h-.04c-8.21 15.45-16.64 31-28.09 44.33 6.17 5.88 11.19 13.171 11.03 22.121 13.2-15.34 15.63-36.639 23.59-54.759 1.28-3.44 3.13-6.641 5.39-9.541 0-1.53.1-3.051 0-4.561z" fill="#fff"/>
    <path id="color5" d="m1252.77 302.711c-2.51 12.07-5.96 23.95-8.08 36.09.93 9.28 2.34 18.51 4.53 27.58 5.27-9.47 8.05-20.02 12.12-30 3.38-8.22 10.19-14.332 14.06-22.262-1.36-1.84-2.61-3.739-3.87-5.629-4.78 5.15-10.88 8.911-15.28 14.471-1.76-6.33-2.24-12.892-3.32-19.342zm.56 24.799c2.51-.01 2.27 4.9.51 6.33-2.72-.5-2.36-5-.51-6.33zm544.88 257.095c-14.39-.073-29.03 3.084-40.46 12.135-3.13 2.21-4.76 6.58-2.53 10.01 6.28 10.3 18.67 14.519 25.67 24.199 2.82 3.95 4.72 8.861 3.69 13.781-1.72 11.17-10.09 19.51-18.01 26.84-4.94-4.09-8.7-9.8-14.8-12.41-11.83-5.99-25.3-2.469-37.77-1.199-7.12.49-13.41 4.139-19.12 8.139-7.07 2.43-14.73 3.601-21.16 7.701-3.86 3-8.98 2.09-13.51 2.92-2.57-5.53-4.35-11.441-7.4-16.741-4.42 2.51-5.82 8.41-8.08 12.76-4.26 11.26-8.45 22.56-12.11 34.03-.91 3.26-1.86 7.751 1.43 10.031 2.66 1.92 5.32 3.849 7.94 5.849 1.06.73 2.17 1.45 3.28 2.18 6.67 3.68 13.94 7.029 21.73 6.959 5.02.12 9.82-2.309 14.88-1.369 11.52 1.82 23.23 3.271 34.22 7.381 2.54.67 6.07 3.299 7.62-.301 12.69 2.7 25.13 8.46 38.4 7.4 5.62-.39 9.92-5.621 10.39-11.041.59-7.8 1.22-15.6 1.32-23.42-.37-9.17-.13-18.559-2.87-27.419-.29-1.6-1.63-3.74.12-4.93 8.49-7.65 16.53-16.24 21.13-26.85 2.54-5.95 2.75-13.19-.68-18.83-6.14-10.22-15.82-17.519-23.32-26.609-1.64-1.7-1.88-5.021.67-5.981 11.14-5.47 23.84-7.189 36.15-6.519 3-.02 6.84.319 8.83-2.471.63-3.35-2.96-5.369-5.77-5.689-3.25-.329-6.56-.519-9.88-.536zm-145.35 78.094c.12 5.72.03 11.461.91 17.141-.85-.92-1.64-1.879-2.45-2.779-.64 3.85-4.15 5.809-7.38 7.279.81-7.44 3.75-14.579 7.41-21.029.38-.15 1.13-.462 1.51-.612zm54.26 11.141c-4.92 6.15-8.98 12.871-12.22 20.041-4.35-2.4-4.32-7.54-.25-10.24 2.68-2.25-.76-1.141-2.43-.981 3.46-3.47 7.39-6.659 12.01-8.439.72-.09 2.17-.281 2.89-.381zm-44.06 28.033c1.24.072 2.1 1.988 2.25 3.117-.65 3.42-5.89-1.38-3.16-2.84.32-.211.63-.294.91-.277z" fill="#515256"/>
    <path id="color6" d="m1244.69 338.801c-1.37 11.77-.69 23.649-.43 35.459 2.08-2.34 3.61-5.079 4.96-7.879-2.19-9.07-3.6-18.3-4.53-27.58zm31.31 98.648c-5.21 4.93-9.9 11.221-10.41 18.621-.25 3.78-4.08 5.72-5.41 9-.51 2.44.89 4.681 1.86 6.821 7.64 1.01 15.22 3.208 23.01 2.398-.21-4.24.85-8.338 3.66-11.578 2.73-3.06-.72-6.521-2.36-9.141-3.9-5.09-6.1-11.301-10.35-16.121zm178.95 68.932c3.64 6.56 5.61 13.8 7.74 20.93 1.94 7.43 9.95 10.059 15.63 14.019.86 2.31 2.09 4.37 4.52 5.32-.96 1.2-2.02 2.3-3.05 3.42 5.88 1.38 11.57 3.031 16.68 5.741.45-7.89 3.03-15.952 1.08-23.772-7.09-6.94-13.98-13.969-23.07-18.519-3.25-3.09-8.51-2.4-11.02-6.52-2.85-.17-5.69-.299-8.51-.619zm-180.79 13.59c-3.51 3.6-7.15 7.108-11.3 9.968 11.8 2.59 21.96 9.751 30.61 17.911 4.31-3.25 9.41-5.031 14.61-6.241-.82-5.1-6.45-7.679-7.08-12.929-2.27-2.83-3.5.75-5.07 2.23-8.73.19-13.82-9.439-21.77-10.939z" fill="#c5a977"/>
    <path id="color7" d="m1440.16 373.885c-12.43.127-24.82 3.765-35.74 9.705-10.95 7.43-19.72 17.431-26.5 28.721-3.7 8.36-6.78 17.65-4.48 26.83.76-4.1 1.38-8.282 3.13-12.112-.04 6.09-.1 12.391 2.75 17.951 1.1 1.36 2.24 2.71 3.45 4 .07-6.29-.62-13.05 2.38-18.82 2.73-4.32 6.02-8.379 10-11.609.06 3.17 0 6.349.16 9.529 1.67-4.05 2.24-9.1 5.71-12.06 5.6-2.32 10.48-5.87 15.34-9.43-3.64 10.63-5.94 22.071-3.93 33.291.69-9.07 3.28-18.121 8.07-25.891-1.53 14.97 9.45 27.261 8.91 41.971 3.89-12.5 9.56-24.372 13-37.022 1.94 14.17 3.63 28.702 9.1 42.032-.68-6.32-.77-12.72.18-19.01 4.92 9.61 9.56 20.43 7.51 31.51 2.28-2.91 3.74-6.32 5.55-9.51-1 5.16-3.63 9.728-5.92 14.398 2.66-1.96 4.73-4.56 7.18-6.75 3.21 4.2 1.79 9.28-2.05 12.43 1.45-.44 2.9-.919 4.41-1.289 1.04 4.85-.26 9.73-1.78 14.32 3.14-2.32 5.65-5.34 8.42-8.07 1.4 11.16-11.48 17.061-20.95 15.881.23.38.67 1.13.89 1.5 2.82.32 5.66.449 8.51.619 10.42-4.65 20.39-10.771 28.33-19.051 2.27-2.51 4.36-5.179 6.28-7.969 5.99-9.41 10.76-19.85 12.3-30.98 2.48-17.14-2.55-35.28-13.76-48.52-6.65-8.22-15.74-13.89-24.71-19.22 1.02-.37 2.05-.709 3.12-1.039-6.44 1.33-11.93-3.141-18.02-4.221-5.53-1.506-11.19-2.173-16.84-2.115zm61.05 112.224c-1.31 1.4-2.62 2.802-3.91 4.202-2.91 22.88 9.11 44.779 25.45 59.939 4.4 3.4 5.2 9.44 9.36 13.01-1-2.83-2.52-5.46-3.35-8.35 8.02 4.49 18.95 11.24 27.49 4.18-15.34-1.13-25.28-15.5-29.48-29.02-3.32-11.33-8.29-22.029-14.09-32.259 13.49 5.71 23.48 18.279 28.06 32.039-2.49-21.26-21.83-34.861-39.53-43.741z" fill="#6a6a6c"/>
    <path id="color8" d="m1255.36 471.543c-.74.03-1.47.097-2.21.217-4.68 11.21-9.47 22.501-16.56 32.461.58 2.05 1.38 4.039 2.36 5.949 4.29 5.82 8.89 11.951 15.36 15.461 7.44 3.06 13.25-4.03 19.85-5.66 7.95 1.5 13.04 11.129 21.77 10.939 1.57-1.48 2.8-5.06 5.07-2.23 4.86 4.02 11.15 6.061 17.41 4.531-8.02-7.23-15.67-15.062-25.09-20.512-3.56-2.76-8.75-5.459-8.41-10.699-.1-5.87-1.02-11.94.46-17.68 4.75-6.73 13.92-6.91 20.9-3.82-3.1-8.59-14.22-5.361-21.22-6.211-7.79.81-15.37-1.388-23.01-2.398-2.22-.188-4.46-.438-6.68-.348zm86.46 14.807c-3.84.39-7.54 2.291-11.46 1.361-1.05.4-2.07.838-3.04 1.328 4.65 7.86 8.94 15.932 14.19 23.432 2.08 2.43-.72 4.959-3.13 3.109-5.72-4.63-8.32-12.699-15.28-15.859-1.87-1.14-5.31.049-3.32 2.449 6.34 8.49 13.89 17.691 14.15 28.711-8.11-1.79-8.52-12.592-14.89-16.932 3.23 6.58 5.36 13.641 8.79 20.131 3.23 1.38 6.71 1.191 10.14.881 13.91 7.26 31.93-1.921 44.85 8.209 6.73 4.58 14.44 7.97 20.31 13.65 5.61 19.02 8.55 39.741 3.05 59.151-2.17 5.44 4.04 8.949 4.96 13.959 3.01 8.94-3.49 17.179-3.39 26.019 12.11 11.8 29.26 14.971 43.96 22.231 6.55 2.08 13.36 3.51 19.71 6.22 2.58 4.77 4.58 9.88 7.73 14.35 3.79 4.2 7.13 9.329 12.53 11.609 4.44 1.92 8.81-2.37 13.29-.58 12.57 3.53 26.06 5.482 38.94 2.362 10.72-2.25 20.79-6.832 30.21-12.352 3.42-5.41 13.53-2.53 13.83-9.68-.3-5.92 1.64-11.548 3.27-17.138 1.59-3.43.18-6.561-2.33-8.981-2.25-11.22-5.38-22.32-10.21-32.74-8.72-20.76-27.78-35.77-48.61-43.26-11.09-3.42-22.33-6.45-33.01-11.07-6.53-3.38-15.49 1.131-20.36-5.609-1.61-5.59-2.9-11.281-4.36-16.901 2.66-1.1 5.49-2.11 7.45-4.34 1.03-1.12 2.09-2.22 3.05-3.42-2.43-.95-3.66-3.01-4.52-5.32-5.68-3.96-13.69-6.589-15.63-14.019-2.13-7.13-4.1-14.37-7.74-20.93-.22-.37-.66-1.12-.89-1.5-5.17-9.15-16.23-12.05-26.02-12.58-15.58-.79-31.24-.572-46.81.318-7.41 2.11-12.49-4.78-19.24-5.93-3.42.35-5.88 3.201-9.15 3.981-4.22.4-7.14-3.48-11.02-4.32z" fill="#cee4e7"/>
    <path id="color9" d="m1498.07 479.98c-1.92 2.79-4.01 5.459-6.28 7.969.77 2.09 3.63 2.062 5.51 2.362 1.29-1.4 2.6-2.802 3.91-4.202.36-2.57-1.01-4.829-3.14-6.129zm-580.67 14.43c-5.15 5.74-7.26 14.299-5.67 21.789 2.99 1.3 7.01-.06 9.37 2.74 3.91 4.34 9.949 1.182 14.839 2.862 33.91 7.71 67.101 18.258 100.131 29.068 2.22.52 4 1.862 5.25 3.772 13.27.02 26.26 3.569 39.02 6.949 11.98 3.95 24.5 5.509 37 6.609-.2 1.28-.59 2.52-1 3.75 4.84 2.11 10.39 3.191 14.68-.699-.56-4.72.81-10.349-1.83-14.439-7.45-2.67-15.11-5.12-22.88-6.59-1.31 6.57-6.52 11.919-13.25 12.789-2.08.27-5.8-.18-5.4-3.08 2.15-4.38 8.76-7.09 7.28-12.75-3.22-1.31-6.66-1.94-10-2.86-15.97-3.29-30.88-10.331-46.75-13.541-36.85-10.93-73.761-22.018-109.821-35.228-3.76.4-7.329-.931-10.969-1.141zm456.06 152.539c-9.09 2.6-18.18 5.311-27.63 6.221 5.36 2.03 11.66 1.949 16.19 5.859 24.17 4.49 48.15 11.851 71.33 20.401 11.24 4.17 22.23 8.98 33.05 14.14 4 2.45 7.53 6.29 12.75 5.18-3.15-4.47-5.15-9.58-7.73-14.35-6.35-2.71-13.16-4.14-19.71-6.22-14.7-7.26-31.85-10.431-43.96-22.231-12.2 1.3-23.3-4.69-34.29-9zm419.81 45.701c-6.08 6.31-11.51 13.599-19.44 17.789-.1 7.82-.73 15.62-1.32 23.42-.47 5.42-4.77 10.651-10.39 11.041-13.27 1.06-25.71-4.7-38.4-7.4-1.55 3.6-5.08.971-7.62.301-10.99-4.11-22.7-5.561-34.22-7.381-5.06-.94-9.86 1.489-14.88 1.369-7.79.07-15.06-3.279-21.73-6.959 1.37 8.41 3.55 17.65-.82 25.58-2.8 6.22-9.2 9.301-14.82 12.471 9.55 10.8 22.17 18.289 33.8 26.639 9.17 6.08 17.38 13.511 26.79 19.281 19.64 12.24 41.54 20.709 64.09 25.769 1.68.35 4.61.99 4.75-1.55-13.99-2.35-28.07-6.29-40.18-13.85 13.47.57 26.73-2.251 39.33-6.891 19.21-6.5 42.5-10.409 60.18 2.151 3.13-1.22 6.26-2.45 9.63-2.95-16.76-9.55-37.06-10.849-55.89-8.769 16.11-7.39 34.17-13.11 52.07-9.91-3.51-3.62-8.59-4.771-13.16-6.401 5.94-3.28 13.37-1.96 19.97-2.65-1.5-4.93-7.03-7.819-10.28-11.779 6.01-.78 11.33 2.959 17.25 2.799-8.17-5.6-18.33-6.33-27.88-7.1 9-3.26 17.93-6.799 26.49-11.109 2.08-.56 1.32-3.041 1.44-4.641-2.22-.18-4.47.129-6.63-.311-3.41-3.78 1.72-7.43-.48-11.58 2.98-2.19 7.02-4.929 4.26-9.179-6.04 3.37-11.6 7.79-18.17 10.13-6.92-1.56-12.98-8.74-9.9-15.99-3.2 1.94-6.37 4.071-10.04 4.981 6.18-7.38 12.99-14.77 16.05-24.09-1.77 1.52-3.44 3.149-5.33 4.519-.76-3.19-.56-7.8-4.79-8.32-6.56.26-12.82 2.53-19.01 4.5 2.7-4.89 7.53-8.46 9.28-13.93zm-201.34 17.981c-6.22 4.91-10.89 11.388-16.99 16.398-3.51 4.46-5.08 10.141-8.46 14.711-1.76.64-3.05-1.05-4.42-1.81-2.26 2.9-4.11 6.101-5.39 9.541 3.18.22 6.4.21 9.56.84-1.97 1.47-4.24 2.42-6.37 3.58 11.85-1.53 23.3-5.122 35.04-7.192 7.63-6.75 8.67-17.97 6.79-27.42-3.04-3.09-6.09-6.308-9.76-8.648zm37.37 5.678c-2.66.069-5.3.713-7.66 1.951 9.41 11.53 6.01 31.06-7.98 37.33 4.14 2.76 9.25 3.261 13.68 5.461 6.8-2.72 13.62-7.421 15.95-14.711 1.79-7.86.15-15.92-1.3-23.69-2.62-2-5.28-3.929-7.94-5.849-1.55-.368-3.15-.534-4.75-.492zm-17.29 1.564c-2.71-.018-5.42.272-7.96 1.178 2.77 9.98.06 20.78-6.16 28.92 2.96 3.14 7.08 4.86 11.3 5.5 15.34-2.84 21.17-26.481 7.67-35.301-1.6-.165-3.23-.286-4.85-.297z" fill="#a78c59"/>
    <path id="color10" d="m1222.48 526.359c-3.48 5.52-6.42 11.451-8.53 17.631 5.93 1.24 10.29 5.67 15.03 9.1 14.68 11.45 28.05 24.59 39.94 38.92 8.37 10.99 17.43 22.71 18.73 36.98.87 7.46-3.32 15.54-10.77 17.77-2.08 1.35-6.31 1-6.53 4.07 25 3.1 50.34 4.98 75.48 2.34 9.45-.91 18.54-3.621 27.63-6.221 5.46-2.4 11.18-4.358 16.26-7.558-6.29-14.05-17.92-25.181-30.74-33.411-26.79-16.92-57.36-26.28-86.94-36.96-1.42-.4-2.89-2.069-1.32-3.209 6.46-7.26 15.21-11.941 22.75-17.961-8.65-8.16-18.81-15.321-30.61-17.911-13.29-2.49-26.92-3.49-40.38-3.58z" fill="#434b56"/>
    <path id="color11" d="m1213.95 543.99c-2.51 1.06-5.17 1.729-7.89 1.869-13.93 1.09-27.7 3.98-40.81 8.83-11.92 4.41-23.12 10.441-34.23 16.561-4.29 3.89-9.84 2.809-14.68.699-2.61 1.36-5.06 4.891-8.14 4.121-4.19-4.58-10.83-4.48-16.4-6.09-4.52-1.2-8.09 2.95-11.76 4.92-3.34 2.67-9.34 4.9-8.48 10.11 3.16 22.89 14.89 43.31 26.68 62.75 9.92 15.8 18.74 32.269 29.02 47.849 20.9 31.73 45.65 60.69 66.67 92.34 8.16 12.97 18.14 25.191 23.88 39.451.61.76 1.28 1.52 1.89 2.34 4.81 7.41 7.56 15.91 11.34 23.86 2.52-.95 3.32 1.86 3.9 3.72 4.03 12.22 9.01 24.361 9.54 37.401 13.35-.46 22.03-11.841 30.9-20.231-2.31-10.86-3.83-21.9-4.68-32.97-.1-.84-.16-1.69-.26-2.51-5.7-39.68-9.38-79.681-16.04-119.231-6.59-35.68-32.84-62.68-57.21-87.66 20.9 5.52 41.42 12.8 62.88 15.99 3.53.49 6.75 2.181 10.28 2.721.22-3.07 4.45-2.72 6.53-4.07 7.45-2.23 11.64-10.31 10.77-17.77-1.3-14.27-10.36-25.99-18.73-36.98-11.89-14.33-25.26-27.47-39.94-38.92-4.74-3.43-9.1-7.86-15.03-9.1z" fill="#5b5a58"/>
    <path id="color12" d="m1652.86 662.699c-.38.15-1.13.462-1.51.612-3.66 6.45-6.6 13.589-7.41 21.029 3.23-1.47 6.74-3.429 7.38-7.279.81.9 1.6 1.859 2.45 2.779-.91-5.68-.79-11.421-.91-17.141zm54.26 11.141c-.72.1-2.17.291-2.89.381-4.62 1.78-8.55 4.969-12.01 8.439 1.67-.16 5.11-1.269 2.43.981-4.07 2.7-4.1 7.84.25 10.24 3.24-7.17 7.3-13.891 12.22-20.041z" fill="#bbbcc1"/>
    <path id="color13" d="m1433.35 679.43c-.81 4.13-.25 8.34-.64 12.5-1.26 2.96-4.49 5.41-4.49 8.72 1.86 1.8 3.98 3.311 6.04 4.901 6.18 4.23 12.04 9.309 19.17 11.859 9.72 1.85 19.57-.57 29.15-2.09 3.34 3.36 6.2 7.191 9.74 10.391 4.76 5.16 12.46 3.059 18.67 3.389 15.6.34 31.09-1.72 46.33-4.83 2.44-1.17 5.02-2.1 7.34-3.52.84-3.45-.22-7.689 2.67-10.359 2.98-3.02 5.57-6.462 6.79-10.602-9.42 5.52-19.49 10.102-30.21 12.352-12.88 3.12-26.37 1.168-38.94-2.362-4.48-1.79-8.85 2.5-13.29.58-5.4-2.28-8.74-7.409-12.53-11.609-5.22 1.11-8.75-2.73-12.75-5.18-10.82-5.16-21.81-9.97-33.05-14.14z" fill="#758065"/>
    <path id="color14" d="m1598.58 689.936c-3.59.026-7.16.153-10.59.173-.3 7.15-10.41 4.27-13.83 9.68-1.22 4.14-3.81 7.582-6.79 10.602-2.89 2.67-1.83 6.909-2.67 10.359-2.32 1.42-4.9 2.35-7.34 3.52-2.31 4.55-4.87 8.969-7.18 13.509 4.06-.22 7.99-1.26 11.88-2.41v4.561c1.37.76 2.66 2.45 4.42 1.81 3.38-4.57 4.95-10.251 8.46-14.711 6.1-5.01 10.77-11.488 16.99-16.398 7.42-7.73 19.3-2.462 28.52-5.182 3.1-2.1 5.23-5.348 8.41-7.398-8.39-7.365-19.46-8.195-30.28-8.115z" fill="#705956"/>
    <path id="color15" d="m1663.06 701.873c-.28-.017-.59.066-.91.277-2.73 1.46 2.51 6.26 3.16 2.84-.15-1.129-1.01-3.045-2.25-3.117zm-445.25 125.527c-4.04 7.16-6.82 15.301-7.04 23.571-.1 10.13 7.26 17.849 12.14 26.029 2.65 4 1.41 9.179 3.65 13.359 1.32 3.7 5.66 6.232 4.68 10.602-1.05 10.29-.06 21.149-4.47 30.789-5.84 12.65-14.24 24.359-16.89 38.279-1.02 5.96-1.58 13.051 3.02 17.741 8.15 4.29 17.57 2.52 26.02.21-.58 1.68-1.26 3.319-1.95 4.959-5.62 10.611-5.62 27.611 7.68 32.191 10.74 1.71 22.94.5 31.16-7.32 8.51-8.41 12.82-20.32 13.97-32.05.8-8.66-.92-17.299-.25-25.959.26-3.93-.42-8.58 2.69-11.58 3.9-4.18 4.98-9.931 6.82-15.141 1.59-4.97 4.55-9.639 4.36-15.029-.42-7.95-3.03-15.942-8.98-21.442 1.57-7.39.59-16.649 7.81-21.359 3.79-2.14 1.52-7.23-1.35-9.08-3.56-.31-6.08 3.04-8.34 5.33-3.45 3.46-1.6 9.331-5.12 12.631-1.91-12.23-2.24-24.931-6.89-36.551-1.64-4.24-5.2-8.51-10.09-8.57.06.82.16 1.67.26 2.51 6.72.56 7.49 8.17 7.49 13.48-.18 6.5.74 13.68-2.81 19.49-8.87 8.39-17.55 19.771-30.9 20.231-4.98 1.24-11.33.8-14.59-3.66-3.36-6.22-2.51-13.782-1.58-20.522 1.58-4.57 2.07-10.539 6.63-13.219-.58-1.86-1.38-4.67-3.9-3.72-2.62 5.95-4.15 12.25-6.21 18.39-4.02-2.66-5.92-7.361-8.71-11.121-6.86-9.63-1.42-21.959 3.58-31.129-.61-.82-1.28-1.58-1.89-2.34z" fill="#3f4247"/>
    <path id="color16" d="m1618.33 717.354c-.64-.039-1.19.148-1.47.816 13.5 8.82 7.67 32.461-7.67 35.301 1.4.81 2.74 2.099 4.47 2.119 13.99-6.27 17.39-25.8 7.98-37.33-.89-.15-2.24-.842-3.31-.906z" fill="#92807a"/>
    <path id="color17" d="m1602.93 718.193c-.4.039-.81.401-1.24 1.086 1.88 9.45.84 20.67-6.79 27.42.4 1.15 1.4 1.572 2.99 1.272 6.26-8.14 8.93-18.94 6.16-28.92-.35-.61-.73-.896-1.12-.858zm39.06 4.457c1.45 7.77 3.09 15.83 1.3 23.69-2.33 7.29-9.15 11.991-15.95 14.711-.79 1.89.86 1.91 2.29 1.83 5.62-3.17 12.02-6.251 14.82-12.471 4.37-7.93 2.19-17.17.82-25.58-1.11-.73-2.22-1.45-3.28-2.18zm-338.59 195.401c.19 5.39-2.77 10.059-4.36 15.029-1.84 5.21-2.92 10.961-6.82 15.141-3.11 3-2.43 7.65-2.69 11.58 1.26 2.95 2.64 5.88 4.42 8.58 8.56-15.03 15.43-33.08 9.45-50.33zm-13.62 67.709c-1.15 11.73-5.46 23.64-13.97 32.05-8.22 7.82-20.42 9.03-31.16 7.32 10.52 6.34 24.66 2.6 33.86-4.7 10.87-7.65 12.63-22.44 11.27-34.67zm-76.88 2.01c3.78 9.01 16.31 6.759 24.07 5.169.69-1.64 1.37-3.279 1.95-4.959-8.45 2.31-17.87 4.08-26.02-.21z" fill="#9e856a"/>
    <path id="color18" d="m1219.7 829.74c-5 9.17-10.44 21.499-3.58 31.129 2.79 3.76 4.69 8.461 8.71 11.121 2.06-6.14 3.59-12.44 6.21-18.39-3.78-7.95-6.53-16.45-11.34-23.86zm51 11.78c.85 11.07 2.37 22.11 4.68 32.97 3.55-5.81 2.63-12.99 2.81-19.49.02-5.31-.77-12.92-7.49-13.48zm-35.76 15.8c-4.56 2.68-5.05 8.649-6.63 13.219-.93 6.74-1.78 14.302 1.58 20.522 3.26 4.46 9.61 4.9 14.59 3.66-.53-13.04-5.51-25.181-9.54-37.401z" fill="#37383c"/>
  </g>
</svg>
