<svg height="1080" width="1920" xmlns="http://www.w3.org/2000/svg">
  <path id="background" d="m0 0h1920v1080h-1920z" fill="#435674"/>
  <g id="transform" transform="translate(0,0) scale(1.00)">
    <path id="color1" d="m865.551 0c-4.06 4.36-8.772 8.77992-9.852 14.9199-1.45 7.59 2.202 14.7802 4.862 21.6602 3.56 8.8 5.548 18.1307 8.968 26.9707.73 1.03 1.461 2.0694 2.201 3.1094 4.24-12.84 9.9-25.1593 14.27-37.9493-.95-2.95-2.931-6.2315-1.551-9.3515 2.18-3.37 5.52-5.7502 8.24-8.6602 1.69-3.40998.701 1.2411.721 2.8711-1.48 11.19 6.43 20.4492 13.11 28.4492 4.23-7.13 11.941-11.1999 17.541-16.6699 8.94 2.17 19.379 2.4695 27.039-3.3105-2.43-8.02-10.35-12.98918-15.94-18.86918 6.75 3.85 17.28 5.43008 21.08-3.16992zm133.058 215.119c-3.37 14.82-9.709 28.752-15.859 42.592-11.92 26.83-27.78 52.209-48.02 73.529 20.01-30.09 37.25-63.25 43.11-99.23-11.3 26.23-28.06 49.669-46.26 71.519-9.35 11.06-18.401 22.432-28.711 32.612 11.6-22.33 22.442-45.391 28.102-70.041-9.11 13.76-20.671 26.769-35.871 33.839 16.92-12.48 30.141-29.549 39.361-48.339 2.65-8.29 3.969-17.001 5.459-25.571-17.14 29.51-39.921 56.68-69.721 74 17.46-19.46 32.501-41.309 43.721-64.949-13.45 16.73-27.99 32.861-45.35 45.641-9.91 7.34-21.041 12.879-31.371 19.509-5.87 10.42-8.22 22.89-6.58 34.78-3.99-9.74-3.529-20.539-1.699-30.699-1.42.4-2.82.9-4.19 1.41-3.89 11.07-8.061 22.07-11.611 33.25-.12 8.18 3.86 15.839 7.74 22.849-4.67-4.39-7.589-10.099-10.379-15.759-4.92 14.17-10.119 28.26-14.839 42.5 10.22 5.44 21.459 9.818 29.949 17.888 14.12 20.35 38.511 28.861 60.041 38.901 22.47 9.36 44.57 20.41 68.51 25.56 10.91 2.16 15.6-9.891 20.66-17.121 8.98-15.1 21.298-27.768 30.899-42.408 10.68-13.61 14.97-30.75 16.67-47.66-3.65 2.61-7.76 4.599-12.23 5.259 5.44-4.43 11.14-8.94 14.27-15.4.62-5.81 1.59-11.581 3.13-17.221-.03-10.6 2.65-20.838 4.33-31.228-6.6 10.61-13.96 20.849-22.81 29.699 7.36-11.39 13.07-24.169 14.06-37.859 1.21-14.62 1.55-29.621-1.35-44.051-4.67 19.51-11.2 39.569-24.61 54.939 16.14-28.09 14.91-63.9 1.449-92.74zm-218.322 80.49c-4.132.116-7.019 4.476-10.816 5.981-4.63 3.15-10.93 3.271-15.17 6.711-5.79 15.59-3.481 33.729 4.609 48.129 7.85-20.14 16.771-40 23.231-60.59-.648-.178-1.264-.247-1.854-.231zm153.014 36.76c1.69.69-.611 3.951-2.071 3.131-.69-1.32.821-2.851 2.071-3.131zm-37.143 207.586c-.917-.033-1.847.067-2.777.324-10.92 1.66-20.311 7.792-30.461 11.682 3.64 6.43 5.99 13.589 7.08 20.879-2.63.49-5.31.6-7.92 1.14-.93 10.71-.71 21.959-5.15 31.969-1.23 3.26-5.129 2.801-7.799 3.981 1.59 10.8-4.572 20.45-9.442 29.56 4.94 3.42 11.352 3.86 16.022 7.77 4.51 3.1 4.928 9.44 9.568 12.47 1.54 1.77 5.402 3.04 4.362 5.92-3.38 2.77-6.342 5.96-9.282 9.17-7.37-5.23-15.008-10.16-23.138-14.14-4.08 11.01-8.26 22.709-17.33 30.689 2.5 2.44 5.099 4.83 7.179 7.67-4.08 3.64-9.009 7.292-10.109 13.012-.53 5.59 3.22 11.93 8.93 13.09 4.98-3.27 10.129-7.201 16.539-6.071 12.97-1.85 15.681-16.03 23.031-24.55 1.72.75 3.288 1.78 4.898 2.75 4.83-.07 6.921-5.019 10.661-7.209 5.91-3.55 12.601-5.471 18.941-8.081 3.22-1.19 3.288-5.061 4.398-7.791.92-3.44 3.221-6.478 3.571-10.058-.99-3.7-4.169-6.262-5.549-9.772 5.25-7.3 14.119-10.24 21.709-14.32 3.02-1.37 3.301-4.99 2.631-7.84-2.95-12.65-8.25-24.639-11.58-37.129 1.9-4.92 6.799-9.399 5.089-15.109-3.18-11.87-7.459-23.591-14.259-33.891-2.137-3.323-5.839-5.973-9.813-6.115zm-3.789 31.791c2.84.019 5.202 2.978 4.381 5.943-3.37 1.34-7.079-1.279-10.699-.699-4.34-1.68 2.378-4.24 4.308-4.75.674-.345 1.355-.498 2.01-.494zm-24.625 35.07c5.403.08 10.775.741 15.875 2.584 4.28 3.18 4.332 9.351 7.762 13.311 3.17 3.45.14 8.018-3.08 10.068-3.76-4.11-4.962-10.108-9.602-13.478-6.06-5.37-14.71-6.801-20.66-12.131 3.21-.24 6.463-.401 9.705-.354zm-309.242 9.067c-17.597-.014-35.186 1.299-52.422 5.156-17.82 4.07-36.03 6.73-53.4 12.58-5.56 2.07-8.609 7.471-12.209 11.811-10.88 13.17-20.741 27.219-28.881 42.259-6.98 13.77-10.08 29.081-11.82 44.311.07 8.33 4.231 16.379 11.201 21.029 14.26 9.02 30.769 14.412 47.609 15.612.51-5.65-3.151-14.511 3.859-17.131 22.24-10.6 45.581-18.641 68.481-27.641 14.71-36.85 31.931-72.77 51.551-107.26-7.969-.44-15.97-.72-23.969-.726z" fill="#f9e8d4"/>
    <path id="color2" d="m956.24 0c-3.8 8.6-14.33 7.01992-21.08 3.16992 5.59 5.88 13.51 10.84918 15.94 18.86918-7.66 5.78-18.099 5.4805-27.039 3.3105-5.6 5.47-13.311 9.5399-17.541 16.6699-2.46 9.46 14.851 10.7496 9.541 19.8496-3.89 9.32-6.701 19.0812-11.061 28.2012 5.71 5.08 11.841 11.1997 19.971 11.4997 15.74 1.87 31.059 6.939 47.039 6.799 14.17 1.9 28.88-.698 42.61 4.342 5.85 1.02 10.94 4.838 13.72 10.078 1.99 4.03 6.87 3.98 10.7 4.75 9.24 1.24 16.04 8.502 24.78 11.102 3.72-1.17 5.62-5.06 7.52-8.18 4.73-9.72 5.1-21.001 3.73-31.5508-1.57-18.8-5.25-37.371-9.59-55.711-.54-4.21-5.78-3.3293-8.73-4.7793-14.07-3.83-21.23-18.4695-34.75-23.2695-10.85-4-22.591-3.8313-33.801-6.28126-8.29-1.88-17.608-2.76914-24.068-8.86914zm-93.32 551.961c-1.69.14-3.42.148-5 .818-12.48 5.42-24.89 11.09-37.84 15.34-6.6 2.61-14.189.671-20.439 4.461-24.68 13.02-51.56 20.83-77.58 30.59-5.12 5.26-6.07 13.139-8.34 19.859 8.93 14.19 3.799 36.581-11.551 44.311-1.14 5.87 1.791 11.751.711 17.711-.06 6.45-3.89 11.639-7.99 16.209 14.98-4.74 29.879-9.719 44.839-14.539 4.81-2.02 11.22 2.099 11.2 7.269-.46 4.36-5.47 6.33-6.52 10.34 11.83-1.98 21.68-9.079 32.68-13.269 4.75-1.55 10.401-1.951 14.631 1.169 5.12 3.9 11.529.701 16.949-.679 3.76-1.5 7.571 2.038 11.221-.182 9.07-7.98 13.25-19.679 17.33-30.689-4.44-7.35-14.151-9.199-18.461-16.629-1.91-3.65 2.691-7.201 6.131-5.721 4.88.6 10.508 5.65 14.798 1.16 4.87-9.11 11.032-18.76 9.442-29.56 2.67-1.18 6.569-.721 7.799-3.981 4.44-10.01 4.22-21.259 5.15-31.969 2.61-.54 5.29-.65 7.92-1.14-1.09-7.29-3.44-14.449-7.08-20.879zm293.93 461.999c-1.99-.03-4.31 1.06-6.21 1.25-3.93 1.27-9.42.54-11.1 5.26-2.66 5.64-9.19 9.39-15.36 7.48-4.36-1.45-6.2-5.91-8.62-9.36-9.44 1.72-18.9 3.57-28.27 5.63.91 2.5 1.66 5.08 1.84 7.76 1.44 16.04 3.81 31.98 5.26 48.02h31.94c2.69-3.7 6.97-6.36 11.64-6.23 3.39.76 5.48 3.77 7.65 6.23h23.37c-2.81-16.18-4.95-32.47-7.59-48.68-.77-5.19-2.03-10.39-1.5-15.66-.79-1.26-1.86-1.68-3.05-1.7zm-331.061 18.15c-.587.01-1.182.05-1.779.14-11.96.76-23.931.66-35.901.76-3.08 4.33-3.65 9.69-4 14.83 13.94.39 27.762 3.74 41.692 3.74 4.78-3.82 2.17-15.11 10.67-14.41-2.757-3.08-6.57-5.08-10.682-5.06zm158.365 2.56c-.382-.01-.766-.01-1.154.02-15.66.17-31.501.3-46.881 3.54-3.13.35-4.998 2.82-5.908 5.63.69 6.95-.921 14.47.779 21.1 12.24 3.77 25.749 3.51 37.949 7.96 3.2 1.2 4.781 4.39 6.551 7.08h6.28c-.21-12.35-.111-24.7-.071-37.04-.12-5.27 6.471-3.9 9.821-5.57-2.162-1.6-4.691-2.64-7.366-2.72z" fill="#424747"/>
    <path id="color3" d="m893.512 9.48047c-.145.01812-.4.36625-.823 1.21873-1.42 6.27-4.189 12.1217-6.689 18.0117-4.37 12.79-10.03 25.1093-14.27 37.9493-9.14 24.72-19.15 49.1498-28.47 73.8198-1.94 5.27-4.641 10.331-5.311 15.981 12.68-5.07 28.722-.45 36.192 11.09.96-1.22 2.048-2.371 2.718-3.791 9.45-24.53 18.261-49.34 28.141-73.6897 4.36-9.12 7.171-18.8812 11.061-28.2012 5.31-9.1-12.001-10.3896-9.541-19.8496-6.68-8-14.59-17.2592-13.11-28.4492-.015-1.2225.537-4.14421.102-4.08983zm-50.52 170.99453c-7.159-.115-14.642 3.101-18.562 8.996-2.57 5.84-4.46 11.96-7.17 17.74-12.5 29.2-23.689 58.999-35.119 88.629-6.46 20.59-15.381 40.45-23.231 60.59-1.47 3.66-3.21 7.21-4.76 10.83-1.46 6.63-4.54 12.721-6.88 19.051-26.03 66.28-52.101 132.538-78.151 198.808-2.2 5.73-4.749 11.341-6.349 17.281 18.98-3.85 40.451 3.949 50.951 20.629 2.27-6.72 3.22-14.599 8.34-19.859-.41-.12-1.25-.38-1.67-.51 23.32-67.28 47.25-134.369 70.74-201.599 1.35-4.22 2.9-8.37 4.51-12.5 4.72-14.24 9.919-28.33 14.839-42.5 2.79 5.66 5.709 11.369 10.379 15.759-3.88-7.01-7.86-14.669-7.74-22.849 3.55-11.18 7.721-22.18 11.611-33.25 9.7-29.61 20.22-58.971 30.93-88.211 3.22-8.17 9.289-17.439 3.949-26.049-2.625-7.425-9.458-10.871-16.617-10.986zm353.918 821.165c-10.33 8.94-24.11 11.23-37.01 14.02-.53 5.27.73 10.47 1.5 15.66 2.64 16.21 4.78 32.5 7.59 48.68h12.62c8.55-1.58 17.14-3.2 25.37-6.09 3.97-2.02 2.09-6.53 1.67-9.94-3.24-20.9-7.64-41.6-11.74-62.33zm-109.62 22.58c-.83.15-2.47.45-3.29.6-26.34 3.77-52.65 7.68-78.99 11.4-4.48.58-8.96 1.97-13.49 1.17-3.35 1.67-9.941.3-9.821 5.57-.04 12.34-.139 24.69.071 37.04h112.62c-1.45-16.04-3.82-31.98-5.26-48.02-.18-2.68-.93-5.26-1.84-7.76zm-251.585 12.92c-7.579.03-5.274 10.74-9.904 14.44-13.93.04-27.752-3.35-41.692-3.74-12.59.64-26.218-5.2-38.058 1.18-12 5.8-17.861 18.79-21.201 30.98h250.64c-1.77-2.69-3.351-5.88-6.551-7.08-12.2-4.45-25.709-4.19-37.949-7.96-1.7-6.63-.089-14.15-.779-21.1-23.39-1.86-46.891-2.38-70.281-4.49-7.81-.86-15.819-.14-23.459-2.2-.266-.02-.521-.03-.766-.03z" fill="#7f7460"/>
    <path id="color4" d="m869.529 63.5508c-15.23 1.35-30.768 3.0694-45.058 9.1094-33.93 13.11-64.612 33.9098-91.032 58.7698-12.62 13.83-24.63 28.78-31.65 46.31-8.79 24.75-24.92 47.371-26.59 74.221 11.52-34.37 31.502-66.012 57.862-90.922 1.18-1.01 5.089-4.169 3.449-.609-10.24 27.85-20.331 55.801-28.721 84.291-6.38 18.84-15.968 37.558-31.658 50.308 19.06-10.86 35.648-26.26 46.818-45.24-2.77 19.96-5.379 40.021-4.929 60.211-3.54.68-7.15-.05-10.7.43 3.44.99 7.159.43 10.539 1.75 1.63 6.42 2.851 13.02 3.961 19.55-5.81 6.33-13.59 10.62-21.81 13 8.85 1.02 17.29-2.179 25.14-5.849.93 1.27 1.711 2.659 2.481 4.039-3.36-6.36 4.938-8.47 8.568-12.08-1.4 9.32-6.459 17.48-10.129 26 7.99-5.91 12.79-14.681 15.69-23.981 1.86 7.43 2.131 15.311.551 22.811-.33 7.87-2.83 15.3-4.75 22.85 8.21-5.72 11.079-15.881 14.539-24.741-1.65-2.94 2.42-2.979.81-.009.63 4.47.93 8.98 1.24 13.49 1.55-3.62 3.29-7.17 4.76-10.83-8.09-14.4-10.399-32.539-4.609-48.129 4.24-3.44 10.54-3.561 15.17-6.711 4.34-1.72 7.49-7.17 12.67-5.75 11.43-29.63 22.619-59.429 35.119-88.629-2.91-9.4 1.441-18.921 4.451-27.721 4.12-8.44 7.298-18.429 16.238-23.029.67-5.65 3.371-10.711 5.311-15.981 9.32-24.67 19.33-49.0998 28.47-73.8198-.74-1.04-1.471-2.0794-2.201-3.1094zm35.471 26.5195c-9.88 24.3497-18.691 49.1597-28.141 73.6897-.67 1.42-1.758 2.571-2.718 3.791 3.48 11.36-.702 23.159-5.022 33.679-3.2 6.16-6.199 14.07-13.459 16.28-10.71 29.24-21.23 58.601-30.93 88.211 1.37-.51 2.77-1.01 4.19-1.41-1.83 10.16-2.291 20.959 1.699 30.699-1.64-11.89.71-24.36 6.58-34.78 10.33-6.63 21.461-12.169 31.371-19.509 17.36-12.78 31.9-28.911 45.35-45.641-11.22 23.64-26.261 45.489-43.721 64.949 29.8-17.32 52.581-44.49 69.721-74-1.49 8.57-2.809 17.281-5.459 25.571-9.22 18.79-22.441 35.859-39.361 48.339 15.2-7.07 26.761-20.079 35.871-33.839-5.66 24.65-16.502 47.711-28.102 70.041 10.31-10.18 19.361-21.552 28.711-32.612 18.2-21.85 34.96-45.289 46.26-71.519-5.86 35.98-23.1 69.14-43.11 99.23 20.24-21.32 36.1-46.699 48.02-73.529 6.15-13.84 12.489-27.772 15.859-42.592 13.461 28.84 14.691 64.65-1.449 92.74 13.41-15.37 19.94-35.429 24.61-54.939 2.9 14.43 2.56 29.431 1.35 44.051-.99 13.69-6.7 26.469-14.06 37.859 8.85-8.85 16.21-19.089 22.81-29.699-1.68 10.39-4.33 20.628-4.33 31.228 1.69 5.82.46 12.351-3.13 17.221-3.13 6.46-8.83 10.97-14.27 15.4 4.47-.66 8.58-2.649 12.23-5.259 1.66-2.99 3.36-6.02 5.75-8.5 2.34 6.35 2.3 13.979 7.62 18.879-4.2-13.54-1.07-28.319 3.74-41.219 2.68 9.22 6.88 18.81 15.22 24.25-4.4-6.42-9.39-13.022-9.87-21.102-.28-6.08-3.03-12.93.79-18.42 2.13-3.43 3.74-7.128 5.71-10.648 1.95 1.93 3.68 4.059 5.58 6.049-1.28-4.14-5.15-8.351-2.85-12.821 3.85-9.75 5.66-20.129 7.25-30.439 11.08 14.15 7.5 37.349 24.41 47.359-6.68-8.14-10.5-18.109-12.45-28.369-3.3-16.56-6.48-33.22-8.18-50 6.6 15.25 18.77 30.18 35.93 33.24-6.5-2.72-13.48-6.231-17.4-12.201 1.85-23.55-4.43-47.459-17.19-67.289-1.56-1.86-4.23-1.94-6.43-2.34 11.64 14.6 17.77 32.619 21.5 50.709 1.09 5.81 2.36 11.731 1.55 17.661-6.25-4.82-9-12.72-11.87-19.79-4.78-16.2-5.83-33.81-14.13-48.81-8.01-2.83-17.21-2.529-24.44-7.529-4.98-3.44-5.82-9.921-6.85-15.411-2.39-18.38-10.04-35.669-11.14-54.269-13.73-5.04-28.44-2.442-42.61-4.342-15.98.14-31.299-4.929-47.039-6.799-8.13-.3-14.261-6.4197-19.971-11.4997zm-169.98 182.9007c.43 11.25 1.211 22.95-2.209 33.83-2.51 1.04-5.201 1.609-7.891 1.969 1.92-12.07 5.52-23.901 9.34-35.491zm-6.393 37.754c1.142-.01 2.299.12 3.424.275-1.32 6.15-3.58 12.521-8 17.141.14-5.37-2.082-12.672 1.228-16.852 1.075-.405 2.205-.554 3.348-.564z" fill="#8f856d"/>
    <path id="color5" d="m1148.67 90.8203c3.9 24.4997 6.16 49.4887 4.06 74.2887-3.19 19.93-14.45 37.882-28.7 51.852 5.69 3.62 12.56 4.259 18.88 6.189 6.5 2.03 8.84 9.141 13.54 13.411 9.41 9.24 22.91 11.618 34 18.048 3.65 2.25-.34 5.761-2.02 7.881-8.21 8.68-6.7 21.981-13.57 31.401-6.06 7.42-15.46 10.548-23.28 15.638-4.54 2.82-10.07 6.471-9.97 12.481-.05 5.36-.78 11.35 2.56 15.98 5.65 8.17 13.61 14.291 20.52 21.321 19.19 18.78 36.37 39.658 50.56 62.468 4.66 7.27 8.91 14.832 14.08 21.772 7.33 11.65 26.73 9.28 32.94-2.34 17.29-26.54 25.51-58.042 43.99-83.922 19.67-27.29 38.28-55.77 50.9-87.1 3.58-9.69 7.35-19.929 6.28-30.439-3.73-21.04-18.96-37.171-32.28-52.881-11.12-13.81-27.01-22.31-42.2-30.83-45.54-24.29-93.61-43.339-140.29-65.2187zm-215.369 241.5487c-1.25.28-2.761 1.811-2.071 3.131 1.46.82 3.761-2.441 2.071-3.131zm-180.391 21.401l-.81.009c-3.46 8.86-6.329 19.021-14.539 24.741 1.92-7.55 4.42-14.98 4.75-22.85-10.66 1.2-21.342 2.961-31.622 6.041-4 .95-6.418 4.428-8.128 7.898-9.93 18.98-15.791 39.781-20.241 60.651-1.81 7.04-2.8 14.421-6.15 20.961-3.06 6-8.59 10.128-12.42 15.568-8.81 11.99-9.19 28.312-19.52 39.422-12.33 13.84-25.94 28.448-44.31 33.738-5.6 1.84-9.769 7.082-15.949 7.262-9.5 1.16-19.651-3.44-28.641 1.1-8.26 4.08-9.999 14.808-18.279 18.798-5.94 3.01-12.241 5.371-17.631 9.381-7.14 5.17-16.291 4.93-24.381 7.53-7.77 2.25-8.149 12.539-15.309 15.669-9.05 3.73-17.709-5.728-26.759-1.808-8.26 4.05-13.282 12.349-20.932 17.299-20.26 13.49-42 25.199-59.75 42.099-9.77 8.89-17.269 21.181-17.309 34.711-.28 8.46 5.241 15.391 8.081 22.981 2.17 5.18 2.088 11.108 5.048 15.978 4.62 7.76 11.312 14.001 17.852 20.121 16.25 14.21 33.81 27.311 53.35 36.651 6.45 3.36 13.589.39 19.839-1.91-.01-5.73.64-11.52-.57-17.17-16.84-1.2-33.349-6.592-47.609-15.612-6.97-4.65-11.131-12.699-11.201-21.029 1.74-15.23 4.84-30.541 11.82-44.311 8.14-15.04 18.001-29.089 28.881-42.259 3.6-4.34 6.649-9.741 12.209-11.811 17.37-5.85 35.58-8.51 53.4-12.58 25.07-5.61 50.891-5.84 76.391-4.43 3.09-4.63 6.049-10.74 12.439-10.99 20.42-2.77 41.169-2.01 61.699-1.09 2.05-.72 4.101-1.429 6.161-2.129 1.6-5.94 4.149-11.551 6.349-17.281 26.05-66.27 52.121-132.528 78.151-198.808 2.34-6.33 5.42-12.421 6.88-19.051-.31-4.51-.61-9.02-1.24-13.49zm307.14 39.4c-8.65-.15-8.34 11.5-14.92 15-8.11 6.16-19.38 1.549-27.62 7.439-4.3 3.47-8.29-2.148-11.81-4.228-9.601 14.64-21.919 27.308-30.899 42.408-5.06 7.23-9.75 19.281-20.66 17.121-1.69 3.88-2.702 8.01-4.452 11.86-11.06-1.66-21.689-5.53-31.419-11.02-42.51-23.3-82.389-51.589-127.139-70.689-23.49 67.23-47.42 134.319-70.74 201.599.42.13 1.26.39 1.67.51 26.02-9.76 52.9-17.57 77.58-30.59 6.25-3.79 13.839-1.851 20.439-4.461 12.95-4.25 25.36-9.92 37.84-15.34 1.58-.67 3.31-.678 5-.818 10.15-3.89 19.541-10.022 30.461-11.682 4.96-1.37 9.96 1.701 12.59 5.791 6.8 10.3 11.079 22.021 14.259 33.891 1.71 5.71-3.189 10.189-5.089 15.109 3.33 12.49 8.63 24.479 11.58 37.129.67 2.85.389 6.47-2.631 7.84-7.59 4.08-16.459 7.02-21.709 14.32 1.38 3.51 4.559 6.072 5.549 9.772-.35 3.58-2.651 6.618-3.571 10.058-1.11 2.73-1.178 6.601-4.398 7.791-6.34 2.61-13.031 4.531-18.941 8.081-3.74 2.19-5.831 7.139-10.661 7.209-9.34 13.44-17.939 27.391-27.109 40.951-6.36 9.82-13.58 19.2-18.07 30.09-1.25 3.8-5.1 5.189-8.5 6.449-4.63 1.61-7.26 6.07-11.33 8.51-2.96 1.55-6.1-.51-8.77-1.7-10.17-5.33-20.11-11.181-29.6-17.631 5.7 1.43 10.919 5.092 16.969 4.872 4.25-1.71 8.201-4.752 13.071-4.272 5.29-.12 12.43 3.081 15.99-2.539 8.64-15.07 19.6-28.63 29.42-42.93-6.41-1.13-11.559 2.801-16.539 6.071-5.71-1.16-9.46-7.5-8.93-13.09 1.1-5.72 6.029-9.372 10.109-13.012-2.08-2.84-4.679-5.23-7.179-7.67-3.65 2.22-7.461-1.318-11.221.182-5.42 1.38-11.829 4.579-16.949.679-4.23-3.12-9.881-2.719-14.631-1.169-11 4.19-20.85 11.289-32.68 13.269-9.69 8.68-17.2 19.571-25.73 29.381-3.13 2.92-1.42 7.139-.03 10.469 15.58 38.68 34.429 75.929 50.789 114.269.73 2.33 2.331 5.272.541 7.512-5.18 6.7-10.71 13.12-16.07 19.67 12.39 6.97 24.981 14.219 35.061 24.389 5.82 4.9 1.199 13.57 5.849 19.13 5.4 6.83 12.38 13.58 12.92 22.83 1.01 6.02-5.63 9.349-5.99 15.059-1.21 4.88-.42 10.752-3.92 14.772-7.39 6.13-18.36 5.029-25.65 11.369-3.22 2.96-2.22 7.84-.78 11.45 4.22 10.18 10.379 19.41 16.709 28.38 11.97-.06 23.941-.02 35.901-.76 4.78-.71 9.311 1.4 12.461 4.92 7.64 2.06 15.649 1.34 23.459 2.2 23.39 2.11 46.891 2.63 70.281 4.49.91-2.81 2.778-5.28 5.908-5.63 15.38-3.24 31.221-3.37 46.881-3.54 3.1-.22 6.05.87 8.52 2.7 4.53.8 9.01-.59 13.49-1.17 26.34-3.72 52.65-7.63 78.99-11.4 3.39-14.59 9-28.83 10.07-43.84.57-17.45-16.49-27.061-24.28-40.781-7.98-12.15-6.2-27.269-9.19-40.879-5.11-25.59-15.64-49.629-23.46-74.429-16.52-51.69-29.67-104.401-45.829-156.211-5.65-17.44-11.781-34.909-21.241-50.709-3.56-6.85-9.41-13.06-10.15-21 1.83-11.1 11.939-20.041 10.699-31.881-1.76-7.42-10.108-9.7-14.558-15.07-2.31-2.96-1.141-6.88-.131-10.1 6.11-16.99 5.77-35.31 8.17-53-.09-3.12 3.571-3.329 5.781-4.109 15.16-3.35 30.609-5.572 46.129-6.272 5.01.15 10.44-.73 15.1 1.57.89 3.5.08 7.122-.5 10.612-2.88 13.76-6.53 27.359-9 41.209-1.17 6.84-1.84 14.421 1.9 20.631 3.52 6.11 9.57 11.749 8.55 19.459.09 5.25-3.57 10.17-2.49 15.38 5.3 8.48 15.72 13.33 18.5 23.5 3.36 12.59 6.21 25.309 8.91 38.049 5.85 29.89 15.01 58.971 23.87 88.061 10.62 35.83 18.36 72.401 27.77 108.541 7.47 21.24 13.06 43.1 17.85 65.09 1.58 6.79 1.87 14.1 5.67 20.16 10.28 17.38 23.13 33.038 34.07 49.978 1.72 2.9 4.22 6.422 2.29 9.852-4.61 9.7-11.92 17.719-17.86 26.579 3.04-.31 7.16-2.91 9.26.45 12.9-2.79 26.68-5.08 37.01-14.02 5.86-6.289 12.44-16.75 6.37-24.89-11.18-14.49-26.99-26.321-32.54-44.461-1.96-10.02-1.4-20.479-4.61-30.279-2.13-7.69-6.93-14.18-11.9-20.27-6.09-7.5-8.15-17.28-9.06-26.67-3.27-32.63.7-65.551-3.27-98.131-2.32-22.99-8.28-45.368-12.39-68.048-2.6-16.29-1.3-33.021-5.26-49.131-1.53-8.5-6.19-17.28-2.68-25.91 5.43-15.36 13.41-29.659 19.59-44.719 3.15-8.12 8.58-15.161 15.4-20.531 14.55-10.84 11.31-32.97 2.27-46.42-20.65-33.62-44.94-65.22-73.43-92.58-7.5-6.61-15.11-14.6-25.35-16.43zm-19.51 112.939c7.94 5.85 15.65 12.151 24.24 17.131 7.15 4.82 15.03 8.699 21.37 14.619 6.65 6.61 8.1 16.332 10.67 24.942-3.81-8.76-10.64-16.09-19.26-20.24-14.19-6.53-27.51-14.81-40.15-23.93-.23-4.2 2.06-8.422 3.13-12.522zm-148.171 65.637c-.655-.004-1.336.149-2.01.494-1.93.51-8.648 3.07-4.308 4.75 3.62-.58 7.329 2.039 10.699.699.821-2.965-1.541-5.924-4.381-5.943zm-24.625 35.07c-3.242-.047-6.495.114-9.705.354 5.95 5.33 14.6 6.761 20.66 12.131 4.64 3.37 5.842 9.368 9.602 13.478 3.22-2.05 6.25-6.618 3.08-10.068-3.43-3.96-3.482-10.131-7.762-13.311-5.1-1.843-10.472-2.504-15.875-2.584zm-44.861 31.18c-2.93.189-5.675 3.089-4.123 6.055 4.31 7.43 14.021 9.279 18.461 16.629 8.13 3.98 15.768 8.91 23.138 14.14 2.94-3.21 5.902-6.4 9.282-9.17 1.04-2.88-2.822-4.15-4.362-5.92-4.64-3.03-5.058-9.37-9.568-12.47-4.67-3.91-11.082-4.35-16.022-7.77-4.29 4.49-9.918-.56-14.798-1.16-.645-.277-1.332-.378-2.008-.334zm-203.778 105.649c-3.626-.025-7.239.11-10.794.675-10.65 1.58-21.702 6.04-27.192 15.92-11.44 20.33-20.609 41.84-29.619 63.33-1.54 2.99-.591 6.33.529 9.27 3.8 14.2 16.161 24.441 29.061 30.291 4.28-.03 8.199-3.092 12.609-3.432 2.34-6.33 2.94-13.099 4.59-19.599 7.04-31.8 16.92-63.14 31.57-92.34.36-1.09 2.392-3.76.112-3.83-3.6-.075-7.239-.26-10.866-.285zm34.026 7.486c-2.01 4.72-2.81 9.879-4.41 14.769-8.47 34.16-24.68 65.65-39.83 97.2 3.11 3.1 4.719 7.32 7.369 10.67 10.98 1.69 22.23-1.371 32.66-4.731 3.21-1.58 7.689-2.419 9.119-6.119 8.42-24.84 17.451-49.55 24.191-74.9-.04-16.89-14.579-31.249-29.099-36.889zm556.709 322.739c-.97 0-1.92.02-2.86.04-8.23 2.89-16.82 4.51-25.37 6.09h47.06c-4.59-5.48-12.03-6.16-18.83-6.13z" fill="#d5dfe1"/>
    <path id="color6" d="m849.182 154.42c-3.833-.046-7.667.615-11.233 2.041-8.94 4.6-12.118 14.589-16.238 23.029-3.01 8.8-7.361 18.321-4.451 27.721 2.71-5.78 4.6-11.9 7.17-17.74 7.84-11.79 29.929-12.86 35.179 1.99 5.34 8.61-.729 17.879-3.949 26.049 7.26-2.21 10.259-10.12 13.459-16.28 4.32-10.52 8.502-22.319 5.022-33.679-5.369-8.295-15.165-13.015-24.959-13.131zm-177.383 447.018c-3.036.043-6.064.361-9.029.962-2.06.7-4.111 1.409-6.161 2.129-11.99 5.35-20.46 17.451-21.42 30.491-.51 4.98 6.461 11.26.571 14.8-8.4 5.39-13.181 14.741-13.891 24.571-9.36-12.07-16.999-25.581-27.779-36.491-4.73-4.46-12.161.559-12.561 6.299-.99 20.12-.29 40.421-3.91 60.321-1.82 2.92-5.619 3.571-8.609 4.791-12.65 4.97-25.38 9.738-38.09 14.558-22.9 9-46.241 17.041-68.481 27.641-7.01 2.62-3.349 11.481-3.859 17.131 1.21 5.65.56 11.44.57 17.17 2.07 70.59 4.531 141.139 7.411 211.679 4.3 3.3 9.249-.7 13.089-2.82 8.59-4.64 7.751-15.99 12.481-23.27-1.71 22.51-7.122 44.91-6.842 67.64 1.72 6.83 13.84 9.84 16.82 2.17 23.48-54.479 45.341-109.639 68.141-164.399 3.34.95 4.21 5.458 5.91 8.228 3.57 10.6-1.48 21.43-2.67 32-1 12.1-5.64 23.741-5.25 35.981 9.23-12.21 15.501-26.379 23.071-39.629 3.22-5.38 5.239-11.771 10.289-15.821 3.84-2.52 8.929-2.421 12.509-5.451 2.33-1.78 2.452-6.309 6.282-5.459-20.24 55.17-41.262 110.07-59.782 165.85-1.15 4.01-2.669 8.11-2.339 12.36 2.6 5.3 10.689 8.18 15.259 3.68 9.81-9.37 18.931-19.41 27.791-29.65 3.97.18 5.05 8.45 9.77 6.44 49.27-51.68 95.86-105.879 142.82-159.709 5.36-6.55 10.89-12.97 16.07-19.67 1.79-2.24.189-5.182-.541-7.512-16.36-38.34-35.209-75.589-50.789-114.269-1.39-3.33-3.1-7.549.03-10.469 8.53-9.81 16.04-20.701 25.73-29.381 1.05-4.01 6.06-5.98 6.52-10.34.02-5.17-6.39-9.289-11.2-7.269-14.96 4.82-29.859 9.799-44.839 14.539 4.1-4.57 7.93-9.759 7.99-16.209 1.08-5.96-1.851-11.841-.711-17.711 15.35-7.73 20.481-30.121 11.551-44.311-8.86-14.073-25.529-21.825-41.922-21.591zm-52.694 142.207c3.627.025 7.266.21 10.866.285 2.28.07.248 2.74-.112 3.83-14.65 29.2-24.53 60.54-31.57 92.34-1.65 6.5-2.25 13.269-4.59 19.599-4.41.34-8.329 3.402-12.609 3.432-12.9-5.85-25.261-16.091-29.061-30.291-1.12-2.94-2.069-6.28-.529-9.27 9.01-21.49 18.179-43 29.619-63.33 5.49-9.88 16.542-14.34 27.192-15.92 3.555-.565 7.168-.7 10.794-.675zm34.026 7.486c14.52 5.64 29.059 19.999 29.099 36.889-6.74 25.35-15.771 50.06-24.191 74.9-1.43 3.7-5.909 4.539-9.119 6.119-10.43 3.36-21.68 6.421-32.66 4.731-2.65-3.35-4.259-7.57-7.369-10.67 15.15-31.55 31.36-63.04 39.83-97.2 1.6-4.89 2.4-10.049 4.41-14.769z" fill="#b4ad73"/>
  </g>
</svg>
