<svg xmlns="http://www.w3.org/2000/svg" height="1080" width="1920">
  <path id="background" d="m0 0h1920v1080h-1920z" fill="#d9b2d0"/>
  <g id="transform" transform="translate(0,0) scale(1.00)">
    <path id="color1" d="m1341.51 138.566c-1.84-.017-3.67-.013-5.5.014-28.36.06-58.39 2.099-83.19 17.279-5.07 3.37-11.39 6.451-13.26 12.721-1.25 5.3-.33 10.8-.44 16.18 13.14-2.76 26.58-1.211 39.88-1.391 10.01.02 20.06-.459 30.04.731 27.47 2.12 54.4 12.64 75.54 30.4 21.06 17.12 42.1 35.719 54.73 60.199.94 1.36 1.53 3.691 3.65 3.371 16.53-.64 32.55-5.471 48.11-10.791-14.74 8.14-31.54 10.9-47.67 14.76 8.27 18.91 15.15 38.421 22.72 57.631 4.88-9.11 8.55-18.86 13.97-27.67 1.28-2.4 4.58-4.201 6.93-2.051 7.4 6.38 10.21 16.551 9.97 26.051.56 15.58-5.35 30.801-14.89 42.961 1.68 1.28 3.5 1.808 4.95-.172 6.11-7.56 12.83-14.85 16.83-23.85 5.46-12.21 8.06-25.578 8.72-38.888.61-21.89-.67-44.191-7.5-65.151-5.06-15.78-12.19-30.91-21.07-44.89-15.17-22.54-38.94-37.23-62.72-49.26-24.59-12.6-52.3-17.922-79.8-18.184zm-174.23 153.815c0 .001 0 .002.01.004 0-.002 0-.003 0-.004zm.01.004c-1.04 1.659-.33 3.707-.1 5.496l.49-.012c.2-1.647 1.42-4.53-.39-5.484zm108.41 128.615c-1.47.31-2.92.65-4.36.99-6.19 3.11-13.06 5.209-18.09 10.209-11.67 11.78-21.42 25.462-28.71 40.352-2.05 4.37-4.96 8.26-8.26 11.75-10.43 11.22-22.7 20.859-31.41 33.609-2.8 4.19-4.77 8.979-5.26 14.029-1.47 13.71-1.01 27.552.1 41.272 3.15 24.86 3.82 49.949 6.46 74.869.42 1.58.24 4.9 2.81 4.16 4.72-1 8.75-3.85 13.1-5.81 4.11-1.74 8.24-5.929 12.41-5.959 12.69 17.12 24.26 35.188 36.75 52.478 3.19.76 6.4-.519 9.54-1.049 30.72-6.16 60.99-14.289 91.41-21.759 5.43-1.44 11.15-1.241 16.69-.461 5.16.65 10.5 2.4 15.68.9 1.19-10.17.2-20.509 1.53-30.699.43-4.21.38-8.702 2.64-12.442-10.83-13.29-23.13-25.629-31.16-40.949-4.34-8.64-9.91-17.44-9.52-27.48.04-11.13 6.2-21.72 3.84-32.94-2.6-7.55-7.87-14.719-6.69-23.099 1.33-7.7 5.42-14.561 7.25-22.141-4.4 4.22-7.76 9.33-11.51 14.09-6.66 9.73-9.18 21.67-15.41 31.58-13.83 1.06-27.66-1.33-41.52-.6.9 7.67-5.04 13.249-9.47 18.639-1.76 2.12-4.85 4.762-7.55 2.512-6.03-5.13-4.83-13.851-4.49-20.891-1.9-.19-3.78-.359-5.65-.519-6.09 12.05-6.11 27.488 1.69 38.798 13.84 22.22 27.59 44.791 36.37 69.581.87 2.19-1.35 3.971-2.35 5.701-2.6-7.83-5.91-15.4-9.3-22.91-5.34-10.33-9.12-21.521-15.94-31.041-6.62-10.24-14.58-19.94-18.23-31.77-2.38-9.32-.34-18.979 3-27.789-3.12-.15-5.33-1.722-5.33-5.012-12.93 7.71-29.14 13.02-36.08 27.58-7.93 14.03-8.09 30.38-9.95 45.91-5.28-1.89-2.75-7.63-2.18-11.65 3.45-14.26 4.27-29.609 12.17-42.389 8.12-11.37 22.92-13.849 33.71-21.599-3.81-1.9-8.36-.621-12.13-2.531-.28-6.3 5.65-10.16 9.58-14.17-.11-5.64-5.31-12.241-.59-17.071 3.31-3.96 6.24-8.22 9.65-12.09 1.07-1.55 2.14-3.109 3.17-4.679 1.69-2.99 3.59-5.85 5.55-8.66 8.13-11.14 20.35-18.179 32.28-24.549-5.39-4.78-10.9-9.441-16.24-14.301zm-32.84 85.801c-2 .99-3.65 2.559-4.93 4.359-1.62 4.26 7.15 3.67 7.51 2.44-1.22-2.12-1.94-4.459-2.58-6.799zm30.6 19.049c-2.15.003-4.29.02-6.43.05-.32 5.75-1.43 12.299 1.94 17.389.47-.04 1.39-.118 1.86-.158 3.29-5.5 11.03-10 9.06-17.25-2.14-.025-4.29-.035-6.43-.031zm526.65 13.945c-.21.021-.49.112-.86.305.11 2.913 2.29-.45.86-.305zm-132.35 232.635c.11 5.18.1 10.381.71 15.541.17-4.93 2-11.811-.71-15.541z" fill="#a05775"/>
    <path id="color2" d="m1259 183.098c-6.66-.02-13.31.282-19.88 1.662h-.01c-19.11 4.59-37.63 12.19-53.71 23.58-27.83 19.44-48.09 50.049-53.51 83.699-1.24 8.9-2 18.182.57 26.922-1.6-23.55 5.35-47.34 18.81-66.66 14.51-20.79 35.04-37.011 57.6-48.301-26.51 22.81-46.71 54.439-50.98 89.609-.13 3.2-.19 6.452.48 9.612.65-2.76 1.06-5.552 1.5-8.352 2.96-19.66 11.98-38.05 24-53.75-8.79 17.57-15.86 36.231-18.49 55.791-.67 5.65-1.32 11.32-1.14 17.02.41 4.56.9 9.13 1.78 13.64l.6.119c-.11-4.28-.46-8.559-.57-12.839-.37-5.68-.01-11.389 1.13-16.969-.22-1.79-.93-3.84.1-5.5 1.82.95.6 3.838.4 5.488.89 6.4 1.41 12.842 2.03 19.272.52 4.2 1.51 8.33 2.59 12.42 1.15 5.2 2.8 10.259 4.82 15.189 1.52 3.73 3.86 7.159 4.77 11.109-9.79 13.09-22.85 23.36-35.87 33.08-27.63 19.98-57.51 36.662-84.62 57.362-26.33 19.74-48.46 45.32-63.291 74.76-12.87 25.49-20.218 54.55-16.468 83.16-.31 1.19 2.088 5.959 1.718 2.009-2.4-38.32 15.7-74.18 37.341-104.57 18.42-26.8 42.1-49.661 68.3-68.801 24.33-17.79 49.71-34.129 74.34-51.459-32.54 40.01-70.72 75.74-98.16 119.78-24.17 38.66-43.22 81.919-46.59 127.859-1.56 19.09.17 38.331 4.13 57.031.01-2.38-.06-4.761-.23-7.121-3.64-35.58 1.16-72.129 14.62-105.289 1.22-1.6.73 1.761.57 2.231-9.29 39.66-9.9 82.098 2.19 121.228 6.53 19.48 17.68 40.54 38.1 48-23.51-12.54-31.89-40.599-33.5-65.469-1.86-25.44 1.71-50.96 7.31-75.74 14.47-60.16 42.31-116.98 80.14-165.89 5.26-6.41 10.12-13.219 16.13-18.969-25.28 36.62-41.2 79.66-45.19 124.01-3.8 41.24 1.26 83.9 18.23 121.9 3.25 6.64 6.23 13.558 10.96 19.318-16.39-33.91-23.6-71.749-23.71-109.279.05-39.96 7.87-80.259 25.48-116.289 18.03-37.74 44.77-70.241 70.68-102.731-6.68-.03-12.41-3.08-16.42-8.33-1.51 2.22-2.95 4.531-4.9 6.401-1.14-2.43-1.97-5-2.65-7.58-1.12-4.31-1.44-8.77-2.07-13.16-.5-2.44-.87-4.901-.87-7.391.13-6.57-.04-13.17 1.02-19.67 1.11-10.9 3.09-22.019 7.41-32.109-1.69 15.63-2.17 31.589 1.75 46.959.46 2.64 3.14 12.97 3.42 5.88-.72-4.66-1.11-9.36-.91-14.07 1.24 6.15 2.59 12.309 4.98 18.129 3.39 8.13 7.75 15.84 12.88 22.99 2.15 3.11 6.24 6.18 4.52 10.41-4.15 14.77-5.12 30.17-4.25 45.43 1.43-15.58 4.28-31.019 9.37-45.849-7.38 35.99-13.63 74.629-.93 110.169.26-3.31.3-6.629.14-9.929-5.8-18.16-2.03-37.62-1.52-56.28 1.17 13.48 3.06 27.699 10.11 39.469 1.12-1.84 2.29-3.659 3.48-5.469-4.63-12.6-5.05-26.32-4.38-39.58.16-.02.46-.06.61-.07.83 12.12 1.16 24.879 6.17 36.119 4.06-7.84 13.24-9.978 20.74-13.148 6.03-2.62 12.59-3.601 19.14-3.311 1.44-.34 2.89-.68 4.36-.99-9.6-8.95-18.71-18.459-27.03-28.609-6.97-8.86-4.16-20.831-5.14-31.211 3.06 6.89 7.09 13.41 12.47 18.74-7.23-11.32-12.82-24.25-12.82-37.91-.02-10.37-1-20.7-1.75-31.02.91-5.42 2.41-11.23 5.15-15.9 3.87 8.34 10.21 15.39 10.98 24.9-2.47-19.8 1.11-40.43 10.27-58.17-3.26 19.84-1.8 40.629 5.94 59.299-3.41-19.82-4.35-40.118-1.27-60.058 2.12 27.43 9.8 55.109 25.48 77.959-7-12.52-12.69-25.8-15.75-39.87 6.62 16.64 15.56 32.41 27.69 45.67-6.56-10.45-12.51-21.589-14.72-33.859 8.31 15.05 17.97 29.678 30.92 41.158-11.7-24.97-10.32-53.388-7.91-80.148 2.24 22.76 7.9 45.678 20.76 64.898-9.94-23.18-14.05-48.91-12.66-74.01 5.2 22.67 13.13 45.431 27.56 63.971-7.33-14.63-14.26-29.72-17.51-45.85 8.49 17.57 18.83 34.131 28.61 50.991-4.34-14.39-10.1-28.311-15.33-42.381 16.53 16.52 29.23 37.449 32.99 60.769 2.25-15.69 2.25-31.709-.34-47.359 5.15 14.7 10.34 29.53 12.7 44.98 2.02 11.19-.32 22.71-6.28 32.35 2.83-2.22 4.95-5.149 6.95-8.109-2.98 10.48-4.77 21.368-8.89 31.478-3.48 5.14-10.5 3.49-13.96-.75-3.59 2.39-8.26 5.312-7.17 10.362 4.45 2.74 3.71 8.369 3.54 12.839.55.27 1.66.81 2.21 1.08l1.76-.08c2.04-2.59 4.1-5.171 6.22-7.701 7.01-7.36 9.49-18.048 17.59-24.478 10-8.26 22.49-12.412 34-18.022 15.52-7.99 27.5-21.769 35.16-37.279-7.57-19.21-14.45-38.721-22.72-57.631 16.13-3.86 32.93-6.62 47.67-14.76-15.56 5.32-31.58 10.151-48.11 10.791-2.12.32-2.71-2.011-3.65-3.371-12.63-24.48-33.67-43.079-54.73-60.199-21.14-17.76-48.07-28.28-75.54-30.4-9.98-1.19-20.03-.711-30.04-.731-6.65.09-13.34-.251-20-.271zm3.77 75.922c-5.49 15.61-9.11 32.061-7.91 48.691-3.21-5.17-5.14-11.051-7.22-16.731 3.62-10.97 8.97-21.361 14.74-31.361zm-75.19 8.531c.27.45-.5 4.98-1.5 6.76.07-2.33.67-4.6 1.5-6.76zm39.32 56.42c-1.04 5.65-4.02 10.779-6.45 15.929-1.47-6.02 3.16-10.619 6.02-15.349zm-16.68 4.959c3.72 1.73 7.56 5.179 8.2 9.429 3.13 6.94-3.51 13.491-4.09 20.461-1.7-2.92-2.94-6.199-3.07-9.599-1.67-6.6-1.69-13.551-1.04-20.291zm276.83 49.859c-1.45 1.98-3.27 1.452-4.95.172-4.97 6.7-10.49 12.959-15.8 19.379-.82 1.23-2.69 2.881-.92 4.221 11.75 9.93 27.65 13.008 42.69 11.808-7.31-11.68-14.41-23.49-21.02-35.58zm50.73 70.33c-4.56.42-10.81-.379-13.54 4.151-.92 3.79 4.09 4.669 6.61 5.919 22.51 7.74 45.49 14.301 67.42 23.661 19.43 8.76 37.5 20.15 55.8 30.98 6.99 4.14 15.42 8.679 17.51 17.199.1 6.21-7.98 6.451-12.54 6.791-22.8-.68-42.43-13.891-62.44-23.291-16.61-6.02-33.46-11.49-50.7-15.41-7.75-1.61-16.09-3.529-23.83-1.029-6.98 2.96-5.21 13.02-.69 17.48 7.43 7.14 16.22 12.74 25.04 18.01 12.62 7.48 27.11 11.89 38.3 21.67 10.35 9.01 21.16 17.49 31.15 26.91 6.9 6.42 16.55 10.76 20.28 19.94 1.89 4.49-2.56 8.351-6.77 8.461-11.58.83-22.27-5.111-31.6-11.331-21.08-14.11-41.74-29.56-65.92-38.05-6.37-1.87-12.2-5.951-18.94-6.151.15 5.56.35 11.302-1.89 16.522.67 5.19 4.25 9.289 6.5 13.859 8.15 15.22 18.13 29.34 26.94 44.17 4.65 7.77 8.14 16.891 7.01 26.061-1.12 4.8-6.93 2.519-9.7.589-22.76-13.23-32.37-39.189-49.92-57.599-.43.14-1.3.418-1.73.558-4.1 4.56-9.02 8.31-12.79 13.17-4.8 6-8.58 13.001-14.72 17.801 35.65 18.33 71.92 38 99.01 68.24 18.1 19.62 29.57 44.99 31.99 71.6.23-12.44-1.6-24.97-6.12-36.59-9.38-24.41-27.67-43.89-46.44-61.49 5.92 3.14 10.89 7.72 15.99 12 22.35 19.97 41.41 45.541 47.58 75.381 2.16 9.22 1.14 18.68.51 28 3.95-7.84 4.05-16.991 3.24-25.541-2.78-20.41-12.62-38.879-22.38-56.699 19.78 26.02 38.39 57.049 35.36 91.029 6.34-24.52 1.82-50.68-7.87-73.69-11.2-25.52-31.44-45.86-53.46-62.38 18.32 8.88 35.91 19.401 52.08 31.791 16.89 13.16 32.55 29.068 41.01 49.058 7.4 16.42 7.04 34.872 4.11 52.272 8.27-16.75 5.28-35.91.83-53.25 4.69 10.09 6.78 21.078 9.99 31.648-2.77-31.61-21.14-59.559-41.89-82.629 24.46 16.96 46.88 37.07 65.71 60.17 4.57 4.6 1.27 11.34 1.01 16.91-2.75 23.7-11.75 47.66-30.28 63.5 14.67-7.97 23.1-23.681 29.17-38.631 3.56-9.57 6.59-19.439 7.77-29.609 1.32 4.09 6.41 5.1 6.65 9.73-1.22-1.62-2.36-3.31-3.58-4.9 1.45 4.53 3.01 9.15 2.18 13.99.67-.67 1.37-1.321 2.1-1.951 1.99 4.73 2.64 9.99 5.23 14.49-.37-7.4-5.19-13.749-5.19-21.189 18.96 28.53 26.68 66.32 13.12 98.73 24.88-36.57 35.61-83.709 26.17-127.189 10.09 24.28 13.62 51.129 10.09 77.189 10.93-36.9-.53-76.7-19.28-109.08 15.5 21 28.9 44.29 34.84 69.93 4.35 18.07 2.22 37.051-3.83 54.461 9.19-14.18 10.08-31.99 9.19-48.4-3.06-38.15-20.5-73.421-41.23-104.961 25.15 28.3 48.41 59.001 64.37 93.531 11.56 24.95 17.55 54.539 6.55 80.769 6.01-8.1 7.88-18.569 8.43-28.439.89-21.81-4.44-43.331-11.24-63.891 9.65 22.57 18 46.32 19.46 71.03 1.62 22.04-5.36 43.899-17.7 62.019 24.66-28.12 34.32-67.509 28.75-104.199-5.52-39.12-24.05-75.09-46.74-106.94 19.28 20.74 35.7 44.639 45.98 71.139 6.18 17.75 11.54 36.041 12.68 54.891 1.52-24.01-4.26-47.86-12.22-70.35-7.64-20.5-17.19-40.409-29.51-58.529-20.73-30.84-50.27-54.13-79.75-76.07 36.97 21.58 73.1 46.06 101.55 78.41 9.71 11.55 18.68 24.208 23.65 38.568-.67 8.37-5.06 16.011-7.13 24.111 4.21-5.53 5.95-12.38 9.06-18.5 3.88 9.98 3.33 20.86 3.18 31.35 1.05-8.94 1.96-18.031.35-26.961-.5-4.1-2.32-8.249-1.08-12.369 10.08-33.81 11.83-70.75 1.32-104.68-9-30.28-29.23-56.08-54.05-75.16 18.66 10.87 36.48 24.269 49.4 41.789 10.35 13.81 15.41 30.611 18.38 47.391.32-18.31-7.02-35.76-16.89-50.84-15.57-24.99-39.42-43.921-66.08-55.971-41.88-20.27-88.85-23.778-133.82-32.888-2.13.39-2.19-2.001-.23-1.791 30.28 1.39 60.22-4.04 90.23-7.1 21.39-1.75 43.89-2.919 64.13 5.551 25.3 11.19 48.13 33.658 51.67 62.138 1.85-23.31-14.66-43.429-32.7-56.119-17.3-12.01-37.92-19.56-59.01-20.56 25.6-1.08 52.01 3.14 74.15 16.67-18.14-14.71-42.54-17.87-65.15-18.43-37.85-.59-75.22 6.95-113.01 7.65-43.26 1.08-88.45-6.041-125.2-30.201zm103.34 39.17c2.78.82 6.88-.19 8.88 1.65-2.61.87-6.06-.98-8.88-1.65zm-51.01 33.721c37.71 15.38 77.07 26.32 115.15 40.73 38.49 15.18 76.84 34.921 104.49 66.481 11.04 12.89 19.95 28.439 21.83 45.539.62-17.8-7.55-34.639-17.09-49.209-13.21-19.67-30.68-36.331-50.41-49.381 33.52 13.81 65.34 36.88 81.38 70.26 11.01 22.37 11.94 48.339 6.94 72.429-11.93-30.31-36.75-52.858-62.1-72.138-49.44-38.65-106.32-65.861-159.85-98.141-13.77-8.33-27.78-16.45-40.34-26.57zm210 17.785c1.43-.145-.75 3.218-.86.305.37-.193.65-.284.86-.305zm-759.51 24.756c-.21.87-.76 5.879-2.44 7.379.01-2.63 1.49-4.989 2.44-7.379zm-57.991 43.76c.34 4.66 1.712 9.159 3.112 13.589-1.01-4.44-.542-10.119-3.112-13.589zm406.121 19.128c-2.26 3.74-2.21 8.232-2.64 12.442 24.64 13.85 46.38 38.049 47.24 67.599 2.98-7.18.62-15.12-1.66-22.14-4.05-11.42-9.78-22.289-16.83-32.129-4.78-1.25-8.86-4.301-11.72-8.281-4.45-6.12-9.51-11.741-14.39-17.491zm49.04 16.51c-4.59 2.73-9.34 5.191-14.32 7.131 20.56 11.9 37.32 31.38 42.28 55.01.32-23.65-12.03-45.451-27.96-62.141zm347.02 37.496c1.27.022 2.58 1.792 1.96 2.955-1.43.64-3.26-1.539-2.49-2.849.17-.075.35-.109.53-.106zm-79.62 99.026l-.59.92c-1.88 5.8-3.52 11.76-5.5 17.57 3.23-5.64 5.5-12 6.09-18.49zm10.63 34.41c.34 7.4-.45 14.78-.45 22.18.91-7.1 3.05-15.97.45-22.18z" fill="#523164"/>
    <path id="color3" d="m1262.78 259.02l-.39.599c-5.77 10-11.12 20.391-14.74 31.361 2.08 5.68 4.01 11.561 7.22 16.731-1.2-16.63 2.42-33.081 7.91-48.691zm9.72 2.041c-3.08 19.94-2.14 40.238 1.27 60.058-7.74-18.67-9.2-39.459-5.94-59.299-9.16 17.74-12.74 38.37-10.27 58.17-.77-9.51-7.11-16.56-10.98-24.9-2.74 4.67-4.24 10.48-5.15 15.9.75 10.32 1.75 20.65 1.75 31.02-.05 13.66 5.59 26.59 12.82 37.91-5.38-5.33-9.41-11.85-12.47-18.74.98 10.38-1.83 22.351 5.14 31.211 8.32 10.15 17.43 19.659 27.03 28.609 5.34 4.86 10.85 9.521 16.24 14.301-11.93 6.37-24.15 13.409-32.28 24.549-.51 7.76 1.03 16.091 6.36 22.041 8.18 9.58 20.34 14.558 32.17 17.978 14.32 3.78 29.36.711 42.75-4.949 3.75-4.76 7.11-9.87 11.51-14.09 3.45-6.74 5.66-14.031 8.49-21.041 2.53-9.64 4.97-19.35 8.31-28.76-7.63 10.54-20.34 15.42-31.93 20.25-10.04 4.78-21.3 1.461-31.46-1.099-5.95-1.39-3.58-8.919-3.68-13.299 3.76.28 6.82 3.358 10.8 3.228 18.91 3.49 36.44-7.339 50.62-18.599 2.91-1.74 1.67-5.439 2.04-8.199-1.09-5.05 3.58-7.972 7.17-10.362 3.46 4.24 10.48 5.89 13.96.75 4.12-10.11 5.91-20.998 8.89-31.478-2 2.96-4.12 5.889-6.95 8.109 5.96-9.64 8.3-21.16 6.28-32.35-2.36-15.45-7.55-30.28-12.7-44.98 2.59 15.65 2.59 31.669.34 47.359-3.76-23.32-16.46-44.249-32.99-60.769 5.23 14.07 10.99 27.991 15.33 42.381-9.78-16.86-20.12-33.421-28.61-50.991 3.25 16.13 10.18 31.22 17.51 45.85-14.43-18.54-22.36-41.301-27.56-63.971-1.39 25.1 2.72 50.83 12.66 74.01-12.86-19.22-18.52-42.138-20.76-64.898-2.41 26.76-3.79 55.178 7.91 80.148-12.95-11.48-22.61-26.108-30.92-41.158 2.21 12.27 8.16 23.409 14.72 33.859-12.13-13.26-21.07-29.03-27.69-45.67 3.06 14.07 8.75 27.35 15.75 39.87-15.68-22.85-23.36-50.529-25.48-77.959zm96.75 169.968c.9-1.15 1.68-2.399 2.14-3.799-.55-.27-1.66-.81-2.21-1.08h-.03c-.43 1.6-.35 3.269.1 4.879zm115.38-122.039c-1.83-.006-3.66 1.36-4.54 3.01-5.42 8.81-9.09 18.56-13.97 27.67-7.66 15.51-19.64 29.289-35.16 37.279-11.51 5.61-24 9.762-34 18.022-8.1 6.43-10.58 17.118-17.59 24.478.18.24.54.731.73.981-7.53 10.52-11.26 23.979-8.87 36.849 2.65 9.77 6.82 19.491 6.43 29.791-.82 11.21-3.74 22.14-4.43 33.36-.96 6.74 3.9 12.08 8.29 16.48 8.49 5.04 16.11 11.51 25.34 15.33 17.82 10 38.4 13.64 56.08 23.91 7.02 4.08 14.88 7.449 20.15 13.879 1.52 1.67 3.27 3.111 5.11 4.451 1.94.87 2.06 2.22.54 3.7.35.25 1.04.759 1.39 1.009.43-.14 1.3-.418 1.73-.558 17.55 18.41 27.16 44.369 49.92 57.599 2.77 1.93 8.58 4.211 9.7-.589 1.13-9.17-2.36-18.291-7.01-26.061-8.81-14.83-18.79-28.95-26.94-44.17-2.25-4.57-5.83-8.669-6.5-13.859-1.38-4.53-6.15-8.77-4.17-13.75.71-2.7 3.79-2.692 6.06-2.772 6.74.2 12.57 4.281 18.94 6.151 24.18 8.49 44.84 23.94 65.92 38.05 9.33 6.22 20.02 12.161 31.6 11.331 4.21-.11 8.66-3.971 6.77-8.461-3.73-9.18-13.38-13.52-20.28-19.94-9.99-9.42-20.8-17.9-31.15-26.91-11.19-9.78-25.68-14.19-38.3-21.67-8.82-5.27-17.61-10.87-25.04-18.01-4.52-4.46-6.29-14.52.69-17.48 7.74-2.5 16.08-.581 23.83 1.029 17.24 3.92 34.09 9.39 50.7 15.41 20.01 9.4 39.64 22.611 62.44 23.291 4.56-.34 12.64-.581 12.54-6.791-2.09-8.52-10.52-13.059-17.51-17.199-18.3-10.83-36.37-22.22-55.8-30.98-21.93-9.36-44.91-15.921-67.42-23.661-2.52-1.25-7.53-2.129-6.61-5.919 2.73-4.53 8.98-3.731 13.54-4.151 17.97-2.17 36.29-1.779 54.2.811 15.89 2.11 30.91 8.94 47.06 9.34 7.78.36 16.25.34 22.84-4.44 2.25-1.39 5.26-4.151 3.31-6.961-3.9-5.28-10.4-7.56-16.31-9.76-23-7.9-45.2-18.249-68.75-24.429-23.86-3.91-48.06.989-72.06.689-15.04 1.2-30.94-1.878-42.69-11.808-1.77-1.34.1-2.991.92-4.221 5.31-6.42 10.83-12.679 15.8-19.379 9.54-12.16 15.45-27.381 14.89-42.961.24-9.5-2.57-19.671-9.97-26.051-.73-.672-1.56-.956-2.39-.959zm-185.43 31.369c4.46.23-1.08 4.58 0 0zm-197.57 464.362c-14.75 9.95-30.79 17.68-47.04 24.84-11.75 5.11-19.95 15.359-29.71 23.269-2.7 2.64-6.61 4.931-7.02 9.051 12.78 1.8 22.55-7.932 32.12-14.692-5.1 9.19-9.01 19.031-14.84 27.811-1.22 2.43-3.47 5.211-2.2 8.051 9.55-1.53 15.21-10.76 19.8-18.41 3.94-7.36 9.6-13.841 16.29-18.811 1.62.64 3.09 2.17 2.68 4.07-2.28 6.66-11.01 9.431-11.64 16.911 3.23.3 6.46-.302 9.68-.622-2.65 8.16-6.56 16.232-6.77 24.952 4.69-.95 7.98-4.902 10.4-8.772 4.47-8.02 7.29-16.918 12.45-24.558-2.34 9.05-7.91 17.57-7.67 27.08 2.82.04 5.54-1.371 6.66-4.051 3.81-7.94 7.15-16.28 13.07-22.94 4.25-4.66 7.38-10.689 13.4-13.349-6.28-12.37-6.61-26.55-9.66-39.83zm385.3 145.91c-5.11 1.35-10.45 2.559-14.8 5.699.84 6.1 4.48 11.721 3.93 18.061-21.04 2.55-41.44 11.618-62.9 9.058-6.74 4.67-11.58 11.58-16.99 17.661-1.29 1.33-2.77 3.62-4.91 2.57-12.96-4.2-23.97-12.71-36.83-17.2-.74 5-2.08 10.169-1 15.21 3.42 7.66 10.2 13.06 16.08 18.79 8.43 6.9 17.42 16.69 29.41 14.82 28.17-3.22 52.63-19.74 72.65-38.919 5.45-15.13 12.22-29.91 15.36-45.75z" fill="#fae9ed"/>
    <path id="color4" d="m1157.9 293.609c-7.39 3.31-11.69 11.32-16.97 17.26 5.52 1.14 11.34.511 16.76 2.201.48 1.3.83 5.791 1.21 1.991-.21-3.16 3.55-.921 5.35-1.131-.18-5.7.47-11.37 1.14-17.02-1.84-.7-3.68-1.371-5.51-2.041-.44 2.8-.85 5.592-1.5 8.352-.67-3.16-.61-6.412-.48-9.612zm9.78 4.26l-.49.012c-1.13 5.58-1.5 11.289-1.13 16.969 1.2.77 2.43 1.511 3.65 2.291-.62-6.43-1.14-12.872-2.03-19.272zm10.93 8.381c-1.02 6.5-.89 13.1-1.02 19.67 1.83 2.86 3.98 5.509 5.84 8.359-1.68-.29-3.33-.628-4.97-.968.63 4.39.95 8.85 2.07 13.16 2.49-.85 5.53-.691 7.55 1.179 4.01 5.25 9.74 8.3 16.42 8.33 1.2-.66 2.41-1.311 3.64-1.951-5.13-7.15-9.49-14.86-12.88-22.99-1.05 4.4-3.05-2.459-4.07-4.059-.28 7.09-2.96-3.24-3.42-5.88-2.56-5.23-5.73-10.16-9.16-14.85zm-12.58 21.32c-18.7 1.71-36.71 8.37-53.82 15.83 2.67 6.71 6.08 13.151 8.91 19.821 18.45-6.46 35.92-18.281 56-18.471-2.02-4.93-3.67-9.989-4.82-15.189-2.13.35-4.25-.172-5.67-1.872zm44.2 1.36c-.65 6.74-.63 13.691 1.04 20.291 2.26-3.7 4.75-7.252 7.16-10.862-.64-4.25-4.48-7.699-8.2-9.429zm-99.54 456.74c-1.13 1.24-2.19 2.531-3.18 3.881 2.58 15.71 5.66 31.379 10.27 46.629 1.05 3.81 3.99 7.541 8.22 7.781 12.44 1.15 24.58-3.081 36.99-2.951 8.44-.04 16.63-2.4 24.2-6.02.48-1.09.38-2.28.38-3.41-14.39 8.91-31.71 5.04-47.53 8.07-5.86.26-14.21 3.869-17.88-2.711-7.73-15.97-8.45-34.059-11.47-51.269z" fill="#71236b"/>
    <path id="color5" d="m1365.64 413.311c.01.006.02.013.03.019 0-.006 0-.013 0-.019zm.03.019c-.36 2.758.86 6.444-2.04 8.18-14.18 11.26-31.71 22.089-50.62 18.599-3.98.13-7.04-2.948-10.8-3.228.09 4.38-2.27 11.909 3.68 13.299 10.16 2.56 21.42 5.879 31.46 1.099 11.59-4.83 24.3-9.71 31.93-20.25-.48-1.61-.56-3.279-.1-4.879.17-4.46.91-10.073-3.51-12.82z" fill="#28102f"/>
    <path id="color6" d="m1379.37 419.449c-2.12 2.53-4.18 5.111-6.22 7.701-6.9 27.5-19.61 56.739-9.3 85.049 7.91 26.6 23.2 49.94 37.76 73.25 8.88 15.18 15.87 31.85 28.23 44.67 2.77 3.14 7.51 4.012 11.16 1.852 10.39-5.55 18.74-14.091 28.66-20.391 6.65-5.06 14.65-9.33 18.54-17.1-1.84-1.34-3.59-2.781-5.11-4.451-11.44 10.39-24.79 18.38-35.96 29.09-2.31 1.84-5.26 5.76-8.39 3.24-13.75-9.56-16.35-27.768-28.15-38.968-4.89-9.48-12.92-16.9-17.34-26.67-4.34-6.32-9.32-12.391-11.73-19.811-4.39-4.4-9.25-9.74-8.29-16.48-10.44-19.44-9.32-42.921-2-63.151-2.39-12.87 1.34-26.329 8.87-36.849-.19-.25-.55-.741-.73-.981zm-110.49 2.492c-5.72.03-11.4 1.067-16.68 3.36-7.5 3.17-16.68 5.308-20.74 13.148-.77 1.2-1.61 2.361-2.4 3.531-1.19 1.81-2.36 3.629-3.48 5.469-3.48 5.27-6.67 10.761-8.59 16.811.16 3.3.12 6.619-.14 9.929-.24 3.36-.47 6.732-.57 10.112 3.3-3.49 6.21-7.38 8.26-11.75 7.29-14.89 17.04-28.572 28.71-40.352 5.03-5 11.9-7.099 18.09-10.209-.82-.036-1.64-.053-2.46-.049zm92.06 37.848c-2.83 7.01-5.04 14.301-8.49 21.041-1.83 7.58-5.92 14.441-7.25 22.141-1.18 8.38 4.09 15.549 6.69 23.099 2.36 11.22-3.84 21.81-3.84 32.94-.39 10.04 5.18 18.84 9.52 27.48 8.03 15.32 20.33 27.659 31.16 40.949 4.88 5.75 9.94 11.371 14.39 17.491 2.86 3.98 6.94 7.031 11.72 8.281 2.89-.61 5.75-1.371 8.61-2.131 4.98-1.94 9.73-4.401 14.32-7.131 8.1-4.94 17.31-7.909 24.85-13.789 6.14-4.8 9.92-11.801 14.72-17.801 3.77-4.86 8.69-8.61 12.79-13.17-.35-.25-1.04-.759-1.39-1.009-13.14 12.97-29.19 22.36-42.77 34.84-4.75 5.08-13.63 7.93-18.72 1.75-10.91-12.42-18.05-27.58-26.29-41.79-8.23-16.25-20.43-30.13-28.54-46.46-9-19.16-16.69-39.881-15.22-61.401 1.3-8.45 4.82-16.6 3.74-25.33zm-101.28.061c-1.96 2.81-3.86 5.67-5.55 8.66-.01 2.05.26 6.789-3.17 4.679-3.41 3.87-6.34 8.13-9.65 12.09-4.72 4.83.48 11.431.59 17.071 4.81-4.15 9.23-10.04 16.07-10.52 5.62-1.16 8.38 5.111 13.11 6.891 11.73 3.18 10.45 17.729 12.95 27.179 13.86-.73 27.69 1.66 41.52.6 6.23-9.91 8.75-21.85 15.41-31.58-13.39 5.66-28.43 8.729-42.75 4.949-11.83-3.42-23.99-8.398-32.17-17.978-5.33-5.95-6.87-14.281-6.36-22.041zm-5.55 18.39c1.18 1.14 5.8 8.201 1.84 10.151-2.37-2.35-4.57-7.521-1.84-10.151zm3.27 16.731c-.65.025-1.3.189-1.92.509-5.26 2.25-9.45 6.651-12.6 11.321.64 2.34 1.36 4.679 2.58 6.799 6.37-4.15 11.59-9.93 16.6-15.6-.75-1.935-2.69-3.105-4.66-3.029zm11.59 9.355c-.21-.002-.41.005-.61.024-.27 7.19-.68 14.38-1.33 21.55 4.28-.06 8.57-.069 12.86-.019-.92-5.28-1.8-10.581-3.07-15.791-.6-3.488-4.7-5.735-7.85-5.764zm-9.04 2.623c-4.16 4.96-7.63 10.66-13.17 14.25.01 3.29 2.21 4.862 5.33 5.012 1.98-6.67 5.38-12.782 7.84-19.262zm4.33.641c-2.59 5.97-4.9 12.051-7.41 18.051 1.87.16 3.75.329 5.65.519.45-6.2 1.76-12.35 1.76-18.57zm22.76.312c4.98.363 9.9 1.739 14.89 2.328v2.731c-5.01.51-10.22-.382-14.89-2.182zm40.62 2.848c1.03.069 1.96.414 2.67 1.311-4.04 3.63-10.81 3.378-16.05 3.628-2.35-5.63 4.97-3.019 8.15-4.259 1.58-.144 3.53-.795 5.23-.68zm185.28 44.279c-2.27.08-5.35.072-6.06 2.772-1.98 4.98 2.79 9.22 4.17 13.75 2.24-5.22 2.04-10.962 1.89-16.522zm-298.43 85.442c-4.17.03-8.3 4.219-12.41 5.959 1.84 7.89-1.75 15.04-6.98 20.65-12.75 25.98-29.9 49.48-47.73 72.17-11.87 15.75-24.22 31.14-36.68 46.42 3.02 17.21 3.74 35.299 11.47 51.269 3.67 6.58 12.02 2.971 17.88 2.711 15.82-3.03 33.14.84 47.53-8.07 8.48-21.65 13.51-45.74 29.22-63.76 8.1-9.63 14.18-20.86 22.2-30.47.55 13.2 4.68 26.731-.15 39.611 2.57 4.15 6.3 7.378 9.25 11.238-.43 1.43-1.34 2.64-2.3 3.75-2.99-2.45-5.24-5.638-7.91-8.398-.6 2.94-1.74 5.77-2.17 8.75 1.91 2.47 4.2 4.65 5.99 7.25 13.05 14.71 28.25 28.098 46.31 36.308 21.27 9.91 44.3 14.981 66.82 21.151 9.57 2.93 20.26 1.89 28.77-3.49 18.08-10.73 33.94-25.019 48.62-39.889-4.43-3.29-10.7-6.002-12.25-11.692 1.12-7.83 1.26-16.759 7.11-22.789 3.59-3.6 3.27-8.789 4.55-13.339 4.73 4.41 8.97-2.97 13.63-4.26-4.57-13.77-5.67-30.351-18.71-39.391-4.38-3.61-8.35-8.21-14.16-9.43-10.72-2.73-21.49-5.329-31.94-9.009-4.55-1.81-10.33-.621-14.06-4.151-.69-4.03-1.85-7.901-3.53-11.621.33-6.43 2.93-12.669 6.02-18.269-5.54-.78-11.26-.979-16.69.461-30.42 7.47-60.69 15.599-91.41 21.759-3.14.53-6.35 1.809-9.54 1.049-12.49-17.29-24.06-35.358-36.75-52.478zm194.99 72.728c2.6.193 4.65 4.229 6.67 5.901-2.47 1.87-8.21-3.921-7.82-5.731.4-.147.78-.197 1.15-.17zm10.44 11.014c2.94-.194 4.51 5.315 6.44 7.537 1.93 1.85-1.53 3.399-2.36 1.109-1.53-2.68-5.03-5.699-4.69-8.529.21-.066.41-.104.61-.117zm7.93 15.576c3.16-.218 3.44 3.782 4.26 6.182.7 3.26 2.16 6.53 1.78 9.91-1.4.75-3.23.229-3.23-1.551-.72-4.92-1.94-9.719-3.48-14.439.24-.054.46-.087.67-.102zm17.57 26.82c-4.02 3.2-12.54 5.391-10.08 12.061 3.88.48 7.81.21 11.73.16-.31-4.11-.89-8.181-1.65-12.221zm-11.87 16.311c3.04 4.48 7.88 7.321 11.44 11.391.97-2.31 1.99-4.591 3.1-6.831-5.07-.82-9.62-3.31-14.54-4.56zm-326.04 6.631c-4.24 4.15-7.05 9.1-5.88 15.17 3.05 13.28 3.38 27.46 9.66 39.83 2.34 3.3 3.99 7.309 7.32 9.769 4.39 1.06 8.98.251 13.38-.439 16.7-3.09 33.66-4.851 50.17-8.871 3.12-2.15 3.38-6.76 5.03-10.02-7.57 3.62-15.76 5.98-24.2 6.02-12.41-.13-24.55 4.101-36.99 2.951-4.23-.24-7.17-3.971-8.22-7.781-4.61-15.25-7.69-30.919-10.27-46.629zm322.63.478c-1.75 2.96-2.68 6.42-5.13 9-.07 5.62 6.65 8.261 10.82 10.791 1.35-2.06 2.71-4.12 4-6.22-2.15-4.71-5.48-10.221-9.69-13.571zm9.81 3.971c.65 1.82 1.44 3.59 2.31 5.34.24-.59.72-1.779.96-2.369-1.09-1.02-2.16-2.021-3.27-2.971zm-182.19 2.711c4.61 4.65 9.92 8.459 15.03 12.519-.35 1.44-1.56 4.09-3.27 2.36-4.93-3.69-10.27-7.07-14.23-11.85.15-.9.49-1.721 1.01-2.461.36-.14 1.09-.428 1.46-.568zm152.25 14.185c.88.076 1.39 2.444 1.98 3.143-5.06 6.36-11.74 11.251-18.18 16.131-1.71-1.1-3.21-3.94-.98-5.32 5.81-4.13 11.17-8.85 16.5-13.59.25-.276.47-.381.68-.364zm-126.36 4.778c1.05.054 2.24 1.134 3.17 1.506 4.53 2.93 9.73 4.429 14.78 6.179 2.82.41 1.31 5.701-1.37 4.561-6.13-1.72-12.06-4.33-17.41-7.76-1.33-.69-1.57-2.81-.46-3.76.37-.562.82-.751 1.29-.726zm34.75 12.435c1.45-.031 3.21 1.468 4.7 1.711 6.17 2.72 13.25 2.89 19.18 6.11-.45 1.41-1.4 3.42-3.21 3.06-7.05-1.75-13.91-4.171-20.87-6.201-2.22-.25-1.82-3.169-.75-4.379.3-.204.61-.293.95-.301zm61.81 3.645c1.86.063 3.68 2.02 2.34 3.775-8 3.84-17.52 8.4-26.24 4.09-1.66-2.56.83-4.799 3.4-3.379 6.62 2.55 12.9-1.14 18.75-3.84.51-.477 1.14-.667 1.75-.646z" fill="#fad8d6"/>
    <path id="color7" d="m1373.15 427.15l-1.76.08c-.46 1.4-1.24 2.649-2.14 3.799-3.34 9.41-5.78 19.12-8.31 28.76 1.08 8.73-2.44 16.88-3.74 25.33-1.47 21.52 6.22 42.241 15.22 61.401 8.11 16.33 20.31 30.21 28.54 46.46 8.24 14.21 15.38 29.37 26.29 41.79 5.09 6.18 13.97 3.33 18.72-1.75 13.58-12.48 29.63-21.87 42.77-34.84 1.52-1.48 1.4-2.83-.54-3.7-3.89 7.77-11.89 12.04-18.54 17.1-9.92 6.3-18.27 14.841-28.66 20.391-3.65 2.16-8.39 1.288-11.16-1.852-12.36-12.82-19.35-29.49-28.23-44.67-14.56-23.31-29.85-46.65-37.76-73.25-10.31-28.31 2.4-57.549 9.3-85.049zm-119.04 41.36c-1.03 1.57-2.1 3.129-3.17 4.679 3.43 2.11 3.17-2.629 3.17-4.679zm.01 9.73c-2.73 2.63-.53 7.801 1.84 10.151 3.96-1.95-.66-9.011-1.84-10.151zm4.85 13.457c-.33.018-.67.061-1.02.133-6.84.48-11.26 6.37-16.07 10.52-3.93 4.01-9.86 7.87-9.58 14.17 3.77 1.91 8.32.631 12.13 2.531-10.79 7.75-25.59 10.229-33.71 21.599-7.9 12.78-8.72 28.129-12.17 42.389-.57 4.02-3.1 9.76 2.18 11.65 1.86-15.53 2.02-31.88 9.95-45.91 6.94-14.56 23.15-19.87 36.08-27.58 5.54-3.59 9.01-9.29 13.17-14.25-2.46 6.48-5.86 12.592-7.84 19.262-3.34 8.81-5.38 18.469-3 27.789 3.65 11.83 11.61 21.53 18.23 31.77 6.82 9.52 10.6 20.711 15.94 31.041 3.39 7.51 6.7 15.08 9.3 22.91 1-1.73 3.22-3.511 2.35-5.701-8.78-24.79-22.53-47.361-36.37-69.581-7.8-11.31-7.78-26.748-1.69-38.798 2.51-6 4.82-12.081 7.41-18.051-.05 6.22-1.31 12.37-1.76 18.57-.34 7.04-1.54 15.761 4.49 20.891 2.7 2.25 5.79-.392 7.55-2.512 4.43-5.39 10.37-10.969 9.47-18.639-2.5-9.45-1.22-23.999-12.95-27.179-4.43-1.669-7.14-7.284-12.09-7.024zm-1.59 3.274c1.97-.076 3.91 1.094 4.66 3.029-5.01 5.67-10.23 11.45-16.6 15.6-.36 1.23-9.13 1.82-7.51-2.44 1.28-1.8 2.93-3.369 4.93-4.359 3.15-4.67 7.34-9.071 12.6-11.321.62-.32 1.27-.484 1.92-.509zm11.59 9.355c3.15.029 7.25 2.276 7.85 5.764 1.27 5.21 2.15 10.511 3.07 15.791 1.97 7.25-5.77 11.75-9.06 17.25-.47.04-1.39.118-1.86.158-3.37-5.09-2.26-11.639-1.94-17.389.65-7.17 1.06-14.36 1.33-21.55.2-.019.4-.026.61-.024zm18.06 3.574c.01.001.01.002.02.002v-.002zm.02.002v2.877c4.67 1.8 9.88 2.692 14.89 2.182v-2.731c-4.99-.589-9.91-1.965-14.89-2.328zm40.62 2.848c-1.7-.115-3.66.536-5.23.68-3.18 1.24-10.5-1.371-8.15 4.259 5.24-.25 12.01.002 16.05-3.628-.71-.897-1.64-1.242-2.67-1.311zm81.81 202.449c-.37-.027-.75.023-1.15.17-.39 1.81 5.35 7.601 7.82 5.731-2.02-1.672-4.07-5.708-6.67-5.901zm146.18 1.444c-2.23-.063-5.05 1.894-7.22 2.837-10.45 4.94-21.5 9.501-29.72 17.911-16.5 15.45-27.97 35.568-44.91 50.558-9.37 1.59-18.73-1.168-28.04-2.058 4.86-2.9 18.23 1.2 21.02-7.92-1.52-5.65-5.55-10.391-8.26-15.551-3.01-6.02-8.92.491-13.27 1.131-4.66 1.29-8.9 8.67-13.63 4.26-1.28 4.55-.96 9.739-4.55 13.339-5.85 6.03-5.99 14.959-7.11 22.789 1.55 5.69 7.82 8.402 12.25 11.692 5.64 1.9 11.27 4.74 17.27 5.01 3.44-7.1-5.06-12.921-7.23-19.301-.87-1.75-1.66-3.52-2.31-5.34 1.11.95 2.18 1.951 3.27 2.971 5.13 4.48 9.93 9.479 15.86 12.939 13.01 6.61 27.48 9.85 40.49 16.43 11.77 8.26 17.91 21.911 26.09 33.291 1.98-.63 3.78-2.23 1.6-3.92-9.44-11.11-14.04-27.452-28.45-33.432-18.34-8.4-39.98-11.998-53.82-27.968-3.56-4.07-8.4-6.911-11.44-11.391 4.92 1.25 9.47 3.74 14.54 4.56 7.06.28 13.8 2.85 20.85 3.12 8.26-1.07 13.57-8.21 18.39-14.28 11.06-12.5 20.71-26.37 33.15-37.57 11.12-9.77 25.21-14.78 38.3-21.16-.65-2.145-1.78-2.91-3.12-2.947zm-135.74 9.57c-.2.013-.4.051-.61.117-.34 2.83 3.16 5.849 4.69 8.529.83 2.29 4.29.741 2.36-1.109-1.93-2.222-3.5-7.731-6.44-7.537zm7.93 15.576c-.21.015-.43.048-.67.102 1.54 4.72 2.76 9.519 3.48 14.439-.04 1.78 1.83 2.301 3.23 1.551.38-3.38-1.08-6.65-1.78-9.91-.82-2.4-1.1-6.4-4.26-6.182zm27.44 21.912c.25.01.49.031.73.069 2.31 5.03 6.75 9.609 7.23 15.169-5.16 1.58-10.91 2.001-16.18 1.891-3.92.05-7.85.32-11.73-.16-2.46-6.67 6.06-8.861 10.08-12.061 2.09-2.147 6.21-5.048 9.87-4.908zm-216.45 15.26c-1.4 1.98-2.12 4.29-.96 6.59 2.67 2.76 4.92 5.948 7.91 8.398.96-1.11 1.87-2.32 2.3-3.75-2.95-3.86-6.68-7.088-9.25-11.238zm191.3 13.068c4.21 3.35 7.54 8.861 9.69 13.571 3.03 2.28 3.9 6.46 5.59 9.75-3.47-.07-7.02-1.14-9.59-3.53-4.17-2.53-10.92-5.171-10.82-10.791 2.45-2.58 3.38-6.04 5.13-9zm-172.38 6.682c-.37.14-1.1.428-1.46.568-.52.74-.86 1.561-1.01 2.461 3.96 4.78 9.3 8.16 14.23 11.85 1.71 1.73 2.92-.92 3.27-2.36-5.11-4.06-10.42-7.869-15.03-12.519zm152.25 14.185c-.21-.017-.43.088-.68.364-5.33 4.74-10.69 9.46-16.5 13.59-2.23 1.38-.73 4.22.98 5.32 6.44-4.88 13.12-9.771 18.18-16.131-.59-.699-1.1-3.067-1.98-3.143zm-126.36 4.778c-.47-.025-.92.164-1.29.726-1.11.95-.87 3.07.46 3.76 5.35 3.43 11.28 6.04 17.41 7.76 2.68 1.14 4.19-4.151 1.37-4.561-5.05-1.75-10.25-3.249-14.78-6.179-.93-.372-2.12-1.452-3.17-1.506zm34.75 12.435c-.34.008-.65.097-.95.301-1.07 1.21-1.47 4.129.75 4.379 6.96 2.03 13.82 4.451 20.87 6.201 1.81.36 2.76-1.65 3.21-3.06-5.93-3.22-13.01-3.39-19.18-6.11-1.49-.243-3.25-1.742-4.7-1.711zm61.81 3.645c-.61-.021-1.24.169-1.75.646-5.85 2.7-12.13 6.39-18.75 3.84-2.57-1.42-5.06.819-3.4 3.379 8.72 4.31 18.24-.25 26.24-4.09 1.34-1.755-.48-3.712-2.34-3.775z" fill="#501557"/>
    <path id="color8" d="m1784.79 681.445c-.18-.003-.36.031-.53.106-.77 1.31 1.06 3.489 2.49 2.849.62-1.163-.69-2.933-1.96-2.955zm-279.73 35.504c-6.81 3.76-12.49 9.272-19.26 13.102-3.65-3.96-5.97-9.24-10.74-12.09-4.07 2.38-6.84 6.529-11 8.719-4.14-.45-7.87-2.549-11.93-3.289-1.5 2.15-2.43 4.648-4.05 6.718-7.32-2.26-13.99-6.359-21.53-7.949 13.04 9.04 14.14 25.621 18.71 39.391 4.35-.64 10.26-7.151 13.27-1.131 2.71 5.16 6.74 9.901 8.26 15.551-2.79 9.12-16.16 5.02-21.02 7.92 9.31.89 18.67 3.648 28.04 2.058 16.94-14.99 28.41-35.108 44.91-50.558-4.95-5.85-7.77-13.392-13.66-18.442zm15.42 21.801c-12.44 11.2-22.09 25.07-33.15 37.57-4.82 6.07-10.13 13.21-18.39 14.28-7.05-.27-13.79-2.84-20.85-3.12-1.11 2.24-2.13 4.521-3.1 6.831 13.84 15.97 35.48 19.568 53.82 27.968 14.41 5.98 19.01 22.322 28.45 33.432 2.18 1.69.38 3.29-1.6 3.92-8.18-11.38-14.32-25.031-26.09-33.291-13.01-6.58-27.48-9.82-40.49-16.43-5.93-3.46-10.73-8.459-15.86-12.939-.24.59-.72 1.779-.96 2.369 2.17 6.38 10.67 12.201 7.23 19.301-6-.27-11.63-3.11-17.27-5.01-14.68 14.87-30.54 29.159-48.62 39.889-8.51 5.38-19.2 6.42-28.77 3.49-22.52-6.17-45.55-11.241-66.82-21.151-18.06-8.21-33.26-21.598-46.31-36.308-4.36 8.95-7.91 18.338-13.51 26.648-7.6 12.38-18.46 22.191-28.3 32.701-3.13 5.98 2.35 12.49 1.65 18.69-2.7 6.5-6.56 12.559-8.52 19.359 3.72 5.25 12.4 4.601 16.06 9.981 4.67 16.25 3.25 33.689 8.42 49.849 5.19 1.06 11.83-2.979 15.84 1.901 11.4 12.3 21.53 26.61 36.46 34.89 5.95-3.09 10.66-8.68 17.18-10.55 6.7 1.54 12.66 5.31 18.71 8.47 6.7 1.48 12.46 5.43 18.86 7.76 2.75.82 6.34 3.97 8.88 1.24 5.13-4.95 9.86-10.42 15.85-14.39 1.57-1.11 3.55-.25 5.15.38 12.86 4.49 23.87 13 36.83 17.2 2.14 1.05 3.62-1.24 4.91-2.57 5.41-6.081 10.25-12.991 16.99-17.661 21.46 2.56 41.86-6.508 62.9-9.058.55-6.34-3.09-11.961-3.93-18.061 4.35-3.14 9.69-4.349 14.8-5.699 20.49-5.53 36.94-19.52 54.99-29.91-1.4-2.95-4.06-5.042-5.5-7.942 3.69-11.31 13.77-18.798 23.38-24.978 8.22-5.33 11.85-14.851 15.33-23.541 4.05-10.86 9.13-21.339 12.91-32.299-2.25-2.18-5.86-2.001-8.58-3.381-1.47-5.6-1.39-11.469-.96-17.189 1.1-13.29-.04-26.791-3.3-39.711-4.23-2.27-9.34 1.76-13.7.84-5.18-8.91-7.27-19.789-14.82-27.299-6.02-.37-11.71 2.159-17.62 2.759-3.81-2-6.12-5.87-8.58-9.23zm-65.19 22.951c-3.66-.14-7.78 2.762-9.87 4.908.76 4.04 1.34 8.111 1.65 12.221 5.27.11 11.02-.311 16.18-1.891-.48-5.56-4.92-10.139-7.23-15.169-.24-.038-.48-.059-.73-.069zm-15.46 41.899c-1.29 2.1-2.65 4.16-4 6.22 2.57 2.39 6.12 3.46 9.59 3.53-1.69-3.29-2.56-7.47-5.59-9.75z" fill="#75395d"/>
    <path id="color9" d="m1712.14 793.42c-1.93 3.76 3.64 1.11 0 0zm .96 3.93c-1.86 3.88 3.56 1.18 0 0zm1.06 4.99c-1.92 3.88 3.52 1.23 0 0zm .99 4.939c-.57 1.55-.68 4.451.75 5.401.62-1.55.69-4.501-.75-5.401zm-363.97 178.287c-.66-.021-1.31.117-1.9.534-5.99 3.97-10.72 9.44-15.85 14.39-2.54 2.73-6.13-.42-8.88-1.24-6.4-2.33-12.16-6.28-18.86-7.76 7.29 20.09 15.83 39.73 24.77 59.13 4.51 9.67 9.74 19.1 12.76 29.38h103.63c6.77-23.41 15.3-46.3 21.1-69.99.74-4.82 6.39-8.5 3.62-13.629-20.02 19.179-44.48 35.699-72.65 38.919-11.99 1.87-20.98-7.92-29.41-14.82-5.88-5.73-12.66-11.13-16.08-18.79-1.08-5.041.26-10.21 1-15.21-1-.393-2.15-.877-3.25-.914z" fill="#513864"/>
    <path id="color10" d="m1371.14 458.273c-.31-.003-2.6 7.861-3.42 11.745-1.22 5.797-1.79 11.576-1.79 18.224 0 11.202 1.5 18.843 5.58 28.354l1.47 3.441.66-5.266c.37-2.896 1.35-9.548 2.19-14.783 1.85-11.55 2.01-17.028.68-23.289-.96-4.565-5-18.426-5.37-18.426zm11.07 79.551c-.5.501 2.62 6.242 6.59 12.106 2.22 3.297 4.96 7.619 6.07 9.605 2.02 3.608 3 5.045 9.89 14.572 2.01 2.785 4.15 5.974 4.75 7.088.6 1.114 2.1 3.12 3.32 4.457 2.89 3.14 5.55 7.276 10.17 15.795 2.06 3.787 4.76 8.434 6 10.328 2.39 3.628 7.43 9.009 9.82 10.493 2.44 1.515 3.7.934 9.41-4.329 4.33-4.001 8.4-7.29 18.13-14.671 8.65-6.565 11.62-8.928 14.84-11.807l1.69-1.502-2.5-2.383c-3.25-3.106-5.74-4.746-15.09-9.945-9.66-5.374-15.57-7.988-29.93-13.235-15.43-5.64-18.76-7.037-28.47-11.931-5.73-2.889-10.92-5.912-16.41-9.559-4.41-2.933-8.14-5.22-8.28-5.082z" fill="#ab99b1"/>
  </g>
</svg>
