<svg height="1079" width="1920" xmlns="http://www.w3.org/2000/svg">
  <path id="background" d="m0 0h1920v1080h-1920z" fill="#022641"/>
  <g id="transform" transform="translate(0,0) scale(1.00)">
    <path id="color1" d="m358.73 55.1602c-15.94 12.35-31.28 28.5405-36.48 48.8108-1 5.91-.16 11.829.4 17.689-11.97 9.71-22.69 21.201-30.39 34.641-6.7 12.4-14.8 24.208-18.76 37.888-1.82 6.87-2.68 13.91-3.6 20.92-.3 5.58-.269 11.17-.179 16.75-3.85-6.45-6.891-13.839-9.981-20.839.41-11.76 1.04-23.52 1.1-35.29-6.86 3.15-11.119 10.56-14.119 17.25.5 14.73 2.339 29.411 3.879 44.081-.59 41.85-4.661 83.649-10.491 125.039 2.89-2.53 5.85-5.041 8.33-7.981 3.47-28.47 5.851-57.229 5.891-85.959 4.33 19.27 6.931 39.58 13.551 58.25 4.37-8.88 5.779-18.849 8.269-28.359.96-3.99.599-9.64 4.719-11.75 4.81 12.88 8.381 26.859 15.951 38.439-5-13.68-7.45-28.221-8.55-42.711-.77-3.5 3.049-5.949 5.679-7.189 5.36 13.55 14.311 25.681 17.211 40.131-.36 5.18-1.08 10.399-.83 15.609 2.49.22 4.49 1.66 6.65 2.74 2.25-.52 3.851-2.42 5.411-4-.52-1.67-1.07-3.33-1.17-5.07 1.57 1.3 2.388 3.279 3.648 4.859 2.11 2.8 4.402 5.471 6.342 8.391 11.37 12.83 23.32 25.73 37.51 35.34-10.99-15.14-21.1-31.681-26.5-49.641 8.68 11.66 17.23 23.701 27.74 33.881.63 1.01 2.658.8 1.488-.59-11.61-16.59-22.049-34.29-28.439-53.57-2.44-4.43-5.75-8.369-7.76-13.039-11.43-31.21-15.339-66.981-3.029-98.531 11.43 17.52 22.14 36.94 38.34 51.05 3.59 3.1 7.47 6.27 12.16 7.45-12.54-14.33-26.311-28.62-33.561-46.6 14.24 14.17 28.48 30.119 47.58 37.529-11.74-18.78-23.3-39.218-26.51-61.638 10.74 17.52 21.239 36.838 38.709 48.728-8.22-21.23-19.688-41.638-25.218-63.978-.51-3.39 2.588-.13 3.468.91 18.47 17.54 39.13 33.66 63.17 42.75 2.86 1.5 7.422.8 8.692 4.42 2.16 4.97 5.259 9.5 7.439 14.42 1.89 21.7 4.649 43.469 3.619 65.289.14 3.8.902 7.849-.718 11.439.09 1.15-.952 4.331 1.148 3.561.79-6.09 4.181-11.48 5.641-17.43 2.74-6.94 3.659-14.58 6.859-21.27 6.73-30.44 14.741-62.5 7.211-93.57 6.68.92 4.5-5.249 2.6-9.019-1.25.93-3.22 1.599-3.85-.401-6.87-13.52-17.19-24.86-27.25-35.98 4.72-4.49 9.171-9.24 13.051-14.5 2.77-4.39 4.949-9.101 7.289-13.721 1.54-3.8099 2.05-9.1187 3.58-11.9687-.11-1.86-.371-3.7801.269-5.5801-.24.19-.709.5505-.949.7305.51 4.85-1.68 9.7398-3.4 14.2598-2.16 4.9595-5.111 9.7605-9.471 13.0805-6.1 5.08-14.078 8.888-22.058 8.718-36.5-22.9497-87.46-25.9297-123.68-1.25-.24-7.01.11-14.468 3.34-20.8083 4.59-16.93 16.829-30.6305 29.009-42.8105zm175.194 43.4492c-7.1-.0595-13.681 3.6616-20.033 6.5316-1.02.89-2.601 2.059-1.661 3.599 8.71 23.35 18.51 46.43 30.75 68.09 33.36 36.38 70.691 68.94 107.731 101.49 22.42 20.13 46.899 37.79 70.549 56.42 16.09 16.82 35.85 29.49 55.76 41.25 33.33 19.28 68.469 34.869 103.519 50.619 4.14 2.29 9.231 3.711 11.781 8.041 47.25 63.17 73.029 139.61 87.619 216.33 10.48 56.57 15.002 114.309 14.372 171.879 35.709-74.18 46.699-160.31 29.009-240.91-10.23-50.03-31.229-97.518-59.359-139.898 5.19.48 9.94 2.869 14.93 4.219 35.349 14.11 69.689 31.17 101.119 52.8 34.95 31.25 69.96 63.011 98.44 100.481 36.13 46.22 60.96 102.478 64.15 161.488 4.18 50.39-8.47 101.182-31.87 145.672-21.7 41.89-52.23 78.999-87.48 110.119 55.8-39.45 104.06-92.88 129.57-157.06 23.89-59.13 26.01-125.67 11.74-187.45-8.81-39.12-23.76-76.73-42.92-111.97-17-38.1-42.2-72.029-70.36-102.629-22.98-25.25-48.56-48.101-75.02-69.551 3.98 1.31 7.43 3.8 11.29 5.42 49.66 27.11 95.39 61.47 135.46 101.4 24.16 24.25 45.96 50.92 64.09 79.99 34.72 53.2 62.67 111.209 78.09 172.969 9.71 39.12 14.32 79.981 10.07 120.131-.44 1.06-2.07 4.08.31 3.6-.44-3 .9-5.7 1.11-8.59 11.42-67.28 9.5-137.65-10.66-203.11-10.34-33.63-24.69-65.881-40.92-97.111-24.31-46.57-52.63-91.018-83.32-133.648-21.93-22.93-46.97-43.15-75.05-58.09-.95-.52-1.96-.982-2.5-1.932 34.16 7.67 68.26 16.15 101.17 28.33 59.79 21.04 117.62 53.311 158.88 102.381 1.51 2.23 3.65 3.96 5.57 5.85-12.73-17.45-28.97-32.789-45.29-47.199-70.99-58.49-160.51-89.911-250.48-103.731-33.79-15.03-69.04-26.669-105.02-35.199-26.13-6.84-53.541-5.082-79.941-10.272-32.17-4.95-64.048-11.379-96.058-17.259-44.92-4.03-87.182-22.079-126.032-44.129-65.35-37.85-123.399-87.091-177.019-139.961-4.08-3.34-7.24-8.6991-13.01-9.1291-1.036-.1763-2.062-.263-3.076-.2715zm-45.783 22.2016c-.35.49-1.061 1.459-1.411 1.949 1.91 6.28 4.46 12.439 5.68 18.929 1.27-.16 3.08.642 3.94-.628-2.57-6.79-4.739-13.85-8.209-20.25zm10.17 25.4c-.55 3.81 2.24 7.04 1.9 10.85-4.01 2.74.838 6.999.148 10.599 2.78.33 5.581-.009 8.381-.019-2.68-7.38-6.839-14.61-10.429-21.43zm88.939 45.039c23.08 19.99 47 39.071 72.16 56.391 19.28 12.85 39.559 24.138 58.699 37.218 35.23 25.66 70.732 51.041 104.942 78.051.63.71 4.119 3.48 1.469 2.61-56.74-24.46-109.849-57.431-158.799-95.231-28.86-22.88-56.682-47.799-78.272-77.799zm234.039 129.01c50.08 26.5 99.882 55.141 146.272 88.201 14.23 10.72 28.649 21.589 40.179 35.299-23.31-13.85-47.16-27.769-72.34-38.209-37.05-29.64-74.631-59.311-114.111-85.291zm-496.609 22.58c-4.06 3.06-6.26 7.67-9.08 11.73-5.22 6.06-14.409 2.231-20.629 6.311-7.14 4.48-13.932 9.559-20.352 15.019 2.1 20.78 3.211 41.65 3.531 62.51 9.03-1.54 17.699-4.74 26.129-8.26 1.22-19.43 4.261-38.741 7.071-57.961 5.28 15.18 6.549 32.261 11.689 47.811 4.76-2.64 9.352-5.569 13.852-8.619-2.14-2.92-1.441-6.95-2.291-10.33-3.41-19.39-6.07-38.911-9.92-58.211zm-89.959 71.98c-10.71 13.62-20.001 28.94-26.551 44.86 3.42-.7 6.641-2.1 9.881-3.36 6.04-13.59 12.4-27.23 16.67-41.5zm65.16 68.91c-9.05 2.52-17.961 5.431-26.891 8.321-7.15 41.23-21.58 80.789-37.49 119.349-11.14 28.31-25.3 55.401-34.66 84.411-7.43 31.64-16.501 63.128-20.401 95.558-.2 3.57-3.448-.028-4.558-1.238-26.37-24.52-44.071-57.37-52.801-92.07-7.07-32.7-1.001-66.732 10.209-97.772 10.87-30.62 27.661-58.749 45.691-85.639-4.89.68-9.861.99-14.691 2.12-7.86 12.48-18.678 23.091-27.568 34.941-24.86 32.05-46.6301 68.068-54.5101 108.328-3.65 18.57-3.3912 38.14 2.4688 56.25 15.8903 43.83 48.2203 82.091 90.3003 102.791 1.11.7 3.11 1.21 2.94 2.9.02 16.71.82 33.78 6.66 49.61 10.36 27.18 32.78 49.15 59.34 60.59.49-.08 1.49-.26 1.98-.35-.56-7.79-3.321-15.269-4.701-22.949-1.16-3.11 3.12-3.66 4.25-5.92-17.23-17.56-20.589-43.351-23.199-66.691 13.27.54 28.451 5.479 40.711.009-14.43-2.96-28.291-8.3-41.541-14.66-2-27.86.141-55.8 2.211-83.58 1.56-14.59 2.49-29.329 5.92-43.639 11.49-48.85 23.269-97.769 41.199-144.689 2.23-3.4 2.659-7.941 5.939-10.611.04 52.65 3.801 105.62 16.301 156.89 5.65 20.95 12.719 41.739 24.539 60.129.65-.94.93-1.948.83-3.058-6.79-38.9-8.958-78.46-8.968-117.92-5.63-13.3-7.002-27.902-8.782-42.112-1.83-20.94-2.429-41.999-1.679-63.019-1.07-6.17-2.169-12.92.201-18.92.08-9.13.54-18.25.75-27.36zm377.465 232.875c-.777-.03-1.571.086-2.326.206-.32.54-.96 1.61-1.28 2.15 1.96 7.68 4.061 15.359 5.561 23.139-3.19 2.09-7.31 3.95-11.08 4.58-2.59-7.26-4.361-15.2-7.621-22.36-2.31.12-4.18 1.911-6.53 1.981-.83 1.32-2.41 1.458-3.81 1.638-2.82 1.93-6.3 2.49-9.26 4.17.2 7.87 5.641 16.012 5.801 23.692-6.66 2.78-13.382 6.299-20.362 7.869-2.66-7.65-2.639-16.841-6.429-23.881-6.11 1.62-12.01 4.061-18.11 5.721-1.57.32-4 .32-4.25 2.39 1.34 8.08 4.02 15.839 5.19 23.959-6.83 3.48-14.79 4.722-22.09 7.102.65 8.38.2 17.159 1.08 25.389 8.42-1.25 16.819-3.22 25.029-5.5 2-8.87-1.319-18.06-2.699-26.67 6.96-2.16 13.92-4.09 20.82-6.42 1.72 0 1.3 2.161 1.61 3.291.74 7.6 1.98 15.199 1.56 22.859 8.54-1.17 16.261-5.909 24.491-8.439 2.4-1.95.398-5.701-.022-8.221-.91-6.53-2.749-12.88-4.019-19.33 5.92-2.77 12.29-4.97 18.48-7.33 2.21 8.07 1.97 17.01 2.82 25.43 3.76-1.64 7.671-3.569 10.731-6.309.16-7.93-.811-15.842-.981-23.762-.26-2.67 3.16-2.829 4.75-4.129-.59-7.72-3.019-15.06-4.839-22.55-.68-.46-1.439-.635-2.215-.665zm-105.793 36.952c-2.912.118-6.637 2.372-9.373 2.283-3.48 1.49-7.51.75-10.94 2.43 2.53 8.39 4.56 17.479 4.42 26.349-8.15.56-16.17 2.571-24.31 3.061-.08-8.61-.25-17.699-1.28-25.969-8.11.28-16.33 1.238-24.39 1.978-1.02 8.59.4 17.512-.78 26.122-8.04.1-16.05-1.011-24.06-.991-.22 7-.299 14.01-.619 21 8.47.83 17.168.751 25.638.241.5-6.61-.149-13.262.291-19.872 7.98-.4 16.011-.89 23.991-.32.57 6.57-.001 13.21.189 19.82 8.78-.38 17.68-.788 26.34-1.978-.14-7.24.8-14.442.66-21.682-.37-1.65 1.5-1.649 2.57-1.779 6.91-1.05 13.51-3.609 20.26-5.199-.03-8.1-1.87-16.55-5.31-23.91-.819-1.25-1.974-1.638-3.297-1.584zm-106.274 6.802c-2.48 5.35-6.829 9.572-10.119 14.442 2.34 3.41.73 8.278 1.74 12.238 7.97.05 16.03 1.972 23.95 1.012.6-7.33.43-14.711.48-22.061.69-5.7-11.479 1.1-8.359-4.91-2.59 1.34-5.682 2.249-7.692-.721zm203.612 149.202c-6.5 1.42-12.211 5.659-18.041 8.169 18.35 10.08 36.83 20.161 53.47 32.981 9.86 7.6 19.891 16.199 24.491 28.039-1.58-8.54-6.811-15.86-11.831-22.75-13.8-17.56-29.959-33.389-48.089-46.439zm-147.862 52.289c-4.3 5.99-7.729 12.6-11.439 18.99 1.95 1.57 3.801 3.361 6.131 4.381 1.32-7.91 4.198-15.551 5.308-23.371zm70.522 15.041c-23.17 4.91-46.86 8.309-70.58 8.939-1.41-.12-2.101.539-2.071 1.949 13.11 9.06 26.761 17.551 41.561 23.601 40.49 12.19 82.909 21.57 125.469 17.91 24.52-2.58 50.57-9.65 67.89-28.25-29.1 18.8-66.76 18.91-98.8 7.95-22.68-7.27-43.839-18.719-63.469-32.099z" fill="#0494d2"/>
    <path id="color2" d="m498.68 75.4199c-3.06-.09-5.41 1.2793-5.5 4.5293 8.13 20.6698 14.079 42.2908 21.689 63.2008 8.93 16.55 18.261 32.909 27.031 49.549.36 5.28 5.809 1.94 7.129-.76-1.18-5.32-5.609-9.589-6.049-15.109-12.24-21.66-22.04-44.74-30.75-68.09-.94-1.54.641-2.709 1.661-3.599-5.4-9.7104-9.941-19.9211-15.211-29.7211zm-99.629 3.8809c-8.411-.1331-16.839.7469-25.051 2.6894-15.4 3.19-30.689 7.9005-44.279 15.9805-3.23 6.3403-3.58 13.7983-3.34 20.8083 36.22-24.6797 87.18-21.6997 123.68 1.25 7.98.17 15.958-3.638 22.058-8.718-9.44-9.32-20.239-17.3811-32.199-23.1411-12.875-5.6125-26.851-8.6472-40.869-8.8691zm82.236 2.8398c-1.355-.1037-2.756.2947-3.986 1.1797.85 5.07 2.889 9.9402 4.289 14.9102 1.72-4.52 3.91-9.4098 3.4-14.2598-1.04-1.12-2.348-1.7263-3.703-1.8301zm4.383 6.6797c-1.53 2.85-2.04 8.1588-3.58 11.9687 2.51 6.43 5.381 13.112 6.051 20.022 3.47 6.4 5.639 13.46 8.209 20.25-.86 1.27-2.67.468-3.94.628-1.22-6.49-3.77-12.649-5.68-18.929-6.26 2.18-7.629-5.67-11.929-8.25-3.88 5.26-8.331 10.01-13.051 14.5 10.06 11.12 20.38 22.46 27.25 35.98.63 2 2.6 1.331 3.85.401 1.9 3.77 4.08 9.939-2.6 9.019 7.53 31.07-.481 63.13-7.211 93.57 2.06 1.46 4.651 1.2 7.041 1.2.96-.75 1.6-1.77 2.25-2.78 7.61-1.63 15.44-2.159 23.01-4.019 2.59-.97 4.939-3.402 4.699-6.342.06-9.64-.349-19.309.111-28.949-.02-1.67 2.56-.501 3.2-1.811.4-10.96-1.429-22.219-2.219-33.189 3.66 3.01 4.9 8.08 8.08 11.58 4.53-.41 4.499-4.221 4.549-7.561-.33-.13-1-.408-1.33-.548-8.72-16.54-17.79-32.891-26.58-49.391-6.75-19.1-13.12-38.37-20.18-57.3497zm-163.42 15.1507c-13.26 9.07-23.25 22.249-31.57 35.799-3.32.18-5.099-4.71-7.959-6.37-4.61 1.03-8.262 3.69-8.772 8.6-1.34 17.27-.359 34.819-.449 52.189 3.96-13.68 12.06-25.488 18.76-37.888 7.7-13.44 18.42-24.931 30.39-34.641-.56-5.86-1.4-11.779-.4-17.689zm-55.006 35.064c-1.646.032-3.793 1.401-4.974 2.176-.53 11.5-1 23.009-1.43 34.519-.06 11.77-.69 23.53-1.1 35.29 3.09 7 6.131 14.389 9.981 20.839-.09-5.58-.121-11.17.179-16.75-1.48-1.3-2.939-2.96-2.679-5.08.08-21.65.079-43.299.129-64.949 0-3.02 3.34-3.69 5.75-3.33-1.24-.36-2.57-.38-3.75-.91-.312-1.361-1.118-1.824-2.106-1.805zm231.067 7.176c3.59 6.82 7.749 14.05 10.429 21.43-2.8.01-5.601.349-8.381.019.69-3.6-4.158-7.859-.148-10.599.34-3.81-2.45-7.04-1.9-10.85zm-213.971 2.068c4.99.24 3.371 9.691-.029 10.541-.02-3.51.019-7.031.029-10.541zm390.68 568.532c-6.95 3.04-14.95 4.99-20.95 9.49 2.35-.07 4.22-1.861 6.53-1.981 3.26 7.16 5.031 15.1 7.621 22.36 3.77-.63 7.89-2.49 11.08-4.58-1.5-7.78-3.601-15.459-5.561-23.139.32-.54.96-1.61 1.28-2.15zm-25.831 11.037c-2.443.024-4.538 1.613-6.839 2.322-1.92 1.15-4.15 1.51-6.28 2.06-20.08 7.44-40.241 15.24-60.951 20.79-.07.53-.199 1.591-.269 2.121 3.44 7.36 5.28 15.81 5.31 23.91-6.75 1.59-13.35 4.149-20.26 5.199-1.07.13-2.94.129-2.57 1.779.14 7.24-.8 14.442-.66 21.682-8.66 1.19-17.56 1.598-26.34 1.978-.19-6.61.381-13.25-.189-19.82-7.98-.57-16.011-.08-23.991.32-.44 6.61.209 13.262-.291 19.872-8.47.51-17.168.589-25.638-.241.32-6.99.399-14 .619-21 8.01-.02 16.02 1.091 24.06.991 1.18-8.61-.24-17.532.78-26.122 8.06-.74 16.28-1.698 24.39-1.978 1.03 8.27 1.2 17.359 1.28 25.969 8.14-.49 16.16-2.501 24.31-3.061.14-8.87-1.89-17.959-4.42-26.349 3.43-1.68 7.46-.94 10.94-2.43-19.44-6.61-39.409-12.69-59.219-18.08-11.27 6.02-20.66 14.81-29.99 23.32-3.12 6.01 9.049-.79 8.359 4.91-.05 7.35.12 14.731-.48 22.061-7.92.96-15.98-.962-23.95-1.012-1.01-3.96.6-8.828-1.74-12.238-2.13 4.26-6.029 7.6-7.939 11.83 2.93.47 5.929-.091 8.859.439.83 6.51-.19 13.12-.43 19.66-4.32.89-8.991-1.829-13.361-2.419-3.56 4.28-5.619 9.78-8.379 14.65-9.27 15.85-19.75 30.96-29.5 46.51-1.78 1.81-3.23-1.391-4.4-2.461-10.94-14.9-18.11-32.091-26.6-48.401-2.34-5.69-8.401-8.76-10.631-14.5-2-5.53-6.58-9.569-9-14.869-2-8.34-3.789-16.729-5.189-25.189-2.27-4.22-2.37-10.222-6.51-13.022-.66 17.59-2.821 35.35-.301 52.91.16 3.38 1.621 7.291-.529 10.311-6.06 8.32-12.079 16.68-17.939 25.15-6.37 8.66-9.422 19.1-14.032 28.67-6.8 20.23-13.52 40.591-20.25 60.891-10.23-7.33-15.659-20.232-19.959-31.842-1.72.61-4.86.091-4.09 2.881.74 13.36 1.049 27.85 8.379 39.49 9.33 1.41 18.842 1.66 28.192 3.03.6.66 1.198 1.341 1.808 2.041 10.56.78 21.712.509 31.602 4.709 3.46-3.45 3.219-9.91 6.809-13.5 28.6-12.93 59.529-23.04 91.269-22.1 1.91 6.77-.678 15.08 1.272 21.93 10.1 3.33 20.389 6.791 30.709 9.281 21.82-5.01 43.23-11.741 65.06-16.861 3.17-.83 6.519-2.85 9.789-2.01 4.14 6.06 6.1 14.119 10.17 19.679 9.67-2.58 19.451-4.878 29.531-5.218 12.91-3.43 21.851-14.882 27.651-26.282 4.76-5.86 9.799-11.499 15.119-16.839 1.94-1.85 3.371-5.239 6.631-4.379 13.48-1.14 26.989-2.781 40.199-5.721 11.72-30 12.77-64.15 29.98-92.07 5.32-.52 10.601 1.819 15.901.929.49-11.6.66-23.259.66-34.879-6.08.77-11.8 3.51-17.83 4.77-3.64 1.74-9.312 3.97-12.182-.01.03-5.67-.079-11.32-.439-16.97-.15-1.76-.45-3.49-.86-5.2-1.59 1.3-5.01 1.459-4.75 4.129.17 7.92 1.141 15.832.981 23.762-3.06 2.74-6.971 4.669-10.731 6.309-.85-8.42-.61-17.36-2.82-25.43-6.19 2.36-12.56 4.56-18.48 7.33 1.27 6.45 3.109 12.8 4.019 19.33.42 2.52 2.422 6.271.022 8.221-8.23 2.53-15.951 7.269-24.491 8.439.42-7.66-.82-15.259-1.56-22.859-.31-1.13.11-3.291-1.61-3.291-6.9 2.33-13.86 4.26-20.82 6.42 1.38 8.61 4.699 17.8 2.699 26.67-8.21 2.28-16.609 4.25-25.029 5.5-.88-8.23-.43-17.009-1.08-25.389 7.3-2.38 15.26-3.622 22.09-7.102-1.17-8.12-3.85-15.879-5.19-23.959.25-2.07 2.68-2.07 4.25-2.39 6.1-1.66 12-4.101 18.11-5.721 3.79 7.04 3.769 16.231 6.429 23.881 6.98-1.57 13.702-5.089 20.362-7.869-.16-7.68-5.601-15.822-5.801-23.692 2.96-1.68 6.44-2.24 9.26-4.17-.365-.067-.721-.095-1.071-.091zm-379.468 276.862c-10.35 24.15-20.181 48.78-26.731 74.29h182.869c7.93-9.73 16.21-19.14 24.18-28.83-44.14-19.78-89.44-39.57-138-44.88-5.58-1.93-4.019 8.59-9.299 6.04-10.61-3.87-21.839-5.54-33.019-6.62z" fill="#3b3b3b"/>
    <path id="color3" d="m493.18 79.9492c-2.17 1.6-4.791 2.301-7.241 3.291-.64 1.8-.379 3.7201-.269 5.5801 7.06 18.9797 13.43 38.2497 20.18 57.3497 8.79 16.5 17.86 32.851 26.58 49.391.33.14 1 .418 1.33.548 2.71-1.12 4.97-3.87 8.14-3.41-8.77-16.64-18.101-32.999-27.031-49.549-7.61-20.91-13.559-42.531-21.689-63.2008zm-221.02 61.7168c-2.254-.072-4.81.772-4.81 3.414-.05 21.65-.049 43.299-.129 64.949-.26 2.12 1.199 3.78 2.679 5.08.92-7.01 1.78-14.05 3.6-20.92.09-17.37-.891-34.919.449-52.189l-.849-.25c-.302-.045-.618-.074-.94-.084zm12.18 6.613c-.01 3.51-.049 7.031-.029 10.541 3.4-.85 5.019-10.301.029-10.541z" fill="#fd0150"/>
    <path id="color4" d="m384.121 162.389c-.368.031-.56.442-.4 1.502 5.53 22.34 16.998 42.748 25.218 63.978-17.47-11.89-27.969-31.208-38.709-48.728 3.21 22.42 14.77 42.858 26.51 61.638-19.1-7.41-33.34-23.359-47.58-37.529 7.25 17.98 21.021 32.27 33.561 46.6-4.69-1.18-8.57-4.35-12.16-7.45-16.2-14.11-26.91-33.53-38.34-51.05-12.31 31.55-8.401 67.321 3.029 98.531 2.01 4.67 5.32 8.609 7.76 13.039 13.92 20.12 38.511 28.839 61.961 31.189 4.44 1.31 11.088-1.329 14.148 2.301 1.21 3.07 3 6.041 3.25 9.391 2.16 1.87-.798 6.91 2.342 7.09 13.33-9.76 26.959-19.132 40.199-29.032.83-.76 2.07-1.438 2.1-2.718-3.45-4.19-3.949-10.172-5.119-15.362-2.08-5.82 4.958-10.149 8.218-14.099 1.03-21.82-1.729-43.589-3.619-65.289-2.18-4.92-5.279-9.45-7.439-14.42-1.27-3.62-5.832-2.92-8.692-4.42-24.04-9.09-44.7-25.21-63.17-42.75-.605-.715-2.259-2.481-3.068-2.412zm-90.172 112.451c-2.63 1.24-6.449 3.689-5.679 7.189 1.1 14.49 3.55 29.031 8.55 42.711-7.57-11.58-11.141-25.559-15.951-38.439-4.12 2.11-3.759 7.76-4.719 11.75-2.49 9.51-3.899 19.479-8.269 28.359-1.08 4.44-2.321 8.86-3.211 13.36-8.84.77-9.591 10.429-16.231 14.349-2.48 2.94-5.44 5.451-8.33 7.981-27.01 25.63-57.129 47.68-86.369 70.65-10.81 8.81-19.919 20.109-24.599 33.359-4.92 13.21-8.641 27.821-19.161 37.881-1.13 1.31-2.791 3.03-1.871 4.91 3.36 8.21 12.221 13.26 20.901 13.51 11.9-.86 23.509-3.87 35.279-5.64 4.83-1.13 9.801-1.44 14.691-2.12 31.47-6.94 63.32-12.679 94.01-22.599 8.93-2.89 17.841-5.801 26.891-8.321 9.83-3.38 19.72-7.281 30.08-8.531 10.78-10.3 20.348-21.79 30.898-32.34 8.97-10.71 16.711-22.528 22.911-35.058 1.3-1.92-3.121-.231-2.411-1.811 2.96-5.39 7.07-10.17 9.93-15.64-19.54 1.41-39.038 8.841-54.398 21.031-4.5 3.05-9.092 5.979-13.852 8.619-6.06 3.66-12.18 7.43-18.76 10.15-8.43 3.52-17.099 6.72-26.129 8.26-20.11 5.62-40.139 11.81-60.099 17.91-3.24 1.26-6.461 2.66-9.881 3.36 6.55-15.92 15.841-31.24 26.551-44.86 2.05-3.51 5.069-6.33 7.849-9.25 10.54-10.04 20.569-20.7 32.049-29.67 6.42-5.46 13.212-10.539 20.352-15.019 6.22-4.08 15.409-.251 20.629-6.311 2.82-4.06 5.02-8.67 9.08-11.73 1.89-2.1 4.281-3.65 6.531-5.34-1.94-2.92-4.232-5.591-6.342-8.391-.62.05-1.858.151-2.478.211-1.56 1.58-3.161 3.48-5.411 4-2.16-1.08-4.16-2.52-6.65-2.74-.25-5.21.47-10.429.83-15.609-2.9-14.45-11.851-26.581-17.211-40.131zm222.688 76.777c-4.517.02-9.053 1.028-13.467 1.873-10.15 3.33-21.04 5.511-30.01 11.641-9.32 14.67-16.79 30.84-20.41 47.92-1.77 17.29 6.299 33.338 13.699 48.388 6.85 12.16 18.102 22.28 31.602 26.34 7.31 2.16 15.179-.64 20.269-6.08-.05-.83.76-3.3 1.75-1.84 18.43 27.19 37.319 54.212 52.869 83.192 8.3 15.14 10.24 34.31 24 46 39.38 38.74 79.24 77.27 123.35 110.67 12.95 9.17 25.211 19.359 37.211 29.699 3.96 9.78 10.999 18.22 19.119 24.91 10.69 9.01 25.111 10.779 38.401 13.039 12.56-.66 25.23 1.222 37 5.682 7.66 2.45 15.489.809 23.169-.391-5.35-1-11.108-1.861-15.468-5.371-2.89-1.94-1.041-7.028 2.369-6.908 4.76-.71 9.309.63 13.939 1.34-11.15-6.47-25.919-7.781-36.689-15.961.11-1.89 2.93-1.63 4.24-1.18 5.84 2.3 12.151 3.1 18.311 3.34 5.46 4.58 11.048 9.041 16.148 14.041.72.63 1.44 1.279 2.16 1.949 4.3 4.08 8.321 8.58 12.121 13.1-1.35 14.94-.881 30-.531 45 .25 4.39 2.812 8.5 6.432 10.89-.83-5.55-4.431-17.769 4.859-16.839-.12-3.49 3.72-10.612 5.68-4.202 3.24 6.42 9.131 15.352 17.551 12.192-3.92-5.76-7.89-13.061-5.18-20.121-2.07-5.66-3.96-11.419-6.49-16.879.55-6.73 2.43-13.371 2.25-20.141-1.28-4.87-5.831-8.97-6.061-13.98 3.7.57 8.219 2.74 8.279 7.07 2.68 8.92 5.48 18.121 11.34 25.551 2.23 2.62 4.952 5.469 8.692 5.359-1.31-4.22-4.722-7.93-3.782-12.65 1.44-.14 2.57.82 3.59 1.73-3.39-9.5-7.11-18.97-8.75-28.97-.35-2.08-1.919-3.561-3.529-4.741-8.67-6.32-17.701-12.168-26.061-18.898-5.87-5.53-11.409-12.3-19.589-14.32-30.06-5.63-60.739-6.221-90.969-10.381-6.16-1.21-10.012-6.39-14.772-9.95-23.07-19.6-44.02-41.81-61.49-66.56-6.74-9.7-12.56-20-19.09-29.83-15.71-23.66-33.889-46.11-56.429-63.61-3.97-2.36-6.32-6.4-9.01-9.98-22.02-32.2-44.089-64.629-61.459-99.609-7.08-23.53-13.601-47.282-22.811-70.112-4.08-9.45-11.53-18.858-22.22-20.718-2.032-.507-4.08-.703-6.133-.694zm-102.377 596.526c-.825-.048-1.866.386-2.61.367-26.67 5.97-53.15 13.21-78.39 23.74-5.71 1.9-10.089 6.66-11.789 12.4-3.1.01 1.019-6.719-2.801-7.179-12.25-2.58-24.799-6.971-37.369-5.631-2.97 7.9-6.371 15.711-7.631 24.131 11.89 1.37 23.361 4.859 34.971 7.579 3.55.97 2.999-5.161 6.289-4.931 20.21 1.831 39.71 7.821 59.15 13.351 27.55 8.83 55.12 18.22 81.09 31.11 21.39-17.56 40.56-38.18 54.42-62.24 3.71-6.39 7.139-13 11.439-18.99-.02-.42-.048-1.251-.058-1.661-17.1 6.31-33.811 13.72-50.891 20.09-2.24.85-4.559 2.432-7.029 1.442-16.59-4.97-33.391-9.282-49.731-15.032.15-5.96 1.93-11.78 2.08-17.74-.228-.577-.645-.778-1.14-.806z" fill="#f1cfa6"/>
    <path id="color5" d="m483.039 267.98c-3.2 6.69-4.119 14.33-6.859 21.27-1.46 5.95-4.851 11.34-5.641 17.43-2.1.77-1.058-2.411-1.148-3.561 1.62-3.59.858-7.639.718-11.439-3.26 3.95-10.298 8.279-8.218 14.099 17.83 5.79 36.328-2.209 52.058-10.459-12.11-.88-23.11-7.81-31.33-16.32 2.76-3.04 5.421-6.2 7.461-9.82-2.39 0-4.981.26-7.041-1.2zm-78.068 66.129c2.57 10.11-2.321 19.221-6.951 27.731 9.51-5.85 15.969-15.77 21.099-25.43-3.06-3.63-9.708-.991-14.148-2.301zm231.099 398.121c-10.87 1.86-21.8 3.221-32.92 2.491-28.72-.86-57.44-1.5-86.16-1.92-2.85-.09-5.181 1.809-7.951 2.019-1.94 1.18-3.938 2.21-6.078 2.94 19.81 5.39 39.779 11.47 59.219 18.08 3.98.13 10.05-4.699 12.67-.699.07-.53.199-1.591.269-2.121 20.71-5.55 40.871-13.35 60.951-20.79zm49.19 12.79c.36 5.65.469 11.3.439 16.97 2.87 3.98 8.542 1.75 12.182.01 6.03-1.26 11.75-4 17.83-4.77 0 11.62-.17 23.279-.66 34.879-5.3.89-10.581-1.449-15.901-.929-17.21 27.92-18.26 62.07-29.98 92.07-13.21 2.94-26.719 4.581-40.199 5.721-3.26-.86-4.691 2.529-6.631 4.379-5.32 5.34-10.359 10.979-15.119 16.839-5.8 11.4-14.741 22.852-27.651 26.282-10.08.34-19.861 2.638-29.531 5.218-4.07-5.56-6.03-13.619-10.17-19.679-3.27-.84-6.619 1.18-9.789 2.01-21.83 5.12-43.24 11.851-65.06 16.861-10.32-2.49-20.609-5.951-30.709-9.281-1.95-6.85.638-15.16-1.272-21.93-31.74-.94-62.669 9.17-91.269 22.1-3.59 3.59-3.349 10.05-6.809 13.5-9.89-4.2-21.042-3.929-31.602-4.709-.61-.7-1.208-1.381-1.808-2.041-9.35-1.37-18.862-1.62-28.192-3.03-7.33-11.64-7.639-26.13-8.379-39.49-.77-2.79 2.37-2.271 4.09-2.881-3.09-10.68-5.8-21.849-6.32-33.189-1.12.77-2.29 1.5-3.27 2.47-1.05 11.38-2.34 22.76-2.91 34.19-3.89 1.8-6.911 5.411-11.121 6.371-1.13 2.26-5.41 2.81-4.25 5.92 1.38 7.68 4.141 15.159 4.701 22.949-.49.09-1.49.27-1.98.35 4.2 1.06 2.931 6.09 3.641 9.34 1.33 4.59.429 9.38.939 14.05 3.44 8.11 13.561 8.37 20.131 12.84 3.46 3.37 10.55-1.29 12.67 3.43 12.57-1.34 25.119 3.051 37.369 5.631 3.82.46-.299 7.189 2.801 7.179 1.7-5.74 6.079-10.5 11.789-12.4 25.24-10.53 51.72-17.77 78.39-23.74 1.19.03 3.14-1.101 3.75.439-.15 5.96-1.93 11.78-2.08 17.74 16.34 5.75 33.141 10.062 49.731 15.032 2.47.99 4.789-.592 7.029-1.442 17.08-6.37 33.791-13.78 50.891-20.09.01.41.038 1.241.058 1.661-1.11 7.82-3.988 15.461-5.308 23.371.84 1.1 1.919 1.958 3.179 2.558-.03-1.41.661-2.069 2.071-1.949 23.72-.63 47.41-4.029 70.58-8.939 13.69-6.14 27.439-14.521 36.209-27.161 6.77-11.29 14.62-21.94 23.09-32 5.83-2.51 11.541-6.749 18.041-8.169 8.98-6.01 20.439-9.792 31.369-11.282 2.4-1.1 4.47-3.139 5.22-5.709 3.59-18.77 8.791-37.26 12.071-56.14 1.95-4.51 1.209-9.841 3.879-14.071 1.25-1.57 3.16.161 4.55.641 6.74 3.12 14.281 6.481 21.831 4.881-.27-24.98-.861-49.981-.911-74.971-9.96-.49-19.95 1.691-29.83 2.401-10.8-2.76-21.21-6.841-31.81-10.291zm180.365 35.169c-1.168-.036-2.345.014-3.535.192-3.41-.12-5.259 4.968-2.369 6.908 4.36 3.51 10.118 4.371 15.468 5.371 4.84.34 6.1-4.96 5.01-8.75-.72-.67-1.44-1.319-2.16-1.949-.5-.06-1.51-.18-2.01-.24-3.472-.533-6.899-1.421-10.404-1.532zm70.262 18.067c-.171-.015-.348-.014-.528.004-.94 4.72 2.472 8.43 3.782 12.65.39 1.7 2.048 1.95 3.548 1.85.5-4.59-2.39-8.57-3.74-12.77-.892-.796-1.867-1.632-3.062-1.734zm-14.756 25.674c-2.71 7.06 1.26 14.361 5.18 20.121 1-.59 2.7-1.561 1.75-2.961-2.69-5.59-6.44-10.85-6.93-17.16zm-14.34 5.351c-1.837-.112-3.797 4.271-3.711 6.78-9.29-.93-5.689 11.289-4.859 16.839 4.56 1.53 4.269-4.999 4.599-7.839-.3-2.8 3.01-3.072 4.34-4.872 2.03-2.34.66-5.64 1.6-8.33-.551-1.802-1.25-2.534-1.969-2.578z" fill="#0b7fb1"/>
    <path id="color6" d="m473.934 314.809c-3.962-.075-8.694 2.079-6.924 6.332-.03 1.28-1.27 1.958-2.1 2.718-13.24 9.9-26.869 19.272-40.199 29.032-3.14-.18-.182-5.22-2.342-7.09-4.92 3.96-10.619 7.069-15.139 11.439-2.35 12.2-9.151 22.91-15.941 33.11-2.86 5.47-6.97 10.25-9.93 15.64-.71 1.58 3.711-.109 2.411 1.811-6.2 12.53-13.941 24.348-22.911 35.058-10.55 10.55-20.118 22.04-30.898 32.34-11.58 10.76-21.36 23.291-30.83 35.891-2.37 6-1.271 12.75-.201 18.92 1.89 10.99 5.239 21.991 9.609 32.371-.23 14.89 1.171 29.749 1.701 44.619-.79 9.36-.429 18.771-.849 28.141.01 39.46 2.178 79.02 8.968 117.92.1 1.11-.18 2.118-.83 3.058-2.04 4.44-5.588 8.24-6.978 12.91 2.02 2.34 2.67 5.921 1.16 8.631-9.81 8.87-20.501 16.81-29.951 26.08-1 3.39-3.07 6.33-4.41 9.59-15.03 32.48-10.43 72.04 9.24 101.5 6.02-25.11 16.29-48.98 26.66-72.56 5.1-11.49 13.049-21.35 21.439-30.59 5.78-5.79 2.681-14.481 2.651-21.651-2.64-18.01 1.141-36.17-.459-54.16 6.46 4.18 10.038 11.902 13.738 18.512 5.81 10.45 3.221 23.739 10.531 33.469 2.83 4.41 6.84 7.83 10.43 11.58 11.51 16.47 18.599 35.55 29.869 52.16.97 1.58 2.121-.79 2.551-1.58 13.93-23.9 27.57-48 42.93-71.03 6.3-9.79 14.79-17.88 23-26.05 18.63-17.55 40.289-33.07 65.439-39.42 9.85-2 19.891-2.959 29.711-5.129-8.72.31-17.401 2.37-26.141 1.01-16.51-2.43-32.789-6.231-48.949-10.321-3.45-2.41-5.331-7.21-9.961-8.08-11.82-1.37-22.889-7.409-30.939-16.109-14.18-9.3-21.601-28.071-17.551-44.481 11.41-19.83 21.862-40.431 35.922-58.541-25.43-16.69-51.332-33.72-71.592-56.75-5.85-8.43-4.989-19.3-5.709-29.07-2.15-28.7.771-57.878 10.721-84.978 2.8-5.51.099-11.88 2.889-17.34 2.3-4.52 5.18-8.701 8.47-12.561.73-3.58.59-7.451 1.94-10.961 2.28 1.19 3.639 3.55 5.859 4.83 3.24 1.24 6.301-1.558 9.621-.648 1.83 5.62 3.62 11.71 3.33 17.59-5.06 4.94-10.449 9.56-15.279 14.74-3.91 11.68-7.8 23.849-6.4 36.359 1.78 18.98 7.498 37.55 16.128 54.51 1.77 4.18 6.651 3.11 9.911 5.1 1.58 2.36 2.059 5.759 5.019 6.939 18.84 8.57 37.411 17.761 56.141 26.561 7.5-13.06 14.991-26.259 20.121-40.469.23-1.15 2.039-4.252-.311-4.012-5.09 5.44-12.959 8.24-20.269 6.08-13.5-4.06-24.752-14.18-31.602-26.34-7.4-15.05-15.469-31.098-13.699-48.388 3.62-17.08 11.09-33.25 20.41-47.92 8.97-6.13 19.86-8.311 30.01-11.641-6.61-5.21-12.36-11.41-18.34-17.31-5.7-5.27-5.401-13.649-7.461-20.549-.88-.525-2.115-.798-3.435-.822zm99.752 402.416c-8.55.014-17.184 1.512-25.616 2.505-13.05 4.85-26.621 8.63-39.031 15.09 2.77-.21 5.101-2.109 7.951-2.019 28.72.42 57.44 1.06 86.16 1.92-1.42-7.22-7.28-13.281-14.23-15.491-5.006-1.488-10.105-2.014-15.234-2.005z" fill="#f4effa"/>
    <path id="color7" d="m414.18 360.199c-1.35 3.51-1.21 7.381-1.94 10.961-3.29 3.86-6.17 8.041-8.47 12.561-2.79 5.46-.089 11.83-2.889 17.34-9.95 27.1-12.871 56.278-10.721 84.978.72 9.77-.141 20.64 5.709 29.07 20.26 23.03 46.162 40.06 71.592 56.75 12.43 8.51 27.189 12.552 39.519 21.202 2.55 1.14 5.169 5.068 8.129 3.058 7.97-10.86 16.031-21.768 22.141-33.818 1.8-4.57 3.33-11.022-.76-14.762-12.49-7.42-25.2-14.479-37.98-21.359-18.73-8.8-37.301-17.991-56.141-26.561-2.96-1.18-3.439-4.579-5.019-6.939-3.26-1.99-8.141-.92-9.911-5.1-8.63-16.96-14.348-35.53-16.128-54.51-1.4-12.51 2.49-24.679 6.4-36.359 4.83-5.18 10.219-9.8 15.279-14.74.29-5.88-1.5-11.97-3.33-17.59-3.32-.91-6.381 1.888-9.621.648-2.22-1.28-3.579-3.64-5.859-4.83zm156.845 347.922c-2.012.026-4.002.12-5.945.26-9.82 2.17-19.861 3.129-29.711 5.129-25.15 6.35-46.809 21.87-65.439 39.42-8.21 8.17-16.7 16.26-23 26.05-15.36 23.03-29 47.13-42.93 71.03-.43.79-1.581 3.16-2.551 1.58-11.27-16.61-18.359-35.69-29.869-52.16-3.59-3.75-7.6-7.17-10.43-11.58-7.31-9.73-4.721-23.019-10.531-33.469-3.7-6.61-7.278-14.332-13.738-18.512 1.6 17.99-2.181 36.15.459 54.16.03 7.17 3.129 15.861-2.651 21.651-8.39 9.24-16.339 19.1-21.439 30.59-10.37 23.58-20.64 47.45-26.66 72.56-19.67-29.46-24.27-69.02-9.24-101.5 1.34-3.26 3.41-6.2 4.41-9.59-7.85 4.77-11.4 13.79-14.01 22.17-3.92 10.88-4.72 22.55-5 34.02.52 11.34 3.23 22.509 6.32 33.189 4.3 11.61 9.729 24.512 19.959 31.842 6.73-20.3 13.45-40.661 20.25-60.891 4.61-9.57 7.662-20.01 14.032-28.67 5.86-8.47 11.879-16.83 17.939-25.15 2.15-3.02.689-6.931.529-10.311-2.52-17.56-.359-35.32.301-52.91 4.14 2.8 4.24 8.802 6.51 13.022 1.4 8.46 3.189 16.849 5.189 25.189 2.42 5.3 7 9.339 9 14.869 2.23 5.74 8.291 8.81 10.631 14.5 8.49 16.31 15.66 33.501 26.6 48.401 1.17 1.07 2.62 4.271 4.4 2.461 9.75-15.55 20.23-30.66 29.5-46.51 2.76-4.87 4.819-10.37 8.379-14.65 4.37.59 9.041 3.309 13.361 2.419.24-6.54 1.26-13.15.43-19.66-2.93-.53-5.929.031-8.859-.439 1.91-4.23 5.809-7.57 7.939-11.83 3.29-4.87 7.639-9.092 10.119-14.442 2.01 2.97 5.102 2.061 7.692.721 9.33-8.51 18.72-17.3 29.99-23.32 2.14-.73 4.138-1.76 6.078-2.94 12.41-6.46 25.981-10.24 39.031-15.09 13.49-1.59 27.5-4.47 40.85-.5 6.95 2.21 12.81 8.271 14.23 15.491 11.12.73 22.05-.631 32.92-2.491 2.13-.55 4.36-.91 6.28-2.06-8.99-8.62-22.53-6.979-33.92-6.619-8.094-12.556-23.315-15.613-37.405-15.43zm-297.355 287.85c-2.3 2.35-2.819 5.759-3.949 8.739 11.18 1.08 22.409 2.75 33.019 6.62 5.28 2.55 3.719-7.97 9.299-6.04 48.56 5.31 93.86 25.1 138 44.88 1.75-2.32 4.561-4.11 5.131-7.09-25.97-12.89-53.54-22.28-81.09-31.11-19.44-5.53-38.94-11.52-59.15-13.351-3.29-.23-2.739 5.901-6.289 4.931-11.61-2.72-23.081-6.209-34.971-7.579z" fill="#01a1dc"/>
  </g>
</svg>
