<svg height="540" width="960" xmlns="http://www.w3.org/2000/svg">
  <path id="background" d="m0 0h1920v1080h-1920z" fill="#4b493b"/>
  <g id="transform" transform="translate(0,0) scale(1.00)">
    <path id="color1" d="m572.293 43.0879c-3.543-.1571-7.194.9937-9.793 3.4219-4.34 4.73-4.88 13.3305.43 17.5605 4 5.13 11.57 4.4599 16.65 1.4199 3.89-.98 7.22 3.0793 11.19 3.2793-.55-4.16-.981-8.3986-2.321-12.3886-1.73-2.15-4.66-3.2709-5.5-6.1309-1.727-4.5956-6.101-6.9602-10.656-7.1621zm70.668 2.1113c-7.72 3.02-10.522 11.8312-16.272 17.2012 2.38 2.31 5.621 3.6305 7.661 6.3105 2.13 2.52 0 5.8282-.5 8.5782 3.19 3.83 8.859 7.0107 9.189 12.2207 8.26 8.08 18.681 13.3912 27.231 21.1312 4.38 1.49 8.741 4.708 9.781 9.468 4.91-.91 9.549-2.91 14.539-3.49 2.37-.22 4.25-2.919 2.93-5.119-3.83-6.93-8.611-13.3508-13.491-19.5508-9.9-7.47-21.46-12.4194-31.83-19.1894 2.13-4.3 7.431-2.9995 10.301-.1895 5.54 4.91 12.48.0392 18.76.1192-7.56-6.32-16.74-10.359-24.27-16.709-4.31-3.92-8.189-9.2713-14.029-10.7813z" fill="#777a78"/>
    <path id="color2" d="m590.344 47.8203c-2.589-.0787-5.062 1.1472-7.395 2.4297.84 2.86 3.77 3.9809 5.5 6.1309 1.34 3.99 1.771 8.2286 2.321 12.3886-3.97-.2-7.3-4.2593-11.19-3.2793 1.02 2.05 1.91 4.5595 4.6 4.6895 2.74-1.22 5.31 2.0796 8 2.5996 2.17 4.18 4.42 8.9212 8.91 11.0312 3.74 1.01 4.26-3.201 4.57-5.871-2.04-1.92-4.039-3.9301-5.099-6.5801-2.16-4.82-7.021-8.6792-6.711-14.3692-.64-3.22 3.381-4.881 5.961-4.041 3.85 1.16 7.57 2.7314 11.32 4.1914-2.41-6.88-11.34-10.2297-18.16-8.7597-.888-.3625-1.764-.5343-2.627-.5606zm28.461 12.4551c-.391-.0051-.787.0144-1.186.0644 2.5 3.92 5.662 7.4206 7.342 11.8106 2.77 2.02 6.009 3.2787 8.889 5.1387.5-2.75 2.63-6.0582.5-8.5782-2.04-2.68-5.281-4.0005-7.661-6.3105-2.59-.8225-5.148-2.0892-7.884-2.125zm-30.426 262.3286c-1.829.041-3.695.22-5.379.066-4.84-.31-9.45 1.279-14.1 2.269-1.56 4.24-1.149 8.801-1.009 13.221 7.69 4 16.828 1.551 25.148 1.641 4.14-3.46 2.72-9.37 3.15-14.09-1.818-2.863-4.762-3.176-7.81-3.107zm-6.09 3.591c2.643.005 5.277.135 7.842.565 1.45 2.66.679 6.021.549 8.951-5.43.38-10.92.369-16.36.019-.29-3.04-1.309-6.499.071-9.349 2.605-.07 5.256-.191 7.898-.186z" fill="#a1a396"/>
    <path id="color3" d="m598.248 52.7344c-2.361.0523-4.918 1.6396-4.398 4.2558-.31 5.69 4.551 9.5492 6.711 14.3692 1.06 2.65 3.059 4.6601 5.099 6.5801-.31 2.67-.83 6.881-4.57 5.871-4.49-2.11-6.74-6.8512-8.91-11.0312-2.69-.52-5.26-3.8196-8-2.5996-7.71 5.56-20.47 2.55-25.53 11.75 3.72-.63 7.44-2.2494 11.26-1.6094 10.27 3.18 16.341 15.5194 13.141 25.6097 2.54 1.29 4.638-2.721 6.648-.641 4.63-3.46 9.771-6.1595 14.481-9.5195 5.91 5.4405 4.339 18.4015 14.769 18.4415-1.05-4.46-5.948-6.771-6.808-11.191 1.53-6.7905 5.439-13.8005 11.879-17.0005 6.27-2.2 14.619-2.3197 19.019 3.4903-.33-5.21-5.999-8.3907-9.189-12.2207-2.88-1.86-6.119-3.1187-8.889-5.1387-1.68-4.39-4.842-7.8906-7.342-11.8106-2.51-.21-4.658-1.5592-6.488-3.1992-3.75-1.46-7.47-3.0314-11.32-4.1914-.484-.1575-1.018-.2269-1.563-.2148zm16.893 14.2148c2.439-.0617 4.051 2.2604 4.798 4.6817-4.66-.6-8.609 1.6091-12.789 3.1191.68-3.25 3.04-6.1796 6.17-7.3496.651-.2963 1.258-.4369 1.821-.4512zm-80.426 21.2403c-14.162-.2668-28.642 13.4855-24.985 28.0805.59 3.56.451 7.19 1.151 10.74 13.09 3.16 23.508-9.839 36.818-7.369.83-2.81 2.21-5.411 4.41-7.381-5.31-7.01-5.838-16.3308-11.398-23.0608-1.956-.6487-3.973-.9716-5.996-1.0097zm131.555 21.9155c-9.293-.362-18.147 5.278-23.45 12.786-1.04 3.6-2.011 7.229-3.541 10.679.79 3.44 1.252 7.16 3.682 9.92 6.71 4.74 14.498 8.641 22.978 7.721 6.81.21 12.291-4.271 17.061-8.561.43-7.7 1.211-15.691-2.949-22.541-1.04-4.76-5.401-7.978-9.781-9.468-1.337-.309-2.673-.484-4-.536zm-97.541 73.897c-.331.043-.701.235-1.12.629-19.72 14.1-29.899 38.819-30.089 62.609 2.06 6.35-.44 12.889-.84 19.299-.97 12.17-.58 24.431 1.64 36.461 1.2 6.16.86 14.12 6.6 18.1 7.9 1.6 15.99 2.539 23.98 3.839 4.65-.99 9.26-2.579 14.1-2.269 4.49.41 10.279-1.539 13.189 3.041 9.78.66 19.342-1.712 29.032-2.512 12.01-2.77 25.029-3.179 36.129-8.719 6.2-20.09 7.03-41.42 5.48-62.23-12 3.27-21.641-8.011-26.381-17.641-7.92-13.36-8.389-29.289-8.619-44.359-.28.55-.82 1.671-1.1 2.221-.14 2.69.01 5.539-1.25 8.019-3.04 2.09-7.01 2.221-10.5 1.481-.49-2.55.45-5 1.35-7.33.15-.54.44-1.642.59-2.192-6 3.11-12.249 8.301-19.359 7.071-1.64 2.38-5.901 2.48-7.221-.27-6.16 1.53-11.78-3.689-17.24-6.039-1.65 2.59-2.669 5.769-5.049 7.789-3.28-1.05-7.242-1.98-9.262-5 2.34-3.29 5.06-6.679 8.82-8.369-.747-1.195-1.448-3.815-2.88-3.629zm94.97 143.488c-2.35 4.05-7.838 3.24-11.728 4.75-19.38 4.01-39.092 7.911-58.932 7.561-8.32-.09-17.458 2.359-25.148-1.641-8.39.64-16.631-1.649-24.711-3.609-1.93 1.66-3.051 4.03-4.821 5.83-14.66 3.08-27.149 12.538-39.929 20.068-16.18 10.52-33.801 21.351-42.561 39.311-1.81 3.64-3.239 9.77 1.861 11.4 5.12 1.82 10.8 6.129 16.29 3.869 7.21-8.26 17.48-13.729 28.3-15.359 6.35-1.51 12.47.911 18.7 1.551 10.75-1.33 19.141-9.111 29.041-12.811 11.27-3.41 22.82.38 34.15 1.09 2.47-1 5.119-.929 7.709-.449 7.3-.2 14.509-1.491 21.689-2.721 1.07 1.68.63 5.19 3.42 4.83 22.72-.48 43.911 12.88 57.551 30.35 3.39 2.15 4.849 6.54 8.609 8.16 7.41 1.13 14.59-1.38 21.68-3.16 4.57-1.9 9.631-2.97 13.621-6.03 1.26-3.31-1.07-6.481-2.9-9.041-6.49-8.73-12.781-18.22-14.221-29.25-1.47-5.83.631-12.469-2.969-17.709-2.95-3.51-7.18-5.571-11.15-7.701-4.65-2.5-6.15-7.958-8.99-12.058-3.87-6.51-8.901-12.221-14.561-17.231zm-8.056 6.133c2.163-.127 4.128 1.658 5.347 3.397 2.99 4.12 6.249 8.21 8.129 12.99 1.35 2.87-2.578 5.469-4.908 3.779-4.41-3.01-6.61-8.06-9.91-12.09-1.57-2.05-2.822-6.02-.182-7.66.514-.257 1.024-.387 1.524-.416zm1.632 3.225c-.322.039-.666.16-1.025.382-.26 1.44-.789 4.39 1.641 3.53 2.8-.473 1.64-4.184-.616-3.912zm-46.759 8.611c3.214.204 5.203 3.803 6.365 6.752 1.77 4.5 6.16 9.36 3.68 14.34-4.96 2.98-7.45-3.632-9.1-7.102-1.52-4.24-6.361-9.049-3.371-13.539.877-.364 1.684-.498 2.426-.451zm53.929 1.473c-.356.009-.743.104-1.156.308-.16 1.61-.459 4.22 1.731 4.53 2.861-.735 1.917-4.901-.575-4.838zm-54.009.109c-.348-.015-.725.054-1.125.229-.4 1.55-1.16 5.359 1.57 4.419 2.957-.341 1.987-4.541-.445-4.648zm6.818 12.258c-.25-.016-.534.023-.854.131-2.61 1.56-.54 5.58 2.33 4.32.385-1.488.273-4.338-1.476-4.451zm-119.193 96.582c-4.04 1.35-5.142 5.818-6.872 9.228-3.74 8.78-6.578 18.331-5.878 27.981.49 6.57 3.87 12.46 5 18.9.62 3.49-2.821 6.359-1.961 9.879 1.81 7.35 6.309 13.531 12.179 18.131h65.352c.43-4.13-.311-8.451-4.701-9.971-6.89-3.05-14.559-6.168-19.469-11.978 4.79-2.48 10.869-2.462 15.059-6.022-.6-1.73-1.809-3.13-2.969-4.5-2.25-2.18-4.07-4.759-5.5-7.529-2.36-4.6-4.041-9.719-3.571-14.949-.01-2.78-.14-5.58.19-8.34.22-2.65 1.34-5.421.35-8.031-4.37-.8-8.84-.231-13.25-.311-12.38-.04-24.329-4.858-33.959-12.488zm209.154 9.31c-2.519-.054-5.015.538-7.096 2.088-7.13 4.79-15.439 8.151-24.129 8.041-10.88-1.76-22.01-1.289-32.92-.109-.78 1.14-1.82 2.238-1.75 3.728-.63 11.27 2.47 22.491 7.36 32.571 5.24 8.83-1.019 20.54 6.531 28.49h72.828c-.28-5.16-2.618-9.739-4.818-14.279-2.6-5.66-.481-11.811-.561-17.711-.28-7.17 3.64-14.1 1.58-21.27-2.7-7.72-6.951-14.85-12.551-20.82-1.443-.431-2.963-.696-4.474-.729z" fill="#7a8483"/>
    <path id="color4" d="m615.141 66.9492c-.563.0143-1.17.1549-1.821.4512-3.13 1.17-5.49 4.0996-6.17 7.3496 4.18-1.51 8.129-3.7191 12.789-3.1191-.747-2.4213-2.359-4.7434-4.798-4.6817zm-46.659 13.2305c-3.322-.1101-6.577 1.1987-9.832 1.75-6.04 2.33-11.569 5.8195-17.939 7.2695 5.56 6.73 6.088 16.0508 11.398 23.0608 2.79 2.47 4.071 6.261 6.891 8.631 3.56 1.52 4.669-2.482 6.359-4.612 2.32-1.55 5.08-2.239 7.58-3.429 3.01-2.75 6.762-4.66 10.112-6.92 3.2-10.0903-2.871-22.4297-13.141-25.6097-.477-.08-.953-.1249-1.428-.1406zm63.151 4.4453c-2.618.037-5.262.5695-7.613 1.3945-6.44 3.2-10.349 10.21-11.879 17.0005.86 4.42 5.758 6.731 6.808 11.191 1.45 4.71 8.272 4.538 8.602 9.898.58 2.34 1.918 4.33 4.068 5.5 3.54 1.68.33 7.521 4.42 8.461 2.39.87 2.36-3.1 3.24-4.5 1.53-3.45 2.501-7.079 3.541-10.679 6.06-8.58 16.76-14.72 27.45-12.25-8.55-7.74-18.971-13.0512-27.231-21.1312-2.75-3.6313-7.042-4.9464-11.406-4.8848zm6.267 79.346c-1.09.93-2.269 1.769-3.429 2.609-1.81 7.79.819 16.13-2.641 23.67.23 15.07.699 30.999 8.619 44.359 4.74 9.63 14.381 20.911 26.381 17.641 6.64-3.3 12.399-9.139 13.609-16.699 1-8.41-1.369-16.772-3.959-24.682-.98 6.62-.889 14.001-5.009 19.631-2.13 3.09-6.691 2.7-8.871-.1-8.66-9.02-15.721-19.559-21.231-30.769-5.09-10.94-7.939-24.05-3.469-35.66zm-86.65 4.849c-7.62 5.33-11.051 14.59-14.561 22.84-3.22 7.03-5.738 14.64-4.968 22.49 2.71 10.9-.111 23.12 5.799 33.09.19-23.79 10.369-48.509 30.089-62.609 2.23-2.1 3.08 1.53 4 3 1.51 2.15 3.431 3.96 5.491 5.58 5.46 2.35 11.08 7.569 17.24 6.039 0-.61-.01-1.82-.01-2.42-2-1.33-4.681-1.929-6.041-4.029-3.13-6.53-11.08-8.501-14.18-15.151-3.91-.13-5.929 3.909-9.599 4.639-4.76 1.1-6.54 7.042-11.52 7.592-3.06.58-4.959-2.54-5.599-5.07-1.11-5.67 1.559-10.991 3.859-15.991zm71.279 13.039c-8.75-.1-8.539 11.55-16.049 13.58-1.81 1.59-4.729-.739-6.019 1.461 2.81-.63 2.52.97 1.1 2.62 7.11 1.23 13.359-3.961 19.359-7.071.69-3.5 1.019-7.07 1.609-10.59zm-8.92 204.471c-7.18 1.23-14.389 2.521-21.689 2.721 6.28 15.08 14.58 29.379 25.15 41.859 3.87 4.36 9.521 8.279 15.641 6.709 14.64-3.19 28.909-8.569 41.869-16.109-13.64-17.47-34.831-30.83-57.551-30.35-2.79.36-2.35-3.15-3.42-4.83zm-52.916.678c-3.561-.027-7.111.337-10.632 1.402-9.9 3.7-18.291 11.481-29.041 12.811-6.23-.64-12.35-3.061-18.7-1.551-3.1 4.77-6.549 9.391-9.259 14.381.2 4.54 5.779 5.808 8.869 8.148 11.59 6.1 23.409 12.201 36.179 15.381 6.04 1.81 10.171-3.859 14.041-7.439 11.87-12.54 22.761-26.091 32.061-40.641-7.789-.488-15.683-2.433-23.518-2.492z" fill="#c8cbb8"/>
    <path id="color5" d="m656.348 69.9902c-1.677.08-3.217.8883-4.149 2.7696 10.37 6.77 21.93 11.7194 31.83 19.1894 4.88 6.2 9.661 12.6208 13.491 19.5508 1.32 2.2-.56 4.899-2.93 5.119-4.99.58-9.629 2.58-14.539 3.49 4.16 6.85 3.379 14.841 2.949 22.541-.01.54-.019 1.599-.029 2.129 34.36 12.31 68.499 25.24 102.879 37.51 4.16 1.47 8.711 4.401 13.041 1.701 7.49-3.8 16.508-5.911 22.478-11.951-1.51-8.15-5.189-15.699-8.029-23.439-.83-2.98-3.43-4.73-6.01-6.09-38.87-22.2-77.769-44.3598-117.029-65.8498-2.84-1.7-5.811-3.2207-9.041-3.9707-6.28-.08-13.22 4.7908-18.76-.1192-1.614-1.5806-3.997-2.6829-6.152-2.5801z" fill="#c1c1c1"/>
    <path id="color6" d="m604.18 95.7695c-4.71 3.36-9.851 6.0595-14.481 9.5195-2.01-2.08-4.108 1.931-6.648.641-3.35 2.26-7.102 4.17-10.112 6.92-2.88 3.25-.93 10.759-6.5 10.099 1.47 3.2 1.101 7.661 4.731 9.391 9.78-17.38 35.5-20.529 51.17-9.619 1.51.82 3.751 3.878 5.211 1.388-.33-5.36-7.152-5.188-8.602-9.898-10.43-.04-8.859-13.001-14.769-18.4415zm-60.153 23.5585c-11.615.138-21.283 10.546-33.146 7.682-2.45 16.15 8.4 30.101 7.26 46.051 1.88 14.29 5.74 28.859 13.58 41.089-.77-7.85 1.748-15.46 4.968-22.49 3.51-8.25 6.941-17.51 14.561-22.84 5.24-5.63 11.761-10.41 15.301-17.39-3.33-1.85-5.22-4.74-3.67-8.51 1.75-5.1-6.841-4.09-6.361-8.67.37-2.76 1.511-5.389 1.541-8.199-1.96-3.85-6.392-5.51-10.362-6.41-1.248-.232-2.47-.327-3.672-.313zm138.973 23.322c-4.77 4.29-10.251 8.771-17.061 8.561-8.48.92-16.268-2.981-22.978-7.721-4.34 6-5.951 13.161-5.061 20.481-4.47 11.61-1.621 24.72 3.469 35.66 5.51 11.21 12.571 21.749 21.231 30.769 2.18 2.8 6.741 3.19 8.871.1 4.12-5.63 4.029-13.011 5.009-19.631 1.33-13.73 5.289-27.079 6.209-40.849.23-8.41.122-16.831.282-25.241.01-.53.019-1.589.029-2.129zm-110.35 4.741c-2.22 1.72-1.949 4.58-2.089 7.08 1.05 1.09 2.109 2.199 3.199 3.279-.5-3.44-.92-6.889-1.11-10.359zm28.723 49.373c-.258.013-.561.058-.912.136-2.05.15-4.101.09-6.131-.07 0 .6.01 1.81.01 2.42 1.32 2.75 5.581 2.65 7.221.27 1.242-1.444 1.62-2.85-.188-2.756z" fill="#343531"/>
    <path id="color7" d="m601.842 116.387c-12.221-.213-24.56 5.09-30.672 15.953-1.18 6.52-.059 13.61-4.619 19.09-3.54 6.98-10.061 11.76-15.301 17.39-2.3 5-4.969 10.321-3.859 15.991.64 2.53 2.539 5.65 5.599 5.07 4.98-.55 6.76-6.492 11.52-7.592 3.67-.73 5.689-4.769 9.599-4.639-5.89-5.97-6.638-15.839-3.548-23.179.14-2.5-.131-5.36 2.089-7.08 3.18-3.72 4.02-9.742 9.25-11.352 12.05-5.28 26.879-5.808 38.719.342 8.03 3.65 6.021 13.8 6.531 20.92 4.22-.91 2.879 4.668 2.459 7.228-2.71 5.65-3.79 11.96-7.08 17.33-.59 3.52-.919 7.09-1.609 10.59-.15.55-.44 1.652-.59 2.192 3.45 3.24 7.83.91 10.4-2.17.28-.55.82-1.671 1.1-2.221 3.46-7.54.831-15.88 2.641-23.67-3.53-11.61-5.132-25.061-2.852-36.971-2.15-1.17-3.488-3.16-4.068-5.5-1.46 2.49-3.701-.568-5.211-1.388-5.876-4.092-13.166-6.206-20.498-6.334z" fill="#736e46"/>
    <path id="color8" d="m601.338 131.924c-6.694.024-13.413 1.475-19.438 4.115-5.23 1.61-6.07 7.632-9.25 11.352.19 3.47.61 6.919 1.11 10.359-1.09-1.08-2.149-2.189-3.199-3.279-3.09 7.34-2.342 17.209 3.548 23.179 3.1 6.65 11.05 8.621 14.18 15.151 1.36 2.1 4.041 2.699 6.041 4.029 2.03.16 4.081.22 6.131.07 1.29-2.2 4.209.129 6.019-1.461 7.51-2.03 7.299-13.68 16.049-13.58 3.29-5.37 4.37-11.68 7.08-17.33.42-2.56 1.761-8.138-2.459-7.228-.51-7.12 1.499-17.27-6.531-20.92-5.92-3.075-12.587-4.481-19.281-4.457z" fill="#edd7be"/>
    <path id="color9" d="m588.994 388.717c-1.626-.05-3.239.158-4.783.783-9.3 14.55-20.191 28.101-32.061 40.641-3.87 3.58-8.001 9.249-14.041 7.439-12.77-3.18-24.589-9.281-36.179-15.381-1.01 5.19-2.74 10.171-4.45 15.141.02 6.16 2.741 12.451.581 18.541 9.63 7.63 21.579 12.448 33.959 12.488 4.41.08 8.88-.489 13.25.311.99 2.61-.13 5.381-.35 8.031 3.42-1.49 6.63 1.339 10.06 1.219 6.78-.22 12.799-4.15 19.709-3.41 2.31-2.54.381-6.83 1.991-9.87 5.23-10.52 9.399-22.52 19.439-29.56 3.37-2.17 5.961-5.81 9.781-7.11 5.33 2.79 6.731 9.32 10.571 13.59 8.03 11.94 20.889 20.151 26.599 33.641 10.91-1.18 22.04-1.651 32.92.109 8.69.11 16.999-3.251 24.129-8.041 3.33-2.48 7.72-2.509 11.57-1.359-2.1-13.16-3.83-26.43-6.82-39.41-7.09 1.78-14.27 4.29-21.68 3.16-3.76-1.62-5.219-6.01-8.609-8.16-12.96 7.54-27.229 12.919-41.869 16.109-6.12 1.57-11.771-2.349-15.641-6.709-10.57-12.48-18.87-26.779-25.15-41.859-.971-.18-1.95-.304-2.926-.334zm-30.435 95.56c-4.543.064-9.239 1.786-13.829.774-.47 5.23 1.211 10.349 3.571 14.949 3.52-2.74 8.66-2.02 12.08-4.48.46-3.52 5.088-7.37 2.658-10.59-1.47-.51-2.966-.674-4.48-.653zm3.152 21.024c-2.77.14-5.3 1.448-7.91 2.228 1.16 1.37 2.369 2.77 2.969 4.5-4.19 3.56-10.269 3.542-15.059 6.022 4.91 5.81 12.579 8.928 19.469 11.978-.44-4.28-2.23-8.84-.03-12.92 1.38-3.63 4.111-8.578.561-11.808z" fill="#5a6047"/>
  </g>
</svg>
