<svg height="720" width="1280" xmlns="http://www.w3.org/2000/svg">
  <path id="background" d="m0 0h1920v1080h-1920z" fill="#a0a0a0"/>
  <g id="transform" transform="translate(0,0) scale(1.00)">
    <path id="color1" d="m312.4 118.4c-2.8.7-5.3 2.3-8.3 2.6 2.4 3.2 9.9 2.5 8.3-2.6zm-62.4 18.9c-1.3.1-2.6.5-3.7.5-.2 3.6 4.6 3.3 6.3 1.2-.4-1.5-1.4-1.8-2.6-1.7zm259.8 7.8c-3.7 1.4-5.3 5.3-4.7 9.1 2.5-2.4 4.8-5.5 4.7-9.1zm41.2 17c-.8 0-1.7.2-2.5.4-.5 21.8-3 43.5-2.2 65.2 1.1.1 2.2 0 3.2 0 1.8-5 .6-10.5 1.2-15.7.1-16.6 2.1-33.5 1.2-49.9-.3 0-.6 0-.9 0zm-57.4 135.4c-1.3 0-2.6.2-3.8.3-.1 1.3-.5 2.8.6 3.8.5 0 1.5-.1 2-.1.4-1.3.9-2.6 1.2-4zm-7 8.9c-.9.2-1.8.3-2.7.5-.3 1.2-.4 2.5-.4 3.7.9 0 1.9-.1 2.8-.2.2-1.3.3-2.7.3-4zm2.2 12.8c-1.1 0-2.2.1-3.3.3.1 1.2.2 2.4.3 3.7.4.1 1.2.2 1.7.3.7-1.3 1.2-2.8 1.3-4.3zm-6.1 9c-1.1 0-2.1.1-3.2.2 0 1.1 0 2.2.1 3.3l2.7-.3c.1-1.1.3-2.1.4-3.2zm1.9 13.1c-1.1 0-2.1.1-3.2.1-.1 1.4-.1 2.8.1 4.2.4-.1 1.3-.2 1.8-.3.7-1.2 1.1-2.6 1.3-4zm-7.6 8.1c-2 .5-1.5 2.6-1.5 4.2.5-.1 1.6-.1 2.1-.1 1.2-1.1 1.5-3.9-.6-4.1zm2.1 12.8c-2.5-.2-3.6 3.5-1.1 4.6 2.2-.3 1.5-3 1.6-4.5-.2 0-.3-.1-.5-.1zm-5.2 8c-3-.3-3.3 5.8.3 4 .2-1.3.3-2.5.4-3.8-.2-.1-.5-.1-.7-.2zm-1.5 15.2c.1 1.5-.4 3.2.9 4.2 2.1.1 2-2.7 2.3-4.2zm-3.4 6.9c-.3.3-1 .9-1.3 1.3-.1 1-.1 2-.2 3 2.3.8 3.5-1.1 3-3.1-.4-.3-1.1-.9-1.5-1.2zm1.7 13.1c-.6 0-1.7.1-2.3.1-.2 1.4-.3 2.8-.1 4.2.5 0 1.7-.1 2.2-.1.2-1.5.3-2.8.2-4.2z" fill="#06e2c6"/>
    <path id="color2" d="m375.3 76.01c-2.3.04-4.6.72-5.9 2.75-.7 9.07 0 18.06-.3 27.14 1.5 0 3.2-.6 4.6 0-.1 1.7-.8 3.4-.2 5.1 1.3-.2 2.6-.4 4-.5-3.6 3-8.4 5.4-11.7-.5l-5 5.8c.3 11.3 8 4.2 13.3 5.1 5.4.1 5.2-6.9 8.4-9.8 7.3-6-.1-15.05 1.9-22.64.2-4.41-.4-9.97-5-11.99-1.3-.28-2.7-.49-4.1-.46zm-74.6 2.25c-2.4 11.91-9.3 22.64-10.5 34.64.4.1 1.3.3 1.8.4 2.8-1.1 5-3.3 7.9-4.4 1.1-.6 2.4-1 3.6-1.4 1.5-9.48-1.1-19-1-28.49zm20.4 1.85c-.3.23-.9.68-1.2.91-.2 6.47-3.3 12.53-2.6 19.08-1.4.2-2.9.3-4.3.4-2.4 1.9-4.3 4.3-4 7.6-.5-1.1-1.1-2-1.8-3-.9 1.7-.6 3.7-1 5.5.2-3.3-3.8-3.2-5.2-1.1-1.8 1.7-3.5 3.4-5 5.4 1.9-.3 3.8-.6 5.8-.9-3.6 1.3-7.2 2.7-10.7 4.3 0 1.4-.1 2.8-.1 4.3 7.5-1.6 14.5-5.2 21.5-8.1 2.6-2.5 6.3-1.7 9.5-1.6-1.4 2.3-4.1 2.7-6.6 3.3l-.8.2c-.4 3.5-2 6.8-5.6 7.9-5.9-1.9-14.4-2.4-18 3.9-2.7 2.5-1.6 6.4-1.8 9.8-.2-3.3-2.4-5.8-3.3-8.9-1.9.1-3.9-.5-5.6.3-1 2.9-.7 5.9-1.1 8.8-1 .1-2.1.2-3.2.3-.5-2.2.1-4.7-1.5-6.4-9.2 11.7-1 27.3-3 39.9-1.4-3.4-4-6.4-4.2-10.2-.7-.6-1.5-1.2-2.4-1.7-.2-2.9-.3-5.9-.7-8.8-2.1-1.2-2.7 1.6-3.9 2.6-1.7-1.6-1.3-5-3.5-5.9-.2.7-.6 2-.8 2.7-.9-2.5-.7-5.5-2.1-7.6-5.1-.5-8.6 4.2-13.7 4.4.2 7.7 4.5 14.4 9 20.4 10.9 13.4 25.5 23.1 37.1 35.8 4 4.4 7.6 10.1 13.8 11.7 3.2-.7 6.5-.5 9.7-.8 5.9-1.1 9.8-6 13.6-10.3 6-6.9 12-14 17.4-21.5 7.4-10 16.5-20.2 17.5-33.3.2-9 2.7-18.8-3.4-26.5-5.1 8.2-8.9 17.8-9.9 27.5-.6-3.5-1.7-6.9-1.4-10.4-3.6 1.2-4.4 7.3-5.4 11.1-.7 0-2 .1-2.7.1-.4 1.4.5 3.9-1.6 4.3 0-1.5-.1-3-.1-4.5-2.8 2.9-5.5 8-8.3 11.7 3.6-8.8 2.5-18.6 2.2-27.9-2.4 1.2-1.4 5.1-4 6.1.1-1.8.1-3.6.1-5.4-2.2 1.6-1.7 4.8-3.9 6.4 1.5-12.5 9.5-23.5 8.3-36.4-.7.1-2 .2-2.7.3-.3-8.75-2.7-17.21-4.4-25.79zm57.3.16c1.9.05 3.6 1.17 4.5 2.96-6.4 1.58.3 7.16-.4 10.82-.8-4.49-4.6-7.56-5.4-12.06-3 .38-3.6 4.04-5.2 6.17.6-2.72 1.8-5.25 4-7.24.8-.47 1.7-.67 2.5-.65zm-6.5 8.12c2.7.03 4.6 1.71 6 3.7-1.3 1.75-3.3 2.68-4.9 4.04l.3 3.63c1.9.54 3.6-.15 5-1.34.9.14 1.9.33 2.8.58-.5.21-1.6.62-2.1.83.2.67.4 1.97.6 2.67-3.5.8-6.3-1.4-7.8-4.28-.4-3.18-.5-6.64.1-9.83zm.1 2.61c.1.74.2 2.24.3 2.98 1.1-.06 2.3-.16 3.4-.28.1-.64.2-1.93.3-2.58-1.4-.02-2.7-.12-4-.12zm-55.8.18c-2.7 1.9-2.7 5.74-4.6 8.3 1.2.72 2.6.29 4 .29.4-2.84.9-5.7.6-8.59zm3.6 25.92c-1.2 3.1-1.8 6.9-4.8 8.7-6.7 3.9-14.7 2.3-21.9 4.1 6.6-3.5 15.7-1.8 21.6-7.2 2.1-1.6 2.7-4.6 5.1-5.6zm-73.8 11.7c-2.6.4-1.6 4.3-1.2 6.2l1.6-1.6c.2-1.5.6-3.3-.4-4.6zm3.8.8c-.5 1.4-.7 2.9 0 4.3.4-.4 1.3-1 1.8-1.4.2-1.3-.8-2.2-1.8-2.9zm114.8 5.5c-4 16-9 31.9-10.9 48.2-7.8 5.9-8.2 16.3-13.3 24.1-6.8 3.4-14.1 5.4-21.1 8.2-1.2 10.4-2.9 20.9-4.6 31.3-4.6 6.9-10.1 13.4-13.7 21 3.6-3 6.2-6.9 9-10.5 4.7-7 10.1-13.5 16.2-19.3 9.4-13.4 18.6-27.5 32.9-36.3-8 5.2-13.4 13-17.2 21.5.1.4.2 1 .4 1.4 2.4-1.8 4.6-3.8 7.1-5.6 9.1-7.6 18.4-15 26.1-24.1-.1-2.2-3.1-.8-4.5-1.2-6.9.6-13.4-1-20-2.7 1.6-4.7 8.1-7.9 13-7.7 4.1 2 7.4 5.4 11.5 7.5 3.6-9.7-3.3-21.5 1.7-30.9 1-6.5 1.3-14.9-2.6-20.3-1 2.9-1.8 5.9-2.7 8.8-.5-4.4.1-9-1.1-13.3-2.1-.1-4.2-.1-6.2-.1zm-122.6 3c-1 0-2 .2-3 .7.1 1.2.3 2.4.5 3.6 3.1 1.2 9.4 3.1 10.6-.9-2.6-.6-5.2-1.3-7-3.3-.4-.1-.7-.1-1.1-.1zm147.5 6c-.3 0-.5 0-.8.1 4.2 2.7 2.5 8.1-2 9.1 2.6-.1 5.2.1 7.8.2.1-.5.2-1.4.2-1.9-.6-2.9-1.4-7.8-5.2-7.5zm-160.2 20.4c-1.9 3.5-4.1 6.9-5.5 10.7-.4-2.7 0-5.5-1-8.1-10.4.4-17.9 9.7-26.9 13.7-7.6.9-15.1-1.6-22.5-2.9-3.4.8-7 1.3-9.6 3.6 9.6.8 19.3 1.6 28.9 1.1 6.6-2 12.9-5.1 19.3-7.3 4.3 2.2 8.3 5.5 12 8.7 5.2 6.1 12.1 10.8 19.8 13.1 6.9 1.4 13.5 3.9 19.8 7-3.3 3.1-7.2 5.9-9.6 9.9 5.7 4.3 11.7 8.3 17.5 12.6 6.2 5.4 16.1 4.7 21.3 11.3.6 1.6 1.6 2.8 3.1 3.5.9-10.6-4.7-20.1-5.6-30.5-2.7-8.9-13.1-10.2-18.2-17-11.8-7.3-28.2-3.5-38.5-13.4 3.1.2 6.2.3 9.3 0 .4-2.8-3.4-2.6-5.3-3.2-3.2-4-4.8-9.1-8.3-12.8zm93.7 7.4c-3.3 5.2-9.2 8.2-14 12-6 5.1-14.4 7.9-22.1 5.9-2.9-.3-6.4-.2-7.8-3.2 5.3.1 11.2 1.6 16.1-1.3 4.6-2.4 9.6-4.2 14.8-5 5.2-1.4 8.4-6 13-8.4zm-13.3 9.4c-5.8 2.4-14.1 3.1-17.7 8.1 6.2-1.1 15-1.8 17.7-8.1zm-1.6 10.5c-4.2 6.8-14.1 7.7-19.3 1.8 6.4.4 13.4 1.5 19.3-1.8zm-9.2 24.4c-.3 0-.7 0-1.1 0-1.3 2.4-2.4 5.5-1.3 8.2 6.6.3 12.6 2.6 18.4 5.6.6-5.7-5.9-7.3-8.9-11-1.7-2.4-4.4-2.8-7.1-2.8zm-1.1 9.7c-.9 0-1.9.1-2.8.2 2.2 11.6 6.9 22.7 7.9 34.6 4.7-3.2 6.9-9 10.6-13.2 1.1-5.1 2-10.4 2.2-15.6-5.3-3.9-11.4-6.1-17.9-6zm64 10.2c-6.2 2-11.7 5.7-17.2 8.9-4.9 3.4-9.1 7.6-13.1 11.9 7.7.2 15.2-2.5 22.4-4.9 3-5 6.4-10.2 7.9-15.9zm3.6 6.8c-1.9 2-4 3.8-5.6 6 1.5 0 3 0 4.5-.3.2-.4.7-1.3 1-1.7 0-1.3 0-2.7.1-4zm13.6 3.6c-4.4.1-8.9 1.6-13.2 2.9-3.5 1-7.2 1.8-10.2 3.9l-.1.1h-.2c-10.3.3-19.4 6.9-29.6 7-5.8.2-8.6 5.8-10 10.6-.4 2.9-.3 5.8 0 8.6 5.7-3.8 12.8-5.6 19.5-3.4 13.1 2.6 26.2-2.6 37.7-8.2 9.7 4.3 20 9.3 30.8 8.5.9-6.2 2.8-12.9.6-18.9-4.7-3.4-10-6-15.3-8.3-3.1-2.1-6.5-2.9-10-2.8zm-65.7 26.5c-.6.5-1.8 1.4-2.4 1.8-.6.5-1.2 1.1-1.8 1.6 1.5 3.5 4.3.8 5.3-1.5-.3-.5-.8-1.4-1.1-1.9zm8.6 6.1c-1.4 0-2.9.1-4.3.4-4.3 3.4-5.8 8.9-9 13.1-2.9 4 1.7 7.9 4.4 10.4 3.2-2 6.3-5.6 10.4-4.2 5.6 3.5 12.7 1.7 17.7 6.3 7.9 1.3 16.5 1.7 23.9-1.4 9.8 2.4 17.6 11 28.1 11.6 3.9-.7 7.9-.2 11.9-.5-1.6-6-5.8-11.7-4.2-18.2-1.1-1.8-3.1-3.2-5.4-3.1-7.2-1.3-14.4-2.4-21.6-3.3-7.7-1.5-15.5-2.3-23-4.4-10.1-.2-19.1-6.6-28.9-6.7zm-20.8 2.3c-13 7.3-21.7 20.3-28.2 33.3-8.1 15-6.9 32.5-6.8 49-.1 7.4 2.2 14.8 6.9 20.6 7 .9 13.5 5 20.7 4.2 1.1-4.4-3.6-6.5-5.1-10-5.5-9.9-10.6-20-13.9-30.8-1.3-13.6 3.1-26.9 9.4-38.8 4.4-9.8 11-19.6 21.3-24 1.7-.8 5.3-.1 5-2.8-3.1-.5-6.2-.3-9.3-.7zm4.1 6.2c-1.3.1-2.9 1.1-4.1 1.6-7.2 3.3-11.6 10.3-15 17.2-3.2 7-7.1 13.8-8.7 21.4-.3 5.1-.3 10.3-.1 15.4 5.6 3.1 12.5 4.8 18.6 5-.3-8.4.3-16.8-.2-25.1 1.2-12.1 4.9-24.1 11.5-34.3-.5-1-1.2-1.3-2-1.2zm28.4 14.6c.1.7.3 1.3.6 1.9-.2-.2-.4-.5-.7-.8-4.5-1-8.6.4-11.1 4.3-.6 4.3-1.2 12 4.7 12.2 1.8-5.2 9.8-8.7 8.1-13.8.5.9 1 1.9 1.2 2.9-3.6 4.6-11.1 9.3-7.5 16.1 6.5 9.2 11.9 19 14.9 30 8.1 10.1 17.9 19.1 25 30.2 3.4 4.7 6.3 10.3 12.3 12 1.8-2.9 4.3-5.1 6.9-7.1-2.1 2.4-5.7 4.1-6 7.5 13.3 1.4 26.8 2.9 39.1 9 1.4.5 2.6 1.4 3.8 2.3-.3.4-1.1 1.1-1.5 1.4h-1.8c-1.1-1-2.1-2-3.1-3.2-10.1-6.9-23.1-6.9-34.9-8.1-7.8-2.5-14.2-8.4-18.1-15.5-6.6-11.9-16.6-21.3-25.8-31.1-3.1-7.6-4-16.2-8.8-23.1-2.3-3-3.4-8-7.8-8.2.5 2 1 4.2 2.3 5.9-2.3 3.2-5.6 5.7-7.2 9.3-1.8 9.7 5.3 18.1 4.1 27.8-1.4 8 6.5 12.4 10.1 18.5 8.4 9.6 13.1 21.7 19.4 32.6 1.6 2.7 4.7 3.6 7 5.5 16.2-1 31.7 4.6 47.6 7.2 3.5 2.4 8.4 2.8 12.3 1 5.6-3.2 3.7-11.1 7.9-15.3 5.5-2.5 11.9-1.5 17.7-2.5 7.1-2.6 5.7-10.8 5.4-16.8-6.6.3-13.9.8-19.4-3.7-6.7-2.6-13.7-4.6-20.9-5.5-13.4-8.8-22.5-22.7-35.8-31.8-7.6-4.6-5.5-15.4-11.8-21.1-2.5-3.5-5.2-6.7-7.7-10.2-3.4-9-11.7-16.3-20.5-19.8zm33.3 2.9c-.2.3-.7.9-.9 1.2-4.7-1.1-10 .4-12 5.2-2.9 5.5 1.5 10.9 5.8 14h3.3l-2 2.4c4 7.5 9.2 14.6 12.2 22.8 4.2 6 11.1 9.6 15.9 15.1 5.4 6.4 12 11.4 18 17.2 8.5 4.4 17.1-5.9 15.2-14.1-2.3-8.6-6.8-16.9-13.7-22.6-5.6-4.8-10.2-10.8-17.1-13.9-5.9-10.5-13-22.7-24.7-27.3zm-49.7 2.9c-10.4-.5-15.5 13.5-12.7 22.6 4-6.8 11.9-7.8 18.5-10.6-.8-3.9-3.6-7-2.4-11.4-1.2-.4-2.3-.6-3.4-.6zm68 10c-.1 1.3-.2 2.9.9 3.9 4.3 4.1 6.3 10.4 11.7 13.4 2.7 1.4 5 6.7 8.3 3.7 1.2-6.4 2.4-15-2.8-20.1-6 0-12.2-.7-18.1-.9zm-65.4 5c-2.1.1-4.1.6-5.3 2.7-.8 3.9-1 8.5 1.4 12.1l1.4-.2c1.2-5.4 8.8-8.1 6.3-14.2-1.2-.2-2.5-.4-3.8-.4zm-8.9 14.1c-2.1.1-4.2.7-5.5 2.6-.2 1.7-.3 3.4-.3 5.2 3.9-.2 7.6.8 11.5.7.6-2.9-.6-5.7-1.8-8.3-1.2-.1-2.6-.2-3.9-.2zm-13.1 11.7c.2.7.4 1.3.7 1.9-.3-.6-.5-1.3-.7-1.9zm.7 1.9c2.7 8.2 5.8 16.2 11.8 22.5-3.1-7.5-8.9-14.5-11.8-22.5zm19.4-.8c-4.1.2-3.8 5.9-3.3 9.1 4.1-.8 5-5.5 4.2-9-.3 0-.6-.1-.9-.1zm-1.2 8.3c-2.3 7.6 1.7 15.3 1.6 22.9.2 3.1-.3 6.4 1.3 9.1 7.3 8.7 12.4 19 15.1 29.9 1.3 3.7 2.9 8.4 7.1 9.5 3.3-1 4-5.3 7-6.9-1.8 1.9-3.9 3.8-4.7 6.4 4.1 6.1 12.3 2.1 18.3 4.2 6.9.4 13.8 1.3 20.5 3.2 5.3.4 12.8 2.1 15.9-3.6-12.4-.2-22.4-9.3-34.7-10.6-10.9 1.1-20.1-8.4-23.3-18.2-4-12.1-10.9-23-18.4-33.3-2.8-3.7-.6-12-5.7-12.6zm-33.3 6.2v2.9c8.4 1.4 15.9 6.2 24.4 7-6.5-5.6-16-7.6-24.4-9.9zm37.8 28.8c-4.4.9-7.2 5.1-11 7.2-2.6 1-.9 3.6-1 5.6 0 4.5-.1 9.1-.1 13.7 7-2.7 14.2-6.2 19.7-11.4-.3-5.8-4.7-10.3-7.6-15.1zm9.9 24.1c-4.8 0-9.4 2.1-14.3 2.1-4.1.1-8 2-11.1 4.6-1.8 10.9-4.9 21.6-6.5 32.6 18.2 1.4 36.1-4.2 52.9-10.6-17.3 7.3-35.8 11.2-54.2 14.5-2.3.3-4.1 2.3-5 4.3-2.4 11.4-5.1 22.7-7.1 34.2-.6 7.6-10.2 9.7-10.8 17.4-1.5 9.7-8.8 16.7-13.9 24.4 15.4-4.4 31.8-1.3 47.2-6.4 12.1-4.3 24.4-8.7 35.9-14.7-28.7 15.2-60.5 24.2-92.5 29.1-8.2 4.7-10.4 15.2-9.8 23.9-1.3 0-2.6 0-3.9.1-2.9 7.2-.4 15.5-4.1 22.7 11.1 6.7 22.8 12.6 34.6 18.1 12.1 3.7 24.4 6.6 36.3 11 10.6 3.3 21.9 5.4 31.3 11.7.1.6.4 1.7.5 2.2-11.1-2.7-21.1-8.6-31.7-12.7-21.6-8.1-44.2-13.2-66-20.7-5-1.8-10.4-.9-15.6-.8 1.6 1.7 3 3.6 4.9 4.9 9 2.8 18.6 4.8 26.3 10.3 10.7 10.8 22.3 21.1 31.6 33.1-24.9-14.7-47.7-32.6-70-50.9-5.9-2.2-11.5 3.6-15.8 7.1-.8 8.5 3.2 16.6 1.5 25.2 27.6 15.6 58 25.6 86.8 38.6 4.4 1.9 9 5.4 10.2 10.1-11.7.3-18.7-10.2-27.2-16.5-11.7-5.7-24.3-9.6-36.8-12.9 6.1 4 12.1 8.2 18.4 11.9 4.2 2.3 8.6 4.3 12.9 6.6 3.1 1.3 6.2 2.7 9.1 4.5 8.7 5.1 17.9 9.1 27.1 13.3 9.6 3.8 19.3 8.3 29.8 8.1 2.4.4 4-1.7 5.8-2.7 5.7-3.3 12.8-1.8 18.5-5 1.3-1.2 2.5-2.5 2.8-4.3 1.6-7.6 5.1-14.7 9.9-20.7 7.4-8.5 12.2-18.9 15.4-29.6 9.7-15.2 21.9-28.6 32.9-42.8 7.7-9 13.6-19.2 20.5-28.7 6.7-8.7 6.4-20.2 7.4-30.6-2.6-10.3-2.4-21.4-5.9-31.7-7-19.6-18.3-37.2-28.3-55.4-13.6 10.3-28.2 19.1-43.8 26-14.6 7.1-28.4 15.8-43.4 21.9 28.8-14 56.5-30.7 81.7-50.5 5-2.9-1.1-8.2-2.4-11.7-5.2 2.8-10.3 8.6-16.8 6.1-11.5-3.3-23.5-3.6-35.3-4.5-9.2 1.3-16.7-7.6-17.9-16.1-.7-.1-1.4-.1-2.1-.1zm107.2 1.4c-2.7 0-5.7 1.3-8.5 1-4.7-.2-5.8 4.8-7.7 8 4.5 0 8.5-2.3 12.7-3.6 2.4-1.1 6.4-1.4 6.2-4.9-.9-.4-1.7-.5-2.7-.5zm-161.5 53.9-1.6.8c-6.1 4.7-7.1 12.7-11.1 18.9-4.3 6.3-11.2 10.4-15.2 17-2.3 8.7-3.9 17.7-4.5 26.7 2.9-.4 3.9-3.8 5.8-5.6 3.9-6.5 10.6-11.7 11.3-19.6-3.5-.4-6.9-.5-10.2-1.7 6.1-2.5 11.9-7.7 19-6.3 4.3-9.4 5.6-20 6.5-30.2zm-47.4 11.9c-8 .1-16.1 3.5-24.1 4.6 0 .8.1 2.3.1 3.1.7 1.1 1.2 2.5.9 3.9v.9c.8 1.2 1.3 2.6 1 4.1v.8c.6 1.3 1.2 2.7 1 4.2v.9c.9 1.1 1.3 2.7.5 4.1.2.5.6 1.6.9 2.2.1 0 .2.2.3.3h1c.1-.1.3-.1.4-.2 7.5-5 13.1-11.6 17-19.7 0-.1.2-.3.2-.4.6-1.6 1.2-3.2 2.4-4.5v-1.1c.3-.2 1.1-.8 1.4-1 .1-.1.1-.3.2-.4l.1-.3.1-1.4c-1.1-.1-2.3-.2-3.4-.1zm16.5 34.4c-3.2.3-5.4 3-7.8 4.9-3.2 3.7-4.7 8.6-7.8 12.4 3 2.7 5.9 5.6 8.5 8.6 2.6-2.3 2.2-6.7 3.4-9.8-.1-5.7 3.1-10.6 3.7-16.1zm-18.8 27.2c-1 0-1.8.3-2.5 1.2-2 3.6-4.4 7.2-3.5 11.4 1.5 2.3 4.4 3.9 7.2 4.2 1.7-2.9 1.2-6.7 3.2-9.5 1-1.7 3.1-3 2.3-5.2-1.9-.4-4.6-2.1-6.7-2.1zm-6.8 13c-4.7 4.1-5.6 11.3-7.5 17-.7 3.9.1 8-.4 11.9-2.1 2.2-3.9 4.6-6.3 6.5-3.3 2.2-6.4 4.8-10.1 6.3-4.1-1.4-6.2-5.8-7.9-9.5-.5-1.2-.5-2.6-.7-3.8-2.7-.2-5.2 1.1-7 3.1-.4 5.6-.3 11.4 0 17 6.1 4.8 12.1 10.1 15.8 17 1 1.5 1.1 3.9 3.1 4.5.5-7.1-2-14.4.8-21.1 5-4.7 11.7-7 17.3-10.8.5-8.1 5.8-15 6-23.2-.5-3.3 2.4-6.2 1.4-9.6-1.3-1.9-3-3.5-4.5-5.3zm181 49.9c-8.6 12.7-20.8 22.3-30.3 34.2-5.1 8.9-12.7 17.9-10.9 28.8-.8 3.1.3 7.2-2.7 9.4-4 3.2-9 4.8-13.3 7.6 4.9-4.5 9.4-9.6 10.8-16.3 6.9-14 13.1-29.1 25-39.8 7.7-7.4 14.6-15.7 21.4-23.9zm-214.3 21.8c-2.5 5.6-3.7 12.8-1 18.5 1.8 2.4 3.7 4.6 5.5 6.9 6.1 6.9 12.8 13.5 20.8 18.1.1-.5.2-1.6.3-2.1-7.8-8.9-22-13.1-25.5-25.6-4.6-5 3.4-10.5-.1-15.8zm34.4 17.4c-3.9 2.9-7.7 7.3-7.2 12.6 1 0 2-.1 3.1-.2 1.1-4.2 5.4-7.8 4.1-12.4z" fill="#fff"/>
    <path id="color3" d="m299.9 108.9c-2.9 1.1-5.1 3.3-7.9 4.4-2.4.4-3.5 2.7-3.5 5h2.6c3.5-1.6 7.1-3 10.7-4.3-2 .3-3.9.6-5.8.9 1.5-2 3.2-3.7 5-5.4-.3-.2-.9-.5-1.1-.6zm-16 12.8c-2.7-.1-4.6 2.4-5.3 4.6 2.9.9 6.4-1.4 5.8-4.6-.2 0-.4 0-.5 0zm137.7 12.4c-5.1 0-10.2.3-15 .1-4.3 5.6-4.9 14.1-11.9 17.4 0 .5-.1 1.4-.2 1.9-2.6-.1-5.2-.3-7.8-.2-3.8 1.1-6.8 3.9-9.5 6.7-5 9.4 1.9 21.2-1.7 30.9 1.3 1.8 2.5 3.6 3.7 5.4 3.1-.9 6.1-2.2 9.2-2.9.5 2.4 1 4.9 1.5 7.4-2.1-2-4.4-5.4-7.7-3.9-9 3-6.4 15.9-.6 21-.4.1-1.3.4-1.8.5.8.2 2.3.7 3.1 1 3.6-.1 3.7-4.4 5.4-6.8 1.5 4-4.1 9.9 1.6 12 1.3-1.8 1.4-5.2 4-5.5-.7 3-2 5.8-2.3 8.8 2.3 5.3 8.2 13.8 14.2 7.6.1.6.2 2 .3 2.6 1.1-.6 2.1-1.2 3.2-1.8-.1 1.4-.2 2.7-.3 4.1-1.4-.5-2.7-.9-4-1.4-1.5 2.4-3.1 5.4-1.1 8.1 1.5-.7 3.1-1.3 4.7-2 .2 3.4.1 6.7.2 10.1 1.4-.5 2.8-1 4-1.7 1.6-4.9 2.8-10.4 7.4-13.5 3.1 1.3 6.1 6.5 9.4 4.7 2-12.3-5.5-23.3-10.8-33.8-.7-.1-2.1-.2-2.8-.3-3 5-4.3 10.7-6.5 16-3.6-2.8-7.1-5.7-11.1-8 2.7-8.2 6.7-16.1 7.6-24.7.5-9.8 1.4-19.6 2.7-29.4 2.5-5.6 8.4-8.6 13.8-11.1 1.5-3 1.2-6.6 2.1-9.9 6.5-2.6 13.7-1.6 20.5-3-6.6-5.4-15-6.3-23.5-6.4zm126.2 3.9c-3.4 0-6.8.3-10.1.4-8.5 1.4-17.2.1-25.7 1.5-21.9.8-43.9-1-65.6 1.5 1.6 2 4.2 1.9 6.6 2.1-6.5.3-14.3 2.6-15.8 9.9-1 .3-2 .6-2.9.9 2.1-3.7 5-6.8 7.2-10.4-6.2-2.7-14 2.2-16.5 8.2-1.9 6-6.1 11.4-6.1 17.9-.1 11.4-2.5 22.8-.9 34.1l1 .2c1.3-4.8 1.3-9.9 1.5-14.8 5.4-2.1 11.4.9 17.1-.1.3 7.2.2 14.4-1 21.6-1.4 8.9 9.3 11.8 14 17.5 6.4 5.5 11.7 13.5 19.4 16.8 3.7-24 6-48.3 9.4-72.3-1.4-6.7-5.9-12.4-7.1-19.1 4.3 2.8 3.2 9.3 6.7 12.9 6.4 1.4 12.2-3.9 18.7-3.5-1.1 11.4-4 22.6-4.1 34.1-4.9-.6-9.8-.8-14.7-1.6-2.3 4.7-2.5 10.2-2.1 15.2 6.5.6 12.9 1.5 19.4 1.7-3.2 1.6-6.8 3.7-5.8 7.9-1.7 7.3-2.4 14.7-3.3 22.2-6.4 1.4-12.6 3.6-18.7 6.1-8.2-9.6-18.6-16.9-27.1-26.1-1.7-1.7-3.2-4.6-6-3.9-2 3.6-5.5 7-4.9 11.4.7 14.9 2.8 29.7 3.6 44.6 2.6 7.1 1.7 14.6.4 21.8-.4 8.6-8.6 13.3-12.7 20.1-2.1 2-.8 4.9.7 6.8 13.2 31.7 27 63.5 40.7 95.2 2.4 8.6 10.6 13.3 16.9 19-3.5-.1-7-.3-10.3.6 3.9.6 7.9.4 11.9 1.1 6.3 3.4 12 9.2 19.6 9.4 4.6-9.1 5.8-19.8 8.1-29.8-5-4.5-12.5-6.3-15.6-12.6 4.9 3.5 10 6.9 15.4 9.8 6 .7 11.9-2.4 17.1-5.2 2.2-5.7 3.9-11.7 5.6-17.6.9-2.3-1.3-4-2.3-5.7 5-20.7 10.5-41.2 15.7-61.9 1.2-4.5 3-9.1 1.9-13.9-3.3-2-7.3-1.1-10.9-1.4.4-5.7 2.3-11.2 3.7-16.7 7.8-1.6 18-4.9 18.4-14.4-6 4.3-10.7 11.1-18.9 11.4-.9-18.5 6.7-36 8.4-54.1 1.8-2.3 6.4-2.1 6.3-5.8 1.5-20.6 2.1-41.2 2.5-61.8 1.6-5.2.9-11.2-5-13-.4-5.8-1.6-12.5 2.2-17.6-2-.4-4-.6-6-.6zm-38 7.1c.1 3.6-2.2 6.7-4.7 9.1-.6-3.8 1-7.7 4.7-9.1zm9.9 6.1c.1 5.6-2.6 11.2-1.2 16.9-2 6.2-4.3 12.9-3 19.6-3.3 6.7-3 14.1-2.8 21.3.5 7.9-1.3 16.1 1.3 23.7.6 8.7-6.1 15.3-8.2 23.3-.4 4.8 2.2 9.2 3.1 13.8-3.7-7.4-7.9-14.7-13.6-20.9 3.7 1.7 5.5 6.2 9.7 7.4-.5-6.6 6.3-10.8 6.4-17.3.5-12-4.6-23.3-6.7-35 2.2-14.5 4.7-28.9 6-43.5.9-4.3 4.5-8.8 9-9.3zm31.3 10.9h.9c.9 16.4-1.1 33.3-1.2 49.9-.6 5.2.6 10.7-1.2 15.7-1 0-2.1.1-3.2 0-.8-21.7 1.7-43.4 2.2-65.2.8-.2 1.7-.4 2.5-.4zm-164.7 21.1c1.1 0 2.2.1 3.3.2.2 2.2.2 4.4 0 6.5-2.6-1.7-4.8-3.9-6.6-6.5 1.1-.1 2.2-.2 3.3-.2zm38.8 6.7c-1.8.1-3.2.9-3.5 3.3 5.3-1.3 10.3 2.6 7.6 8.1-2.8 1.4-4.5-2.6-7.3-1.7-.1 3.5-1.3 6.9-1.2 10.4 2.2 4.9 4.6 9.8 7.3 14.5.5-.1 1.3-.4 1.8-.5 7.8-9.2 5.3-22.1 5.4-33.2-2.6.7-7-1.1-10.1-.9zm147.5 9.9c-1.8 13.6-1.1 27.5.1 41.1.1 3.8-5.1 3.1-7.3 5 2.3.3 4.7.4 7 .6.4.9 1.1 2.6 1.5 3.4.5-.4 1.4-1.3 1.9-1.7-.1-13.8-1.3-27.5-1.9-41.2-.3-2.3 1-5.6-1.3-7.2zm-414.5 38.1c-2.5-.1-5.2.5-7.1 1.8 4.6.6 9.2.8 13.8.3-1.6-1.4-4.1-2.1-6.7-2.1zm263.4 5.7c-3.2.3-4.4 4.6-5.9 7.2-2.8 4.4.1 9.6-1.3 14.4.2 7.1 3.4 14.4 1.9 21.4-3.5-6.2-2.6-13.7-4.6-20.3-.5-1-1.1-1.9-1.7-2.8-2.4.7-2.5 3.6-3 5.6-.8 7.1-2.4 14.1-3.8 21.1-.5 2.3 0 5.1-2.3 6.4-1.6 6.5 2.6 12.2 4.2 18.2 2.2 2.8 2.9 6.2 4 9.5 5-.5 7.1-6.5 8.7-10.6 6.8-1.1 9.6-8.6 13.9-13.2 4.1-17 .1-34.7-1.6-51.8-1.9.2-3.7.6-5.5.9-.7-1.9-1.1-3.9-1.5-5.9-.6-.1-1.1-.2-1.5-.1zm3.8 8.6c.4.1 1.2.2 1.6.2-.1 5.1.9 10.1 1.6 15.1.3 1.8 1.8 4.8-.5 5.9-2.9-1.5-1.9-4.8-1.9-7.4.5-4.6-1.9-9.1-.8-13.8zm68.3 45.3c-.3 1.4-.8 2.7-1.2 4-.5 0-1.5.1-2 .1-1.1-1-.7-2.5-.6-3.8 1.2-.1 2.5-.3 3.8-.3zm-7 8.9c0 1.3-.1 2.7-.3 4-.9.1-1.9.2-2.8.2 0-1.2.1-2.5.4-3.7.9-.2 1.8-.3 2.7-.5zm2.2 12.8c-.1 1.5-.6 3-1.3 4.3-.5-.1-1.3-.2-1.7-.3-.1-1.3-.2-2.5-.3-3.7 1.1-.2 2.2-.3 3.3-.3zm-6.1 9c-.1 1.1-.3 2.1-.4 3.2l-2.7.3c-.1-1.1-.1-2.2-.1-3.3 1.1-.1 2.1-.2 3.2-.2zm1.9 13.1c-.2 1.4-.6 2.8-1.3 4-.5.1-1.4.2-1.8.3-.2-1.4-.2-2.8-.1-4.2 1.1 0 2.1-.1 3.2-.1zm-7.6 8.1c2.1.2 1.8 3 .6 4.1-.5 0-1.6 0-2.1.1 0-1.6-.5-3.7 1.5-4.2zm2.1 12.8c.2 0 .3.1.5.1-.1 1.5.6 4.2-1.6 4.5-2.5-1.1-1.4-4.8 1.1-4.6zm-5.2 8c.2.1.5.1.7.2-.1 1.3-.2 2.5-.4 3.8-3.6 1.8-3.3-4.3-.3-4zm-1.5 15.2h3.2c-.3 1.5-.2 4.3-2.3 4.2-1.3-1-.8-2.7-.9-4.2zm-3.4 6.9c.4.3 1.1.9 1.5 1.2.5 2-.7 3.9-3 3.1.1-1 .1-2 .2-3 .3-.4 1-1 1.3-1.3zm1.7 13.1c.1 1.4 0 2.7-.2 4.2-.5 0-1.7.1-2.2.1-.2-1.4-.1-2.8.1-4.2.6 0 1.7-.1 2.3-.1zm-49.6 1.2c-.9 0-1.8.3-2.6.5 1 1.2 2 2.2 3.1 3.2h1.8c.4-.3 1.2-1 1.5-1.4-1.2-.9-2.4-1.8-3.8-2.3zm-202.6 6.1c-2 0-4 .4-6.1 1.5-49.2 20.8-98 42.7-148.09 61.1-2.42 1.2-4.8 2.5-7.4 3.3 5.94 1.9 12.2 2.1 18.33 2.9 37.86 5.5 75.46-6.9 110.16-21.2.8-2.3 2.4-4.1 4.7-5.2 15.4-8.7 28.4-20.9 42.6-31.4 1.5-1.3 3.8-2.4 3.9-4.7-5.9-1.7-11.9-6.1-18.1-6.3zm32.7 6.8c-.7 0-1.5.1-2.2.3-6.2 15.2-9.8 31.2-14.4 46.9-.7 2.1-1.3 4.4-3.2 5.6-8.7 6.2-19.2 9.3-29.2 12.7-9.5 1.4-19.1.1-28.7.8l.4-2c-8.9 1.6-18.2.8-26.8 3.6-14.4 4.5-30.4 5-43.8 12.8-25.17 14.4-50.85 28.3-74.33 45.4-.46-.5-.91-1.1-1.36-1.6-1 4.8-1.07 9.8 1 14.4 15.22-4 29.83-11 45.57-13.5 6.04-1.6 13.14-.3 18.28-4.5 17.04-14.1 36.04-26.2 56.64-34.4 13.5-4.6 27.1-8.9 41.1-11.7 4.3-1.9 8.7-3.8 13.3-4.6.6.8 1.2 1.6 1.9 2.5 0-.8-.1-2.3-.1-3.1 9.1-1.3 18.4-5.5 27.5-4.5l-.1 1.4c.6-1.3.9-2.6 1.7-3.7 18.6-8.8 31.8-25.5 42.2-42.7 3-4.8 7.4-9 8.8-14.6-8.1-2.4-16.7-2.6-25.1-3.7-3-.6-6-1.9-9.1-1.8zm-45.8 72.7c-1.1 1.2-.9 3.4.9 3.9.3-1.4-.2-2.8-.9-3.9zm-191.41-17.1c-.64 0-1.29.2-1.9.5 1.23 1.5 3.21 1.2 4.85.7-.83-.8-1.88-1.2-2.95-1.2zm218.41 11.6c-.3.2-1.1.8-1.4 1v1.1c.3-.6 1.1-1.6 1.4-2.1zm-1.4 2.1c-1.2 1.3-1.8 2.9-2.4 4.5 2-.6 3.4-2.5 2.4-4.5zm-24.7 8.2c-.8 1.4-.8 3.5 1 4.1.3-1.5-.2-2.9-1-4.1zm1 4.9c-.8 1.4-.9 3.7 1 4.2.2-1.5-.4-2.9-1-4.2zm1 5.1c-.8 1.3-.8 3 .5 4.1.8-1.4.4-3-.5-4.1zm1.4 6.3.1.3h.2c-.1-.1-.2-.3-.3-.3zm1.7.1c-.1.1-.3.1-.4.2h.2zm-178.74 14.9c-.05.1-.2.3-.2.4.05-.1.2-.3.2-.4zm272.14 96.3c0 .3.1.9.1 1.2 10.6 4.1 20.6 10 31.7 12.7-.1-.5-.4-1.6-.5-2.2-9.4-6.3-20.7-8.4-31.3-11.7zm-98.9 26.4c-.2 0-.5 0-.7.1-1.9.4-1.1 3.5.8 2.9 1.8-.3 1.3-2.8-.1-3zm8.9 10.7c-2.9.2-2.7 3.6-2.2 5.9 3.4.5 3.4-3.7 2.8-5.9-.2 0-.4 0-.6 0zm130.3 41.3c-2 6.2-1.5 15-9.4 17h11.4c-2.5-3.8-2.8-8.3-1.5-12.6-.1-1.5-.4-2.9-.5-4.4zm-259.38 1.4-.17.1-.11.2c.07-.1.18-.2.28-.3zm-3.03 4c-.1.1-.22.2-.29.2.1 0 .22-.1.29-.2zm-.29.2c-1.18.9-2.17 2.1-2.36 3.6 1.82 0 2.64-2 2.36-3.6z" fill="#202020"/>
    <path id="color4" d="m318.3 112.7c-2.1 0-4.2.2-5.8 1.8.8.4 2.2 1.3 2.9 1.7 2.5-.6 5.2-1 6.6-3.3-1.2 0-2.5-.2-3.7-.2zm1.5 4.4c-2.4 1-3 4-5.1 5.6-5.9 5.4-15 3.7-21.6 7.2 7.2-1.8 15.2-.2 21.9-4.1 3-1.8 3.6-5.6 4.8-8.7zm3.2 54.8c-4.6 2.4-7.8 7-13 8.4-5.2.8-10.2 2.6-14.8 5-4.9 2.9-10.8 1.4-16.1 1.3 1.4 3 4.9 2.9 7.8 3.2 7.7 2 16.1-.8 22.1-5.9 4.8-3.8 10.7-6.8 14-12zm-13.3 9.4c-2.7 6.3-11.5 7-17.7 8.1 3.6-5 11.9-5.7 17.7-8.1zm-1.6 10.5c-5.9 3.3-12.9 2.2-19.3 1.8 5.2 5.9 15.1 5 19.3-1.8zm-93 5.1c-5.8 4.2-11.7 8.3-17 13.2-3.9 3.2-9 1.2-13.4.6 2.5 6.4 6.5 12.2 8.7 18.8 1.3 4.3 7.2 4.1 8.7 8.3 2.2 3.2 1.9 7.3 3.4 10.7 7.8 4.6 16.9 7.9 25.8 8.7-7.6-14.5-15.5-29.6-29.3-39.2 2.2-2.7 6.3-2 9.4-2.9-.5-4-6.7-3.2-9.3-5.9 11.3-2.6 20.5 7.5 31.8 5 1.3-1.8 3.2-3.7 3.3-6-8.2-2.3-14.4-8-22.1-11.3zm27.9 12.8c-4.2 1.6-7.2 6-12.1 5.8-8.8-.1-17.6.2-26.3 1.4.9 5.4 8.1 6.9 10.7 11.7 11.1 10.4 22.4 21 29.8 34.5 8.7 0 15.5 6.9 24 8.2.2-4.6 1-9.5-.2-14.1-7-13.8-14.9-27.5-26.6-37.9 2.3-.7 4.7-1.5 6.9-2.4-.2-3.2-3.6-5.6-6.2-7.2zm123.8.2c-6.7.4-10.3 9.7-17.4 9.2-2.5 1.8-4.7 3.8-7.1 5.6-.2-.4-.3-1-.4-1.4-.6 5.3-6 7-9.3 10.3-2 1.7-3.5 4.5-6.4 4.5-6.1 5.8-11.5 12.3-16.2 19.3.2 6-6.2 9.8-7.5 15.5 2.2 1.2 4.4 2.3 6.6 3.5.6-.5 1.2-1.1 1.8-1.6.2-2.3 1.8-3.9 3.4-5.5.4.6.9 1.2 1.4 1.7 1.4-4.8 4.2-10.4 10-10.6 2.2-.6 4.1-2.1 5.8-3.5 4-4.3 8.2-8.5 13.1-11.9 0-.7.2-1.4.5-2 9.1-6.9 19.8-11.7 27.9-19.9-3 6.5-3.9 13.7-7.6 19.8-.1 1.3-.1 2.7-.1 4 .1.6.3 1.9.5 2.5 7.6-2.4 16-5 23.2-.1.2-2.1.3-4.1.5-6.1 2.8 3.1 4.6 10.5 10.1 8.6 4.1-4.3.3-9.9-2.7-13.6-5.1-5.9-7.9-13.8-14-18.8-.8-.3-2.3-.8-3.1-1-2.5.3-4.7 1.7-6.7 3.2-2.5-3.7-3-8.8-6.3-11.7zm-190.1.6c-2 0-4.1.2-6.1.3 3 3.6 9 4.6 13.4 6.6-.3-2.1-.7-4.1-1.3-6.1-2-.6-4-.8-6-.8zm-13.8 1.2c-.6 0-1.3 0-1.9.1-7 4.8-14 9.6-20.9 14.5-.2.5-.4 1.5-.5 2 16.9-1 36.5-4.1 50.8 7.4 5.3 3.3 7.1 10.4 13 12.7-2.1-9.4-10.1-16.5-15.5-24.3-6.4-6.7-15.5-12.4-25-12.4zm-3.3 16.7c-12.7.1-25.6 7.2-33.6 16.7.1 4.6-2.8 8.6-2.2 13.2 5.2-1.3 8.8-6.9 13.9-9.3.6 5.8-3 10.6-5.3 15.5-6.7 13.6-12.2 27.8-15.7 42.5-.1 3.9.9 7.7 1 11.5 3.3-1.6 2.7-7.5 6.8-8.3 5.3 12.7 4.6 27.4 12 39.2 3.1 3.1 4.5 7.4 7.8 10.3 7 1.6 13.1 5.8 19.9 8.2 9 3.2 16.3 9.7 24.4 14.6 1.6 1.2 3.8.9 5.7.8.1-2.5-.5-4.8-1-7.1 3.5 1.2 1.3 8.9 6.9 7.1-2.8-5.1-2.2-11.2-1.5-16.8 1.3-3.1 4.7-4.7 5.8-8 .5 0 1.3-.1 1.7-.1.3 4 5.1 4.4 6.9 7.5 3.9 4.7 2.6 11.1.9 16.4-1.2 3.3 3.3 3.3 5.4 2.9-2.6-5.2-3.3-11.9-.1-17 2.2-2 5.2-3 7.7-4.7 5.4 2.3 9.5 6.3 11 12.1 2.7-3.4 5.8-6.4 9.7-8.3 2.2 2.3 5.3 3.3 7.8 5.2 2.8 3.4 3.6 8 3 12.3-.3 2.9-3.8 4.3-3.9 7.2 5.2 2.5 11.1 2.5 16.7 2.1-.5-4.6-2.1-9.1-3.9-13.3-6.3-18.2-10-39.2-.5-57 1.9-2.8 1.7-9 6-9.1 6.5-13 15.2-26 28.2-33.3 1.7-2.3 4.7-2 7.2-2.3-1.5-2.4-4.8-2.5-7.3-2.3-7.1.8-14-1.8-21-1.2-11.4.8-22.8-3.6-31.1-11.4-14 .2-27.6 4.6-41.8 3.7-20.3 6.3-37.3 19.9-56.6 28.4-5.2.8-10.6.8-15.9 0-.9-2.1 1.1-3.9 2.4-5.3 5.7-5.7 11-11.9 18.1-15.7-2.3 3.2-7.1 5.5-6.4 10.1 2-.2 3.6-1.4 5.1-2.5 8.6-6.7 19.2-11.8 30.2-11.7 5.9-.3 14.9 1.6 18.3-4.2-5.6-2.2-11.6-3.2-17.5-3.9-7.4-1.7-15.7-2.8-22.7.9-6.5 2.5-12.6 6.1-19 8.8 5.2-4.2 12.9-5.4 17.4-10.1-5.5-.5-10.6 1.9-15.4 4.2 4.3-3.8 8.7-7.8 14.4-9.2 8.9-2.1 17.3 2.4 25.7 4.3 7.2.9 14.1 3 21 4.9 7.4 1.4 14.8-.9 22.1-.8 0-.5-.1-1.5-.1-2-8.2-5.9-16.3-12.6-26.3-15.2-7.6-3.6-16.4-1.4-24.2-4.8-3.6-1.9-7.8-2.3-11.6-3.7 6.4 0 12.8 1.8 19.3.7-2.4-4.4-7.2-6.7-11.3-9.3-4.6-2.4-9.5-3.4-14.5-3.4zm113.3 3.4c-.3 0-.6 0-.9 0-.1 1.2-.2 2.4-.2 3.7-1.3-.7-2.6-1.3-3.8-1.9-.5 11.9 2 23.7 3.8 35.4.4 5 6.1 5.9 10.1 6.2 3.2-3.3 6.6-6.1 10.6-8.2 2-8.3 4.4-16.9 3.4-25.6-1.5-.7-2.5-1.9-3.1-3.5.1 2.3.1 4.6.1 6.8-.8-1-1.7-2-2.6-3-.7 1.1-1.4 2.1-2.1 3.1-.9-2.9-.2-7.2-3.7-8.4-3.7-1.7-7.4-4.5-11.6-4.6zm-114.8 6.1c2.6 0 5.1.7 6.7 2.1-4.6.5-9.2.3-13.8-.3 1.9-1.3 4.6-1.9 7.1-1.8zm267.2 14.3c-1.1 4.7 1.3 9.2.8 13.8 0 2.6-1 5.9 1.9 7.4 2.3-1.1.8-4.1.5-5.9-.7-5-1.7-10-1.6-15.1-.4 0-1.2-.1-1.6-.2zm-69.7 1.1c-.1 0-.2.1-.3.1h.2zm56.1 10.4c-.1.6-.1 1.9-.1 2.6 2 6.6 1.1 14.1 4.6 20.3 1.5-7-1.7-14.3-1.9-21.4-.6-.4-2-1.1-2.6-1.5zm-119.9 6.9c-2.7 0-4.9 1.1-4 4.5 5.2.4 10.3 1.9 15.6 1-.7-2.9-4.8-3.3-7.1-4.5-1.2-.6-3-1-4.5-1zm82.7 1.1c-3.8-.1-7.9 3.9-11.8 4.6-4.3 1.4-11.2 2.3-11.9 7.7.8.1 2.3.2 3.1.3-1 .5-2.1 1-3.1 1.5 7.5 2.1 15.3 2.9 23 4.4 2.3.4 4.7-.3 4.8-3 .5-4.4 4.6-10.5-.3-13.7-1.2-1.2-2.5-1.7-3.8-1.8zm7.4 7.6c-2.4 2.2-2.4 6.5-2.2 9.7 1.9 1.9 5.3 2.2 7.7 1.4 1.7-4.2-.5-10.8-5.5-11.1zm187.1 34.2c-5.9 4.2-2.9 12.8 3.3 15-1.2-5-.8-10.5-3.3-15zm-5.7 19.2c-3-.2-2.4 4.4-3.1 6.6-5.8 20.8-12.2 41.4-17.8 62.2-1.1 3.8-2.9 7.6-2.7 11.7 6.2-.2 12-3.5 18.2-3.1 8.3-9.4 15.1-21.1 14.5-34.1-2.3-14.5-7.1-28.6-8.4-43.2-.2-.1-.5-.1-.7-.1zm-358.4 29.8c-.3 0-.6.1-.9.1-9.6 4.6-4.8 23.6 6.9 19.6 7-6 3.6-19.8-6-19.7zm22.8 3.5c-.5 0-.9 0-1.4.1-10.1-.1-9.3 13.3-3.7 18.4 4.1 3.7 11.9 1.3 13-4.2 2.3-5.7-1.2-14.3-7.9-14.3zm19.9 4.4c-1.6.1-3.1.3-4.5.4-8.7 6.6-1.2 23.7 9.7 20.2 6.3-3.9 6-13.2 1.7-18.5-1.9-1.7-4.4-2.1-6.9-2.1zm-9.5 9.2c-1.6 2.6-4.8 5.2-5.3 8.3 2.4.9 5 1.6 7.6 1.4-1-3.2-2.1-6.4-2.3-9.7zm-67.4.1c0 .6.1 1.6.2 2.1 11.9 10.5 28.2 12.4 43.2 15.1 22.1 5.1 44.7 7 67.2 8.2.8-3-3.2-3.1-5.3-3.3-22.4-1.4-44.8-4.5-66.5-10.4-13.4-2-26.8-5-38.8-11.7zm106 14c.3 4.7 5.6 6.8 9.4 8.3 4.7 2.1 10.6 3.8 14.9.1 2.4-2.5 7.4-3.5 7.3-7.5-4.8 1.9-8.8 6.1-14.3 6.3-6.7.6-11.9-4.2-17.3-7.2zm279.7 16.9c-7.8 4.1-14 10.9-21.6 15.4-.1.9-.1 2.6-.1 3.5 5.1-1.2 8.5-6.1 12.8-9 2.9-3.3 8.8-5 8.9-9.9zm-337.9 2.1c-2 0-4 .4-6.1 1.5-49.2 20.8-98 42.7-148.09 61.1-2.42 1.2-4.8 2.5-7.4 3.3 5.94 1.9 12.2 2.1 18.33 2.9 37.86 5.5 75.46-6.9 110.16-21.2.8-2.3 2.4-4.1 4.7-5.2 15.4-8.7 28.4-20.9 42.6-31.4 1.5-1.3 3.8-2.4 3.9-4.7-5.9-1.7-11.9-6.1-18.1-6.3zm32.7 6.8c-.7 0-1.5.1-2.2.3-6.2 15.2-9.8 31.2-14.4 46.9-.7 2.1-1.3 4.4-3.2 5.6-8.7 6.2-19.2 9.3-29.2 12.7-9.5 1.4-19.1.1-28.7.8l.4-2c-8.9 1.6-18.2.8-26.8 3.6-14.4 4.5-30.4 5-43.8 12.8-25.17 14.4-50.85 28.3-74.33 45.4-.46-.5-.91-1.1-1.36-1.6-1 4.8-1.07 9.8 1 14.4 15.22-4 29.83-11 45.57-13.5 6.04-1.6 13.14-.3 18.28-4.5 17.04-14.1 36.04-26.2 56.64-34.4 13.5-4.6 27.1-8.9 41.1-11.7 4.3-1.9 8.7-3.8 13.3-4.6.6.8 1.2 1.6 1.9 2.5 0-.8-.1-2.3-.1-3.1 9.1-1.3 18.4-5.5 27.5-4.5l-.1 1.4c.6-1.3.9-2.6 1.7-3.7 18.6-8.8 31.8-25.5 42.2-42.7 3-4.8 7.4-9 8.8-14.6-8.1-2.4-16.7-2.6-25.1-3.7-3-.6-6-1.9-9.1-1.8zm39.6 11.1c-3.2-.2-4.3 3.2-6 5.2-7.2 8-8 19.3-14.2 27.8-6 8.6-15.2 14.1-22.1 21.9-8.1 5.9-13.9 14.1-20.9 21-16.3 19.3-27.4 42.3-34.9 66.3-.9 3.7-7 4.4-5.8 9 .8.5 1.6 1.1 2.4 1.6-2 4.2 1.4 7.6 5.7 5.8 2.9-3.6 4.7-8 6.9-12.1-.3 4.9-4.4 9-3.2 14 2.7.3 5.5.6 8.3.1 2.2-5 3-10.3 4.3-15.6.4.1 1.2.4 1.5.5 1.9-5.7 2.8-12.9 7.5-17l.8-.4c-.9-4.2 1.5-7.8 3.5-11.4 1.4-3.9 2.7-8 5.7-11.1 3.1-3.8 4.6-8.7 7.8-12.4-.3-4 3.2-6.8 4.6-10.2 8.2-11.8 16.7-23.6 26.2-34.5-1.2 4.6-4.7 8.5-4.8 13.2 4-6.2 5-14.2 11.1-18.9 3.3-1 2.7-5.1 5.3-6.9 8.8-9.8 18.4-20.7 19.6-34.4-1.5-2.3-4.9-1-7.2-1.2.9 8.4-4.7 15.5-7.8 23 2.1-7.7 5-15.3 6.3-23.2-.2-.1-.4-.1-.6-.1zm178.9 7.8c-16.9 2.3-33.6 6-50.1 9.7 4.3 9.1 8.5 18.4 14.5 26.7 27.6 35.9 56.9 70.7 80.7 109.3 8.2 11.8 9.8 26.6 11 40.4l1.1-.4c3.4-13.5.6-27.5.4-41.1-2.8-29.7-7.8-59.1-11.8-88.5-3.5-12.1-7.4-24-10.6-36.2-1.1-3.2-.6-7.4-3.7-9.4-7.6-.2-13.3-6-19.6-9.4-4-.7-8-.5-11.9-1.1zm-277.2 152c-1.6.1-3.1.4-4.4.9 1.7 3.7 3.8 8.1 7.9 9.5 3.7-1.5 6.8-4.1 10.1-6.3-3.5-2.3-8.9-4.2-13.6-4.1zm224.9 2.2c-11 14.2-23.2 27.6-32.9 42.8-3.2 10.7-8 21.1-15.4 29.6-4.8 6-8.3 13.1-9.9 20.7-.3 1.8-1.5 3.1-2.8 4.3-.2 4.5-6 5.1-7.7 8.8-1.2 2.8-2.1 5.7-3.1 8.6-1.3 4.3-1 8.8 1.5 12.6h87.1c3-4.9-.2-10.7.2-16-2-17.3-.3-34.7-1.3-52-3.2-20.3-9.3-40-15.7-59.4zm-231.6 25.3c-4.6 1.8-8.7 4.7-12.2 8.2 1.8 4.8 5.8 8.5 8.4 13 .7-.6 1.4-1.1 2.1-1.6-.5 1.3-1 2.8-1.5 4.1-2.4-3.4-3.8-7.8-7.6-10.1-7.8 3.6-.3 12.3-1.3 18.5-2.8-4-2.1-9.4-4.7-13.5-6.9 3.1-13.6 7.7-19.1 12.6 1.8 17 .8 34.2 4.9 50.9 1.8 6.3.6 14.5 5.2 19.5.7-11.3 7.6-20.7 15-28.7-3.2-9-7.8-18-7.7-27.9 6.6 6.1 11.3 14.2 9.6 23.4 3.5.6 2.9-3.9 3.6-6.1 2-7.9 5.5-15.3 7.8-23.1-1-2.5-3.2-4.9-2.3-7.8-2.7-5.7-1.5-12.9 1-18.5 3.5 5.3-4.5 10.8.1 15.8 1.2-6.8 3.9-13.1 6.2-19.6-.8-3.9-5.1-6-7.5-9.1zm38.2 32.6c-3.1 7.2-4.4 15.2-9.4 21.5 5.9 7.5 12.9 14.3 17.4 22.9 2.3 4.7 5 9.1 8.1 13.3 5.8.7 12.1-4.2 12-10.3.2-5.8 1.8-12.6-2.6-17.3-7.5-10.7-13.9-23.6-25.5-30.1zm-78.9 1.2c-.3 0-.7.1-1 .2-4.7 14.6-1.8 30.6 4.5 44.3.8 1.1 1.1 2.9 2.7 3.3-2-15.4.9-31.4-4.4-46.3-.4-1.1-1-1.5-1.8-1.5zm85.3 1.4c7.9 10.7 19.1 19.2 26.5 30.4 1.8-3.2 3.8-6.2 5.3-9.6-.8-4.6-9.5-4.1-9-8.7-6.3-3.7-12.3-7.9-18.4-11.9-1.5-.1-2.9-.1-4.4-.2zm-88.3 1.4c-9.5 2.9-17.1 10.2-26.1 14.5-3 2-7.3 2.8-8.6 6.5-3.1 8.5-5.5 17.5-11.2 24.8-5.52 7-12.71 12.5-19.62 18 .87.6 1.75 1.2 2.64 1.7h76.18c-7.5-21-17.7-42.6-13.3-65.5zm49.4 1.7c-4.7 4.4-5.5 11-7.9 16.6-3.2 6.5-2.1 14.1-1.7 21.1 3.1 9.1 7.3 17.8 12 26.1h84.9c-4.9-3.6-11.1-4.8-16.7-7.2-6.8-2.1-14-7.6-21.1-3.1-5.2-7.1-14.5-7.7-21.9-11.6 5.1.9 9.9 3.5 15.2 3.3-4.7-10.7-12.1-20.8-22-27.1-8-4.6-14.7-11.2-20.8-18.1zm74.6 15.6c-9.4 8.8-13.4 22.4-14.2 35 2.1 2 4.9 4.4 8 3.4 1.8-12.5 7.6-24.1 15.3-33.9-2.9-1.8-6-3.2-9.1-4.5zm7 9.8c-4.4 8.6-6.7 18.2-10.3 27.2 6.2 5.9 14.4 9.3 22.7 11.2h50.2c7.9-2 7.4-10.8 9.4-17 .3-1.1.6-2.2.9-3.2-4.7-.3-9.5.1-14.1.7-21.2 1.3-42.2-6.3-58.8-18.9zm-98.1 11.1c-.2 0-.5 0-.8.1-6.6 7.6-13.7 16.4-12.7 27.2h31c-4.5-8-9-15.9-13.6-23.7-1-1.3-2.1-3.6-3.9-3.6z" fill="#3f3f3f"/>
    <path id="color5" d="m182.3 0c1.9 1.64 3.8 3.401 5.7 5.131-6.9 1.13-13.8 2.019-20.3 4.709-.2 1.07-.3 2.15-.4 3.22-2.5 1.08-5.1 1.47-7.7 1.86 6.2 2.85 16.4 2.3 18.5 10.21-7.4.17-14.8-.01-22.2.17 7 4.85 15.5 7.04 22.5 11.89 0 .41-.1 1.24-.1 1.66-7.5 5.4-14.8 11.41-20 19.13 7.3.05 13.9-4.28 21.3-3.33-2.6 6.85-10.9 10.14-13.9 16.93 4.6-2.02 9.2-4.67 14.4-4.38-5.1 7.36-13.4 11.43-19.7 17.51 8 .36 16-.03 24 .24-2.4 3.91-6.4 6.34-9 10.04 2.8-.11 5.5-.83 8.2-1.85-4.3 6.18-11.2 9.56-16.3 14.76 5.8.3 11.6-.6 17.4-.4-.4 4.2-4.6 6.3-7.3 9 2.1 0 4.2 0 6.3-.1.3 5-3.5 8.9-4.6 13.6 5.7-4 9.8-10.4 16.8-12.3-1.6 4.7-4.7 8.5-8.2 12 2.2-.1 4.5-.1 6.7-.1-.8 2.6-1.3 5.3-1.4 8 4.4-1.8 6.3-8.1 11.7-7.4.6 7.4-1.2 14.7-1.5 22.1 3.3-3.6 6.4-7.4 10.1-10.6-.1 2.1-.2 4.2-.2 6.4 1-.7 2.1-1.4 3.2-2-.1 4.1-.3 8.2-.1 12.3 1.6-2.4 2.7-5.1 3.8-7.7.3 2.4.6 4.9 1.3 7.3-.7 1.8-2.3 2.7-4 3.3-.4-.5-1.2-1.6-1.6-2.1-.7 1.1-1.4 2.2-2.3 3.1-12.9 6.4-27.2 9.4-40 15.6 7.4 1.3 14.9 3.8 22.5 2.9 9-4 16.5-13.3 26.9-13.7 1 2.6.6 5.4 1 8.1 1.4-3.8 3.6-7.2 5.5-10.7 3.5 3.7 5.1 8.8 8.3 12.8 1.9.6 5.7.4 5.3 3.2-3.1.3-6.2.2-9.3 0 10.3 9.9 26.7 6.1 38.5 13.4 5.1 6.8 15.5 8.1 18.2 17 .9 10.4 6.5 19.9 5.6 30.5 1 8.7-1.4 17.3-3.4 25.6-4 2.1-7.4 4.9-10.6 8.2-4-.3-9.7-1.2-10.1-6.2-1.8-11.7-4.3-23.5-3.8-35.4 1.2.6 2.5 1.2 3.8 1.9 0-1.3.1-2.5.2-3.7 4.6-.3 8.5 2.8 12.5 4.6 3.5 1.2 2.8 5.5 3.7 8.4.7-1 1.4-2 2.1-3.1.9 1 1.8 2 2.6 3 0-2.2 0-4.5-.1-6.8-5.2-6.6-15.1-5.9-21.3-11.3-5.8-4.3-11.8-8.3-17.5-12.6 2.4-4 6.3-6.8 9.6-9.9-6.3-3.1-12.9-5.6-19.8-7-7.7-2.3-14.6-7-19.8-13.1-9 3.9-17.5 11.3-28 10.2-9.7-.8-19 3-27.6 6.9-6.9 1.2-13.9.8-20.6 2.3-13.6 2.1-26 10.2-34.4 20.8-1.9 13.7-1.5 27.8-3.1 41.6-4.1 12.5-2.7 26.8 3.3 38.5 1.6 8.3 2.8 16.7 4.9 24.7 3.4 4.1 8.5 6.6 11.2 11.4 4.3 7.3 10.3 13.6 13.6 21.5-16.1-1.1-32.3-2.4-48.39-2.3-25.97 5.4-47.79 21.4-69.07 36.4-7.4 6.3-16.89 9.4-25.84 12.9v66.3c4.03.1 8.06.2 12.09.4 1.62-.8 3.53-.6 4.85.7 7.06-.2 13.99 1.4 21.05 1.1 6.3.4 12.82-.8 18.92 1.2 2.6-.8 4.98-2.1 7.4-3.3 50.09-18.4 98.89-40.3 148.09-61.1 8.2-4.5 16.4 2.5 24.2 4.8-.1 2.3-2.4 3.4-3.9 4.7-14.2 10.5-27.2 22.7-42.6 31.4-2.3 1.1-3.9 2.9-4.7 5.2 2.4 5.6 2.2 11.9 2.2 17.8-4.4 2.4-9 4.4-13.7 5.7l-.4 2c9.6-.7 19.2.6 28.7-.8 10-3.4 20.5-6.5 29.2-12.7 1.9-1.2 2.5-3.5 3.2-5.6 4.6-15.7 8.2-31.7 14.4-46.9 3.9-1 7.6.8 11.3 1.5 8.4 1.1 17 1.3 25.1 3.7-1.4 5.6-5.8 9.8-8.8 14.6-10.4 17.2-23.6 33.9-42.2 42.7-.8 1.1-1.1 2.4-1.7 3.7l-.1.3c-.1.1-.1.3-.2.4-.3.5-1.1 1.5-1.4 2.1 1 2-.4 3.9-2.4 4.5 0 .1-.2.3-.2.4-3.9 8.1-9.5 14.7-17 19.7l-.2.2h-.2-1-.2l-.1-.3c-.3-.6-.7-1.7-.9-2.2-1.3-1.1-1.3-2.8-.5-4.1v-.9c-1.9-.5-1.8-2.8-1-4.2v-.8c-1.8-.6-1.8-2.7-1-4.1v-.9c-1.8-.5-2-2.7-.9-3.9-.7-.9-1.3-1.7-1.9-2.5-4.6.8-9 2.7-13.3 4.6 4.3 7.3 4.9 16.4 4.4 24.7-3.2 7.9-6.7 15.8-8.9 24.1 1.1 5.5 1.4 11.2.8 16.8-5.5 5.6-12.4 9.4-18.6 14-4.9 5-.3 12.9-2.8 18.8-1.9 2.6-3.4 5.3-4.8 8.3-1.5 4-6.7 4.7-8.3 8.7-2.6 5.5-3.7 11.6-7.5 16.5-10.8 15.3-26.1 27.1-36.1 43-6.2 12.5-11.93 26-22.68 35.2-.07.1-.18.2-.28.3-.85 1.3-1.63 2.6-2.75 3.7-.07.1-.19.2-.29.2.28 1.6-.54 3.6-2.36 3.6-3.26 3.4-6.44 7.4-11.48 7.8h10.66c-.89-.5-1.77-1.1-2.64-1.7 6.91-5.5 14.1-11 19.62-18 5.7-7.3 8.1-16.3 11.2-24.8 1.3-3.7 5.6-4.5 8.6-6.5 9-4.3 16.6-11.6 26.1-14.5-4.4 22.9 5.8 44.5 13.3 65.5h6.1c-1-10.8 6.1-19.6 12.7-27.2 2.3-.8 3.5 2 4.7 3.5 4.6 7.8 9.1 15.7 13.6 23.7h1.4c-4.7-8.3-8.9-17-12-26.1-.4-7-1.5-14.6 1.7-21.1 2.4-5.6 3.2-12.2 7.9-16.6-1.8-2.3-3.7-4.5-5.5-6.9-.9 2.9 1.3 5.3 2.3 7.8-2.3 7.8-5.8 15.2-7.8 23.1-.7 2.2-.1 6.7-3.6 6.1 1.7-9.2-3-17.3-9.6-23.4-.1 9.9 4.5 18.9 7.7 27.9-7.4 8-14.3 17.4-15 28.7-4.6-5-3.4-13.2-5.2-19.5-4.1-16.7-3.1-33.9-4.9-50.9 5.5-4.9 12.2-9.5 19.1-12.6 2.6 4.1 1.9 9.5 4.7 13.5 1-6.2-6.5-14.9 1.3-18.5 3.8 2.3 5.2 6.7 7.6 10.1.5-1.3 1-2.8 1.5-4.1-.7.5-1.4 1-2.1 1.6-2.6-4.5-6.6-8.2-8.4-13 3.5-3.5 7.6-6.4 12.2-8.2 2.4 3.1 6.7 5.2 7.5 9.1-2.3 6.5-5 12.8-6.2 19.6 3.5 12.5 17.7 16.7 25.5 25.6-.1.5-.2 1.6-.3 2.1 9.9 6.3 17.3 16.4 22 27.1-5.3.2-10.1-2.4-15.2-3.3 7.4 3.9 16.7 4.5 21.9 11.6 7.1-4.5 14.3 1 21.1 3.1 5.6 2.4 11.8 3.6 16.7 7.2h6.7c-8.3-1.9-16.5-5.3-22.7-11.2 3.6-9 5.9-18.6 10.3-27.2 16.6 12.6 37.6 20.2 58.8 18.9 4.6-.6 9.4-1 14.1-.7-.3 1-.6 2.1-.9 3.2-2 6.2-1.5 15-9.4 17h11.4c-2.5-3.8-2.8-8.3-1.5-12.6 1-2.9 1.9-5.8 3.1-8.6 1.7-3.7 7.5-4.3 7.7-8.8-5.7 3.2-12.8 1.7-18.5 5-1.8 1-3.4 3.1-5.8 2.7-10.5.2-20.2-4.3-29.8-8.1-9.2-4.2-18.4-8.2-27.1-13.3-7.7 9.8-13.5 21.4-15.3 33.9-3.1 1-5.9-1.4-8-3.4.8-12.6 4.8-26.2 14.2-35-4.3-2.3-8.7-4.3-12.9-6.6-.5 4.6 8.2 4.1 9 8.7-1.5 3.4-3.5 6.4-5.3 9.6-7.4-11.2-18.6-19.7-26.5-30.4 1.5.1 2.9.1 4.4.2 12.5 3.3 25.1 7.2 36.8 12.9 8.5 6.3 15.5 16.8 27.2 16.5-1.2-4.7-5.8-8.2-10.2-10.1-28.8-13-59.2-23-86.8-38.6 1.7-8.6-2.3-16.7-1.5-25.2 4.3-3.5 9.9-9.3 15.8-7.1 22.3 18.3 45.1 36.2 70 50.9-9.3-12-20.9-22.3-31.6-33.1-7.7-5.5-17.3-7.5-26.3-10.3-1.9-1.3-3.3-3.2-4.9-4.9 5.2-.1 10.6-1 15.6.8 21.8 7.5 44.4 12.6 66 20.7 10.6 4.1 20.6 10 31.7 12.7-.1-.5-.4-1.6-.5-2.2-9.4-6.3-20.7-8.4-31.3-11.7-11.9-4.4-24.2-7.3-36.3-11-11.8-5.5-23.5-11.4-34.6-18.1 3.7-7.2 1.2-15.5 4.1-22.7 1.3-.1 2.6-.1 3.9-.1-.6-8.7 1.6-19.2 9.8-23.9 32-4.9 63.8-13.9 92.5-29.1-11.5 6-23.8 10.4-35.9 14.7-15.4 5.1-31.8 2-47.2 6.4 5.1-7.7 12.4-14.7 13.9-24.4.6-7.7 10.2-9.8 10.8-17.4 2-11.5 4.7-22.8 7.1-34.2.9-2 2.7-4 5-4.3 18.4-3.3 36.9-7.2 54.2-14.5-16.8 6.4-34.7 12-52.9 10.6 1.6-11 4.7-21.7 6.5-32.6 3.1-2.6 7-4.5 11.1-4.6 5.6 0 10.8-2.8 16.4-2 1.2 8.5 8.7 17.4 17.9 16.1 11.8.9 23.8 1.2 35.3 4.5 6.5 2.5 11.6-3.3 16.8-6.1 1.3 3.5 7.4 8.8 2.4 11.7-25.2 19.8-52.9 36.5-81.7 50.5 15-6.1 28.8-14.8 43.4-21.9 15.6-6.9 30.2-15.7 43.8-26 10 18.2 21.3 35.8 28.3 55.4 3.5 10.3 3.3 21.4 5.9 31.7-1 10.4-.7 21.9-7.4 30.6-6.9 9.5-12.8 19.7-20.5 28.7 6.4 19.4 12.5 39.1 15.7 59.4 1 17.3-.7 34.7 1.3 52-.4 5.3 2.8 11.1-.2 16h50.1c12.2-15.1 22-32.2 30.4-49.7 8.1-14.2 12.5-30.2 14.9-46.2.4-13.1.2-26.2.2-39.4-3-27.6-6.7-55.2-11-82.7.2-9-.6-18 .8-26.9.5-10.4-.3-20.8 1.4-31.1 3.8-3.9 10.2-4.4 12.9-9.4 1.9-3.3 5.6-4.7 8.5-7 10.9-7.5 19.6-17.7 26.8-28.7 8.3-15.8 4.6-34.8-.6-50.9 1.6-6.6 1.4-14 5.2-19.8 1.5-9.3-5.6-18.1-2.1-27.2 1.9-6.6 1.2-13.5 1.1-20.3.1-5.8-4.6-9.9-7.2-14.6 2.7-5.4 4.8-11.2 8.3-16.2-.4-.8-1.1-2.5-1.5-3.4-2.3-.2-4.7-.3-7-.6 2.2-1.9 7.4-1.2 7.3-5-1.2-13.6-1.9-27.5-.1-41.1-1.1-14.9-1.6-29.9-2.1-44.9-.5-8.8-9.2-13.7-16.7-16.3-3.8 5.1-2.6 11.8-2.2 17.6 5.9 1.8 6.6 7.8 5 13-.4 20.6-1 41.2-2.5 61.8.1 3.7-4.5 3.5-6.3 5.8-1.7 18.1-9.3 35.6-8.4 54.1 8.2-.3 12.9-7.1 18.9-11.4-.4 9.5-10.6 12.8-18.4 14.4-1.4 5.5-3.3 11-3.7 16.7 3.6.3 7.6-.6 10.9 1.4 1.1 4.8-.7 9.4-1.9 13.9-5.2 20.7-10.7 41.2-15.7 61.9 1 1.7 3.2 3.4 2.3 5.7-1.7 5.9-3.4 11.9-5.6 17.6-5.2 2.8-11.1 5.9-17.1 5.2-5.4-2.9-10.5-6.3-15.4-9.8 3.1 6.3 10.6 8.1 15.6 12.6-2.3 10-3.5 20.7-8.1 29.8 3.1 2 2.6 6.2 3.7 9.4 3.2 12.2 7.1 24.1 10.6 36.2 4 29.4 9 58.8 11.8 88.5.2 13.6 3 27.6-.4 41.1l-1.1.4c-1.2-13.8-2.8-28.6-11-40.4-23.8-38.6-53.1-73.4-80.7-109.3-6-8.3-10.2-17.6-14.5-26.7 16.5-3.7 33.2-7.4 50.1-9.7 3.3-.9 6.8-.7 10.3-.6-6.3-5.7-14.5-10.4-16.9-19-13.7-31.7-27.5-63.5-40.7-95.2-1.5-1.9-2.8-4.8-.7-6.8 4.1-6.8 12.3-11.5 12.7-20.1 1.3-7.2 2.2-14.7-.4-21.8-.8-14.9-2.9-29.7-3.6-44.6-.6-4.4 2.9-7.8 4.9-11.4 2.8-.7 4.3 2.2 6 3.9 8.5 9.2 18.9 16.5 27.1 26.1 6.1-2.5 12.3-4.7 18.7-6.1.9-7.5 1.6-14.9 3.3-22.2-1-4.2 2.6-6.3 5.8-7.9-6.5-.2-12.9-1.1-19.4-1.7-.4-5-.2-10.5 2.1-15.2 4.9.8 9.8 1 14.7 1.6.1-11.5 3-22.7 4.1-34.1-6.5-.4-12.3 4.9-18.7 3.5-3.5-3.6-2.4-10.1-6.7-12.9 1.2 6.7 5.7 12.4 7.1 19.1-3.4 24-5.7 48.3-9.4 72.3-7.7-3.3-13-11.3-19.4-16.8-4.7-5.7-15.4-8.6-14-17.5 1.2-7.2 1.3-14.4 1-21.6-5.7 1-11.7-2-17.1.1-.2 4.9-.2 10-1.5 14.8l-1-.2c-1.6-11.3.8-22.7.9-34.1 0-6.5 4.2-11.9 6.1-17.9 2.5-6 10.3-10.9 16.5-8.2-2.2 3.6-5.1 6.7-7.2 10.4.9-.3 1.9-.6 2.9-.9 1.5-7.3 9.3-9.6 15.8-9.9-2.4-.2-5-.1-6.6-2.1-.5-.3-.9-.6-1.3-.9-6.8 1.4-14 .4-20.5 3-.9 3.3-.6 6.9-2.1 9.9-5.4 2.5-11.3 5.5-13.8 11.1-1.3 9.8-2.2 19.6-2.7 29.4-.9 8.6-4.9 16.5-7.6 24.7 4 2.3 7.5 5.2 11.1 8 2.2-5.3 3.5-11 6.5-16 .7.1 2.1.2 2.8.3 5.3 10.5 12.8 21.5 10.8 33.8-3.3 1.8-6.3-3.4-9.4-4.7-4.6 3.1-5.8 8.6-7.4 13.5-1.2.7-2.6 1.2-4 1.7-.1-3.4 0-6.7-.2-10.1-1.6.7-3.2 1.3-4.7 2-2-2.7-.4-5.7 1.1-8.1 1.3.5 2.6.9 4 1.4.1-1.4.2-2.7.3-4.1-1.1.6-2.1 1.2-3.2 1.8-.1-.6-.2-2-.3-2.6-6 6.2-11.9-2.3-14.2-7.6.3-3 1.6-5.8 2.3-8.8-2.6.3-2.7 3.7-4 5.5-5.7-2.1-.1-8-1.6-12-1.7 2.4-1.8 6.7-5.4 6.8 6.1 5 8.9 12.9 14 18.8 3 3.7 6.8 9.3 2.7 13.6-5.5 1.9-7.3-5.5-10.1-8.6-.2 2-.3 4-.5 6.1 5.3 2.3 10.6 4.9 15.3 8.3 2.2 6 .3 12.7-.6 18.9-10.8.8-21.1-4.2-30.8-8.5-11.5 5.6-24.6 10.8-37.7 8.2-6.7-2.2-13.8-.4-19.5 3.4-.3-2.8-.4-5.7 0-8.6-.5-.5-1-1.1-1.4-1.7-1.6 1.6-3.2 3.2-3.4 5.5.6-.4 1.8-1.3 2.4-1.8.3.5.8 1.4 1.1 1.9-1 2.3-3.8 5-5.3 1.5-2.2-1.2-4.4-2.3-6.6-3.5 1.3-5.7 7.7-9.5 7.5-15.5-2.8 3.6-5.4 7.5-9 10.5 3.6-7.6 9.1-14.1 13.7-21 1.7-10.4 3.4-20.9 4.6-31.3 7-2.8 14.3-4.8 21.1-8.2 5.1-7.8 5.5-18.2 13.3-24.1 1.9-16.3 6.9-32.2 10.9-48.2 2 0 4.1 0 6.2.1 1.2 4.3.6 8.9 1.1 13.3.9-2.9 1.7-5.9 2.7-8.8 3.9 5.4 3.6 13.8 2.6 20.3 2.7-2.8 5.7-5.6 9.5-6.7 4.5-1 6.2-6.4 2-9.1-2.3-3.2-6-5-8.5-8.1 4.8-2.7 1.8-8.7 2.8-13.1.1-3.8 2.3-8.7-.5-11.9-3.2 2.9-3 9.9-8.4 9.8-5.3-.9-13 6.2-13.3-5.1l5-5.8c3.3 5.9 8.1 3.5 11.7.5-1.4.1-2.7.3-4 .5-.6-1.7.1-3.4.2-5.1-1.4-.6-3.1 0-4.6 0 .3-9.08-.4-18.07.3-27.14 2.1-3.25 6.6-3.04 10-2.29 4.6 2.02 5.2 7.58 5 11.99 2 .32 4.1.48 6.2.48.3-1.06.5-2.11.8-3.17 1.2-.26 2.4-.57 3.6-.92 1.1-7.43-4.3-13.19-6.7-19.74 4.2-1.41 8.7-1.42 13.1-1.22-1.1-6.4-8.3-8.6-11.2-14.04 3.9-.83 8.7.11 11.8-2.7-1.7-4.19-6.8-4.69-9.4-7.86 4.9-2.82 10.5-4.05 15.2-7.14-1.5-4.01-6.3-4.66-9.6-6.68-6.1-3.47-12.1-7.43-17.1-12.52 3-4.651 14.3-1.67 13.2-8.149-5.9-2.72-12.6-2.971-18.8-4.801zm161.9 519.7c1.6-.9 3.3-1.8 4.9-2.7-1.6.9-3.3 1.8-4.9 2.7zm-43.5-441.44 1.8.75c-.1 9.49 2.5 19.01 1 28.49-1.2.4-2.5.8-3.6 1.4-2.9 1.1-5.1 3.3-7.9 4.4-.5-.1-1.4-.3-1.8-.4 1.2-12 8.1-22.73 10.5-34.64zm20.4 1.85c1.7 8.58 4.1 17.04 4.4 25.79.7-.1 2-.2 2.7-.3 1.2 12.9-6.8 23.9-8.3 36.4 2.2-1.6 1.7-4.8 3.9-6.4 0 1.8 0 3.6-.1 5.4 2.6-1 1.6-4.9 4-6.1.3 9.3 1.4 19.1-2.2 27.9 2.8-3.7 5.5-8.8 8.3-11.7 0 1.5.1 3 .1 4.5 2.1-.4 1.2-2.9 1.6-4.3.7 0 2-.1 2.7-.1 1-3.8 1.8-9.9 5.4-11.1-.3 3.5.8 6.9 1.4 10.4 1-9.7 4.8-19.3 9.9-27.5 6.1 7.7 3.6 17.5 3.4 26.5-1 13.1-10.1 23.3-17.5 33.3-5.4 7.5-11.4 14.6-17.4 21.5-3.8 4.3-7.7 9.2-13.6 10.3-3.2.3-6.5.1-9.7.8-6.2-1.6-9.8-7.3-13.8-11.7-11.6-12.7-26.2-22.4-37.1-35.8-4.5-6-8.8-12.7-9-20.4 5.1-.2 8.6-4.9 13.7-4.4 1.4 2.1 1.2 5.1 2.1 7.6.2-.7.6-2 .8-2.7 2.2.9 1.8 4.3 3.5 5.9 1.2-1 1.8-3.8 3.9-2.6.4 2.9.5 5.9.7 8.8.9.5 1.7 1.1 2.4 1.7.2 3.8 2.8 6.8 4.2 10.2 2-12.6-6.2-28.2 3-39.9 1.6 1.7 1 4.2 1.5 6.4 1.1-.1 2.2-.2 3.2-.3.4-2.9.1-5.9 1.1-8.8 1.7-.8 3.7-.2 5.6-.3.9 3.1 3.1 5.6 3.3 8.9.2-3.4-.9-7.3 1.8-9.8 3.6-6.3 12.1-5.8 18-3.9 3.6-1.1 5.2-4.4 5.6-7.9l.8-.2c2.5-.6 5.2-1 6.6-3.3-1.2 0-2.5-.2-3.7-.2-2.1 0-4.2.2-5.8 1.8-7 2.9-14 6.5-21.5 8.1 0-1.5.1-2.9.1-4.3 3.5-1.6 7.1-3 10.7-4.3-2 .3-3.9.6-5.8.9 1.5-2 3.2-3.7 5-5.4 1.4-2.1 5.4-2.2 5.2 1.1.4-1.8.1-3.8 1-5.5.7 1 1.3 1.9 1.8 3-.3-3.3 1.6-5.7 4-7.6 1.4-.1 2.9-.2 4.3-.4-.7-6.55 2.4-12.61 2.6-19.08.3-.23.9-.68 1.2-.91zm57.3.16c-.8-.02-1.7.18-2.5.65-2.2 1.99-3.4 4.52-4 7.24 1.6-2.13 2.2-5.79 5.2-6.17.8 4.5 4.6 7.57 5.4 12.06.7-3.66-6-9.24.4-10.82-.9-1.79-2.6-2.91-4.5-2.96zm-6.5 7.89c0 .07 0 .15-.1.22 0 0 .1.01.1.01 0-.08 0-.15 0-.23zm0 .23c-.6 3.19-.5 6.65-.1 9.83 1.5 2.88 4.3 5.08 7.8 4.28-.2-.7-.4-2-.6-2.67.5-.21 1.6-.62 2.1-.83-.9-.25-1.9-.44-2.8-.58-1.4 1.19-3.1 1.88-5 1.34l-.3-3.63c1.6-1.36 3.6-2.29 4.9-4.04-1.4-1.99-3.4-3.66-6-3.7zm.1 2.61c1.3.02 2.6.02 4 .12-.1.65-.2 1.94-.3 2.58-1.1.12-2.3.18-3.4.28-.1-.74-.2-2.24-.3-2.98zm-55.8.18c.3 2.89-.2 5.75-.6 8.59-1.4-.04-2.8.43-4-.29 1.9-2.56 1.9-6.4 4.6-8.3zm3.6 25.92c-2.4 1-3 4-5.1 5.6-5.9 5.4-15 3.7-21.6 7.2 7.2-1.8 15.2-.2 21.9-4.1 3-1.8 3.6-5.6 4.8-8.7zm-7.4 1.3c1.6 5.1-5.9 5.8-8.3 2.6 3-.3 5.5-1.9 8.3-2.6zm-28.5 3.3h.5-.5c-.9 0-1.8.3-2.5.7.7-.4 1.5-.8 2.5-.7zm-3.1 1.2s-.1 0-.1.1c0-.1.1-.1.1-.1zm-34.8 5.9c1 1.3.6 3.1.4 4.6l-1.6 1.6c-.4-1.9-1.4-5.8 1.2-6.2zm3.8.8c1 .7 2 1.6 1.8 2.9-.5.4-1.4 1-1.8 1.4-.7-1.4-.5-2.9 0-4.3zm.2 7.7c1.2-.1 2.2.2 2.6 1.7-1.7 2.1-6.5 2.4-6.3-1.2 1.1 0 2.4-.4 3.7-.5zm-8 .8c.4 0 .7 0 1.1.1 1.8 2 4.4 2.7 7 3.3-1.2 4-7.5 2.1-10.6.9-.2-1.2-.4-2.4-.5-3.6 1-.5 2-.7 3-.7zm277.7 13.1c-4.5.5-8.1 5-9 9.3-1.3 14.6-3.8 29-6 43.5 2.1 11.7 7.2 23 6.7 35-.1 6.5-6.9 10.7-6.4 17.3-4.2-1.2-6-5.7-9.7-7.4 5.7 6.2 9.9 13.5 13.6 20.9-.9-4.6-3.5-9-3.1-13.8 2.1-8 8.8-14.6 8.2-23.3-2.6-7.6-.8-15.8-1.3-23.7-.2-7.2-.5-14.6 2.8-21.3-1.3-6.7 1-13.4 3-19.6-1.4-5.7 1.3-11.3 1.2-16.9zm-196.7 20.7c-4.6 2.4-7.8 7-13 8.4-5.2.8-10.2 2.6-14.8 5-4.9 2.9-10.8 1.4-16.1 1.3 1.4 3 4.9 2.9 7.8 3.2 7.7 2 16.1-.8 22.1-5.9 4.8-3.8 10.7-6.8 14-12zm-13.3 9.4c-2.7 6.3-11.5 7-17.7 8.1 3.6-5 11.9-5.7 17.7-8.1zm76.6 1.9c-1.1 0-2.2.1-3.3.2 1.8 2.6 4 4.8 6.6 6.5.2-2.1.2-4.3 0-6.5-1.1-.1-2.2-.2-3.3-.2zm-22.3.2c-4.9-.2-11.4 3-13 7.7 6.6 1.7 13.1 3.3 20 2.7 1.4.4 4.4-1 4.5 1.2-7.7 9.1-17 16.5-26.1 24.1 7.1.5 10.7-8.8 17.4-9.2 3.3 2.9 3.8 8 6.3 11.7 2-1.5 4.2-2.9 6.7-3.2.5-.1 1.4-.4 1.8-.5-5.8-5.1-8.4-18 .6-21 3.3-1.5 5.6 1.9 7.7 3.9-.5-2.5-1-5-1.5-7.4-3.1.7-6.1 2-9.2 2.9-1.2-1.8-2.4-3.6-3.7-5.4-4.1-2.1-7.4-5.5-11.5-7.5zm61.1 6.5c3.1-.2 7.5 1.6 10.1.9-.1 11.1 2.4 24-5.4 33.2-.5.1-1.3.4-1.8.5-2.7-4.7-5.1-9.6-7.3-14.5-.1-3.5 1.1-6.9 1.2-10.4 2.8-.9 4.5 3.1 7.3 1.7 2.7-5.5-2.3-9.4-7.6-8.1.3-2.4 1.7-3.2 3.5-3.3zm-117 1.9c-5.9 3.3-12.9 2.2-19.3 1.8 5.2 5.9 15.1 5 19.3-1.8zm-93 5.1c7.7 3.3 13.9 9 22.1 11.3-.1 2.3-2 4.2-3.3 6-11.3 2.5-20.5-7.6-31.8-5 2.6 2.7 8.8 1.9 9.3 5.9-3.1.9-7.2.2-9.4 2.9 13.8 9.6 21.7 24.7 29.3 39.2-8.9-.8-18-4.1-25.8-8.7-1.5-3.4-1.2-7.5-3.4-10.7-1.5-4.2-7.4-4-8.7-8.3-2.2-6.6-6.2-12.4-8.7-18.8 4.4.6 9.5 2.6 13.4-.6 5.3-4.9 11.2-9 17-13.2zm144 4.9c-14.3 8.8-23.5 22.9-32.9 36.3 2.9 0 4.4-2.8 6.4-4.5 3.3-3.3 8.7-5 9.3-10.3 3.8-8.5 9.2-16.3 17.2-21.5zm-116.1 7.9c2.6 1.6 6 4 6.2 7.2-2.2.9-4.6 1.7-6.9 2.4 11.7 10.4 19.6 24.1 26.6 37.9 1.2 4.6.4 9.5.2 14.1-8.5-1.3-15.3-8.2-24-8.2-7.4-13.5-18.7-24.1-29.8-34.5-2.6-4.8-9.8-6.3-10.7-11.7 8.7-1.2 17.5-1.5 26.3-1.4 4.9.2 7.9-4.2 12.1-5.8zm-66.3.8c2 0 4 .2 6 .8.6 2 1 4 1.3 6.1-4.4-2-10.4-3-13.4-6.6 2-.1 4.1-.3 6.1-.3zm-13.8 1.2c9.5 0 18.6 5.7 25 12.4 5.4 7.8 13.4 14.9 15.5 24.3-5.9-2.3-7.7-9.4-13-12.7-14.3-11.5-33.9-8.4-50.8-7.4.1-.5.3-1.5.5-2 6.9-4.9 13.9-9.7 20.9-14.5.6-.1 1.3-.1 1.9-.1zm136 4.5c2.7 0 5.4.4 7.1 2.8 3 3.7 9.5 5.3 8.9 11-5.8-3-11.8-5.3-18.4-5.6-1.1-2.7 0-5.8 1.3-8.2zm74.1 6.9c-8.1 8.2-18.8 13-27.9 19.9-.3.6-.5 1.3-.5 2 5.5-3.2 11-6.9 17.2-8.9-1.5 5.7-4.9 10.9-7.9 15.9-7.2 2.4-14.7 5.1-22.4 4.9-1.7 1.4-3.6 2.9-5.8 3.5 10.2-.1 19.3-6.7 29.6-7 .1 0 .2-.1.3-.1 3-2.1 6.7-2.9 10.2-3.9-.2-.6-.4-1.9-.5-2.5-.3.4-.8 1.3-1 1.7-1.5.3-3 .3-4.5.3 1.6-2.2 3.7-4 5.6-6 3.7-6.1 4.6-13.3 7.6-19.8zm-75.2 2.8c6.5-.1 12.6 2.1 17.9 6-.2 5.2-1.1 10.5-2.2 15.6-3.7 4.2-5.9 10-10.6 13.2-1-11.9-5.7-23-7.9-34.6.9-.1 1.9-.2 2.8-.2zm-138.2 2.5c5 0 9.9 1 14.5 3.4 4.1 2.6 8.9 4.9 11.3 9.3-6.5 1.1-12.9-.7-19.3-.7 3.8 1.4 8 1.8 11.6 3.7 7.8 3.4 16.6 1.2 24.2 4.8 10 2.6 18.1 9.3 26.3 15.2 0 .5.1 1.5.1 2-7.3-.1-14.7 2.2-22.1.8-6.9-1.9-13.8-4-21-4.9-8.4-1.9-16.8-6.4-25.7-4.3-5.7 1.4-10.1 5.4-14.4 9.2 4.8-2.3 9.9-4.7 15.4-4.2-4.5 4.7-12.2 5.9-17.4 10.1 6.4-2.7 12.5-6.3 19-8.8 7-3.7 15.3-2.6 22.7-.9 5.9.7 11.9 1.7 17.5 3.9-3.4 5.8-12.4 3.9-18.3 4.2-11-.1-21.6 5-30.2 11.7-1.5 1.1-3.1 2.3-5.1 2.5-.7-4.6 4.1-6.9 6.4-10.1-7.1 3.8-12.4 10-18.1 15.7-1.3 1.4-3.3 3.2-2.4 5.3 5.3.8 10.7.8 15.9 0 19.3-8.5 36.3-22.1 56.6-28.4 14.2.9 27.8-3.5 41.8-3.7 8.3 7.8 19.7 12.2 31.1 11.4 7-.6 13.9 2 21 1.2 2.5-.2 5.8-.1 7.3 2.3-2.5.3-5.5 0-7.2 2.3 3.1.4 6.2.2 9.3.7.3 2.7-3.3 2-5 2.8-10.3 4.4-16.9 14.2-21.3 24-6.3 11.9-10.7 25.2-9.4 38.8 3.3 10.8 8.4 20.9 13.9 30.8 1.5 3.5 6.2 5.6 5.1 10-7.2.8-13.7-3.3-20.7-4.2-4.7-5.8-7-13.2-6.9-20.6-.1-16.5-1.3-34 6.8-49-4.3.1-4.1 6.3-6 9.1-9.5 17.8-5.8 38.8.5 57 1.8 4.2 3.4 8.7 3.9 13.3-5.6.4-11.5.4-16.7-2.1.1-2.9 3.6-4.3 3.9-7.2.6-4.3-.2-8.9-3-12.3-2.5-1.9-5.6-2.9-7.8-5.2-3.9 1.9-7 4.9-9.7 8.3-1.5-5.8-5.6-9.8-11-12.1-2.5 1.7-5.5 2.7-7.7 4.7-3.2 5.1-2.5 11.8.1 17-2.1.4-6.6.4-5.4-2.9 1.7-5.3 3-11.7-.9-16.4-1.8-3.1-6.6-3.5-6.9-7.5-.4 0-1.2.1-1.7.1-1.1 3.3-4.5 4.9-5.8 8-.7 5.6-1.3 11.7 1.5 16.8-5.6 1.8-3.4-5.9-6.9-7.1.5 2.3 1.1 4.6 1 7.1-1.9.1-4.1.4-5.7-.8-8.1-4.9-15.4-11.4-24.4-14.6-6.8-2.4-12.9-6.6-19.9-8.2-3.3-2.9-4.7-7.2-7.8-10.3-7.4-11.8-6.7-26.5-12-39.2-4.1.8-3.5 6.7-6.8 8.3-.1-3.8-1.1-7.6-1-11.5 3.5-14.7 9-28.9 15.7-42.5 2.3-4.9 5.9-9.7 5.3-15.5-5.1 2.4-8.7 8-13.9 9.3-.6-4.6 2.3-8.6 2.2-13.2 8-9.5 20.9-16.6 33.6-16.7zm-2.4 9.5c-2.3.1-4.5.7-6.2 1.8 4.6.6 9.2.8 13.8.3-1.6-1.4-4.1-2.1-6.7-2.1-.3 0-.6 0-.9 0zm264.3 5.7c.4-.1.9 0 1.5.1.4 2 .8 4 1.5 5.9 1.8-.3 3.6-.7 5.5-.9 1.7 17.1 5.7 34.8 1.6 51.8-4.3 4.6-7.1 12.1-13.9 13.2-1.6 4.1-3.7 10.1-8.7 10.6-1.1-3.3-1.8-6.7-4-9.5-4 .3-8-.2-11.9.5-10.5-.6-18.3-9.2-28.1-11.6-7.4 3.1-16 2.7-23.9 1.4-5-4.6-12.1-2.8-17.7-6.3-4.1-1.4-7.2 2.2-10.4 4.2-2.7-2.5-7.3-6.4-4.4-10.4 3.2-4.2 4.7-9.7 9-13.1 11.6-2.2 21.7 6.1 33.2 6.3 1-.5 2.1-1 3.1-1.5-.8-.1-2.3-.2-3.1-.3.7-5.4 7.6-6.3 11.9-7.7 5.2-.9 10.7-7.7 15.6-2.8 4.9 3.2.8 9.3.3 13.7-.1 2.7-2.5 3.4-4.8 3 7.2.9 14.4 2 21.6 3.3 2.3-.1 4.3 1.3 5.4 3.1 2.3-1.3 1.8-4.1 2.3-6.4 1.4-7 3-14 3.8-21.1.5-2 .6-4.9 3-5.6.6.9 1.2 1.8 1.7 2.8 0-.7 0-2 .1-2.6.6.4 2 1.1 2.6 1.5 1.4-4.8-1.5-10 1.3-14.4 1.5-2.6 2.7-6.9 5.9-7.2zm-129.7 27c1.5 0 3.3.4 4.5 1 2.3 1.2 6.4 1.6 7.1 4.5-5.3.9-10.4-.6-15.6-1-.9-3.4 1.3-4.5 4-4.5zm90.1 8.7c5 .3 7.2 6.9 5.5 11.1-2.4.8-5.8.5-7.7-1.4-.2-3.2-.2-7.5 2.2-9.7zm-76.7 8.3c.8-.1 1.5.2 2 1.2-6.6 10.2-10.3 22.2-11.5 34.3.5 8.3-.1 16.7.2 25.1-6.1-.2-13-1.9-18.6-5-.2-5.1-.2-10.3.1-15.4 1.6-7.6 5.5-14.4 8.7-21.4 3.4-6.9 7.8-13.9 15-17.2 1.2-.5 2.8-1.5 4.1-1.6zm28.4 14.6c8.8 3.5 17.1 10.8 20.5 19.8 2.5 3.5 5.2 6.7 7.7 10.2 6.3 5.7 4.2 16.5 11.8 21.1 13.3 9.1 22.4 23 35.8 31.8 7.2.9 14.2 2.9 20.9 5.5 5.5 4.5 12.8 4 19.4 3.7.3 6 1.7 14.2-5.4 16.8-5.8 1-12.2 0-17.7 2.5-4.2 4.2-2.3 12.1-7.9 15.3-3.9 1.8-8.8 1.4-12.3-1-15.9-2.6-31.4-8.2-47.6-7.2-2.3-1.9-5.4-2.8-7-5.5-6.3-10.9-11-23-19.4-32.6-3.6-6.1-11.5-10.5-10.1-18.5 1.2-9.7-5.9-18.1-4.1-27.8 1.6-3.6 4.9-6.1 7.2-9.3-1.3-1.7-1.8-3.9-2.3-5.9 4.4.2 5.5 5.2 7.8 8.2 4.8 6.9 5.7 15.5 8.8 23.1 9.2 9.8 19.2 19.2 25.8 31.1 3.9 7.1 10.3 13 18.1 15.5 11.8 1.2 24.8 1.2 34.9 8.1.8-.2 1.7-.5 2.6-.5-12.3-6.1-25.8-7.6-39.1-9 .3-3.4 3.9-5.1 6-7.5-2.6 2-5.1 4.2-6.9 7.1-6-1.7-8.9-7.3-12.3-12-7.1-11.1-16.9-20.1-25-30.2-3-11-8.4-20.8-14.9-30-3.6-6.8 3.9-11.5 7.5-16.1-.2-1-.7-2-1.2-2.9 1.7 5.1-6.3 8.6-8.1 13.8-5.9-.2-5.3-7.9-4.7-12.2 2.5-3.9 6.6-5.3 11.1-4.3.3.3.5.6.7.8-.3-.6-.5-1.2-.6-1.9zm.6 1.9c.3.7.6 1.3 1 1.9-.2-.6-.5-1.2-1-1.9zm32.7 1c11.7 4.6 18.8 16.8 24.7 27.3 6.9 3.1 11.5 9.1 17.1 13.9 6.9 5.7 11.4 14 13.7 22.6 1.9 8.2-6.7 18.5-15.2 14.1-6-5.8-12.6-10.8-18-17.2-4.8-5.5-11.7-9.1-15.9-15.1-3-8.2-8.2-15.3-12.2-22.8l2-2.4h-3.3c-4.3-3.1-8.7-8.5-5.8-14 2-4.8 7.3-6.3 12-5.2.2-.3.7-.9.9-1.2zm-50.8 2.9c1.4-.1 2.9.1 4.5.6-1.2 4.4 1.6 7.5 2.4 11.4-6.6 2.8-14.5 3.8-18.5 10.6-2.7-8.8 1.9-22.2 11.6-22.6zm252.9 5.5c2.5 4.5 2.1 10 3.3 15-6.2-2.2-9.2-10.8-3.3-15zm-183.8 4.5c5.9.2 12.1.9 18.1.9 5.2 5.1 4 13.7 2.8 20.1-3.3 3-5.6-2.3-8.3-3.7-5.4-3-7.4-9.3-11.7-13.4-1.1-1-1-2.6-.9-3.9zm-65.4 5c1.3 0 2.6.2 3.8.4 2.5 6.1-5.1 8.8-6.3 14.2l-1.4.2c-2.4-3.6-2.2-8.2-1.4-12.1 1.2-2.1 3.2-2.6 5.3-2.7zm243.5 9.7c.2 0 .5 0 .7.1 1.3 14.6 6.1 28.7 8.4 43.2.6 13-6.2 24.7-14.5 34.1-6.2-.4-12 2.9-18.2 3.1-.2-4.1 1.6-7.9 2.7-11.7 5.6-20.8 12-41.4 17.8-62.2.7-2.2.1-6.8 3.1-6.6zm-252.4 4.4c1.3 0 2.7.1 3.9.2 1.2 2.6 2.4 5.4 1.8 8.3-3.9.1-7.6-.9-11.5-.7 0-1.8.1-3.5.3-5.2 1.3-1.9 3.4-2.5 5.5-2.6zm7 12.8c.3 0 .6.1.9.1.8 3.5-.1 8.2-4.2 9-.5-3.2-.8-8.9 3.3-9.1zm-19.4.9c2.9 7.9 8.7 14.9 11.8 22.4-6-6.3-9.1-14.3-11.8-22.4zm18.2 7.4c5.1.6 2.9 8.9 5.7 12.6 7.5 10.3 14.4 21.2 18.4 33.3 3.2 9.8 12.4 19.3 23.3 18.2 12.3 1.3 22.3 10.4 34.7 10.6-3.1 5.7-10.6 4-15.9 3.6-6.7-1.9-13.6-2.8-20.5-3.2-6-2.1-14.2 1.9-18.3-4.2.8-2.6 2.9-4.5 4.7-6.4-3 1.6-3.7 5.9-7 6.9-4.2-1.1-5.8-5.8-7.1-9.5-2.7-10.9-7.8-21.2-15.1-29.9-1.6-2.7-1.1-6-1.3-9.1.1-7.6-3.9-15.3-1.6-22.9zm-111.8 4.3c9.6-.1 13 13.7 6 19.7-11.7 4-16.5-15-6.9-19.6.3 0 .6-.1.9-.1zm78.5 1.9c8.4 2.3 17.9 4.3 24.4 9.9-8.5-.8-16-5.6-24.4-7zm-55.7 1.6c6.7 0 10.2 8.6 7.9 14.3-1.1 5.5-8.9 7.9-13 4.2-5.6-5.1-6.4-18.5 3.7-18.4.5-.1.9-.1 1.4-.1zm19.9 4.4c2.5 0 5 .4 6.9 2.1 4.3 5.3 4.6 14.6-1.7 18.5-10.9 3.5-18.4-13.6-9.7-20.2 1.4-.1 2.9-.3 4.5-.4zm-9.5 9.2c.2 3.3 1.3 6.5 2.3 9.7-2.6.2-5.2-.5-7.6-1.4.5-3.1 3.7-5.7 5.3-8.3zm-67.4.1c12 6.7 25.4 9.7 38.8 11.7 21.7 5.9 44.1 9 66.5 10.4 2.1.2 6.1.3 5.3 3.3-22.5-1.2-45.1-3.1-67.2-8.2-15-2.7-31.3-4.6-43.2-15.1-.1-.5-.2-1.5-.2-2.1zm150.5 13.5c2.9 4.8 7.3 9.3 7.6 15.1-5.5 5.2-12.7 8.7-19.7 11.4 0-4.6.1-9.2.1-13.7.1-2-1.6-4.6 1-5.6 3.8-2.1 6.6-6.3 11-7.2zm-44.5.5c5.4 3 10.6 7.8 17.3 7.2 5.5-.2 9.5-4.4 14.3-6.3.1 4-4.9 5-7.3 7.5-4.3 3.7-10.2 2-14.9-.1-3.8-1.5-9.1-3.6-9.4-8.3zm279.7 16.9c-.1 4.9-6 6.6-8.9 9.9-4.3 2.9-7.7 7.8-12.8 9 0-.9 0-2.6.1-3.5 7.6-4.5 13.8-11.3 21.6-15.4zm-118.1 8.1c1 0 1.8.1 2.7.5.2 3.5-3.8 3.8-6.2 4.9-4.2 1.3-8.2 3.6-12.7 3.6 1.9-3.2 3-8.2 7.7-8 2.8.3 5.8-1 8.5-1zm-147.5 11.9c.2 0 .4 0 .6.1-1.3 7.9-4.2 15.5-6.3 23.2 3.1-7.5 8.7-14.6 7.8-23 2.3.2 5.7-1.1 7.2 1.2-1.2 13.7-10.8 24.6-19.6 34.4-2.2 1.6-2.1 4.8-4.2 6.3l.5-.2c-.9 10.2-2.2 20.8-6.5 30.2-7.1-1.4-12.9 3.8-19 6.3 3.3 1.2 6.7 1.3 10.2 1.7-.7 7.9-7.4 13.1-11.3 19.6-1.9 1.8-2.9 5.2-5.8 5.6.6-9 2.2-18 4.5-26.7 4-6.6 10.9-10.7 15.2-17 .1-4.7 3.6-8.6 4.8-13.2-9.5 10.9-18 22.7-26.2 34.5-1.4 3.4-4.9 6.2-4.6 10.2 2.4-1.9 4.6-4.6 7.8-4.9-.6 5.5-3.8 10.4-3.7 16.1-1.2 3.1-.8 7.5-3.4 9.8-2.6-3-5.5-5.9-8.5-8.6-3 3.1-4.3 7.2-5.7 11.1 2.1-2.9 6.4.3 9.2.9.8 2.2-1.3 3.5-2.3 5.2-2 2.8-1.5 6.6-3.2 9.5-2.8-.3-5.7-1.9-7.2-4.2l-.8.4c1.5 1.8 3.2 3.4 4.5 5.3 1 3.4-1.9 6.3-1.4 9.6-.2 8.2-5.5 15.1-6 23.2-5.6 3.8-12.3 6.1-17.3 10.8-2.8 6.7-.3 14-.8 21.1-2-.6-2.1-3-3.1-4.5-3.7-6.9-9.7-12.2-15.8-17-.3-5.6-.4-11.4 0-17 1.8-2 4.3-3.3 7-3.1.2 1.2.2 2.6.7 3.8 5.3-2.2 13.3.1 18 3.2 2.4-1.9 4.2-4.3 6.3-6.5.5-3.9-.3-8 .4-11.9-.3-.1-1.1-.4-1.5-.5-1.3 5.3-2.1 10.6-4.3 15.6-2.8.5-5.6.2-8.3-.1-1.2-5 2.9-9.1 3.2-14-2.2 4.1-4 8.5-6.9 12.1-4.3 1.8-7.7-1.6-5.7-5.8-.8-.5-1.6-1.1-2.4-1.6-1.2-4.6 4.9-5.3 5.8-9 7.5-24 18.6-47 34.9-66.3 7-6.9 12.8-15.1 20.9-21 6.9-7.8 16.1-13.3 22.1-21.9 6.2-8.5 7-19.8 14.2-27.8 1.7-2 2.8-5.4 6-5.2zm-14.5 42.2-1.1.6c.4-.1.8-.3 1.1-.6zm-129.2 14.6c-37.3 4.9-72.76 18.7-106.85 34.1-3.39 1.2-5.69 3.9-7.59 6.8-.05.1-.2.3-.2.4-2.18 4.9-4.2 10-4.85 15.3.45.5.9 1.1 1.36 1.6 23.48-17.1 49.16-31 74.33-45.4 13.4-7.8 29.4-8.3 43.8-12.8zm254.2 121.6c-6.8 8.2-13.7 16.5-21.4 23.9-11.9 10.7-18.1 25.8-25 39.8-1.4 6.7-5.9 11.8-10.8 16.3 4.3-2.8 9.3-4.4 13.3-7.6 3-2.2 1.9-6.3 2.7-9.4-1.8-10.9 5.8-19.9 10.9-28.8 9.5-11.9 21.7-21.5 30.3-34.2zm-179.9 39.2c1.3 4.6-3 8.2-4.1 12.4-1.1.1-2.1.2-3.1.2-.5-5.3 3.3-9.7 7.2-12.6zm2.6 2.3c11.6 6.5 18 19.4 25.5 30.1 4.4 4.7 2.8 11.5 2.6 17.3.1 6.1-6.2 11-12 10.3-3.1-4.2-5.8-8.6-8.1-13.3-4.5-8.6-11.5-15.4-17.4-22.9 5-6.3 6.3-14.3 9.4-21.5zm-18.1.5c1.4.2 1.9 2.6.1 3-1.9.6-2.7-2.5-.8-2.9.2-.1.5-.1.7-.1zm-60.8.7c.8 0 1.4.4 1.8 1.5 5.3 14.9 2.4 30.9 4.4 46.3-1.6-.4-1.9-2.2-2.7-3.3-6.3-13.7-9.2-29.7-4.5-44.3.3-.1.7-.2 1-.2zm69.7 10h.6-.6c-.9.1-1.5.4-1.9 1 .4-.6 1-1 1.9-1zm-1.9 1c0 .1-.1.2-.1.2s.1-.1.1-.2zm-.2.4c0 .1-.1.1-.1.1s.1 0 .1-.1z" fill="#121212"/>
  </g>a
</svg>
