<svg height="1080" width="1920" xmlns="http://www.w3.org/2000/svg">
  <path id="background" d="m0 0h1920v1080h-1920z" fill="#a55f5a"/>
  <g id="transform" transform="translate(0,0) scale(1.00)">
    <path id="color1" d="m1100.86 125.08c-.68.01-1.33.078-1.88.15-8.32 1.15-16.76 1.44-25.04 2.78-3.66.34-2.36 4.75-3.06 7.23-4.58-.44-9.56-2.979-13.9-.279-3.11 1.88-3.5 5.65-4.26 8.84-4.77.43-10.09 1.789-12.33 6.529-5.3 9.99-11.43 19.579-19.37 27.699-15.73 14.6-34.27 25.702-53.12 35.772 6.93.26 13.34 3.24 18.37 7.91 7.99-1.12 10.691 8.229 16.87 11.519-2.37-5.75-4.111-11.841-3.781-18.121 1.641 5.63 4.401 11.921 10.751 13.371-6.46-13.39-4.19-30.18 3.47-42.56-.18 10.73 6.63 21.29 16.53 25.43-1.82-3.87-4.35-7.349-6.19-11.209 2.28 2.01 4.3 4.308 6.75 6.138 3.21-3.51 6.73-6.709 10.36-9.779 1.36-4.17 1.9-8.65 4.1-12.5.66 2.73 1.13 5.52 2.1 8.17 4.88-2.08 9.15-5.3 13.94-7.57 2.29-8.84-3.01-17.001-11.1-20.321 10 1.6 21.67 1.98 28.42 10.76 1.95-1.87 4.22-3.328 6.66-4.488.61-5.4-1.07-10.57-3.06-15.49 2.07 1.21 4 2.68 5.83 4.25 4.24-.41 7.3-3.711 8.81-7.491 3.3-7.68 6.79-15.481 8.05-23.791.29-2.482-1.89-2.978-3.92-2.949zm-251.131 43.004c-22.652.283-44.247 10.484-64.258 20.477-47.2 22.82-81.981 69.89-88.801 122-1.31 9.67-3.31 19.418-2.19 29.218.19 2.2 2.931 3.871 4.911 2.651 5.23-2.95 8.659-8.091 13.279-11.821 14.55-10.77 33.701-13.648 51.301-10.898 6.15.75 11.708 3.939 16.388 7.889 5.66 5.15 7.94 12.741 12.26 18.861 2.19 3.16 6.33 1.92 9.41 1.18 8.09-3.98 16.891-6.151 25.211-9.571 17.49-5.99 34.27-14.189 51.93-19.509-10.55 24.83-22.621 49.08-33.641 73.74 4.9 3.81 11.251 5.059 16.201 8.869 13.65 7.62 22.51 23.15 21.59 38.82 1.15 16.83-8.259 32.939-21.359 42.949-3.24 3.47-7.902 4.56-12.182 6.09-2.27 3.22.972 6.312 4.192 6.602 36.8 6.3 73.608-8.621 103.068-29.861 1.25-8.96.29-19.221 5.9-26.831 7.35-5.07 16.391-6.93 24.891-9.24-.34-5.68-.17-11.42 1.07-17-2.65 2.05-4.75 4.68-6.97 7.16 1.57-4.01 3.639-7.87 4.359-12.16-5.37 4.53-11.409 8.231-18.139 10.371 7.64-6.06 11.419-15.54 12.049-25.08-2.6 2.02-5.559 3.49-8.699 4.44-1.84 3.61-1.8 7.7-2.08 11.64-.95-2.96-1.391-6.05-1.481-9.15-8.69 3.17-17.779 5.141-26.939 6.291-16.5.78-33.739-4.77-45.439-16.74-7.76-8.58-13.27-20.881-9.75-32.491 2.06-8.85 5.48-17.689 11.65-24.509 3.23-4.14 6.95 3.039 11.1 1.299.28-2.56.169-5.14.449-7.7 4.16-.5 8.351-.78 12.461-1.65 1.07-.24 2.15-.479 3.25-.699.52-9.89-4.452-19.351-12.352-25.131-7.58-5.22-14.349-11.49-21.629-17.11-3.33.87-6.79.65-10.17 1.12-3.28 1.56-2.199 5.801-2.269 8.701 3.58 5.41-4.101 2.588-5.781 6.228-.53 3.06-.1 6.19-.51 9.26-13.59 6.51-29.01 9.002-44.02 8.592-9 .11-18.411-1.292-26.131-6.192-12.47-8.64-18.439-24.389-18.259-39.189-1.31-23.76 9.379-47.62 26.929-63.48 13.94-14.06 29.92-26.929 49.01-33.139 3.01-.17 3.151-4.861-.039-4.781-3.278-.394-6.536-.557-9.771-.516z" fill="#a5b8bb"/>
    <path id="color2" d="m1197.65 127.994c-2.47.027-4.95.417-7.4 1.227 11.29 5.31 9.52 21.649 4.88 31.009-.77-5.71.32-11.629-1.56-17.179-.56 11.09-8.64 23.25-20.66 23.16 2.92-7.01 8.86-12.251 15.96-14.811-14.85-2.86-30.01 2.77-41.93 11.44 1.79-9.69 4.47-20.5 12.75-26.74-20.35-.68-38.19 12.49-48.57 29.15.02-8.48 3.63-16.48 9.78-22.26-12.37 2.76-23.08 11.101-28.81 22.401-1.54-1.93-2.83-4.02-4.17-6.08-1.83-1.57-3.76-3.04-5.83-4.25 1.99 4.92 3.67 10.09 3.06 15.49-.12 3.85-.55 7.698-1.29 11.478-1.88-2.27-3.54-4.69-5.37-6.99-6.75-8.78-18.42-9.16-28.42-10.76 8.09 3.32 13.39 11.481 11.1 20.321-.62 6.23-1.83 12.5-4.37 18.24-4.87-1.42-7.31-6.54-9.57-10.67-.97-2.65-1.44-5.44-2.1-8.17-2.2 3.85-2.74 8.33-4.1 12.5-1.02 4.1-.52 8.32-.4 12.49-3.53.38-7.13-.601-9.96-2.711-2.45-1.83-4.47-4.128-6.75-6.138 1.84 3.86 4.37 7.339 6.19 11.209-9.9-4.14-16.71-14.7-16.53-25.43-7.66 12.38-9.93 29.17-3.47 42.56-6.35-1.45-9.11-7.741-10.751-13.371-.33 6.28 1.411 12.371 3.781 18.121 1.39 2.26 2.93 4.431 4.51 6.571-10.6-3.94-23.1-2.97-32.48 3.59-.51.88-1.03 1.758-1.52 2.648 8.2-.47 17.361-.899 24.481 3.871-16.15 3.88-34.702 10.83-41.432 27.44 10.6-5.25 22.63-5.491 34.16-4.071-5 7.4-14.089 10.731-22.769 9.121 5.58 3.94 12.661 3.201 19.041 2.241-5.43 10.22-18.472 9.859-28.012 6.589 4.23 4.48 9.521 7.661 14.801 10.741-6-.72-12.27-3.001-15.93-8.061-1.16-1.3-2.59-2.361-4.4-2.371 1.21 7.26 5.56 13.851 11.43 18.221 2.04.72 4.07 1.52 5.97 2.59-4.03 2.52-9.07 2.921-12.9 5.861-8.93 6.42-13.941 16.999-15.891 27.609 6.93-8.89 19.51-11.51 29.84-7.74-6.63 4.91-13.608 10.329-16.068 18.619 5.95-5.22 15.898-9.059 22.468-2.849-8.54 10.99-23.1 19.45-37.33 15.4 9.82 7.01 21.86 10.189 33.76 11.109-4.22 5.69-7.24 12.251-6.93 19.561.09 3.1.531 6.19 1.481 9.15.28-3.94.24-8.03 2.08-11.64 1.99-4.15 3.39-10.171 8.32-11.571.41 2.34.579 4.741.379 7.131-.63 9.54-4.409 19.02-12.049 25.08 6.73-2.14 12.769-5.841 18.139-10.371-.72 4.29-2.789 8.15-4.359 12.16 2.22-2.48 4.32-5.11 6.97-7.16.31-.24.931-.738 1.241-.988 1.08 4.74 1.44 9.609 2.49 14.359 1.07-7.49-1.11-15.671 2-22.701 3.17 4.24 6.859 8.42 12.209 9.82-5.14-5.25-7.859-12.53-5.71-19.82 3.69 6.04 7.35 13.79 15.21 14.92-2.37-5.24-5.19-10.569-4.53-16.539 4.36 6.33 10.48 11.451 18.05 13.381-6.01-8.85-7.31-19.92-4.64-30.17 6.04 8.49 14.57 18.35 26.06 17.34-5.87-6.18-6.38-14.951-3.97-22.781 3.05 7.42 6.75 14.651 12.54 20.361-5.47-11.21-5.76-26.261 4.04-35.201.84 4.03 1.17 8.15 1.65 12.24.04-5.74.95-11.649 4.3-16.459-.79 8.77-.29 18.168 4.88 25.648-2.38-7.58-2.48-15.96.68-23.33.97 8.1 1.42 16.731 5.93 23.821 8.25 9.1 12.46 22.141 24.42 27.611-6.22-8.27-5.27-20.101.77-28.191-.98 9.08 2.35 18.18 8.23 25.05-2.77-9.69-.71-19.81 1.47-29.4 9.85 5.16 19.06 15.539 18.33 27.439 3.83-5.96 3.38-13.318 2.84-20.058 3.32 10.36 2.91 22.309-2.45 31.929-2.03 3.83-6.01 5.78-10.01 6.86 18.26 1.09 36.85-11.08 43.71-27.99 2.28 12.77.71 26.85-7.49 37.32 11.63-3.67 20.98-12.679 26.69-23.289-.01 6.74-1.48 13.429-4.51 19.459 5.57-3.51 8.92-9.281 12.32-14.721 1.34 6.86.75 14.061-2.52 20.301 5-4.81 9.35-10.38 11.81-16.94-.37 4.42-1.68 8.671-2.92 12.911 1.51-1.59 3.05-3.142 4.83-4.452.4 3.53.33 7.091.5 10.641 2.15-2.24 3.48-5.071 4.89-7.791 3.38 9.55 3.73 20.401-.18 29.861 5.62-3.5 8.41-9.66 11.66-15.14-1.26 8.16-2.54 16.69-6.84 23.89-2.88 4.85-8.35 7.07-12.02 11.1 6.56 2.61 14.08 1.21 20.81-.34-5.06 5.48-11.21 10.05-18.5 12 8.26-.44 16.34-2.66 23.76-6.32-.56 1.17-1.17 2.32-1.69 3.5 5.6-1.12 12.45-2.29 17.22 1.68 4.62 5.79 1.94 13.76-.29 19.99.96 2.44 1.45 5.37 3.65 7.06.49-2.8.62-5.691 1.65-8.371 4.62.94 8.24 4.441 12.92 5.301-.26-5.79-5.28-10.45-4.08-16.51 3.84 2.3 6.21 6.201 8.77 9.731 1.14 1.12 2.33 2.238 3.55 3.318-.23-3.13-.41-6.268-.41-9.408-.6-6 1.55-12.231 5.33-16.871 1.14 10.09 8.99 17.27 17.16 22.33-4.92-7.55-5.43-16.541-3.5-25.141 7.11 4.85 11.95 13.15 11.23 21.92 2.96-5.92 5.83-12.16 6.41-18.83.5-5.39-2.07-10.28-3.63-15.26 8.55 3.51 13.8 12.292 15.39 21.112.55-3.79 1.54-7.67.84-11.5-1.09-3.91-4.36-6.612-6.58-9.862 14.53 3 27.99-5.209 37.9-15.029-8.57 1.29-17.75-2.48-21.71-10.43 6.41 1.49 14.83 4.239 19.88-1.631-7.59.32-16.09-3.558-17.88-11.548 11.87 1.74 25.95.989 33.76-9.541-14.12 1.4-32.5-6.629-33.94-22.299 8.07.62 17.51 5.549 16.78 14.949 1.5-8.6-2.06-17.01-8.92-22.23 8.62-.19 13.45 8.12 16.01 15.21.37-6.82-1.1-13.83-5.8-19 13.97.69 32.02-4.881 35.02-20.451-12.15 4.59-24.65-2.11-34.5-8.91-4.85-3.91-9.95-8.438-11.65-14.648 7.42-1.78 14.2 2.849 19.23 7.799-1.7-10.04-11.28-14.75-19.17-19.34 6.18-2 13.39-3.179 17.08-9.219-8.13 3.05-19.16 2.55-24.17-5.5 6.94.46 13.66-2.55 18.46-7.49 7.81-7.4 15.56-16.75 15.56-28.09-10.58 7.04-24 4.129-35.19.299-4.54-1.77-9.43-3.47-12.7-7.28 8.22-1.51 17.57-2.581 22.98-9.861-9.74.62-19.76-.809-28.29-5.769-3.59-2.15-8.16-4.6-8.63-9.25 9.82-2.54 20.68-3.211 29.97 1.589-.03-7-5-12.499-9.72-17.089-8.63-8.55-20.61-15.06-33.11-13.12 8.23-9.87 15.81-24.4 7.92-36.67-6.58 15.5-27.16 21.24-41.86 15.53 4.32-4.09 10.12-5.72 15.79-6.94-5.2-4.96-12.74-3.019-19.17-3.689 3.41-2.87 7.88-3.602 12.11-4.522-10.54-3.53-21.91-1.869-31.82 2.741 4.45-13.45-2.59-27.13-10.43-37.78-5.96-8.758-16.33-15.444-27.01-15.326z" fill="#8a4139"/>
    <path id="color3" d="m966.023 213.758c-9.377-.074-18.637 1.854-27.994 2.191-11.35.98-23.308.441-33.898 5.201-6.66 2.79-11.902 9.59-9.942 17.1.52 1.77 1.042 3.55 1.532 5.33 7.08 14.22 19.969 24.34 33.019 32.82 7.3 4.96 16.12 6.33 24.76 6.19 2.15 3.3 2.33 7.83 4.49 11.32 3.66 5.06 9.93 7.341 15.93 8.061-5.28-3.08-10.571-6.261-14.801-10.741 9.54 3.27 22.582 3.631 28.012-6.589-6.38.96-13.461 1.699-19.041-2.241 8.68 1.61 17.769-1.721 22.769-9.121-11.53-1.42-23.56-1.179-34.16 4.071 6.73-16.61 25.282-23.56 41.432-27.44-7.12-4.77-16.281-4.341-24.481-3.871-6.22 10.07-12.781 20.712-23.461 26.602-8.53-17.81 1.962-39.722 18.032-49.352 4.73-2.57 10.889-3.119 15.539-.059-1.65.79-3.969 1.089-4.379 3.219-1.57 5.6-2.491 11.372-4.211 16.942 9.38-6.56 21.88-7.53 32.48-3.59-1.58-2.14-3.12-4.311-4.51-6.571-6.179-3.29-8.88-12.639-16.87-11.519-5.03-4.67-11.44-7.65-18.37-7.91-.626-.024-1.251-.038-1.877-.043zm306.197 280.873c.04 3.14.18 6.278.41 9.408-1.22-1.08-2.41-2.198-3.55-3.318-.55 5.1-.15 10.279-1.07 15.349-1.8 6.93 4.97 11.72 7.07 17.77 15.62 27.95 17.53 60.85 17.63 92.16.4 13.73-.79 27.61-4.33 40.92-5.65-2.77-4.34-9.921-5.97-14.981-6-30.22-28-58.078-58.48-66.058-2.63-1.06-4.45 1.418-5.91 3.158-8.97 11.37-17.57 23.04-26.57 34.4-3.36 4.49-9.25 5.441-14.38 6.571-22.09 3.58-44.49 5.549-66.86 4.529-1.59.24-1.87-1.13-2.04-2.35 4.58-5.76 11.84-10.71 12.17-18.74-10.35 8.02-18.6 18.422-26.64 28.682-8.07-3.03-15.57 2.959-21.96 7.109-9.39-2.44-18.07-7.52-25.97-13.08-25.66-18.16-38.25-52.13-32.15-82.74 1.62.15 3.2.5 4.84.74-2.2-10.31-6.93-20.65-4.63-31.39.43-4.48 2.35-11.509-3.26-13.459-5.6-1.12-12.241-1.462-17.201 1.808-1.44 3.49-3.1 7.012-3.34 10.842-.36 10.76-6.788 19.829-10.228 29.709-1.34 29.05 7.928 57.3 7.228 86.33.26 16.78-1.53 33.51-3.33 50.17.12.67.351 2.01.461 2.67 5.04-.58 10.151-2.591 15.221-1.221 3.499 2.23 5.299 6.11 7.149 9.67 5.71-3.87 11.83-7.26 18.41-9.43 7.64-2.42 15.5.51 22.95 2.26 8.67 2.59 17.5 4.801 25.85 8.381 8.13-3.01 16.21-6.14 24.27-9.34 3.58-1.51 7.7-2.85 9.71-6.48 2.9-4.22 4.6-10.06 9.88-11.95-8.6 16.74-10.9 37.309-3.26 54.809 2.79 6.95 8.9 11.992 15.87 14.432 11.25 3.75 23.38 4.09 35.08 2.67 21.94-1.22 44-4.751 64.61-12.621 13.53-5.07 25.01-14.38 34.85-24.77 1.42 24.71-6.68 49.191-19.37 70.141-7.3 11.29-18.06 20.059-30.21 25.689-21.89 11.42-47.15 15.401-71.62 13.231-23.05-3.04-46.26-9.29-69.62-5.75-6.2 2.01-12.83 3.189-19.19 1.109-15.19 2.09-30.54.87-45.78.17-11.119 18.87-25.611 35.891-43.091 49.131-2.1 1.29-4.859 1.059-7.019.099-9.12-5.23-15.681-13.641-23.651-20.291-8.59-8.97-16.899-19.508-18.869-32.068 3.66-1.55 8.239-3.161 8.869-7.721-.03-6.53-3.149-12.901-1.539-19.461 2.93-13.38 9.41-25.589 14.91-38.019.46-1.3 1.36-2.921.26-4.151-6.19-7.25.669-16.949-2.291-25.189-1.42-2.7-3.329-5.619-6.609-6.039-7.37-1.1-14.979-.692-22.209 1.068 2.08 6.21 1.59 14.242-4.33 18.192-6.22 3.44-13.622 1.769-20.352 3.129-23.41.85-48.089-.321-69.299-11.321-23.82-10.72-46.389-23.989-70.179-34.699 2.84-4.81 5.77-9.569 8.65-14.359.04-1.71 1.219-4.612-1.281-5.022-5.47-1.77-11.851-3.649-17.311-.949-4.55 4.93-7.45 10.989-10.67 16.779-.88 2.02-3.42 2.302-5.09 1.102-12.5-9.09-29.07-9.331-43.82-7.541-19.97 1.88-40.179 7.761-55.969 20.551-7.64 6.61-14.79 15.339-15.23 25.869 2.16 8.18 10.94 12.089 18.18 14.849 26.24 8.9 55.601 11.921 82.361 3.631 7.22-4.32 12.189 5.92 19.599 4.6 13.3-1.52 27.6-4.809 40.17 1.791 13.01 6.93 25.18 15.389 38.19 22.349-6.11 4.42-12.859 8.15-17.789 14.01 1.87 2.29 4.259 4.469 7.469 4.119 18.99-.29 37.99-.258 56.98-.228 6.77 0 13.28 2.098 19.9 3.228 8.94 1.98 18.881 2.591 26.241 8.651-22.34-1.83-44.611-5.649-67.121-5.209-13.67-.09-27.27 2.02-40.94 1.58-3.38.05-6.401-1.511-9.131-3.321-3.55 5.46-8.509 10.079-11.039 16.139-1.5 4.71 4.72 5.59 8 5.82 20.72 1.05 41.54-1.148 62.25.702-5.46 1.75-11.289 1.549-16.859 2.769-26.04 3.83-49.442 16.67-72.262 29.02-5.04 3.13-10.209-.05-15.029-1.75-6.09-1.32-7.769 5.951-10.619 9.711-3.59 5.3-9.312 12.75-16.612 9.75-7.77-4.24-16.109 1.699-21.369 7.279-9.63 9.17-11.339 23.05-12.689 35.58.01 10 3.259 19.56 5.959 29.08 3.96 12.17 8.69 24.96 18.83 33.4 9.65 7.53 20.24 13.74 30.07 21.01 9.48 5.75 18.441 12.75 29.131 16.13 3.16 1.08 6.598-2.15 9.478.27 8.04 5.26 15.391 11.6 23.961 16.07 4.08 2.14 8.9 4.49 13.58 2.93 6.63-2.99 9.18-10.3 13.36-15.7 3.47 1.35 6.899 2.84 10.359 4.27-4.72 7.48-8.109 17.4-16.969 20.9-14.03 4.59-30.42 2.09-42.91 11.13-7.15 5.28-17.16 7.2-25.3 3.05-5.76-2.22-8.151-8.39-12.741-12.07-8.08-6.7-18.63-9.09-27.41-14.63-8.34-4.44-16.74-8.92-24.17-14.8-19.9-14.201-34.42-36.619-37.58-60.989.04-19.61 5.87-38.601 11.17-57.311-10.99 8.87-20.659 19.441-29.129 30.721-4.86 6.2-7.321 13.83-8.121 21.6-2.06 16.25-2.208 32.718-1.078 49.048.94 7.29 1.709 15.931 8.119 20.681 12.54 9.73 26.291 17.73 39.641 26.25 13.3 12.16 27.549 24.65 45.369 29.42 18.25 4.64 36.959 7.07 55.599 9.5 2.61.06 5.931 1.34 7.891-1.05 8.54-9.49 16.581-19.49 25.971-28.18 3.23-3.16 8.059-2.66 12.199-2.76 11.34.13 22.78.25 33.93-2.12 14.66-2.34 27.971-9.23 41.131-15.73 27.09-12.85 53.099-31.25 83.929-33.13 7.76-.69 16.21-.431 22.84 4.209 7.41 4.681 10.37 13.491 16.68 19.261 3.27 3.16 8.01 3.57 12.17 4.91 15.51-2.51 30.82 2.75 46.32 1.46 3.64.04 6.74-3.1 6.05-6.82-2.28-19.14-10.97-37.95-8.48-57.44 8.03-1.51 17.81-.169 23.23 6.641 14.29 13.57 26.62 28.99 38.39 44.749 16.75 22.15 32.51 45.23 45.08 70.04h308.49c2.76-11.96.24-24.21-1.98-36.03-6.07-28.19-13.16-56.19-22.12-83.62-.31 9.92 2.62 19.68 2.38 29.64.08 11.49.59 24.57-7.2 33.94-11.16 11.15-27.51 15.03-42.85 15.03-25.4-.96-49.99-8.03-74.41-14.49-38.21-11.64-73.49-33.151-101.25-61.861-14.7-16.57-20.61-38.79-26.03-59.75-1.8-3.99 3.52-2.89 5.74-1.99 8.56 21.29 14.67 45.022 31.69 61.512 16.08 17.03 36.45 29.259 57.28 39.599 25.45 11.96 52.17 21.63 80 26.24 14.63 2.36 29.85 3.37 44.44.26 9.73-2.23 19.81-7.7 23.58-17.47 3.57-11.17 1.51-23.011.46-34.401-2.31-20.89-7.75-41.249-11.53-61.859-15.84-38.32-40.43-72.759-69.68-102.029-16.59-17-35.26-32.001-55.65-44.211-3.24-2.33-8-4.07-8.63-8.53-1.6-6.84-1.88-14.06.17-20.82 10.54-37.17 21.87-75.15 20.36-114.18-3.51-33.4-14.9-65.489-28.69-95.929-5.87-11.82-11.59-23.88-19.62-34.42zm-219.31 67.719c-.06 2.82 1.72 5.831 1.06 8.531-6.58 7.48-1.72 17.758-1.96 26.558 21.89-11.24 47.41-8.079 71.02-11.929 9.13-1.04 18.68-4.13 24.51-11.67-17.2 3.71-34.88 5.141-52.45 4.381-7.08-.19-13.75-3.831-20.91-2.731-3.51.06-7.8 1.771-10.61-1.099-3.94-3.66-7.12-8.021-10.66-12.041zm-81.359 13.48c-10.07 34.02-1.481 69.72 8.969 102.52 3.88-34.65-11.689-67.91-8.969-102.52zm-255.051 113.76c2.66 9.15 3.401 22.55-.119 32.91-1.69 3.62-4.27 8.78-9 8.26-1.22-14.27 2.359-28.64 9.119-41.17zm307.14 10.258c-5.22.122-10.41.943-15.47 2.802.76 2.13 1.48 4.289 2.13 6.469 9.64-1.94 19.4-4.499 29.29-4.199 6.08.12 12.2 1.079 18.27.619-11.01-2.853-22.71-5.961-34.22-5.691zm259.15 110.961c.66.13-.23 2.413-.56 3.47-5.47 11.2-13.85 20.63-22.03 29.92-12.88 13.25-31.66 20.611-50.12 19.561-.27-2.48-.22-5 .27-7.44 16.05-1.66 31.67-7.479 44.6-17.179 6.41-4.81 11.87-11.052 14.54-18.702 3.66-3.3 8.01-5.999 12.04-8.919.64-.56 1.04-.755 1.26-.711zm-251.27 13.546c5.98-.058 8.54 8.58 14.47 9.786 4.06.82 6.08 5.068 9.98 6.138 4.41-.56 8.98-1.879 13.4-.609 6.43 3.14 9 10.36 13.79 15.24 3.4 2.25 7.06-.669 10.61-.519 9.51 5.42 18.22 12.31 28.43 16.49 4.69 2.73 10.35.878 14.85.058 11.81 44.69 27.24 89.881 55.92 126.811-46.79-19.3-93.63-41.85-130.96-76.76-26.28-24.48-48.6-53.351-64.75-85.451 11.43-1.51 22.07-5.629 32.29-10.869.7-.21 1.35-.309 1.97-.315z" fill="#2d3342"/>
    <path id="color4" d="m976.02 221.148c-2.713.077-5.434.856-7.799 2.141-16.07 9.63-26.562 31.542-18.032 49.352 10.68-5.89 17.241-16.532 23.461-26.602.49-.89 1.01-1.768 1.52-2.648 1.72-5.57 2.641-11.342 4.211-16.942.41-2.13 2.729-2.429 4.379-3.219-2.325-1.53-5.028-2.158-7.74-2.082zm-80.299 22.432c-3.62 2.68-4.371 7.161-5.991 11.051-3.55.96-9-1.111-10.33 3.549-2.3 4.92-5.041 14.101 1.639 16.621 3.64 1.58 6.711 4.119 9.701 6.679 7.28 5.62 14.049 11.89 21.629 17.11 7.9 5.78 12.872 15.241 12.352 25.131 1.09 1.99 2.5 4.388 5.17 4.148 6.38.07 14.358 1.632 18.978-3.988 2.78-7.02 8.781-12.361 16.151-14.121-5.87-4.37-10.22-10.961-11.43-18.221 1.81.01 3.24 1.071 4.4 2.371-2.16-3.49-2.34-8.02-4.49-11.32-8.64.14-17.46-1.23-24.76-6.19-13.05-8.48-25.939-18.6-33.019-32.82zm92.109 186.119c-8.5 2.31-17.541 4.17-24.891 9.24-5.61 7.61-4.65 17.871-5.9 26.831.63 17.08.031 34.179.301 51.269.11 2.69.89 5.501 2.92 7.391 10.95-4.29 21.069-12.601 33.109-13.311 4.96-3.27 11.601-2.928 17.201-1.808 5.61 1.95 3.69 8.979 3.26 13.459-2.3 10.74 2.43 21.08 4.63 31.39-1.64-.24-3.22-.59-4.84-.74-6.1 30.61 6.49 64.58 32.15 82.74 7.9 5.56 16.58 10.64 25.97 13.08 6.39-4.15 13.89-10.139 21.96-7.109 8.04-10.26 16.29-20.662 26.64-28.682-.33 8.03-7.59 12.98-12.17 18.74.17 1.22.45 2.59 2.04 2.35 22.37 1.02 44.77-.949 66.86-4.529 5.13-1.13 11.02-2.081 14.38-6.571 9-11.36 17.6-23.03 26.57-34.4 1.46-1.74 3.28-4.218 5.91-3.158 30.48 7.98 52.48 35.838 58.48 66.058 1.63 5.06.32 12.211 5.97 14.981 3.54-13.31 4.73-27.19 4.33-40.92-.07-31.31-2.01-64.21-17.63-92.16-2.1-6.05-8.87-10.84-7.07-17.77.92-5.07.52-10.249 1.07-15.349-2.56-3.53-4.93-7.431-8.77-9.731-1.2 6.06 3.82 10.72 4.08 16.51-4.68-.86-8.3-4.361-12.92-5.301-1.03 2.68-1.16 5.571-1.65 8.371-2.2-1.69-2.69-4.62-3.65-7.06-11.54 23.24-38.75 35-63.81 33.75-10.1 13.18-17.77 31.26-34.82 36.58-5.83 7.54-15.38 10.63-24.51 11.67-23.61 3.85-49.13.689-71.02 11.929.24-8.8-4.62-19.078 1.96-26.558.66-2.7-1.16-5.711-1.06-8.531-11.27-14.64-22.17-29.589-32.15-45.139-8.77-14.12-12.58-31.202-10.32-47.682-14.431-7.72-21.94-23.95-22.61-39.83zm-368.73 200.811c-6.13 4.77-7.13 13.18-7.28 20.42 4.23 4.37 9.8 6.859 15.27 9.269 1.45 3.45-1.81 5.97-4.24 7.75-9.15 6.65-20.651 8.18-31.061 11.92-1.37 17.59-1.519 36.891 7.541 52.631 5.73 6.08 14.36 4.129 21.69 3.279-7.24-2.76-16.02-6.669-18.18-14.849.44-10.53 7.59-19.259 15.23-25.869 15.79-12.79 35.999-18.671 55.969-20.551 14.75-1.79 31.32-1.549 43.82 7.541 1.67 1.2 4.21.918 5.09-1.102 3.22-5.79 6.12-11.849 10.67-16.779-10.32-1.85-19.098-8.269-28.808-11.949-17.31-8.25-34.841-19.211-54.811-17.951-10.26.91-20.34-1.22-30.25-3.62zm133.111 39.631c-2.88 4.79-5.81 9.549-8.65 14.359 23.79 10.71 46.359 23.979 70.179 34.699 21.21 11 45.889 12.171 69.299 11.321 6.73-1.36 14.132.311 20.352-3.129 5.92-3.95 6.41-11.982 4.33-18.192-6.38-6.89-16.431-4.338-24.731-4.978-20.09-1.75-36.189-15.702-55.269-20.682-12.61-.5-25.462 2.471-38.032-.019-5.91-1.31-10.56-5.259-14.91-9.209-6.28-5.41-14.998-3.63-22.568-4.17zm365.389 2.589c-5.28 1.89-6.98 7.73-9.88 11.95-2.01 3.63-6.13 4.97-9.71 6.48-8.06 3.2-16.14 6.33-24.27 9.34-5.24 1.84-10.41 3.979-15.88 5.039-6.07.46-12.19-.499-18.27-.619 12.58 11.26 20.37 27.2 25.78 43 6.91 20.02 4.83 43.421-7.26 61.051-.9 1.14-2.2 1.879-3.37 2.699 6.36 2.08 12.99.901 19.19-1.109 23.36-3.54 46.57 2.71 69.62 5.75 24.47 2.17 49.73-1.811 71.62-13.231 12.15-5.63 22.91-14.399 30.21-25.689 12.69-20.95 20.79-45.431 19.37-70.141-9.84 10.39-21.32 19.7-34.85 24.77-20.61 7.87-42.67 11.401-64.61 12.621-11.7 1.42-23.83 1.08-35.08-2.67-6.97-2.44-13.08-7.482-15.87-14.432-7.64-17.5-5.34-38.069 3.26-54.809zm-122.028 16.42c-3.812.015-7.632 1.255-11.412 1.69-16.38 6.7-32.241 14.57-47.621 23.33 2.96 8.24-3.899 17.939 2.291 25.189 1.1 1.23.2 2.851-.26 4.151-5.5 12.43-11.98 24.639-14.91 38.019-1.61 6.56 1.509 12.931 1.539 19.461-.63 4.56-5.209 6.171-8.869 7.721 1.97 12.56 10.279 23.098 18.869 32.068 7.97 6.65 14.531 15.061 23.651 20.291 2.16.96 4.919 1.191 7.019-.099 17.48-13.24 31.972-30.261 43.091-49.131 4.08-7.5 5.7-15.95 6.58-24.35 2.71-26.15.81-52.811-5.24-78.371-.65-2.18-1.37-4.339-2.13-6.469-.54-1.13-1.1-2.251-1.64-3.361-1.85-3.56-3.65-7.44-7.149-9.67-1.268-.342-2.538-.473-3.809-.469zm-279.072.44c-6.76 12.53-10.339 26.9-9.119 41.17 4.73.52 7.31-4.64 9-8.26 3.52-10.36 2.779-23.76.119-32.91zm315.02 134.765c-.62.006-1.27.105-1.97.315-10.22 5.24-20.86 9.359-32.29 10.869 16.15 32.1 38.47 60.971 64.75 85.451 37.33 34.91 84.17 57.46 130.96 76.76-28.68-36.93-44.11-82.121-55.92-126.811-4.5.82-10.16 2.672-14.85-.058-10.21-4.18-18.92-11.07-28.43-16.49-3.55-.15-7.21 2.769-10.61.519-4.79-4.88-7.36-12.1-13.79-15.24-4.42-1.27-8.99.049-13.4.609-3.9-1.07-5.92-5.318-9.98-6.138-5.93-1.206-8.49-9.844-14.47-9.786zm-330.68 11.95c-2.63.049-5.201.577-7.619 2.006-12.76 7.21-25.391 15.818-33.711 28.128-4.63 6.79-6.651 14.871-9.971 22.301-5.3 18.71-11.13 37.701-11.17 57.311 3.16 24.37 17.68 46.788 37.58 60.989 7.43 5.88 15.83 10.36 24.17 14.8 8.78 5.54 19.33 7.93 27.41 14.63 4.59 3.68 6.981 9.85 12.741 12.07 8.14 4.15 18.15 2.23 25.3-3.05 12.49-9.04 28.88-6.54 42.91-11.13 8.86-3.5 12.249-13.42 16.969-20.9-3.46-1.43-6.889-2.92-10.359-4.27-4.18 5.4-6.73 12.71-13.36 15.7-4.68 1.56-9.5-.79-13.58-2.93-8.57-4.47-15.921-10.81-23.961-16.07-2.88-2.42-6.318.81-9.478-.27-10.69-3.38-19.651-10.38-29.131-16.13-9.83-7.27-20.42-13.48-30.07-21.01-10.14-8.44-14.87-21.23-18.83-33.4-2.7-9.52-5.949-19.08-5.959-29.08 1.35-12.53 3.059-26.41 12.689-35.58 5.26-5.58 13.599-11.519 21.369-7.279 7.3 3 13.022-4.45 16.612-9.75 2.85-3.76 4.529-11.031 10.619-9.711 4.82 1.7 9.989 4.88 15.029 1.75-11.14-1.72-21.838-5.649-32.988-7.379-4.281-.588-8.828-1.829-13.211-1.746z" fill="#783b3c"/>
    <path id="color5" d="m894.189 238.25c-5.87.22-10.31 3.919-12.9 8.949-3.45 6.98-13.528 5.211-16.988 12.121-2.43 5.2.34 10.47 3.16 14.78.88 7.01 4.04 14.151 10.84 17.201.07-2.9-1.011-7.141 2.269-8.701 3.38-.47 6.84-.25 10.17-1.12-2.99-2.56-6.061-5.099-9.701-6.679-6.68-2.52-3.939-11.701-1.639-16.621 1.33-4.66 6.78-2.589 10.33-3.549 1.62-3.89 2.371-8.371 5.991-11.051-.49-1.78-1.012-3.56-1.532-5.33zm30.532 85.471c-1.1.22-2.18.459-3.25.699 1 3.49.999 7.7 3.619 10.48 4.85 2.46 10.971 2.55 15.871.12 4.18-2.33 6.038-6.999 7.908-11.139-4.62 5.62-12.598 4.058-18.978 3.988-2.67.24-4.08-2.158-5.17-4.148zm145.119 26.74c-3.35 4.81-4.3 10.719-4.3 16.459-.48-4.09-.81-8.21-1.65-12.24-9.8 8.94-9.51 23.991-4.04 35.201-5.79-5.71-9.49-12.941-12.54-20.361-2.41 7.83-1.9 16.601 3.97 22.781-11.49 1.01-20.02-8.85-26.06-17.34-2.67 10.25-1.37 21.32 4.64 30.17-7.57-1.93-13.69-7.051-18.05-13.381-.66 5.97 2.16 11.299 4.53 16.539-7.86-1.13-11.52-8.88-15.21-14.92-2.149 7.29.57 14.57 5.71 19.82-5.35-1.4-9.039-5.58-12.209-9.82-3.11 7.03-.93 15.211-2 22.701-1.05-4.75-1.41-9.619-2.49-14.359-.31.25-.931.748-1.241.988-1.24 5.58-1.41 11.32-1.07 17 .67 15.88 8.179 32.11 22.61 39.83-2.26 16.48 1.55 33.562 10.32 47.682 9.98 15.55 20.88 30.499 32.15 45.139 3.54 4.02 6.72 8.381 10.66 12.041 2.81 2.87 7.1 1.159 10.61 1.099 7.16-1.1 13.83 2.541 20.91 2.731 17.57.76 35.25-.671 52.45-4.381 17.05-5.32 24.72-23.4 34.82-36.58 25.06 1.25 52.27-10.51 63.81-33.75 2.23-6.23 4.91-14.2.29-19.99-4.77-3.97-11.62-2.8-17.22-1.68.52-1.18 1.13-2.33 1.69-3.5-7.42 3.66-15.5 5.88-23.76 6.32 7.29-1.95 13.44-6.52 18.5-12-6.73 1.55-14.25 2.95-20.81.34 3.67-4.03 9.14-6.25 12.02-11.1 4.3-7.2 5.58-15.73 6.84-23.89-3.25 5.48-6.04 11.64-11.66 15.14 3.91-9.46 3.56-20.311.18-29.861-1.41 2.72-2.74 5.551-4.89 7.791-.17-3.55-.09-7.111-.5-10.641-1.78 1.31-3.32 2.862-4.83 4.452 1.24-4.24 2.55-8.491 2.92-12.911-2.46 6.56-6.81 12.13-11.81 16.94 3.27-6.24 3.86-13.441 2.52-20.301-3.4 5.44-6.75 11.211-12.32 14.721 3.03-6.03 4.51-12.719 4.51-19.459-5.71 10.61-15.06 19.619-26.69 23.289 8.2-10.47 9.77-24.55 7.49-37.32-6.86 16.91-25.45 29.08-43.71 27.99 4-1.08 7.98-3.03 10.01-6.86 5.36-9.62 5.77-21.569 2.45-31.929.54 6.74.99 14.098-2.84 20.058.73-11.9-8.48-22.279-18.33-27.439-2.18 9.59-4.24 19.71-1.47 29.4-5.88-6.87-9.21-15.97-8.23-25.05-6.04 8.09-6.99 19.921-.77 28.191-11.96-5.47-16.17-18.511-24.42-27.611-4.51-7.09-4.96-15.721-5.93-23.821-3.16 7.37-3.06 15.75-.68 23.33-5.17-7.48-5.67-16.878-4.88-25.648zm-502.481 267.721c-.923-.013-1.878.094-2.869.347-4.53 4.07-.759 10.341 1.481 14.631 7.4 10.96 20.599 16.69 33.459 17.91 4.13-.05 8.26-.14 12.39-.14.15-7.24 1.15-15.65 7.28-20.42-10.63-6.69-23.411 1.451-34.311-4.199-5.985-2.118-10.965-8.042-17.43-8.129zm24.43 61.687c-8.56.9-17.14 2.821-24.92 6.561-11.36 3.49-20.548 13.1-32.908 12.92-14.31.93-28.31 9.79-33.66 23.3 6.86 2.93 14.629-1.139 21.879-.929-.35 3-.621 6.019-.811 9.039 2.67 4.64 7.951.9 10.781-1.53 4.33-2.91 8.02-8.52 13.83-7.83 17.99 2.57 35.42 8.6 53.35 11.1-9.06-15.74-8.911-35.041-7.541-52.631zm445.951 25.027c-9.26.042-18.4 2.404-27.44 4.223 6.05 25.56 7.95 52.221 5.24 78.371-.88 8.4-2.5 16.85-6.58 24.35 15.24.7 30.59 1.92 45.78-.17 1.17-.82 2.47-1.559 3.37-2.699 12.09-17.63 14.17-41.031 7.26-61.051-5.41-15.8-13.2-31.74-25.78-43-.62-.019-1.24-.026-1.85-.024z" fill="#f7e7d0"/>
    <path id="color6" d="m879.17 318.561c-17.66 5.32-34.44 13.519-51.93 19.509-8.32 3.42-17.121 5.591-25.211 9.571-1.89 9.44-6.419 19.389-15.349 24.029-5.9 3.31-12.74 3.809-19.25 4.939-9.08 1.87-14.55 10.022-20.59 16.272-24.61 26.43-51.62 50.489-78.68 74.369-91.02 79.35-185.94 154.051-279.74 230.051-15.95 13.34-32.861 25.759-46.881 41.219-16.08 19.29-29.259 40.789-41.309 62.759-16.59 30.44-32.59 61.241-47.23 92.651 18.71-6.44 37.12-13.75 55.85-20.17 54.06-19.58 105.96-46.73 150.17-83.77 21.67-18.79 41.479-39.61 62.349-59.23.19-3.02.461-6.039.811-9.039-7.25-.21-15.019 3.859-21.879.929 5.35-13.51 19.35-22.37 33.66-23.3 12.36.18 21.548-9.43 32.908-12.92-1.7-.93.37-1.939.82-2.799 10.55-10.88 21.541-21.351 31.741-32.561-12.86-1.22-26.059-6.95-33.459-17.91-2.24-4.29-6.011-10.561-1.481-14.631 7.93-2.03 13.459 5.362 20.299 7.782 10.9 5.65 23.681-2.491 34.311 4.199l.65.14c29.22-30.07 58.489-60.099 87.699-90.179 20.66-20.99 40.76-42.59 62.58-62.42 14.87-13.88 31.24-26.081 46.09-39.961 6.21-5.01 3.24-13.421 5.07-20.141 2.34-12.19 11.7-23.578 24.34-25.648 11.02-24.66 23.091-48.91 33.641-73.74z" fill="#c7d3d5"/>
    <path id="color7" d="m979.801 551.67c-3.42 7.8-6.48 15.81-8.25 24.16-2.72 34.61 12.849 67.87 8.969 102.52.92 3.31 2.139 6.53 3.179 9.82 1.8-16.66 3.59-33.39 3.33-50.17.7-29.03-8.568-57.28-7.228-86.33zm50.899 137.275c-1.93.039-3.85.309-5.76.914-6.58 2.17-12.7 5.56-18.41 9.43.54 1.11 1.1 2.231 1.64 3.361 16.19-5.95 33.68-1.261 49.69 2.889 5.47-1.06 10.64-3.199 15.88-5.039-8.35-3.58-17.18-5.791-25.85-8.381-5.59-1.312-11.41-3.289-17.19-3.174zm-247.149 93.215c-2.46 2.74-4.512 5.8-6.602 8.82 2.73 1.81 5.751 3.371 9.131 3.321 13.67.44 27.27-1.67 40.94-1.58 22.51-.44 44.781 3.379 67.121 5.209-7.36-6.06-17.301-6.671-26.241-8.651-6.62-1.13-13.13-3.228-19.9-3.228-18.99-.03-37.99-.062-56.98.228-3.21.35-5.599-1.829-7.469-4.119zm499.239 28.649c-.22-.044-.62.151-1.26.711-4.03 2.92-8.38 5.619-12.04 8.919-2.67 7.65-8.13 13.892-14.54 18.702-12.93 9.7-28.55 15.519-44.6 17.179-.49 2.44-.54 4.96-.27 7.44 18.46 1.05 37.24-6.311 50.12-19.561 8.18-9.29 16.56-18.72 22.03-29.92.33-1.057 1.22-3.34.56-3.47zm-78.59 89.209c-1.67-.036-2.91.597-1.9 2.841 5.42 20.96 11.33 43.18 26.03 59.75 27.76 28.71 63.04 50.221 101.25 61.861 24.42 6.46 49.01 13.53 74.41 14.49 15.34-.02 31.69-3.88 42.85-15.03 7.79-9.37 7.3-22.45 7.2-33.94.24-9.96-2.69-19.72-2.38-29.64-5.14-15.45-10.28-31.07-17.7-45.6 3.78 20.61 9.22 40.969 11.53 61.859 1.05 11.39 3.11 23.231-.46 34.401-3.77 9.77-13.85 15.24-23.58 17.47-14.59 3.11-29.81 2.1-44.44-.26-27.83-4.61-54.55-14.28-80-26.24-20.83-10.34-41.2-22.569-57.28-39.599-17.02-16.49-23.13-40.222-31.69-61.512-.97-.394-2.54-.824-3.84-.851z" fill="#6c623a"/>
    <path id="color8" d="m1066.82 958.014c-2.13-.02-4.24.179-6.25.556-2.49 19.49 6.2 38.3 8.48 57.44.69 3.72-2.41 6.82-6.05 6.82-15.5 1.29-30.81-3.97-46.32-1.46 8.2 18.27 16.9 38.15 12.59 58.63h101.5c2.25-23.84-8.07-46.36-8.58-70.04-11.77-15.759-24.1-31.179-38.39-44.749-4.06-5.108-10.58-7.138-16.98-7.197z" fill="#252a37"/>
  </g>
</svg>
