<svg height="1080" width="1920" xmlns="http://www.w3.org/2000/svg">
  <path id="background" d="m0 0h1920v1080h-1920z" fill="#a71b1a"/>
  <g id="transform" transform="translate(0,0) scale(1.00)">
    <path id="color1" d="m952.5 0c7.2 33.42 14.9 66.76 21.9 100.2 2.3-4.94 7.7-6.53 8.6.3 2.6-1.78 4.4-4.35 5.8-7.14-3.7-1.74-10.3-7.36-3.5-9.85-7.2-27.56-11.5-55.85-18.3-83.51zm36.8 122c-2.6 2.3-5.3 4.5-8.3 6.4.8 3.9 1.7 7.8 2.5 11.7 1.5 7.9 3.2 15.8 5.1 23.7 3.8-2 8.1-2.7 12.4-3.2-2.2-9.8-4.3-19.6-6.3-29.4-.4-3.7-2.4-7-5.4-9.2zm28.7 82.7c-1 0-2 .3-4 1-11 5.9-5 22.8 8 20.9l-3 7.5c5-1.1 9-2.4 13-3.5-1-3-3-4.8-6-5.6 9-7.7 2-20.7-8-20.3zm1 4.8c7 .4 9 11.9 2 13.2-9 1.8-11-11.5-3-13.1 0-.1 1-.1 1-.1zm44 88.5c-3 0-5 1.8-6 5.6 4 5.1 12 4.6 13-2.3-2-2.1-4-3.2-7-3.3zm-15 30.7c-2 0-3 1-3 3.4 6 33.4 17 66.1 20 99.9 0 7 8 1.5 12 .9-5-16.3-10-32.9-13-50-2-11.2-5-22.3-7-33.4-1-5.7-3-11.5-4-17.2-1-2-3-3.6-5-3.6zm-14 .1c-1 16.2 5 32.3 7 48.5-4-1.3-8-2.9-12-4.6 1 5.4 2 10.9 3 16.2 11 9.3 20 24.4 12 38.5-8 10.8 0 24 1 35.8 6 18.5 0 37.7 8 56.1 2 .6 4 1.3 6 1.9 5 20 8 40.7 13 60.8 2 4.1 1 8.3-1 12.1 3 .5 6 2.2 7 4.5 3-.3 6-.5 8-.8-1-7.4-3-14.9-4-22.3-4-15.9-8-31.8-11-47.8-2-11.3-5-22.5-7-33.7 6 2.2 16 .4 18 8 10 46.5 19 93.2 29 139.5 2-2.8 2-6 2-9.2-10-45-18-90.4-28-135.6-1-8.4-11-6.6-17-9.3-6-18.5-4-39.1-13-56.1-7-34.1-12-68.8-21-102.5zm1 253.5c-1 3 3 .2 0 0zm81 66.7-3 3.9c4 21.6 10 43 12 64.9h-4c-1-4.6 0-11.1-5-13.8-2 4.2-1 8.7 0 12.9 5 25 11 49.8 16 74.8 2 7.7 3 15.7 5 23.3 1 0 2 .1 2 .1 9-1.3 15 5.5 19 12.4 2-.3 4-.7 5-1 0-2.7-1-5.4-1-8.1-2-8.5-3-16.9-5-25.3-5-26-10-51.9-15-77.9-4-4.7-9-8.7-15-11.7-2-9.6-4-19.5-6-29.1-1-2-1-4.1-1-6.2-2-6.4-3-12.9-4-19.2zm-548.7 16.3c-.8 12.7 1.7 25.3 3.3 37.8 12.2 69.1 44.2 133.9 86.7 189.4 3.9-3.5 7.2-7.4 10.2-11.7-18.7-15.1-18.1-47.5 1.6-61.5-44.6-42.7-85.8-93.2-101.8-154zm684.7 54.5c22 30.6 38 64.9 52 100.4 0-2.7 1-5.4 2-8 9 4 19 8.2 27 13.6 2-2.2 4-5.2 2-8.2-18-34.8-43-65.9-73-90.9-3-2.8-7-5.3-10-6.9zm-125 5.6 3 12.9c-1 .6-2 1.3-3 1.9-2-4.4-3-9.1-4-13.8 1-.4 3-.7 4-1zm5 23.7c1 5.2 2 10.4 3 15.7-1 0-2-.1-4-.1-1-5.1-2-10.3-3-15.4 1-.1 3-.1 4-.2zm6 25.3 3 14.4c-1 .3-3 .7-4 1.1-1-4.7-2-9.6-3-14.5 1-.3 2-.7 4-1zm3 24.2c5-.1 3 9.3 5 13l-3 1.5c-2-4.6-3-9.3-4-14.1 1-.2 1-.3 2-.4zm37 23c5 6.7 12 12.1 17 19.3-2 2.9-5 6-7 9.1 1 1.6 2 3.3 3 4.9 4-4.9 8-10 11-15.4-8-5.8-14-17.3-24-17.9zm-503.4.1c-23.1 11.7-23.6 48.2-.4 60 .7-1 1.4-1.8 2.2-2.7-21.4-11.6-19.7-45.9 3-55-1.7-.7-3.3-1.4-4.8-2.3zm12.1 4.7c-9.8 3.4-19.2 10.7-20.8 21.7-2.2 11.5 5.1 22.4 15 27.6-2.4-6.3-1.1-12.3 5.5-15.1 8.5-7.4 17.3-14.4 25.8-21.8-5.4-9.1-16.2-10.1-25.5-12.4zm604.3 11.3c-27 13.8-54 26.5-81 40.1-12 5.1-7 25 5 25.9 1-2.3 2-4.1 5-4.9 21-9.4 43-19.8 64-29.1 12 1.3 20 11.2 17 22.8-30 13.3-59 27.1-89 40.2 5 8.5 6 23.2 16 26.6 25-9.1 48-21.3 73-31.3 1-16.8 1-33.8 2-50.6-6-4.2-14-9.1-15-17.5-1-7.2 5-13.2 11-15.3-2-2.4-5-4.6-8-6.9zm-260 16.9c-3 0-7 .2-11 .5-3 5.7-1 13.4-1 19.9 5 .2 11 .3 17 .5-1 5.8-1 11.6-1 17.4 5 2.7 9 5.4 14 8.2v15.9c12-15.9 25-31.4 37-47.1-2-5.3 0-15-8-15.1-8 1.5-16 4.7-24 6.9-1-2.5 0-7.2-4-6.9-6 0-12-.2-19-.2zm-342.7 6.2c5.5 4.5 11.5 8.3 17.7 11.7 2.3-2.3 4.5-4.7 6.7-7.2-8-2.1-16.1-3.7-24.4-4.5zm29.1 5.7c-2.1 2.8-4.2 5.7-6.4 8.5 1.1.9 2.3 1.8 3.5 2.6 2.4-3.3 4.7-6.6 6.7-10.2-1.3-.3-2.5-.6-3.8-.9zm476.6 10.2c2 10.7 3 21.4 5 32 1 .3 2 .8 3 1.1 1-11.1-3-21.9-4-32.9-1-.1-3-.1-4-.2zm-20 1c-8 10.3-15 22.5-24 32.3v6.2c9-1.8 21 3 22 13.7 1 10.8 5 21.6 4 32.5-5 7.2-13 12.3-20 18.4 2 7.6-3 25.2 10 23.2 15-3 31-5.2 47-7.9 6-.9 2-8.9 2-13.1-4-15.3-2-32.6-12-46-6 3.7-15 6.2-22 1.8-6-5.9-2-14.6 0-21.4 4-2.6 9-4.9 14-7.2v-4.3c-2-.1-4-.3-7-.4-1-6 0-13.8-7-16.2-5-1.7-6-6.9-7-11.6zm-478.7 8.6c-1.2 1-2.3 2-3.4 3 24.8 23.7 54.7 42.1 86.4 55.1.2-2.1.4-4.1.5-6.1-31.1-11.5-57.3-32.4-83.5-52zm439.7 38.1c-15 .1-29 14-26 29.2-44 2.5-87 6.3-130 9.1-5.9.5-12.6-1-17.7 2.5-7.9 11.1-11 25.3-18.7 35.8-25.7 0-51.5-3.9-77.2-6.4-2 0-4.1.1-6.1.3 49.6 27.1 105.9 38.1 161.7 42.1 43 3 86 2 128-6-4-15-18-24-25-37.6-13 .8-27 3-41 2.1-5-5-12-7.3-19-5.6-1 2.6-3 5.7-5 7.4-34 3.7-68.7 4.7-102.8 7.7-.7-10.3 5.3-18.7 8.1-27.9 1.4-5.3 7.5-6 12.1-6.5 44.6-3.9 88.6-8.6 133.6-12.3 6 14.2 25 20.1 38 10.9 17-10.5 12-39.4-7-44-2-.6-4-.8-6-.8zm-1 2.6c19-.8 29 24.6 16 37.7-10 10.4-30 7.7-36-5.9-6-12.4 2-29.6 16-31.3 1-.3 3-.5 4-.5zm2 3c-3-.1-5 1.5-3 5.6 2 8 7 0 8-4.1-1-.9-3-1.5-5-1.5zm-8 .6c-3 1.7-6 3.6-9 5.6 3 2 5 5.5 9 5.6 5-1.3 1-7.7 0-11.2zm18 3.2c-2 2.3-4 4.7-6 7.2 3 3.6 8 1.5 12-.6-2-2.3-4-4.4-6-6.6zm-245.3 6.2c-.4-.1-.9 0-1.4.2-4.5 1.5-2.3 9.1 2.3 6.6 4-1.3 2.2-6.6-.9-6.8zm-40.6 0c-1.1.1-2.1.7-2.9 2.4-2.3 5 4.1 5.5 7.3 3.6.4-3-2-6.1-4.4-6zm256.9.7c-3 3.9-3 8.3-3 12.7 4-1.2 9-1.5 12-4.9 2-5.2-6-5.7-9-7.8zm36 3.2c-3 .7-6 1.4-9 2.2v5.6c3 .9 6 1.9 9 2.9 1-3.5 0-7.1 0-10.7zm-27 9.8c-6 3-11 8.9-2 12.3 2-2.9 4-5.9 6-9-2-1.1-3-2.2-4-3.3zm16 .4c-5 3.5 0 8.4 2 12.1 3-2.2 5-4.5 7-7zm-6 3.5c-6-.2-6 7.4-6 11.5 2 0 5 0 8 .1 0-.6 1-1.7 1-2.2-1-3.1-2-6.2-2-9.2 0-.1-1-.1-1-.2zm-255.1 7c-.5.1-1 .3-1.5.6-3.8 1.8-1 9.3 3 6.4 3.8-1.2 1.7-7.3-1.5-7z" fill="#433244"/>
    <path id="color2" d="m985.3 83.51c-6.8 2.49-.2 8.11 3.5 9.85-1.4 2.79-3.2 5.36-5.8 7.14-.9-6.83-6.3-5.24-8.6-.3-.3 2.5-.6 5-.8 7.5-7.8 1-14.8 4.4-20.6 9.5 1 4.9 7 6.1 7.9 11.1 4.1 1.8 6 5.7 3.8 9.9.5.3 1.3 1 1.7 1.4 0 1.3 0 2.6.1 3.9l.2.7c5.7-1.1 11.4-1.9 16.8-4.1-.8-3.9-1.7-7.8-2.5-11.7 3-1.9 5.7-4.1 8.3-6.4 3 2.2 5 5.5 5.4 9.2 13.3-8.3 3.2-23.5 1.9-34.59 8.4-9.26-4-11.72-11.3-13.1zm-6.2 153.39c-1.9 15.2-21 20.3-20.7 36-.5 4-1.3 7.9-2.2 11.8-1.6-4.2-2.5-8.6-2.4-13 .4-10.6 4.5-20.6 9.1-30-12.8 12-24.2 27.4-25.4 45.5-2.6-10.1-2-20.6 1.3-30.4-6.5 15.3-17.5 33.2-9.5 49.8 3.6 6.8 6.7 14.5 13.4 18.8 10.3 4 20.9 9.1 32.2 9.3 8.2-3 13.8-10.4 19.6-16.6.2-.3.5-.6.8-1 4.6-5.8 5.7-13.2 6.7-20.4 0-1.5 1-3 1-4.5-3 3.5-5.3 7-7.8 10.4 11.8-22.3 4.7-51.4-16.1-65.7zm33.9 45.4c-2 5.7-4 11.5-6 17.2v1.6c5-4.5 7-12 6-18.8zm-6 18.8c-1 .2-1 .3-1 .5 0-.1 0-.3 1-.5zm130 297.3c-1 0-2 1.3-2 4.5-5 .7-13-.7-15 6.8-3 7.2-7 14.4-7 22.6 0 3.2 0 6.4-2 9.2-2 4.3-4 9.2-3 14.2 2-.7 4-1.4 5-2.8l3-3.9c2-3.6 4-7.4 6-10.8 4 10.1-4 19.7-2 30 0 2.1 0 4.2 1 6.2 3 1.3 5 3.2 7 5.2 5-6.9 1-18.3 8-25.2-2 5.8-7 13 0 18 0-.4 1-1.3 1-1.8 1-2.4 1-4.7 1-7.1 1-2.7 3-4.9 4-7.2 1 2.7 2 5.3 4 7.7 5-4.5 1-12 2-17.9-18-5.5-7-29.3-6-43.2-2-2.4-3-4.5-5-4.5z" fill="#feecde"/>
    <path id="color3" d="m932.3 104.5c-5.6 2.1-11.8.6-17.5 2.7-1.5-.6-3.1-1.2-4.7-1.7-4.1 1.9-7.9 4.5-11.1 7.7.8 1.9 1.5 3.7 2.3 5.6-8.6-2.9-8.1 9.8-1.7 11.7 14.3-4.1 31.3.5 39.3 13.6 4.8 4.9 17.3 12.8 8.7 19.7 1.1 1 2.2 1.9 3.3 2.9 1.1-.9 2.2-1.8 3.4-2.7 1.4.1 2.9.2 4.3.2 4.5-5.9 14.1-11.7 8.1-20l-.2-.7c-.1-1.3-.1-2.6-.1-3.9-.4-.4-1.2-1.1-1.7-1.4 2.2-4.2.3-8.1-3.8-9.9-.9-5-6.9-6.2-7.9-11.1-6 2.8-11.1-1.8-8.7-8-.3 0-1.1.2-1.4.3-.4.8-1.1 2.4-1.5 3.2-3.8-1.7-6.6-4.9-9.1-8.2zm62.2 213.6c-5.8 6.2-11.4 13.6-19.6 16.6-11.3-.2-21.9-5.3-32.2-9.3 2.4 7.6 10.1 11.3 17.1 13.7 5.9 1.2 12 4.4 18 2.7 5-3.4 9.4-7.6 14.3-11.3 1.7-2.4 3.3-4.9 5-7.3-.7-1.8-1.6-3.5-2.6-5.1zm-140.3 168.5-.6 8.7c-6.3-.9-11.2-3.4-15.7 3.2-10.3-7.3-21 1.7-23.7 12.1-.9-2-1.9-4-2.7-6.1-3.9.7-7.5 2.2-10.8 4.4l.9 5.7c-.6.6-1.3 1.2-1.9 1.8-4.8-6.5-13.2-.2-12.7 6.4-9.2-9-20.3 6.5-17.4 16-1.9-.3-3.9-.7-5.8-1 0 1.6 0 3.2.1 4.8-6.3-9.2-14.1 3.4-12.8 10.1 1.2 3.1 6.2 7.3 2.1 10.1-12.3 5.9-8 22.9 0 30.9 8.8-2 6.2 14.6 14.2 6.9 5.2 4.1 11.8 4.4 17.8 1.7-.7 4.6-1.9 9.1-1.4 13.8-2.4 4.9-.2 8.5 5 9.4-.8 5.2-3.2 15.3 4.9 15.3 6.3-.6 2.5 8.8 8.4 9.3 8-9.2 8.1 11.2 17.5 5.5 3.5 3.8 8.1 2.3 11-1.5.1 2.5.2 5 .4 7.5 4.9-1.4 9.6-3.1 14.5-4.6.9-15 2.2-30.2 6.6-44.6 5.4 5.3 11.5 1.3 17.5.3-1.2 7.6 5.4 13.2 4.8 20.8 4.2-.9 8.2-2.5 11.9-4.8 3 2.8 5.7 5.9 7.6 9.6 2.3-1 4.6-1.9 6.9-2.9 4.5 3 10.2 2.5 14.4-.8-1.5 7.5-3.4 14.8-5.5 22.1 1.9.3 3.8.5 5.7.7 6.4-22.3 13.2-44.9 25-65.1 1.9-4.1 6.2-5.9 10.2-7.3 1.5 1.5 2.9 3 4.4 4.5-1.6.8-3.2 1.6-4.7 2.5.6 2.4 1.2 4.9 1.8 7.3-8.2 6.9 2.9 9.2 8.9 8.2.7 5.2-1.7 9.1-6.9 5.8-3.6.8-7.7-1-11 .8-4.3 5.9-9.1 18.9 2.8 18.6-.1.8-.2 1.6-.2 2.5-8.8.9-7.1 10.5-5.6 16.6 2.6.3 5.1.5 7.6.7-12.3 8.7 6.7 22.8 14.2 10.8 3.4 8 12 5.3 18.4 3.4-2.4 3.6-5 7-8 10.2 3.9.4 8.4 1.1 10.3-3.2 2.3 3.1 5.1 5.6 8.2 7.8 2.2-.8 4.3-1.5 6.4-2.2-2.8 12.6 11.8 9.2 15.8 16.5 16-.1 35 3.8 45-10.9 1 1 1 3 2 4 4-1.1 4-5.3 3-9.2 5 .1 10 .3 14-2.6v-7.8c11 1.4 15-9 20-15.8-3-18.6-7-37.2-11-55.7-2 .3-5 .5-8 .8 5 3.6 6 9.2 5 14.5-2 7.1 5 12.6 4 19.6-2 7.6-9 12.1-12 18.8 5 3.4 5 9.3 1 13.9-2-2.6-5-8.8-10-5.3-7 5.1-12 13.4-21 16.3-10 3.5-21 1.4-32-2.1v-2.9c8 4 14-2.2 20-6.5-4-.7-8-1.1-12-1.4v-2.9c11 2.2 12-8.1 11-15.9-2-3.8-7-.1-10 1.3 1-3.4 2-7.1 1-10.7-9 2.2-13-9.3-22-8.6-10.8 0-24.8 5.5-23.1 18.7-4.2-.4-9.1-4.1-12.9-1.1-.1 4.6 1.8 9 3.7 13.2-15.2 2.1-20-28.4-5.1-32.4 7.6 8.1 15.5-4.2 20.4-9.3-4.2-14.4-18-23.5-23.3-37.5-10-3.7-15.7-13-24.7-18.6-6.3-1-6.4 6.7-6.4 10.9-3.2-4-7.6-7.6-13.1-6.5-5.6-5.1-11.7-.5-13.4 5.7-1.2-.4-2.5-.8-3.7-1.2l-2.4 2.4c-1.1-1.6-2.3-3.2-3.4-4.9-5.7 2.4-13 11.8-4.4 15.4-2.4 1.7-5.3 2.4-8.3 2.4.7 1.1 1.4 2.2 2.1 3.4-1.3 1.3-2.5 2.6-3.8 3.9-4.4-3.3-9.6-7.8-15.5-5.5-10.3 3.8-19.4-4.1-28-8.5-3.1 3.3-2.8 7.7-1.1 11.6-.6 1.4-1.1 2.8-1.7 4.2.7 1.9 1.3 3.7 2 5.5-7.2 2.3-19.9 1.1-18.7 12-2.1 7.8 7.7 6.7 12.6 7-1.8 3-4.6 4.8-7.7 6.1-1.1 3.9-1.1 8 .3 11.9-18-2-25.2-23.5-22.9-39.2 6.4-4.2 14.5-4.9 21.5-8.3-4.2-13.8-8-27.8-12.3-41.6-2-6.7-9.1-9.1-14.9-11.3 6.4-6 15.4-20.3 24.9-11.8 7.1 3.4 17.2-3.7 14.9-12 6.9-6.3 17.4-7.3 26.3-7.1 7.1-.6 6.7 10.2 14.3 8.4l.9-1c5.4-7.7 11.8-15 22.1-14.6-9.4-1.8-16.8-16.3-27.2-7.3.1 1.6.3 3.1.4 4.7-1.7.2-3.4.3-5.1.5.2-1.7.4-3.3.7-5-3.5-1.5-7.1-2.7-10.8-3.3zm-80.4 63.9v3.1c-4.4 2.4-5.6 9.5.8 9.9 4.8 0 4.1 3.9 2.1 6.9-1.8-.5-3.5-.9-5.3-1.4l.3 3.9c-.5.6-1 1.3-1.4 2.1.3 2.5.6 5 .9 7.6 2.5.4 5 1 7.3 1.8-1.8.2-3.5.5-5.3.7.5 1.4 1.1 2.7 1.6 4.1-3.9-.1-8.3-1.6-8.8-6-2.9-10.8-4.5-27.2 7.8-32.7zm389.2 6h-1c-19 4-31 19.1-47 28.9 1 8.3 3 16.5 5 24.3 2-7.5 10-6.1 15-6.8 1-7.4 4-4.3 7 0 3-2.4 7-4.7 10-6.9 0-.5-1-1.4-2-1.9 4-3.8 9-2.8 13-4.9 3-10.6 17-14.9 12-27.5-4-3.3-8-5.2-12-5.2zm-180.3 194.9v2.9c-.4 8.8 2.9 20.3-5.2 26.5-1.8 2.9.7 6.5 1.4 9.4-5.1-1.8-7.7 3-9.8 6.7.7 2.5 1.4 4.9 1.9 7.4-2.5-.6-4.8-2-6.9-3.6-1.6 1.7-3.2 3.3-4.8 5-4-13.8-10.9-26.5-18.9-38.3-2.7 2-5.5 4.4-5 8.1 2.1-.2 4.2-.3 6.3-.5-7.6 4.3-9.1 12.8-3.5 19.5 1.6-.6 3.2-1.1 4.8-1.6 8.7 3 10 15.2 18.8 18.3 5.2-1.4 10.6-2.8 16.1-1.4l.4-.7c5-10.7 15.4-20.3 13.3-33.1.7-6.5.3-13.2-.3-19.7-3.2-.9-6.2-2.5-8.6-4.9zm-160.5 140.1c-5.7-.3-10.6 3.2-15.4 6-.5-1.7-1-3.3-1.5-5-1.1-.2-2.1-.4-3.2-.6-2.3 2-4.6 4-6.3 6.5-.5.7-1 1.5-1.4 2.2-5.5 1-11 4.2-9.9 10.8.2 2.7.8 5.4 1.4 8.1 6.5-6.2 15.2-10.9 24.4-9.2.3 1.8.7 3.7 1 5.5 4.6-.1 9.3.4 13.5 2.5 4.5-4.9 9 1.4 11.2 5.3 3.9 4.6 8.6-.6 10.8-4.2-1.5-2.4-2.9-4.9-4.3-7.3 1-1.4 1.9-2.8 2.8-4.2-.8-1-1.7-2-2.5-3l-3.9 2.1c-.4-.3-1.1-1-1.4-1.3.4-4.8 1.1-10.7-3.6-13.7-1.2.4-2.4.9-3.6 1.4-.9 1.8-1.8 3.6-2.8 5.4-.5-.1-1.4-.2-1.9-.3-.3-2.2-.6-4.5-.9-6.7-.9-.2-1.7-.3-2.5-.3z" fill="#bb241b"/>
    <path id="color4" d="m909.2 129.1c-3.2 0-6.5.5-9.6 1.4-6.7 2.8-8.9 10.3-11.6 16.4-12.9 32.4-24.1 66.7-23.7 102-1.4.5-2.9 1-4.3 1.6 1.9.1 3.8.2 5.6.3l.2.8c.6 2.4 1.3 4.7 2.2 7 6.1 8.4 3.5 16.7-5.4 21.6 3.2 5.1 9.7 3.2 14.7 3.6-1.7 4.3-4.2 8.3-5.7 12.7 3.2 1.8 6.8-.7 10.2-.6 4.5 4.7 5.4 11.6 3.5 17.6-.7 6.4-.5 12.9-.6 19.3h4.5l.1-1.1v-2.1c1 1 2.1 2 3.2 3 2-.1 4.1-.3 6.1-.4v.6c3.9 10.5 8.2 20.9 13.6 30.7 5.4 9.7 11.9 18.9 16.1 29.3 4.7 19.2 7.9 38.7 12.1 58.1 4.1 13.3-10.1 21.6-14.9 32.5-5.2 10.5-19 7.6-27.7 13.3-13.7-.1-18.6 8.4-24.6 15.9-7.4 1.7-7.2-8.3-13.7-8.4h-.6c-8.9-.2-19.4.8-26.3 7.1 2.3 8.3-7.8 15.4-14.9 12-9.5-8.5-18.5 5.8-24.9 11.8 5.8 2.2 12.9 4.6 14.9 11.3 4.3 13.8 8.1 27.8 12.3 41.6-7 3.4-15.1 4.1-21.5 8.3-2.3 15.7 4.9 37.2 22.9 39.2-1.4-3.9-1.4-8-.3-11.9 3.1-1.3 5.9-3.1 7.7-6.1-4.9-.3-14.7.8-12.6-7-1.2-10.9 11.5-9.7 18.7-12-.7-1.8-1.3-3.6-2-5.5.6-1.4 1.1-2.8 1.7-4.2-1.7-3.9-2-8.3 1.1-11.6 8.6 4.4 17.7 12.3 28 8.5 5.9-2.3 11.1 2.2 15.5 5.5 1.3-1.3 2.5-2.6 3.8-3.9-.7-1.2-1.4-2.3-2.1-3.4 3 0 5.9-.7 8.3-2.4-8.6-3.6-1.3-13 4.4-15.4 1.1 1.7 2.3 3.3 3.4 4.9l2.4-2.4c1.2.4 2.5.8 3.7 1.2 1.7-6.2 7.8-10.8 13.4-5.7 5.5-1.1 9.9 2.5 13.1 6.5 0-4.2.1-11.9 6.4-10.9 9 5.6 14.7 14.9 24.7 18.6 5.3 14 19.1 23.1 23.3 37.5-4.9 5.1-12.8 17.4-20.4 9.3-14.9 4-10.1 34.5 5.1 32.4-1.9-4.2-3.8-8.6-3.7-13.2 3.8-3 8.7.7 12.9 1.1-1.7-13.2 12.3-18.7 23.1-18.7 9-.7 13 10.8 22 8.6 1 3.6 0 7.3-1 10.7 3-1.4 8-5.1 10-1.3 1 7.8 0 18.1-11 15.9v2.9c4 .3 8 .7 12 1.4-6 4.3-12 10.5-20 6.5v2.9c11 3.5 22 5.6 32 2.1 9-2.9 14-11.2 21-16.3 5-3.5 8 2.7 10 5.3 4-4.6 4-10.5-1-13.9 3-6.7 10-11.2 12-18.8 1-7-6-12.5-4-19.6 1-5.3 0-10.9-5-14.5-1-2.3-4-4-7-4.5-5-1.1-10-2.3-15-2.6-2-9.9-10-16.1-17-22.4-5-16.1-10-32-17-47.6-12-25.4-3-55.2 10-78.6 5 6.1 9 13.4 13 20.3-1-11.8-9-25-1-35.8 8-14.1-1-29.2-12-38.5-9-.1-20-3.6-23-12.7-2-6.6-1-13.7 1-20.2-3-6.8-10.8-7.9-15.5-12.6-2.2-3.9-1.7-8.6-2.4-12.9-4.9 3.7-9.3 7.9-14.3 11.3-6 1.7-12.1-1.5-18-2.7-.6.2-1.8.7-2.4.9.6.2 1.6.5 2.1.7 4 11.3 14.6 20.3 14.1 33-2.1 5.7-9.7 2.4-14 1.3-1.1-.3-2.3-.7-3.4-1-.4-.4-1.1-1.1-1.5-1.4-10.4-7.6-12.3-21.1-18.9-31.4-7.7-10.1-18.6-18.9-21.5-31.7 5-.9 10-1.9 15-2.9-8-16.6 3-34.5 9.5-49.8-3.3 9.8-3.9 20.3-1.3 30.4 1.2-18.1 12.6-33.5 25.4-45.5-4.6 9.4-8.7 19.4-9.1 30 1.5.4 3 .8 4.6 1.2-.3-15.7 18.8-20.8 20.7-36 20.8 14.3 27.9 43.4 16.1 65.7 2.5-3.4 4.8-6.9 7.8-10.4 0 1.5-1 3-1 4.5 2 1 3 1.9 5 2.8 2-5.7 4-11.5 6-17.2 1 7-1 14.8-7 19.3-2 5.7-4 12.7-10.7 15.5-.3.4-.6.7-.8 1 1 1.6 1.9 3.3 2.6 5.1 2.6 2.2 5.9.4 7.9-1 0 1.4 1 2.8 1 4.1l1 .1c2-8.8 4-17.5 7-26 2-9.4 5-18.8 6-28.4 3 1.5 5 3.1 7 4.5 2-1.8 3-3.7 4-5.6v-.5l-1-.3c2-1.5 5-3.2 7-5.2-5-3.2-10-7.3-13-12.5 5 .2 11 .4 16 .7v-.6c-31-.8-26-43.6-52-50.3-7.2.4-14.5-.2-20.5-4.7-13.4-8.4-30.4-3.7-41.4 6.4-10.7 8.5-19.1 19.3-29.4 28.2 1.1-9.8 8.8-16.8 13.3-25.2 10.5-15.9 22.6-31.1 37.6-43.1 8.6-6.9-3.9-14.8-8.7-19.7-6-9.8-17.1-14.9-28.3-15zm75.4 308.9h.4c1 0 2.3.8 3.4 2.9 7 .3 13.6.2 20.6.7 6-6.9 12 6.7 3 5.3 0 .2-1 .5-1 .7 7 1.9 2 10.3-4 7.3 1-.4 1-1.2 2-1.7-6 .5-13.2-2.7-17 2.5 3.6 2.1 7.5 3.3 11 4.9 8-4.7 9 9.9 0 6.2l1-1.2c-2 2-4.4 3.9-6.4 5.9.9.4 1.9.8 2.4 1.2 10-4.7 8 11.5-.5 5.1l.5-.3c-5.3-1-11-2.5-16.8-2.6 4.6 4.3 10.8 6 16.2 9 8.6-5.9 8.6 10.9-.1 4.9-1.8 1-3.4 2.4-5 3.8 1.6.5 3.2 1 4.8 1.6l-1.1-1.2c11-3.8 6 12.9-.9 4.8l1.3-.4c-4.1-.6-8.2-1.6-12.3-1.5 3.1 3.1 7.4 4.4 11.1 6.5 9.8-5.7 6.8 12.2-.7 4.5l1.2-.6c-8.3-3.2-17.4-4-26.2-4.8-8.2 8.1-9.9-10.5-.7-4.1 2-1 4-1.9 5.9-2.9-1.4-.2-2.7-.5-4.1-.7-2.9 3.1-8.6.7-6.8-3.7 1.7-3.9 6.3-1.6 7.8 1.3 3.4.2 7.4 1.7 9.8-1.7-2.7-1.8-5.2-3.6-7.9-5.3-7.3 5.3-9.5-9-1-6.1.7-.7 1.5-1.4 2.3-2.1-8.6-.6-2.8-12.7 3-6.1l-1.2.4c3.9 1.7 8.2 2.1 12.4 1.5-2.6-2.7-5.9-4.7-8.8-7.1-8 1.4-6.1-11.4 1.1-6.9 1.3-.8 2.6-1.4 3.9-2.1l-2.7-2.1c-10 3.9-5.4-12.9.9-4.5 4.7 1.2 9.5 1.5 14.3 1.7-3.8-3.3-8.4-5.4-13.2-6.9l.7 1.2c-8.1 1.9-6.2-7-2.6-7.3zm6.7 4.9c3.9 2.6 8 4.8 11.7 7.4 3-1.6 5-3.5 7-6.1-6-.3-12.5-1.4-18.7-1.3zm-1.3 13.7c-9.3 3.8 2.3 5.7 7 4.5-2.2-1.7-4.6-3.2-7-4.5zm-5.8 6.4c2.8 3.1 6.3 5.3 9.9 7.4 3-1.6 5.9-3.3 7.9-6.4-6.1-.1-12-.5-17.8-1zm107.8 14v3.2c0 3.4 1 6.7 2 10.1 11 1.5 10 13.2 12 20.9 2 6.3-6 10.9-3 17.2 2 8.7 3 18.1 6 26.3 10 7.9 6 20.5 6 30.7 16-9.8 28-24.9 47-28.9 0-.2 1-.6 2-.8-18-31-44-57.1-72-78.7zm-111 1c-2 0-3.9.6-5.8 2.4 5.8 2.5 12.3 2.9 18.5 3.7-3.9-2.2-8.3-5.9-12.7-6.1zm-.7 6.8c3.5 2.8 7.6 4.7 11.7 6.5 1.5-1.4 3.1-2.7 4.7-4.1-5.4-1.1-10.9-2-16.4-2.4zm4.9 6.3c-2.7 4.5 6.3.1 0 0zm-6.6 5.3c-1.8 0-3.5.7-5.1 2.3 5.3 1.1 10.7 2.2 16.2 2.5-3.2-2.1-6.8-4.7-10.4-4.8zm-204.8 54.1c-12.3 5.5-10.7 21.9-7.8 32.7.5 4.4 4.9 5.9 8.8 6-.5-1.4-1.1-2.7-1.6-4.1 1.8-.2 3.5-.5 5.3-.7-2.3-.8-4.8-1.4-7.3-1.8-.3-2.6-.6-5.1-.9-7.6.4-.8.9-1.5 1.4-2.1l-.3-3.9c1.8.5 3.5.9 5.3 1.4 2-3 2.7-6.9-2.1-6.9-6.4-.4-5.2-7.5-.8-9.9zm176.8 34.5c-4 1.4-8.3 3.2-10.2 7.3-11.8 20.2-18.6 42.8-25 65.1-3.8 14.3-7.7 28.5-10.9 42.9-3.9 10 .2 20.5 8.2 27 6.5 15.1 18.8 26.4 27.7 40.1 8 11.8 14.9 24.5 18.9 38.3 1.6-1.7 3.2-3.3 4.8-5 2.1 1.6 4.4 3 6.9 3.6-.5-2.5-1.2-4.9-1.9-7.4 2.1-3.7 4.7-8.5 9.8-6.7-.7-2.9-3.2-6.5-1.4-9.4 8.1-6.2 4.8-17.7 5.2-26.5-2.5-15.8-10-31.2-22.8-41.2-3.9-3.1-8.9-7.3-7.8-12.8 3.6-6 9.3-10.3 13.5-15.9 2.2-2.6 4.4-5.1 6.7-7.5 3-3.2 5.6-6.6 8-10.2-6.4 1.9-15 4.6-18.4-3.4-7.5 12-26.5-2.1-14.2-10.8-2.5-.2-5-.4-7.6-.7-1.5-6.1-3.2-15.7 5.6-16.6 0-.9.1-1.7.2-2.5-11.9.3-7.1-12.7-2.8-18.6 3.3-1.8 7.4 0 11-.8 5.2 3.3 7.6-.6 6.9-5.8-6 1-17.1-1.3-8.9-8.2-.6-2.4-1.2-4.9-1.8-7.3 1.5-.9 3.1-1.7 4.7-2.5-1.5-1.5-2.9-3-4.4-4.5zm-98.5 27.4c-4.4 14.4-5.7 29.6-6.6 44.6-1 22.5.3 45 2.5 67.5-2.3 13-.4 28.7-11 38.5-19.7 27.4-27.9 61.2-32.4 94.2-1.5 11.5-2.2 23.1-2.5 34.7 1.1.2 2.1.4 3.2.6.5 1.7 1 3.3 1.5 5 5.5-3.2 11.1-7.3 17.9-5.7.3 2.2.6 4.5.9 6.7.5.1 1.4.2 1.9.3 1-1.8 1.9-3.6 2.8-5.4 1.2-.5 2.4-1 3.6-1.4 1.5-4.5 3.2-8.9 5.1-13.2 2.7-6.1 5.3-12.2 7.7-18.4 12.3-30.8 27.2-60.7 35.9-92.9 3.1-10.9 13.5-19.4 12.3-31.5-.6-12.7 2.1-25.2 4.5-37.6 2.8-14 6.7-27.8 10.3-41.7 2.1-7.3 4-14.6 5.5-22.1-4.2 3.3-9.9 3.8-14.4.8-2.3 1-4.6 1.9-6.9 2.9-1.9-3.7-4.6-6.8-7.6-9.6-3.7 2.3-7.7 3.9-11.9 4.8.6-7.6-6-13.2-4.8-20.8-6 1-12.1 5-17.5-.3zm139.5 163.6c2.1 12.8-8.3 22.4-13.3 33.1 4.8 2.3 4.5 8.7-1.6 8.2-1.1.5-2.3 1.1-3.5 1.6 1.5.5 2.9.9 4.3 1.4 1.4-.5 2.7-.9 4-1.4 3.6 2.9 2 7.9-2.9 7.3-1.4.8-2.9 1.6-4.2 2.4 1.7.4 3.5.8 5.2 1.2 1-.8 1.9-1.5 2.9-2.2 3.8 3 2.6 8.8-3 7.6-1 1.2-2.1 2.3-3.2 3.5 1.7 0 3.5-.1 5.2-.1 6.8-3.3 7.6 8.3.5 5.8-1.2 1.2-2.4 2.4-3.5 3.7 1.2-.2 2.5-.3 3.8-.4 5.2-4.8 8.8 4.3 3.3 5.5 2.8.7 3.9 3.2 4.8 5.7-1.9.5-3.9.9-5.8 1.4-1.5.6-3 1.4-4.5 2.2 1.6.1 3.1.3 4.6.6.8-1 1.7-2 2.5-2.9 1.2.9 2.4 1.8 3.5 2.8.8-4.5 3.9-8 7.1-11 1.4.4 3.2.9 4.2 1.3-10.2-11.5-4.9-27.5-6-41.6-.1-11.2 1-22.6-.8-33.8-1.2-.6-2.4-1.2-3.6-1.9zm-6 77.2c-.1 0-.2-.1-.3-.1v.1zm-.3 0c-.4.1-.8.1-1.3.1-1.2.4-2.5.7-3.7 1 1.5.5 3.2.9 4.7 1.4.1-.6.2-1.8.3-2.5zm-42.3-60.3c.8 7 3.7 13.5 6.1 20 3 8.8 5.1 17.9 8.1 26.8 4.8 15.1 7.8 30.5 10.2 46.1-.7 2.7-1.5 5.3-2.3 7.8-5 14.9-.8 31.1 10 42.2 6.8 2.1 17 2.7 20.5-5.2 7.4-9.9 9.4-22.7 6.4-34.5-2-5.3 2-9.7 5-13.7-1-1.9-1-3.7-1-5.4 0-3.5-1-6.9-2-10.3-1 5.3-2 10.7-6 15-3.6-4.9-5.2-10.7-6.6-16.5-1.8 2.3-4.3 2.8-6.9 1.4-3.1-.9-6.5-1.2-9.3.8l-4.2 2.1c-1.8-4-8.7-13.4.5-12.2.7-.5 1.4-1.1 2.1-1.7-1.1.1-2.1.2-3.1.3-5.3 1.7-6.8-3.4-3.8-6.9 1.2.4 2.4.9 3.7 1.4.5-.5 1.5-1.5 2.1-2-1.3-.4-2.5-.7-3.8-1-6.6 3.1-7.3-7-.6-6.6 1.3-.4 2.6-.9 3.9-1.3-1.9-.6-3.9-1.1-5.8-1.4-6.2 1.7-6.8-7.3-.7-6.7 1.6-.4 3.1-1.3 4.6-2.2-2-.4-4-.8-5.9-1-1.8-.1-3.5-.1-5.2-.2 0-1.9 0-3.8.2-5.7 1.7-.1 3.4-.2 5.1-.2 1.5-1.1 2.9-2.1 4.4-3.1-1.5 0-3.1.1-4.6.2s-2.9.4-4.4.6c-2.7-4.1 0-8.6 4.9-6.2 3.7.5 7.5-.4 11.2-.6.7-1.1 1.4-2.2 2.1-3.2-5.5-1.4-10.9 0-16.1 1.4-8.8-3.1-10.1-15.3-18.8-18.3zm26.8 22.7c-.5 0-1.2.2-2 .6 1.5 4.1 4.6-.3 2.4-.6zm2 5.7c-2.5 0-5 1.2-6.7 3.7 4.1 3.1 9.5 2.6 12.5-1.8-1.8-1.3-3.9-1.9-5.8-1.9zm2 9.7c-2.7.1-5.3 1.3-7.4 3.4 4.3 3.3 10.4 3.7 12.4-2.3-1.6-.8-3.3-1.1-5-1.1zm1.2 9.6c-2.5 0-4.7 1.2-5.3 4.2 4 2.5 8.5 1.3 11-2.7-1.4-.9-3.2-1.4-4.9-1.5zm4.7 9.1c-3.1-.1-6.1.8-8.6 2.6 3.5 2.7 8.6 2.3 9.9-2.5-.5 0-.9-.1-1.3-.1zm21.3 5.7c-9.1 1.6-6.5 13.3-3.7 19.3 5.7-4.6 5.7-12.7 3.7-19.3zm-21.7 1.5c-2.5-.1-5 1.1-6.9 3.1 3.7 2.1 7.7.8 10.5-2.2-1.2-.6-2.4-.9-3.6-.9zm-172.4 53.1c-7.9-.2-15.3 4.1-21 9.5-5.3 4.8-7.7 11.7-7.1 18.8-.1 2-.3 4-.5 6.1-.3 7.1-.2 14.3-1 21.4-.7 11.8.1 23.6-.4 35.2 3.6-1.6 7.2-3.4 10.9-5 2.4 9 2.8 18 1.6 28-1.9 6-10.1 5-15.4 5-2.8 6-1.7 13 .7 20 13.7 1 30.4 9 41.7-3 12.7-10 29.5-14 45.6-12v-3c-2-18-22.8-21-36.9-18-4.6-10-2.4-20.9-.1-31.3 1.9-9.9 3.5-19.7 5.4-29.6.5-2.5 1.1-5 1.5-7.5 1.2-7 2.1-14.1 4.1-21-2.2-3.9-6.7-10.2-11.2-5.3-4.2-2.1-8.9-2.6-13.5-2.5-.3-1.8-.7-3.7-1-5.5-1.1-.2-2.3-.3-3.4-.3zm-1.1 10c.9 0 1.9.4 3.1 1.4l-1.1 1.3c4.9.3 9.8.4 14.7.6 7.7-6.6 9.8 9.9.6 6.4l1-1.1c-5.1.9-8.6 4.4-2.1 6.8l-.9-1c6.4-2.6 8.9 6.4 3.1 8.7-.6-.4-1.9-1.3-2.6-1.8-1.8.7-3.5 1.6-5.3 2.3 1.3.5 2.5 1.1 3.7 1.7l-.8-1c6.1-2.2 8.3 6.2 3.2 8.7-1.3-.6-2.5-1.2-3.7-1.7-1.9 1.6-4 3-6.1 4.4 1.3.9 2.6 1.8 3.8 2.8 9.1-5.5 8.1 12.6-.2 5.9-3.1 1.3-3.9 3.2-.7 5.1 9.6-5.8 8.1 13-.1 5.6-1.3 1-2.7 1.9-4 2.9 1.4.4 2.7.8 4.1 1.1v-1.3c8.2-.2 4.3 13.5-2 7.2-2.6 1.3-5.3 3.8-1 5.1 8.6-7.9 9.4 11.9.4 5.1-4.2-.5-8.4-.4-12.5.2l.9.7c-7.8 7.9-10.5-10.7-.6-5.5 4.5-1.9 1-4.8-2-5.7l.1 1.5c-7.3 3.6-8.1-9.9-.3-7.7v1.6c2.9-.4 5.6-1.4 8.1-2.9-1.7-1.1-3.4-2-5-3.3-8.8 7.3-8-13.1.2-4.9 2-1 4-2 5.9-3-2-1.2-4-2.5-6-3.6l.2 1.3c-8.8 1.7-5.4-13.2 1.6-6.8 4.4-.6 4-2.8.9-5.3-8.2 3.4-8.1-10.1 0-8.1-.1.6-.2 1.9-.3 2.6 2.2-1 4.5-1.8 6.8-2.6-1.2-2-2.9-3.5-5.1-3.9-9 3.1-5.3-13.1 1.5-6.1 1.7-.8 3.5-1.5 5.4-2.2-1.1-1.7-2.7-3-4.5-3.9-7.5 3.6-7.3-7.8-2.4-7.6zm3.5 4.9c3 5.3 9 5 13.3 1.3-3.9-.8-7.7-1.3-11.6-1.3zm5.5 7.9c-7.5 1.4-7.8 6.7-.8 9.5 2.3-1.2 4.6-2.4 6.8-3.6-1.6-2.3-3.7-4.2-6-5.9zm-1.9 12.6c-5.7.2-11 5.5-2.6 8.8 2.7-2 7.6-3.2 7.8-7-1.5-1.3-3.4-1.8-5.2-1.8zm-2.8 11.3c-2.2 1.1-4.5 2.3-6.7 3.4 2.1 1.9 4.3 3.6 6.6 5.4 2.2-1.3 4.3-2.5 6.5-3.7-2.1-1.8-4.2-3.5-6.4-5.1zm-.8 12.4c-2.4-.1-4.9.8-7 2.6 2.2 1.6 4.4 3.1 6.7 4.7 2.2-1.2 4.4-2.5 6.6-3.7-1.7-2.5-3.9-3.6-6.3-3.6zm-.2 9.6c-2.3 1.7-7.1 1.8-7.4 5.2 3.7 6 16.7-2.2 7.4-5.2zm-2.1 11.3c-2.1-.1-4.3 1.2-5.8 2.9 3.3.2 6.5.3 9.7.1-.8-2-2.3-2.9-3.9-3zm-23 14c-3.5 1-6.9 3-9.9 5-1.7 6-3.5 12 .4 18 3.2-3 6.4-5 9.6-7 .1-5 .1-11-.1-16z" fill="#22161a"/>
    <path id="color5" d="m1001 160.6c-4.3.5-8.6 1.2-12.4 3.2-7.3 12.1 9.4 26.3-.6 38.4 26 6.7 21 49.5 52 50.3-3-7.1 0-18.8-8-21.9-4 1.1-8 2.4-13 3.5l3-7.5c-13 1.9-19-15-8-20.9-5-14.6-3-32.9-13-45.1zm54 85.5c-3-.2-7 1.1-8 3.9-3 5.1 1 10.7 1 16.1-5 2.9-11 4.6-17 4.3v.5c4 2.3 9 4.7 12 8.1-5 .6-11 .3-16-2.5-2-1.4-4-3-7-4.5-1 9.6-4 19-6 28.4 4 13.7 6 28 9 42.1 1 10.1 4 20.2 6 30.2 4 1.7 8 3.3 12 4.6-2-16.2-8-32.3-7-48.5 9 33.7 14 68.4 21 102.5 9 17 7 37.6 13 56.1 6 2.7 16 .9 17 9.3 10 45.2 18 90.6 28 135.6 0-8.2 4-15.4 7-22.6-2-7.8-4-16-5-24.3 0-10.2 4-22.8-6-30.7-3-8.2-4-17.6-6-26.3-3-6.3 5-10.9 3-17.2-2-7.7-1-19.4-12-20.9-1-3.4-2-6.7-2-10.1-4-15.1-7-30.5-10-45.7-2-.6-3-1.1-5-1.6-4 .6-12 6.1-12-.9-3-33.8-14-66.5-20-99.9 0-5.5 7-3.4 8 .2 3-4.1 3-9 2-13.5-3-10-6-20.2-6-30.6 8 .7 7 10.2 8 16.1v-.7c1-6.8 9-7.1 13-2.3 5-9.7-5-17.5-2-26.9 1-8.3-5-15.4-7-23.1-1-3.3-3-5.1-6-5.2zm-31 6.3c3 5.2 8 9.3 13 12.5 1-.8 3-1.6 5-2.5-1-3-2-6.1-2-9.3-5-.3-11-.5-16-.7zm40 241.6c2 11.2 5 22.4 7 33.7 6 .7 8 6.6 8 12.2 1 11.8 9 24.3 3 35.6 1 7.4 3 14.9 4 22.3 4 18.5 8 37.1 11 55.7 6 15.8 1 32.3 7 48 4 .9 8 1.7 12 2.5 5 2.7 4 9.2 5 13.8h4c-2-21.9-8-43.3-12-64.9-1 1.4-3 2.1-5 2.8-1-5 1-9.9 3-14.2-10-46.3-19-93-29-139.5-2-7.6-12-5.8-18-8zm58 144.2c-2 3.4-4 7.2-6 10.8 1 6.3 2 12.8 4 19.2-2-10.3 6-19.9 2-30zm14 16.2c-7 6.9-3 18.3-8 25.2-2-2-4-3.9-7-5.2 2 9.6 4 19.5 6 29.1 6 3 11 7 15 11.7 7-.7 13-2.1 20-3.6 1-3.3 2-6.6 2-9.9-5-1.9-10-2.4-15-2.4-3 0-7-.1-10-.3 9-10.4 0-23.7-1-35.5 0 2.4 0 4.7-1 7.1 0 .5-1 1.4-1 1.8-7-5-2-12.2 0-18zm-9 71c-1 .3-3 .6-4 1 1 4.7 2 9.4 4 13.8 1-.6 2-1.3 3-1.9zm5 23.7c-1 .1-3 .1-4 .2 1 5.1 2 10.3 3 15.4 2 0 3 .1 4 .1-1-5.3-2-10.5-3-15.7zm6 25.3c-2 .3-3 .7-4 1 1 4.9 2 9.8 3 14.5 1-.4 3-.8 4-1.1zm3 24.2c-1 .1-1 .2-2 .4 1 4.8 2 9.5 4 14.1l3-1.5c-2-3.7 0-13.1-5-13zm165 13.6c-1 2.6-2 5.3-2 8 2 7.9 0 16.3 0 24.4h-5c-6 2.1-12 8.1-11 15.3 1 8.4 9 13.3 15 17.5-1 16.8-1 33.8-2 50.6 0 7.3-1 14.6-1 21.9 17-2.1 34-5 50-7.7 1-33.4 1-66.8 1-100.2 0-9.6-11-11.8-18-16.2-8-5.4-18-9.6-27-13.6zm-144 2.6v3.6c0 2.7 1 5.4 1 8.1-1 .3-3 .7-5 1-4-6.9-10-13.7-19-12.4-9 2.4-14 10.8-13 19.7-21-1.1-27 23.5-40 35.1-12 15.7-25 31.2-37 47.1-2 3.3-5 6.5-7 9.7-13 .3-25 1.3-37 1.1-3 9.7-10.2 20.5-22 18.7-10.8 2.3-16.3-8.4-19.1-16.8-13.7-.1-27.4.8-41 1.1-4.9-5-8.1-12-14-15.7-19.8-.3-39.8 1-59.7 1l-2.4 3.3c-2.2 3.6-6.9 8.8-10.8 4.2-2 6.9-2.9 14-4.1 21 10.7 9.4 22 17.8 33.4 26.2-12.7-3.5-25.6-9.1-34.9-18.7-1.9 9.9-3.5 19.7-5.4 29.6 1.7.5 3.5 1 5.3 1.6 3.4 15 24.1 7.1 35.1 11.3 25.7 2.5 51.5 6.4 77.2 6.4 7.7-10.5 10.8-24.7 18.7-35.8 5.1-3.5 11.8-2 17.7-2.5 43-2.8 86-6.6 130-9.1-3-17.4 15-33 32-28.4 19 4.6 24 33.5 7 44-13 9.2-32 3.3-38-10.9-45 3.7-89 8.4-133.6 12.3-4.6.5-10.7 1.2-12.1 6.5-2.8 9.2-8.8 17.6-8.1 27.9 34.1-3 68.8-4 102.8-7.7 2-1.7 4-4.8 5-7.4 7-1.7 14 .6 19 5.6 14 .9 28-1.3 41-2.1 13 1 23-3.7 32-12.6 7-6.1 15-11.2 20-18.4 1-10.9-3-21.7-4-32.5-1-10.7-13-15.5-22-13.7-9 .2-18 .3-27 0l3-9.9c8 1.1 16 5.4 24 3.7 9-9.8 16-22 24-32.3 6-7.3 11-15.1 17-22.8-1-1.6-2-3.3-3-4.9 2-3.1 5-6.2 7-9.1-5-7.2-12-12.6-17-19.3 10 .6 16 12.1 24 17.9 1-1.4 2-2.9 3-4.2-1-.6-1-1.2-2-1.8-6-4.7-11-10.6-17-14.9-8-.1-17 2.8-24-3.8zm-482.6 9.2c-22.7 9.1-24.4 43.4-3 55-.8.9-1.5 1.7-2.2 2.7-.7.8-1.4 1.7-2.1 2.6-1.4 5.6 3.7 9.9 6.4 14.2 24.9 32.6 64.9 46.7 98.8 67.3.8-7.1.7-14.3 1-21.4-31.7-13-61.6-31.4-86.4-55.1 1.1-1 2.2-2 3.4-3 26.2 19.6 52.4 40.5 83.5 52-.6-7.1 1.8-14 7.1-18.8-.6-2.7-1.2-5.4-1.4-8.1v-1.2c-23.2-8.3-45.1-19.7-67.1-30.7-.7-.5-2.1-1.4-2.9-1.9-1.2-.8-2.4-1.7-3.5-2.6 2.2-2.8 4.3-5.7 6.4-8.5-1.6-.4-3.1-.8-4.7-1.2-2.2 2.5-4.4 4.9-6.7 7.2-6.2-3.4-12.2-7.2-17.7-11.7-.4-.1-1.4-.2-1.9-.2-6.6 2.8-7.9 8.8-5.5 15.1-9.9-5.2-17.2-16.1-15-27.6 1.6-11 11-18.3 20.8-21.7-2.4-.7-4.9-1.5-7.3-2.4zm604.6 45.7c-21 9.3-43 19.7-64 29.1-3 .8-4 2.6-5 4.9-2 5.2-8 7.1-13 6.1-1-.3-2-.8-3-1.1-1 .5-2 1-4 1.5-5 2.3-10 4.6-14 7.2-2 6.8-6 15.5 0 21.4 7 4.4 16 1.9 22-1.8 3-1.5 6-3 9-4.3 30-13.1 59-26.9 89-40.2 3-11.6-5-21.5-17-22.8zm-150 57.3c-1 0-3 .2-4 .5-14 1.7-22 18.9-16 31.3 6 13.6 26 16.3 36 5.9 13-13.1 3-38.5-16-37.7zm2 3c2 0 4 .6 5 1.5-1 4.1-6 12.1-8 4.1-2-4.1 0-5.7 3-5.6zm-8 .6c1 3.5 5 9.9 0 11.2-4-.1-6-3.6-9-5.6 3-2 6-3.9 9-5.6zm18 3.2c2 2.2 4 4.3 6 6.6-4 2.1-9 4.2-12 .6 2-2.5 4-4.9 6-7.2zm-245.3 6.2c3.1.2 4.9 5.5.9 6.8-4.6 2.5-6.8-5.1-2.3-6.6.5-.2 1-.3 1.4-.2zm-40.6 0c2.4-.1 4.8 3 4.4 6-3.2 1.9-9.6 1.4-7.3-3.6.8-1.7 1.8-2.3 2.9-2.4zm256.9.7c3 2.1 11 2.6 9 7.8-3 3.4-8 3.7-12 4.9 0-4.4 0-8.8 3-12.7zm36 3.2c0 3.6 1 7.2 0 10.7-3-1-6-2-9-2.9v-5.6c3-.8 6-1.5 9-2.2zm-27 9.8c1 1.1 2 2.2 4 3.3-2 3.1-4 6.1-6 9-9-3.4-4-9.3 2-12.3zm16 .4 9 5.1c-2 2.5-4 4.8-7 7-2-3.7-7-8.6-2-12.1zm-6 3.5c0 .1 1 .1 1 .2 0 3 1 6.1 2 9.2 0 .5-1 1.6-1 2.2-3-.1-6-.1-8-.1 0-4.1 0-11.7 6-11.5zm-255.1 7c3.2-.3 5.3 5.8 1.5 7-4 2.9-6.8-4.6-3-6.4.5-.3 1-.5 1.5-.6z" fill="#990511"/>
    <path id="color6" d="m865.8 251.6c-16.3 13.7-26.7 32.7-41.9 47.2-5.9 11.5 7.5 20.2 10 30.3-.2 8.2 8 12.4 10 19.7-46.7 21.7-89.9 53-118.9 96.2-7.3 9.8-11.6 21.8-21.4 29.6-15.5 12.9-19.7 34.3-16.6 53.4-1.9 15.6-6.2 31.1-6.5 47 .3 13-6.3 24.4-11.5 35.9-18.1 43.6-36.9 87.1-50.6 132.4.5-.2 1.4-.4 1.9-.5 8.7-2.5 17.9 1.1 26.7-1 12.9-.6 23.5-8.9 36-11 5.4-1.3 12.1 2.2 12.1 8.2-.9 15.8-4.9 31.8-14 45-5.2 8.6-13.6 15.6-15.4 26 .8 3.1 2.4 6 4.4 8.6 1.4 1.2 2.9 2.2 4.5 3.1 1.5.9 3.1 1.6 4.8 2.3 2.4.9 4.9 1.7 7.3 2.4 9.3 2.3 20.1 3.3 25.5 12.4 1.3-1.1 2.6-2.3 3.9-3.3-.9-1-1.8-1.9-2.7-2.9 7.2.6 17.3.9 20.1 9.1 2.3 8.4-1.7 16.9-4.8 24.6.7 1.6 1.5 3.2 2.3 4.7 12 8.3 27.2 11 38.6 20.4 5.6 4.7 14.3 8.8 14.9 16.8.9-4.5 5.4-6.8 9.9-7.6.4-.7.9-1.5 1.4-2.2-9.1-12.9-13-28.3-18-43-1.8-.8-3.5-1.9-4.7-3.5-32.6-42.4-50.6-94.8-55.1-147.7-11.2-43.9 1.7-89.2 16.5-130.7 9-22.9 18.7-45.6 31-67 31.8-62 87-108.9 146.7-143-5.4-9.8-9.7-20.2-13.6-30.7-.2 1.1-.3 2.1-.5 3.1-1.5 7.6.9 15.1 2.6 22.5-5.1-5.3-8-12.1-9.7-19.1-.7-2.5-1.3-5.1-1.7-7.6l-.1 1.1c-.5 4.9-1.6 9.7-4 14-.5-4.6-.6-9.3-.5-14 .1-6.4-.1-12.9.6-19.3-.1-.6-.2-1.9-.3-2.5-15.7 9.3-38.1 9.4-51.4-4.3 8.9-7.2 7.8-20.5 13.1-29.9 6-7.2 13.6-13 21.3-18.2-.9-2.3-1.6-4.6-2.2-7zm-81.3 656.6c-.2 1-.2 2 0 3.2v-1.2c.1-.7.1-1.3 0-2zm147.4-582.9c2 5.5 4.2 10.8 6.3 16.3l-2.4-.4c6.6 10.3 8.5 23.8 18.9 31.4.7-3.7 1.1-7.3 1.4-11-1.4-.3-2.8-.7-4.1-1 0-1.1 0-2.1.1-3.2 1.2-.3 2.5-.5 3.7-.7.2-2.1.4-4.3.6-6.5h4.2c.2 2.4.4 4.9.6 7.3 1.1.6 2.3 1.2 3.5 1.8.2.7.5 2.2.6 2.9-1.7.5-3.5.7-5.1 1.3-.2 3.8-.3 7.7-.6 11.5 4.3 1.1 11.9 4.4 14-1.3.5-12.7-10.1-21.7-14.1-33-.5-.2-1.5-.5-2.1-.7-9.7-2.4-18.1-8.2-25.5-14.7zm91.1 17.2c-5 3.7-10 7.9-13 13.5-2 6.5-3 13.6-1 20.2 3 9.1 14 12.6 23 12.7-1-5.3-2-10.8-3-16.2-2-10-5-20.1-6-30.2zm47 4.5c-4 1.4-9 2-13 2.5 2 11.1 5 22.2 7 33.4 15-4 31-3.4 47-3 16 1.8 29 12.6 43 20.5 49 32.5 91 82.8 97 143.6 5 28.9-8 56.5-24 79.6-20 30.7-48 55.1-78 75.7 5 0 10 .5 15 2.4 0 3.3-1 6.6-2 9.9-7 1.5-13 2.9-20 3.6 5 26 10 51.9 15 77.9 14 2.1 29 5.4 43 5.9 14-.7 23-13 32-22.5 9-9.4 15-21.5 23-32-7-12.8-15-25-21-37.6 6 3.6 13 7.2 18 12.9 3 1.6 7 4.1 10 6.9 4-8.7 5-18.8 11-27 18-26.5 20-59.8 19-90.8-6-33.3-14-66.5-27-97.7-6-14.6-18-26.2-26-39.7-7-11.2-9-25.4-19-34.9-18-24.6-52-32.5-67-59.5-12-15.7-33-16.1-51-14-7 2.3-9-7.8-15-8.8-6-1.1-13-1.6-17-7.3zm-54 10.3c2 .2 3 1.4 4 3.4 1 .2 2 .3 4 .5v2.7c-1 .2-2 .4-4 .7 2 3.5 3 7 3 10.7-5 0-4-6.6-6-10.2-2-.2-4-.3-6-.5v-3.3c1-.2 2-.3 4-.5-1-2.6 0-3.6 1-3.5zm-27.6 83.6c-1 0-2.9.1-3.8.1.6 1.1 1.2 2.1 1.9 3.1 4.8 1.5 9.4 3.6 13.2 6.9-4.8-.2-9.6-.5-14.3-1.7-1.4.5-2.7 1.1-4.1 1.6 1.1 1 2.1 2 3.2 2.9l2.7 2.1c-1.3.7-2.6 1.3-3.9 2.1-3.4 1.3-4.1 4.6-1.1 6.9 2.9 2.4 6.2 4.4 8.8 7.1-4.2.6-8.5.2-12.4-1.5-1.2.5-2.4 1-3.5 1.4.8 1.2 1.6 2.4 2.4 3.7-.2.1-.5.4-.7.6-.8.7-1.6 1.4-2.3 2.1-1.1 1.2-2.1 2.4-3.1 3.7 1.4.8 2.7 1.6 4.1 2.4 2.7 1.7 5.2 3.5 7.9 5.3-2.4 3.4-6.4 1.9-9.8 1.7-1.8.2-3.6.5-5.3.8 1.4.6 2.8 1.1 4.3 1.6 1.4.2 2.7.5 4.1.7-1.9 1-3.9 1.9-5.9 2.9-1.6.9-3.1 1.8-4.7 2.8 1.8.4 3.6.9 5.4 1.3 8.8.8 17.9 1.6 26.2 4.8 1-.5 2-.9 3.3-1.4-1.5-.8-2.6-1.7-3.8-2.5-3.7-2.1-8-3.4-11.1-6.5 4.1-.1 8.2.9 12.3 1.5 1-.3 2.6-.7 3.6-1-1-.8-2.1-1.5-2.9-2.2-1.6-.6-3.2-1.1-4.8-1.6 1.6-1.4 3.2-2.8 5-3.8 1.7-.8 2.7-1.6 4.7-2.5-2-.8-3-1.6-4.6-2.4-5.4-3-11.6-4.7-16.2-9 5.8.1 11.5 1.6 16.8 2.6 5-.8 4-2.9 0-4.8-.5-.4-1.5-.8-2.4-1.2 2-2 4.4-3.9 6.4-5.9 1-1 1-2 2-2.9l-3-2.1c-3.5-1.6-7.4-2.8-11-4.9 3.8-5.2 11-2 17-2.5 1-.4 2-.8 4-1.1-2-.7-4-1.3-6-1.9 2-.9 3-1.8 4-2.6 0-.2 1-.5 1-.7 0-1.6 1-3.2 1-4.8-1-.2-2-.3-4-.5-7-.5-13.6-.4-20.6-.7zm2.9 2c6.2-.1 12.7 1 18.7 1.3-2 2.6-4 4.5-7 6.1-3.7-2.6-7.8-4.8-11.7-7.4zm-2 8.8c2.9-.2-1.2 5.4-1.7.5.7-.3 1.3-.5 1.7-.5zm.7 4.9c2.4 1.3 4.8 2.8 7 4.5-4.7 1.2-16.3-.7-7-4.5zm-5.8 6.4c5.8.5 11.7.9 17.8 1-2 3.1-4.9 4.8-7.9 6.4-3.6-2.1-7.1-4.3-9.9-7.4zm10.6 9.6c1.2.2-.7 3.7-1.3.5.6-.4 1.1-.6 1.3-.5zm-13.8 5.4c4.4.2 8.8 3.9 12.7 6.1-6.2-.8-12.7-1.2-18.5-3.7 1.9-1.8 3.8-2.4 5.8-2.4zm-.7 6.8c5.5.4 11 1.3 16.4 2.4-1.6 1.4-3.2 2.7-4.7 4.1-4.1-1.8-8.2-3.7-11.7-6.5zm4.9 6.3c6.3.1-2.7 4.5 0 0zm-6.6 5.3c3.8-.2 7.7 2.6 11.1 4.8-5.5-.3-10.9-1.4-16.2-2.5 1.6-1.6 3.3-2.3 5.1-2.3zm137.4 220.5c-10 4.2-19 8.2-29 11.5-32 13.5-63 30.6-91.8 49.5 1.8 11.2.7 22.6.8 33.8 19-10.2 36-34.8 61-23.6 12 5.7-6 15.6-1 24.4 4 10.2 18 11.6 28 10.9 12-3 1-19.3 9-25.2 13-4.6 26-5.6 39-6.5-5-25-11-49.8-16-74.8zm-166.9 96c-8 5.4-13.7 14.2-22.8 18 .5.1 1.5.4 1.9.6-16.4 17.7-31.7 37-42.1 59-2 4.4-3.6 9-5.1 13.7 3.6-4.6 7.4-9 11.3-13.4 12.2-14.6 26.4-27.3 40.7-39.8 6.2-6 15.3-5.4 23.1-7.7.3-1.2.7-2.4 1.1-3.6-3-8.9-5.1-18-8.1-26.8zm26.7.1c-3.7.2-7.5 1.1-11.2.6-.8.5-2.2 1.5-2.9 2l2.4 3.6c1.5-.1 3.1-.2 4.6-.2-1.5 1-2.9 2-4.4 3.1-.9.8-1.8 1.8-2.7 2.7.8 1.1 1.7 2.3 2.6 3.4 1.9.2 3.9.6 5.9 1-1.5.9-3 1.8-4.6 2.2-.6 1.2-1.1 2.4-1.7 3.6.8 1 1.6 2.1 2.4 3.1 1.9.3 3.9.8 5.8 1.4-1.3.4-2.6.9-3.9 1.3-2 2.2-2.7 5.3.6 6.6 1.3.3 2.5.6 3.8 1-.6.5-1.6 1.5-2.1 2-1 .9-2 1.9-2.9 2.8.7.7 2.2 2 3 2.7 1-.1 2-.2 3.1-.3-.7.6-1.4 1.2-2.1 1.7-2.9 3.7 2.3 6.9 3.7 10.1 2.8-2 6.2-1.7 9.3-.8 1.6-.8 3.1-1.8 4.6-2.7-1.5-.3-2.9-.6-4.4-.8-1.5-.3-3-.5-4.6-.6 1.5-.8 3-1.6 4.5-2.2.9-1.2 1.7-2.3 2.6-3.5l-2.2-1.1c-1.5-.5-3.2-.9-4.7-1.4 1.2-.3 2.5-.6 3.7-1 .3-1.3.7-2.6 1-3.9-.7-.4-2-1.3-2.7-1.7-1.3.1-2.6.2-3.8.4 1.1-1.3 2.3-2.5 3.5-3.7.6-.6 1.7-1.9 2.3-2.5-.9-1.1-1.9-2.2-2.8-3.3-1.7 0-3.5.1-5.2.1 1.1-1.2 2.2-2.3 3.2-3.5 1-1.1 2-2.1 3-3.2-1-.8-1.9-1.5-2.9-2.2-1.7-.4-3.5-.8-5.2-1.2 1.3-.8 2.8-1.6 4.2-2.4.9-1.1 1.9-2.3 2.8-3.5l-3.9-2.4c-1.4-.5-2.8-.9-4.3-1.4 1.2-.5 2.4-1.1 3.5-1.6 1-1.2 2-2.5 3-3.7-1.3-.3-2.6-.5-3.9-.6zm-5.6 2.6c2.2.3-.9 4.7-2.4.6 1.1-.5 1.9-.7 2.4-.6zm1.6 5.7c1.9 0 4 .6 5.8 1.9-3 4.4-8.4 4.9-12.5 1.8 1.7-2.5 4.2-3.7 6.7-3.7zm2 9.7c1.7 0 3.4.3 5 1.1-2 6-8.1 5.6-12.4 2.3 2.1-2.1 4.7-3.3 7.4-3.4zm1.2 9.6c2-.1 4.1.5 5.7 1.5-2.5 4-7 5.2-11 2.7.6-3 2.8-4.2 5.3-4.2zm4.7 9.1c.4 0 .8.1 1.3.1-1.3 4.8-6.4 5.2-9.9 2.5 2.5-1.8 5.5-2.7 8.6-2.6zm18.1 2.3c-3.2 3-6.3 6.5-7.1 11 .2.5.5 1.6.7 2.2 1.4 5.8 3 11.6 6.6 16.5 4-4.3 5-9.7 6-15 1-4.7 0-9.3-2-13.4-1-.4-2.8-.9-4.2-1.3zm3.2 3.4c2 6.6 2 14.7-3.7 19.3-2.8-6-5.4-17.7 3.7-19.3zm-21.7 1.5c1.2 0 2.4.3 3.6.9-2.8 3-6.8 4.3-10.5 2.2 1.9-2 4.4-3.2 6.9-3.1zm-171.5 65.8c-.2.4-.8 1.1-1 1.4.4 1.2.9 2.4 1.4 3.5 1.8.9 3.4 2.2 4.5 3.9-1.9.7-3.7 1.4-5.4 2.2-2.5 1.3-1.9 3.8-1.5 6.1 2.2.4 3.9 1.9 5.1 3.9-2.3.8-4.6 1.6-6.8 2.6-.7.3-2.1 1-2.8 1.4 1 1.4 2 2.8 3.1 4.1 3.1 2.5 3.5 4.7-.9 5.3-2.8.7-2.2 3.4-1.8 5.5 2 1.1 4 2.4 6 3.6-1.9 1-3.9 2-5.9 3-1.2.7-2.4 1.3-3.6 1.9 1.1 1 2.3 2 3.4 3 1.6 1.3 3.3 2.2 5 3.3-2.5 1.5-5.2 2.5-8.1 2.9 0 1.5.1 3 .2 4.6 3 .9 6.5 3.8 2 5.7-1.1.8-2.2 1.6-3.3 2.5 1 .7 2 1.5 3 2.3 4.1-.6 8.3-.7 12.5-.2.9-1.1 1.8-2.1 2.8-3.1-1.1-.6-2.2-1.3-3.2-2-4.3-1.3-1.6-3.8 1-5.1 2-1.4 2.4-3.6 2-5.9-1.4-.3-2.7-.7-4.1-1.1 1.3-1 2.7-1.9 4-2.9l3.3-2.4-3.2-3.2c-3.2-1.9-2.4-3.8.7-5.1 1.2-.9 2.4-1.8 3.6-2.6-1.1-1.2-2.3-2.2-3.4-3.3-1.2-1-2.5-1.9-3.8-2.8 2.1-1.4 4.2-2.8 6.1-4.4 1.2-1.1 2.4-2.2 3.7-3.3l-2.4-2.7c-1.2-.6-2.4-1.2-3.7-1.7 1.8-.7 3.5-1.6 5.3-2.3.9-1.1 1.7-2.1 2.7-3.2-.8-.9-1.6-1.8-2.3-2.7-6.5-2.4-3-5.9 2.1-6.8l2.4-3c-1.3-.8-2.6-1.6-4-2.3-4.9-.2-9.8-.3-14.7-.6zm3.2 2.2c3.9 0 7.7.5 11.6 1.3-4.3 3.7-10.3 4-13.3-1.3zm3.8 7.9c2.3 1.7 4.4 3.6 6 5.9-2.2 1.2-4.5 2.4-6.8 3.6-7-2.8-6.7-8.1.8-9.5zm17.1 11.8c-.4 2.5-1 5-1.5 7.5 9.3 9.6 22.2 15.2 34.9 18.7-11.4-8.4-22.7-16.8-33.4-26.2zm-19 .8c1.8 0 3.7.5 5.2 1.8-.2 3.8-5.1 5-7.8 7-8.4-3.3-3.1-8.6 2.6-8.8zm-2.8 11.3c2.2 1.6 4.3 3.3 6.4 5.1-2.2 1.2-4.3 2.4-6.5 3.7-2.3-1.8-4.5-3.5-6.6-5.4 2.2-1.1 4.5-2.3 6.7-3.4zm-.8 12.4c2.4 0 4.6 1.1 6.3 3.6-2.2 1.2-4.4 2.5-6.6 3.7-2.3-1.6-4.5-3.1-6.7-4.7 2.1-1.8 4.6-2.7 7-2.6zm-.2 9.6c9.3 3-3.7 11.2-7.4 5.2.3-3.4 5.1-3.5 7.4-5.2zm-2.1 11.3c1.6.1 3.1 1 3.9 3-3.2.2-6.4.1-9.7-.1 1.5-1.7 3.7-3 5.8-2.9zm-19.2 6c-3.7 1.6-7.3 3.4-10.9 5-.8 3-1.9 5-2.8 8 3-2 6.4-4 9.9-5 .2 5 .2 11 .1 16-3.2 2-6.4 4-9.6 7-.1 0-.3 1-.5 2 5.3 0 13.5 1 15.4-5 1.2-10 .8-19-1.6-28z" fill="#a11522"/>
    <path id="color7" d="m868 258.6c-7.7 5.2-15.3 11-21.3 18.2-5.3 9.4-4.2 22.7-13.1 29.9 13.3 13.7 35.7 13.6 51.4 4.3.1.6.2 1.9.3 2.5 1.9-6 1-12.9-3.5-17.6-3.4-.1-7 2.4-10.2.6 1.5-4.4 4-8.4 5.7-12.7-5-.4-11.5 1.5-14.7-3.6 8.9-4.9 11.5-13.2 5.4-21.6zm174 3.8c-2 .9-4 1.7-5 2.5-2 2-5 3.7-7 5.2l1 .3c6 .3 12-1.4 17-4.3-2-1.3-4-2.5-6-3.7zm-11 8.5c-1 1.9-2 3.8-4 5.6 5 2.8 11 3.1 16 2.5-3-3.4-8-5.8-12-8.1zm-77.2.8c-.1 4.4.8 8.8 2.4 13 .9-3.9 1.7-7.8 2.2-11.8-1.6-.4-3.1-.8-4.6-1.2zm95.2 16.5c0 10.4 3 20.6 6 30.6 2-4.5 2-9.6 2-14.5-1-5.9 0-15.4-8-16.1zm-47 8.5c-1 7.2-2.1 14.6-6.7 20.4 6.7-2.8 8.7-9.8 10.7-15.5 1-.5 1-1.6 1-2.1-2-.9-3-1.8-5-2.8zm12 3.7c-3 8.5-5 17.2-7 26l-1-.1c0-1.3-1-2.7-1-4.1-2 1.4-5.3 3.2-7.9 1-1.7 2.4-3.3 4.9-5 7.3.7 4.3.2 9 2.4 12.9 4.7 4.7 12.5 5.8 15.5 12.6 3-5.6 8-9.8 13-13.5-3-14.1-5-28.4-9-42.1zm-84.7 6.2c-5 1-10 2-15 2.9 2.9 12.8 13.8 21.6 21.5 31.7l2.4.4c-2.1-5.5-4.3-10.8-6.3-16.3 7.4 6.5 15.8 12.3 25.5 14.7.6-.2 1.8-.7 2.4-.9-7-2.4-14.7-6.1-17.1-13.7-6.7-4.3-9.8-12-13.4-18.8zm-40 23v2.1c.4 2.5 1 5.1 1.7 7.6h5.2c.6-1.1 1.3-2.3 1.9-3.4.2-1 .3-2 .5-3.1v-.6c-2 .1-4.1.3-6.1.4-1.1-1-2.2-2-3.2-3zm-4.6 3.2c-.1 4.7 0 9.4.5 14 2.4-4.3 3.5-9.1 4-14zm27.5 30.7c-59.7 34.1-114.9 81-146.7 143-12.3 21.4-22 44.1-31 67-14.8 41.5-27.7 86.8-16.5 130.7 7.2-7.6 17.5-14.3 28.4-10.7 23.8 7.9 42.1 27.6 66.8 33.3 11.6 2.7 23.5.5 34.8-2.3-2.2-22.5-3.5-45-2.5-67.5-4.9 1.5-9.6 3.2-14.5 4.6-.2-2.5-.3-5-.4-7.5-2.9 3.8-7.5 5.3-11 1.5-9.4 5.7-9.5-14.7-17.5-5.5-5.9-.5-2.1-9.9-8.4-9.3-8.1 0-5.7-10.1-4.9-15.3-5.2-.9-7.4-4.5-5-9.4-.5-4.7.7-9.2 1.4-13.8-6 2.7-12.6 2.4-17.8-1.7-8 7.7-5.4-8.9-14.2-6.9-8-8-12.3-25 0-30.9 4.1-2.8-.9-7-2.1-10.1-1.3-6.7 6.5-19.3 12.8-10.1-.1-1.6-.1-3.2-.1-4.8 1.9.3 3.9.7 5.8 1-2.9-9.5 8.2-25 17.4-16-.5-6.6 7.9-12.9 12.7-6.4.6-.6 1.3-1.2 1.9-1.8l-.9-5.7c3.3-2.2 6.9-3.7 10.8-4.4.8 2.1 1.8 4.1 2.7 6.1 2.7-10.4 13.4-19.4 23.7-12.1 4.5-6.6 9.4-4.1 15.7-3.2l.6-8.7c3.7.6 7.3 1.8 10.8 3.3-.3 1.7-.5 3.3-.7 5 1.7-.2 3.4-.3 5.1-.5-.1-1.6-.3-3.1-.4-4.7 10.1-8.7 17.3 4.6 26.3 7.1.8-.1 1.6-.1 2.5-.1 8.7-5.7 22.5-2.8 27.7-13.3 4.8-10.9 19-19.2 14.9-32.5-4.2-19.4-7.4-38.9-12.1-58.1-4.2-10.4-10.7-19.6-16.1-29.3zm180.8 16.1c-10 .1-20 .8-29 3.3 3 17.1 8 33.7 13 50 2 .5 3 1 5 1.6 3 15.2 6 30.6 10 45.7v-3.2c28 21.6 54 47.7 72 78.7-1 .2-2 .6-2 .8 5-.3 9 1.7 13 5.2 5 12.6-9 16.9-12 27.5-4 2.1-9 1.1-13 4.9 1 .5 2 1.4 2 1.9-3 2.2-7 4.5-10 6.9-1 13.9-12 37.7 6 43.2-1 5.9 3 13.4-2 17.9-2-2.4-3-5-4-7.7-1 2.3-3 4.5-4 7.2 1 11.8 10 25.1 1 35.5 3 .2 7 .3 10 .3 30-20.6 58-45 78-75.7 16-23.1 29-50.7 24-79.6-6-60.8-48-111.1-97-143.6-14-7.9-27-18.7-43-20.5-6-.1-12-.3-18-.3zm-61 63.3c-13 23.4-22 53.2-10 78.6 7 15.6 12 31.5 17 47.6 7 6.3 15 12.5 17 22.4 5 .3 10 1.5 15 2.6 2-3.8 3-8 1-12.1-5-20.1-8-40.8-13-60.8-2-.6-4-1.3-6-1.9-8-18.4-2-37.6-8-56.1-4-6.9-8-14.2-13-20.3zm-42.7 8.8c-.4 0-1 .2-1.7.5.5 4.9 4.6-.7 1.7-.5zm5.3 20.9c-.3 0-.7.2-1.1.5.6 3.2 2.5-.3 1.3-.5 0 0-.1 0-.2 0zm76.4 55.1c3 16 7 31.9 11 47.8 6-11.3-2-23.8-3-35.6 0-5.6-2-11.5-8-12.2zm26 125.8c-5 6.8-9 17.2-20 15.8v7.8c-4 2.9-9 2.7-14 2.6 1 3.9 1 8.1-3 9.2-1-1-1-3-2-4-10 14.7-29 10.8-45 10.9-4-7.3-18.6-3.9-15.8-16.5-2.1.7-4.2 1.4-6.4 2.2-3.1-2.2-5.9-4.7-8.2-7.8-1.9 4.3-6.4 3.6-10.3 3.2-2.3 2.4-4.5 4.9-6.7 7.5 18.5 2.4 35.4 12.5 48.4 25.7 8 7.1 18 13.6 29 12.3 10-1.4 7-21.3 19-16.4 10 3.3 31 7.2 25 22.4 10-3.3 19-7.3 29-11.5-1-4.2-2-8.7 0-12.9-4-.8-8-1.6-12-2.5-6-15.7-1-32.2-7-48zm-187.3 3.2c-3.6 13.9-7.5 27.7-10.3 41.7 1.6-.1 3.1-.1 4.6-.1.1.5.4 1.5.5 2 3.2-14.4 7.1-28.6 10.9-42.9-1.9-.2-3.8-.4-5.7-.7zm-224.6 73.8c-.7.1-1.4.1-2.1.3-12.5 2.1-23.1 10.4-36 11-8.8 2.1-18-1.5-26.7 1-1.3 1.1-2.5 2.2-3.7 3.4 2.4 8.9 8.4 18.7 18.3 20.3 14.6-3.5 21.1-19.7 35.1-24.6-3.1 16.8-7.5 33.4-6.5 50.6.3 5.9.9 11.7 2.2 17.5 1.8-10.4 10.2-17.4 15.4-26 9.1-13.2 13.1-29.2 14-45 0-5.3-5.1-8.6-10-8.5zm28.3 102.1c.9 1 1.8 1.9 2.7 2.9 1-.5 1.9-1 3-1.3 2.2 11 4.7 22 9.6 32.1 3.1-7.7 7.1-16.2 4.8-24.6-2.8-8.2-12.9-8.5-20.1-9.1zm293.6 49.8c-3 4-7 8.4-5 13.7 3 11.8 1 24.6-6.4 34.5-3.5 7.9-13.7 7.3-20.5 5.2-10.8-11.1-15-27.3-10-42.2-6.1 11.2-5.2 24.4-1.2 36.1 2.8 8.4 8.3 19.1 19.1 16.8 11.8 1.8 19-9 22-18.7 4-9.7 4-21-1-30.5 4-4.2 3-9.8 3-14.9zm-145 148.6v3c-16.1-2-32.9 2-45.6 12-11.3 12-28 4-41.7 3 1.2 4 2.2 9 3 13 10.6 3 20.6-4 31.3-2 19.1-4 36.5-16 56.6-14 .4-3 .7-6 1-9-1.8-2-3.5-4-4.6-6z" fill="#601421"/>
    <path id="color8" d="m956.4 350.2c-.2 2.2-.4 4.4-.6 6.5-1.2.2-2.5.4-3.7.7-.1 1.1-.1 2.1-.1 3.2 1.3.3 2.7.7 4.1 1-.3 3.7-.7 7.3-1.4 11 .4.3 1.1 1 1.5 1.4 1.1.3 2.3.7 3.4 1 .3-3.8.4-7.7.6-11.5 1.6-.6 3.4-.8 5.1-1.3-.1-.7-.4-2.2-.6-2.9-1.2-.6-2.4-1.2-3.5-1.8-.2-2.4-.4-4.9-.6-7.3zm59.6 7.1c-1-.1-2 .9-1 3.5-2 .2-3 .3-4 .5v3.3c2 .2 4 .3 6 .5 2 3.6 1 10.2 6 10.2 0-3.7-1-7.2-3-10.7 2-.3 3-.5 4-.7v-2.7c-2-.2-3-.3-4-.5-1-2-2-3.2-4-3.4zm-31 80.7c-3.9-.3-6.2 9.3 2.2 7.3l-.7-1.2c-.7-1-1.3-2-1.9-3.1.9 0 2.8-.1 3.8-.1-1.1-2.1-2.4-2.9-3.4-2.9zm28 1.6c-1 0-3 .5-4 2 2 .2 3 .3 4 .5 0 1.6-1 3.2-1 4.8 7 1.1 5-7 1-7.3zm-31.4 7.3c-3.8.4-4.9 9.9 2.9 6.9-1.1-.9-2.1-1.9-3.2-2.9 1.4-.5 2.7-1.1 4.1-1.6-1.4-1.8-2.7-2.5-3.8-2.4zm29.4.7c-1 .8-2 1.7-4 2.6 2 .6 4 1.2 6 1.9-2 .3-3 .7-4 1.1-1 .5-1 1.3-2 1.7 6 3 11-5.4 4-7.3zm-30.7 9.4c-4.6.2-4.9 9.1 1.9 7.9-3-2.3-2.3-5.6 1.1-6.9-1.1-.7-2.1-1-3-1zm25.7 2.7c-1 0-2 .3-3 .9l3 2.1c-1 .9-1 1.9-2 2.9l-1 1.2c8 3.2 8-7.5 3-7.1zm-29.9 8.4c-3.9.1-6 7.6.7 8.1.2-.2.5-.5.7-.6-.8-1.3-1.6-2.5-2.4-3.7 1.1-.4 2.3-.9 3.5-1.4l1.2-.4c-1.3-1.4-2.5-2-3.7-2zm26.9 3.7c-1 .1-2 .3-3 .9 4 1.9 5 4 0 4.8l-.5.3c7.5 5.6 9.5-6.1 3.5-6zm-30.6 6.1c-5.9 0-3.5 11.3 3.1 6.5-1.4-.8-2.7-1.6-4.1-2.4 1-1.3 2-2.5 3.1-3.7-.8-.3-1.5-.4-2.1-.4zm30.6 4.7c-1 0-2 .4-3.6 1.3 1.6.8 2.6 1.6 4.6 2.4-2 .9-3 1.7-4.7 2.5 7.7 5.1 8.7-6.1 3.7-6.2zm-34.4 5.4c-1.1 0-2.2.6-2.8 2.1-1.8 4.4 3.9 6.8 6.8 3.7-1.5-.5-2.9-1-4.3-1.6 1.7-.3 3.5-.6 5.3-.8-.9-1.8-3.1-3.4-5-3.4zm32.4 4.4c-1.1.1-2 .2-3 .6l1.1 1.2c.8.7 1.9 1.4 2.9 2.2-1 .3-2.6.7-3.6 1l-1.3.4c5.9 7.3 10.9-5.7 3.9-5.4zm-33.7 3.6c-5 .2-2.7 12.3 4.2 5.5-1.8-.4-3.6-.9-5.4-1.3 1.6-1 3.1-1.9 4.7-2.8-1.4-1-2.6-1.4-3.5-1.4zm33.7 5.3c-1-.1-2.3.2-3.8 1.1 1.2.8 2.3 1.7 3.8 2.5-1.3.5-2.3.9-3.3 1.4l-1.2.6c6.5 6.5 9.5-5.2 4.5-5.6zm-22.7 307.8-.4.7c-.7 1-1.4 2.1-2.1 3.2 1.3.1 2.6.3 3.9.6-1 1.2-2 2.5-3 3.7 6.1.5 6.4-5.9 1.6-8.2zm-16.2 3.8c-3.2 0-4.6 3.6-2.4 6.9 1.5-.2 2.9-.5 4.4-.6l-2.4-3.6c.7-.5 2.1-1.5 2.9-2-.9-.5-1.8-.7-2.5-.7zm-292 5.7-1 .7c-19.7 14-20.3 46.4-1.6 61.5 1.5 1.2 3.1 2.4 4.6 3.5.7-.9 1.4-1.8 2.1-2.6-23.2-11.8-22.7-48.3.4-60-1.6-.9-3.1-1.9-4.5-3.1zm311.4.3c-1.3.5-2.6.9-4 1.4l3.9 2.4c-.9 1.2-1.9 2.4-2.8 3.5 4.9.6 6.5-4.4 2.9-7.3zm-17.2 3.2c-1.7 0-3.4.1-5.1.2-.2 1.9-.2 3.8-.2 5.7 1.7.1 3.4.1 5.2.2-.9-1.1-1.8-2.3-2.6-3.4.9-.9 1.8-1.9 2.7-2.7zm18.2 5.5c-1 .7-1.9 1.4-2.9 2.2 1 .7 1.9 1.4 2.9 2.2-1 1.1-2 2.1-3 3.2 5.6 1.2 6.8-4.6 3-7.6zm-17.6 3.8c-5.5 0-4.7 8.3 1.3 6.7-.8-1-1.6-2.1-2.4-3.1.6-1.2 1.1-2.4 1.7-3.6zm18.9 6.6c-.7 0-1.4.2-2.3.6.9 1.1 1.9 2.2 2.8 3.3-.6.6-1.7 1.9-2.3 2.5 6.2 2.2 6.4-6.4 1.8-6.4zm-16.3 2.8c-6 .2-5.2 9.6 1.2 6.6-3.3-1.3-2.6-4.4-.6-6.6zm17.7 5.5c-.8 0-1.8.4-2.9 1.4.7.4 2 1.3 2.7 1.7-.3 1.3-.7 2.6-1 3.9.5 0 .9 0 1.3-.1-.1.7-.2 1.9-.3 2.5l2.2 1.1c-.9 1.2-1.7 2.3-2.6 3.5 1.9-.5 3.9-.9 5.8-1.4-.9-2.5-2-5-4.8-5.7 4.4-1 3-6.9-.4-6.9zm-18.5 2.7c-3 3.5-1.5 8.6 3.8 6.9-.8-.7-2.3-2-3-2.7.9-.9 1.9-1.9 2.9-2.8-1.3-.5-2.5-1-3.7-1.4zm3.3 8.2c-6.9.1-.7 8.6 1 12.3l4.2-2.1c-1.4-3.2-6.6-6.4-3.7-10.1-.6-.1-1.1-.1-1.5-.1zm17.2 3c-.8.9-1.7 1.9-2.5 2.9 1.5.2 2.9.5 4.4.8-1.5.9-3 1.9-4.6 2.7 2.6 1.4 5.1.9 6.9-1.4-.2-.6-.5-1.7-.7-2.2-1.1-1-2.3-1.9-3.5-2.8zm-266 7.2c-2 3.6-4.3 6.9-6.7 10.2.8.5 2.2 1.4 2.9 1.9 4.3-2.3 6.8-6.5 9.1-10.5-1.7-.6-3.5-1.2-5.3-1.6zm84.6 52.6c-4.9-.2-5.1 11.2 2.4 7.6-.5-1.1-1-2.3-1.4-3.5.2-.3.8-1 1-1.4l1.1-1.3c-1.2-1-2.2-1.4-3.1-1.4zm19.9 1.7c-.9.1-2 .6-3.2 1.6 1.4.7 2.7 1.5 4 2.3l-2.4 3-1 1.1c7.8 3 7.5-8.3 2.6-8zm-21.8 10.2c-4.3.2-5.4 10.4 1.9 7.9-.4-2.3-1-4.8 1.5-6.1-1.3-1.3-2.4-1.8-3.4-1.8zm19.4 2c-.7 0-1.4.2-2.2.5l.9 1c.7.9 1.5 1.8 2.3 2.7-1 1.1-1.8 2.1-2.7 3.2.7.5 2 1.4 2.6 1.8 5.1-2 3.8-9.2-.9-9.2zm-20.3 9.6c-6.7-.2-6.3 11.5 1.4 8.3-1.1-1.3-2.1-2.7-3.1-4.1.7-.4 2.1-1.1 2.8-1.4.1-.7.2-2 .3-2.6-.5-.1-1-.2-1.4-.2zm18.3.4c-.6 0-1.3.1-2.1.4l.8 1 2.4 2.7c-1.3 1.1-2.5 2.2-3.7 3.3 1.2.5 2.4 1.1 3.7 1.7 4.5-2.2 3.3-8.9-1.1-9.1zm-21.3 11.6c-4.3.2-5.2 9.8 1.9 8.4l-.2-1.3c-.4-2.1-1-4.8 1.8-5.5-1.3-1.2-2.5-1.7-3.5-1.6zm19.3 1.9c-.8.1-1.8.4-2.9 1.1 1.1 1.1 2.3 2.1 3.4 3.3-1.2.8-2.4 1.7-3.6 2.6 7.3 5.9 8.9-7.3 3.1-7zm-21.3 9.8c-4.4.5-3.6 12.8 3.6 6.9-1.1-1-2.3-2-3.4-3 1.2-.6 2.4-1.2 3.6-1.9-1.5-1.5-2.8-2.1-3.8-2zm20.6 1.2c-.9 0-1.9.4-3.1 1.1l3.2 3.2-3.3 2.4c7.2 6.5 9.2-7.1 3.2-6.7zm-3.1 9.4v1.3c.4 2.3 0 4.5-2 5.9 6.3 6.3 10.2-7.4 2-7.2zm-18.4.7c-6.3-.4-5.1 11.3 1.7 7.9l-.1-1.5c-.1-1.6-.2-3.1-.2-4.6v-1.6c-.5-.1-.9-.2-1.4-.2zm18.9 9.7c-1 .1-2.2.7-3.5 1.9 1 .7 2.1 1.4 3.2 2-1 1-1.9 2-2.8 3.1 7.6 5.8 8.2-7.5 3.1-7zm-18.4 1.5c-6-.1-3.1 13.3 3.7 6.4l-.9-.7c-1-.8-2-1.6-3-2.3 1.1-.9 2.2-1.7 3.3-2.5-1.2-.7-2.3-.9-3.1-.9z" fill="#a5a0a7"/>
    <path id="color9" d="m567.3 662v3.3c16 60.8 57.2 111.3 101.8 154l1-.7c-2-2.6-3.6-5.5-4.4-8.6-1.3-5.8-1.9-11.6-2.2-17.5-10.5-7.5-19.7-16.7-28.6-26-9.9-1.6-15.9-11.4-18.3-20.3-18.1-26.9-36.2-54.3-49.3-84.2zm666.7 44.9c6 12.6 14 24.8 21 37.6 3 6.9 7 14 11 21.1 11 22.9 22 46.6 25 72.1 3 2.3 6 4.5 8 6.9h5c0-8.1 2-16.5 0-24.4-14-35.5-30-69.8-52-100.4-5-5.7-12-9.3-18-12.9zm-514.9 127.3c-1.1.3-2 .8-3 1.3-1.3 1-2.6 2.2-3.9 3.3-8.5 7.4-17.3 14.4-25.8 21.8.5 0 1.5.1 1.9.2 8.3.8 16.4 2.4 24.4 4.5 1.6.4 3.1.8 4.7 1.2 1.3.3 2.5.6 3.8.9 1.8.4 3.6 1 5.3 1.6 1.6.6 3.1 1.2 4.5 2-.8-1.5-1.6-3.1-2.3-4.7-4.9-10.1-7.4-21.1-9.6-32.1zm58.7 21.2c5 14.7 8.9 30.1 18 43 1.7-2.5 4-4.5 6.3-6.5.3-11.6 1-23.2 2.5-34.7-8.9-.8-17.9-.1-26.8-1.8zm239.2 19.5c-3-.1-7 .5-11 2.1 0 1.7 0 3.5 1 5.4 0 5.1 1 10.7-3 14.9 5 9.5 5 20.8 1 30.5 12 .2 24-.8 37-1.1 2-3.2 5-6.4 7-9.7v-15.9c-5-2.8-9-5.5-14-8.2 0-5.8 0-11.6 1-17.4-6-.2-12-.3-17-.5-1 0-1-.1-2-.1zm-178 3.9c-1.9 4.3-3.6 8.7-5.1 13.2 4.7 3 4 8.9 3.6 13.7.3.3 1 1 1.4 1.3l3.9-2.1c.8 1 1.7 2 2.5 3-.9 1.4-1.8 2.8-2.8 4.2 1.4 2.4 2.8 4.9 4.3 7.3l2.4-3.3c19.9 0 39.9-1.3 59.7-1 5.9 3.7 9.1 10.7 14 15.7 13.6-.3 27.3-1.2 41-1.1-4-11.7-4.9-24.9 1.2-36.1.8-2.5 1.6-5.1 2.3-7.8-24.7 4.4-50 8.1-75.1 5-3.9 4.4-7.7 8.8-11.3 13.4 1.5-4.7 3.1-9.3 5.1-13.7-15.8-1.9-31.4-5.4-46.1-11.6-.3-.1-.8-.1-1-.1z" fill="#c0c0c0"/>
  </g>
</svg>
