<svg height="1080" width="1920" xmlns="http://www.w3.org/2000/svg">
  <path id="background" d="m0 0h1920v1080h-1920z" fill="#3a4355"/>
  <g id="transform" transform="translate(0,0) scale(1.00)">
    <path id="color1" d="m669.609 96.3262c-4.548-.031-9.115.2476-13.679.8633-22.65 2.47-43.24 13.8905-60.68 28.0505-13.58 11.33-28.601 22.839-46.631 25.299-7.26 1.19-16.569-1.608-18.459-9.578-1.32-4.45 2.041-7.97 4.641-11.07-7.16 2.83-14.371 9.799-12.981 18.109 2.51 6.27 10.409 6.95 16.209 7.74-12.8 3.69-26.079-.521-39.099.539-11.02.69-22.89 2.662-31.52 10.102-7.9 7.14-6.649 20.279.231 27.699 3.36 2.85 4.559 2.579 2.379-1.541-4-7.04-2.159-16.349 4.441-21.119 12.51-11.87 31.7-9.961 46.51-3.971-10.66 2.09-21.21 5.992-29.51 13.192-9.51 9.86-9.911 26.718-1.141 37.148-3.88-11.67-1.66-25.938 8.58-33.648 11.68 4.62 24.269 9.45 37.049 7 8.26-1 15.952-4.541 22.852-9.071-8.45 7.79-17.122 15.659-23.182 25.539-4.23 7.59-7.408 16.052-13.908 22.112-12.41 11.55-31.942 15.718-47.432 8.058-10.63-5.35-19.589-18.679-12.879-30.349-7.41 4.73-13.12 13.9-9.73 22.8 6.56 16.35 26.83 24.251 43.24 19.081-7.25 3.58-14.43 7.679-20.18 13.439-6.5 6.81-5.88 17.43-2.88 25.67.63-4.75-.571-9.74 1.189-14.32 2.71-7.42 10.601-11.311 17.801-13.151-5.97 3.25-7.83 10.952-4.24 16.682 2.88-6.94 8.92-12.27 16.33-13.83-5.58 8.52-9.619 18.74-7.629 29.08 2.72 11.51 12.489 21.228 24.189 23.408-4.54-3.89-8.851-8.329-10.621-14.199-4.5-12.31 1.521-25.46 8.971-35.24-1.43 16.06 4.75 31.169 12.34 44.929 4.5 7.54 5.809 16.782 2.439 25.022 4.39-2.78 6.312-7.781 6.932-12.731 5.07 8.44 5.16 20.529-3.99 26.209 8.14-1.64 14.358-7.678 17.388-15.228-.67 5.84-1.988 11.789-5.068 16.879-3.09 4.89-8.732 6.941-13.342 10.031 11.75.96 23.871-4.461 31.231-13.631 1.99 7.08 8.11 12.791 15.88 11.721-7.2-3.65-11.99-10.782-11.72-19.012 6.14 8.29 15.159 13.731 24.269 18.231 5.94 3.14 12.421 5.131 18.381 8.201 3.61 1.86 2.52 6.399 2.91 9.699 2.63-4.99.911-10.481-1.529-15.141 6.27 1.37 12.559 3.272 19.059 2.682-6.16-1.37-12.309-3.431-17.219-7.541 4.89.26 9.778.561 14.638 1.211 3.55-1.04 7.142-1.962 10.692-3.022-5.96-.77-12.601-.138-17.801-3.648-3.55-3.79-2.18-9.71-1.07-14.25.5-1.48.89-3.962 2.92-2.592 9 3.76 18.73 5.571 28.47 4.141-2.5-2.91-6.551-3.729-9.291-6.379 3.92-1.76 10.261-2.531 11.071-7.551-7.47-.51-17.41-2.02-19.6-10.58 7.4 4.69 19.74 3.701 22.67-5.779-6.67 1.69-14.29 1.27-19.48-3.75-3.55-4.21-5.439-9.56-6.799-14.83 5.97 9.27 16.088 16.219 27.398 16.109-6.78-5.79-15.819-10.501-18.539-19.961 11.21 6.24 24.73 16.731 20.85 31.371 4.38-2.58 3.27-8.52 4.72-12.73 1.12 1.96.671 8.94 3.411 4.99.51-9.43 1.418-19.59-3.612-28.08 4.06 3.79 8.411 7.42 11.631 11.99 3.07 4.46 1.06 9.94.66 14.84 3.61-1.97 4.7-6.84 4.42-10.65-2.78-12.53-15.51-19.09-20.16-30.69 4.71 3.73 9.429 8.1 15.609 9.1-4.36-5.43-9.859-10.5-9.589-18.17 5.43 4.99 11.28 10.319 18.58 12.179-1.41-2.51-3.54-4.46-5.42-6.58-7.22-8.87-9.611-20.49-9.991-31.67 5.88 13.29 19.12 24.73 34.42 22.92-4.49-4.47-10.099-8.399-11.709-14.939 5.21 5.4 10.97 10.801 18.62 12.301-.64-3.74-4.051-5.971-5.901-9.061-6.59-9.25-6.919-21.329-5.049-32.099.24 11.76 4.269 23.24 11.539 32.5 2.66 2.99 5.082 7.049 9.362 7.699-2.1-4.42-5.67-8.009-7.25-12.699-3.07-8.58-2.781-17.821-4.141-26.731 7.77 15.04 19.55 30.67 14.69 48.6 5.87-3.57 6.74-11.371 6.65-17.641 2.78 6.53 2.7 13.801 2.07 20.731-.49 4.05-4.539 5.86-7.109 8.47 14.46.36 23.309-13.6 26.299-26.16 1.83 8.08 1.53 16.6-1 24.49 10.9-6.98 13.23-21.58 12.67-33.58 2.95 11.89 6.599 26.61-2.731 36.67-3.12 2.96 2.702.87 4.442 1.08-2.99 3.73-6.87 6.53-10.67 9.35 2.33.12 4.679.11 7.029.25-9.38 16.84-8.581 37.99-20.891 53.33 5.13 6.41 8.801 14.08 10.901 22.01 1.68 6.22-1.981 11.951-5.651 16.621 9.66-.81 15.962-9.921 19.272-18.201 2.34-8.16 1.548-16.881.238-25.151 6.25 5.91 8.59 15.071 10.66 22.461.76-8.13 1.211-16.861-2.929-24.221 7.68 4.17 14.39 10.952 14.41 20.272 1.22-1.74 2.17-3.651 2.99-5.611-.14-3.13-.61-6.229-1.17-9.299 11.45 5.7 28.55-.911 29.15-14.801-4.71 4.11-9.609 9.461-16.439 9.051-9.94-.3-15.581-11.662-14.791-20.442 5.09-2.98 9.53-6.819 12.99-11.619 1.24 6.97-1.349 13.6-4.439 19.68 11.61-9.98 17.519-26.29 14.529-41.41 4.83 7.57 5.999 16.92 2.689 25.32 11.84-11.28 3.802-28.42-2.128-40.6 5.01 3.99 10.029 8.15 16.189 10.28 8.87 2.93 12.16 12.809 13.75 21.109 3.48-7.13-3.511-13.988-.721-21.068 2.06-10.62-1.949-22.051-9.009-30.061-9.38-10.3-20.79-18.69-29.25-29.84-12.27-15.98-18.4-35.44-27.92-52.97-8.92-16.42-23.45-28.92-38.59-39.45-20.081-14.031-44.092-23.2366-68.651-23.4038zm-135.978 75.2128c7.81.21 15.529 2.291 23.379 2.731-13.18 10.83-31.85 14.231-48.41 11.191-2.39-.94-6.22-.692-7.44-3.182 9.06-7.38 21.121-9.61 32.471-10.74zm273.408 55.371c10.13 4.3 19.292 11.32 26.182 19.92 6.34 7.81 7.818 18.24 7.388 28-4.71-7.57-10.919-13.99-17.129-20.32-7.67-7.68-12.531-17.6-16.441-27.6zm-69.01 116.731c-9 7.39-17.469 15.529-27.279 21.869-4.29 2.01-10.74-4.22-13.34-.19 3.57 2.87 7.311 5.539 10.721 8.619l.129-.849c3.87 2.93 7.37 6.32 11.32 9.14 1.68-2.32 2.589-5.021 2.869-7.861 3.87 4.27 9.041 7.672 14.981 7.852-6.07-3.22-11.06-9.001-11.33-16.131 3.52 8.95 13.161 14.221 22.621 11.791-4.03-3.17-7.991-6.601-9.871-11.531 3.37 2.57 7.889 3.909 11.589 1.099-11.73.19-14.67-14.728-12.41-23.808zm111.51 4.039c-.17.59-.519 1.769-.699 2.359.18-.59.529-1.769.699-2.359z" fill="#ceb2cb"/>
    <path id="color2" d="m931.666 165.432c-7.696-.137-15.09 3.651-21.137 8.218-12.84 10.04-21.379 24.521-27.289 39.491-12.25 30.67-12.731 64.139-14.621 96.619-4.69 7.53-9.259 15.18-13.529 22.99-1.96 4.93-3.761 9.93-5.551 14.93-.17.59-.519 1.769-.699 2.359-1.3 6.48-4.26 12.901-2.91 19.641 3.96-4.78 5.051-11.231 8.131-16.571.59-2.96 2.039-5.628 3.779-8.058 2.52-4.77 4.829-9.642 7.439-14.362 1-1.96 2.101-3.889 3.371-5.699-.13 1.87-.309 3.75-.589 5.61-.65 4.01-.462 8.091-.022 12.111.58 8.35.9 16.749.74 25.129-.03 5.38 1.081 10.681 1.311 16.051 1.59 16.65 3.41 33.469 8.64 49.429 2.33 6.35 5.03 13.18 10.7 17.28 4.38 3.12 10.56 1.671 14.24-1.889 6.99-6.53 10.361-15.801 13.391-24.631 5.69-18.22 8.71-37.169 10.65-56.109-6.97 18.77-13.212 38.019-23.262 55.449-2.96 5.16-7.629 11.33-14.429 9.9-5.49-2.12-6.749-8.749-8.309-13.769-2.97-13.81-4.61-27.961-4.83-42.071-.39-3.88-.691-7.76-.861-11.65-.63-6.92-1.02-13.87-.84-20.82.16-4.05.21-8.101-.11-12.141.24-7.7-2.39-17.009 3.7-23.099 12.1-15.63 27.66-31.02 47.98-34.29-5.52 18.15-14.321 35.371-25.561 50.651-3.53 4.36-6.709 9.25-11.509 12.33-2.9 2.53-5.579 5.298-8.619 7.658-.67.65-1.322 1.31-1.952 1.99 9.69-2.09 16.811-9.668 23.221-16.718 14.05-16.74 24.791-36.1 32.881-56.34 16.11-.64 32.379 6.648 42.519 19.238 18.13 23.01 20.85 54.881 15.27 82.791-4.31 24.47-27.309 42.08-51.029 45.57 26.12 2.83 49.358-17.731 56.978-41.621 8.411-24.03 6.531-51.168-3.558-74.398-7.02-16.02-19.17-30.911-36.09-36.861-6.83-2.59-14.182-2.549-21.362-2.639 6.52-22.4 11.032-45.662 10.202-69.102-.38-8.11-1.132-16.4-4.202-23.99-1.58-3.87-4.539-7.729-8.959-8.299-1.108-.189-2.215-.289-3.314-.308zm-6.301 11.963c4.184-.151 8.359 2.116 10.324 5.986 5.39 9.9 4.871 21.719 4.291 32.639-1.6 17.72-5.29 35.3-10.75 52.22-20.94 4.28-39.16 16.95-53.15 32.76.98-22.62 4.59-45.18 10.58-67.02 4.27-14.59 9.69-29.13 18.61-41.56 4.27-5.67 9.32-11.219 15.99-14.039 1.315-.618 2.711-.936 4.105-.986zm-303.105 160.066c-1.11 4.54-2.48 10.46 1.07 14.25 5.2 3.51 11.841 2.878 17.801 3.648-3.55 1.06-7.142 1.982-10.692 3.022 6.07 4 12.522 7.429 18.272 11.889 5.09 3.89 9.16 9.02 14.67 12.38 5.79 4.03 13.27 3.389 19.51 6.389 9.64 3.46 18.68 9.812 22.33 19.772.85-.75 1.698-1.501 2.568-2.241-.12-6.33-1.7-12.541-5.59-17.621 2.43-4.8 6.922-9.12 5.932-15.01-3.41-3.08-7.151-5.749-10.721-8.619-2.37 5.06-2.56 11.391-6.64 15.481-4.71-2.21-4.2-10.001-9.53-12.121-13.95-6.93-29-11.571-42.48-19.491-6.76-2.05-10.62-8.288-16.5-11.728z" fill="#dbf4f5"/>
    <path id="color3" d="m533.631 171.539c-11.35 1.13-23.411 3.36-32.471 10.74 1.22 2.49 5.05 2.242 7.44 3.182 16.56 3.04 35.23-.361 48.41-11.191-7.85-.44-15.569-2.521-23.379-2.731zm-42.17 9.102c-7.77 2.68-14.671 7.338-21.441 11.898 2.18 4.12.981 4.391-2.379 1.541-56.8 37.78-92.841 106.47-87.311 174.92 2.34 45.05 21.94 89.009 53.24 121.439 26.45 28.58 61.371 48.922 98.981 58.772 3.25-4.41 3.608-10.112 5.308-15.172 4.67-19.82 11.021-39.419 12.631-59.779.78-3.66 1.151-7.389 1.971-11.039-8.39-15.31-18.402-32.061-14.682-50.291 3.22-18.79 14.81-40.1 35.5-43.02 6.5-4.44 13.96-7.07 20.92-10.64-9.11-4.5-18.129-9.941-24.269-18.231-.27 8.23 4.52 15.362 11.72 19.012-7.77 1.07-13.89-4.641-15.88-11.721-7.36 9.17-19.481 14.591-31.231 13.631 4.61-3.09 10.252-5.141 13.342-10.031 3.08-5.09 4.398-11.039 5.068-16.879-3.03 7.55-9.248 13.588-17.388 15.228 9.15-5.68 9.06-17.769 3.99-26.209-.62 4.95-2.542 9.951-6.932 12.731 3.37-8.24 2.061-17.482-2.439-25.022-7.59-13.76-13.77-28.869-12.34-44.929-7.45 9.78-13.471 22.93-8.971 35.24 1.77 5.87 6.081 10.309 10.621 14.199-11.7-2.18-21.469-11.898-24.189-23.408-1.99-10.34 2.049-20.56 7.629-29.08-7.41 1.56-13.45 6.89-16.33 13.83-3.59-5.73-1.73-13.432 4.24-16.682-7.2 1.84-15.091 5.731-17.801 13.151-1.76 4.58-.559 9.57-1.189 14.32-3-8.24-3.62-18.86 2.88-25.67 5.75-5.76 12.93-9.859 20.18-13.439-16.41 5.17-36.68-2.731-43.24-19.081-3.39-8.9 2.32-18.07 9.73-22.8-6.71 11.67 2.249 24.999 12.879 30.349 15.49 7.66 35.022 3.492 47.432-8.058 6.5-6.06 9.678-14.522 13.908-22.112 6.06-9.88 14.732-17.749 23.182-25.539-6.9 4.53-14.592 8.071-22.852 9.071-12.78 2.45-25.369-2.38-37.049-7-10.24 7.71-12.46 21.978-8.58 33.648-8.77-10.43-8.369-27.288 1.141-37.148zm284.559 150.548c4.14 7.36 3.689 16.091 2.929 24.221-2.07-7.39-4.41-16.551-10.66-22.461 1.31 8.27 2.102 16.991-.238 25.151-3.31 8.28-9.612 17.391-19.272 18.201 3.67-4.67 7.331-10.401 5.651-16.621-2.1-7.93-5.771-15.6-10.901-22.01-1.73 2.08-3.57 4.071-5.5 5.971-2.26 9.08.68 23.998 12.41 23.808-3.7 2.81-8.219 1.471-11.589-1.099 1.88 4.93 5.841 8.361 9.871 11.531-9.46 2.43-19.101-2.841-22.621-11.791.27 7.13 5.26 12.911 11.33 16.131-5.94-.18-11.111-3.582-14.981-7.852-.28 2.84-1.189 5.541-2.869 7.861 3.34 2.38 6.1 7.509 10.84 6.059 3.17-1.15 5.3 1.861 7.81 3.191 4.06-.77 8.76-3.6 12.44-.23 3.78 3.5 10.97 3.281 11.75 9.391 6.59 3.96 12.989 8.819 16.109 16.109 7.3-6.18 10.711-16.479 12.651-25.689 2.32-14.84 5.11-30.291 2.24-45.211-.82 1.96-1.77 3.871-2.99 5.611-.02-9.32-6.73-16.102-14.41-20.272z" fill="#252934"/>
    <path id="color4" d="m702.57 211.311c-1.87 10.77-1.541 22.849 5.049 32.099 1.85 3.09 5.261 5.321 5.901 9.061-7.65-1.5-13.41-6.901-18.62-12.301 1.61 6.54 7.219 10.469 11.709 14.939-15.3 1.81-28.54-9.63-34.42-22.92.38 11.18 2.771 22.8 9.991 31.67 1.88 2.12 4.01 4.07 5.42 6.58-7.3-1.86-13.15-7.189-18.58-12.179-.27 7.67 5.229 12.74 9.589 18.17-6.18-1-10.899-5.37-15.609-9.1 4.65 11.6 17.38 18.16 20.16 30.69.28 3.81-.81 8.68-4.42 10.65.4-4.9 2.41-10.38-.66-14.84-3.22-4.57-7.571-8.2-11.631-11.99 5.03 8.49 4.122 18.65 3.612 28.08-2.74 3.95-2.291-3.03-3.411-4.99-1.45 4.21-.34 10.15-4.72 12.73 3.88-14.64-9.64-25.131-20.85-31.371 2.72 9.46 11.759 14.171 18.539 19.961-11.31.11-21.428-6.839-27.398-16.109 1.36 5.27 3.249 10.62 6.799 14.83 5.19 5.02 12.81 5.44 19.48 3.75-2.93 9.48-15.27 10.469-22.67 5.779 2.19 8.56 12.13 10.07 19.6 10.58-.81 5.02-7.151 5.791-11.071 7.551 2.74 2.65 6.791 3.469 9.291 6.379-9.74 1.43-19.47-.381-28.47-4.141-2.03-1.37-2.42 1.112-2.92 2.592 5.88 3.44 9.74 9.678 16.5 11.728 13.48 7.92 28.53 12.561 42.48 19.491 5.33 2.12 4.82 9.911 9.53 12.121 4.08-4.09 4.27-10.421 6.64-15.481 2.6-4.03 9.05 2.2 13.34.19 9.81-6.34 18.279-14.479 27.279-21.869 1.93-1.9 3.77-3.891 5.5-5.971 12.31-15.34 11.511-36.49 20.891-53.33-2.35-.14-4.699-.13-7.029-.25 3.8-2.82 7.68-5.62 10.67-9.35-1.74-.21-7.562 1.88-4.442-1.08 9.33-10.06 5.681-24.78 2.731-36.67.56 12-1.77 26.6-12.67 33.58 2.53-7.89 2.83-16.41 1-24.49-2.99 12.56-11.839 26.52-26.299 26.16 2.57-2.61 6.619-4.42 7.109-8.47.63-6.93.71-14.201-2.07-20.731.09 6.27-.78 14.071-6.65 17.641 4.86-17.93-6.92-33.56-14.69-48.6 1.36 8.91 1.071 18.151 4.141 26.731 1.58 4.69 5.15 8.279 7.25 12.699-4.28-.65-6.702-4.709-9.362-7.699-7.27-9.26-11.299-20.74-11.539-32.5zm165.491 119.289c-.69.02-2.092.069-2.782.089-2.61 4.72-4.919 9.592-7.439 14.362 3.34-1.01 6.729-1.87 10.199-2.34-.44-4.02-.628-8.101.022-12.111zm-14.405 2.086c-7.137-.093-13.731 3.227-19.797 6.705 2.47 2.43 4.141 6.438 2.321 9.718-3.32 5.71 1.881 12.35-.959 18.17-1.23 3.28-4.061 6.45-2.721 10.16 1.88 9.16-5.91 16.131-10.83 22.821 3.32 3.26 6.99 8.21 12.25 7.17 7.49-1.28 9.481-10.72 16.801-12.53.19 1.73.239 3.469.289 5.219 5.21-6.71 12.35-11.258 19.08-16.228-.23-5.37-1.341-10.671-1.311-16.051-3.21 1.82-5.959 4.341-9.179 6.131-1.32-7.04-1.349-14.742-5.539-20.862-3.08 5.34-4.171 11.791-8.131 16.571-1.35-6.74 1.61-13.161 2.91-19.641.18-.59.529-1.769.699-2.359 1.79-5 3.591-10 5.551-14.93-.481-.038-.958-.058-1.434-.064zm21.414.183c.32 4.04.27 8.091.11 12.141 1.95.42 3.901.789 5.881 1.109 3.04-2.36 5.719-5.128 8.619-7.658-4.76-2.17-9.8-3.582-14.61-5.592zm.95 32.961c.17 3.89.471 7.77.861 11.65 3.54-3.39 4.389-9.47-.861-11.65zm-302.741 4.08c-20.69 2.92-32.28 24.23-35.5 43.02-3.72 18.23 6.292 34.981 14.682 50.291 4.53-13.49 11.018-29.57 26.228-33.66 20.43-3.61 39.09 8.33 55.35 19.08 6.49-7.98 7.721-19.142 5.041-28.862-16.02-14.48-32.46-28.659-46.92-44.799-4.33-5.82-12.531-4.55-18.881-5.07zm189.141 30.731c1.08 10.15.25 20.859-5.5 29.609 4 .82 6.809-2.7 9.949-4.49 3.9-2.98 8.69-4.97 11.66-9.01-3.12-7.29-9.519-12.149-16.109-16.109zm-40.49 31.32c-3.22.74-6.54.749-9.75.029l-1.049.299c.63 7.68 1.068 15.371 1.558 23.061.32 1.08.641 2.159.961 3.259 13.19-7.95 26.921-15.149 39.401-24.189-.53-.18-1.601-.529-2.131-.709-9.67 2.05-19.48.14-28.99-1.75zm71.609 23.658c-11.58 8.62-24.778 15.551-34.068 26.881 6.37 1.23 12.779 3.58 19.299 3.16 8.25-7.78 14.68-17.771 24.57-23.801-3.12-2.3-6.471-4.27-9.801-6.24zm174.732 101.867c-2.636-.112-5.282 2.207-4.732 5.424-4.32.68-9.508-1.86-12.898 1.86-5.63-2.73-11.651-1.931-17.401-.071-7.37-4.28-18.92-2.679-23.26 5.201.6 1.66 1.51 3.199 2.42 4.719 2.63 2.01 7.11 4.071 6.25 8.061-.86 4.9-.289 10.12-2.089 14.8-6.12 3.35-11.182 8.12-15.622 13.45 5.24.69 10.872.639 15.522 3.509 3.32 1.7 6.429 4.561 10.369 4.481 5.37-1.84 6.81-7.761 5.26-12.731 10.58 2.69 13.86-10.019 22.76-12.339 3.99-1.35 7.65-3.64 10.31-6.95 3.39-4.95 13.46-5.089 10.91-13.189-1.3-4.87-2.699-9.722-4.509-14.422-.894-1.2-2.091-1.752-3.29-1.803zm-169.14 350.381c-2.347-.034-4.694.075-7.041.403-8.83 1.96-16.289 7.42-24.039 11.82-15.3 8.86-31.221 17.841-49.051 20.121-1.29 46.98-9.281 93.429-16.391 139.789h85.551c12.97-46.44 25.209-93.1 40.039-138.99 2.09-6.4 4.012-12.86 6.112-19.25-4.33-4.31-8.922-8.459-14.122-11.699-6.99-.69-14.019-2.09-21.058-2.194zm-155.99 34.674c-14.245-.308-27.796 5.595-42.112 5.539-5.32 45.02-19.929 88.15-31.049 131.92h86.901c6.7-15.39 13.619-30.7 19.779-46.32 8.32-26.19 10.901-53.759 13.801-80.969-14.27-5.21-28.971-11.052-44.461-10.022-.956-.079-1.91-.127-2.859-.148z" fill="#feecdb"/>
    <path id="color5" d="m833.859 339.391c-8.62 3.51-19.718 6.559-23.048 16.339-5.96 11.27-10.601 23.18-16.711 34.36-.44 1.5-1.69 1.401-2.92.971-1.94 9.21-5.351 19.509-12.651 25.689-2.97 4.04-7.76 6.03-11.66 9.01-3.14 1.79-5.949 5.31-9.949 4.49-1.99 1.16-3.96 2.381-6 3.461.53.18 1.601.529 2.131.709-12.48 9.04-26.211 16.239-39.401 24.189-3.64 1.86-7.229 4.671-11.269 5.231-7.12-8.35-12.88-17.78-19.5-26.52-17.03 4.57-31.011-8.501-43.801-17.541 2.68 9.72 1.449 20.882-5.041 28.862-16.26-10.75-34.92-22.69-55.35-19.08-15.21 4.09-21.698 20.17-26.228 33.66-.82 3.65-1.191 7.379-1.971 11.039 1.99 8.99-1.249 18.82 2.981 27.32 4.7 6.63 13.489 7.65 20.529 10.5-11.3-15.52-9.78-37.28-1.99-54.01 1.41-4.09 6.49-4.12 10.08-4.39 13.15-.19 26.589.261 39.279 3.961 5.39 1.27 8.291 7.11 7.801 12.33-13.5-3.72-28.241-13.66-42.141-5.84-12.8 9.67-15.48 28.278-10.91 42.898.51 2.86 2.7 5.831 1.49 8.731 11.21 14.95 24.651 28.12 34.641 44.01 3.18 5.45 9.32 9.39 15.75 9 3.52.27 8.93-1.46 10.17 3.16 5.3 13.54 14.459 26.2 15.189 41.07-2.25 30.49-12.038 60.23-25.968 87.33-15.22 26.22-33.022 50.91-47.192 77.74-4.93 10.75-9.16 22.05-10.09 33.94-2.27 15.57.591 31.41-1.839 46.97.26 24.78-4.091 49.279-8.151 73.639 28.62 5.44 57.221-2.538 85.881-2.818 12.81.2 25.039 4.499 37.619 6.029 3.17-12.93 3.53-26.6 2.24-39.83-.24-24.69-10.94-48.189-10.25-72.949.05-8 3.031-15.56 5.661-23-3.59 3.44-8.03 6.309-13.26 5.379-17.56-1.78-34.97-5.48-51.94-10.34-4.14-.73-4.94-5.371-3.9-8.801 4.44-21.35 12.311-41.789 19.791-62.219 1.59-5.09 6.849-8.36 12.049-8.41 13.68-.78 26.92 3.66 39.98 7.11 7.91 1.73 15.65 9.371 13.86 17.951-3.76 16.92-10.28 33.259-12.42 50.519 7.26-16.16 16.579-31.379 22.759-48.019 7.36-17.79 5.681-37.441 7.131-56.201-1.19-3.85-6.94.749-10.16-.241.39-7.32 7.2-11.929 10.82-17.769-.14-4.33-.181-8.67-.031-13-10.36-7.39-20.859-17.091-22.359-30.471-1.36-5.65 1.499-10.898 2.359-16.328-10.82-7.11-22.429-13.311-31.959-22.231-1.71-1.58-.35-4.421 2.03-3.621 12.49 1.53 24.48 5.661 36.49 9.311 2.85.75 6.059 2.629 8.849.699-1.24-8.46.351-17.069-1.379-25.469-1.65-5.94 4.54-9.439 7.11-13.929 7.17-11.93 11.629-25.941 10.699-39.971-1.12-7.2 7.102-9.92 11.262-14.24.67 20.6-2.1 42.641-14.5 59.791-6.76 8.17-1.231 19.128-2.551 28.558 10.04-3.6 20.41-6.359 31.01-7.629 11.45-1.23 22.75 1.221 34.07 2.491-.64-6.04-.869-12.142-1.949-18.112-.65-3.94-4.471-7.44-2.811-11.58 1.58-3.83 2.079-9.168 6.879-10.228 16.29-6.85 24.752-23.621 30.112-39.461 2.43-8.27 5.7-17.54 1.91-25.91-4.39-6.8-11.511-11.101-17.881-15.821-9.89 6.03-16.32 16.021-24.57 23.801-6.52.42-12.929-1.93-19.299-3.16 9.29-11.33 22.488-18.261 34.068-26.881 1.65-1.21 3.131-4.609 5.471-2.779 9.01 4.99 18.211 10.149 25.371 17.689 4.42 4.63 3.999 11.481 3.889 17.401-.94 13.11-3.88 26.331-10.54 37.781-5.29 8.57-13.55 14.7-21.71 20.34-4.85 2.84-5.66 9.489-4.37 14.459 3.57 7.4 4.081 15.83 3.151 23.89 5.65 2.54 11.88 3.239 17.75 5.129 9.65 2.38 18.749 6.691 28.449 8.801 2.87-2.83 5.361-7.029 4.971-11.109-3.29-2.96-7.852-4.061-11.032-7.151-1.87-2.4-.368-6.97 3.032-6.82 6.48-.06 12.509 3.14 19.029 3.02 11.79-.06 22.28 5.949 33.1 9.759 5.69 1.9 8.859-4.499 11.939-8.039 2.11-3.64 6.851-2.631 10.361-3.371-.91-1.52-1.82-3.059-2.42-4.719 4.34-7.88 15.89-9.481 23.26-5.201 5.75-1.86 11.771-2.659 17.401.071 3.39-3.72 8.578-1.18 12.898-1.86-.8-4.68 5.162-7.461 8.022-3.621.1-1.11.229-2.209.369-3.309-4.36-4.91-7.261-12.88-14.901-13-7.73-3.07-16.12.221-23.75-3.089-6.71-2.82-12.54 4.039-19.24 2.199-4.92-.75-11.069-2.25-14.699 2.24-6.93 5.77-11.391 14.081-18.971 19.051-18.81 4.71-37.988-1.45-56.568-4.74-3.35-.6-9.422.398-9.112-4.692.1-7.17-5.028-16.208 1.452-21.808 15.27-14.57 20.61-37.352 17.16-57.702-1.02-6.64-8.03-9.269-12.74-12.919-6-4.71-13.251-7.57-18.981-12.59 7.58-13.13 23.541-17.859 33.061-29.289 5.46-6.48 13.739-11.062 16.369-19.522-.05-1.75-.099-3.489-.289-5.219-7.32 1.81-9.311 11.25-16.801 12.53-5.26 1.04-8.93-3.91-12.25-7.17 4.92-6.69 12.71-13.661 10.83-22.821-1.34-3.71 1.491-6.88 2.721-10.16 2.84-5.82-2.361-12.46.959-18.17 1.82-3.28.149-7.288-2.321-9.718zm-122.728 92.898c-4.04 1.2-8.131 2.35-12.361 2.65 3.72 7.39 9.009 13.801 13.919 20.411-.49-7.69-.928-15.381-1.558-23.061zm46.607 171.266c-6.247.04-12.67 1.588-17.138 6.105-4.18 5.53-2.439 13.12 1.121 18.49 7.15 11.46 19.978 17.911 32.558 21.651 4.67 1.07 9.481 3.078 14.321 1.808-4.75-13.67-5.999-28.418-2.629-42.558-7.58-3.2-15.831-4.461-23.961-5.301-1.397-.133-2.83-.205-4.272-.195zm37.313 8.246c-.03 13.6-.7 27.568 5.17 40.238 1.95.08 3.928.091 5.888-.199-3.39-5.33-3.999-11.8-5.339-17.83-.85-6.82-2.479-14.13.111-20.75-1.94-.54-3.9-.969-5.83-1.459zm-42.836 60.385c-1.322.042-2.633.322-3.926.974-6.06 2.83-12.64 4.401-18.5 7.651.95 7.39.101 14.78-.549 22.15-2.89 28.55-.8 58.09 9.93 84.93 8.01 18.63 21.13 34.379 34.81 49.099 21.31 21.54 45.86 39.51 68.51 59.59 1.51 1.24 2.99 2.81 5.02 3.16 11.34-16.15 25.859-30.871 43.849-39.461 15.06-5.76 31.572-.679 47.202-2.759 3.29-.61 9.709-2.151 7.679-6.741-4.61-12.49 2.511-24.949 2.471-37.459-8.46-5.07-18.271-7.59-27.711-10.24-11.4-3.38-23.35-1.149-35-2.119-11.16-1.38-20.441-8.172-30.641-12.262-10.15-4.53-21.549-5.929-31.009-12.019-6.59-4.43-10.49-11.659-13.09-18.959-6.16-17.95-9.33-36.811-10.41-55.731-.17-8.27-1.24-16.52-3.12-24.57-11.12-1.37-22.5-.449-33.56-2.869-3.93-.48-7.99-2.492-11.955-2.365zm60.525 2.705c-1.65.45-3.32.869-4.97 1.289 3.28 19.13 3.69 38.74 7.13 57.81 15.46 16.14 39.239 18.92 60.469 17.59-9.58-6.97-21.52-8.941-32.33-13.211-6.21-1.96-13.37-2.039-18.84-5.619-1.59-13.95-3.818-27.94-8.898-41.1-1.05-5.51-4.391-11.119-2.561-16.759zm153.629 171.048c-.38 2.72-.41 5.561.67 8.141 3.3 8.76 6.392 17.61 9.092 26.58 1.9-.33 3.808-.661 5.728-.971 2.53-1.32 6.842-2.12 6.862-5.66-.67-5.72-5.24-9.818-8.67-14.058-4.68-4.58-8.192-10.312-13.682-14.032z" fill="#313847"/>
    <path id="color6" d="m615.801 357.17c4.91 4.11 11.059 6.171 17.219 7.541-6.5.59-12.789-1.312-19.059-2.682 2.44 4.66 4.159 10.151 1.529 15.141-.39-3.3.7-7.839-2.91-9.699-5.96-3.07-12.441-5.061-18.381-8.201-6.96 3.57-14.42 6.2-20.92 10.64 6.35.52 14.551-.75 18.881 5.07 14.46 16.14 30.9 30.319 46.92 44.799 12.79 9.04 26.771 22.111 43.801 17.541 5.22-1.19 10.509-2.281 15.889-2.381 4.23-.3 8.321-1.45 12.361-2.65l1.049-.299c-7.59-4.34-12.759-15.519-6.959-23.179-3.65-9.96-12.69-16.312-22.33-19.772-6.24-3-13.72-2.359-19.51-6.389-5.51-3.36-9.58-8.49-14.67-12.38-5.75-4.46-12.202-7.889-18.272-11.889-4.86-.65-9.748-.951-14.638-1.211zm92.459 15.92l-.129.849c.99 5.89-3.502 10.21-5.932 15.01 3.89 5.08 5.47 11.291 5.59 17.621 13.47-5.15 25.171 16.331 14.141 25.391 9.51 1.89 19.32 3.8 28.99 1.75 2.04-1.08 4.01-2.301 6-3.461 5.75-8.75 6.58-19.459 5.5-29.609-.78-6.11-7.97-5.891-11.75-9.391-3.68-3.37-8.38-.54-12.44.23-2.51-1.33-4.64-4.341-7.81-3.191-4.74 1.45-7.5-3.679-10.84-6.059-3.95-2.82-7.45-6.21-11.32-9.14zm-157.77 101.17c-1.61 20.36-7.961 39.959-12.631 59.779-1.7 5.06-2.058 10.762-5.308 15.172 1.17 5.63-2.03 10.808-3.25 16.148-12.15 41.84-27.7 82.57-43.84 123-36.67 94.77-77.261 189.441-92.731 290.561-4.47 33.75-8.09 67.65-14.65 101.08h191.9c11.12-43.77 25.729-86.9 31.049-131.92-14.3.76-28.709-.099-42.799-2.609.35-4.32 1.549-8.532 1.889-12.852 4.06-24.36 8.411-48.859 8.151-73.639 2.43-15.56-.431-31.4 1.839-46.97.93-11.89 5.16-23.19 10.09-33.94 14.17-26.83 31.972-51.52 47.192-77.74 13.93-27.1 23.718-56.84 25.968-87.33-.73-14.87-9.889-27.53-15.189-41.07-1.24-4.62-6.65-2.89-10.17-3.16-6.43.39-12.57-3.55-15.75-9-9.99-15.89-23.431-29.06-34.641-44.01-1.22-1.23-2.409-2.45-3.609-3.68-7.04-2.85-15.829-3.87-20.529-10.5-4.23-8.5-.991-18.33-2.981-27.32zm250.391 139c-2.59 6.62-.961 13.93-.111 20.75 1.34 6.03 1.949 12.5 5.339 17.83 7.14-1.17 14.25-2.62 21.08-5.08-2.19-8.63-2.77-17.559-3.83-26.369-7.55-2.2-14.978-4.781-22.478-7.131zm27.469 53.041c-4.93 3.31-9.92 6.72-15.61 8.59-1.83 5.64 1.511 11.249 2.561 16.759 5.08 13.16 7.308 27.15 8.898 41.1 5.47 3.58 12.63 3.659 18.84 5.619-4.84-19.12-8.889-38.44-11.529-58.01-.86-4.72-.85-9.738-3.16-14.058zm-109.35 273.91c-6.01 1.28-12.17 1.38-18.27.76-1.15 3.96-1.62 8.09-2.98 12-2.41.6-4.899.11-7.289-.26-2.9 27.21-5.481 54.779-13.801 80.969-6.16 15.62-13.079 30.93-19.779 46.32h45.728c7.11-46.36 15.101-92.809 16.391-139.789zm109.199.799c-14.83 45.89-27.069 92.55-40.039 138.99h130.789c-3.05-44.52-8.228-88.921-15.978-132.881-25.1 1.46-50.152-1.529-74.772-6.109z" fill="#2a2f3d"/>
    <path id="color7" d="m711.514 405.791c-1.215.047-2.462.296-3.725.779-.87.74-1.718 1.491-2.568 2.241-5.8 7.66-.631 18.839 6.959 23.179 3.21.72 6.53.711 9.75-.029 9.996-8.211 1.323-26.623-10.416-26.17zm105.506 344.51c4.48 9.03 11.67 18.21 21.98 20.59 11.36 4.45 21.09 12.049 30.58 19.539 5.43 4.63 11.91 9.02 19.42 8.31 10.25-.84 20.43-2.61 30.76-1.98-12.98-13.32-29.08-23.76-46.74-29.68-18.22-7.21-38.99-6.419-56-16.779zm-99.25 7.83c-10.73 21.77-20.56 44.559-23.51 68.849-.94 25.03 6.39 49.3 9 74.01.08 13.35.07 26.851-2.53 39.981 6.1.62 12.26.52 18.27-.76 17.83-2.28 33.751-11.261 49.051-20.121 7.75-4.4 15.209-9.86 24.039-11.82 9.39-1.31 18.779.871 28.099 1.791-24.51-20.78-48.21-42.901-67.83-68.461-17.93-24.61-29.589-53.479-34.589-83.469zm238.8 110.019c-6.36 5.56-15.16 7.28-23.34 5.62-13.92-2.42-28.53 1.299-39.89 9.589-16.86 12.91-29.54 30.31-40.83 48.09-.91 1.34-2.171 3.821-3.981 2.051-5.07-3.46-9.898-7.36-14.218-11.74-2.1 6.39-4.022 12.85-6.112 19.25 24.62 4.58 49.672 7.569 74.772 6.109 5.87-1.85 12.758-2.128 17.228-6.908 8.93-7.66 9.861-21.552 20.461-27.602 6.64-3.86 11.18-10.489 17.94-14.089 8.54-2.04 18.291-1.591 25.451-7.491 3.5-3.41-.602-8-2.192-11.34-1.92.31-3.828.641-5.728.971-6.38 1.15-12.74 3.671-19.32 2.481-.54-4.98.119-10.001-.241-14.991z" fill="#784046"/>
    <path id="color8" d="m1356.26 432.307c-12.87-.235-25.53 3.612-37.75 7.334-22.46 8.11-44.83 16.54-67.76 23.24-13.3 4.4-25.75 11.49-39.74 13.68-5.23 1.02-10.69.27-15.8 1.91-40.07 11.91-78.61 28.349-118.7 40.179-35.1 11.7-71.01 21.54-104.58 37.33-.14 1.1-.269 2.199-.369 3.309 1.81 4.7 3.209 9.552 4.509 14.422 6.96-2.83 14.7-3.52 21.26-7.41 12.84-8.14 28.18-10.271 42.43-14.821 17.88-5.25 34.63-13.661 52.24-19.691 34.93-12.99 71.06-22.259 106.95-32.109 9.73-3.02 20.03-5.31 28.45-11.34 3.37-2.2 7.17-3.591 10.87-5.141 38.74-15.63 78.7-28.168 116.94-45.058 2.13-.94 8.3-4.271 3.63-5.731-.86-.053-1.72-.088-2.58-.103zm-518.289 140.943c-3.4-.15-4.902 4.42-3.032 6.82 3.18 3.09 7.742 4.191 11.032 7.151.39 4.08-2.101 8.279-4.971 11.109-9.7-2.11-18.799-6.421-28.449-8.801-5.87-1.89-12.1-2.589-17.75-5.129-2.54-.67-5.131-1.109-7.721-1.429-11.32-1.27-22.62-3.721-34.07-2.491-10.6 1.27-20.97 4.029-31.01 7.629-3.68 1.49-7.111 3.47-10.641 5.26-2.79 1.93-5.999.051-8.849-.699-12.01-3.65-24-7.781-36.49-9.311-2.38-.8-3.74 2.041-2.03 3.621 9.53 8.92 21.139 15.121 31.959 22.231-.86 5.43-3.719 10.678-2.359 16.328 1.5 13.38 11.999 23.081 22.359 30.471 2.3 1.45 4.741 2.71 6.871 4.42-1.13 3.55-4.75 5.6-6.84 8.58-3.62 5.84-10.43 10.449-10.82 17.769 3.22.99 8.97-3.609 10.16.241 2.96-5.08 9.689-4.139 14.469-6.209 5.86-3.25 12.44-4.821 18.5-7.651 5.17-2.61 10.641.751 15.881 1.391 11.06 2.42 22.44 1.499 33.56 2.869 2.6-2.68 6.74-.89 10.04-1.24 1.65-.42 3.32-.839 4.97-1.289 5.69-1.87 10.68-5.28 15.61-8.59 6.37-5.81 15.531-12.821 12.951-22.641-4.89-.94-9.352 2.43-14.112 3.1-6.83 2.46-13.94 3.91-21.08 5.08-1.96.29-3.938.279-5.888.199-3.88-.11-7.751-.4-11.621-.43-4.84 1.27-9.651-.738-14.321-1.808-12.58-3.74-25.408-10.191-32.558-21.651-3.56-5.37-5.301-12.96-1.121-18.49 5.5-5.56 13.96-6.62 21.41-5.91 8.13.84 16.381 2.101 23.961 5.301 3.04.85 6.1 1.67 9.08 2.75 1.93.49 3.89.919 5.83 1.459 7.5 2.35 14.928 4.931 22.478 7.131 5.15 1.72 10.501 3.258 15.141 6.148 1.99 4.35 2.31 13.011 9 12.031 3.79-4.53 4.27-11.339 9.34-14.859 6.94-4.56 6.539-14.911 13.949-19.031 2.63-2.03 5.601.169 8.061 1.349 6.68 3.55 14.369 7.491 22.089 4.901 4.44-5.33 9.502-10.1 15.622-13.45 1.8-4.68 1.229-9.9 2.089-14.8.86-3.99-3.62-6.051-6.25-8.061-3.51.74-8.251-.269-10.361 3.371-3.08 3.54-6.249 9.939-11.939 8.039-10.82-3.81-21.31-9.819-33.1-9.759-6.52.12-12.549-3.08-19.029-3.02z" fill="#6a5849"/>
    <path id="color9" d="m698.77 434.939c-5.38.1-10.669 1.191-15.889 2.381 6.62 8.74 12.38 18.17 19.5 26.52 4.04-.56 7.629-3.371 11.269-5.231-.32-1.1-.641-2.179-.961-3.259-4.91-6.61-10.199-13.021-13.919-20.411zm99.007 17.373c-1.668-.105-2.897 2.324-4.238 3.307 3.33 1.97 6.681 3.94 9.801 6.24 6.37 4.72 13.491 9.021 17.881 15.821 3.79 8.37.52 17.64-1.91 25.91-5.36 15.84-13.822 32.611-30.112 39.461-4.8 1.06-5.299 6.398-6.879 10.228-1.66 4.14 2.161 7.64 2.811 11.58 1.08 5.97 1.309 12.072 1.949 18.112 2.59.32 5.181.759 7.721 1.429.93-8.06.419-16.49-3.151-23.89-1.29-4.97-.48-11.619 4.37-14.459 8.16-5.64 16.42-11.77 21.71-20.34 6.66-11.45 9.6-24.671 10.54-37.781.11-5.92.531-12.771-3.889-17.401-7.16-7.54-16.361-12.699-25.371-17.689-.439-.343-.848-.503-1.233-.528zm-210.744 1.333c-1.651-.002-3.299.011-4.943.035-3.59.27-8.67.3-10.08 4.39-7.79 16.73-9.31 38.49 1.99 54.01 1.2 1.23 2.389 2.45 3.609 3.68 1.21-2.9-.98-5.871-1.49-8.731-4.57-14.62-1.89-33.228 10.91-42.898 13.9-7.82 28.641 2.12 42.141 5.84.49-5.22-2.411-11.06-7.801-12.33-11.104-3.238-22.78-3.987-34.336-3.996zm152.018 46.115c-4.16 4.32-12.382 7.04-11.262 14.24.93 14.03-3.529 28.041-10.699 39.971-2.57 4.49-8.76 7.989-7.11 13.929 1.73 8.4.139 17.009 1.379 25.469 3.53-1.79 6.961-3.77 10.641-5.26 1.32-9.43-4.209-20.388 2.551-28.558 12.4-17.15 15.17-39.191 14.5-59.791zm46.92 109.291c-3.37 14.14-2.121 28.888 2.629 42.558 3.87.03 7.741.32 11.621.43-5.87-12.67-5.2-26.638-5.17-40.238-2.98-1.08-6.04-1.9-9.08-2.75zm-70.022 46.959c-.15 4.33-.109 8.67.031 13 2.09-2.98 5.71-5.03 6.84-8.58-2.13-1.71-4.571-2.97-6.871-4.42zm86.539 19.916c-1.772-.069-3.458.154-4.758 1.494 1.88 8.05 2.95 16.3 3.12 24.57 1.08 18.92 4.25 37.781 10.41 55.731 2.6 7.3 6.5 14.529 13.09 18.959 9.46 6.09 20.859 7.489 31.009 12.019 10.2 4.09 19.481 10.882 30.641 12.262 11.65.97 23.6-1.261 35 2.119 9.44 2.65 19.251 5.17 27.711 10.24.04 12.51-7.081 24.969-2.471 37.459 2.03 4.59-4.389 6.131-7.679 6.741-15.63 2.08-32.142-3.001-47.202 2.759-17.99 8.59-32.509 23.311-43.849 39.461-2.03-.35-3.51-1.92-5.02-3.16-22.65-20.08-47.2-38.05-68.51-59.59-13.68-14.72-26.8-30.469-34.81-49.099-10.73-26.84-12.82-56.38-9.93-84.93.65-7.37 1.499-14.76.549-22.15-4.78 2.07-11.509 1.129-14.469 6.209-1.45 18.76.229 38.411-7.131 56.201-6.18 16.64-15.499 31.859-22.759 48.019-1.18 3.03-2.61 5.951-4.16 8.811-2.63 7.44-5.611 15-5.661 23-.69 24.76 10.01 48.259 10.25 72.949 1.29 13.23.93 26.9-2.24 39.83-12.58-1.53-24.809-5.829-37.619-6.029-28.66.28-57.261 8.258-85.881 2.818-.34 4.32-1.539 8.532-1.889 12.852 14.09 2.51 28.499 3.369 42.799 2.609 15.27.06 29.671-6.661 44.971-5.391 15.49-1.03 30.191 4.812 44.461 10.022 2.39.37 4.879.86 7.289.26 1.36-3.91 1.83-8.04 2.98-12 2.6-13.13 2.61-26.631 2.53-39.981-2.61-24.71-9.94-48.98-9-74.01 2.95-24.29 12.78-47.079 23.51-68.849 5 29.99 16.659 58.859 34.589 83.469 19.62 25.56 43.32 47.681 67.83 68.461 5.2 3.24 9.792 7.389 14.122 11.699 4.32 4.38 9.148 8.28 14.218 11.74 1.81 1.77 3.071-.711 3.981-2.051 11.29-17.78 23.97-35.18 40.83-48.09 11.36-8.29 25.97-12.009 39.89-9.589 8.18 1.66 16.98-.06 23.34-5.62.36 4.99-.299 10.011.241 14.991 6.58 1.19 12.94-1.331 19.32-2.481-2.7-8.97-5.792-17.82-9.092-26.58-1.08-2.58-1.05-5.421-.67-8.141 1.27-11.28 1.64-22.919-.18-34.109-11.33-8.18-25.329-11.551-38.769-14.471-15.73-16.76-31.221-35.179-52.051-45.779-21.23 1.33-45.009-1.45-60.469-17.59-3.44-19.07-3.85-38.68-7.13-57.81-1.65.175-3.509-.185-5.282-.254zm14.532 74.375c17.01 10.36 37.78 9.569 56 16.779 17.66 5.92 33.76 16.36 46.74 29.68-10.33-.63-20.51 1.14-30.76 1.98-7.51.71-13.99-3.68-19.42-8.31-9.49-7.49-19.22-15.089-30.58-19.539-10.31-2.38-17.5-11.56-21.98-20.59z" fill="#b9987f"/>
    <path id="color10" d="m646.57 715.574c-.851.01-1.705.037-2.56.086-5.2.05-10.459 3.32-12.049 8.41-7.48 20.43-15.351 40.869-19.791 62.219-1.04 3.43-.24 8.071 3.9 8.801 16.97 4.86 34.38 8.56 51.94 10.34 5.23.93 9.67-1.939 13.26-5.379 1.55-2.86 2.98-5.781 4.16-8.811 2.14-17.26 8.66-33.599 12.42-50.519 1.79-8.58-5.95-16.221-13.86-17.951-12.244-3.235-24.645-7.338-37.42-7.196z" fill="#544145"/>
  </g>
</svg>
