<svg height="1080" width="1920" xmlns="http://www.w3.org/2000/svg">
  <path id="background" d="m0 0h1920v1080h-1920z" fill="#646d75"/>
  <g id="transform" transform="translate(0,0) scale(1.00)">
    <path id="color1" d="m0 0v .160156l.160156-.160156zm364.311 261.023c-.5-.036-.97.152-1.372.778-6.2 6.37-13.609 11.5-21.529 15.5-1.09.42-2.23.718-3.34 1.068-1.45.49-2.9 1.001-4.32 1.541-.32.26-.94.779-1.26 1.029 3.35 3.24 6.88 6.44 11.24 8.26 19.26 8.44 39.929 12.861 59.889 19.201 6.93 1.85 9.141 9.41 9.961 15.69-6.53 1.44-13.03-.94-19.58-.61-4.52-.1-10.251 1.07-13.211-3.32-3.57-5.09-9.229-8.141-12.869-13.131 11.45 2.52 22.581 6.362 34.051 8.772-20.55-8.33-43.591-9.581-62.971-20.901-5.58-3.15-10.37-7.57-16.23-10.25-2.53.38-2.469 4.16-3.469 6.12-5.63 11.51-6.43 24.62-6.74 37.21-1.11 10.46-1.12 20.991-2.1 31.481-1.76 1.69-5.22 2.48-4.83 5.51.01 7.56 2.838 15.048 1.568 22.638-.8 14.3-2.02 28.591-5.08 42.631-2.41 11.08-9.25 20.901-9.93 32.401-1.07 14.2-.92 28.99-6.57 42.33.9 5.93 5.11 11.119 6.32 16.939 6.6 6.3 16.201 7.44 24.891 6.19 3.34-.41 1.56-4.76 4.4-5.77 6.33-2.91.9-10.27 2-15.34 2.03-14.33 11.581-27.04 10.071-41.99-1.07-6.26 2.619-11.541 4.959-16.961-.88-3.79-1.441-8.439 2.269-11.019-1.81 10.68-3.298 21.42-5.638 32-.75 2.84 1.419 5.56.449 8.41-2.88 19.28-5.74 38.57-8.08 57.92-3.75 39.17-8.61 78.331-9.44 117.701 3.13 3.04 7.05 7.049 12.19 6.299 6.16-.56 12.17.37 18.14 1.75 7.72.44 15.06 3.501 22.86 3.281 6.32-.24 12.571.858 18.881.988 6.14.38 12.12-1.319 18.25-1.299 4.62-1.09 9.478.42 13.888-1.72 8.17-.24 16.38.19 24.58.06 5.38.2 11.261 1.45 16.141-1.64 3.71-2.11 11.721 2.5 11.801-3.61.66-3.1 5.508-1.21 7.648-3.16-4.72-59.56-8.31-119.28-16.26-178.51.36-1.16 1.67-2.129 1.17-3.429-2.66-12.43-4.939-24.942-7.609-37.372-.23-1.37-.669-3.478 1.061-4.048 7.18-3.11 13.978-7.09 20.308-11.68 6.88-2.02 14.04-2.721 21.07-3.981 2.9-3.65 5.752-8.31 7.122-12.46-5.42-7.3-7.331-16.619-7.291-25.549-.09-2.6 1.949-4.39 3.599-6.09-.79-2.11-4.119-2.761-6.019-1.641-7.81 6.13-16.1 12.059-25.11 16.209-5.36-15.95-11.451-32.398-11.051-49.478-.39-3.12-3.91-4.722-4.15-7.932-2.41-11.49-4.309-23.079-6.359-34.639-1.54-3.09-1.569-9.16-5.459-9.57 2.8 10.55-6.961 16.579-12.571 23.609.03 10.17-10.539 21.62-20.939 15.85 1.14-3.54 1.148-7.919 4.238-10.449 7.43-6.46 14.91-12.96 21.34-20.44 2.73-2.74 2.46-6.789 2.83-10.339-1.36-1.74-3.898-1.651-5.818-2.381-4.27-1.36-8.721-2.559-12.401-5.209-2.3-1.57-4.679-3.021-7.009-4.551-4.47-2.82-8.491-6.93-14.071-7.34-.18 5.22 6.869 5.471 8.379 10.051 2.83 7.42 10.951 14.009 8.131 22.599-7.68 1.69-18.5 4.98-24.08-2.48-9.76-9.93-19.999-19.6-28.369-30.67-.819-.312-1.737-.996-2.57-1.057zm-35.971 21.028c-.42.27-1.279.798-1.709 1.068 21.56 18.61 50.95 21.621 77.18 29.731-25.42-9.32-54.561-12.019-75.471-30.799zm117.01.67l-1.299.228c.57 4.48.09 9.451-3.49 12.651-7.22 7.1-14.32 14.33-21.42 21.56 8.02-6.57 15.029-14.309 22.619-21.359 3.88-3.21 3.69-8.51 3.59-13.08zm-28.071 43.918c2.547-.027 5.092.091 7.612.441-.1 6.4-7.041 3.711-11.161 4.561-2.58.92-4.22-2.5-4.07-4.58 2.525-.225 5.073-.396 7.619-.422zm1.951 5.631c5.12 1.3 6.15 8.011 8.25 12.281 3.8 11.4 11.23 22.98 7.52 35.41-2.04 4.45-2.879 9.268-4.359 13.898-4.24-1.34-4.171-7.59-7.651-9.74-3.66 2.52-4.55 8.112-8.73 9.942-3.82-6.25-7.161-13.191-9.641-20.131 1.01-12.55 5.182-24.73 8.592-36.84.48-2.96 3.649-3.81 6.019-4.82zm86.889 43.47c.07 8.16 2.83 16.969 9.82 21.799 2.08-.23 3.121-2.189.981-3.289-4.73-4.86-8.41-11.29-9.15-18.1-.41-.1-1.241-.31-1.651-.41zm-161.119 2.77c3.37 11.71 1.5 23.9-.83 35.64-1.03 2.95-3.811 4.801-6.051 6.811 2.29-13.79 4.521-27.612 6.541-41.422zm-2.221 41.49c.03 2.48.86 5.77-1.17 7.65.09 1.75.12 3.51.01 5.27-1.41-.72-2.658-1.7-3.738-2.83-1.27-4.32 2.878-6.92 4.898-10.09zm-51.519 107.689c-2.95 3.29-.131 7.531 3.929 7.221 5.95 3.3 12.911 2.94 19.481 3.35 3.09.28 2.89-3.12 2.49-5.19-8.93 1.66-18.6.319-25.9-5.381zm50.08 363.022c-3.96 9.36-1.701 20.309-3.641 30.299.94 11.46-2.399 24.77 6.201 34.08 8.87 5.6 20.09 3.91 30.1 4.25 5.43.46 11.649-3.12 11.699-9.07 2.29-8.66-5.699-14.941-8.219-22.481-4.86-10.66.22-24.26-6.73-34-9.21-2.92-20.99-1.7-25.67 7.91-2.24-3.49 1.88-11.408-3.74-10.988zm95.935 1.078c-.502-.006-1.005.013-1.505.061-5.93 2.68-7.19 9.46-10.2 14.55-6.54-.96-16.699-2.95-15.439-11.73-1.83-.13-2.59 2.1-3.17 3.49-.75 12.65-3.721 25.12-3.301 37.84.16 3.3-.97 7.971 2.76 9.721 6.13 3.14 13.67 2.499 19.83-.221 2.88-1.15 4.999 1.77 7.279 3.01 7.46 5.11 16.691 6.11 25.471 6.65 6.15-.94 13.651-.039 18.131-5.199.23-5.48 1.36-11.931-2.67-16.371-6.72-4.86-13.781-9.519-19.371-15.709-3.35-7.51-3.031-16.39-7.561-23.42-3.185-1.365-6.736-2.631-10.254-2.672z" fill="#4d4e50"/>
    <path id="color2" d="m387.373 120.002c-.776.011-1.549.037-2.322.078-15.63 1.08-31.651 7.76-41.641 20.27-5.5 8.03-9.389 17.23-11.359 26.75-.3 7.28.16 14.59-.17 21.88 5.23 30.01 7.529 60.8 1.869 90.93 1.42-.54 2.87-1.051 4.32-1.541 1.03-11.7 3-23.349 2.95-35.119l.91.061c.06 11.33.32 22.71-.52 33.99 7.92-4 15.329-9.13 21.529-15.5 1.07-1.67 2.632-.221 3.942.279 5.72-6.69 4.719-15.94 4.219-24.08-2.8-3.15-5.841-6.38-9.311-8.75-5.51-.8-11.8-3.601-11.93-10.061 2 1.62 3.621 4.081 6.401 4.331-.88-2.86-2.119-5.589-3.199-8.379 5.61 6.49 12.669 11.52 20.359 15.25-.67-3.44-2.109-6.652-3.459-9.852 1.52.56 3.009 1.181 4.549 1.731-2.93-8.23-8.571-16.069-7.151-25.299 2.65-14.57 5.581-29.232 10.561-43.192 6 19.9 22.58 36.89 42.49 42.67-1.34-3.5-3.421-6.699-4.371-10.359 5.46 2.41 10.242 6.29 14.432 10.49 4.43 5.94 1.579 13.541.119 19.971 1.68-.65 3.01-1.871 4.33-3.061-1.37 11.32-6.99 22.27-16.25 29.1-4.82 4.4-10.521 7.63-15.551 11.73-.84 2.66-.569 5.53-.299 8.26 5.58.41 9.601 4.52 14.071 7.34.8-4.92-1.991-13.15 1.689-15.93.9 7.05 3.76 13.591 5.32 20.481 3.68 2.65 8.131 3.849 12.401 5.209-2.99-18.5-2.751-37.519-1.901-56.289 3.89-5.05 6.1-11.061 9.45-16.411 1.24 5.71-2.52 10.72-3.87 16.03 1.64-.78 2.27-2.571 3.1-4.061 8.78-19.37 9.051-42.01 1.811-61.84-8.39-23.221-33.475-37.449-57.518-37.107zm-42.373 258.508l-.34 1.029c-2.02 13.81-4.251 27.632-6.541 41.422 2.24-2.01 5.021-3.861 6.051-6.811 2.33-11.74 4.2-23.93.83-35.64zm-2.221 41.49c-2.02 3.17-6.168 5.77-4.898 10.09 1.24-.81 2.488-1.61 3.728-2.44 2.03-1.88 1.2-5.17 1.17-7.65z" fill="#e5daa1"/>
    <path id="color3" d="m377.92 153.779c-4.98 13.96-7.911 28.622-10.561 43.192-1.42 9.23 4.221 17.069 7.151 25.299-1.54-.55-3.029-1.171-4.549-1.731 1.35 3.2 2.789 6.412 3.459 9.852-7.69-3.73-14.749-8.76-20.359-15.25 1.08 2.79 2.319 5.519 3.199 8.379-2.78-.25-4.401-2.711-6.401-4.331.13 6.46 6.42 9.261 11.93 10.061 3.47 2.37 6.511 5.6 9.311 8.75.5 8.14 1.501 17.39-4.219 24.08 8.37 11.07 18.609 20.74 28.369 30.67 5.58 7.46 16.4 4.17 24.08 2.48 2.82-8.59-5.301-15.179-8.131-22.599-1.51-4.58-8.559-4.831-8.379-10.051-.27-2.73-.541-5.6.299-8.26 5.03-4.1 10.731-7.33 15.551-11.73 9.26-6.83 14.88-17.78 16.25-29.1-1.32 1.19-2.65 2.411-4.33 3.061 1.46-6.43 4.311-14.031-.119-19.971-4.19-4.2-8.972-8.08-14.432-10.49.95 3.66 3.031 6.859 4.371 10.359-19.91-5.78-36.49-22.77-42.49-42.67zm143.428 188.291c-.909-.023-1.815.127-2.707.53-1.9 2.68-2.571 6.009-4.211 8.849-4.81 7.38-3.25 16.701-6.66 24.701.74 6.81 4.42 13.24 9.15 18.1 4.73-2.26 8.819-6.081 12.269-10.051 3.27-3.69 1.061-9.759 5.081-12.939 3.41-2.89.4-7.571.4-11.231-3.19-4.43-3.37-10.13-5.44-15.17-2.415-1.087-5.157-2.719-7.882-2.789zm-227.118 192.799c-.39 8.05-.001 16.11-.191 24.17-.61 3.89 2.931 6.302 4.631 9.342 1.82 2.54 1.78 5.939 3.58 8.469 3.43.39 5.949-2.469 8.789-3.889 1.15 1.06 1.961 2.629 3.551 3.129.8-10.14 5.919-20.59 1.859-30.59-.77-2.37-1.009-4.87-1.779-7.24-6.57-.41-13.531-.05-19.481-3.35zm53.92 126.231c-.16 5.63.039 11.27-.121 16.9 1.19 11.8-4.59 22.62-7.17 33.85-1.35 9.27-3.728 18.43-2.728 27.91 9.61 13.26 28.918 13.561 42.648 7.131 2.21-2.35.612-6.021 1.192-8.911 3.02-13.34-1.86-27.57 3.41-40.56 3.68-10.36 3.77-21.261 4.51-32.051-6.31-.13-12.561-1.228-18.881-.988-7.8.22-15.14-2.841-22.86-3.281zm80.014 1.177c-2.047-.004-4.092.013-6.135.073-4.41 2.14-9.268.63-13.888 1.72-.4 8.31 2.779 16.521 1.869 24.901-.94 8.48-4.099 16.538-4.869 25.058.19 10.98-1.99 21.891-.84 32.901 12.38 5.81 26.639 4.51 39.459 1.05.95-.75 2.349-1.569 2.099-3.009 1.57-14.57 1.651-29.411-.009-43.981-.28-5.06.161-10.159 2.201-14.859 1.69-7.43 1.349-15.181 2.879-22.651-1.41-.49-2.851-.87-4.321-1.07-6.15.098-12.305-.119-18.445-.133z" fill="#eddcba"/>
    <path id="color4" d="m331.385 280.799c-1.108.035-2.198.562-3.045 1.252 20.91 18.78 50.051 21.479 75.471 30.799-26.23-8.11-55.62-11.121-77.18-29.731-1.46-.12-2.661.871-3.861 1.531 5.86 2.68 10.65 7.1 16.23 10.25 19.38 11.32 42.421 12.571 62.971 20.901-11.47-2.41-22.601-6.252-34.051-8.772 3.64 4.99 9.299 8.041 12.869 13.131 2.96 4.39 8.691 3.22 13.211 3.32 6.55-.33 13.05 2.05 19.58.61-.82-6.28-3.031-13.84-9.961-15.69-19.96-6.34-40.629-10.761-59.889-19.201-4.36-1.82-7.89-5.02-11.24-8.26-.365-.11-.736-.152-1.105-.14zm110.734 1.262c-.37 3.55-.1 7.599-2.83 10.339-6.43 7.48-13.91 13.98-21.34 20.44-3.09 2.53-3.098 6.909-4.238 10.449 10.4 5.77 20.969-5.68 20.939-15.85 5.61-7.03 15.371-13.059 12.571-23.609-.47-.27-1.411-.829-1.871-1.109.1 4.57.29 9.87-3.59 13.08-7.59 7.05-14.599 14.789-22.619 21.359 7.1-7.23 14.2-14.46 21.42-21.56 3.58-3.2 4.06-8.171 3.49-12.651-.48-.23-1.442-.668-1.932-.888zm-24.84 44.578c-2.546.026-5.094.197-7.619.422-.15 2.08 1.49 5.5 4.07 4.58 4.12-.85 11.061 1.839 11.161-4.561-2.52-.35-5.065-.468-7.612-.441zm1.951 5.631c-2.37 1.01-5.539 1.86-6.019 4.82-3.41 12.11-7.582 24.29-8.592 36.84 2.48 6.94 5.821 13.881 9.641 20.131 4.18-1.83 5.07-7.422 8.73-9.942 3.48 2.15 3.411 8.4 7.651 9.74 1.48-4.63 2.319-9.448 4.359-13.898 3.71-12.43-3.72-24.01-7.52-35.41-2.1-4.27-3.13-10.981-8.25-12.281zm87.401 38.464c-.317-.014-.732.032-1.262.147-1.65 1.7-3.689 3.49-3.599 6.09-.04 8.93 1.871 18.249 7.291 25.549 2.59-1.19 4.858-2.981 6.878-4.981-6.99-4.83-9.75-13.639-9.82-21.799.228-1.907 2.731-4.903.512-5.006zm-214.692 151.176c-1.87.66-.899 4.079-.679 5.779 7.3 5.7 16.97 7.041 25.9 5.381 1.32-.85 1.74-5.5-.33-4.97-8.69 1.25-18.291.11-24.891-6.19z" fill="#eceff1"/>
    <path id="color5" d="m338.131 739.76l-.781.301c-.67 20.08 2.64 39.869 1.97 59.949 2.08 10.9.03 22.07 2.02 32.99 2.99 19.04 2.83 38.631 0 57.711 5.62-.42 1.5 7.498 3.74 10.988 4.68-9.61 16.46-10.83 25.67-7.91.51-8-1.41-15.8-1.24-23.76-2.23-7.97.93-15.969.31-24.039 5.6-32.9 8.21-66.17 12.09-99.23l-1.131.131c-13.73 6.43-33.038 6.129-42.648-7.131zm66.17 7.17c-.36 24.9.559 49.65 3.549 74.31 2.49 14.48 2.671 29.119 2.531 43.789 2.76 9.82-2.4 19.781-.25 29.641-1.26 8.78 8.899 10.77 15.439 11.73 3.01-5.09 4.27-11.87 10.2-14.55-3.75-12.63-1.459-25.91-2.139-38.85 2.19-33.73 6.588-67.419 10.898-101.039-.15-1.1 1.441-4.971-.769-3.981-12.82 3.46-27.079 4.76-39.459-1.05z" fill="#5a6067"/>
  </g>
</svg>
