<svg height="720"  width="1280" xmlns="http://www.w3.org/2000/svg">
  <path id="background" d="m0 0h1280v719.997h-1280z" fill="#63478d"/>
  <g id="transform" transform="translate(0,0) scale(1.00)">
    <path id="color1" d="m849.133 86.897c-7.952-.1333-15.914.424-23.706 1.5027-19.494 2.5466-38.534 10.4946-52.88 24.1203-17.295 16.106-27.559 38.906-30.092 62.253-6.987 58.093-11.787 116.426-18.335 174.559-.412 8.707-7.093 14.973-12.253 21.293-8.48 10.12-18.24 19.266-25.627 30.252-4.88 8.267 1.627 17.095 4.8 24.695-2.933.266-5.88.2-8.773.706-2.174 7.44-1.335 15.32-2.055 22.96-.88 9.24 9.161 12.442 14.921 17.348-8.6 1.067-17.72-1.588-23.56-8.174-3.16-3.28-4.425-7.747-6.12-11.84-2.892 7.013-.09 14.453 1.947 21.266 5.2 13.654 21.36 21.027 35.2 17.467 5.72-2.747 4.227-10.267 5.04-15.44 11.587 3.893 18.015-12.533 12.88-21.093 2.773-5.707 7.64-10.107 11.24-15.307 3.12-4.827 6.773-9.413 8.933-14.773-1.68-8.254-7.44-16.08-5.253-24.827 4.187-11.693 16.253-17.853 21.92-28.6 6.387-18.213 11.187-36.921 16.667-55.386 6.466.145 12.866 1.307 19.32 1.641 6.305.24 12.613.346 18.92.212 2.613-.306 5.228-.638 7.853-1.012 5.707-2.88 9.533-8.081 11.573-14.054-1.24-10.814-13.478-3.48-19.638-8.707-8.522-6.507-16.948-13.227-24.628-20.705-17.534-14.868-22.014-39.028-25.694-60.575-1.346-4.293 2.467-.826 4.28-.16 1.746-4.693 3.494-12.333 9.974-11.76 7.534.907 11.853 8.24 15.253 14.252.347.347 1.053 1.043 1.4 1.375 2.84-16.812 2.852-34.173 8.307-50.52 3.626 18.16-.827 37.413 2.16 55.573 22.386 4.507 45.653 4.334 68.453 5.187-1.573 22.986-6.945 45.573-10.172 68.373-3.04 14.027-5.241 28.266-9.375 42.026-1.748 9.854-4.8 19.4-7.558 29-8.854 26.787-19.708 52.867-31.082 78.653-3.04 5.906-1.48 12.519-1.133 18.8-5.12 6.466-12.292 11.907-14.253 20.36-1.746 7.32 2.226 14.614 7.786 19.16 5.44 3.32 2.534 11.293 7.748 14.893 7.334 6.68 17.892.212 25.679 5.587 8-4.373 15.853-9.695 22.4-16-.92-8.4-3.613-16.492-4.493-24.892-3.054-1.614-6.32-2.776-9.334-4.441.894-5.067.267-10.895 2.839-15.401 11.001-8.454 23.108-16.572 30.188-28.866.107-7.454 1.267-15.36-1.679-22.426-2.121-12.252 4.026-23.588 9.506-34.041 13.12-25.479 19.6-53.599 25.6-81.412 14.466-1.533 29.226-.667 43.8-.867-10-49.226-13.362-99.773-26.947-148.266-4.427-17.426-15.453-33.306-31.613-41.6784-15.41-8.4426-32.84-12.0093-50.334-12.2906zm-73.256 113.42c-2.696.154-5.245 1.449-6.97 4.242 3.893 1.734 7.28 4.508 7.453 9.095 6.4 4.347 12.093-2.88 9.2-9.067-2.512-2.79-6.219-4.472-9.683-4.27zm131.35 2.549c7.106 1.24 13.518 8.332 12.52 15.813-.442 8.145-5.907 15.455-12.507 19.908-.267-11.893-.293-23.828 0-35.721zm71.706 159.266c-16.72 26.827-32.693 54.266-52.093 79.266-2.827 4.987-8.507 2.56-12.747 1.28-.56.88-1.105 1.76-1.638 2.654l-.322.588c-2.56 5.866-4.866 12.065-9.933 16.278-.973 11.947-8.48 22.054-11.827 33.4-1.546 7.08-9.293 8.801-13.72 13.521.454 4.507 2.68 8.852 2.307 13.412-1.28 4.48-6.36 5.16-9.52 7.788l-.68 2.106c3.52 3.186 9.265 2.733 12.119 6.746 7.748 11.08 9.881 25.934 5.694 38.734-2.64 6.506-6.133 12.626-9.48 18.786 19.574 27.32 18.907 62.547 29.214 93.333 1.666 10.213 4.893 20.147 8.066 29.973h108.277c2.36-62.093-12.04-122.933-19.32-184.172 2.55 2.293 2.96 5.853 3.92 8.973 15.34 57.56 30.78 115.586 35.38 175.199h13.08c-1.75-47.666-9.78-94.905-21.51-141.079-17.76-72.427-38.067-144.213-55.267-216.786zm-135.945 118.24c2.027 1.653 1.119 10.466 1.545 15.053-5.386 2.706-11.76 4.253-17.76 3.066-4.666-1.133-3.266-9.346 1.2-9.533 5.8-1.253 10.748-4.586 15.015-8.586zm158.732 45.053c1.28 3.613 2.27 7.346 2.67 11.173-3.22-2.707-2.26-7.467-2.67-11.173z" fill="#f9f8f7"/>
    <path id="color2" d="m800.947 159.866c-5.455 16.347-5.467 33.708-8.307 50.52.68 6.201 4.093 17.413-4.64 19.066-6.733-2.092-10.067-9.425-11.64-15.798-.173-4.587-3.56-7.361-7.453-9.095-1.6 1.84-4.588 7.442-2.894 1.96-1.813-.666-5.626-4.133-4.28.16 3.68 21.547 8.16 45.707 25.694 60.575 7.68 7.478 16.106 14.198 24.628 20.705 6.16 5.227 18.398-2.107 19.638 8.707 2.054 4.64 3.426 9.533 5.387 14.2 8.305-7.054 15.84-15 24.308-21.867 3.227-22.8 8.599-45.387 10.172-68.373-22.8-.853-46.067-.68-68.453-5.187-2.987-18.16 1.466-37.413-2.16-55.573zm106.28 43c-.28 11.893-.254 23.828 0 35.721 6.6-4.453 12.066-11.763 12.506-19.908 1-7.481-5.412-14.573-12.52-15.813zm-108.227 8.812c2.493 9.641 4.747 22.281-3.04 30.054 2.907-9.773 3.653-19.894 3.04-30.054zm64.685 15.053c1.704.08 3.39.712 4.982 1.495-11.814 5.813-27.812 7.466-39.279 1.294 9.665-2.734 21.185 2.319 31.224-2.228 1.02-.449 2.051-.608 3.073-.561zm-49.934 43.876c2.121.03 4.201.915 5.342 2.832-2.546-2.64-14.828.92-9.014-1.973 1.11-.575 2.398-.872 3.672-.859zm129.969 97.365c-2.827.04-5.665 0-8.465.215.853 4.613 2.557 8.998 4.157 13.385 1.561-4.493 2.989-9.027 4.308-13.6zm-20.999 10.547c-3.573 4.148-7.094 8.332-10.721 12.426-.827 8.72 10.707 2.4 15.893 2.92-1.093-5.306-3.492-10.226-5.172-15.346zm-25.694 28.133c-1.747 1.093-2.519 3.08-3.44 4.813 7.066.627 14.12 2.32 21.24 1.493-2.627-6.6-11.894-5.693-17.8-6.306zm30.986 5.586c-3.013.64-6.053 1.134-9.013 1.96.76 3.694 2.293 7.174 3.6 10.707 1.973-4.147 3.76-8.387 5.413-12.667zm-25.946 5.694c-4.467.12-8.867 1.066-13.334 1.093-1.386.76-2.906 1.467-3.76 2.867 3.654 8.893 8.667 17.12 12.815 25.773 4.812-.293 9.545-1.307 14.345-1.745l.322-.588c-5.375-8.654-2.135-20.494-10.388-27.4zm-25.307 17.56c-5.84 6.56-5.493 16.12-10.32 23.32 5.293-1.908 10.733-3.507 15.827-5.974-1.334-5.92-2.72-11.92-5.507-17.346zm8.84 32.701c-.639 0-1.379.148-2.24.527-5.453 2.305-11.252 3.813-16.505 6.533 1.226 6.492 3.652 12.732 5.545 19.067 6.427-4.454 12.855-8.934 19.121-13.6-1.913-3.676-1.449-12.426-5.921-12.527zm-21.655 49.472c-3.185 1.773-6.092 3.986-9.132 5.973 3.479 1.333 7.094 2.307 10.747 3.067-.507-3.027-.88-6.067-1.615-9.04zm-8.092 38.213c-4.32 4.853-9.134 9.28-14.708 12.667 14.922 6.986 25.855 22.627 24.602 39.439 4.145-3.372 7.84-7.28 11.346-11.293 3.347-6.16 6.84-12.28 9.48-18.786-4.866-12.76-17.318-20.948-30.72-22.027zm-35.641 34.332c-.465 13.146 1.201 26.242 1.388 39.374 2.693-.785 5.4-1.52 8.067-2.413-.92-12.773-2.788-25.788-9.455-36.961zm52.74 46.266c-.552 0-1.123.08-1.712.175-9.52 5.467-6.655 18.44-5.76 27.507 1.387 18.519 9.907 37.546 2.947 55.839h45.946c-3.173-9.826-6.4-19.76-8.066-29.973-9.4-10.32-11.547-25.038-17.962-37.172-3.012-6.537-7.114-16.545-15.393-16.376zm-42.023 12.844c-.342 0-.697.05-1.062.134-3.254 6.453-4.426 13.68-6.612 20.506.198 16.68 1.105 33.347 1.466 50.04h19.692c-3.36-4.987-8.226-10.348-6.72-16.855 1.96-14.465 10.12-29.825 2.974-44.065-2.075-3.938-4.606-9.984-9.738-9.757z" fill="#fbeee5"/>
    <path id="color3" d="m774.824 194.745c-5.536.384-7.173 7.374-8.811 11.774-1.694 5.482 1.294-.12 2.894-1.96 3.946-6.386 12.186-4.932 16.653.03 1.853 1.507 3.733 3.011 5.68 4.424-3.4-6.012-7.719-13.344-15.253-14.251-.404-.03-.792-.04-1.163 0zm24.176 16.933c.613 10.16-.133 20.281-3.04 30.054 7.787-7.773 5.533-20.413 3.04-30.054zm64.685 15.053c-1.022-.04-2.053.107-3.073.561-10.039 4.547-21.559-.506-31.224 2.228 11.467 6.172 27.465 4.519 39.279-1.294-1.592-.783-3.278-1.42-4.982-1.495zm-49.934 43.876c-1.274 0-2.562.284-3.672.859-5.814 2.893 6.468-.667 9.014 1.973-1.141-1.917-3.221-2.808-5.342-2.832zm122.337 18.459c-7.32 0-14.628.166-21.861.933-6 27.813-12.48 55.933-25.6 81.412-5.48 10.453-11.627 21.789-9.506 34.041 2.946 7.066 1.786 14.972 1.679 22.426-7.08 12.294-19.187 20.412-30.188 28.866-2.572 4.506-1.945 10.334-2.839 15.401 3.014 1.665 6.28 2.827 9.334 4.441 4.12-5.36 6.346-11.774 9.333-17.774 4.827-7.2 4.48-16.76 10.32-23.32 3.64-3.947 5.827-8.867 8.213-13.6.854-1.4 2.374-2.107 3.76-2.867 1.854-2.36 3.482-4.893 4.854-7.56.921-1.733 1.693-3.72 3.44-4.813 6.373-3.799 10.333-10.133 14.973-15.707 3.627-4.094 7.148-8.278 10.721-12.426 9.254-9.852 17.358-20.735 26.626-30.575-1.174 6.853-3.692 13.375-5.627 20.028-1.319 4.573-2.747 9.107-4.308 13.6-3.867 10.2-7.387 20.533-11.399 30.666-1.653 4.28-3.44 8.52-5.413 12.667-2.853 5.92-5.72 11.827-8.507 17.773 4.24 1.28 9.92 3.707 12.747-1.28 19.4-25 35.373-52.439 52.093-79.266 9.547-17.16 21.497-34.12 23.787-54.12 1.32-7.294-4.2-14.12-11.093-15.813-10.934-2.867-22.36-3.133-33.6-3.067-7.287.09-14.619-.07-21.939-.07zm-142.741 22.454c-2.575 12.145-3.574 25.519-11.454 35.652-7.52 6.853-15.813 12.867-24.533 18.093-5.667 10.747-17.733 16.907-21.92 28.6-2.187 8.747 3.573 16.573 5.253 24.827-2.16 5.36-5.813 9.946-8.933 14.773-1.773 4.32-1.04 9.16 1.947 12.76 6.893 9.08 14.386 17.733 22.293 25.961 4.067 5.452 10.693 9.479 13.16 15.799-3.427 35.374-7.319 71.093-4.172 106.666 1.6 41.881 6.092 83.6 9.733 125.346h21.772c-9.946-72.306-15.76-145.426-12.093-218.372 4.52 3.986 8.733 8.292 12.813 12.718 6 5.867 12.467 11.215 19.254 16.134 2.426 15.854.545 32.134 3.078 47.854 7.44-2.693 14.934-5.428 21.6-9.786 5.574-3.387 10.388-7.814 14.708-12.667 5.722-6.921 9.894-15.013 12.907-23.453l.68-2.106c1.227-2.88-2-2.908-3.88-3.614-3.653-.76-7.268-1.734-10.747-3.067-5.2-2.053-10.413-4.095-15.613-6.16-7.787-5.375-18.345 1.093-25.679-5.587-5.214-3.6-2.308-11.573-7.748-14.893-5.56-4.546-9.532-11.84-7.786-19.16 1.961-8.453 9.133-13.894 14.253-20.36-.347-6.281-1.907-12.894 1.133-18.8 11.374-25.786 22.228-51.866 31.082-78.653.598-4.466-4.762-2.546-7.455-3.093-11.067 0-22.28-.587-33.133-2.773-4.574-.44-5.948-4.974-4.787-8.894 2.625-11.773 8.587-22.453 13.187-33.533-6.307.134-12.615.03-18.92-.212zm49.641 168.852c-4.267 4-9.215 7.333-15.015 8.586-4.466.187-5.866 8.4-1.2 9.533 6 1.187 12.374-.36 17.76-3.066-.426-4.587.482-13.4-1.545-15.053z" fill="#2c2a31"/>
    <path id="color4" d="m785.56 204.587c2.893 6.187-2.8 13.414-9.2 9.067 1.573 6.373 4.907 13.706 11.64 15.798 8.733-1.653 5.32-12.865 4.64-19.066-.347-.332-1.053-1.028-1.4-1.375-1.947-1.413-3.827-2.918-5.68-4.424zm91.533 392.104c-3.506 4.013-7.201 7.921-11.346 11.293-10.602 8.72-22.987 15.12-36.08 19.187-2.667.893-5.374 1.628-8.067 2.413-.12 13.494 2.12 26.854 1.655 40.374 2.186-6.827 3.358-14.054 6.612-20.507 5.853-1.173 8.586 5.425 10.8 9.627 7.146 14.24-1.014 29.599-2.974 44.065-1.506 6.506 3.36 11.868 6.72 16.854h24.014c6.96-18.293-1.56-37.32-2.947-55.839-.895-9.067-3.76-22.04 5.76-27.507 9.44-1.692 13.893 9.227 17.105 16.201 6.415 12.134 8.562 26.852 17.962 37.172-10.307-30.786-9.64-66.013-29.214-93.333z" fill="#6a205f"/>
    <path id="color5" d="m861.388 288.999c-8.468 6.867-16.003 14.813-24.308 21.867-1.961-4.667-3.333-9.56-5.387-14.2-2.04 5.973-5.866 11.174-11.573 14.054-.07 6.919 1.133 13.985-.347 20.8-5.16 7.627-11.173 14.692-15.906 22.639 10.853 2.186 22.066 2.773 33.133 2.773 4.747-8.76 8.759-18.08 15.013-25.907 4.134-13.76 6.335-27.999 9.375-42.026zm-76.988 212.626c-3.667 72.946 2.147 146.066 12.093 218.372h14.119c-2.679-24.333-8.107-48.533-8.267-73.159-4.16-18.014-1.944-36.627-5.158-54.867-.146-25.853-.214-51.746.03-77.628-4.08-4.426-8.293-8.732-12.812-12.718z" fill="#5c9ea0"/>
    <path id="color6" d="m774.027 309.879c-5.48 18.465-10.28 37.173-16.667 55.386 8.72-5.226 17.013-11.24 24.533-18.093 7.88-10.133 8.879-23.507 11.454-35.652-6.454-.334-12.854-1.496-19.32-1.641zm-42.267 123.586c-3.6 5.2-8.467 9.6-11.24 15.307 5.135 8.56-1.293 24.986-12.88 21.093-.813 5.173.68 12.693-5.04 15.44-13.84 3.56-30-3.813-35.2-17.467-1.067 35.227 1.12 70.547-2.6 105.627-3.307 48.906-9.013 97.666-12.573 146.532h59.04c-11.374-24.106-16.294-50.786-18.279-77.213-1.627-15.973-1.441-32.44 3.252-47.92 2.093-6.8 8.028-13.346 15.815-11.933 18.092 1.014 29.478 17.439 36.024 32.547-5.772-47.828-1.492-96.213 7.921-143.292-7.907-8.228-15.4-16.881-22.293-25.961-2.987-3.6-3.72-8.44-1.947-12.76zm-51.548 15.773c-2.999 2.947-5.959 5.932-8.639 9.174 5.84 6.586 14.96 9.241 23.56 8.174-5.76-4.906-15.801-8.108-14.921-17.348zm117.001 65.105c-.24 25.882-.172 51.775-.03 77.628 3.213 18.24.997 36.853 5.157 54.867.16 24.626 5.588 48.826 8.267 73.159h14.109c-.36-16.693-1.267-33.36-1.467-50.039.467-13.52-1.774-26.88-1.654-40.374-.187-13.132-1.854-26.228-1.388-39.374-.03-3.974-.09-7.945-.667-11.879-2.533-15.72-.651-32-3.077-47.854-6.788-4.919-13.255-10.267-19.255-16.134zm-81.846 83.983c-5.708.03-11.051 5.186-11.474 10.992-2.933 29.801 5.44 58.986 12.6 87.586 2.52 7.653 3.88 15.707 7.2 23.093h17.934c4.986-11.226 4.453-23.973 5.333-36-1.56-24.226-3.545-49.626-15.64-71.239-2.987-5.254-6.545-10.652-12-13.574-1.299-.597-2.636-.864-3.953-.858z" fill="#353279"/>
    <path id="color7" d="m756 472.186c-9.413 47.079-13.693 95.464-7.921 143.292-6.546-15.108-17.932-31.533-36.024-32.547-7.787-1.413-13.722 5.133-15.815 11.933-4.693 15.48-4.879 31.947-3.252 47.92 1.985 26.427 6.905 53.107 18.279 77.213h12.426c-3.32-7.386-4.68-15.44-7.2-23.093-7.16-28.6-15.533-57.785-12.6-87.586.52-7.147 8.494-13.319 15.427-10.134 5.455 2.922 9.013 8.32 12 13.574 12.095 21.613 14.08 47.013 15.64 71.239-.88 12.027-.347 24.774-5.333 36h33.094c-3.641-41.746-8.133-83.465-9.733-125.346-3.147-35.573.745-71.292 4.172-106.666-2.467-6.32-9.093-10.347-13.16-15.799zm112.76 60.239c-3.013 8.44-7.185 16.532-12.907 23.453 13.402 1.079 25.854 9.267 30.72 22.027 4.187-12.8 2.054-27.654-5.694-38.734-2.854-4.013-8.599-3.56-12.119-6.746zm-27.615 36.12c-6.666 4.358-14.16 7.093-21.6 9.786.575 3.934.64 7.905.667 11.879 6.667 11.173 8.535 24.188 9.455 36.961 13.093-4.067 25.478-10.467 36.08-19.187 1.253-16.812-9.68-32.453-24.602-39.439z" fill="#b0a24c"/>
  </g>
</svg>
