<svg height="720" width="1280" xmlns="http://www.w3.org/2000/svg">
  <path id="background" d="m0 0h1280v720h-1280z" fill="#a84a49"/>
  <g id="transform" transform="translate(0,0) scale(1.00)">
    <path id="color1" d="m413.275 58.9667c-9.587.027-19.11 1.7266-28.448 3.86-7.467 6.0666-15.172 11.8813-22.307 18.3613-3.947 3.5333-5.973 9.0507-10.975 11.3573 1.775-9.9466 9.682-16.96 14.362-25.2-2.267.9867-4.454 2.1094-6.6 3.3094-8.507 8.64-15.28 18.96-19.534 30.3333-.786 2.067-1.748 4.265-4.026 5.052.266-8.76 1.746-17.5333 4.013-26-3.147 1.8933-6.053 4.1333-8.92 6.4.893 10.56-.533 21.04-1.68 31.505-4.613-7.078-4.347-16.466-7.04-24.4663-6.747 7.6533-14.412 19.7883-6.065 29.1213 16.213 18.147 42.092 21.92 64.638 27.147-7.026 3.733-15 5.12-22.253 8.346 4.92 7.76 14.693 9.108 22.972 10.694 21.081.708 43.975 1.493 62.615-10.066 4.506-2.148 5.133-8.868.8-11.534-13.6-9.36-30.707-8.254-46.4-8.414-3.987 2.72-5.494 8.92-10.534 9.694.254-23.334 16.534-47.974 40.134-53.467-17.427 1.1333-36.76 8.84-45.334 25.067-3.546 9.186-.05 18.706 3.267 27.333-13.053-5.053-24.547-15.547-30.293-28.44-4.467-12.533 1.706-26.32 10.921-35.0267 13.92-14.7866 34.347-19.9466 53.333-24.7066-2.217-.184-4.434-.2667-6.646-.26zm469.813 7.6786c-24.376.1067-48.189 9.212-68.248 22.7947-31.64 21.653-57.772 50.053-87.92 73.587-27.867 22.373-59.107 42.666-94.88 48.946-24.253 3.707-48.853 6.2-73.413 5.427 1.56 14.093 2.933 28.307 2.346 42.493 44.307 1.814 89.254 2.814 132.972-6.053 54.64-7.373 105.215-31.175 153.002-57.628 32.026-16.427 63.533-39.452 101.053-39.185 24.36-1.64 49 8.666 65.36 26.733-13.373-22.693-34.665-42.6-61.305-47.387-9.814 0-19.815-1.053-29.482.934-52.386 15.946-102.574 38.265-152.293 61.038-5.627 2.64-.601-2.518 1.532-3.825 38.761-28.412 78.308-56.628 122.228-76.575 30.467-14.053 66.892-7.265 93.84 11.402-15.081-13.814-31.879-26.292-50.892-34.0923-10.88-4.5734-22.855-2.6-34.295-3.0667-9.986-.4267-19.266 3.9187-28.28 7.6387-42.693 20.2803-78.308 53.7733-123.066 69.9733 12.652-15.573 28.4-28.387 42.786-42.333 21.88-18.587 42.414-41.0137 70.84-49.3737 21.374-7.48 44.654-7.908 66.934-5.148-13.36-4.0533-27.174-7.172-41.24-6.0386-2.531-.1867-5.059-.272-7.579-.2614zm-391.395 27.8334c-6.28 7.3333-14.053 13.2943-21.453 19.3883.507-5.934 6-9.812 6.56-15.679-3.267 1.56-6.507 3.172-9.773 4.705-2.854 5.934-.427 14.72-5.52 19-1.24-5.12-.199-11.121-3.52-15.548-16.332 6.228-33.307 11.775-47.508 22.295 15.614.947 31.814-1.533 46.694 4.667 9.84 3.986 21.574 10.668 21.894 22.68-1.36 8.548-8.908 14.133-16.188 17.692-19.147 8.921-40.612 11.548-61.546 10.761-20.226 1.32-41.813-4.56-56.733-18.693-6.587 4.678-12.732 10.04-18.412 15.813 7.079 2.293 16.453 1.387 22.133 5.147-9.534 0-18.921 2.386-28.481 1.466-1.853 1.56-3.88 3.2-6.48 2.787-19.733-.573-39.865 3.573-57.107 13.373-8.438 4.64-15.321 13.694-14.841 23.667-.4 14.587 9.789 26.653 19.843 36.093 19.653 18.894 47.105 26.014 73.238 30.347 2.547-.627 5.067-1.348 7.627-1.961 9.2-3.787 21.16 5.042 27.347-5.491-33.187 3.319-65.8-12.575-88.734-35.733-7.173-6.214-10.293-20.588-.09-25.362 24.853-11.786 54.267-6.212 79.24 2.562.453 3.04.413 6.132.693 9.185 4.454-4.693 8.227-10.053 13.094-14.333-2.254 9.346-5.614 18.52-9.627 27.266l.215.987c1.906 4.093 3.786 8.201 5.945 12.16 3.361-5.92 1.76-14.735 7.173-19.04.694 7.253.07 14.533.254 21.799 1.066-1.079 2.094-2.199 3.134-3.306 2.214-2.626 4.359-5.334 6.212-8.226-.733-6.72-3.746-12.907-4.533-19.614 4.36 2.774 6.708 7.56 9.748 11.574 4.027-5.48 5.559-12.254 9.145-17.96-.945 5.772-3.946 11.854-1.105 17.573 1.319 4.388 6.759 7.667 10.852 4.547 5-4.307 3.493-11.614 2.56-17.334 1.44.07 2.867.162 4.321.254-3.908-5.079-10.108-6.866-15.948-8.667 1.187-5.879 9.214-.252 13 1.001 5.734 7.852 10.067 17.2 18.454 22.866 5.28 2.734 3.32 9.413 6.48 13.613-.307-3.107-.88-6.173-1.254-9.267 7.135 4.227 14.534 8.039 22.52 10.347-19.306-16.761-20.6-44.573-23.813-68.173 5.613 8.12 12.6 15.106 18.76 22.76-3.493 2.56-7.68 4.08-10.853 7.078 5.52-.56 10.746-8.825 15.92-3.852-6.892 1.827-15.879 7.44-13.772 15.774.32 4.586 1.253 11.266 7 11.812 7.613-5.147 6.545-15.692 4.425-23.452 7.44-3.494 13.013 5.333 19.52 7.706 8.773 3.214 2.133 12.96-1.399 17.907 6.72.07 13.452.387 20.172.467 1.08-3.294 2.134-6.602 3.2-9.894-2.906-4.148-6.333-8.133-7.533-13.173 4.08.68 7.187 3.52 10.188 6.148 2.64-6.907 4.572-14.068 6.652-21.176-4.947-.427-10.972.388-14.825-3.345-1.92-3.134-5.64-8.787-.695-11 9.387-5.507 17.695-12.574 25.668-19.934.213-.586.639-1.773.852-2.36-6.173-1.36-12.452-1.973-18.719-2.746 7.319-4.467 16.64-4.547 24.934-6.454 1.973-3.613 3.973-7.266 5.333-11.173-7.387.707-14.747 2.267-22.173 2.04 4.906-5.347 13.172-6.507 19.278-10.547-4.893-1.866-10.012-3.012-15.078-4.238-3.107 4.465-6.507 8.758-10.56 12.412-.12-4.907 1.398-9.587 3.078-14.134-8.92-1.52-17.973-2.186-27.013-2.066 3.333-7.867 6.375-15.867 8.095-24.267-4.64 3.053-9.574 5.813-15.028 7.107 3.801-6.787 10.8-10.694 16.573-15.586.88-4.32 1.8-8.6557 2.295-13.0423zm-170.777 101.1063c3.368.03 6.736.14 10.096.227-.04.681-.09 2.053-.133 2.735-6.747 1.253-13.332 3.318-20.119 4.266-2.493-1.36-2.56-5.626.08-6.868 3.348-.305 6.711-.381 10.077-.36zm26.124 2.708c-2.827 6.454-7.388 11.987-11.228 17.854-3.067.145-9.585-1.319-9.039-5.026 5.574-4.494 11.667-8.32 17.627-12.266.653-.148 1.973-.415 2.64-.562zm61.267 6.48c1.92 3.467 3.253 13.054 6.373 18.506-3.321 1.226-8.16-1.292-10.868-3.319 1.348-5.093 2.468-10.333 4.495-15.187zm82.52 7.956c4.776.107 9.362 3.55 8.106 8.978-4.173-2.08-9.24-4.08-11.373-8.507 1.053-.344 2.165-.497 3.267-.471zm-9.76 6.831c4.946 5.613 7.921 13.8 11.388 20.64-10.934-.147-10.148-12.653-11.388-20.64zm-27.764 12.737c3.802 0 3.96 9.434.08 10.396-3.627-1.573-3.455-7.893-.895-10.266.287-.08.555-.134.809-.134zm-46.326 1.327c4.974.133 5.186 12.721-1.39 10.896-2.747-2.48-2.934-8.44.334-10.747.374-.106.724-.157 1.056-.149zm36.727 44.913c-1.864 0-4.08.63-5.704.796-2.013.947-6.373-.133-6.973 1.907 5.2.08 10.32-1.105 15.452-1.787-.664-.689-1.656-.916-2.775-.916zm-16.705 2.342c-.939 0-2.011.381-2.544.788-3.882 2.773 3.158 2.293 4.278.586 0-1.032-.797-1.384-1.734-1.374zm-40.986 7.976c-5.226.266-9.2 4.492-14.24 5.678 4.587-.426 9.187-1.133 13.52-2.773.187-.733.546-2.173.72-2.905zm89.054 46.838c-.64.427-1.92 1.267-2.56 1.68-19.187 15.36-44.627-1.668-65.307 9.106-16.84 13.333-27.707 36.974-20.96 58.228 4.827 11.386 14.493 20.548 25.587 25.813 11.706 5.108 25.066 2.48 36.385-2.347 20.228-8.026 34.083-25.386 50.841-38.4 7.722-6.24 16.64-10.786 24.626-16.68 3.268-2.28 6.628-4.413 10.041-6.466-16.572 2.92-35.107.465-48.427-10.48-6.253-4.948-9.546-12.654-10.226-20.454zm22.054 191.12c-4.133-.07-8.228.8-11.921 2.654-3.133 11.226 2.84 22.093 3.853 33.186 5.722 1.307 11.2 5.134 11.374 11.547 13.88 3.253 26.92 9.053 39.693 15.267-3.719-5.947-5.28-15.492 1.453-19.946 5.92-4.96 14.654-2.748 20.547-7.628-10.933-2.413-22.72-2.493-32.653-8.533-12.934-6.053-19.226-20.707-32.346-26.547zm-136.428 93.947c-5.653 15.627-12.76 30.72-21.466 44.895-11.694 19.813-27.468 36.718-42.082 54.345h319.362c-16.147-12.64-32.694-24.775-49.907-35.921-22-15.826-34.347-40.479-48.293-62.946-8 12.934-24.36 16.027-38.24 18.255-11.134 2.252-22.48.572-33.467-1.6-14.027-3.215-28.56.185-42.667-2.388-15.173-1.613-31.626-3.707-43.24-14.64z" fill="#1f2127"/>
    <path id="color2" d="m384.827 62.8267c-6.427.84-12.947 1.892-18.92 4.5186-4.68 8.24-12.587 15.2534-14.362 25.2 5.002-2.3066 7.028-7.824 10.975-11.3573 7.135-6.48 14.84-12.2947 22.307-18.3613zm-25.52 7.828c-6.8 2.5066-13.254 5.8253-19.547 9.3853-2.267 8.4667-3.747 17.24-4.013 26 2.278-.787 3.24-2.985 4.026-5.052 4.254-11.3733 11.027-21.6933 19.534-30.3333zm-28.467 15.7853c-3.027 2.1867-6.187 4.252-8.72 7.0387 2.693 8.0003 2.427 17.3883 7.04 24.4663 1.147-10.465 2.573-20.945 1.68-31.505zm160.773 3c-5.028 2.7733-9.68 6.1747-14.813 8.748-.56 5.867-6.053 9.745-6.56 15.679 7.4-6.094 15.173-12.055 21.453-19.3883.09-1.68.07-3.3587-.08-5.0387zm-24.586 13.453c-3.014 1.187-6.054 2.252-9.04 3.452 3.321 4.427 2.28 10.428 3.52 15.548 5.093-4.28 2.666-13.066 5.52-19zm22.373 4.628c-5.773 4.892-12.773 8.799-16.573 15.586 5.453-1.294 10.386-4.054 15.026-7.107.667-2.8 1.054-5.64 1.547-8.479zm-78.921 21.119c-4.306 3.027-8.279 6.48-12.052 10.133 15.693.16 32.8-.946 46.4 8.414 4.333 2.666 3.706 9.386-.8 11.534-18.64 11.559-41.534 10.774-62.615 10.066-8.279-1.586-18.052-2.934-22.972-10.694-4.827 2.147-9.307 4.96-13.84 7.654 14.92 14.133 36.507 20.013 56.733 18.693 20.934.787 42.399-1.84 61.546-10.761 7.28-3.559 14.828-9.144 16.188-17.692-.32-12.012-12.054-18.694-21.894-22.68-14.88-6.2-31.08-3.72-46.694-4.667zm96.294 13.693c-1.68 4.547-3.2 9.227-3.08 14.134 4.054-3.654 7.455-7.947 10.56-12.412-2.48-.64-4.973-1.255-7.48-1.722zm22.56 5.96c-6.106 4.04-14.372 5.2-19.278 10.547 7.425.227 14.785-1.333 22.172-2.04 1.4-3.24 1.52-7.947-2.894-8.507zm-2.44 19.68c-8.293 1.907-17.613 1.987-24.933 6.454 6.267.773 12.545 1.386 18.72 2.746 1.265-1.24 2.56-2.481 3.867-3.693.773-1.84 1.533-3.68 2.346-5.507zm-200.705 13.587c-2.201 2.12-4.281 4.36-6.348 6.613 9.56.92 18.947-1.466 28.481-1.466-5.68-3.76-15.054-2.854-22.133-5.147zm-5.272 14.025c-3.367-.03-6.729.05-10.076.36-2.64 1.242-2.573 5.508-.08 6.868 6.785-.948 13.371-3.013 20.117-4.266.04-.682.09-2.054.134-2.735-3.36-.08-6.728-.204-10.096-.227zm26.124 2.708c-.667.147-1.987.414-2.64.562-5.96 3.946-12.053 7.772-17.627 12.266-.546 3.707 5.972 5.171 9.039 5.026 3.84-5.867 8.401-11.4 11.228-17.854zm143.787 14.436c-1.102-.03-2.214.12-3.267.471 2.133 4.427 7.2 6.427 11.373 8.507 1.256-5.428-3.33-8.867-8.106-8.978zm-9.76 6.831c1.24 7.987.454 20.493 11.388 20.64-3.467-6.84-6.442-15.027-11.388-20.64zm-107.4 3.747c-4.867 4.28-8.64 9.64-13.094 14.333.427 4.48 2.254 8.64 3.467 12.933 4.013-8.746 7.373-17.92 9.627-27.266zm119.173 5.533c1.2 5.04 4.627 9.025 7.533 13.173.867-2.346 1.8-4.678 2.654-7.025-3-2.628-6.107-5.468-10.187-6.148zm-110.4 6.493c.787 6.707 3.8 12.894 4.533 19.614 1.747-2.682 3.508-5.347 5.215-8.04-3.04-4.014-5.388-8.8-9.748-11.574zm-52.827 1.987c9.867 10.975 18.067 23.693 30.76 31.773-10.826 2.12-21.453 5.054-32.185 7.614 14.453 2.68 27.879 10.053 42.945 8.493-.426.453-1.253 1.335-1.666 1.788-6.187 10.533-18.147 1.704-27.347 5.491 3.627 7.081 6.333 14.693 7.413 22.601-8.813-2.815-17.44-7.44-23.266-14.787-11.734 9.974-16.2 26.214-15.72 41.147.213 9.08 5.44 16.745 8.841 24.84 2.853 7.573 13.305 8.015 15.452 16.175 3.84 12.906 14.027 23.345 26.493 28.172 5.174 2.013 12.242.44 15.788 5.546 5.734 7.054 11.106 15.054 19.452 19.254 5.587 1.933 11.12-1.399 15.254-4.907-11.094-5.265-20.76-14.427-25.587-25.813-6.747-21.254 4.12-44.895 20.96-58.228-2.24-12.652-11.92-22.972-23.933-27.106-1.667-4.906-3.067-9.96-5.907-14.373-2.093-2.787-11.787-7.88-5.587-10.467 5.04-1.186 9.014-5.412 14.24-5.678.827-6.907 2.014-13.882 1.68-20.855.2-3.8-4.333-3.893-6.933-4.827-1.04 1.107-2.067 2.227-3.133 3.306-.187-7.266.44-14.546-.254-21.799-5.413 4.305-3.813 13.12-7.173 19.04-2.16-3.959-4.039-8.067-5.947-12.16-11.36-5.187-22.628-10.747-34.64-14.24zm194.066 135.773c-7.986 5.894-16.904 10.44-24.626 16.68 3.04 17.547 5.614 36.88-2.253 53.574-3.373 8.693-2.72 18.186-3.173 27.32-.627 9.426-6.054 17.613-7.787 26.721.693 10.679 2.64 21.585-.64 32.079 3.693-1.854 7.788-2.722 11.921-2.654-3.721-3.546-5.226-8.785-2.933-13.558 10.587-26.682 19.932-54.868 18.667-83.948.05-7.974 6.452-13.96 7.852-21.628 3.773-11.186 2.732-22.999 2.972-34.586zm-178.524 110.011c-2.06-.08-4.214.169-6.475.789-12.64 14.614-6.147 36.067-5.213 53.574-14.347.64-29.72-.414-42.867 6.44-8.027 4.4-6.493 14.813-5.827 22.426 5.52 30.734 14.147 61.867 31.587 88.122 4.68 8.118 13.947 11.158 22.867 11.2 8.706-14.175 15.813-29.268 21.466-44.895 11.614 10.933 28.067 13.027 43.24 14.64 14.107 2.573 28.64-.827 42.667 2.388 10.987 2.172 22.333 3.852 33.467 1.6 13.88-2.228 30.24-5.321 38.24-18.255 1.586-8.666-4.507-15.76-4.628-24.226-5.052-7.107-11.292-13.907-13.252-22.707-.174-6.413-5.652-10.24-11.374-11.547.374 2.975.707 6.014.214 9.014-19.36 6.106-39.707 8.533-59.867 10.373-13.013 1.773-26.32.05-38.96-3.173-2.92-1.347-8.853-2.32-7.707-6.679 7.88-20.921 2.359-43.668-2.254-64.695-11.036-8.096-20.908-23.89-35.324-24.389z" fill="#803837"/>
    <path id="color3" d="m535.489 166.691c-.261 0-.534 0-.822.04-4.707.148-4.882 7.68-10.12 6.746-1.307 1.214-2.602 2.454-3.867 3.695-.213.587-.64 1.772-.853 2.359-.84 4.454.186 9.708-2.948 13.388-4.919 5.854-4.439 14.052-7.2 20.892-2.08 7.106-4.012 14.269-6.652 21.176-.854 2.346-1.787 4.677-2.654 7.024-1.066 3.293-2.12 6.601-3.2 9.893-8.453 27.535-21.093 54.655-22.106 83.788.68 7.8 3.973 15.505 10.226 20.452 13.32 10.947 31.855 13.401 48.427 10.481 12.427-4.72 24.16-11.32 34.387-19.853 4.853-3.973 7.44-10.548 5.653-16.707-2.853-11.613 1.467-23.801-1.92-35.254-1.213-5-6.267-6.347-10.6-7.372-.907-9.12-.2-18.374-.267-27.547.587-14.187-.786-28.4-2.346-42.495-1.507-11.013-4.214-21.812-6.214-32.732-1.28-4.493-2.573-10.346-7.786-11.694-3.987-.675-5.211-6.119-9.138-6.282zm-98.089 29.016c3.213 23.6 4.507 51.412 23.813 68.173-7.988-2.308-15.386-6.12-22.52-10.347.374 3.094.947 6.16 1.252 9.267-3.158-4.2-1.198-10.879-6.478-13.613-8.387-5.666-12.722-15.014-18.455-22.866-3.787-1.253-11.813-6.88-12.999-1.001 5.84 1.801 12.04 3.588 15.947 8.667-1.453-.09-2.88-.187-4.32-.254.933 5.72 2.439 13.027-2.56 17.334-4.095 3.12-9.533-.159-10.853-4.547-2.84-5.719.16-11.801 1.106-17.573-3.586 5.706-5.118 12.48-9.145 17.96-1.707 2.693-3.468 5.358-5.215 8.04-1.853 2.892-4 5.6-6.213 8.226 2.6.934 7.133 1.027 6.933 4.827.334 6.973-.853 13.948-1.68 20.855-.174.732-.533 2.172-.72 2.905-1.373 5.067-4.426 9.427-7.933 13.24 2.84 4.413 4.24 9.467 5.907 14.373 12.013 4.134 21.693 14.454 23.933 27.106 20.68-10.774 46.12 6.254 65.307-9.106-16.84-.693-24.814-17.026-32.6-29.466 1.173-7.547 3.96-15.72 10.56-20.214 8.386-6.866 15.386-15.906 18.56-26.386 1.026-4.374 4.786-7.067 7.973-9.867 3.533-4.947 10.173-14.693 1.4-17.907-6.507-2.373-12.081-11.2-19.521-7.706 2.121 7.76 3.188 18.305-4.424 23.452-5.748-.546-6.682-7.226-7.002-11.812-2.106-8.334 6.88-13.947 13.774-15.774-5.174-4.973-10.4 3.292-15.92 3.852 3.173-2.998 7.36-4.518 10.853-7.078-6.16-7.654-13.147-14.64-18.76-22.76zm-29.093 9.066c-2.027 4.854-3.147 10.094-4.495 15.187 2.708 2.027 7.547 4.545 10.868 3.319-3.12-5.452-4.453-15.039-6.373-18.506zm35.396 73.764c1.118 0 2.112.227 2.776.916-5.132.682-10.252 1.867-15.452 1.787.6-2.04 4.96-.96 6.973-1.907 1.624-.166 3.837-.796 5.703-.796zm-16.704 2.342c.937 0 1.741.342 1.734 1.374-1.12 1.707-8.16 2.187-4.278-.586.533-.407 1.605-.778 2.544-.788zm-84.879 11.6c-2.56.613-5.08 1.334-7.627 1.961-2.88 1.733-5.733 3.56-8.226 5.853 5.826 7.347 14.453 11.972 23.266 14.787-1.08-7.908-3.786-15.52-7.413-22.601zm-22.732 73.801c-.16 8.919 3.985 17.187 8.545 24.613 6.387 10.774 8.987 23.147 12.867 34.919 6.773 22.281 19.24 42.201 32.027 61.455 3.813 6.146 7.186 12.88 7.652 20.226 4.613 21.027 10.134 43.774 2.254 64.695-1.146 4.359 4.787 5.332 7.707 6.679 12.64 3.226 25.947 4.946 38.96 3.173 20.16-1.84 40.507-4.267 59.867-10.373.493-3 .16-6.039-.214-9.014-1.013-11.093-6.986-21.96-3.853-33.186 3.28-10.494 1.333-21.4.64-32.079 1.733-9.108 7.16-17.295 7.787-26.721.453-9.134-.2-18.627 3.173-27.32 7.867-16.694 5.293-36.027 2.253-53.574-16.758 13.014-30.613 30.374-50.841 38.4-11.319 4.827-24.679 7.455-36.385 2.347-4.134 3.508-9.667 6.84-15.254 4.907-8.346-4.2-13.718-12.2-19.452-19.254-3.546-5.106-10.614-3.533-15.788-5.546-12.466-4.827-22.653-15.266-26.493-28.172-2.147-8.16-12.599-8.602-15.452-16.175zm258.619 187.184c-6.164-.149-11.172 4.907-15.887 8.429-5.893 4.88-14.627 2.668-20.547 7.628-6.733 4.454-5.172 13.999-1.453 19.946 12.747 12.186 31.053 10.973 47.187 13.8 8.546 1.186 17.906 6.066 26.053.906 8.173 2.92 21.827 4.92 24.985-5.8-2.96-7.506-9.878-14.626-18.278-15.506-7.8-.92-14.628-5.654-20.122-11.014 6.868-3.28.8-11.013-3.333-13.786-5.6-.227-10.717-2.307-15.891-4.2-.93-.254-1.834-.382-2.714-.403z" fill="#faceb4"/>
    <path id="color4" d="m453.303 232.297c-.255 0-.523.04-.81.134-2.56 2.373-2.732 8.693.895 10.266 3.875-.962 3.717-10.386-.08-10.396zm-46.326 1.327c-.332 0-.682.04-1.056.149-3.268 2.307-3.081 8.267-.334 10.747 6.576 1.825 6.364-10.764 1.39-10.896z" fill="#feffff"/>
  </g>
</svg>
