<svg height="1080" width="1920" xmlns="http://www.w3.org/2000/svg">
  <path id="background" d="m0 0h1920v1080h-1920z" fill="#804343"/>
  <g id="transform" transform="translate(0,0) scale(1.00)">
    <path id="color1" d="m715.301 15.1699c-1.6 2.28-1.821 5.1208-2.031 7.8008-2.33 19.63-.231 39.37.269 59 1.34 9.55.331 19.7783 5.041 28.5583 3.89 7.22 5.41 15.441 5.92 23.551 6.58 68.5 18.449 136.349 31.029 203.949 1.92 8.59 3.701 17.23 5.231 25.91 6.37 29.15 13.239 58.221 20.349 87.211 1.13 2.99 1.8 6.131 2.09 9.311 3.36 14.14 6.821 28.279 10.621 42.309 2.14 5.17 3.47 10.64 5.67 15.8 2.24 5.58 7.37 9.08 11.35 13.33 20.95 19.55 30.839 47.179 44.849 71.469 2 4.97 7.211 2.8 10.911 1.42 4.14-1.94 11.99-4.219 9.72-10.299-11.14-25.38-19.371-52.55-19.701-80.47-1.52-4.29-1.508-8.93-2.558-13.34-4.55-17.94-12.521-34.78-18.221-52.34-3.56-10.29-9.59-20.039-11.25-30.779-3.67-3.64-4.7-8.851-6.6-13.461-5.34-13.95-9.869-28.19-15.019-42.2-2.92-9.53-6.461-18.949-8.381-28.759-.25-1.17-.479-2.331-.709-3.491-1.05-2.25-2.051-4.539-2.711-6.939-13.43-49.04-27.53-97.91-39.83-147.25-3.77-16.7-8.18-33.4-9.6-50.49 3.95-10.59 13.34-20.852 9.17-33.0218-9.48-24.11-18.5-48.4893-30.43-71.5293-1.2-2.15-2.529-4.74-5.179-5.25zm238.599 767.7601c-5.14 2.51-10.78 6.401-9.4 13.031 2.4 7.27 6.01 14.069 8.33 21.369 7.35 13.84 11.191 29.19 14.391 44.44 3.68 15.22 5.928 30.719 8.318 46.179.35 6.24 3.112 12.1 6.772 17.08 25.929 39.94 54.669 78.011 82.459 116.681 9.46 13.35 20.55 25.43 30.62 38.29h48.71c-18.93-28.56-38.54-56.88-53.31-87.9-3.65-7.57-7.82-14.89-11-22.67-11.57-23.46-20.45-48.161-32.26-71.491-3.47-6.22-9.43-10.41-13.92-15.82-9.18-6.08-15.9-15.298-24.08-22.648-20.091-20.06-33.301-45.7-44.661-71.41-1.38-5.02-6.779-4.891-10.969-5.131z" fill="#836559"/>
    <path id="color2" d="m975.562 222.088c-18.454-.291-36.935 3.281-53.091 12.521-21.66 11.95-46.002 19.47-65.022 35.84-9.29 8.68-18.62 18.611-21.33 31.471-2.36 8.8.591 18.25 6.121 25.25-9.24.79-19.041-2.05-25.711-8.67-5.19-5.25-5.098-14.121-1.308-20.131 2.46-4.04 7.14-5.589 11.09-7.719-6.92.41-15.041 3.381-16.491 11.061-3.11 10.69 3.409 20.539 10.709 27.619-8.67-2.87-18.398-5.01-26.648.32.23 1.16.459 2.321.709 3.491 2.69-1.99 6.021-3.15 9.381-2.34 11 1.97 21.259 6.668 32.179 8.988 1.92-.26.889 3.141-.371 3.121-6.94 2.4-14.4 1.11-21.58 1.33 4.33 2.89 9.211 4.72 13.901 6.91-5.28 6.73-9.95 14.779-8.78 23.709 3.51-10.07 12.411-17.43 22.651-19.91 2.16.88-.101 3.801-1.051 5.031-4.81 5.45-2.02 13.13.57 18.93.09-8.44 4.22-20.66 14.03-21.25-3.49 4.04-6.679 8.55-6.469 14.19 3.62-6.07 8.729-11.601 15.789-13.481 22.77-.4 45.279-6.919 64.439-19.349-11.09 15.9-20.889 33.719-37.099 45.089 22.35-9.4 39.5-28.169 50.74-49.279-3.68 21.06 8.191 43.739 27.971 52.119-15.21-8.49-20.941-26.62-20.801-43.09 2.85 6.67 5.09 13.701 9.39 19.661 9.08 14.31 23.41 24.1 38.29 31.63 1.65 1.01 4.07 1.61 4.46 3.83 2.64 8.61.04 17.651-4.269 25.231 4.639-1.89 6.819-6.591 9.829-10.231-.38 8.28-4.36 15.83-9.649 22.03 7.069-1.94 14.239-5.071 18.959-10.901 3.53-4.5 4.3-10.298 5.75-15.648 8.89 6.19 14.53 15.919 18.91 25.609.64-9.48-1.19-18.841-2.81-28.121 5.16 5.79 11.72 10.001 18.13 14.121-.34 7.99-5.46 14.68-11.23 19.77-3.42 2.88-6.39 6.929-11.06 7.689 8.63.64 16.71 3.891 24.79 6.741 11.34 4.68 23.82 6.549 36.01 5.179 5.36-3.95 8.99-10.029 11.45-16.129 1.06-7.3-2.85-13.301-5.35-19.621 7.6 2.27 15.29 9.152 15.57 17.612.11 3.99-2.72 7.188-3.98 10.808 3.82-1.71 6.94-4.569 9.64-7.719.8-2.31 2.27-4.919.7-7.269-3.9-6.62-11.7-9.57-15.74-16.07-7.93-9.93-11.57-22.531-12.26-35.061 1.05-21.35 7.63-42.54 4.24-64.02-1.96-24.58-11.62-49.01-29.33-66.47-19.57-17.28-44.71-26.809-70.04-31.799-8.156-1.559-16.539-2.491-24.928-2.623zm-85.888 40.73c1.152.141-1.332 2.673-2.145 3.721-9.29 10.31-15.61 22.72-21.99 34.91-3.3 7.48-8.09 14.972-15.59 18.772-3.81.56-6.529-3.571-7.679-6.721-4.19-9.88-.03-21.62 7.81-28.42 10.04-11.15 24.19-17.29 38.15-21.93.719-.27 1.178-.364 1.444-.332zm-26.324 109.172c-6.03 11-16.35 18.93-28.25 22.68 8.35 1.3 16.409-1.489 24.429-2.119 2.18-6.65 3.151-13.621 3.821-20.561zm-80.151 88.471c-5.49 4.28-11.439 8.37-15.349 14.25-3.29 6.53-.97 15.169-6.42 20.769-3.31 4.36-8.56 6.199-13.11 8.889-8.46 5.17-12.12 14.831-16.72 23.111-3.17 8.28-12.98 9.92-20.61 11.5-7.11 5.02-8.431 14.64-10.381 22.53-1.7 6.57-8.39 9.731-11.75 15.211-2.08 8.07.981 16.229 1.401 24.299-.67 4.93-3.959 8.969-5.369 13.679-2.36 6.53-1.581 13.571-1.411 20.371 1.55-.79 3.14-1.509 4.76-2.189 4.06-3.3 5.88-8.47 9.35-12.33 4.82-5.73.68-13.211 0-19.551 3.38-9.59 16.71-13.74 16.25-25 .36-4.07-2.8-9.081.75-12.381 7.27-4.39 16.23-7.449 20.5-15.389 2.68-4.29 2.279-10.42 6.519-13.66 5.55-2.23 12.081-1.34 17.231-4.82 8.34-3.98 11.269-13.34 16.849-20.02 4.8-4.77 11.931-5.26 18.131-6.96-3.8-14.03-7.261-28.169-10.621-42.309zm85.344 228.699c-5.535-.077-11.048 2.091-14.443 6.721 3.92-1.47 7.59-3.911 11.88-4.221 9.87-1.5 20.739 8 18.299 18.33-2.13 8.12-8.178 14.69-14.728 19.67-17.95 12.61-41.042 16.599-62.522 13.709-23.2-.24-47.718-2.799-67.728-15.599-13.35-8.26-25.17-19.09-34.41-31.78-1.02-.91-2.581-.8-3.811-1.17-.58.17-1.75.5-2.34.66-3.38 14.79-2.371 30.38-2.291 45.53.87 13.73 3.401 30.55 17.291 37.17 19.09 7.4 40.179 2.23 59.369-2.25 11.05-1.83 19.661-10.719 31.151-10.799 26.24-1.34 51.151-10.151 76.711-15.391 15.76-4.54 33.84-8.86 43.66-23.24.72-.09 1.449-.09 2.199.02.6-6.93-3.899-11.65-8.869-15.67-1.88 5.88-5.631 10.909-9.541 15.589-15.53 14.63-37.01 21.711-58.02 22.721 12.2-7.25 26.37-13.89 33.68-26.92 4.43-8.01 5.679-19.17-.961-26.33-3.485-4.35-9.041-6.672-14.576-6.75zm-167.742 39.51c.53.04 1.599.12 2.129.16 2.51 11.6 10.74 21.889 21.89 26.209 19.91 7.61 41.48 9.042 62.53 9.842-.13 2.26-2.921 2.318-4.481 3.158-19.65 7.13-41.34 12.882-62.09 7.272-18.48-6.8-20.698-29.701-19.978-46.641z" fill="#b1645f"/>
    <path id="color3" d="m942.92 334.83c-11.24 21.11-28.39 39.879-50.74 49.279 16.21-11.37 26.009-29.189 37.099-45.089-19.16 12.43-41.669 18.949-64.439 19.349-.03 4.58-.38 9.171-1.49 13.621-.67 6.94-1.641 13.911-3.821 20.561-2.52 5.76-4.588 11.689-5.318 17.969-23.85-7.67-34.96-31.73-51.24-48.62 5.15 14.01 9.679 28.25 15.019 42.2 1.9 4.61 2.93 9.821 6.6 13.461 5.52 3.67 11.141 7.538 17.711 9.048 5.58 1.22 11.289 2.661 15.949 6.161 7.52 4.85 8.84 14.83 15.52 20.48 1.9 1.65 4.76 2.87 4.9 5.75.18 5.12 4.2 8.52 6.5 12.74 6.65.99 13.389 1.25 20.019 2.44 6.53-1.08 10.861 3.21 12.891 8.97 8.92-.76 17.78-2.109 26.65-3.259 3.08-6.72 7-14.041 14.29-16.881 10.8-4.19 22.75-4.119 34.15-5.289 13.21-5.09 27.2-10.562 41.62-9.192 4.67-.76 7.64-4.809 11.06-7.689 5.77-5.09 10.89-11.78 11.23-19.77-6.41-4.12-12.97-8.331-18.13-14.121 1.62 9.28 3.45 18.641 2.81 28.121-4.38-9.69-10.02-19.419-18.91-25.609-1.45 5.35-2.22 11.148-5.75 15.648-4.72 5.83-11.89 8.961-18.959 10.901 5.289-6.2 9.269-13.75 9.649-22.03-3.01 3.64-5.19 8.341-9.829 10.231 4.269-7.58 6.909-16.621 4.269-25.231-.39-2.22-2.81-2.82-4.46-3.83-14.88-7.53-29.21-17.32-38.29-31.63-4.3-5.96-6.54-12.991-9.39-19.661-.14 16.47 5.591 34.6 20.801 43.09-19.78-8.38-31.651-31.059-27.971-52.119zm-187.391 3.199c-9.66 1.65-19.95 1.991-28.74 6.711-6.2 3.94-3.889 12.12-2.519 17.99 2.45 8.2.25 16.96 2.89 25.11 2.61 9.07 8.6 16.689 15.58 22.859.03-4.74-3.54-8.549-4.09-13.209-1.21-8.16-1.521-17.841 4.639-24.211 4.44-5.21 11.201-7.26 17.471-9.34-1.53-8.68-3.311-17.32-5.231-25.91zm81.871 107.92c-.39.6-1.17 1.801-1.56 2.391 5.7 17.56 13.671 34.4 18.221 52.34 3.96-.02 7.939-.069 11.919.121-1.34-4.17-3.59-7.982-4.82-12.182 1.7-.28 3.421-.439 5.141-.699-1.32-5.4-4.071-10.32-5.291-15.75 3.42 2.89 6.18 6.469 9.59 9.359 1.13 1.45 2.15-.328 3.23-.818.96 2.59 1.74 5.289 3.18 7.689 3.82-1.37 6.411-4.64 8.791-7.75-2.62-3.61-8.481-1.98-10.321-6.25-2.74-3.95-11.85.18-11.5-6.4-.54-6.33-7.28-8.73-12.4-10.49.8-7.73-7.77-11.351-14.18-11.561zm196.33 21.897c-7.86.21-15.78 3.327-23.11 5.843-10.711 3.54-21.691 10.062-25.581 21.272 17.681-9.91 41.761-10.911 58.521 1.469 16.94 13.18 19.45 37.08 16.38 56.9 5.78-3.82 6.86-11.119 10.23-16.699 2.45-11.62 3.93-23.862-.52-35.262-4.3-13-12.43-25.87-25.3-31.68-3.49-1.434-7.05-1.939-10.62-1.843zm-115.4 141.474c-.45 3.21-1.101 6.399-2.211 9.459.36-.01 1.082-.019 1.442-.029 2.99 6.21 5.479 12.681 8.529 18.881 2.45-3.07 1.09-7.16-.18-10.41-2.56-5.96-4.14-12.361-7.58-17.901zm-31.174 19.108c-.287-.006-.577 0-.867.021-4.46 12.26-11.049 24.562-10.459 37.942 3.74 5.74 10.551 9.11 12.981 15.74 1.9 5.11 4.269 11.639 10.199 13.049 4.67-.22 6.959-4.961 10.099-7.731 2.02 1.31 4.242 3.021 4.442 5.641.75 6.07 2.04 12.09 4.41 17.76 4.97 4.02 9.469 8.74 8.869 15.67.59 3.63 2.909 6.519 5.199 9.259 5.25 1.87 10.441 3.941 15.821 5.451 4.08.28 8.189.149 12.259-.371 1.69-8.2 1.371-17.18-2.689-24.66 2.45-.1 6.07-.038 6.49-3.238.56-7.03 2.46-16.102-4.65-20.522 2.56-.39 5.471-1.138 6.291-3.968 2.14-7.72-.191-16.561-5.641-22.401-2.34-2.06-1.25-5.39-1.51-8.09.26-7.47-4.6-13.751-9.42-18.941-2.75 11.88-1.259 24.801-.089 36.971-6.1-8.5-11.371-17.679-18.621-25.289-1.87-2.16-4.541-3.291-7.241-3.971-4.87 4.14-11.64 3.14-17.5 2.68-4.21-6.51-7.929-13.369-12.539-19.619-1.89-.692-3.825-1.345-5.834-1.383zm-18.318 199.322c-1.568.027-3.175.234-4.818.65-16.86 6.75-32.14 17.07-45.69 29.08 6.53.31 13.099.77 19.279 3.11 17.58 6.12 34.351 16.029 46.131 30.689 13.91 16.64 25.3 35.172 36.91 53.432 8.78-3.03 16.651-8.48 25.151-12.33 8.15-4.84 17.63-7.081 25.66-11.981-24.84-25.74-48.951-52.27-74.701-77.16-7.788-7.07-16.945-15.679-27.922-15.49zm415.712 50.35c-15.53 12.16-32.81 21.889-50.02 31.439 9.38 18.72 20.85 36.382 30.79 54.842 21.1-7.76 44.72-20.161 50.84-43.701-.7-3.81-2.04-7.491-4.29-10.651-7.8-11.69-17.74-21.719-27.32-31.929zm-109.18 59.429c-10.96 4.5-22.21 8.37-33.64 11.51 13.74 14.5 28.44 28.742 46.29 38.102 6.2 2.15 12.82 1.199 19.08-.141-10.69-16.41-20.56-33.401-31.73-49.471z" fill="#fce1cf"/>
    <path id="color4" d="m760.76 363.939c-6.27 2.08-13.031 4.13-17.471 9.34-6.16 6.37-5.849 16.051-4.639 24.211.55 4.66 4.12 8.469 4.09 13.209 2.06 2.48 5.269 3.851 7.119 6.481 2.25 6.63 1.99 16.03 9.67 19.09 8.43 2.75 16.73 7.16 21.58 14.88-7.11-28.99-13.979-58.061-20.349-87.211zm63.83 53.622c1.66 10.74 7.69 20.489 11.25 30.779.39-.59 1.17-1.791 1.56-2.391 6.41.21 14.98 3.831 14.18 11.561 5.12 1.76 11.86 4.16 12.4 10.49-.35 6.58 8.76 2.45 11.5 6.4 1.84 4.27 7.701 2.64 10.321 6.25 1.73 1.37 2.838 3.31 3.648 5.34 13.19 1.18 24.451 13.199 24.901 26.379-7.47-.68-12.469-7.75-16.049-13.76-1.07-2.32-3.72-.879-5.42-.349-1.55 2.07-3.28 4.01-4.57 6.26 3.93 7.5 9.428 14.08 16.298 19.05 2.27 2.15-1.859 2.991-3.429 2.151-1.76 2.61-3.99 4.859-6.41 6.859 1.37 2.78 2.54 5.669 3.75 8.529 5.71-2.47 11.1-5.759 14.81-10.859 3.76.96 7.489 2.071 11.209 3.211.41 8.81.23 17.668.08 26.488-.27 7.32-8.369 9.401-13.299 13.041 1.13 3.05 2.371 6.061 3.391 9.151 5.11-2.24 10.039-4.911 15.359-6.661-.72-9.25 1.75-18.48 7.86-25.58-2.8-5.33-6.72-10.189-8.41-16.009 7.13-1.98 13.7.949 17.32 7.269 1.7-1.18 3.44-2.331 5.17-3.471.31-5.81 4.45-13.519-.52-18.179-7.77 4.33-17 3.049-24.59-1.061-2.39-1.31-5.12-2.148-7.23-3.898-1.16-6.38-1.419-13.08-4.609-18.91-3.65-5.91-7.26-11.901-11.84-17.151-1.41-1.62 1.168-3.11 1.968-4.31-6.63-1.19-13.369-1.45-20.019-2.44-2.3-4.22-6.32-7.62-6.5-12.74-.14-2.88-3-4.1-4.9-5.75-6.68-5.65-8-15.63-15.52-20.48-4.66-3.5-10.369-4.941-15.949-6.161-6.57-1.51-12.191-5.378-17.711-9.048zm168.58 40.16c-11.4 1.17-23.35 1.099-34.15 5.289-7.29 2.84-11.21 10.161-14.29 16.881-2.2 9.08-4.48 18.12-7.16 27.07 4.04-1.63 7.929-3.622 11.719-5.772 5.33-9.46 3.671-22.079 10.781-30.039 5.68-.57 11.36-1.369 17.09-1.269 4.77-4.74 10.35-8.56 16.01-12.16zm21.47 29.615c-10.32-.059-20.761 2.67-29.601 7.625-6.16 3.6-11.119 8.889-15.709 14.269-3.84 4.94-1.26 11.23-1.06 16.77-1.26 2.25-2.76 4.349-4.11 6.539 7.75-2.95 16.181-2.64 24.301-1.93 4.45.41 8.039 3.971 12.289 4.461 4.62-4.51 12.27-9.499 10.32-16.939-3.21-4.86-9.91-4.711-15.08-5.461-8.38.63-17.109 2.76-23.689 8.26.51-3.15 1.338-6.6 4.238-8.42 18.38-12.87 46.131-8.741 60.181 8.689 8.56 10.8 7.4 26.831.55 38.141-2.97 5.56-10.96 7.22-12.07 13.76 9.5-.39 19.56-.96 27.87-6.11 4.45-3.09 5.34-8.85 6.87-13.66 3.07-19.82.56-43.72-16.38-56.9-8.38-6.19-18.59-9.035-28.92-9.094zm-123.429 48.394c-5.08 4.2-13.56 5.37-14.41 13.2 3.55 4.36 5.739 9.73 10.039 13.47-.54-7.1 3.19-13.12 6.9-18.8-.9-2.61-1.789-5.22-2.529-7.87zm14.199 38.469c-1.54 1.91-3.679 3.121-5.849 4.151 1.75 2.66 3.758 5.13 5.728 7.64 1.33-.5 2.652-1.029 4.012-1.519-1.48-3.36-2.551-6.872-3.891-10.272zm20.36 35.141c3.09 6.72 5.45 13.751 8.39 20.541 2.59 6.44 14.94.998 14.82 9.158 4.82 5.19 9.68 11.471 9.42 18.941.26 2.7-.83 6.03 1.51 8.09 5.45 5.84 7.781 14.681 5.641 22.401-.82 2.83-3.731 3.578-6.291 3.968 7.11 4.42 5.21 13.492 4.65 20.522-.42 3.2-4.04 3.138-6.49 3.238 4.06 7.48 4.379 16.46 2.689 24.66 5.58 2.2 11.701 6.302 17.741 3.032.71-.89 1.52-1.702 2.4-2.442 5.05-8.43 15.789-13.159 17.109-23.619 2.2 3.2 4.191 6.549 5.941 10.029 2.9-1.26 5.3-5.218 8.8-3.728l1.06-.82c-3.99-5.93-7.94-11.97-11.15-18.35 3.58-6.5 7.45-13.32 7.82-20.91-.74-4.4-4.91-7.471-5.22-12.061-1.07-5.24 3.06-9.799 2.37-15.029-.39-4.59-3.51-8.252-6.28-11.682-3.151-2.86-6.381-5.659-9.161-8.879-4.31-4.81.301-13.28-6.109-16.88-10.94-6.18-23.75-10.56-36.44-9.61-7.38 1.48-14.91.919-22.24-.461zm158.44 112.32c-12.82 10.71-25.41 21.719-37.53 33.199 9.18-1.18 18.46-2.209 27.31-5.029 4.38-1.69 8.07-4.78 12.56-6.26-1.34-7.24-.83-14.67-2.34-21.91zm-54.24 19.043c-3.73.122-7.45 3.385-7.37 7.277-.15 2.43-2.87 3.24-4.44 4.67.74.87 1.49 1.739 2.25 2.629 4.51.65 9.07.481 13.6.041-2.28-3.52-5.08-6.7-7.03-10.41.87-2.66 4.25-2.879 6.59-3.189-1.11-.75-2.35-1.059-3.6-1.018zm-15.89 43.787c-4.77 3.75-9.77 7.169-14.85 10.459 2.73 11.72 5.71 23.521 10.64 34.541 8.63-5.35 15.86-12.54 23.58-19.07 9.41-8.45 19.25-16.43 27.84-25.74-15.65.43-31.61 1.67-47.21-.19zm-78.959 9.586c-2.465.076-4.876.706-7.051 2.154-.37.22-1.129.64-1.509.85 10.12 4.96 17.279 13.77 26.269 20.25-2.32-7.3-5.93-14.099-8.33-21.369-2.953-1.164-6.21-1.983-9.379-1.885z" fill="#894b48"/>
    <path id="color5" d="m1108.69 439.4c-.64 1.61-1.11 3.27-1.66 4.92-2.46 6.1-6.09 12.179-11.45 16.129-12.19 1.37-24.67-.499-36.01-5.179-8.08-2.85-16.16-6.101-24.79-6.741-14.42-1.37-28.41 4.102-41.62 9.192-5.66 3.6-11.24 7.42-16.01 12.16-6.46 7.04-13.079 13.94-18.849 21.58-2.85 3.36-5.092 7.478-9.022 9.728-3.79 2.15-7.678 4.142-11.718 5.772-3.65 3.76-7.47 7.318-10.67 11.488 7.59 4.11 16.819 5.391 24.589 1.061 4.97 4.66.83 12.369.52 18.179 3.97-1.89 7.97-3.76 12.15-5.15 1.35-2.19 2.85-4.289 4.11-6.539-.2-5.54-2.78-11.83 1.06-16.77 4.59-5.38 9.549-10.669 15.709-14.269 3.89-11.21 14.87-17.732 25.581-21.272 10.66-3.66 22.57-8.59 33.73-4 12.87 5.81 21 18.68 25.3 31.68 4.45 11.4 2.97 23.642.52 35.262.2 14.83 2.17 31.219-6.16 44.379-7.89 15.73-11.16 33.47-11.06 50.98-.05 10.41 1.06 21.38 6.69 30.41 5.42 8.94 11.59 17.429 18.29 25.459 3.76-.8 7.56-1.51 11.22-2.75 1.57-6.02 3.35-12.09 6.49-17.5 1.45-2.04 3.38-4.879 6.28-4.279 9.87 2.08 18.72 7.24 27.42 12.15 6.26-4.03 13.38-6.491 19.59-10.611 9.8-6.28 18.67-13.859 27.33-21.599 9.3-7.36 16.44-17.28 26.61-23.54 14.27-4.49 29.07.91 42.55 5.61 22.56 6.02 45.92 10.65 69.36 9.09 21.23-2.77 39.49-14.72 58.83-22.94 14.73-6.63 30.5-10.73 46.35-13.58-10.24-5.58-22.26-7.171-33.64-9.131-8.84-.23-17.67-2.56-26.47-.84-24.91 1.5-49.88 5.351-74.82 2.471-27.62-2-54.7-9.37-80.13-20.15-23.08-9.27-44.84-22.149-63.57-38.549-1.85-1.61-4.4-3.051-4.72-5.711 2.19-5.94 8.23-9.911 9.64-16.211-.81-4.1-3.1-8.738 0-12.478 3.68-5.45 9.21-12.752 4.63-19.282-6.71-7.65-16.46-11.539-24.53-17.429-2.18-4.76 1.67-11.56-3.42-15.2-2.7 3.15-5.82 6.009-9.64 7.719 1.26-3.62 4.09-6.818 3.98-10.808-2.85-1.01-5.64-2.181-8.56-2.911zm-219.241 46.59c.63 4.22 1.972 8.27 3.432 12.27 1.7-.53 4.35-1.971 5.42.349 3.58 6.01 8.579 13.08 16.049 13.76-.45-13.18-11.711-25.199-24.901-26.379zm-29.437 14.672c-1.988-.009-3.971.008-5.951.018 1.05 4.41 1.038 9.05 2.558 13.34 5.82 7.73 8.152 17.59 14.102 25.3 3.9-5.7 7.469-11.639 11.689-17.109 1.3.02 2.579.249 3.879.449-1.73-3.99-2.709-8.3-4.869-12.09-3.33-1.47-7.05-1.431-10.49-2.451-3.34-.71-3.6-4.788-4.95-7.318-1.99-.095-3.981-.13-5.968-.139zm28.299 3.858c-5.16 6.59 1.87 13.481 3.32 20.121 3.19.21 6.399.44 9.549 1.08 1.57.84 5.699-.001 3.429-2.151-6.87-4.97-12.368-11.55-16.298-19.05zm-77.471 27.38c-12.58 15.58-25.84 31.03-34.52 49.26-2.13 5.69-5.181 11.79-3.381 18 2.12 9.71 9.352 17.01 15.452 24.43 23.96 22.32 54.419 39.681 87.439 42.801-.59-13.38 5.999-25.682 10.459-37.942-7.76-6.8-15.539-13.96-19.689-23.66-3.7 1.38-8.911 3.55-10.911-1.42-14.01-24.29-23.899-51.919-44.849-71.469zm122.615 1.383c-1.282.036-2.599.236-3.935.608 1.69 5.82 5.61 10.679 8.41 16.009 3.14-2.73 6.04-5.72 8.91-8.74-2.941-5.135-7.831-8.033-13.385-7.877zm-245.215 99.598c-1.62.68-3.21 1.399-4.76 2.189-.17 3-.381 6.081.639 8.981 2.17 6.09.17 12.87 3.24 18.76 2.42 4.01-1.588 8.789 1.352 12.519 4.67 6.29 1.699 16.4 10.029 20.15.59-.16 1.76-.49 2.34-.66 5.69-3.28.501-8.68-1.619-12.4.78-4.44-.981-7.9-4.041-10.99-.02-6.94-5.55-12.94-3.1-19.93 1.59-4.29-4.13-6.94-3.08-11.16.48-2.56-.12-5.069-1-7.459z" fill="#6b3b38"/>
    <path id="color6" d="m977.16 469.881c-5.73-.1-11.41.699-17.09 1.269-7.11 7.96-5.451 20.579-10.781 30.039 3.93-2.25 6.172-6.368 9.022-9.728 5.77-7.64 12.389-14.54 18.849-21.58zm-69.625 4.139c-.747-.026-1.529.025-2.346.16-.8 1.2-3.378 2.69-1.968 4.31 4.58 5.25 8.19 11.241 11.84 17.151 1.19-4.12 2.249-8.281 3.019-12.491-1.776-5.04-5.314-8.954-10.545-9.13zm-25.125 48.191c-4.22 5.47-7.789 11.409-11.689 17.109 1.99 3.22 3.72 6.62 6.08 9.61.85-7.83 9.33-9 14.41-13.2-.95-4.59-2.722-8.94-4.922-13.07-1.3-.2-2.579-.429-3.879-.449zm9.221 2.43c.64 2.78 1.679 5.459 3.139 7.939 2.42-2 4.65-4.249 6.41-6.859-3.15-.64-6.359-.87-9.549-1.08zm178.539 11.99c-3.37 5.58-4.45 12.879-10.23 16.699-1.53 4.81-2.42 10.57-6.87 13.66-8.31 5.15-18.37 5.72-27.87 6.11-.62 3.33-2.51 6.17-3.81 9.25-.92 4.33.16 8.86-1.02 13.17-2.27 8.36-7.54 15.4-12.53 22.31-5.93 7.86-5.64 18.169-7.14 27.449 2.77 3.43 5.89 7.092 6.28 11.682.69 5.23-3.44 9.789-2.37 15.029.31 4.59 4.48 7.661 5.22 12.061-.37 7.59-4.24 14.41-7.82 20.91 3.21 6.38 7.16 12.42 11.15 18.35 1.88-1.31 3.83-2.511 5.72-3.811.89-4.15 5.95-5.19 9.36-6.66 10.36-4.6 19.02-12.98 30.35-15.41 8.66-1.83 17.61-2.17 26.44-1.7-2.6-2.42-4.87-5.141-7.1-7.871-6.7-8.03-12.87-16.519-18.29-25.459-5.63-9.03-6.69-20-6.69-30.41-.09-17.51 3.17-35.25 11.06-50.98 8.33-13.16 6.36-29.549 6.16-44.379zm-140.1 38.849c-5.32 1.75-10.249 4.421-15.359 6.661 3.05 9.28 6.449 18.579 11.059 27.199l.98.109c7.57-9.97 2.36-22.689 3.32-33.969zm-20.769 8.991c-1.36.49-2.682 1.019-4.012 1.519 2.19 3.15 4.741 6.04 7.461 8.75.89-3.82-1.529-7.209-3.449-10.269zm88.058 133.359c-1.32 10.46-12.059 15.189-17.109 23.619 7.95.63 14.279-6.489 20.86-10.269.25-1.4 1-2.541 2.19-3.321-1.75-3.48-3.741-6.829-5.941-10.029zm87.641 1.561c-15.8 1.29-31.34 6.73-44.28 15.92 2.45 3.43-4.53 5.57-7.15 6.41-2.34.31-5.72.529-6.59 3.189 1.95 3.71 4.75 6.89 7.03 10.41 4.22.5 8.48.159 12.67-.461 12.12-11.48 24.71-22.489 37.53-33.199.2-.57.59-1.699.79-2.269zm35.53.109c-.77 6.03-.92 12.14-.1 18.17h.02c4.4-3.4 8.96-6.61 13.24-10.16-4.38-2.7-8.75-5.4-13.16-8.01zm-188.501 16.279c.96 4.88 1.981 9.741 2.891 14.641 4.38.73 8.859 2.27 10.029 7.1 3.89.37 5.57-2.769 6.49-5.959-1.73-3.25-3.009-6.701-3.589-10.331-5.38-1.51-10.571-3.581-15.821-5.451zm86.131 16.871c-.94.4-1.89.74-2.86 1.02-7.39 1.22 2.4 2.059 5.11 1.609-.76-.89-1.51-1.759-2.25-2.629zm-21.24 29.379c.26 4.37 1.18 8.69 2.31 12.92 5.08-3.29 10.08-6.709 14.85-10.459-5.63-1.4-11.43-1.761-17.16-2.461zm-45.695.303c-.539.001-1.073.1-1.594.348-7.92 3.19-17.821 4.78-21.561 13.55 4.97-3.31 11.18-2.339 16.43-.269-1.38-6.63 4.26-10.521 9.4-13.031-.868-.325-1.777-.599-2.675-.598z" fill="#e7e9ee"/>
    <path id="color7" d="m861.01 472.17c1.22 5.43 3.971 10.35 5.291 15.75-1.72.26-3.441.419-5.141.699 1.23 4.2 3.48 8.012 4.82 12.182 1.35 2.53 1.61 6.608 4.95 7.318 3.44 1.02 7.16.981 10.49 2.451 2.16 3.79 3.139 8.1 4.869 12.09 2.2 4.13 3.972 8.48 4.922 13.07.74 2.65 1.629 5.26 2.529 7.87 3.99 10.16 7.54 20.489 11.67 30.599 1.34 3.4 2.411 6.912 3.891 10.272 1.92 3.06 4.339 6.449 3.449 10.269 4.12 3.76 5.87 9.08 5.58 14.58 3.44 5.54 5.02 11.941 7.58 17.901 1.27 3.25 2.63 7.34.18 10.41-1.72 2.78-5.211 5.569-3.061 9.119 2.7.68 5.371 1.811 7.241 3.971 7.25 7.61 12.521 16.789 18.621 25.289-1.17-12.17-2.661-25.091.089-36.971.12-8.16-12.23-2.718-14.82-9.158-2.94-6.79-5.3-13.821-8.39-20.541-4.61-8.62-8.009-17.919-11.059-27.199-1.02-3.09-2.261-6.101-3.391-9.151-4.26-10.63-8.53-21.251-12.8-31.881-1.21-2.86-2.38-5.749-3.75-8.529-1.46-2.48-2.499-5.159-3.139-7.939-1.45-6.64-8.48-13.531-3.32-20.121 1.29-2.25 3.02-4.19 4.57-6.26-1.46-4-2.802-8.05-3.432-12.27-.81-2.03-1.918-3.97-3.648-5.34-2.38 3.11-4.971 6.38-8.791 7.75-1.44-2.4-2.22-5.099-3.18-7.689-1.08.49-2.1 2.268-3.23.818-3.41-2.89-6.17-6.469-9.59-9.359z" fill="#bcc9c4"/>
    <path id="color8" d="m944.73 479.891c-8.87 1.15-17.73 2.499-26.65 3.259-.77 4.21-1.829 8.371-3.019 12.491 3.19 5.83 3.449 12.53 4.609 18.91 2.11 1.75 4.84 2.588 7.23 3.898 3.2-4.17 7.02-7.728 10.67-11.488 2.68-8.95 4.96-17.99 7.16-27.07zm57.3 25.103c-9.01-.135-18.024 2.287-25.491 7.516-2.9 1.82-3.728 5.27-4.238 8.42 6.58-5.5 15.309-7.63 23.689-8.26 5.17.75 11.87.601 15.08 5.461 1.95 7.44-5.7 12.429-10.32 16.939-4.25-.49-7.839-4.051-12.289-4.461-8.12-.71-16.551-1.02-24.301 1.93-4.18 1.39-8.18 3.26-12.15 5.15-1.73 1.14-3.47 2.291-5.17 3.471-2.87 3.02-5.77 6.01-8.91 8.74-6.11 7.1-8.58 16.33-7.86 25.58-.96 11.28 4.25 23.999-3.32 33.969 7.33 1.38 14.86 1.941 22.24.461 12.69-.95 25.5 3.43 36.44 9.61 6.41 3.6 1.799 12.07 6.109 16.88 2.78 3.22 6.01 6.019 9.161 8.879 1.5-9.28 1.21-19.589 7.14-27.449 4.99-6.91 10.26-13.95 12.53-22.31 1.18-4.31.08-8.84 1.02-13.17 1.3-3.08 3.19-5.92 3.81-9.25 1.11-6.54 9.1-8.2 12.07-13.76 6.85-11.31 8.01-27.341-.55-38.141-8.34-10.349-21.51-16.008-34.69-16.205zm-88.7 25.256c-3.71 5.1-9.1 8.389-14.81 10.859 4.27 10.63 8.54 21.251 12.8 31.881 4.93-3.64 13.029-5.721 13.299-13.041.15-8.82.33-17.678-.08-26.488-3.72-1.14-7.449-2.251-11.209-3.211zm-19.59 13.35c-3.71 5.68-7.44 11.7-6.9 18.8 3.06 6.13 7.841 11.22 12.721 15.95 2.17-1.03 4.309-2.241 5.849-4.151-4.13-10.11-7.68-20.439-11.67-30.599zm134.5 169.24c-3.41 1.47-8.47 2.51-9.36 6.66 1.89 4.31-3.48 7.851-6.78 4.631-3.5-1.49-5.9 2.468-8.8 3.728-1.19.78-1.94 1.921-2.19 3.321 6.33 6.16 8.51 15.62 14.19 22.49.97-.28 1.92-.62 2.86-1.02 1.57-1.43 4.29-2.24 4.44-4.67-.06-5.19 6.54-9.259 10.97-6.259 2.62-.84 9.6-2.98 7.15-6.41-4.47-7.3-8.69-14.791-12.48-22.471zm136.78 31.029c-12.69 8.16-25.04 16.891-38.32 24.061 9.61 4.58 19.85.02 28.12-5.2 3.51-1.95 8.85-5.13 12.3-1.65 1.86 7.27-6.89 10.711-12.04 13.471 27.44 44.43 53.22 89.838 79.45 134.988 17.21-9.55 34.49-19.279 50.02-31.439 4.69-4.38-.48-9.88-2.47-14.25-5.24-8.32-9.46-18.869-19.17-22.799-1.81-2.26-1.69-5.451-2.96-7.981-3.57-5.25-12.31-4.021-14.55-10.531-3.11-9.29-6.39-18.688-12.37-26.578-10.38-13.38-24.37-23.241-38.1-32.881-9.47-7.16-19.88-12.921-29.91-19.211zm-76.99 37.287c-.68-.015-1.36.052-2.06.225-8.2 1.38-16.59 1.389-24.68 3.299-8.59 9.31-18.43 17.29-27.84 25.74-7.72 6.53-14.95 13.72-23.58 19.07 5.73 18.45 15.5 35.289 23.74 52.629 4.49 5.41 10.45 9.6 13.92 15.82 10.66-.28 21.42-.789 32.05.241 10.5 1.13 9.6 14.971 17.2 19.961 5.97 3.8 10.68 9.129 15.54 14.199 6.21 6.23 12.58 12.33 19.5 17.76 3.2 1.29 6.66-.641 9.91-1.061 11.43-3.14 22.68-7.01 33.64-11.51-21.94-35.08-43.85-70.18-65.79-105.25-4.63-7.27-7.52-15.448-10.55-23.468-1.71-3.43 1.77-5.821 4.22-7.481-3.9.06-7.94-.411-11.33-2.471-1.43-5.38 4.01-9.349 4.26-14.629-2.54-1.381-5.24-3.006-8.15-3.074zm-161.469 15.924c-13.75 3.18-26.471 9.529-39.161 15.529-8.22 4.52-16.75 9.031-23.38 15.791 13.15-3.33 23.84 6.76 32.74 14.84 25.75 24.89 49.861 51.42 74.701 77.16 3.08 2.54 6.41 8.449 10.85 4.629-3.66-4.98-6.422-10.84-6.772-17.08-2.39-15.46-4.638-30.959-8.318-46.179-3.2-15.25-7.041-30.6-14.391-44.44-8.99-6.48-16.149-15.29-26.269-20.25z" fill="#313738"/>
    <path id="color9" d="m856.619 514.02c.33 27.92 8.561 55.09 19.701 80.47 2.27 6.08-5.58 8.359-9.72 10.299 4.15 9.7 11.929 16.86 19.689 23.66 2.32-.17 4.541.572 6.701 1.362 9.15 1.79 19.239-2.232 23.129-11.032 1.11-3.06 1.761-6.249 2.211-9.459.29-5.5-1.46-10.82-5.58-14.58-2.72-2.71-5.271-5.6-7.461-8.75-1.97-2.51-3.978-4.98-5.728-7.64-4.88-4.73-9.661-9.82-12.721-15.95-4.3-3.74-6.489-9.11-10.039-13.47-2.36-2.99-4.09-6.39-6.08-9.61-5.95-7.71-8.282-17.57-14.102-25.3zm221.771 181.519c-6.65-.017-13.31.518-19.8 1.891-11.33 2.43-19.99 10.81-30.35 15.41 3.79 7.68 8.01 15.171 12.48 22.471 12.94-9.19 28.48-14.63 44.28-15.92.4-6.14.41-12.332 1.18-18.452.12-1.67.3-3.318.5-4.968-.42-.06-1.24-.181-1.65-.241-2.21-.117-4.42-.185-6.64-.191zm-59.51 23.961c-1.89 1.3-3.84 2.501-5.72 3.811l-1.06.82c3.3 3.22 8.67-.321 6.78-4.631zm122.96 3.701c-.22.008-.45.03-.68.069-2.78.85-5.12 2.65-7.49 4.24-4.28 3.55-8.84 6.76-13.24 10.16.06 5.01 1.92 9.99 1.23 14.98-1.97 1.88-4.69 2.63-7.1 3.77-4.13 2.35-8.39 4.43-12.6 6.59-2.85 1.73-5.66 3.59-8.83 4.67-4.42-7.26-4.74-16.02-6.58-24.11-4.49 1.48-8.18 4.57-12.56 6.26-8.85 2.82-18.13 3.849-27.31 5.029-4.19.62-8.45.961-12.67.461-4.53.44-9.09.609-13.6-.041-2.71.45-12.5-.389-5.11-1.609-5.68-6.87-7.86-16.33-14.19-22.49-6.581 3.78-12.91 10.899-20.86 10.269-.88.74-1.69 1.552-2.4 2.442-1.61 11.06-19.331 16.81-26.411 7.67-.92 3.19-2.6 6.329-6.49 5.959-1.17-4.83-5.649-6.37-10.029-7.1-7.48-.4-15.07-2.429-22.51-.949-4.65 3.64-4.911 10.298-7.791 15.148-3.15 4.43-8.219 7.221-10.849 12.061-2.35 4.48-4.001 9.31-4.821 14.3-.84 5.83-6.319 9.54-7.629 15.17-.09 3.35 3.92 4.619 6.08 6.459 12.69-6 25.411-12.349 39.161-15.529.38-.21 1.139-.63 1.509-.85 3.74-8.77 13.641-10.36 21.561-13.55 1.39-.66 2.879-.27 4.269.25 4.19.24 9.589.111 10.969 5.131 11.36 25.71 24.57 51.35 44.661 71.41 8.18 7.35 14.9 16.568 24.08 22.648-8.24-17.34-18.01-34.179-23.74-52.629-4.93-11.02-7.91-22.821-10.64-34.541-1.13-4.23-2.05-8.55-2.31-12.92 5.73.7 11.53 1.061 17.16 2.461 15.6 1.86 31.56.62 47.21.19 8.09-1.91 16.48-1.919 24.68-3.299 3.72-.92 7.08 1.149 10.21 2.849 2.39-3.99 7.14-5.091 11.04-7.031 6.61-2.85 12.86-6.439 19.48-9.269 13.28-7.17 25.63-15.901 38.32-24.061-5.14-5.18-9.26-11.349-15.12-15.789-2.47-1.828-4.76-5-8.06-4.879zm12 51.254c-1.24-.043-2.47.102-3.57.725-16.2 7.74-31.76 16.73-47.02 26.15-2.45 1.66-5.93 4.051-4.22 7.481 3.03 8.02 5.92 16.198 10.55 23.468 21.94 35.07 43.85 70.17 65.79 105.25 11.17 16.07 21.04 33.061 31.73 49.471 5.84 7.92 10.09 17.12 16.86 24.28 15.69-3.53 30.58-10.32 45.04-17.27 3.21-2.2 10.29-4.611 7.48-9.571-3.45-6.84-7.48-13.358-11.16-20.058-9.94-18.46-21.41-36.122-30.79-54.842-26.23-45.15-52.01-90.558-79.45-134.988-.41-.045-.83-.082-1.24-.096zm-90.27 123.113c-5.35.034-10.71.231-16.04.371 11.81 23.33 20.69 48.031 32.26 71.491 13.21-9.99 24.42-22.63 32.53-37.09-4.86-5.07-9.57-10.399-15.54-14.199-7.6-4.99-6.7-18.831-17.2-19.961-5.31-.515-10.66-.645-16.01-.612zm-92.109 22.832c-8.03 4.9-17.51 7.141-25.66 11.981 3.63 6.25 8.91 13.628 6.59 20.988-17.84 8.59-34.082 20.14-49.442 32.58 4.19 6.04 7.752 12.902 13.602 17.521 5.67 2.54 8.769-4.871 11.379-8.611 6.41-10 13.81-20.459 24.66-25.879.72 8.5.19 17.54 3.93 25.44 1.7 3.49 6.15 1.349 8.23-.641 9.47-8.84 17.96-18.77 28.27-26.67 4.05-2.64 9.28-.769 12.26 2.621 11.99 11.5 13.62 29.571 11.79 45.23.22 11.88-3.01 25.79 5.15 35.81 8.4 7.34 21.71 10.05 31.64 4.14 5.1-2.93 8.36-8.07 10.91-13.2-27.79-38.67-56.53-76.741-82.459-116.681-4.44 3.82-7.77-2.089-10.85-4.629z" fill="#5e4b42"/>
    <path id="color10" d="m917.561 618.75c-.36.01-1.082.019-1.442.029-3.89 8.8-13.979 12.822-23.129 11.032 4.61 6.25 8.329 13.109 12.539 19.619 5.86.46 12.63 1.46 17.5-2.68-2.15-3.55 1.341-6.339 3.061-9.119-3.05-6.2-5.539-12.671-8.529-18.881zm42.548 122.109c-4.07.52-8.179.651-12.259.371.58 3.63 1.859 7.081 3.589 10.331 7.08 9.14 24.801 3.39 26.411-7.67-6.04 3.27-12.161-.832-17.741-3.032z" fill="#fcfbfc"/>
    <path id="color11" d="m1101.39 663.256c-2.61-.175-4.39 2.441-5.75 4.353-3.14 5.41-4.92 11.48-6.49 17.5-.85 3.61-1.67 7.232-2.47 10.862-.2 1.65-.38 3.298-.5 4.968 4.93-1.69 10.67-.389 15.07-3.679 6.13-3.52 9.7-9.72 14.03-15 4.91.69 10.2 2.091 13.99 5.461 2.96 5.63-3.61 9.48-4.44 14.66 5.06-6.17 9.63-13.051 12.69-20.401-1.45-3.03-5.52-4.42-8.18-6.5-8.7-4.91-17.55-10.07-27.42-12.15-.18-.037-.36-.062-.53-.074zm4.23 83.254c-.29.021-.59.077-.9.17-2.48 5.05-3.05 10.77-2.76 16.33 4.21-2.16 8.47-4.24 12.6-6.59-2.77-2.925-4.6-10.236-8.94-9.91zm57.83 13.017c-2.94-.06-6.22 1.863-8.63 3.203-8.27 5.22-18.51 9.78-28.12 5.2-6.62 2.83-12.87 6.419-19.48 9.269-3.9 1.94-8.65 3.041-11.04 7.031-.25 5.28-5.69 9.249-4.26 14.629 3.39 2.06 7.43 2.531 11.33 2.471 15.26-9.42 30.82-18.41 47.02-26.15 1.47-.83 3.16-.809 4.81-.629 5.15-2.76 13.9-6.201 12.04-13.471-1.08-1.087-2.34-1.525-3.67-1.553z" fill="#8f764e"/>
    <path id="color12" d="m1115.26 682.26c-4.33 5.28-7.9 11.48-14.03 15-4.4 3.29-10.14 1.989-15.07 3.679-.77 6.12-.78 12.312-1.18 18.452-.2.57-.59 1.699-.79 2.269 1.51 7.24 1 14.67 2.34 21.91 1.84 8.09 2.16 16.85 6.58 24.11 3.17-1.08 5.98-2.94 8.83-4.67-.29-5.56.28-11.28 2.76-16.33 5-1.49 6.88 6.62 9.84 9.74 2.41-1.14 5.13-1.89 7.1-3.77.69-4.99-1.13-9.97-1.23-14.98-.8-6.03-.65-12.14.1-18.17.41-5.92 1.81-11.739 4.32-17.119.83-5.18 7.4-9.03 4.44-14.66-3.79-3.37-9.08-4.771-13.99-5.461z" fill="#7d5a79"/>
    <path id="color13" d="m818.33 857.48c-22.67 16.23-45.279 32.949-64.769 53.049-13.34 14.3-22.751 31.711-35.821 46.211-9.99 9.52-20.98 19.429-24.81 33.209-2.1 10.231.99 20.971 6.34 29.741 11.16 17.43 33.85 25.13 53.74 21.28 10.55-1.75 20.221-6.52 30.381-9.64 4.52-1.36 7.76-5.13 12.17-6.74 19.53-6.12 40.619-1.49 60.099-7.87 18.36-5.63 32.349-19.421 47.289-30.771 15.36-12.44 31.602-23.99 49.442-32.58 2.32-7.36-2.96-14.738-6.59-20.988-8.5 3.85-16.371 9.3-25.151 12.33-11.61-18.26-23-36.792-36.91-53.432-11.78-14.66-28.551-24.569-46.131-30.689-6.18-2.34-12.749-2.8-19.279-3.11zm497.83 63.2c-6.12 23.54-29.74 35.941-50.84 43.701 3.68 6.7 7.71 13.218 11.16 20.058 2.81 4.96-4.27 7.371-7.48 9.571-14.46 6.95-29.35 13.74-45.04 17.27-6.77-7.16-11.02-16.36-16.86-24.28-6.26 1.34-12.88 2.291-19.08.141 31.7 38.289 74.33 64.719 114.61 92.859h126.85c-10.79-5.96-22.25-11.66-30.15-21.44-7.41-9.18-10.49-20.83-15.71-31.22-11.43-23.59-24.12-46.591-38.15-68.731-8.75-13.35-17.37-27.169-29.31-37.929z" fill="#c79189"/>
  </g>
</svg>
