<svg height="1080" width="1920" xmlns="http://www.w3.org/2000/svg">
  <path id="background" d="m0 0h1920v1080h-1920z" fill="#7a85bd"/>
  <g id="transform" transform="translate(0,0) scale(1.00)">
    <path id="color1" d="m634.062 113.244c-2.699-.018-5.397.045-8.072.125-10.58 1.05-21.26.9-31.65 3.41-13.02 5.38-28.871 4.94-39.641 15.01-10.5 7.51-21.538 15.582-27.558 27.342-4.9 5.63-7.01 12.96-10.83 19.26 1.35.03 2.688-.031 4.058-.071 3.91-1.01 7.081 1.06 9.801 3.59 4.84.91 9.999-.721 14.689 1.279 13.03-15.12 29.921-26.978 47.141-37.128 27.63-15.17 60.631-14.311 90.721-8.721 15.33 4.16 28.339 13.881 40.379 23.881-2.84-8.5-11.181-13.061-16.241-20.071-14.87-10.63-32.13-17.26-49.08-23.83-7.515-3.24-15.619-4.022-23.717-4.076zm37.188 36.82c-8.09-.022-16.23.465-24.26.225-16.32 2.35-33.39 3.651-48.25 11.461-16.23 6.91-31.401 16.63-43.791 29.24-2.71 2.34-1.009 6.22-1.189 9.27 3.61 24.43 2.259 49.169-1.231 73.519-2.73-5.26-5.199-10.849-9.619-14.939 1.81 22.35.76 44.9.68 67.32-5.11-4.25-8.689-10.291-14.789-13.381-1.99 4.23-2.281 10.03-6.031 13-7.7-1.05-12.94-9.3-20.75-10.49 1.86 6.22-3.749 3.431-6.389 1.041-3.74-2.29-7.311-4.85-11.281-6.73-7.09-2.31-5.93-11.15-8.5-16.83-3.19 4.61-6.84 8.93-11.09 12.57-3.83 9.71-10.23 18.83-19.59 23.84-8.11 7.86-15.461 16.529-23.631 24.359-6.97 5.36-12.34 12.431-17.93 19.141-4.93 9.73-12.04 19.019-12.17 30.429 5.6-7.4 7.811-16.779 13.541-24.109 6.49-11.41 17.679-18.83 26.309-28.41 4.36-6.35 10.381-11.31 16.531-15.83 3.43-2.51 6.21-6.13 10.45-7.33-.18 4.15-1.48 8.299-5.43 10.269-3.56 6.57-6.721 13.391-9.801 20.211-3.9 7.89-9.99 15.12-11.09 24.09-6.97 10.41-10.94 22.831-14 34.961-3.02 9.9-.628 20.28-2.308 30.35-.26 2.33-1.111 5.629 1.789 6.599 3.82-12.47 5.64-25.559 10.8-37.609 1.84-3.43 2.281-9.54 7.081-9.75-.04 7.94-3.911 15.399-3.061 23.449-.91 10.29 3.131 19.961 4.131 30.051 1 6.03 5.78 10.75 6.09 17 .89 3.09 1.389 7.98 5.029 8.83.57-8.28-.04-16.591.23-24.881 1.97-15.95 5.38-31.77 11.28-46.76 1.11-5.11 4.79-9.219 5.24-14.519.7.02 2.089.079 2.779.109 3 6.45.721 13.591-.629 20.141-.22 15-.051 30.019-.111 45.019-.69 8.78.56 18.031 4.33 25.971 2.83-7.87-.699-16.011.061-23.981-.29-2.03 3.269-3.71 3.439-1.08 1.22 7.32 6.451 12.799 9.981 19.039 1.24 1.78 2.211 4.25 4.531 4.85 1.78-1.86.188-4.209-.192-6.289-3.52-20.7-8.079-42.329-2.109-63.039 4.6-11.16 9.449-22.431 11.459-34.461-.13-2.6 2.49-3.211 4.5-3.561.71 6.11-3 11.74-1.93 17.92 6.49-5.61 11.781-13.869 20.801-15.429 8.56-1.84 17.51-4.72 26.18-1.76.25-4.2.75-8.431.24-12.631-1.9-.3-3.831-.369-5.721-.639-.15-6.3-.519-12.589-1.039-18.839 5.15-5.65 5.36-13.43 7.91-20.26 1.02-3.46 4.97-2.871 7.76-3.371.71-2.71-1.019-7.879 3.481-6.719 3.96-1.19 3.09 2.928 3.67 5.478 5.17.61 8.74 4.561 11.83 8.381 1.86 3.62.89 8.189 3.42 11.539 4.29 5.89 5.17 13.601 4.07 20.651-1.96.7-5.581.021-4.731 3.211.69 5.74.13 11.909 2.09 17.359 4.63-3.91 11.1-2.559 15.44 1.061 1.95 8.51-3.541 16.239-3.721 24.599-.18 2.55-.329 5.971-3.629 6.311.95 3.94 4.419 6.529 6.379 9.949 4.17 5.8 6.181 12.78 10.201 18.67 1.45 1.96 1.13 4.52 1.43 6.81.05.28.14.839.18 1.129 1.82 8.76-.75 17.51-1.25 26.25 3.32-7.81 2.659-16.5 5.099-24.49 4.72 15.99 8.962 32.791 6.762 49.541 4.65-10.55 6.169-22.06 7.709-33.39.3-3.15.651-6.29 1.041-9.43.03-.35.079-1.07.109-1.42l.01-.449c-.6-7.61-1.05-15.231-2.06-22.801 1.3.77 2.67 1.619 3.24 3.119 1.43 2.51 2.359 5.27 3.019 8.08.42.92.831 1.851 1.241 2.801 1.26 3.88 1.59 7.99 2.71 11.91 1.69-4.56.62 2.13.93 3.66.61 2.53 1.059 5.1 1.459 7.68.1-2.39.141-4.78.291-7.17-.08-.99.441-1.55 1.561-1.66-1.57-5.49-3.722-11.05-3.192-16.85-.41-1.2-.859-2.39-1.279-3.57-3.55-10.19-8.34-19.89-12.16-29.9-5.3-6.7-8.789-14.559-12.619-22.139-5.95-9.71-11.841-19.472-17.801-29.182-2.17-5.14 2.309-12.89-3.721-16.16-7.5-4.79-9.109-14.239-12.099-21.969-7.9-20.56-10.099-42.931-9.469-64.791 2.37 6.57 3.988 13.481 7.318 19.701 2.7-15.3 3.9-31.051 9.41-45.691-.08 16.82-1.479 33.761-.529 50.641 10.67-20.21 16.251-42.821 22.561-64.641-.11 22.64-3.801 45.281-8.661 67.371 5.59-12.98 10.209-26.339 14.809-39.699 1.22-3.65 1.372-7.851 4.092-10.811-2.82 14.1-5.301 28.3-6.961 42.59 3.23-.07 7.471-.779 7.971-4.679 3.04-12.67 6.589-25.41 7.009-38.5l.821.048c-.12 14.15-.981 28.37-1.801 42.51 2.73-.04 5.471-.018 8.211.022 1.57-12.81 3.989-25.571 3.609-38.541-.86-3.09 2.19.2 2.02 1.16.69 12.13-.451 24.269-.641 36.359 4.2-14.62 3.242-30.329 4.602-45.449l.808-.02c1.48 13.89 2.44 27.829 2.51 41.789 3.51-.25 7.071-.769 10.381-2.029.65-11.93-.17-23.931.35-35.871 3.05 10.74 2.86 24.281 4.38 36.141 2.8.84 2.839-2.171 3.139-4.151 1.18-14.46-.428-28.918-1.578-43.318 6.74 15.23 7.389 32.41 9.379 48.67 2.95-18.41 2.46-37.032 2.75-55.592 6.26 20.85 10.999 42.581 11.269 64.481 5.38-19.29 5.05-39.539 5.67-59.389 5.04 19.65 6.682 40.749 7.282 61.219 2.94-9.67 5.178-19.62 5.548-29.76.16-3.18-.52-6.61 1.17-9.5 5.28 12.35 10.592 26.129 8.522 39.779-5.5 13.01-11.261 26.042-13.951 40.022-5.51 18.44-22.5 30.429-39.2 38.109-3.28 4.5-2.54 10.85-3.58 16.18 6.62 2.85 10.23 9.721 16.78 12.621.16-5.81-.061-11.622.179-17.432-.9-2.27 3.282-1.33 3.112.24 1.49 7.35.539 18.52 10.429 19.76 6.76 1.2 13.681 1.62 20.311 3.49 2.33 12.41 2.38 25.401-.5 37.731-.38 2.08-.752 4.169-1.092 6.269.31.42.942 1.26 1.262 1.68.96-1.98 1.938-3.958 2.808-5.988.72-3.24 1.602-6.441 2.522-9.631 1.08-7.99 1.218-16.089 2.558-24.039 2.85 5.44 2.721 11.77 3.911 17.67 1.17 5.83 2.039 11.899.599 17.769.35 2.75.422 5.541.102 8.311 1.77 1.85.259 4.339-.051 6.459.73 4.66.5 9.4-.6 13.99-.01 2.1.079 4.201.209 6.311 1.73-8.34 3.692-16.642 4.782-25.102.48-.01 1.449-.039 1.929-.049.36 6.28.26 12.579.1 18.869.22 4.83-.581 9.611-1.981 14.221 7.11-11.47 13.091-24.069 15.211-37.519 2.87-13.45 1.021-27.361-.939-40.801-.94-2.52-1.021-5.22-.611-7.85 4.46-1.14 3.921 4.09 4.531 6.99 2.25 7.11 2.62 14.661 5.01 21.731.39-2.08.708-4.171.798-6.281-.33-3.72-.489-7.46-.099-11.18 3.01 1.09 5.23 3.49 7.41 5.73.95.98 1.88 1.979 2.77 3.039 2.58 2.19 5.17 8.961 7.75 8.221-.41-10.72-1.37-21.559-4.18-31.939-.88-4.53-5.189-7.681-5.279-12.401 4.45-.54 6.77 3.819 9.24 6.709 4.99 5.89 6.988 13.48 11.058 19.92 3.16 4.96 3.642 11.292 7.772 15.692.23-10.3-.341-20.942-3.871-30.702-5.64-12.86-12.081-25.44-20.221-36.9-5.33-10.3-11.41-21.229-9.93-33.289 3.16-14.06 5.821-28.45 5.041-42.98.04-2.33-.49-7.299 3.28-6.209 3.19 8.66-.74 19.4 4.59 27.24 1.21-13.9-.881-27.772-.581-41.602 6.04 3.09 5.321 10.921 7.161 16.541-.28 8.26 1.58 17.12 2.9 24.69 1.52-5.49 1.75-12.59.73-18.68.53-23.14-3.19-47.21-15.91-66.99-.94-1.65-1.13-3.57-1.25-5.42 5.58-.95 6.42 6.099 9.85 9.019 4.55 3.86 3.45 10.461 7.17 14.871 3.76 5.1 5.05 11.59 9.15 16.45-.02-11.06-7.441-20.34-10.121-30.85-4.85-9.11-8.678-18.82-14.488-27.4-7.34-3.95-11.791-11.42-18.311-16.45-2.46-1.76-4.49-3.99-6.16-6.49-2.35.56-4.151-1.081-5.881-2.371-9.09-7.05-19.808-11.609-30.568-15.469-7.83-2.28-15.871-2.813-23.961-2.836z" fill="#bd5c85"/>
    <path id="color2" d="m645.162 133.627c-18.458.07-36.757 3.426-53.162 12.434-17.22 10.15-34.111 22.008-47.141 37.128 4.19 4.96 6.871 10.961 8.901 17.071.18-3.05-1.521-6.93 1.189-9.27 12.39-12.61 27.561-22.33 43.791-29.24 14.86-7.81 31.93-9.111 48.25-11.461 16.06.48 32.561-1.949 48.221 2.611 10.76 3.86 21.478 8.419 30.568 15.469 1.73 1.29 3.531 2.931 5.881 2.371-2.33-3.62-5.55-6.499-8.56-9.519-12.04-10-25.049-19.721-40.379-23.881-12.224-2.271-24.929-3.761-37.559-3.713zm108.338 283.023c-2.27 2.03-4.751 3.81-7.311 5.45-.09 2.11-.408 4.201-.798 6.281-.26 2.23-1.201 4.288-1.901 6.398 1.876 1.965 3.057 4.311 3.133 6.942.035-.997.078-1.992.367-2.951 7.67 4.87 13.85 12.59 22.99 14.73 4.05-.57 8.089-1.361 12.209-1.061-.47-1-.93-1.988-1.4-2.978-12.84-.24-26.479-4.321-33.469-15.971 2.67-5.1 1.45-13.221 8.95-13.801-.89-1.06-1.82-2.059-2.77-3.039zm-6.877 25.071c-.022.624-.04 1.249-.113 1.869.109-.64.131-1.26.113-1.869zm-192.094 537.959c-1.03 33.44-.1 66.93 1.66 100.32h100.491c6.34-27.49 11.869-55.18 16.519-82.99-31.55 8.08-65.41 8.33-96.59-1.58-8.68-2.84-17.91-7.05-22.08-15.75zm256.782 18.17c-21.96 10.88-47.251 12.4-71.301 10.31-13.13-.8-26.46-2.77-38.43-8.519-3.51 26.669-5.301 53.509-6.471 80.359h96.791c3.29-18.66 6.989-37.25 11.709-55.6 3.07-8.7 5.682-17.54 7.702-26.55z" fill="#49204c"/>
    <path id="color3" d="m522.494 178.059c-.683-.01-1.392.072-2.125.261-16.7 5.3-30.879 16.24-42.719 28.91 7.63 6.41 17 13.081 18.51 23.741-8.07 10.88-16.199 21.869-24.019 33.009-4.93 8.4-11.77 16.589-12.01 26.799 4.97-2.25 14.449-6.359 15.719 1.991 2.57 5.68 1.41 14.52 8.5 16.83 3.97 1.88 7.541 4.44 11.281 6.73 2.1-.46 4.209-1.091 6.389-1.041 7.81 1.19 13.05 9.44 20.75 10.49 3.75-2.97 4.041-8.77 6.031-13 6.1 3.09 9.679 9.131 14.789 13.381.08-22.42 1.13-44.97-.68-67.32 4.42 4.09 6.889 9.679 9.619 14.939 3.49-24.35 4.841-49.089 1.231-73.519-2.03-6.11-4.711-12.111-8.901-17.071-4.69-2-9.849-.369-14.689-1.279-2.21-2.055-4.716-3.808-7.676-3.851z" fill="#cbf2b9"/>
    <path id="color4" d="m672.09 221.539c-.29 18.56.2 37.182-2.75 55.592-1.99-16.26-2.639-33.44-9.379-48.67 1.15 14.4 2.758 28.858 1.578 43.318-.3 1.98-.339 4.991-3.139 4.151-1.52-11.86-1.33-25.401-4.38-36.141-.52 11.94.3 23.941-.35 35.871-3.31 1.26-6.871 1.779-10.381 2.029-.07-13.96-1.03-27.899-2.51-41.789l-.808.02c-1.36 15.12-.402 30.829-4.602 45.449.19-12.09 1.331-24.229.641-36.359.17-.96-2.88-4.25-2.02-1.16.38 12.97-2.039 25.731-3.609 38.541-2.74-.04-5.481-.062-8.211-.022.82-14.14 1.681-28.36 1.801-42.51l-.821-.048c-.42 13.09-3.969 25.83-7.009 38.5-.5 3.9-4.741 4.609-7.971 4.679 1.66-14.29 4.141-28.49 6.961-42.59-2.72 2.96-2.872 7.161-4.092 10.811-4.6 13.36-9.219 26.719-14.809 39.699 4.86-22.09 8.551-44.731 8.661-67.371-6.31 21.82-11.891 44.431-22.561 64.641-.95-16.88.449-33.821.529-50.641-5.51 14.64-6.71 30.391-9.41 45.691-3.33-6.22-4.948-13.131-7.318-19.701-.63 21.86 1.569 44.231 9.469 64.791 2.99 7.73 4.599 17.179 12.099 21.969 6.03 3.27 1.551 11.02 3.721 16.16 5.96 9.71 11.851 19.472 17.801 29.182 3.83 7.58 7.319 15.439 12.619 22.139 3.34 4.7 7.79 8.349 11.81 12.419 6.32-4.79 13.14-9.119 20.68-11.669 5.22-1.79 10.501.531 15.561 1.781.58-.17 1.75-.5 2.33-.67-4.35-10.09-12.041-18.45-18.301-27.42-1.55-3.04.44-6.431.9-9.531 1.04-5.33.3-11.68 3.58-16.18 16.7-7.68 33.69-19.669 39.2-38.109 2.69-13.98 8.451-27.012 13.951-40.022 2.07-13.65-3.242-27.429-8.522-39.779-1.69 2.89-1.01 6.32-1.17 9.5-.37 10.14-2.608 20.09-5.548 29.76-.6-20.47-2.242-41.569-7.282-61.219-.62 19.85-.29 40.099-5.67 59.389-.27-21.9-5.009-43.631-11.269-64.481zm258.039 75.117c-.329.009-.658.028-.988.055-6.97 5.67-15.221 9.519-22.141 15.279-2.94 2.73-7.03 3.031-10.58 4.471-8.13 3.69-15.05 9.46-22.5 14.25-2.47-.46-4.39-2.98-3.52-5.49 1.71-7.23 4.83-15.11 1.95-22.41-2.92-4.15-8.46.239-9.6 3.859-7.15 17.87-18.549 33.88-23.369 52.67-4.36 12.11-.991 25.031-1.471 37.541.27 4.8-.401 9.67.529 14.42 14.02 3.8 28.791 3.848 43.221 3.478-.38-5.64-1.791-11.199-1.551-16.879 8.32-11.59 23.142-16.759 32.022-27.849 3.38-8.13 5.199-16.882 7.529-25.362 1.82-6.11-4.89-8.869-8.99-11.459-.41-3.89-1.901-8.191-1.381-11.861 9.82-8.14 21.43-14.069 33-19.379.69-.62 1.381-1.269 2.061-1.939-4.575-1.669-9.291-3.524-14.221-3.395zm-343.008 88.313c-2.397-.053-4.775.65-6.801 2.361-4.55 6.57-1.65 14.859-2.83 22.209-6.99 2.98-15.31 3.242-22.25.012-2.25-1.27-7.609.599-7.019-3.151 3.6.34 7.2 1.291 10.84.741.31-5.22.68-10.571-.25-15.731-3.28-2.64-7.231-4.89-11.561-4.89-5.7-.01-12.551-3.45-17.221 1.5-5.71 6.27 6.161 12.75 1.381 19.32-3.05 3.77-3.861 8.6-5.131 13.14.34 1.21.691 2.431 1.051 3.651.92 2.06 2.09 3.989 3.32 5.889.11.45.33 1.341.44 1.791-.15 2.14-.41 4.27-.58 6.41.33 4.96 2.519 9.429 4.099 14.049.59 4.6-.288 9.299.442 13.919.58 8.28 5.769 15.311 11.179 21.231 3.27-1.4 5.129 2.261 7.629 3.641 5.5 4.45 16.31-.77 14.43-8.17-3.58-.18-7.23.208-10.75-.532-2.29-3.02-3.939-7.05-3.209-10.92 10.07.13 20.85-1.299 28.51-8.509 2.27-3.65 7.92-8.81 3.15-12.76-2.79-1.51.33-3.329 1.19-4.959-.54-3.3-.341-6.651-.731-9.951-.94-2.44-4.009-3.81-3.769-6.75.4-.45 1.19-1.371 1.59-1.821 3.76-1.02 1.95-5.618 4.14-7.388 3.3-.34 3.449-3.761 3.629-6.311.18-8.36 5.671-16.089 3.721-24.599-2.441-2.037-5.556-3.355-8.639-3.422zm-16.291 5.783c-.261-.012-.531-.007-.81.018-2.73 4.39-.791 10.481-1.161 15.531 9.407 2.325 10.067-15.172 1.971-15.549zm-17.869 512.969c-.51 8.36-.151 16.758-.121 25.138.42 16.95.639 33.901 1.689 50.821 4.17 8.7 13.4 12.91 22.08 15.75 31.18 9.91 65.04 9.66 96.59 1.58 5.05-13.29 5.22-27.979 7.33-41.959-.11-.75-.329-2.25-.429-3-8.5-1.31-17.471-2.362-24.741-7.362-1.71-1.15-3.119-3.039-5.359-3.019-.31 3.21-.091 6.47-.721 9.66-5.87.91-11.448-1.809-16.818-3.779-5.23-1.21-11.041-2.181-15.041-6.041-.78-3.66 3.149-6.17 4.019-9.52-10.32-.73-20.959.72-31.009-2.39-7.27-3.14-13.21-8.821-17.61-15.321-5.21-5.54-12.689-8.488-19.859-10.558zm173.049 40.049c-8.99 2.37-18.33 3.169-27.35 5.599.65 16.76-.03 33.682 2.92 50.272 11.97 5.749 25.3 7.719 38.43 8.519 24.05 2.09 49.341.57 71.301-10.31 3.29-15.65 4.978-31.661 7.478-47.481-5 1.51-10.029 3.291-15.309 3.371-.27-2.59-.181-5.199-.451-7.769-11.38-2.83-20.769 5.729-31.959 5.679-15.31-1.46-29.21 7.991-44.64 5.911-.48-4.59.14-9.211-.42-13.791z" fill="#fff2df"/>
    <path id="color5" d="m1052.17 223.014c-27.7.051-55.401 2.34-82.779 6.496-19.6 4.03-39.242 8.01-58.532 13.32-5.84 1.31-12.019 7.699-8.609 13.869 6.08 14.75 19.6 25.092 33.25 32.522 12.99-2.74 26.1-5.862 39.5-4.942 30.21-1.05 59.68 6.431 88.94 12.981 18.25 4.78 36.39 10.589 52.83 20.029 9.27 4.08 17.01 10.731 23.82 18.111 10.45 8.02 20.21 16.869 29.33 26.379 11.5.91 23.14 1.971 34.65.621 4.99-.78 11.63-5.91 8.53-11.48-20-38.3-47.19-72.84-79.51-101.5-3.64-3.07-7.08-6.67-11.69-8.25-13.33-4.81-26.63-9.721-40.15-13.981-5.75-1.92-11.55-4.158-17.71-4.058-3.96-.085-7.91-.125-11.87-.117zm-70.5 80.756c7.86 7.14 17.811 11.4 27.47 15.48 1.49-7.74 10.11-4.111 15.65-5.461-14.24-3.9-28.68-7.239-43.12-10.019zm57.61 18.058c-4.79-.088-9.51 1.117-14.26 1.572 1.2 1.01 2.49 1.961 4.01 2.481 1.81.45 3.61.959 5.43 1.469 2.69-1.22 5.41-2.701 6.88-5.401-.69-.071-1.37-.108-2.06-.121zm17 1.065c-1.65.064-3.28.395-4.85.927-.49 2.41-1 4.811-1.46 7.231 18.18 3.16 36.27 7.899 54.69 9.129-14.64-7.88-31.27-11.26-46.72-17.26-.56-.04-1.11-.049-1.66-.027zm-517.13 59.003c-6.036.013-12.105 1.769-17.99 3.034-9.02 1.56-14.311 9.819-20.801 15.429-6.06 6.54-8.47 16.101-6.67 24.791.74 2.06-.459 3.821-1.179 5.651.98 4.41 3.519 8.479 3.429 13.119-1.26 2.69-4.249 4.751-3.839 8.051-.27 3.49 3.23 5.338 4.5 8.148-.81 7.66-4.269 15.53-1.879 23.24 3.74 7.88 9.779 14.661 16.859 19.731 8.16 6.26 15.721 13.331 24.381 18.961 3.02 2.56 7.54 3.8 9.09 7.76 3.16 8.1 6.599 16.09 9.859 24.15 3.57 10.74 8.119 21.229 14.539 30.609 7.38 10.41 15.8 20.329 20.91 32.129 1.56 3.29-1.85 5.751-3.07 8.481-.79 4.89 3.141 8.509 4.611 12.769-.21 6.66-.259 13.53-1.939 20-8.47 15.21-18.312 30.69-19.352 48.59 7.07 5.51 15.351 9.141 23.741 12.141 25.24 8.69 51.93 13.41 78.65 13.32 24.25.05 48.71-.26 72.65-4.35-1.8-16.44-5.65-32.571-9.83-48.541-2.9-18.15-3.499-36.658-2.179-54.978-8.08-9.78-15.382-20.231-22.272-30.891-5.6 8.54-7.319 19.169-11.119 28.619-2.93-1.53-3.999-4.879-5.449-7.609-6.77-13.43-9.231-28.419-12.041-43.029-1.15-5.98-.021-12.041.859-17.961 2.59-14.02 6.07-27.88 10.32-41.49 1.19-3.49 1.51-7.21.84-10.84-9.08 10.44-15.93 22.8-22.59 34.91-.71-3.67-.879-7.41-1.259-11.11-1.36.94-2.651 1.97-3.981 2.95 5.44-13.53 16.611-23.53 24.291-35.61-14.48-.74-28.709-3.44-42.779-6.74-8.52-2.38-15.481-8.14-23.541-11.56-1.54 11.33-3.059 22.84-7.709 33.39 2.2-16.75-2.042-33.551-6.762-49.541-2.44 7.99-1.779 16.68-5.099 24.49.5-8.74 3.07-17.49 1.25-26.25.42 3.05-.339 6.161-3.639 7.041-4.94-4.82-8.581-10.81-12.201-16.64-2.31-2.93-.29-6.679-1.09-9.959-1.4-3.3-4.28-5.601-6.99-7.791-.24 2.94 2.829 4.31 3.769 6.75.39 3.3.191 6.651.731 9.951 6.56 11.18 4.219 24.939 4.179 37.309-3.02 8.84-8.19 16.751-13.25 24.541-3.15 4.71-8.089 9.119-14.099 8.919-7.92-.29-15.95-2.97-21.94-8.25-8.27-6.66-16.53-13.36-24-20.91-1.51-1.94-5.569-1.01-5.519-4.06-1.11-14.25-.711-28.721 2.299-42.721 1.51-7.56 5.729-14.429 11.429-19.559 1.27-4.54 2.081-9.37 5.131-13.14 4.78-6.57-7.091-13.05-1.381-19.32 4.67-4.95 11.521-1.51 17.221-1.5.02-.84.07-2.51.09-3.35-2.71-.925-5.446-1.279-8.19-1.274zm201.231 24.754c-.98.21-2.94.64-3.92.86 1.96 13.44 3.809 27.351.939 40.801-2.12 13.45-8.101 26.049-15.211 37.519 1.4-4.61 2.201-9.391 1.981-14.221-3.25 5.35-6.219 10.862-10.459 15.532 13 8.15 25.58 17.449 35.43 29.339-1.8-.51-3.572-1.09-5.362-1.56.95 3.4 2.381 6.67 3.051 10.16-9.38-10.13-18.5-20.981-30.42-28.381-.29.34-.87 1.031-1.16 1.371 9.61 13.69 23.49 24.65 28.25 41.33 7.35 14.09 4.489 30.429 4.109 45.629-1.68 14.86-3.079 29.851-6.589 44.401-.52 1.19-1.251 2.261-1.911 3.371.19 20.87 4.431 41.429 7.371 62.029 1.74 10.57 2.88 21.291 5.37 31.721 18.81-3.59 36.919-10.3 54.519-17.75.36-.8 1.461-1.462 1.141-2.432-6.31-23.94-16.53-46.808-20.66-71.318-.7-6.93-1.329-14.08-4.709-20.33-1.31-2.82-3.951-5.311-3.551-8.651 1.22-17.03 2.521-34.07 2.881-51.15 5.11 2.45 9.099 6.631 13.699 9.881 29.28 21.92 60.569 41.768 94.699 55.228 6.2 1.81 14.222 5.961 19.772.621 5.57-4.7 11.39-9.29 15.83-15.14 4.66-6.11 3.779-14.361 2.629-21.471-2.59-10.84-3.189-21.989-4.139-33.049-1.15-10.6.66-21.6-3.16-31.82-1.45-5.53-4.952-10.05-8.112-14.66-.75-11.13-.259-22.35-1.009-33.49-.07-.94-.51-1.661-1.34-2.151-5.99 4.83-14.251 2.851-21.311 2.811-20.7-1.8-41.568-6.171-60.398-15.151.08 13.4 4.639 26.33 6.209 39.58-5.64-9.42-11.571-18.808-19.141-26.808-5.37-5.38-13.319-5.702-20.349-6.862-4.97-2.44-8.191-7.42-13.161-10-4.12-.3-8.159.491-12.209 1.061-9.14-2.14-15.32-9.86-22.99-14.73-.289.959-.332 1.954-.367 2.951-.076-2.631-1.257-4.977-3.133-6.942.7-2.11 1.641-4.168 1.901-6.398-2.39-7.07-2.76-14.621-5.01-21.731zm5.709 4.27c-.39 3.72-.231 7.46.099 11.18 2.56-1.64 5.041-3.42 7.311-5.45-2.18-2.24-4.4-4.64-7.41-5.73zm-84.891 12.199c-8.25 1.55-15.278 6.651-21.898 11.551 1.92 3.25 4.959 5.5 8.049 7.56.99.69 1.94 1.42 2.9 2.19 12.72 10.6 25.91 20.591 39.18 30.471 2.95 1.75 5.639 3.879 8.429 5.859-.32-1.55-.71-3.089-1.07-4.619-3.14-10.79-7.44-21.211-11.67-31.611-1.24-2.46-2.248-5.02-3.228-7.59-1.14-2.59-2.072-5.279-3.352-7.799-5.7-2.17-11.24-5.172-17.34-6.012zm33.727 14.961c-1.129.027-2.255.168-3.375.49 3.75 2.83 11.19 1.97 12.08 7.35l.408-.561c.34-2.1.712-4.189 1.092-6.269-3.398-.143-6.818-1.09-10.205-1.01zm-70.906 1.59c1.01 7.57 1.46 15.191 2.06 22.801 2.15-2.65 5.93-4.891 5.44-8.801-.41-.95-.821-1.881-1.241-2.801-6.03 3.3-4.359-4.71-3.019-8.08-.57-1.5-1.94-2.349-3.24-3.119zm87.39 1.141c-.82.06-2.481.18-3.301.24-.87 2.03-1.848 4.008-2.808 5.988.07.24.219.721.289.961 2.11-5.76 8.161 2.421 12.211 3.131.32-2.77.248-5.561-.102-8.311-2.1-.68-4.189-1.349-6.289-2.009zm-70.779 5.169c-2.24.45-4.461 1-6.631 1.69.42 1.18.869 2.37 1.279 3.57 1.8-1.73 3.582-3.5 5.352-5.26zm77.119 11.61c-4.78 6.61-9.591 13.209-14.301 19.859 1.77 1.31 7 2.722 4.49 5.602-3.75-.57-7.718-1.04-10.468 2.17 1.45 2.12 2.94 4.229 4.5 6.279 2.17-.26 4.358-.521 6.558-.641 2.5.16-.739-.9-1.259-1.42-.99-2.09-.55-4.768 1.48-6.058 3.85-3.09 6.49-7.301 8.4-11.801 1.1-4.59 1.33-9.33.6-13.99zm-91.68 5.33c-.03.35-.079 1.07-.109 1.42 2.86 1.99 5.889 3.75 9.199 4.9-.31-1.53.76-8.22-.93-3.66-2.02 2.1-5.77-1.84-8.16-2.66zm-105.009 1.1c-1.79 3.03-1.471 6.72-1.051 10.07 5.01.49 4.001-8.88 1.051-10.07zm117.41 4.07c-1.12.11-1.641.67-1.561 1.66 1.18 1.27 2.369 2.66 4.029 3.34 15.61 6.68 32.47 10.35 49.43 11.06-.21-.75-.608-2.24-.808-2.98-17.12-3.85-34.75-6.43-51.09-13.08zm-58.76 13.359c-3.84.23-7.582 1.182-11.422 1.442 1.88 7.4-8.93 12.62-14.43 8.17-2.5-1.38-4.359-5.041-7.629-3.641 5.41 6.5 14.56 10.179 22.84 7.689 5.33-2.73 8.141-8.49 10.641-13.66z" fill="#fff"/>
    <path id="color6" d="m969.988 284.115c-11.664.019-23.122 2.708-34.488 5.106 1.26 3.65-4.479 4.94-6.359 7.49 5.29-.43 10.329 1.56 15.209 3.34-.68.67-1.371 1.319-2.061 1.939 14.39 4.97 27.221 13.45 40.451 20.84 8.73-1.44 17.63-1.78 26.4-3.58-9.659-4.08-19.61-8.34-27.47-15.48 14.44 2.78 28.88 6.119 43.12 10.019 7.94-.77 16.25 1.271 23.94-1.299 3.43-2.58 9.77-3.441 12.39.619.67 3.21 1.03 9.071-3.18 9.811 15.45 6 32.08 9.38 46.72 17.26-18.42-1.23-36.51-5.969-54.69-9.129-1.04 4.72-2.22 9.458-4.52 13.738 36.63 6.13 73.01 13.791 109.45 20.811 5.14-.73 9.68-3.971 15.02-3.821-9.12-9.51-18.88-18.359-29.33-26.379-6.81-7.38-14.55-14.031-23.82-18.111-16.44-9.44-34.58-15.249-52.83-20.029-29.26-6.55-58.73-14.031-88.94-12.981-1.675-.115-3.345-.166-5.012-.164zm59.042 41.766c-3.46.35-6.78 1.4-10.16 2.09-4.71 1.05-9.16-1.61-13.82-1.59-3.09.54-5.921 1.948-8.931 2.728 7.071 4.32 15.201 6.391 22.341 10.551 4.6-5.02 10.85-7.94 16-12.31-1.82-.51-3.62-1.019-5.43-1.469zm-374.21 56.799c-.46 3.1-2.45 6.491-.9 9.531 6.26 8.97 13.951 17.33 18.301 27.42-.58.17-1.75.5-2.33.67 4.25 1.22 6.358 5.42 8.648 8.83 1.28 2.52 2.212 5.209 3.352 7.799 3.2.67 6.41 1.22 9.66 1.64 4.48-1.29 9.05.33 13.58.52 2.88-12.33 2.83-25.321.5-37.731-6.63-1.87-13.551-2.29-20.311-3.49-4.71.31-9.45-.548-13.72-2.568-6.55-2.9-10.16-9.771-16.78-12.621zm160.51 30.019c2.59 10.82 4.121 22.152 9.141 32.192 11.93 6.34 24.939 10.19 37.929 13.67 10.91 2.1 22.059 4.75 33.219 3.07 4.78-.59 9.982-.552 13.842-3.932.98-13.19-.052-26.86-6.092-38.83-20 5.11-40.888 3.38-60.908-.5-8.8-2.9-17.941-4.62-27.131-5.67zm-193.49 5.071c3.82 10.01 8.61 19.71 12.16 29.9 2.17-.69 4.391-1.24 6.631-1.69 2.27-1.19 4.489-2.48 6.719-3.75-3.09-2.06-6.129-4.31-8.049-7.56-2.02-1.32-4.031-2.681-5.651-4.481-4.02-4.07-8.47-7.719-11.81-12.419zm-33.43 1.531c-2.19 1.77-.38 6.368-4.14 7.388 9.42 7.5 13.27 19.991 22.15 28.041-.3-2.29.02-4.85-1.43-6.81-4.02-5.89-6.031-12.87-10.201-18.67-1.96-3.42-5.429-6.009-6.379-9.949zm-61.08 4.83c-2.39 4.9-7.759 8.129-8.529 13.799-1.33 5.92-2.49 11.951-1.75 18.041.87 7.22-4.201 15.629 1.189 21.929 3.21-.09 6.489-1.9 7.369-5.16 5.5-12.35-.199-26.23 3.911-38.81.37 1.41.71 2.851.99 4.291.17-2.14.43-4.27.58-6.41-1.52-.29-1.67-.891-.44-1.791-1.23-1.9-2.4-3.829-3.32-5.889zm183.301 7.289c-.92 3.19-1.802 6.391-2.522 9.631.82-.06 2.481-.18 3.301-.24.94-3.14.151-6.351-.779-9.391zm-83.371 11.369c-1.34 3.37-3.011 11.38 3.019 8.08-.66-2.81-1.589-5.57-3.019-8.08zm22.99 1.631c-3.78 3.84-8.15 7.19-11.15 11.73-1.86 2.76-1.251 7.31 1.929 8.84 8.51 4.09 18.041 4.95 27.201 6.68 7.13.78 13.96 3.481 21.2 3.221-13.27-9.88-26.46-19.871-39.18-30.471zm34.869.1c4.23 10.4 8.53 20.821 11.67 31.611 5.04-7.07 10.991-13.44 16.361-20.25-2.24-2.41-4.94-4.332-7.23-6.682-1.87.87-4.01 3.72-5 .33-4.47-3.62-10.391-3.959-15.801-5.009zm-164.058 19.5c2.95 1.19 3.959 10.56-1.051 10.07-.42-3.35-.739-7.04 1.051-10.07zm9.271 13.955c-.279.022-.584.126-.922.326-2.25 1.63-6.28 3.879-3.92 7.109 7.34 9.04 16.359 16.77 26.209 22.93 7.92 2.86 19.001 3.42 24.621-4.02 5.73-6.5 9.57-14.41 12.94-22.32l-1-.84c-4.51 6.43-9.031 12.98-14.571 18.57-5.02 2.66-11.079 2.27-16.609 2.19-9.65-3.34-16.72-11.32-23.01-19.01-1.146-1.356-1.787-5.094-3.738-4.935zm-18.752 25.115c-1.44 8.1-6.291 14.93-8.801 22.66-2.42 6.13-3.039 12.751-4.109 19.211 6.78-.48 13.409-3.181 20.279-2.031 12.45 1.97 24.071 7.071 35.961 11.031-3.26-8.06-6.699-16.05-9.859-24.15-1.55-3.96-6.07-5.2-9.09-7.76-8.66-5.63-16.221-12.701-24.381-18.961zm280.33 221.41c-30.71 9.83-62.86 14.46-94.93 16.51-24.04.23-47.831-3.42-71.701-6.43-12.39-2.9-25.169-4.511-37.129-9.051-1.22.6-2.601 1.011-3.541 2.041-15.42 19.53-29.638 39.98-43.048 60.93-3.07 5.42-9.17 7.689-14.09 11.029-24.08 15.97-47.661 33.221-67.891 53.901 5.04 15.12 11.439 29.83 17.609 44.57 3.59 6.35 9.811 11.679 16.881 13.699 3.55 1.11 5-2.939 7.19-4.789 4.78-.02 9.371 2.269 14.201 1.379 3.89-.78 6.95 2.301 10 4.191 8.57 6.34 17.869 11.589 27.379 16.379-.03-8.38-.389-16.778.121-25.138 7.17 2.07 14.649 5.018 19.859 10.558 4.4 6.5 10.34 12.181 17.61 15.321 10.05 3.11 20.689 1.66 31.009 2.39-.87 3.35-4.799 5.86-4.019 9.52 4 3.86 9.811 4.831 15.041 6.041 5.37 1.97 10.948 4.689 16.818 3.779.63-3.19.411-6.45.721-9.66 2.24-.02 3.649 1.869 5.359 3.019 7.27 5 16.241 6.052 24.741 7.362.1.75.319 2.25.429 3 .33-1.45.721-2.912 1.461-4.192 5.58-.18 11.17-.4 16.67-1.49 9.02-2.43 18.36-3.229 27.35-5.599.56 4.58-.06 9.201.42 13.791 15.43 2.08 29.33-7.371 44.64-5.911 11.19.05 20.579-8.509 31.959-5.679.27 2.57.181 5.179.451 7.769 5.28-.08 10.309-1.861 15.309-3.371 8.67-2.43 17.652-3.589 26.172-6.639 4.1-.4 2.32-5.5 3.1-8.22 2.54 2.65 4.368 5.93 7.128 8.39 1.75-2.47 1.151-8.01 4.711-8.14 2.86 2.12 5.161 5.121 8.661 6.291-14.41-72.88-37.38-144.282-71.18-210.512-1.33-2.68-2.241-6.109-5.471-7.039z" fill="#a1acea"/>
    <path id="color7" d="m1055.23 310.311c-2.34.03-4.78.889-6.5 2.179-1.12 3.97-2.85 9.99 2.7 11.33 2.09-.71 4.29-1.06 6.51-.9 4.21-.74 3.85-6.601 3.18-9.811-1.31-2.03-3.55-2.828-5.89-2.798z" fill="#f6e387"/>
    <path id="color8" d="m1048.73 312.49c-7.69 2.57-16 .529-23.94 1.299-5.54 1.35-14.16-2.279-15.65 5.461-8.77 1.8-17.67 2.14-26.4 3.58-18.38 4.26-37.371 6.46-55.801 10.91 1.5 1.72 3.472 2.899 5.202 4.369-.08 2.28-.561 4.521-.711 6.801 4.66-.48 8.851-2.719 13.211-4.279 14.71-5.58 30.029-9.281 45.269-13.031 6.66-1.78 13.7-1.489 20.18-4.039 4.98.96 9.94.169 14.93-.161 5.43-.52 10.82-2.021 16.32-1.451-1.47 2.7-4.19 4.181-6.88 5.401-5.15 4.37-11.4 7.29-16 12.31-17.23 16.24-34.51 33.14-47.11 53.26 2.71 1.13 5.37 3.41 6.17 6.84 14.87-16.49 28.65-34.081 44.67-49.561 2.14-1.99 4.03-4.22 5.75-6.58 1.5-2.28 3.71-4.518 6.68-4.308 2.3 2.87-3.32 5.679-1.4 9.089 2.78 1.32 5.92 2.98 9.09 2.09 1.2-1.81 2.1-3.791 3.14-5.701 2.3-4.28 3.48-9.018 4.52-13.738.46-2.42.97-4.821 1.46-7.231-5.55-1.34-3.82-7.36-2.7-11.33zm-546.71 2.799c-2.18-.05-4.289.581-6.389 1.041 2.64 2.39 8.249 5.179 6.389-1.041zm222.05 137.451c-.48.01-1.449.039-1.929.049-1.09 8.46-3.052 16.762-4.782 25.102-.13-2.11-.219-4.211-.209-6.311-1.91 4.5-4.55 8.711-8.4 11.801-2.03 1.29-2.47 3.968-1.48 6.058.52.52 3.759 1.58 1.259 1.42 2.43 2.18 5.841 3.801 6.721 7.211.29-.34.87-1.031 1.16-1.371 11.92 7.4 21.04 18.251 30.42 28.381-.67-3.49-2.101-6.76-3.051-10.16 1.79.47 3.562 1.05 5.362 1.56-9.85-11.89-22.43-21.189-35.43-29.339 4.24-4.67 7.209-10.182 10.459-15.532.16-6.29.26-12.589-.1-18.869zm-8.82 45.33c-6.06-.02-12.119-.081-18.119.789 1.52-2.51 3.23-4.899 4.84-7.359-1.56-2.05-3.05-4.159-4.5-6.279-2.37-.39-4.732-.771-7.102-1.071-16.96-.71-33.82-4.38-49.43-11.06-1.66-.68-2.849-2.07-4.029-3.34-.15 2.39-.191 4.78-.291 7.17-.4-2.58-.849-5.15-1.459-7.68-3.31-1.15-6.339-2.91-9.199-4.9-.39 3.14-.741 6.28-1.041 9.43 8.06 3.42 15.021 9.18 23.541 11.56 14.07 3.3 28.299 6 42.779 6.74-7.68 12.08-18.851 22.08-24.291 35.61 1.33-.98 2.621-2.01 3.981-2.95.38 3.7.549 7.44 1.259 11.11 6.66-12.11 13.51-24.47 22.59-34.91.67 3.63.35 7.35-.84 10.84-4.25 13.61-7.73 27.47-10.32 41.49-.88 5.92-2.009 11.981-.859 17.961 2.81 14.61 5.271 29.599 12.041 43.029 1.45 2.73 2.519 6.079 5.449 7.609 3.8-9.45 5.519-20.079 11.119-28.619 6.89 10.66 14.192 21.111 22.272 30.891 1.45 1.46 2.619 3.16 3.689 4.92 1.22.13 2.45.259 3.69.379 3.51-14.55 4.909-29.541 6.589-44.401.38-15.2 3.241-31.539-4.109-45.629-4.76-16.68-18.64-27.64-28.25-41.33z" fill="#ffa9b5"/>
    <path id="color9" d="m561.24 320.5c-.356-.004-.774.062-1.269.211-4.5-1.16-2.771 4.009-3.481 6.719-2.79.5-6.74-.089-7.76 3.371-2.55 6.83-2.76 14.61-7.91 20.26.52 6.25.889 12.539 1.039 18.839 1.89.27 3.821.339 5.721.639.51 4.2.01 8.431-.24 12.631-.02.84-.07 2.51-.09 3.35 4.33 0 8.281 2.25 11.561 4.89.93 5.16.56 10.511.25 15.731-3.64.55-7.24-.401-10.84-.741-.59 3.75 4.769 1.881 7.019 3.151 6.94 3.23 15.26 2.968 22.25-.012 1.18-7.35-1.72-15.639 2.83-22.209-1.96-5.45-1.4-11.619-2.09-17.359-.85-3.19 2.771-2.511 4.731-3.211 1.1-7.05.22-14.761-4.07-20.651-2.53-3.35-1.56-7.919-3.42-11.539-3.09-3.82-6.66-7.771-11.83-8.381-.508-2.231.094-5.663-2.401-5.689zm463.78 2.9c-4.99.33-9.95 1.121-14.93.161-6.48 2.55-13.52 2.259-20.18 4.039 2.11.28 4.179.809 6.209 1.509 3.01-.78 5.841-2.188 8.931-2.728 4.66-.02 9.11 2.64 13.82 1.59 3.38-.69 6.7-1.74 10.16-2.09-1.52-.52-2.81-1.471-4.01-2.481zm9.05 15.899c-2.69.081-4.72 2.183-6.13 4.32 1.44-.39 2.91-.739 4.41-.969.25 1.91-.37 4.09.87 5.75-1.92-3.41 3.7-6.219 1.4-9.089-.19-.014-.37-.018-.55-.012zm-463.24 51.453c8.096.377 7.436 17.874-1.971 15.549.37-5.05-1.569-11.141 1.161-15.531.279-.025.549-.03.81-.018zm12.01 72.178c-7.66 7.21-18.44 8.639-28.51 8.509-.73 3.87.919 7.9 3.209 10.92 3.52.74 7.17.352 10.75.532 3.84-.26 7.582-1.212 11.422-1.442 4.21-5.14 2.759-12.369 3.129-18.519zm154.49 166.121c.6 1.24 1.169 2.48 1.779 3.75.66-1.11 1.391-2.181 1.911-3.371-1.24-.12-2.47-.249-3.69-.379z" fill="#bbbdba"/>
    <path id="color10" d="m833.648 396.283c-6.069.047-11.776 3.672-17.187 6.207-4.23 1.68-5.861 8.059-1.131 10.209 9.19 1.05 18.331 2.77 27.131 5.67 20.02 3.88 40.908 5.61 60.908.5 1.6-2.8 3.87-6.699 1.58-9.709-7.06-5.87-15.92-9.41-24.84-11.26-.24 5.68 1.171 11.239 1.551 16.879-14.43.37-29.201.322-43.221-3.478-.93-4.75-.259-9.62-.529-14.42-1.44-.428-2.861-.609-4.262-.598zm-120.459 11.098c-1.34 7.95-1.478 16.049-2.558 24.039.93 3.04 1.719 6.251.779 9.391 2.1.66 4.189 1.329 6.289 2.009 1.44-5.87.571-11.939-.599-17.769-1.19-5.9-1.061-12.23-3.911-17.67zm-54.937 10.486c-1.308.015-2.617.205-3.922.653-7.54 2.55-14.36 6.879-20.68 11.669 1.62 1.8 3.631 3.161 5.651 4.481 6.62-4.9 13.648-10.001 21.898-11.551 6.1.84 11.64 3.842 17.34 6.012-2.29-3.41-4.398-7.61-8.648-8.83-3.795-.938-7.715-2.478-11.639-2.434zm-131.973 2.613c-5.7 5.13-9.919 11.999-11.429 19.559-3.01 14-3.409 28.471-2.299 42.721-.05 3.05 4.009 2.12 5.519 4.06 7.47 7.55 15.73 14.25 24 20.91 5.99 5.28 14.02 7.96 21.94 8.25 6.01.2 10.949-4.209 14.099-8.919 5.06-7.79 10.23-15.701 13.25-24.541.04-12.37 2.381-26.129-4.179-37.309-.86 1.63-3.98 3.449-1.19 4.959 4.77 3.95-.88 9.11-3.15 12.76-.37 6.15 1.081 13.379-3.129 18.519-2.5 5.17-5.311 10.93-10.641 13.66-8.28 2.49-17.43-1.189-22.84-7.689-5.41-5.92-10.599-12.951-11.179-21.231-.73-4.62.148-9.319-.442-13.919-1.58-4.62-3.769-9.089-4.099-14.049-.28-1.44-.62-2.881-.99-4.291-4.11 12.58 1.589 26.46-3.911 38.81-.88 3.26-4.159 5.07-7.369 5.16-5.39-6.3-.319-14.709-1.189-21.929-.74-6.09.42-12.121 1.75-18.041.77-5.67 6.139-8.899 8.529-13.799-.36-1.22-.711-2.441-1.051-3.651zm57.991 6.209c-.4.45-1.19 1.371-1.59 1.821 2.71 2.19 5.59 4.491 6.99 7.791.8 3.28-1.22 7.029 1.09 9.959 3.62 5.83 7.261 11.82 12.201 16.64 3.3-.88 4.059-3.991 3.639-7.041-.04-.29-.13-.849-.18-1.129-8.88-8.05-12.73-20.541-22.15-28.041zm-53.62 3.331c-1.23.9-1.08 1.501.44 1.791-.11-.45-.33-1.341-.44-1.791zm151.241 6.91c.98 2.57 1.988 5.13 3.228 7.59 5.41 1.05 11.331 1.389 15.801 5.009.91-1.19 1.831-2.389 2.711-3.609-.89-5.38-8.33-4.52-12.08-7.35-3.25-.42-6.46-.97-9.66-1.64zm-34.541 5.3c-2.23 1.27-4.449 2.56-6.719 3.75-1.77 1.76-3.552 3.53-5.352 5.26-.53 5.8 1.622 11.36 3.192 16.85 16.34 6.65 33.97 9.23 51.09 13.08.2.74.598 2.23.808 2.98 2.37.3 4.732.681 7.102 1.071 2.75-3.21 6.718-2.74 10.468-2.17 2.51-2.88-2.72-4.292-4.49-5.602 4.71-6.65 9.521-13.249 14.301-19.859.31-2.12 1.821-4.609.051-6.459-4.05-.71-10.101-8.891-12.211-3.131.08.3.24.899.33 1.199 2.29 2.35 4.99 4.272 7.23 6.682-5.37 6.81-11.321 13.18-16.361 20.25.36 1.53.75 3.069 1.07 4.619-2.79-1.98-5.479-4.109-8.429-5.859-7.24.26-14.07-2.441-21.2-3.221-9.16-1.73-18.691-2.59-27.201-6.68-3.18-1.53-3.789-6.08-1.929-8.84 3-4.54 7.37-7.89 11.15-11.73-.96-.77-1.91-1.5-2.9-2.19zm173.82 1.331c-1.74 5.71 2.041 11.198 7.461 12.968 18.83 8.98 39.698 13.351 60.398 15.151 7.06.04 15.321 2.019 21.311-2.811 4.88-3.05 3.171-8.29-.879-11.17-3.86 3.38-9.062 3.342-13.842 3.932-11.16 1.68-22.309-.97-33.219-3.07-12.99-3.48-25.999-7.33-37.929-13.67-1.11-.48-2.181-.96-3.301-1.33zm-189.65 10.109c.49 3.91-3.29 6.151-5.44 8.801l-.01.449c2.39.82 6.14 4.76 8.16 2.66-1.12-3.92-1.45-8.03-2.71-11.91zm-101.188 24.305c1.951-.159 2.592 3.579 3.738 4.935 6.29 7.69 13.36 15.67 23.01 19.01 5.53.08 11.589.47 16.609-2.19 5.54-5.59 10.061-12.14 14.571-18.57l1 .84c-3.37 7.91-7.21 15.82-12.94 22.32-5.62 7.44-16.701 6.88-24.621 4.02-9.85-6.16-18.869-13.89-26.209-22.93-2.36-3.23 1.67-5.479 3.92-7.109.338-.2.643-.304.922-.326zm178.197 12.884c-2.2.12-4.388.381-6.558.641-1.61 2.46-3.32 4.849-4.84 7.359 6-.87 12.059-.809 18.119-.789-.88-3.41-4.291-5.031-6.721-7.211zm25.112 133.272c-1.32 18.32-.721 36.828 2.179 54.978 4.18 15.97 8.03 32.101 9.83 48.541-23.94 4.09-48.4 4.4-72.65 4.35-26.72.09-53.41-4.63-78.65-13.32-8.39-3-16.671-6.631-23.741-12.141-.92 2.71-2.128 5.441-2.148 8.361 4.79 6.22 12.559 8.369 19.689 10.629 11.96 4.54 24.739 6.151 37.129 9.051 23.87 3.01 47.661 6.66 71.701 6.43 32.07-2.05 64.22-6.68 94.93-16.51 6.02-2.69 12.41-4.951 17.5-9.301 1.56-2.69-.961-5.058-3.041-6.398-17.6 7.45-35.709 14.16-54.519 17.75-2.49-10.43-3.63-21.151-5.37-31.721-2.94-20.6-7.181-41.159-7.371-62.029-.61-1.27-1.179-2.51-1.779-3.75-1.07-1.76-2.239-3.46-3.689-4.92z" fill="#42498d"/>
    <path id="color11" d="m756.27 419.689c-7.5.58-6.28 8.701-8.95 13.801 6.99 11.65 20.629 15.731 33.469 15.971-4.66-7.84-12.099-13.681-16.769-21.551-2.58.74-5.17-6.031-7.75-8.221z" fill="#f2dfa7"/>
  </g>
</svg>
