<svg height="1080" width="1920" xmlns="http://www.w3.org/2000/svg">
  <path id="background" d="m0 0h1920v1080h-1920z" fill="#9d6258"/>
  <g id="transform" transform="translate(0,0) scale(1.00)">
    <path id="color1" d="m833.92 132.221c-9.16 2.38-18.6 3.099-27.99 2.119-15.08 2.74-30.46.9-45.58 3.14-6.56.92-11.93 5.07-17.62 8.02-11.05-.39-20.871 5.39-29.441 11.76-13.77 9.39-22.908 24.25-28.148 39.82-2.07 5.88-1.22 12.31-2.83 18.25-4.93 9.01-13.841 15.06-19.491 23.49 6.81-3.41 11.621-9.54 17.901-13.67-.2 9.5-3.042 19.619-.362 28.799 1.17-5.32 1.922-13.269 8.192-14.769.58 5.26.869 10.56 1.599 15.81.99 6.49-2.639 12.27-4.849 18.09 5.26-2.24 4.928-9.35 7.818-13.06 1.06 6.56-1.989 12.66-2.949 18.99 5.28-5.06 6.73-12.44 9.23-18.94 1.71 7.16 6.191 13.94 8.311 20.36 2.29-2.63 4.069-.181 5.039 2.179 1.19 1.52 2.46 2.992 3.84 4.362.27-1.67.48-3.34.75-5 2.37 3.61 4.161 7.549 5.621 11.599.63 1.2 1.3 2.41 2 3.6-.19-2.15-.432-4.28-.522-6.43 2.85 4.08 3.011 9.269 5.471 13.539.4-3.45-.199-6.879-.609-10.279 3.11 4.52 5.778 9.34 8.818 13.92.96-.2 1.931-.39 2.901-.66-1.46-7.01-4.16-14.06-8.54-19.76-7.3-4.32-15.301-9.67-17.531-18.4-.35-2.21-.85-7.47 2.59-6.85 3.43 6.49 5.301 13.839 9.881 19.689.19-1.48.39-2.949.6-4.419 8.99 11.94 17.39 24.631 29 34.281-9.04-13.06-17.431-26.752-22.821-41.762 3.88 5.81 6.411 12.462 10.821 17.932-5.19-12.58-8.671-26.3-5.571-39.92 2.21 11.66 6.031 23.419 13.301 32.939-7.41-17.41-10.32-38.93-1.26-56.07-1.24 12.31-1.701 25.01 1.049 37.15.48-12.11.761-24.451 3.971-36.201 2.22 10.74 4.71 22.342 11.24 31.192-2.33-9.57-4.971-19.271-4.471-29.231 7.81 14.91 14.211 31.341 26.381 43.391-4.33-7.01-9.92-13.412-12.65-21.272 6.12 7.15 11.841 14.721 19.041 20.881-10-16.43-22.83-32.93-23.74-52.92 6.59 12.61 10.88 27.09 21.66 36.99-6.77-11.84-14.692-23.48-17.852-36.92 10.44 14.39 18.771 30.629 31.731 43.049-2.75-13.6-7.59-26.689-11.83-39.879 9.39 8.52 17.9 18.03 27.74 26.02-5.28-9.46-11.46-18.37-17.5-27.34 8.09 7.88 15.851 16.139 23.041 24.859 2.21 3.15 5.249 6.221 5.609 10.231-.24 10.29-1.1 20.689-4.65 30.439.45.4 1.36 1.19 1.81 1.58 1.79 1.41 3.619 2.781 5.469 4.141-.33-2.68-.7-5.39-.26-8.08 3.07 2.77 5.111 6.569 8.641 8.869-1.89-4.56-5.25-8.529-5.91-13.549.95.45 1.88.95 2.84 1.42-1.53-4.74-3.68-9.8-1.44-14.72 2.29 2.64 3.49 5.979 5.33 8.919-1.22-8.9-1.03-17.899-.82-26.839 1.65 1 1.861 3.25 2.801 4.83.37-3.99-.12-7.979-.34-11.959 4.72 5.82 4.959 13.82 6.219 20.91.16-3.62.119-7.252.589-10.842 1.65.57.731 3.36 1.321 4.82 2.35-11.55-1.761-23.51-4.221-34.83 5.59 6.58 6.93 15.431 10.33 23.051-.54-13.77-4.96-27.07-9.42-39.99 9.04 8.74 15.231 19.89 22.631 29.92-3.22-11.63-10.659-21.41-17.619-31.03 8.31 3.75 13.86 11.29 20.75 16.94-3.85-8.41-11.36-14.4-16.08-22.15 6.98 2 13.548 5.779 20.988 6.019-7.02-4.1-16.839-3.899-22.039-10.609-2.55-11.73-11.319-20.27-18.779-29.09 7.67 2.82 15.548 5.991 23.898 5.551-11.19-2.44-22.249-6.961-30.699-14.871-8.64-7.44-19.151-12.09-30.311-14.17 8.86-3.49 19.591-2.079 27.981-7.379z" fill="#d38072"/>
    <path id="color2" d="m772.311 217.91c.91 19.99 13.74 36.49 23.74 52.92-7.2-6.16-12.921-13.731-19.041-20.881 2.73 7.86 8.32 14.262 12.65 21.272-12.17-12.05-18.571-28.481-26.381-43.391-.5 9.96 2.141 19.661 4.471 29.231-6.53-8.85-9.02-20.452-11.24-31.192-3.21 11.75-3.491 24.091-3.971 36.201-2.75-12.14-2.289-24.84-1.049-37.15-9.06 17.14-6.15 38.66 1.26 56.07-7.27-9.52-11.091-21.279-13.301-32.939-3.1 13.62.381 27.34 5.571 39.92-4.41-5.47-6.941-12.122-10.821-17.932 5.39 15.01 13.781 28.702 22.821 41.762-11.61-9.65-20.01-22.341-29-34.281-.21 1.47-.41 2.939-.6 4.419-4.58-5.85-6.451-13.199-9.881-19.689-3.44-.62-2.94 4.64-2.59 6.85 2.23 8.73 10.231 14.08 17.531 18.4 4.38 5.7 7.08 12.75 8.54 19.76-.97.27-1.941.46-2.901.66 4.29 8.1-.749 17.919 4.141 25.769 6.21 12.64 14.13 24.33 22.32 35.75 1.98 3.32 6.441 2.241 9.631 3.401.65.16 1.928.481 2.568.631 2.58-7.49.83-15.441 1.59-23.121 2.55-2.18 5.902-3.371 8.012-6.061 2.05-3.52-.752-9.048 3.488-11.398 4.1-4.05 9.812-5.461 14.442-8.571 9.43-12.42 18.879-24.971 25.949-38.961 3.55-9.75 4.41-20.149 4.65-30.439-.36-4.01-3.399-7.081-5.609-10.231-7.19-8.72-14.951-16.979-23.041-24.859 6.04 8.97 12.22 17.88 17.5 27.34-9.84-7.99-18.35-17.5-27.74-26.02 4.24 13.19 9.08 26.279 11.83 39.879-12.96-12.42-21.291-28.659-31.731-43.049 3.16 13.44 11.082 25.08 17.852 36.92-10.78-9.9-15.07-24.38-21.66-36.99zm-68.766 149.703c-.381.027-.806.214-1.256.617-1.37 1.63.63 4.44 2.58 3.7 1.186-1.52.328-4.431-1.324-4.317zm137.168 16.717c-.154-.006-.325.01-.514.051-1.34.5-3.09 2.699-.92 3.369 2.241 1.622 3.743-3.33 1.434-3.42zm-202.242 12.279c-29.95 31.07-57.721 64.201-86.571 96.301-16.95 17.9-29.17 39.591-40.82 61.141-2.71 5.87-8.37 16.259.24 19.779 3.03 3.86 3.519 9.89 8.219 12.58 2.44 1.97 6.871-.56 8.031 3.1 1.88 4.47 8.261 4.72 11.401 1.76-2.02-2.06-5.211-3.899-4.821-7.219.06-10.08 2.81-20.5 8.87-28.67 1.68 8.14 3.989 16.299 8.769 23.219 1.64 1.52 3.33 2.99 5.07 4.4 2.09-.34 5.531-2.151 3.791-4.641-3.87-8.18-4.989-17.409-4.849-26.359 1.02-10.36 3.828-20.559 3.558-31.039-.18-4.33 3.26-7.65 6.25-10.32 14.97-12.1 29.972-24.221 45.852-35.131 17.5-10.27 33.908-22.441 48.648-36.401.81-.95 2.271-1.999 1.481-3.459-1.32-3.82 3.1-6.61 2.34-10.47-3.34-.19-6.639.449-9.959.609-1.05-4.17 4.589-3.88 6.519-6.18 1.37-4.45-1.28-9.75-5.82-11-2.2 3.04-5.609 1.152-8.619 1.102 2.07-2.71 5.589-5.512 4.519-9.352-1.76-2.96-4.991.021-7.291.541-1.71-1.32-3.148-2.931-4.808-4.291zm-118.801 326.621c-7.38 7.79-16.33 16.27-18.08 27.2 4.46-4.72 3.28 2.88 3.74 5.82 4.44-1.38 6.731-6.26 11.481-6.99.05-2.04-.212-4.06-.192-6.09 2.56-.38 5.32.149 7.74-.891.63-4.95-.349-10.059-1.789-14.779-2.18-.36-5.929.11-2.679-2.24-.05-.5-.161-1.52-.221-2.03zm250.269 6.25c-1.63 9.39-8.819 16.581-11.529 25.571-1.44 12.64-5.63 25.01-12.89 35.51-8.81 15.31-19.081 29.878-26.571 45.878-.39 2.45-.799 4.932-.699 7.442 2.21 1.65 4.1-.68 5.4-2.25 8.73-10.92 17.33-21.941 26.51-32.481 2.64-3.19 6.959-3.46 10.779-3.16 4.69-1.53 8.571-5.339 10.141-10.019 6.36-16.31 10.791-33.441 12.471-50.891.61-5 3.439-9.239 5.529-13.699-6.44.24-12.821-.851-19.141-1.901z" fill="#feedd8"/>
    <path id="color3" d="m717.34 281.971c-.27 1.66-.48 3.33-.75 5-1.38-1.37-2.65-2.842-3.84-4.362-13.72 8.25-27.25 16.851-40.73 25.461-9.29 8.19-3.97 21.34-6.75 31.84-.67 7.65-8.781 11.25-11.071 18.17-1.31 4.59-.389 9.37.071 14.01-3.57 3.51-5.789 7.859-7.299 12.599-3.92-.67-7.021 1.151-8.571 4.721-2.74.35-5.59-.051-8.22.949 1.74 2.85 5.981 3.62 8.291 6.25 1.66 1.36 3.098 2.971 4.808 4.291 2.3-.52 5.531-3.501 7.291-.541 1.07 3.84-2.449 6.642-4.519 9.352 3.01.05 6.419 1.938 8.619-1.102 4.54 1.25 7.19 6.55 5.82 11-1.93 2.3-7.569 2.01-6.519 6.18 3.32-.16 6.619-.799 9.959-.609.76 3.86-3.66 6.65-2.34 10.47 4.81-1.22 2.24 5.731 3.58 8.411 2.83-4.61 5.16-10.432 10.75-12.272 2.4-.04 4.56 1.241 6.83 1.871.72-3.61-.55-8.101 2.26-10.971 2.83-.44 4.351 2.681 6.291 4.231-.58-4.35 4.768-2.909 5.138-6.609 1.03-3.53 4.04-6.162 7.5-7.202 1.06 2.44 1.571 5.071 2.471 7.571 2.36-1.57 6.981-3.01 5.651-6.69-1.7-5.46-3.571-10.92-6.051-16.08-6.97-10.44-10.51-22.88-12.03-35.24 1.31.25 3.46-.12 4.01 1.5 5.55 15.11 10.05 30.791 17.68 45.041 1.11-1.1 2.15-2.261 3.18-3.441-.21-18.95-.42-38.081 3.31-56.741 1.23-6.09 4.32-11.709 4.82-17.949-2.95-.55-6.549-1.221-9.089.789-5.7 6.04-10.912 12.841-17.952 17.391 8.7-18.11 15.222-37.18 23.022-55.69-1.46-4.05-3.251-7.989-5.621-11.599zm114.73 4.968c3.91 18.99 1.561 38.692-2.859 57.372-2.87 7.94-2.07 16.419-2.16 24.679.44 18.01-4.44 35.58-4.67 53.52 3.58 1.37 6.659 5.649 10.019 6.029 7.73-14.94 13.46-30.928 18.62-46.908 2.43.2 6.869 1.489 5.589 4.779-5.28 15.94-14.55 30.2-21.07 45.57 3.87 2.74 8.7 3.37 12.9 5.42 1.28 2.79 2.02 5.811 2.67 8.821-10.66-1.4-21.219-5.732-28.869-13.442-1.01 23.59-.85 48.312 9.93 69.932 1.66 2.18-.589 3.98-1.709 5.75-4.15 5.13-2.15 12.218-3.91 18.148-1.81 3.07-5.871 4.772-6.121 8.702-1.6 12.86-2.789 26.67-10.629 37.5-2.73 4.14-4.47 8.839-5.83 13.589-1.13 6.02-4.56 11.201-6.59 16.911-11.61 26.74-23.63 53.338-34.67 80.308 2.76 10.27 11.888 19.472 22.908 19.942 10.8.76 22.17 3.659 32.67-.311 13.15-30.68 23.84-62.33 36.58-93.18 2.58-6.89 6.1-13.41 8.17-20.49 4.99-12.17 9.771-24.569 14.791-36.689 10.67 4.32 21.949 6.88 33.289 8.74 1.85.47 4.471.348 5.051 2.648 1.57-.27 3.139-.929 4.769-.529 24.84 4.29 49.931 6.939 74.881 10.449 30.21 3.4 59.66 11.312 89.06 18.682-.43-2.32-1.12-4.58-1.38-6.91 2.29-1.66 5.07-2.451 7.65-3.561 3.8 2.15 6.08 6.011 6.18 10.391 3.12 3.04 5.68 8.099 10.64 7.949 4.05-.21 6.17 3.589 7.39 6.859 4.29-4.02 4.37 2.551 5.54 5.471 4.59 2.13 8.9 4.76 13.05 7.67-2.79-7.09-5.97-14.151-10.26-20.471-2.02.33-4.26 3.031-6.01 1.051-2.65-2.04.28-6.83-3.17-8.1-4.84-2.35-2.3-8.23-1.22-12.07-2.97-2.65-5.35-5.97-4.73-10.18.16-6.35-7.74-6.269-11.2-10.009.97 1.59 4.58 5.46.65 5.24-4.51 1.37-3.61-4.521-7.35-5.031-3.14-2.56.38-6.24 2.55-8.17-1.2-2.22-3.14 2.329-5.22 1.439-1.03-1.49-1.86-3.1-2.97-4.51-3.5 3.62-5.87 8.852-10.76 10.782-2.52-1.81-1.56-6.652-5.77-6.182-.44-2.93-1.4-5.99-.89-8.93 2.98-4.55 8.21-6.669 12.39-9.859-5.16-.64-6.97-5.129-8.26-9.439-2.62-.28-5.75 2.328-8.73.808-6.07-1.34-3.77-9.939-9.32-11.849-24.69-13.87-50.27-27.779-78.741-31.639-8.37-.3-16.949-2.181-25.179.199-4.12 1.75-6.66-3.921-10.75-3.141-7.29 2.38-11.089-5.998-17.379-8.138-1.53-10.87-.951-21.89.219-32.74 3.9-10.56.269-21.941 2.929-32.721 4.34-16.32-3.489-32.241-8.369-47.471-4.11-10.9-12.24-19.599-19.84-28.189-16.76-17.56-41.381-23.96-59.031-40.35-1.85-1.36-3.679-2.731-5.469-4.141zm-128.525 80.674c1.652-.114 2.51 2.797 1.324 4.317-1.95.74-3.95-2.07-2.58-3.7.45-.403.875-.59 1.256-.617zm137.168 16.717c2.309.09.807 5.042-1.434 3.42-2.17-.67-.42-2.869.92-3.369.189-.041.36-.057.514-.051zm-120.934 35.619c-6.49 6.03-15.099 8.461-23.199 11.451 6.59 12.83 14.131 25.141 21.301 37.651 2.44 3.99 3.039 9.6 7.029 12.34 3.07-2.83 6.111-5.71 9.051-8.68-7.54-16.63-11.492-34.772-14.182-52.762zm175.782 2.576c.756-.011 1.55.245 2.25.625 6.5 3 14.269 3.569 21.009 1.049.72 3.86-3.721 3.57-6.131 4.75-5.79.83-11.069-3.24-16.619-3.33-3.72 2.92-10.901 2.761-11.371 8.461-1.58 8.12-2.45 17.45 2.41 24.68 2.94 4.58 6.132 9.141 10.282 12.701 5.43 2.26 7.789-3.922 11.359-6.352-1.27 4.74-4.761 8.58-8.711 11.33-4.77-.78-6.589-6.499-10.049-9.419-11.05-9.72-9.409-26.34-6.189-39.17 3.11-1.72 7.338-1 9.728-4.35.555-.685 1.275-.963 2.032-.975zm16.683 7.266c1.725-.052.678 4.518 2.156 5.568 3.51 2.34.75 6.281-.99 8.801-.73 3.26-2.719 6.529-6.029 7.629-2.45-3.88-7.262-7.12-4.852-12.35 3.06-3.02 6.531-5.58 8.791-9.32.375-.22.678-.32.924-.328zm-12.121 12.584c1.219.271-.242 4.306 1.236 5.225 2.23 1.73 4.261 3.929 3.161 7.019-2.78 2.65-6.31 5.59-10.03 6.25.2-3.53-.46-6.75-3.9-8.34-2.08-5.76 5.24-7.499 8.83-10.019.3-.135.529-.174.703-.135zm-156.264 51.766c-2.14 1.97-4.179 4.048-6.109 6.228 2.16 4 6.6 6.64 7.6 11.24 3.09-5.68 2.219-12.338-1.491-17.468z" fill="#f4e4b7"/>
    <path id="color4" d="m830.26 285.359c-7.07 13.99-16.519 26.541-25.949 38.961-4.63 3.11-10.342 4.521-14.442 8.571-4.24 2.35-1.438 7.878-3.488 11.398-2.11 2.69-5.462 3.881-8.012 6.061-.76 7.68.99 15.631-1.59 23.121 1.82.22 4.321 2.159 5.481-.131 8.01-10.64 12.9-23.15 18.5-35.09 1.76 1.33 3.481 2.82 4.621 4.75-3.93 11.77-10.811 22.34-17.711 32.57-.73 3.99.989 8.38-.981 12.25-1.74 5.36-6.078 9.03-10.228 12.52-.54 18.17-2.571 36.42-6.981 54.09-3.34 15.84-14.141 28.851-25.621 39.711 3.71 5.13 4.581 11.788 1.491 17.468-4.22 6.73-11.121 12.351-12.661 20.391 1.55 5.95 3.512 11.83 4.192 18 3.05 9.71 14.659 11.759 21.879 17.609 1.1.73 2.199 1.521 3.279 2.321 2.25 1.51 4.592 2.89 6.932 4.25 11.11 5.55 22.96 9.31 35 12.22 1.36-4.75 3.1-9.449 5.83-13.589 7.84-10.83 9.029-24.64 10.629-37.5.25-3.93 4.311-5.632 6.121-8.702 1.76-5.93-.24-13.018 3.91-18.148 1.12-1.77 3.369-3.57 1.709-5.75-10.78-21.62-10.94-46.342-9.93-69.932.04-3.42.091-6.849.141-10.269.23-17.94 5.11-35.51 4.67-53.52.09-8.26-.71-16.739 2.16-24.679 4.42-18.68 6.769-38.382 2.859-57.372-.45-.39-1.36-1.18-1.81-1.58zm-105.821 5.381c.09 2.15.332 4.28.522 6.43-.7-1.19-1.37-2.4-2-3.6-7.8 18.51-14.322 37.58-23.022 55.69 7.04-4.55 12.252-11.351 17.952-17.391 2.54-2.01 6.139-1.339 9.089-.789-.5 6.24-3.59 11.859-4.82 17.949-3.73 18.66-3.52 37.791-3.31 56.741.19 4.73.599 9.449.929 14.179 2.69 17.99 6.642 36.132 14.182 52.762 2.77-2.85 6.559-5.231 7.449-9.381.81-4.59 6.179-6.299 6.959-10.939 5.02-17.94 11.12-35.571 16.75-53.291-3.87-7.78-8.099-15.939-6.689-24.969-2.48-3.97-7.24-6.5-9.58-10.82 4.44 1.92 8.64 4.388 12.38 7.468 3.48 3.34 8.701 1.281 12.981 2.061-3.19-1.16-7.651-.081-9.631-3.401-8.19-11.42-16.11-23.11-22.32-35.75-4.89-7.85.149-17.669-4.141-25.769-3.04-4.58-5.708-9.4-8.818-13.92.41 3.4 1.009 6.829.609 10.279-2.46-4.27-2.621-9.459-5.471-13.539zm6.661 42.299c7.96 1.85 9.941 10.091 14.201 15.881-.14 2.02.28 9.42-2.92 5.68-4.7-6.5-10.211-13.461-11.281-21.561zm146.73 219.852c-5.02 12.12-9.801 24.519-14.791 36.689 5.12.25 10.251.899 15.381.359 1.18-.16 2.37-.29 3.57-.41 7.99-.4 15.64-2.719 23.01-5.709 2.18-.76 4.399-1.391 6.609-2.121 7.48-3.23 2.961-11.63 4.561-17.42-.58-2.3-3.201-2.178-5.051-2.648-11.34-1.86-22.619-4.42-33.289-8.74zm-116.58 146.888c-2.01 6.74-10.06 15.092-3.15 21.362 4.35 2.15 8.209 5.119 11.839 8.339 6.32 1.05 12.701 2.141 19.141 1.901 2.98-1.3 6.86-.42 9.19-3.08 3.33-3.71 5.04-8.52 7.25-12.92.16-.43.48-1.291.65-1.721-9.04-.56-18.12.48-27.15-.34-7.67-1.26-14.41-6.561-17.77-13.541z" fill="#fff"/>
    <path id="color5" d="m731.1 333.039c1.07 8.1 6.581 15.061 11.281 21.561 3.2 3.74 2.78-3.66 2.92-5.68-4.26-5.79-6.241-14.031-14.201-15.881zm69.66 5.211c-5.6 11.94-10.49 24.45-18.5 35.09-1.16 2.29-3.661.351-5.481.131-.64-.15-1.918-.471-2.568-.631-4.28-.78-9.501 1.279-12.981-2.061-3.74-3.08-7.94-5.548-12.38-7.468 2.34 4.32 7.1 6.85 9.58 10.82-1.41 9.03 2.819 17.189 6.689 24.969-5.63 17.72-11.73 35.351-16.75 53.291-.78 4.64-6.149 6.349-6.959 10.939-.89 4.15-4.679 6.531-7.449 9.381-2.94 2.97-5.981 5.85-9.051 8.68-20.98 19.25-41.421 39.269-64.121 56.509 4.65 3.72 2.021 10.34-3.309 11.58 2.76 7.41-5.97 2.159-9.41 5.629 1.06 1.75 3.179 2.851 3.789 4.821-4.62 3.81-2.26 13.159-10.58 11.609 4.07 4.92-2.318 7.401-6.568 7.191-2.35 4.77-3.852 9.951-5.602 14.981 2.75-2.07 6.011-2.89 9.391-3.24 3.38-8.41 9.051-16.76 17.891-20 2.68-1.09 5.539.85 6.379 3.41-4.95 3.92-10.99 7.748-12.95 14.068 6.29 1.33 9.391-6.149 14.061-8.039.31 2.67.319 5.361.539 8.051 2.17-3.66 4.761-9.791 9.391-5.221 3.16-5.15 6.088-10.461 9.718-15.301 16.88-23.27 33.961-46.58 54.221-67.07 1.93-2.18 3.969-4.258 6.109-6.228 11.48-10.86 22.281-23.871 25.621-39.711 4.41-17.67 6.441-35.92 6.981-54.09 4.15-3.49 8.488-7.16 10.228-12.52 1.97-3.87.251-8.26.981-12.25 6.9-10.23 13.781-20.8 17.711-32.57-1.14-1.93-2.861-3.42-4.621-4.75z" fill="#4271a5"/>
    <path id="color6" d="m693.98 362.67c1.52 12.36 5.06 24.8 12.03 35.24 2.48 5.16 4.351 10.62 6.051 16.08 1.33 3.68-3.291 5.12-5.651 6.69-3.21 2.44-7.31 3.02-10.68 5.07-.78 1.45-.32 5.26.85 5.65 8.1-2.99 16.709-5.421 23.199-11.451-.33-4.73-.739-9.449-.929-14.179-1.03 1.18-2.07 2.341-3.18 3.441-7.63-14.25-12.13-29.931-17.68-45.041-.55-1.62-2.7-1.25-4.01-1.5zm157.04 18.961c-5.16 15.98-10.89 31.968-18.62 46.908-3.36-.38-6.439-4.659-10.019-6.029-.05 3.42-.101 6.849-.141 10.269 7.65 7.71 18.209 12.042 28.869 13.442-.65-3.01-1.39-6.031-2.67-8.821-4.2-2.05-9.03-2.68-12.9-5.42 6.52-15.37 15.79-29.63 21.07-45.57 1.28-3.29-3.159-4.579-5.589-4.779zm44.541 40.894c-.757.012-1.477.29-2.032.975-2.39 3.35-6.618 2.63-9.728 4.35-3.22 12.83-4.861 29.45 6.189 39.17 3.46 2.92 5.279 8.639 10.049 9.419 3.95-2.75 7.441-6.59 8.711-11.33-3.57 2.43-5.929 8.612-11.359 6.352-4.15-3.56-7.342-8.121-10.282-12.701-4.86-7.23-3.99-16.56-2.41-24.68.47-5.7 7.651-5.541 11.371-8.461 5.55.09 10.829 4.16 16.619 3.33 2.41-1.18 6.851-.89 6.131-4.75-6.74 2.52-14.509 1.951-21.009-1.049-.7-.38-1.494-.636-2.25-.625zm16.683 7.266c-.246.008-.549.108-.924.328-2.26 3.74-5.731 6.3-8.791 9.32-2.41 5.23 2.402 8.47 4.852 12.35 3.31-1.1 5.299-4.369 6.029-7.629 1.74-2.52 4.5-6.461.99-8.801-1.478-1.05-.431-5.62-2.156-5.568zm-12.121 12.584c-.174-.039-.403 0-.703.135-3.59 2.52-10.91 4.259-8.83 10.019 3.44 1.59 4.1 4.81 3.9 8.34 3.72-.66 7.25-3.6 10.03-6.25 1.1-3.09-.931-5.289-3.161-7.019-1.478-.919-.017-4.954-1.236-5.225zm-137.412 241.244c-1.41 2.06-2.011 4.472-2.291 6.932-.16 3.1.18 6.198.83 9.228 3.36 6.98 10.1 12.281 17.77 13.541 9.03.82 18.11-.22 27.15.34 2.89-.38 5.92-.57 8.59-1.9 1.75-2.56 2.519-5.62 3.529-8.51-10.5 3.97-21.87 1.071-32.67.311-11.02-.47-20.148-9.672-22.908-19.942z" fill="#a87659"/>
    <path id="color7" d="m736.881 550c-3.03-.07-1.241 6.419-2.951 8.949.55 2.15.77 4.512 2.08 6.362 3.19.28 1.32-5.112 3.17-6.022 7.72-1.41-.941 8.47 2.269 12.15 4.79 5.01 9.841 10.512 16.401 13.112.04-5.51-2.39-12.162.91-16.942-7.22-5.85-18.829-7.899-21.879-17.609zm-193.861 5.381c-6.06 8.17-8.81 18.59-8.87 28.67-.39 3.32 2.801 5.159 4.821 7.219 1.47.63 4.03 1.371 4.92-.469-.26-5.38 4.428-8.841 7.898-12.201-4.78-6.92-7.089-15.079-8.769-23.219zm219.019 14.549c-.88 5.24-2.149 10.629-1.039 15.939 1.94 3.05 5.3 4.81 8.82 5.32-.78-5.64-.709-11.339-.849-17.009-2.34-1.36-4.682-2.74-6.932-4.25zm11.762 11.83c-2.69 3.82 7.859 4.93 2.219 6.07-4.19-.64-1.739 4.59.541 5.6 5.81 3.08 12.609 5.8 19.289 4.67 3.05-2.4 6-10.7.14-11.1-7.6-.97-14.569-5.14-22.189-5.24zm131.199 2.06c-7.37 2.99-15.02 5.309-23.01 5.709 4.07 3.37-.77 9.331.74 13.821 8.19-.72 16.551-3.739 23.161-8.629.62-3.51-.901-7.271-.891-10.901zm-41.961 5.76c-2.07 7.08-5.59 13.6-8.17 20.49 6.94-3.06 14.93-3.089 21.67-6.509 1.64-4.31 1.471-9.082 1.881-13.622-5.13.54-10.261-.109-15.381-.359zm-115.385 125.191c-.947.069-1.898.615-2.865 1.879-1.39 2.28-2.988 4.42-4.648 6.51-5.95 8.52-8.601 19.169-16.141 26.539-6.37 11.88-7.931 27.241-19.561 35.721-5.09 7.86-9.949 15.89-15.449 23.48-.95 1.64-2.19 3.08-3.66 4.28-1.65 8.56-9.67 14.82-13.16 22.8.28 2.24 4.26 3.97 2.07 6.28-4.95 6.86-10.04 13.82-12.99 21.82-.64 4.77 2.08 11.25 7.75 10.93 4.07.66 5.541-5.849 9.811-3.869.27 2.51.179 5.059.519 7.589 3.39 2.3 8.349 1.79 10.869-1.57 10.41-12.98 15.73-29.821 28.75-40.721 7.49-16 17.761-30.568 26.571-45.878 7.26-10.5 11.45-22.87 12.89-35.51 2.71-8.99 9.899-16.181 11.529-25.571-3.63-3.22-7.489-6.189-11.839-8.339-3.743-.789-7.064-6.615-10.446-6.37zm-227.611 7.102c-1.226-.064-2.864.109-4.293.277-3.23 3.82-7.36 6.721-12.42 7.411 2.02 6.09-3.97 9.579-8.15 12.449 2.29 2.68 4.661 5.269 3.031 9.099 1.1-.25 2.419.031 3.379-.679 1.75-10.93 10.7-19.41 18.08-27.2.06.51.171 1.53.221 2.03 3.1-2.519 2.196-3.28.152-3.387zm213.668 44.826c1.54.07 3.158.981 4.658 1.571-3.89 6.84-6.828 14.27-11.478 20.64-3.75 2.85-5.53-3.339-3.75-5.949 2.92-5.74 5.87-11.802 10.57-16.262z" fill="#555459"/>
    <path id="color8" d="m733.93 558.949c-5.18 5.34-11.84 8.442-18.35 11.762-4.14 1.86-3.5 6.579-3.33 10.299.77 6.95-4.619 13.041-10.689 15.621-28.8 13.24-56.691 28.508-83.381 45.648-31.04 20.29-58.27 45.671-87.36 68.541-4.34 3.67-10.3 2.39-15.48 2.34 3.75 2.66.6 5.381-2.93 5.221 1.04 1.31 2.15 2.569 3.34 3.769 3.81-.45 9.101-.92 4.141 3.11-3.25 2.35.499 1.88 2.679 2.24 1.44 4.72 2.419 9.829 1.789 14.779-2.42 1.04-5.18.511-7.74.891-.02 2.03.242 4.05.192 6.09-4.75.73-7.041 5.61-11.481 6.99-.46-2.94.72-10.54-3.74-5.82-.96.71-2.279.429-3.379.679-1.53.25-2.661 1.411-3.861 2.291 1.17 1.04 3.221 1.62 2.951 3.59-.06 8-3.571 16.09-1.121 24.03.91 4.38 5.03 6.83 7.81 9.99 4.74 5.2 10.709 9.65 17.709 11.17 14.35 4.4 29.541 1.991 44.301 2.541 5.13.76 9.28-2.591 13.98-3.881 11.89-4.89 23.76-9.84 35.18-15.77 14.92-6.17 30.181-11.541 44.981-18.041 2.48-1.59 5.309-2.29 8.209-2.66 11.68-3.05 23.449-6.929 35.679-6.689 7.39-.2 13.761-4.461 19.971-7.981 7.54-7.37 10.191-18.019 16.141-26.539-.28-3.85-1.432-7.531-2.452-11.221-.82-2.43 1.811-3.7 3.331-4.99 6.7-5.16 13.64-10.158 19.4-16.398.28-2.46.881-4.872 2.291-6.932 11.04-26.97 23.06-53.568 34.67-80.308-9.49-3.25-20.111-4.742-27.561-12.122-3.52-.51-6.88-2.27-8.82-5.32-1.11-5.31.159-10.699 1.039-15.939-1.08-.8-2.179-1.591-3.279-2.321-3.3 4.78-.87 11.432-.91 16.942-6.56-2.6-11.611-8.102-16.401-13.112-3.21-3.68 5.451-13.56-2.269-12.15-1.85.91.02 6.302-3.17 6.022-1.31-1.85-1.53-4.212-2.08-6.362zm177.679 22.75c-2.21.73-4.429 1.361-6.609 2.121-.01 3.63 1.511 7.391.891 10.901-6.61 4.89-14.971 7.909-23.161 8.629-1.51-4.49 3.33-10.451-.74-13.821-1.2.12-2.39.25-3.57.41-.41 4.54-.241 9.312-1.881 13.622-6.74 3.42-14.73 3.449-21.67 6.509-12.74 30.85-23.43 62.5-36.58 93.18-1.01 2.89-1.779 5.95-3.529 8.51-2.67 1.33-5.7 1.52-8.59 1.9-.17.43-.49 1.291-.65 1.721 15.28 64.45 29.96 129.209 49.88 192.449 3.49 14.33 14.519 25.2 25.549 34.24 10.23 8.92 28.821 10 37.481-1.64 6.06-7.35 11.9-14.979 16-23.619.2-5.29.34-10.561 1.15-15.801.28-36.67.34-73.36-.07-110.03-2.04-8.91.681-18.32-2.539-26.99-1.03-27.75-3.762-55.45-8.032-82.99-.24-9.46-4.42-18.45-3.32-28-1.01-11.04 7.261-20.701 4.971-31.811-3.24-8.28-7.579-16.069-12.379-23.529-4.4-4.19-1.922-10.641-2.602-15.961zm-272.138 216.951c-.11 2.58-.502 5.241.068 7.811 6.23 4.8 13.671 8.05 21.441 9.35 8.15 2.34 16.42-.831 24.35-2.631 1.47-1.2 2.71-2.64 3.66-4.28-9.74 3.07-20.3 7.451-30.49 3.741-7.29-2.55-17.059-5.451-19.029-13.991z" fill="#2b2a32"/>
    <path id="color9" d="m768.971 574.18c.14 5.67.069 11.369.849 17.009 7.45 7.38 18.071 8.872 27.561 12.122 2.03-5.71 5.46-10.891 6.59-16.911-12.04-2.91-23.89-6.67-35-12.22zm4.83 7.58c7.62.1 14.589 4.27 22.189 5.24 5.86.4 2.91 8.7-.14 11.1-6.68 1.13-13.479-1.59-19.289-4.67-2.28-1.01-4.731-6.24-.541-5.6 5.64-1.14-4.909-2.25-2.219-6.07zm-40.09 184.939c-4.7 4.46-7.65 10.522-10.57 16.262-1.78 2.61 0 8.799 3.75 5.949 4.65-6.37 7.588-13.8 11.478-20.64-1.5-.59-3.118-1.501-4.658-1.571z" fill="#c4c3c9"/>
    <path id="color10" d="m551.789 578.6c-3.47 3.36-8.158 6.821-7.898 12.201-.09 1.7-.262 3.39-.442 5.09 6.45-1.26 9.55-8.241 13.41-12.891-1.74-1.41-3.43-2.88-5.07-4.4z" fill="#e98424"/>
    <path id="color11" d="m737.689 711.939c1.02 3.69 2.172 7.371 2.452 11.221 1.66-2.09 3.258-4.23 4.648-6.51-2.46-1.43-4.94-2.841-7.1-4.711zm-13.689 37.76c-6.21 3.52-12.581 7.781-19.971 7.981-12.23-.24-23.999 3.639-35.679 6.689 1.58 8.05-6.239 12.201-11.469 16.471-5.53 1.04-9.871 4.79-14.791 7.25-3.9 2.07-2.839 6.94-2.619 10.56 1.97 8.54 11.739 11.441 19.029 13.991 10.19 3.71 20.75-.671 30.49-3.741 5.5-7.59 10.359-15.62 15.449-23.48 11.63-8.48 13.191-23.841 19.561-35.721z" fill="#7e5b3c"/>
  </g>
</svg>
